<svg width="569" height="394" viewBox="0 0 569 394" fill="none" xmlns="http://www.w3.org/2000/svg">
<g filter="url(#filter0_d_480_853)">
<rect x="11" y="10" width="541" height="366" rx="12" fill="white"/>
<path d="M251.062 95.7773C235.435 39.0883 165.014 20.8263 124.656 63.1933C124.076 63.8013 123.498 64.4203 122.919 65.0493C65.0599 127.944 92.393 282.936 213.143 322.22C333.893 361.504 459.489 289.768 466.545 225.641C473.601 161.514 417.893 141.364 331.44 159.296C282.596 169.426 260.79 131.067 251.062 95.7773Z" fill="#BBE2F2"/>
<path d="M351.509 105.473C335.353 108.103 330.876 122.417 343.35 132.571C347.473 135.927 353.361 138.716 361.749 140.107C393.703 145.408 410.66 131.27 397.851 112.94C389.946 101.627 367.519 102.867 351.509 105.473Z" fill="#BBE2F2"/>
<path d="M93.9094 220.018C83.8654 207.093 69.1554 210.015 66.2124 225.828C65.2394 231.055 65.6104 237.559 68.4044 245.59C79.0484 276.182 99.5784 284.301 109.539 264.28C115.688 251.923 103.863 232.826 93.9094 220.018Z" fill="#BBE2F2"/>
<path d="M477.933 233.094C476.445 240.885 482.878 246.404 490.168 243.401C492.577 242.409 495.008 240.496 497.17 237.132C505.406 224.319 501.235 213.329 489.767 214.457C482.689 215.154 479.408 225.373 477.933 233.094Z" fill="#BBE2F2"/>
<path d="M437.089 150.876C444.854 152.497 450.481 146.158 447.603 138.819C446.652 136.393 444.78 133.93 441.455 131.711C428.785 123.258 417.724 127.241 418.657 138.727C419.233 145.815 429.394 149.27 437.089 150.876Z" fill="#BBE2F2"/>
<path d="M248.363 67.5016C254.511 72.5136 262.424 69.4766 263.247 61.6356C263.519 59.0446 262.991 55.9966 261.059 52.4956C253.7 39.1596 242.048 37.6066 237.59 48.2326C234.839 54.7916 242.271 62.5346 248.363 67.5016Z" fill="#BBE2F2"/>
<path d="M497.183 272.068C509.512 259.674 518.901 245.667 509.561 243.484C500.212 241.298 484.511 265.707 481.775 287.924L479.037 295.259C481.314 279.103 475.778 259.423 467.672 258.612C459.618 257.806 464.493 270.571 470.89 281.488C475.759 289.798 477.043 296.354 477.363 299.742L464.431 334.385C467.963 308.79 459.193 277.737 446.368 276.454C433.589 275.176 441.324 295.43 451.473 312.752C459.143 325.842 461.208 336.195 461.735 341.605L459.157 348.513C460.285 349.148 461.416 349.776 462.551 350.397L477.936 309.181C480.904 306.965 485.411 304.287 491.828 302.116C503.814 298.061 515.861 291.613 509.249 286.944C503.511 282.892 490.021 290.691 480.729 301.698L486.05 287.444C488.449 283.318 491.862 277.417 497.183 272.068Z" fill="#1C31B5"/>
<path d="M108.547 110.372C110.146 95.4028 108.901 80.9348 101.451 84.5028C93.9944 88.0748 96.6084 112.931 106.746 129.326L108.861 135.728C101.681 123.651 87.3554 113.419 81.4754 117.243C75.6324 121.043 85.7874 126.988 95.9674 130.871C103.717 133.827 108.112 137.538 110.154 139.641L120.144 169.878C108.719 150.785 86.0904 134.659 76.7864 140.71C67.5154 146.74 83.6274 156.173 99.7814 162.335C111.988 166.991 118.956 172.831 122.226 176.18L124.218 182.209C125.318 182.028 126.416 181.84 127.513 181.645L115.628 145.672C116.427 142.584 118.01 138.356 121.149 133.439C127.013 124.255 131.627 113.431 124.67 113.859C118.632 114.231 113.777 126.741 113.47 139.141L109.36 126.701C108.746 122.635 107.857 116.833 108.547 110.372Z" fill="#1C31B5"/>
<path d="M413.959 313.241C414.116 314.089 414.297 315.015 414.509 315.999V316.001C416.729 326.323 422.179 343.219 434.442 346.542C434.442 346.542 427.767 311.738 451.557 302.673C475.347 293.608 472.716 284.977 471.356 269.614C469.996 254.251 464.739 251.322 481.246 236.931C497.753 222.54 494.596 201.105 494.596 201.105C494.596 201.105 478.974 225.579 462.289 226.147C445.604 226.715 442.681 240.959 443.393 251.552C444.104 262.144 429.934 263.342 422.266 269.486C414.598 275.63 413.154 307.894 413.154 307.894C413.154 307.894 413.366 310.004 413.959 313.241Z" fill="#009CF8"/>
<path d="M413.959 313.241C414.116 314.089 414.297 315.015 414.509 315.999C416.22 310.82 418.626 306.47 420.879 303.132C426.215 295.225 433.731 288.73 440.49 286.181C451.252 282.126 456.508 271.57 457.526 251.953C458.116 240.567 470.029 233.841 470.151 233.775C470.499 233.582 470.626 233.142 470.433 232.794C470.24 232.444 469.8 232.317 469.452 232.51C468.932 232.797 456.715 239.681 456.083 251.877C455.1 270.841 450.133 281.005 439.981 284.831C432.849 287.518 425.26 294.057 419.681 302.322C417.709 305.244 415.622 308.922 413.959 313.241Z" fill="#006BDE"/>
<path d="M150.633 346.353H167.35C158.317 344.86 135.922 335.246 133.925 315.967C131.396 291.548 122.7 291.853 108.049 289.3C93.397 286.746 89.361 290.916 80.058 271.958C70.755 253.001 50 250.611 50 250.611C50 250.611 68.917 271.252 65.297 286.938C61.677 302.625 74.221 308.889 84.267 310.861C94.313 312.832 91.905 326.332 95.722 335.004C97.464 338.961 104.595 343.063 111.833 346.353H150.633Z" fill="#006BDE"/>
<path d="M114.423 322.314C115.153 329.627 119.358 338.324 125.671 345.577C125.893 345.832 126.124 346.091 126.36 346.351H128.262C127.718 345.778 127.202 345.212 126.723 344.661C120.684 337.723 116.501 329.106 115.807 322.175C114.705 311.14 106.178 303.618 88.1542 297.791C77.6922 294.41 74.3881 281.639 74.3581 281.508C74.2651 281.136 73.8862 280.908 73.5142 281.001C73.1402 281.094 72.9121 281.472 73.0051 281.844C73.1431 282.4 76.5192 295.494 87.7242 299.116C105.147 304.75 113.382 311.904 114.423 322.314Z" fill="#1C31B5"/>
<path d="M159.649 301.035C159.295 302.221 158.894 303.513 158.441 304.885L158.44 304.888C153.687 319.272 143.937 343.498 125.932 346.353C125.932 346.353 140.182 296.768 107.637 280.179C75.0921 263.59 80.1721 251.682 84.4741 229.975C88.7751 208.268 96.725 204.897 75.389 181.83C54.053 158.763 61.8521 128.67 61.8521 128.67C61.8521 128.67 80.3761 165.985 104.091 169.36C127.807 172.735 129.786 193.505 127.143 208.507C124.5 223.509 144.531 227.395 154.525 237.339C164.519 247.282 161.62 293.531 161.62 293.531C161.62 293.531 160.993 296.507 159.649 301.035Z" fill="#009CF8"/>
<path d="M159.649 301.034C159.295 302.22 158.894 303.512 158.441 304.884C156.797 297.233 154.032 290.657 151.332 285.549C144.935 273.449 135.212 263.028 125.962 258.353C111.232 250.914 105.358 235.047 106.92 206.906C107.829 190.572 91.8691 179.145 91.7041 179.034C91.2371 178.705 91.1231 178.058 91.4521 177.591C91.7821 177.121 92.4291 177.007 92.8961 177.336C93.5931 177.825 109.963 189.524 108.991 207.02C107.479 234.224 113.001 249.487 126.895 256.507C136.656 261.437 146.478 271.932 153.166 284.58C155.529 289.049 157.942 294.616 159.649 301.034Z" fill="#006BDE"/>
<path d="M172.558 334.693C172.613 338.463 172.681 342.386 172.764 346.353H209.124C209.193 342.01 209.246 337.848 209.286 333.943C209.395 323.36 209.408 314.651 209.399 309.238C209.395 305.398 209.379 303.221 209.379 303.221L172.303 302.828C172.303 302.828 172.303 306.031 172.331 311.27C172.355 317.092 172.42 325.428 172.558 334.693Z" fill="#014579"/>
<path d="M172.33 311.269C172.354 317.092 172.419 325.428 172.557 334.693C183.979 335.565 196.5 335.573 209.285 333.943C209.395 323.36 209.407 314.651 209.399 309.238L172.33 311.269Z" fill="#000B29"/>
<path d="M126.736 326.333C126.777 332.26 126.847 339.049 126.965 346.354H163.328C163.418 342.077 163.49 337.851 163.549 333.814C163.675 325.149 163.74 317.348 163.772 311.74C163.8 306.221 163.8 302.828 163.8 302.828L126.707 303.221C126.707 303.221 126.679 307.154 126.687 313.771C126.688 317.27 126.704 321.516 126.736 326.333Z" fill="#014579"/>
<path d="M126.688 313.771C126.688 317.27 126.703 321.515 126.736 326.333C134.12 328.51 147.338 331.896 163.549 333.814C163.675 325.149 163.74 317.348 163.772 311.74L126.688 313.771Z" fill="#000B29"/>
<path d="M187.641 107.754C187.641 107.754 193.484 102.127 193.465 96.5697C193.445 91.0127 189.668 92.6547 187.641 87.4767C185.614 82.2987 179.591 79.1407 176.288 79.7727C172.985 80.4047 166.011 67.5217 156.553 69.7947C147.094 72.0677 147.917 84.1927 143.843 85.9607C139.769 87.7287 140.905 94.9277 143.053 96.5697C145.2 98.2117 146.109 104.81 147.317 104.661C148.524 104.512 187.641 107.754 187.641 107.754Z" fill="#014579"/>
<path d="M148.316 107.622C148.316 107.622 144.642 102.724 141.911 106.774C139.179 110.824 143.041 122.786 149.729 119.866L148.316 107.622Z" fill="#F97853"/>
<path d="M148.27 116.169C148.023 116.169 147.796 116.006 147.726 115.756C146.69 112.063 142.863 110.566 142.825 110.551C142.534 110.44 142.387 110.114 142.498 109.822C142.608 109.53 142.935 109.383 143.226 109.494C143.405 109.561 147.621 111.198 148.815 115.451C148.899 115.752 148.724 116.063 148.424 116.148C148.372 116.162 148.32 116.169 148.27 116.169Z" fill="#EA5143"/>
<path d="M144.408 114.308C144.303 114.308 144.197 114.279 144.103 114.218C143.841 114.049 143.765 113.699 143.934 113.437C143.962 113.393 144.639 112.361 146.055 111.727C146.338 111.599 146.674 111.727 146.801 112.012C146.928 112.297 146.801 112.631 146.516 112.758C145.421 113.248 144.889 114.041 144.884 114.048C144.775 114.217 144.593 114.308 144.408 114.308Z" fill="#EA5143"/>
<path d="M186.175 107.62C186.175 107.62 189.848 102.722 192.58 106.772C195.311 110.822 191.45 122.784 184.762 119.864L186.175 107.62Z" fill="#F97853"/>
<path d="M186.222 116.167C186.469 116.167 186.696 116.004 186.766 115.754C187.802 112.061 191.628 110.564 191.667 110.549C191.958 110.438 192.105 110.112 191.994 109.82C191.883 109.528 191.557 109.381 191.266 109.492C191.087 109.559 186.871 111.196 185.677 115.449C185.593 115.75 185.768 116.061 186.069 116.146C186.12 116.16 186.172 116.167 186.222 116.167Z" fill="#EA5143"/>
<path d="M190.084 114.306C190.189 114.306 190.295 114.277 190.389 114.216C190.652 114.047 190.727 113.697 190.558 113.435C190.53 113.391 189.853 112.359 188.437 111.725C188.154 111.597 187.818 111.725 187.69 112.01C187.563 112.295 187.69 112.629 187.975 112.756C189.07 113.246 189.602 114.039 189.607 114.046C189.717 114.215 189.898 114.306 190.084 114.306Z" fill="#EA5143"/>
<path d="M176.288 130.012V141.908C176.288 141.908 172.74 147.967 167.943 148.379C163.15 148.797 158.891 143.163 158.891 143.163V130.849L176.288 130.012Z" fill="#FFA681"/>
<path d="M176.289 130.012V135.291C173.07 138.864 167.352 139.756 158.891 138.507V130.849L176.289 130.012Z" fill="#F97853"/>
<path d="M188.83 99.4606C188.61 104.084 188.169 109.865 187.287 114.488C187.067 115.641 186.818 116.726 186.541 117.698C184.037 126.463 177.776 141.496 160.245 135.234C152.502 132.471 148.914 123.847 147.314 115.075C146.229 109.118 146.065 103.1 146.144 98.7986C146.229 94.4076 148.625 90.3946 152.445 88.2306C162.793 82.3646 173.712 84.5516 180.9 87.3146C185.891 89.2316 189.084 94.1316 188.83 99.4606Z" fill="#FFA681"/>
<path d="M147.314 115.074C147.314 115.074 149.015 125.209 150.622 128.904C152.232 132.598 156.621 133.295 158.269 136.417C160.62 140.869 164.204 144.398 170.099 142.248C175.004 140.459 174.782 137.951 177.53 136.011C182.238 132.687 184.571 129.029 184.761 125.998C184.95 122.967 187.288 114.487 187.288 114.487L184.761 114.309C184.761 114.309 183.321 117.291 181.203 120.576C179.077 115.908 168.836 119.303 168.836 119.303L166.881 119.936L164.873 119.303C164.873 119.303 154.51 116.052 152.464 120.947C151.21 119.03 150.191 116.874 149.728 114.589L147.314 115.074ZM166.88 121.515C178.626 119.499 176.527 126.376 176.451 126.623V126.627C176.447 126.631 176.447 126.631 176.447 126.631C175.651 127.389 174.84 128.025 174.033 128.461C169.482 130.92 168.99 130.549 167.194 130.628C165.368 130.715 162.848 130.173 160.291 128.745C159.495 128.298 158.306 127.434 157.002 126.244C157.002 126.244 155.157 119.935 166.88 121.515Z" fill="#014579"/>
<path d="M159.822 109.172C159.822 110.442 159.168 111.471 158.36 111.471C157.553 111.471 156.898 110.442 156.898 109.172C156.898 107.902 157.553 106.873 158.36 106.873C159.167 106.873 159.822 107.902 159.822 109.172Z" fill="#014579"/>
<path d="M177.199 109.172C177.199 110.442 176.544 111.471 175.737 111.471C174.93 111.471 174.275 110.442 174.275 109.172C174.275 107.902 174.929 106.873 175.737 106.873C176.544 106.873 177.199 107.902 177.199 109.172Z" fill="#014579"/>
<path d="M181.493 101.602C181.493 101.602 175.452 99.2153 170.801 101.224L171.266 103.811C171.266 103.811 178.092 103.234 181.532 104.627C181.841 103.631 181.886 102.625 181.493 101.602Z" fill="#014579"/>
<path d="M152.771 101.613C152.771 101.613 158.856 99.2083 163.541 101.232L163.072 103.838C163.072 103.838 156.195 103.256 152.73 104.66C152.421 103.657 152.375 102.643 152.771 101.613Z" fill="#014579"/>
<path d="M167.442 118.809C168.395 118.809 169.341 118.438 169.488 118.378C169.777 118.26 169.915 117.93 169.797 117.642C169.68 117.353 169.349 117.214 169.061 117.332C168.551 117.539 167.325 117.864 166.794 117.546C166.691 117.485 166.552 117.363 166.516 117.02C166.312 115.046 166.852 108.431 166.858 108.365C166.884 108.054 166.652 107.781 166.341 107.756C166.029 107.73 165.757 107.962 165.732 108.273C165.709 108.549 165.178 115.06 165.393 117.137C165.474 117.919 165.884 118.319 166.215 118.517C166.575 118.732 167.01 118.809 167.442 118.809Z" fill="#F97853"/>
<path d="M160.236 122.646C160.665 124.805 162.091 128.776 166.895 128.776C171.711 128.776 173.061 125.147 173.525 122.646H160.236Z" fill="white"/>
<path d="M188.83 99.4597C188.61 104.083 188.169 109.864 187.287 114.487L184.761 114.308C184.761 114.308 185.373 110.405 185.656 107.861C185.939 105.318 186.419 100.564 184.248 99.9707C182.083 99.3827 183.354 93.9597 180.342 91.6087C177.33 89.2517 170.638 87.1776 166.196 89.9136C161.754 92.6436 156.701 91.1347 154.656 91.6087C152.605 92.0777 149.824 94.9036 150.576 97.5426C151.333 100.176 149.073 101.782 148.525 104.511C147.977 107.241 149.729 114.587 149.729 114.587L147.316 115.073C146.231 109.116 146.067 103.098 146.146 98.7966C146.231 94.4056 148.627 90.3926 152.447 88.2286C162.795 82.3626 173.714 84.5496 180.902 87.3126C185.891 89.2306 189.084 94.1307 188.83 99.4597Z" fill="#014579"/>
<path d="M217.063 321.096C205.628 323.992 194.193 325.865 182.75 326.727C182.231 326.765 181.717 326.803 181.198 326.838C179.625 326.944 178.052 327.032 176.48 327.1C168.697 327.435 160.912 327.304 153.126 326.704C151.556 326.583 149.988 326.444 148.418 326.283C147.917 326.235 147.415 326.182 146.911 326.124C137.616 325.116 128.323 323.437 119.02 321.096C118.927 312.527 119.033 285.435 119.559 256.055C119.62 252.524 119.688 248.96 119.766 245.391C120.59 206.67 122.18 167.365 125.041 163.428C127.783 159.66 136.048 154.871 143.949 150.551C144.42 150.294 144.892 150.037 145.36 149.782C147.137 148.817 148.873 147.882 150.507 146.994C154.008 145.089 157.027 143.395 158.892 142.087V143.163C158.892 143.163 163.146 148.794 167.94 148.378C172.31 148.003 175.637 142.954 176.202 142.049C178.264 143.501 181.966 145.502 186.258 147.77C187.453 148.403 188.688 149.05 189.948 149.718C190.412 149.962 190.878 150.209 191.347 150.459C200.085 155.094 209.506 160.319 212.334 164.203C212.546 164.49 212.747 164.972 212.939 165.632C214.613 171.298 215.651 190.1 216.283 212.869C216.286 212.95 216.288 213.033 216.291 213.116C216.319 214.036 216.341 214.963 216.364 215.896C216.369 216.017 216.371 216.141 216.374 216.264C216.581 224.251 216.737 232.659 216.858 241.108C216.868 241.778 216.881 242.449 216.888 243.119C216.891 243.457 216.896 243.789 216.898 244.127C216.926 245.79 216.943 247.454 216.959 249.11C216.977 250.332 216.992 251.552 217.002 252.775C217.318 283.313 217.189 312.118 217.063 321.096Z" fill="#006BDE"/>
<path d="M216.366 215.897C213.614 211.403 210.66 206.816 207.877 202.758C207.869 202.748 207.862 202.738 207.857 202.728C206.688 201.024 205.551 199.416 204.47 197.947C204.452 197.919 204.435 197.894 204.415 197.871C204.077 197.41 203.742 196.961 203.414 196.525C203.361 196.449 203.321 196.371 203.296 196.288L203.293 196.285C203.205 195.99 203.303 195.663 203.563 195.466C203.898 195.211 204.375 195.277 204.627 195.612C207.969 200.04 212.244 206.407 216.286 212.869C216.289 212.95 216.291 213.033 216.294 213.116C216.321 214.037 216.343 214.965 216.366 215.897Z" fill="#264CBE"/>
<path d="M212.452 163.578C212.452 163.578 229.697 195.172 240.209 211.185C240.209 211.185 246.187 205.693 253.962 198.346C262.392 190.38 273.921 177.067 273.921 177.067L280.301 184.633C280.301 184.633 254.397 231.248 242.779 237.107C231.16 242.966 209.75 201.499 209.75 201.499L212.452 163.578Z" fill="#006BDE"/>
<path d="M139.437 288.099C139.427 288.099 139.418 288.099 139.409 288.099C138.979 288.084 138.642 287.722 138.657 287.291C139.561 261.776 126.331 253.51 126.197 253.43C125.829 253.208 125.708 252.729 125.929 252.36C126.15 251.991 126.627 251.87 126.997 252.09C127.144 252.177 130.642 254.302 134.029 259.747C137.121 264.717 140.705 273.54 140.215 287.346C140.201 287.767 139.855 288.099 139.437 288.099Z" fill="#264CBE"/>
<path d="M195.88 264.061C195.477 264.061 195.135 263.751 195.103 263.342C194.684 257.969 196.454 254.05 198.695 249.088C199.351 247.636 200.028 246.136 200.722 244.453C205.071 233.906 202.885 221.847 202.863 221.726C202.784 221.303 203.062 220.895 203.486 220.816C203.91 220.736 204.317 221.016 204.396 221.439C204.492 221.95 206.687 234.077 202.164 245.048C201.46 246.755 200.777 248.267 200.116 249.731C197.883 254.675 196.27 258.247 196.658 263.222C196.691 263.651 196.37 264.027 195.941 264.06C195.921 264.06 195.901 264.061 195.88 264.061Z" fill="#264CBE"/>
<path d="M150.508 146.994C150.841 149.506 151.33 152.765 151.864 156.466C152.027 157.565 152.19 158.705 152.357 159.876C152.899 163.699 153.46 167.859 153.937 172.065C154.066 173.194 154.187 174.327 154.301 175.456C154.722 179.62 155.04 183.757 155.154 187.603C155.192 188.766 155.207 189.903 155.2 191.006C155.192 193.942 155.029 196.64 154.673 198.948C154.445 200.407 154.245 201.831 154.067 203.226C153.919 204.382 153.787 205.518 153.669 206.636C153.214 210.975 152.987 215.014 152.923 218.821C152.904 219.977 152.9 221.11 152.912 222.22C152.946 226.543 153.192 230.571 153.548 234.405C153.654 235.553 153.771 236.682 153.893 237.796C154.359 241.987 154.927 245.976 155.462 249.921C155.617 251.05 155.769 252.175 155.917 253.301C156.148 255.104 156.368 256.908 156.557 258.723C156.758 260.648 156.887 262.898 156.947 265.395C156.977 266.486 156.992 267.627 156.996 268.805C157.011 272.537 156.916 276.671 156.742 280.994C156.697 282.123 156.647 283.267 156.591 284.423C156.398 288.439 156.144 292.569 155.86 296.646C155.777 297.794 155.693 298.935 155.606 300.071C155.291 304.315 154.943 308.449 154.59 312.294C154.484 313.461 154.378 314.602 154.272 315.708C153.866 319.94 153.473 323.703 153.128 326.704C160.914 327.303 168.701 327.435 176.483 327.098C176.665 323.904 177.161 318.751 177.65 312.685C177.741 311.575 177.828 310.431 177.915 309.264C178.207 305.407 178.472 301.285 178.646 297.124C178.695 295.984 178.737 294.839 178.767 293.699C178.885 289.546 178.888 285.42 178.71 281.552C178.657 280.377 178.589 279.229 178.498 278.112C178.407 276.968 178.297 275.854 178.165 274.778C177.79 271.739 177.646 268.822 177.665 265.935C177.669 264.791 177.699 263.654 177.752 262.514C177.93 258.558 178.362 254.595 178.862 250.386C178.995 249.268 179.135 248.131 179.275 246.972C179.726 243.229 180.196 239.258 180.567 234.912C180.665 233.798 180.753 232.658 180.836 231.491C181.094 227.763 181.268 223.758 181.295 219.393C181.302 218.268 181.299 217.12 181.284 215.945C181.242 212.167 181.083 208.125 180.776 203.771C180.749 203.385 180.723 202.994 180.693 202.6C180.636 201.838 180.587 201.069 180.553 200.3C180.352 196.329 180.405 192.245 180.629 188.172C180.69 187.028 180.765 185.884 180.853 184.739C181.167 180.662 181.626 176.623 182.156 172.751C182.311 171.599 182.474 170.459 182.641 169.337C183.278 165.093 183.963 161.1 184.592 157.531C184.801 156.357 185.001 155.227 185.191 154.151C185.619 151.741 185.99 149.593 186.263 147.774C181.97 145.504 178.268 143.504 176.207 142.053C175.642 142.959 172.316 148.005 167.943 148.381C163.15 148.798 158.895 143.167 158.895 143.167V142.091C157.028 143.395 154.009 145.089 150.508 146.994Z" fill="white"/>
<path d="M151.863 156.466C152.026 157.565 152.189 158.705 152.356 159.876C156.657 159.974 161.707 159.33 167.792 157.925C174.309 156.425 180.057 156.686 184.588 157.527C184.797 156.353 184.997 155.223 185.187 154.147C180.277 153.241 174.082 152.98 167.027 154.605C161.021 155.989 156.019 156.625 151.863 156.466Z" fill="#E3E3E3"/>
<path d="M153.936 172.066C154.065 173.195 154.186 174.328 154.3 175.457C158.161 175.355 162.602 174.71 167.793 173.509C173.185 172.266 178.057 172.236 182.153 172.747C182.308 171.595 182.471 170.455 182.638 169.333C178.197 168.784 172.912 168.829 167.028 170.186C161.987 171.35 157.653 171.986 153.936 172.066Z" fill="#E3E3E3"/>
<path d="M155.152 187.603C155.19 188.766 155.205 189.903 155.198 191.006C158.847 190.835 163 190.199 167.792 189.092C172.528 188.001 176.863 187.845 180.625 188.168C180.686 187.024 180.761 185.88 180.849 184.735C176.802 184.402 172.138 184.591 167.027 185.769C162.529 186.808 158.592 187.426 155.152 187.603Z" fill="#E3E3E3"/>
<path d="M153.668 206.634C157.677 206.589 162.314 205.937 167.793 204.675C172.59 203.569 176.977 203.425 180.774 203.766C180.747 203.38 180.721 202.989 180.691 202.595C180.634 201.833 180.585 201.064 180.551 200.295C176.573 199.996 172.015 200.2 167.028 201.352C162.046 202.504 157.756 203.133 154.066 203.224C153.918 204.38 153.785 205.517 153.668 206.634Z" fill="#E3E3E3"/>
<path d="M152.909 222.22C157.088 222.254 161.965 221.606 167.792 220.261C172.82 219.102 177.386 218.992 181.292 219.39C181.299 218.265 181.296 217.117 181.281 215.942C177.136 215.559 172.324 215.718 167.027 216.938C161.522 218.207 156.861 218.848 152.921 218.821C152.901 219.977 152.897 221.11 152.909 222.22Z" fill="#E3E3E3"/>
<path d="M153.545 234.406C153.651 235.554 153.768 236.683 153.89 237.797C157.846 237.733 162.415 237.085 167.792 235.846C172.509 234.759 176.825 234.592 180.565 234.91C180.663 233.796 180.751 232.656 180.834 231.489C176.787 231.156 172.131 231.345 167.027 232.523C161.813 233.724 157.35 234.364 153.545 234.406Z" fill="#E3E3E3"/>
<path d="M155.459 249.919C155.614 251.048 155.766 252.173 155.914 253.299C159.389 253.083 163.306 252.462 167.792 251.427C171.808 250.499 175.533 250.245 178.86 250.381C178.993 249.263 179.133 248.126 179.273 246.967C175.605 246.8 171.487 247.073 167.027 248.104C162.658 249.109 158.823 249.722 155.459 249.919Z" fill="#E3E3E3"/>
<path d="M156.943 265.395C156.973 266.486 156.988 267.627 156.992 268.805C160.194 268.536 163.767 267.941 167.79 267.009C171.333 266.194 174.648 265.899 177.66 265.933C177.664 264.789 177.694 263.652 177.747 262.512C174.477 262.478 170.878 262.8 167.024 263.69C163.29 264.551 159.94 265.123 156.943 265.395Z" fill="#E3E3E3"/>
<path d="M156.588 284.422C159.892 284.168 163.594 283.558 167.792 282.592C171.744 281.683 175.416 281.421 178.708 281.55C178.655 280.375 178.587 279.227 178.496 278.11C175.029 278.011 171.176 278.315 167.027 279.269C163.204 280.152 159.79 280.732 156.74 280.993C156.694 282.123 156.645 283.267 156.588 284.422Z" fill="#E3E3E3"/>
<path d="M155.603 300.071C159.153 299.87 163.173 299.241 167.792 298.177C171.721 297.271 175.37 297.006 178.644 297.124C178.693 295.984 178.735 294.839 178.765 293.699C175.23 293.578 171.286 293.873 167.027 294.855C162.833 295.825 159.127 296.427 155.857 296.647C155.773 297.794 155.69 298.934 155.603 300.071Z" fill="#E3E3E3"/>
<path d="M154.27 315.708C158.139 315.61 162.587 314.962 167.793 313.76C171.328 312.945 174.64 312.646 177.648 312.684C177.739 311.574 177.826 310.43 177.913 309.263C174.598 309.214 170.945 309.532 167.027 310.437C162.28 311.532 158.157 312.157 154.588 312.294C154.482 313.461 154.376 314.602 154.27 315.708Z" fill="#E3E3E3"/>
<path d="M181.198 326.838C181.717 326.804 182.232 326.766 182.751 326.728C185.82 308.685 184.051 282.2 183.391 274.084C182.709 265.657 184.02 254.821 186.987 244.363C189.291 236.24 187.876 217.405 186.743 202.272C186.425 198.025 186.123 194.012 185.945 190.716C185.365 180.061 189.222 160.344 191.348 150.462C190.878 150.212 190.412 149.966 189.95 149.719C187.821 159.502 183.822 179.667 184.428 190.799C184.61 194.111 184.914 198.131 185.232 202.386C186.357 217.402 187.759 236.085 185.531 243.947C182.515 254.575 181.185 265.605 181.882 274.205C182.539 282.333 184.32 308.984 181.198 326.838Z" fill="#264CBE"/>
<path d="M149.76 253.422C151.564 264.516 150.995 271.723 150.336 280.062C150.124 282.76 149.904 285.545 149.749 288.621C149.268 298.275 147.635 317.716 146.911 326.124C147.415 326.181 147.915 326.234 148.419 326.283C149.143 317.875 150.78 298.385 151.264 288.697C151.416 285.643 151.635 282.866 151.848 280.183C152.511 271.745 153.087 264.455 151.253 253.179C150.863 250.758 150.446 248.303 150.033 245.859C147.991 233.768 145.876 221.265 146.877 215.275C147.119 213.812 147.43 212.153 147.764 210.395C149.12 203.166 150.814 194.171 150.28 186.365C149.749 178.628 146.578 157.679 145.362 149.783C144.892 150.037 144.423 150.295 143.949 150.552C145.218 158.808 148.253 178.954 148.768 186.467C149.287 194.079 147.616 202.972 146.275 210.114C145.941 211.88 145.627 213.547 145.381 215.024C144.343 221.265 146.381 233.332 148.541 246.112C148.953 248.554 149.366 251.005 149.76 253.422Z" fill="#264CBE"/>
<path d="M119.936 176.294C119.936 176.294 104.499 227.773 100.676 246.119C96.8526 264.465 96.5566 302.604 96.5566 302.604C96.5566 302.604 89.8076 316.614 89.6486 322.848C89.4786 329.494 92.9676 334.783 92.5696 339.132C92.1716 343.482 97.4666 341.12 95.9706 332.31C94.4746 323.5 98.7186 315.521 100.551 315.777C102.383 316.033 99.0346 325.396 100.662 328.77C102.288 332.144 104.394 325.59 106.487 321.613C108.661 317.483 108.533 308.473 107.544 302.041C106.555 295.609 118.214 256.541 118.27 245.221L133.034 195.332C133.034 195.332 128.157 174.506 119.936 176.294Z" fill="#FFA681"/>
<path d="M134.925 194.08C134.402 197.388 132.572 203.067 130.208 210.213V210.217C130.007 210.819 129.802 211.433 129.598 212.058C129.587 212.084 129.575 212.115 129.568 212.145C128.977 213.922 128.359 215.782 127.723 217.707C127.719 217.718 127.716 217.73 127.712 217.741C125.094 225.69 122.195 234.784 119.763 244.127C118.926 247.325 118.145 250.557 117.452 253.777C116.565 257.888 115.815 261.988 115.266 266C113.292 280.455 109.518 298.763 109.518 298.763C103.982 301.036 95.3284 298.036 95.3284 298.036C95.3284 298.036 95.1044 271.669 96.3404 261.423C97.8674 248.756 99.8114 239.739 102.22 229.387C108.851 200.898 120.521 173.023 123.722 165.63C123.976 165.039 124.177 164.58 124.317 164.262H127.072C132.493 167.709 136.339 185.168 134.925 194.08Z" fill="#006BDE"/>
<path d="M94.877 292.758L95.311 298.825C95.311 298.825 103.539 301.499 109.707 299.616L111.338 294.204C105.399 294.518 99.912 294.372 94.877 292.758Z" fill="#009CF8"/>
<path d="M130.209 210.212V210.217C130.209 210.304 130.194 210.391 130.164 210.478C129.978 210.99 129.789 211.515 129.599 212.057C129.588 212.083 129.576 212.114 129.569 212.144C128.963 213.864 128.345 215.737 127.724 217.707C127.72 217.718 127.717 217.73 127.713 217.741C124.489 227.986 121.211 240.875 119.703 249.109C119.718 247.453 119.737 245.79 119.764 244.127C118.927 247.325 118.146 250.557 117.453 253.777C117.764 250.757 118.628 246.234 119.806 241.108C122.186 230.734 125.838 217.884 128.74 209.958C128.884 209.564 129.32 209.364 129.714 209.508C130.02 209.622 130.209 209.905 130.209 210.212Z" fill="#264CBE"/>
<path d="M406.347 346.352H442.812C442.691 343.823 442.571 341.398 442.455 339.109C441.819 326.623 441.279 318.121 441.279 318.121L411.624 319.438L409.165 319.549L404.803 319.744C404.803 319.744 405.224 327.346 405.879 338.484C406.023 340.947 406.18 343.586 406.347 346.352Z" fill="#014579"/>
<path d="M409.163 319.55L404.801 319.745C404.801 319.745 405.222 327.347 405.877 338.485C417.271 339.435 429.711 339.822 442.453 339.109C441.817 326.623 441.277 318.121 441.277 318.121L411.622 319.438L409.163 319.55Z" fill="#000B29"/>
<path d="M413.134 346.352C412.467 334.795 411.921 324.921 411.621 319.439L409.162 319.55C409.461 325.007 410.005 334.835 410.67 346.352H413.134Z" fill="#000B29"/>
<path d="M395.649 346.355C395.837 343.224 396.013 340.255 396.174 337.518C396.802 326.909 397.196 319.747 397.196 319.747L392.462 319.536L390.007 319.425L360.716 318.123C360.716 318.123 360.394 323.19 359.954 331.244C359.721 335.536 359.454 340.68 359.184 346.354H395.649V346.355Z" fill="#014579"/>
<path d="M359.953 331.243C367.904 333.112 380.723 335.736 396.173 337.516C396.801 326.907 397.195 319.745 397.195 319.745L392.461 319.534L390.006 319.423L360.715 318.121C360.715 318.121 360.394 323.189 359.953 331.243Z" fill="#000B29"/>
<path d="M390.954 346.355C391.619 334.826 392.163 324.99 392.461 319.537L390.006 319.426C389.706 324.905 389.159 334.786 388.492 346.355H390.954Z" fill="#000B29"/>
<path d="M446.573 323.805C439.145 325.849 431.718 327.392 424.29 328.427C421.707 328.79 419.126 329.092 416.545 329.329C413.064 329.652 409.584 329.868 406.106 329.977C400.352 330.153 394.598 330.027 388.841 329.601C377.713 328.787 366.588 326.844 355.458 323.804C355.355 313.428 355.511 276.217 356.29 240.326C356.328 238.715 356.363 237.105 356.403 235.502C356.408 235.162 356.418 234.821 356.426 234.481C356.434 234.11 356.444 233.74 356.454 233.372C356.479 232.233 356.509 231.099 356.537 229.97C356.595 227.664 356.655 225.378 356.721 223.115C356.761 221.762 356.802 220.416 356.842 219.082C356.849 218.805 356.86 218.53 356.867 218.255C356.895 217.375 356.922 216.501 356.95 215.631C356.95 215.631 356.95 215.631 356.95 215.628C356.96 215.358 356.968 215.089 356.978 214.819C357.003 214.017 357.031 213.221 357.056 212.432C357.081 211.759 357.104 211.096 357.127 210.431C357.989 186.22 359.249 167.123 361.054 164.431C364.114 159.867 374.536 153.808 382.918 148.875C385.905 147.121 389.471 145.296 391.512 143.943C394.489 146.34 396.649 148.505 401.062 148.356C405.999 148.187 407.217 145.218 409.1 142.672C410.249 143.418 413.168 145.812 414.685 146.702C415.983 147.468 417.389 148.28 418.856 149.124C421.124 150.422 423.536 151.801 425.926 153.207C429.467 155.291 432.958 157.441 435.854 159.495C438.745 161.549 441.041 163.512 442.178 165.214C443.816 167.674 444.877 183.6 445.56 204.56C445.588 205.293 445.608 206.037 445.636 206.785C445.639 206.876 445.639 206.966 445.639 207.06C445.667 207.821 445.69 208.603 445.707 209.384C445.775 211.743 445.838 214.153 445.904 216.602C445.917 217.119 445.929 217.64 445.937 218.16C445.947 218.551 445.96 218.944 445.962 219.329C445.985 220.337 446.007 221.348 446.03 222.368C446.035 222.572 446.038 222.776 446.043 222.981C446.099 225.67 446.151 228.397 446.199 231.147C446.214 231.951 446.227 232.758 446.239 233.564C446.86 271.301 446.716 312.655 446.573 323.805Z" fill="#006BDE"/>
<path d="M446.237 233.568L434.475 245.499L423.516 234.389L412.56 245.499L401.561 234.344L390.557 245.499L379.485 234.271L368.41 245.499L356.453 233.373C356.478 232.234 356.508 231.1 356.536 229.971C356.594 227.665 356.654 225.379 356.72 223.116L368.41 211.26L379.485 222.491L390.557 211.26L401.561 222.415L412.56 211.26L423.516 222.37L434.475 211.26L446.041 222.985C446.097 225.674 446.149 228.401 446.197 231.151C446.212 231.955 446.225 232.761 446.237 233.568Z" fill="#264CBE"/>
<path d="M425.934 295.065H425.931C410.181 294.996 396.738 287.829 388.234 281.829C379.037 275.34 373.463 268.765 373.408 268.699C373.139 268.379 373.18 267.901 373.5 267.631C373.821 267.362 374.299 267.403 374.568 267.723C374.622 267.787 380.095 274.237 389.143 280.615C397.462 286.479 410.599 293.482 425.938 293.55C426.356 293.552 426.694 293.893 426.693 294.311C426.69 294.728 426.351 295.065 425.934 295.065Z" fill="#264CBE"/>
<path d="M416.109 285.749C402.699 283.113 390.829 272.842 390.29 272.371C389.975 272.095 389.943 271.617 390.218 271.302C390.494 270.987 390.972 270.956 391.287 271.23C391.426 271.352 405.395 283.431 419.63 284.73C420.053 284.765 420.354 285.137 420.316 285.553C420.278 285.97 419.909 286.277 419.493 286.239C418.358 286.136 417.228 285.969 416.109 285.749Z" fill="#264CBE"/>
<path d="M389.254 169.201C388.897 169.201 388.579 168.948 388.51 168.584C388.432 168.173 388.702 167.776 389.113 167.698C408.315 164.054 414.102 151.702 414.159 151.577C414.331 151.196 414.779 151.026 415.161 151.199C415.542 151.371 415.713 151.82 415.54 152.202C415.297 152.739 409.363 165.399 389.395 169.188C389.348 169.196 389.301 169.201 389.254 169.201Z" fill="#264CBE"/>
<path d="M365.824 202.451V202.456C365.806 202.539 365.768 202.622 365.721 202.698C365.434 203.159 365.134 203.636 364.834 204.122C364.819 204.15 364.801 204.172 364.789 204.203C363.829 205.756 362.828 207.451 361.797 209.243C361.794 209.256 361.789 209.263 361.779 209.273C360.168 212.093 358.5 215.152 356.867 218.257C356.895 217.377 356.922 216.503 356.95 215.633C356.95 215.633 356.95 215.633 356.95 215.63C356.96 215.36 356.968 215.09 356.978 214.82C359.612 209.93 362.238 205.357 364.441 201.889C364.668 201.534 365.134 201.433 365.489 201.655C365.764 201.834 365.89 202.151 365.824 202.451Z" fill="#264CBE"/>
<path d="M462.583 174.365C462.583 174.365 487.138 166.473 494.404 150.36C496.506 145.693 479.192 98.3145 479.192 98.3145L470.835 98.7185C470.835 98.7185 473.217 115.157 474.66 124.465C475.847 132.118 477.765 141.263 478.412 144.274C478.553 144.927 478.632 145.29 478.632 145.29C478.222 145.361 477.811 145.44 477.393 145.523C465.921 147.853 451.273 155.326 451.273 155.326L462.583 174.365Z" fill="#FFA681"/>
<path d="M484.8 149.832C485.149 150.086 485.648 150.01 485.898 149.659C486.162 149.303 486.082 148.81 485.725 148.561C483.939 147.263 481.243 145.74 478.412 144.275C478.553 144.928 478.632 145.291 478.632 145.291C478.222 145.362 477.811 145.441 477.393 145.524C480.275 147.005 483.034 148.547 484.8 149.832Z" fill="#F97853"/>
<path d="M425.012 152.688C425.012 152.688 417.585 170.118 436.494 179.822C449.58 186.538 479.39 169.004 479.39 169.004L468.762 146.439C468.762 146.439 441.487 157.69 425.012 152.688Z" fill="#006BDE"/>
<path d="M474.913 71.6762C474.173 72.1952 474.324 75.3962 474.65 78.4112C474.546 78.4262 474.439 78.4442 474.332 78.4632C473.453 74.4392 471.703 67.5952 470.207 68.9012C469.227 69.7562 470.539 75.6582 471.433 79.1872C471.248 79.2442 471.063 79.3022 470.878 79.3622C469.751 75.1722 467.321 67.1012 465.704 68.6702C464.625 69.7172 466.696 76.8242 467.846 80.4492C467.685 80.5122 467.529 80.5732 467.375 80.6342C466.275 77.1172 463.925 70.4642 462.315 72.0272C460.857 73.4422 465.034 83.5002 465.034 83.5002L466.129 87.4482C466.129 87.4482 464.828 88.0102 462.796 85.7122C460.764 83.4142 458.336 83.0102 460.023 86.3342C461.93 90.0912 464.752 92.7852 465.994 95.4432C467.237 98.1012 471.145 98.9802 471.145 98.9802L478.992 98.6012C478.992 98.6012 480.514 85.3382 477.587 79.0162C477.085 75.2602 476.201 70.7732 474.913 71.6762Z" fill="#FFA681"/>
<path d="M377.822 102.263C377.822 115.629 386.05 124.839 399.411 124.839C412.777 124.839 422.095 114.938 422.095 101.571C422.095 97.885 421.494 94.443 420.337 91.397C420.269 91.216 420.201 91.034 420.127 90.858C419.985 90.512 419.838 90.166 419.679 89.832C419.446 89.316 419.186 88.811 418.913 88.324C415.431 82.063 409.193 78.082 400.812 78.082C384.786 78.083 377.822 88.897 377.822 102.263Z" fill="#014579"/>
<path d="M380.824 108.017C380.824 108.017 377.111 103.066 374.35 107.16C371.589 111.254 375.493 123.346 382.252 120.394L380.824 108.017Z" fill="#F97853"/>
<path d="M380.777 116.659C380.527 116.659 380.298 116.494 380.227 116.242C379.179 112.509 375.312 110.996 375.273 110.981C374.979 110.868 374.83 110.539 374.942 110.244C375.054 109.949 375.383 109.801 375.678 109.912C375.859 109.98 380.121 111.634 381.327 115.933C381.412 116.237 381.235 116.552 380.931 116.637C380.88 116.652 380.828 116.659 380.777 116.659Z" fill="#EA5143"/>
<path d="M376.872 114.777C376.766 114.777 376.659 114.748 376.563 114.686C376.298 114.515 376.221 114.162 376.392 113.896C376.421 113.852 377.105 112.808 378.536 112.168C378.823 112.038 379.162 112.168 379.291 112.456C379.42 112.744 379.291 113.082 379.003 113.21C377.896 113.705 377.358 114.507 377.353 114.515C377.244 114.685 377.06 114.777 376.872 114.777Z" fill="#EA5143"/>
<path d="M419.091 108.017C419.091 108.017 422.804 103.066 425.565 107.16C428.326 111.254 424.422 123.346 417.662 120.394L419.091 108.017Z" fill="#F97853"/>
<path d="M419.139 116.659C419.388 116.659 419.618 116.494 419.689 116.242C420.737 112.509 424.604 110.996 424.643 110.981C424.937 110.868 425.086 110.539 424.974 110.244C424.862 109.949 424.533 109.801 424.238 109.912C424.057 109.98 419.795 111.634 418.588 115.933C418.503 116.237 418.68 116.552 418.984 116.637C419.036 116.652 419.088 116.659 419.139 116.659Z" fill="#EA5143"/>
<path d="M423.043 114.777C423.149 114.777 423.256 114.748 423.352 114.686C423.617 114.515 423.694 114.162 423.523 113.896C423.495 113.852 422.81 112.808 421.379 112.168C421.093 112.038 420.753 112.168 420.624 112.456C420.495 112.744 420.624 113.082 420.912 113.21C422.019 113.705 422.557 114.507 422.562 114.515C422.671 114.685 422.855 114.777 423.043 114.777Z" fill="#EA5143"/>
<path d="M409.098 130.65V142.675C409.098 142.675 405.512 148.799 400.662 149.216C395.817 149.639 391.512 143.943 391.512 143.943V131.495L409.098 130.65Z" fill="#FFA681"/>
<path d="M409.098 130.65V135.986C405.844 139.597 400.064 140.499 391.512 139.236V131.495L409.098 130.65Z" fill="#F97853"/>
<path d="M421.776 99.7684C421.553 104.441 421.107 110.285 420.216 114.958C419.993 116.123 419.742 117.22 419.462 118.203C416.931 127.063 410.602 142.259 392.881 135.929C385.055 133.135 381.427 124.418 379.811 115.552C378.714 109.531 378.548 103.447 378.629 99.1004C378.715 94.6624 381.137 90.6054 384.999 88.4174C395.459 82.4874 406.496 84.6984 413.762 87.4924C418.805 89.4284 422.033 94.3814 421.776 99.7684Z" fill="#FFA681"/>
<path d="M392.358 109.588C392.358 110.872 391.696 111.912 390.88 111.912C390.064 111.912 389.402 110.872 389.402 109.588C389.402 108.304 390.064 107.264 390.88 107.264C391.697 107.264 392.358 108.305 392.358 109.588Z" fill="#014579"/>
<path d="M409.776 109.541C409.776 110.825 409.115 111.865 408.298 111.865C407.482 111.865 406.82 110.825 406.82 109.541C406.82 108.257 407.482 107.217 408.298 107.217C409.114 107.216 409.776 108.257 409.776 109.541Z" fill="#014579"/>
<path d="M413.115 101.552C413.115 101.552 408.453 99.7087 404.863 101.26L405.222 103.256C405.222 103.256 410.491 102.81 413.145 103.886C413.383 103.119 413.418 102.342 413.115 101.552Z" fill="#014579"/>
<path d="M385.95 101.552C385.95 101.552 390.612 99.7087 394.202 101.26L393.843 103.256C393.843 103.256 388.575 102.81 385.92 103.886C385.682 103.119 385.647 102.342 385.95 101.552Z" fill="#014579"/>
<path d="M400.156 119.328C401.12 119.328 402.075 118.953 402.224 118.892C402.516 118.773 402.655 118.44 402.536 118.147C402.417 117.855 402.083 117.715 401.792 117.834C401.276 118.043 400.037 118.372 399.5 118.051C399.397 117.989 399.255 117.866 399.219 117.519C399.013 115.524 399.559 108.837 399.564 108.77C399.59 108.456 399.356 108.18 399.042 108.154C398.726 108.127 398.452 108.362 398.426 108.676C398.403 108.955 397.866 115.537 398.083 117.636C398.165 118.426 398.58 118.831 398.914 119.031C399.28 119.251 399.719 119.328 400.156 119.328Z" fill="#F97853"/>
<path d="M392.484 122.229C393.434 125.525 396.133 128.813 399.852 128.859C403.567 128.814 406.267 125.525 407.216 122.229H392.484Z" fill="white"/>
<path d="M399.534 132.44C401.013 132.44 402.266 131.691 402.319 131.659C402.589 131.496 402.675 131.144 402.512 130.874C402.349 130.604 401.997 130.518 401.727 130.681C401.718 130.687 400.686 131.296 399.534 131.296C398.477 131.296 397.465 130.69 397.455 130.683C397.187 130.518 396.835 130.6 396.669 130.869C396.503 131.137 396.586 131.489 396.855 131.655C396.906 131.689 398.138 132.44 399.534 132.44Z" fill="#F97853"/>
<path d="M421.173 108.119H418.584C418.87 105.52 419.28 100.942 417.146 100.286C410.4 98.2144 419.142 93.4474 416.097 91.0704C413.052 88.6884 405.473 89.7094 400.202 89.5384C394.899 89.3664 386.376 89.4414 384.308 89.9214C382.234 90.3954 383.371 93.8384 384.131 96.5064C384.897 99.1684 381.589 102.116 381.035 104.876C380.876 105.668 380.909 106.844 381.036 108.119H378.878C378.622 104.761 378.584 101.635 378.63 99.1004C378.716 94.6624 381.138 90.6054 385 88.4174C395.46 82.4874 406.497 84.6984 413.763 87.4924C418.807 89.4284 422.035 94.3814 421.778 99.7684C421.655 102.329 421.465 105.241 421.173 108.119Z" fill="#014579"/>
<path d="M390.621 116.317C387.055 116.317 384.154 113.416 384.154 109.85C384.154 106.284 387.055 103.383 390.621 103.383C394.187 103.383 397.088 106.284 397.088 109.85C397.088 113.416 394.187 116.317 390.621 116.317ZM390.621 104.391C387.611 104.391 385.162 106.84 385.162 109.85C385.162 112.86 387.611 115.309 390.621 115.309C393.631 115.309 396.08 112.86 396.08 109.85C396.08 106.84 393.631 104.391 390.621 104.391Z" fill="white"/>
<path d="M408.299 116.317C404.733 116.317 401.832 113.416 401.832 109.85C401.832 106.284 404.733 103.383 408.299 103.383C411.865 103.383 414.766 106.284 414.766 109.85C414.766 113.416 411.865 116.317 408.299 116.317ZM408.299 104.391C405.289 104.391 402.84 106.84 402.84 109.85C402.84 112.86 405.289 115.309 408.299 115.309C411.309 115.309 413.758 112.86 413.758 109.85C413.758 106.84 411.309 104.391 408.299 104.391Z" fill="white"/>
<path d="M385.247 107.766C385.119 107.766 384.99 107.717 384.892 107.62C384.863 107.591 381.925 104.741 378.071 105.64C377.801 105.704 377.529 105.535 377.466 105.264C377.403 104.993 377.571 104.722 377.842 104.659C382.249 103.631 385.467 106.771 385.602 106.906C385.799 107.102 385.8 107.422 385.604 107.619C385.506 107.717 385.376 107.766 385.247 107.766Z" fill="white"/>
<path d="M413.792 107.766C413.628 107.766 413.466 107.685 413.369 107.537C413.217 107.304 413.282 106.992 413.515 106.84C413.708 106.714 418.284 103.762 422.178 104.403C422.453 104.448 422.639 104.708 422.593 104.982C422.548 105.256 422.29 105.442 422.014 105.397C418.509 104.82 414.111 107.654 414.066 107.683C413.982 107.74 413.887 107.766 413.792 107.766Z" fill="white"/>
<path d="M402.186 108.397C402.175 108.381 400.977 106.762 399.402 106.762C397.843 106.762 396.76 108.379 396.75 108.395L395.906 107.844C395.962 107.759 397.291 105.754 399.402 105.754C401.497 105.754 402.943 107.724 403.003 107.808L402.186 108.397Z" fill="white"/>
<path d="M363.695 201.501C363.695 201.501 356.882 214.693 348.86 225.142C346.493 228.224 344.023 231.067 341.589 233.263C337.645 236.824 333.799 238.687 330.666 237.106C319.047 231.249 293.145 184.634 293.145 184.634L299.524 177.068C299.524 177.068 311.052 190.381 319.483 198.348C327.258 205.695 333.237 211.187 333.237 211.187C334.313 209.549 335.46 207.754 336.652 205.854C337.92 203.838 339.235 201.703 340.574 199.508C350.282 183.569 361.055 164.434 361.055 164.434L363.695 201.501Z" fill="#FFA681"/>
<path d="M348.86 225.142C346.493 228.224 344.023 231.067 341.589 233.263L336.652 205.854C337.92 203.838 339.235 201.703 340.574 199.508L348.86 225.142Z" fill="#F97853"/>
<path d="M361.052 164.434L337.768 201.054L345.583 233.263L364.851 201.889C364.851 201.889 367.187 180.425 361.052 164.434Z" fill="#006BDE"/>
<path d="M331.775 346.354C330.112 337.138 328.473 326.744 326.983 316.651C326.656 314.419 326.337 312.206 326.021 310.022C324.826 301.665 323.758 293.763 322.901 287.205C322.574 284.714 322.281 282.414 322.014 280.362C321.183 273.816 320.695 269.75 320.695 269.75L283.926 271.14L247.044 269.75C247.044 269.75 246.094 277.795 244.572 289.459C244.294 291.582 243.996 293.821 243.684 296.159C242.865 302.28 241.93 309.04 240.923 315.962C240.908 316.063 240.893 316.165 240.878 316.266C240.562 318.423 240.242 320.595 239.911 322.767C239.907 322.797 239.904 322.823 239.896 322.853V322.857C239.107 328.106 238.28 333.348 237.439 338.391C237.093 340.473 236.745 342.517 236.391 344.508C236.282 345.129 236.171 345.742 236.062 346.352H331.775V346.354Z" fill="#006BDE"/>
<path d="M255.521 280.793C255.521 282.707 253.97 284.259 252.056 284.259C250.142 284.259 248.59 282.707 248.59 280.793C248.59 278.879 250.142 277.328 252.056 277.328C253.97 277.328 255.521 278.879 255.521 280.793Z" fill="#264CBE"/>
<path d="M264.12 294.219C264.12 296.133 262.568 297.684 260.655 297.684C258.741 297.684 257.189 296.132 257.189 294.219C257.189 292.305 258.741 290.754 260.655 290.754C262.568 290.753 264.12 292.305 264.12 294.219Z" fill="#264CBE"/>
<path d="M281.04 287.287C281.04 289.201 279.487 290.752 277.574 290.752C275.66 290.752 274.109 289.2 274.109 287.287C274.109 285.373 275.66 283.822 277.574 283.822C279.488 283.822 281.04 285.373 281.04 287.287Z" fill="#264CBE"/>
<path d="M254.336 308.477C254.336 310.391 252.784 311.943 250.871 311.943C248.957 311.943 247.406 310.391 247.406 308.477C247.406 306.563 248.957 305.012 250.871 305.012C252.784 305.012 254.336 306.563 254.336 308.477Z" fill="#264CBE"/>
<path d="M275.479 306.994C275.479 308.908 273.928 310.459 272.014 310.459C270.1 310.459 268.549 308.908 268.549 306.994C268.549 305.08 270.101 303.529 272.014 303.529C273.927 303.529 275.479 305.08 275.479 306.994Z" fill="#264CBE"/>
<path d="M246.828 292.709C246.828 294.513 245.453 295.997 243.687 296.159C243.999 293.822 244.296 291.582 244.574 289.459C245.893 289.951 246.828 291.217 246.828 292.709Z" fill="#264CBE"/>
<path d="M309.931 327.355C309.931 329.269 308.38 330.82 306.466 330.82C304.552 330.82 303 329.268 303 327.355C303 325.441 304.552 323.889 306.466 323.889C308.379 323.889 309.931 325.441 309.931 327.355Z" fill="#264CBE"/>
<path d="M308.295 308.477C308.295 310.391 306.743 311.943 304.83 311.943C302.916 311.943 301.365 310.391 301.365 308.477C301.365 306.563 302.917 305.012 304.83 305.012C306.743 305.012 308.295 306.563 308.295 308.477Z" fill="#264CBE"/>
<path d="M326.983 316.649C326.566 316.826 326.104 316.923 325.623 316.923C323.71 316.923 322.158 315.371 322.158 313.458C322.158 311.545 323.71 309.994 325.623 309.994C325.758 309.994 325.89 310.001 326.021 310.02C326.337 312.204 326.656 314.417 326.983 316.649Z" fill="#264CBE"/>
<path d="M311.76 341.191C311.76 343.105 310.208 344.656 308.295 344.656C306.381 344.656 304.83 343.105 304.83 341.191C304.83 339.277 306.381 337.725 308.295 337.725C310.208 337.725 311.76 339.277 311.76 341.191Z" fill="#264CBE"/>
<path d="M326.583 335.658C326.583 337.572 325.031 339.123 323.117 339.123C321.203 339.123 319.652 337.571 319.652 335.658C319.652 333.744 321.203 332.193 323.117 332.193C325.032 332.192 326.583 333.744 326.583 335.658Z" fill="#264CBE"/>
<path d="M295.739 346.354C295.116 345.443 294.071 344.844 292.883 344.844C291.695 344.844 290.65 345.443 290.027 346.354H295.739Z" fill="#264CBE"/>
<path d="M252.056 330.368C252.056 332.282 250.504 333.833 248.59 333.833C246.676 333.833 245.125 332.282 245.125 330.368C245.125 328.454 246.676 326.902 248.59 326.902C250.505 326.902 252.056 328.454 252.056 330.368Z" fill="#264CBE"/>
<path d="M242.912 319.422C242.912 321.181 241.601 322.635 239.898 322.853C239.906 322.823 239.909 322.797 239.913 322.767C240.244 320.595 240.563 318.423 240.879 316.266C242.077 316.815 242.912 318.021 242.912 319.422Z" fill="#264CBE"/>
<path d="M238.861 341.188C238.861 342.755 237.82 344.078 236.392 344.51C236.745 342.519 237.095 340.474 237.441 338.393C238.301 339.023 238.861 340.042 238.861 341.188Z" fill="#264CBE"/>
<path d="M260.655 342.654C260.655 344.568 259.103 346.12 257.189 346.12C255.275 346.12 253.724 344.568 253.724 342.654C253.724 340.74 255.276 339.189 257.189 339.189C259.103 339.188 260.655 340.74 260.655 342.654Z" fill="#264CBE"/>
<path d="M278.943 339.94C278.943 341.854 277.391 343.406 275.478 343.406C273.565 343.406 272.013 341.854 272.013 339.94C272.013 338.026 273.564 336.475 275.478 336.475C277.392 336.475 278.943 338.026 278.943 339.94Z" fill="#264CBE"/>
<path d="M265.896 322.901C265.896 324.815 264.344 326.367 262.43 326.367C260.516 326.367 258.965 324.815 258.965 322.901C258.965 320.987 260.516 319.436 262.43 319.436C264.344 319.436 265.896 320.988 265.896 322.901Z" fill="#264CBE"/>
<path d="M284.506 319.436C284.506 321.35 282.955 322.901 281.041 322.901C279.127 322.901 277.576 321.35 277.576 319.436C277.576 317.522 279.128 315.971 281.041 315.971C282.954 315.971 284.506 317.522 284.506 319.436Z" fill="#264CBE"/>
<path d="M292.882 301.15C292.882 303.064 291.331 304.615 289.417 304.615C287.503 304.615 285.951 303.063 285.951 301.15C285.951 299.236 287.503 297.684 289.417 297.684C291.33 297.684 292.882 299.236 292.882 301.15Z" fill="#264CBE"/>
<path d="M322.902 287.204C322.662 287.26 322.414 287.287 322.158 287.287C320.241 287.287 318.693 285.735 318.693 283.822C318.693 281.958 320.166 280.433 322.015 280.361C322.282 282.413 322.576 284.713 322.902 287.204Z" fill="#264CBE"/>
<path d="M304.828 287.287C304.828 289.201 303.276 290.752 301.363 290.752C299.449 290.752 297.898 289.2 297.898 287.287C297.898 285.373 299.449 283.822 301.363 283.822C303.277 283.822 304.828 285.373 304.828 287.287Z" fill="#264CBE"/>
<path d="M317.521 299.638C317.521 301.552 315.97 303.103 314.056 303.103C312.142 303.103 310.591 301.551 310.591 299.638C310.591 297.724 312.143 296.172 314.056 296.172C315.969 296.172 317.521 297.724 317.521 299.638Z" fill="#264CBE"/>
<path d="M296.348 330.368C296.348 332.282 294.796 333.833 292.883 333.833C290.969 333.833 289.418 332.282 289.418 330.368C289.418 328.454 290.969 326.902 292.883 326.902C294.797 326.902 296.348 328.454 296.348 330.368Z" fill="#264CBE"/>
<path d="M322.932 270.66C303.535 283.323 267.92 282.331 245.539 270.66C247.677 257.343 250.492 244.01 249.887 226.286C249.819 224.343 249.737 222.412 249.639 220.499C249.553 218.834 249.455 217.181 249.35 215.546C247.418 186.059 242.387 161.95 244.859 158.835C245.938 157.471 247.737 155.998 249.958 154.491C250.83 153.897 251.762 153.296 252.746 152.695C255.068 151.278 257.65 149.85 260.242 148.46C266.393 145.176 272.638 142.128 275.769 140.047C278.873 141.4 281.345 142.14 284.01 142.125C284.081 142.125 284.16 142.125 284.239 142.117C284.311 142.125 284.389 142.125 284.461 142.125C287.125 142.14 289.598 141.4 292.705 140.047C295.61 141.979 301.077 144.673 306.657 147.611C310.757 149.772 314.916 152.064 318.155 154.288C320.274 155.742 322.007 157.17 323.066 158.508C324.291 160.052 323.776 166.824 322.728 176.857C321.691 186.728 320.139 199.764 319.2 214.092C318.941 218.071 318.727 222.148 318.584 226.286C317.983 244.011 320.794 257.343 322.932 270.66Z" fill="#009CF8"/>
<path d="M311.07 255.933H311.067C295.447 255.864 282.115 248.757 273.681 242.806C264.56 236.371 259.032 229.85 258.977 229.784C258.71 229.467 258.751 228.992 259.068 228.725C259.386 228.458 259.86 228.499 260.127 228.816C260.181 228.88 265.608 235.277 274.581 241.601C282.831 247.416 295.86 254.362 311.072 254.429C311.487 254.431 311.822 254.769 311.82 255.184C311.82 255.599 311.483 255.933 311.07 255.933Z" fill="#006BDE"/>
<path d="M300.73 246.84C287.431 244.226 275.658 234.04 275.124 233.572C274.812 233.298 274.78 232.824 275.053 232.512C275.326 232.199 275.801 232.169 276.114 232.441C276.252 232.562 290.106 244.541 304.223 245.83C304.643 245.864 304.941 246.234 304.903 246.646C304.865 247.059 304.5 247.364 304.086 247.326C302.96 247.223 301.839 247.058 300.73 246.84Z" fill="#006BDE"/>
<path d="M281.04 178.032C280.686 178.032 280.371 177.781 280.302 177.42C280.225 177.012 280.493 176.619 280.9 176.541C299.943 172.927 305.683 160.676 305.739 160.553C305.91 160.175 306.355 160.007 306.734 160.178C307.112 160.349 307.28 160.794 307.109 161.172C306.868 161.705 300.984 174.26 281.181 178.017C281.133 178.027 281.086 178.032 281.04 178.032Z" fill="#006BDE"/>
<path d="M306.657 147.611C302.877 156.233 293.585 165.161 281.501 163.073C269.799 161.05 264.249 154.861 260.244 148.459C266.396 145.174 272.642 142.13 275.77 140.047C278.874 141.398 281.347 142.138 284.009 142.126C284.081 142.126 284.162 142.126 284.238 142.118C284.31 142.126 284.391 142.126 284.463 142.126C287.125 142.138 289.598 141.398 292.707 140.047C295.611 141.977 301.08 144.671 306.657 147.611Z" fill="#FFA681"/>
<path d="M296.554 140.68C296.22 140.676 295.955 140.944 295.952 141.274C295.948 141.759 295.75 153.155 285.52 154.038C276.031 154.863 272.103 145.779 270.89 142.011C270.819 141.79 270.614 141.642 270.382 141.642H270.27C269.905 141.642 269.647 141.998 269.762 142.344C271.057 146.232 275.193 155.621 284.86 155.276C285.111 155.267 285.365 155.251 285.623 155.229C296.945 154.252 297.147 141.411 297.148 141.281C297.15 140.951 296.884 140.682 296.554 140.68Z" fill="white"/>
<path d="M303.786 80.1035C303.786 80.1035 312.929 94.2655 311.927 109.017C310.925 123.768 313.275 140.796 300.075 140.048C286.876 139.3 263.332 145.34 255.849 133.851C248.366 122.363 303.786 80.1035 303.786 80.1035Z" fill="#014579"/>
<path d="M307.176 106.144C307.176 106.144 309.549 127.526 299.403 133.413C289.257 139.3 281.914 132.727 281.914 132.727C281.914 132.727 303.301 102.924 307.176 106.144Z" fill="#000B29"/>
<path d="M265.031 106.043C265.031 106.043 261.388 101.186 258.679 105.202C255.97 109.219 259.8 121.082 266.432 118.186L265.031 106.043Z" fill="#F97853"/>
<path d="M264.985 114.519C264.74 114.519 264.515 114.357 264.445 114.11C263.417 110.447 259.623 108.963 259.584 108.948C259.295 108.838 259.15 108.514 259.259 108.225C259.369 107.936 259.692 107.79 259.981 107.899C260.158 107.966 264.34 109.589 265.524 113.807C265.607 114.105 265.434 114.414 265.136 114.498C265.086 114.512 265.035 114.519 264.985 114.519Z" fill="#EA5143"/>
<path d="M261.154 112.674C261.05 112.674 260.945 112.645 260.851 112.585C260.591 112.417 260.516 112.071 260.683 111.81C260.711 111.767 261.382 110.743 262.787 110.114C263.068 109.987 263.401 110.114 263.527 110.397C263.653 110.679 263.527 111.011 263.244 111.137C262.158 111.623 261.63 112.409 261.625 112.417C261.519 112.584 261.339 112.674 261.154 112.674Z" fill="#EA5143"/>
<path d="M302.577 106.044C302.577 106.044 306.22 101.187 308.929 105.203C311.638 109.22 307.808 121.084 301.176 118.188L302.577 106.044Z" fill="#F97853"/>
<path d="M302.623 114.521C302.868 114.521 303.093 114.359 303.163 114.112C304.191 110.449 307.985 108.965 308.024 108.95C308.313 108.84 308.458 108.516 308.349 108.227C308.239 107.938 307.916 107.792 307.627 107.901C307.45 107.968 303.268 109.591 302.084 113.809C302.001 114.107 302.174 114.416 302.472 114.5C302.523 114.514 302.574 114.521 302.623 114.521Z" fill="#EA5143"/>
<path d="M306.453 112.676C306.557 112.676 306.662 112.647 306.756 112.587C307.016 112.419 307.091 112.073 306.924 111.812C306.896 111.769 306.225 110.745 304.82 110.116C304.539 109.989 304.206 110.116 304.08 110.399C303.954 110.681 304.08 111.013 304.363 111.139C305.449 111.625 305.977 112.411 305.982 112.419C306.088 112.586 306.269 112.676 306.453 112.676Z" fill="#EA5143"/>
<path d="M292.772 128.25V140.048C292.772 140.048 289.253 146.056 284.495 146.466C279.742 146.881 275.518 141.293 275.518 141.293V129.08L292.772 128.25Z" fill="#FFA681"/>
<path d="M292.772 128.25V133.485C289.579 137.028 283.911 138.283 275.519 137.045L275.518 129.08L292.772 128.25Z" fill="#F97853"/>
<path d="M305.21 97.9495C304.991 102.534 304.554 108.267 303.68 112.852C303.461 113.995 303.215 115.071 302.94 116.036C300.457 124.729 294.247 139.638 276.861 133.428C269.182 130.687 265.623 122.135 264.037 113.437C262.961 107.529 262.798 101.559 262.877 97.2945C262.961 92.9395 265.337 88.9605 269.126 86.8135C279.388 80.9955 290.217 83.1645 297.346 85.9055C302.295 87.8055 305.462 92.6645 305.21 97.9495Z" fill="#FFA681"/>
<path d="M276.148 106.735C276.148 107.994 275.499 109.016 274.698 109.016C273.897 109.016 273.248 107.995 273.248 106.735C273.248 105.476 273.897 104.455 274.698 104.455C275.498 104.455 276.148 105.476 276.148 106.735Z" fill="#014579"/>
<path d="M294.049 106.735C294.049 107.994 293.4 109.016 292.599 109.016C291.798 109.016 291.149 107.995 291.149 106.735C291.149 105.476 291.798 104.455 292.599 104.455C293.4 104.455 294.049 105.476 294.049 106.735Z" fill="#014579"/>
<path d="M271.825 99.9466C273.029 99.6066 275.461 99.0246 278.027 99.0176C278.702 99.0156 279.219 99.6156 279.1 100.281L279.097 100.298C279.002 100.829 278.527 101.204 277.988 101.179C276.242 101.098 271.66 101.343 269.496 102.22C269.452 101.844 269.674 101.432 269.989 101.067C270.467 100.512 271.121 100.146 271.825 99.9466Z" fill="#014579"/>
<path d="M295.249 99.9935C294.044 99.6535 291.613 99.0715 289.047 99.0645C288.372 99.0625 287.855 99.6625 287.974 100.327L287.977 100.344C288.072 100.875 288.547 101.25 289.085 101.225C290.831 101.144 295.413 101.389 297.577 102.266C297.621 101.89 297.399 101.478 297.084 101.112C296.607 100.557 295.952 100.191 295.249 99.9935Z" fill="#014579"/>
<path d="M283.999 117.139C283.57 117.139 283.139 117.063 282.78 116.848C282.453 116.652 282.045 116.255 281.965 115.48C281.752 113.42 282.279 106.963 282.302 106.689C282.327 106.38 282.598 106.151 282.907 106.176C283.216 106.201 283.445 106.472 283.42 106.781C283.414 106.847 282.879 113.408 283.081 115.365C283.116 115.705 283.255 115.826 283.357 115.887C283.883 116.202 285.099 115.88 285.605 115.675C285.891 115.557 286.219 115.696 286.335 115.982C286.452 116.268 286.315 116.595 286.028 116.712C285.882 116.771 284.945 117.139 283.999 117.139Z" fill="#F97853"/>
<path d="M276.881 120.678C277.305 122.81 278.713 126.732 283.457 126.732C288.213 126.732 289.547 123.148 290.005 120.678H276.881Z" fill="white"/>
<path d="M283.389 130.003C282.02 130.003 280.811 129.266 280.76 129.234C280.497 129.071 280.415 128.726 280.578 128.463C280.74 128.2 281.085 128.119 281.348 128.28C281.358 128.286 282.344 128.882 283.389 128.882C284.519 128.882 285.532 128.283 285.542 128.277C285.808 128.118 286.151 128.203 286.311 128.468C286.471 128.732 286.386 129.076 286.122 129.236C286.069 129.268 284.839 130.003 283.389 130.003Z" fill="#F97853"/>
<path d="M307.467 97.037C307.287 97.548 306.787 97.875 306.118 98.07C306.167 99.306 306.037 100.793 305.915 102.218C305.223 110.319 303.18 111.741 302.718 109.738C302.414 108.408 302.432 100.779 302.579 98.291C300.978 98.186 299.61 97.919 299.61 97.919L297.731 90.054L297.073 97.821C294.255 98.802 287.679 97.231 287.679 97.231L285.473 89.479L284.109 96.938C279.882 98.997 274.598 97.626 274.598 97.626L273.384 89.581L270.581 97.626C270.581 97.626 261.563 100.861 261.465 97.626C261.405 95.743 262.784 90.441 263.949 86.334C265.219 81.855 268.161 78.071 272.141 75.937C283.327 69.932 295.157 73.126 299.215 75.55C307.82 80.687 307.467 97.037 307.467 97.037Z" fill="#014579"/>
<path d="M266.432 80.7012C266.432 80.7012 259.008 89.5312 256.565 105.302C254.122 121.073 250.74 132.725 260.244 137.933C270.53 143.569 269.639 132.01 269.491 128.868C269.343 125.726 260.594 117.139 266.432 92.9532C268.317 85.1452 266.432 80.7012 266.432 80.7012Z" fill="#014579"/>
<path d="M264.697 113.291C264.697 113.291 264.697 113.299 264.697 113.31C264.701 113.427 264.708 114.054 264.753 115.035C264.776 115.644 264.813 116.384 264.869 117.226C265.219 122.539 266.252 131.716 269.288 134.898C270.487 136.157 272.798 136.788 275.518 137.044V132.869C272.651 131.509 270.415 129.273 268.683 126.522C267.612 124.203 265.767 120.574 264.903 114.866L264.697 113.291Z" fill="#000B29"/>
<path d="M305.345 118.454C305.345 119.179 304.757 119.767 304.032 119.767C303.307 119.767 302.719 119.179 302.719 118.454C302.719 117.729 303.307 117.141 304.032 117.141C304.757 117.141 305.345 117.728 305.345 118.454Z" fill="white"/>
<path d="M332.104 217.376C328.385 228.024 311.727 227.249 292.755 221.428C292.728 221.42 292.7 221.41 292.673 221.403C292.613 221.386 292.556 221.366 292.496 221.348L289.886 220.516C289.526 220.399 289.164 220.279 288.804 220.156C286.759 219.471 284.7 218.731 282.632 217.946C275.853 215.371 269.022 212.319 262.58 209.065L262.625 208.953L264.565 203.914L265.227 202.199C265.227 202.199 300.399 206.031 318.083 202.334C318.383 202.271 318.675 202.209 318.963 202.142C318.893 201.75 318.871 201.349 318.761 200.975C309.391 169.075 319.638 162.959 323.068 158.51C323.068 158.508 339.126 197.274 332.104 217.376Z" fill="#009CF8"/>
<path d="M326.373 207.503C326.268 207.553 326.156 207.578 326.045 207.578C325.768 207.578 325.5 207.423 325.37 207.158C324.03 204.413 319.481 202.781 318.084 202.334C318.384 202.271 318.676 202.209 318.964 202.142C318.894 201.75 318.827 201.36 318.762 200.975C320.539 201.562 325.181 203.352 326.718 206.502C326.9 206.87 326.745 207.32 326.373 207.503Z" fill="#006BDE"/>
<path d="M277.11 206.166C269.932 206.166 264.103 205.753 263.595 205.716C263.182 205.686 262.872 205.327 262.902 204.914C262.932 204.501 263.291 204.194 263.705 204.221C263.97 204.24 290.353 206.106 300.755 201.887C301.138 201.732 301.576 201.916 301.732 202.3C301.887 202.684 301.703 203.121 301.319 203.277C295.56 205.612 285.429 206.166 277.11 206.166Z" fill="#006BDE"/>
<path d="M289.887 220.515C289.89 220.515 289.89 220.515 289.89 220.515C295.909 218.855 301.381 217.238 304.54 216.226C308.927 214.819 312.556 210.385 314.206 206.615C314.371 206.235 314.813 206.063 315.193 206.23C315.573 206.395 315.745 206.837 315.58 207.217C313.795 211.294 309.831 216.103 304.997 217.655C302.704 218.39 299.202 219.44 295.155 220.595C293.43 221.089 291.596 221.061 289.887 220.515Z" fill="#006BDE"/>
<path d="M306.112 215.358C251.756 233.665 235.034 221.684 235.034 221.684C231.375 188.592 244.86 158.834 244.86 158.834C248.844 165.403 253.349 176.869 253.349 176.869L254.539 202.235L254.449 202.94L254.406 203.272L254.181 205.007L254.176 205.042C254.291 205.067 254.408 205.092 254.526 205.117C270.968 208.586 301.038 204.71 301.038 204.71L306.112 215.358Z" fill="#009CF8"/>
<path d="M254.526 205.116C251.591 207.576 248.804 210.41 246.32 213.667C246.07 213.997 245.598 214.062 245.268 213.81C244.938 213.56 244.876 213.09 245.123 212.76C245.126 212.76 245.126 212.757 245.126 212.757C247.918 209.09 251.082 205.951 254.407 203.271L254.182 205.007L254.177 205.041C254.291 205.066 254.408 205.091 254.526 205.116Z" fill="#006BDE"/>
<path d="M301.037 204.709C301.037 204.709 307.055 191.039 316.204 192.256L318.963 202.14C313.955 204.267 313.222 212.854 306.112 215.357L301.037 204.709Z" fill="#FFA681"/>
<path d="M265.229 202.199C265.229 202.199 261.429 193.279 251.427 190.69C241.425 188.1 235.053 192.814 234.382 194.592C233.711 196.371 238.154 194.671 238.154 194.671C238.154 194.671 235.26 195.49 233.6 198.21C231.94 200.93 237.641 197.995 237.641 197.995C237.641 197.995 233.553 199.787 233.033 201.448C232.513 203.109 237.905 200.303 238.918 200.356C238.918 200.356 234.103 202.27 234.136 203.984C234.169 205.698 239.667 202.903 243.772 203.124C247.878 203.345 254.173 205.046 254.173 205.046C257.533 205.685 260.744 206.159 263.649 206.293L265.229 202.199Z" fill="#FFA681"/>
<path d="M361.81 63.5022C358.108 63.5022 355.096 60.4902 355.096 56.7882C355.096 53.0862 358.108 50.0742 361.81 50.0742C365.512 50.0742 368.524 53.0862 368.524 56.7882C368.524 60.4902 365.512 63.5022 361.81 63.5022ZM361.81 52.1812C359.269 52.1812 357.202 54.2482 357.202 56.7892C357.202 59.3302 359.269 61.3962 361.81 61.3962C364.351 61.3962 366.417 59.3292 366.417 56.7892C366.418 54.2482 364.351 52.1812 361.81 52.1812Z" fill="#006BDE"/>
<path d="M420.384 52.096C416.682 52.096 413.67 49.084 413.67 45.382C413.67 41.68 416.682 38.668 420.384 38.668C424.086 38.668 427.098 41.68 427.098 45.382C427.098 49.084 424.086 52.096 420.384 52.096ZM420.384 40.775C417.843 40.775 415.776 42.842 415.776 45.383C415.776 47.924 417.843 49.991 420.384 49.991C422.924 49.991 424.991 47.924 424.991 45.383C424.992 42.841 422.925 40.775 420.384 40.775Z" fill="#009CF8"/>
<path d="M428.68 73.9141C428.099 73.9141 427.627 73.4431 427.627 72.8611V68.2171C427.627 67.6351 428.099 67.1641 428.68 67.1641C429.262 67.1641 429.733 67.6351 429.733 68.2171V72.8611C429.733 73.4421 429.262 73.9141 428.68 73.9141Z" fill="#006BDE"/>
<path d="M428.68 82.041C428.099 82.041 427.627 81.57 427.627 80.988V76.344C427.627 75.762 428.099 75.291 428.68 75.291C429.262 75.291 429.733 75.762 429.733 76.344V80.988C429.733 81.57 429.262 82.041 428.68 82.041Z" fill="#006BDE"/>
<path d="M435.198 75.6548H431.026C430.444 75.6548 429.973 75.1838 429.973 74.6018C429.973 74.0198 430.445 73.5488 431.026 73.5488H435.198C435.779 73.5488 436.251 74.0198 436.251 74.6018C436.251 75.1838 435.78 75.6548 435.198 75.6548Z" fill="#006BDE"/>
<path d="M426.332 75.6548H422.16C421.579 75.6548 421.107 75.1838 421.107 74.6018C421.107 74.0198 421.579 73.5488 422.16 73.5488H426.332C426.914 73.5488 427.385 74.0198 427.385 74.6018C427.385 75.1838 426.914 75.6548 426.332 75.6548Z" fill="#006BDE"/>
<path d="M393.219 45.7773C392.637 45.7773 392.166 45.3053 392.166 44.7243V40.0803C392.166 39.4983 392.638 39.0273 393.219 39.0273C393.8 39.0273 394.272 39.4983 394.272 40.0803V44.7243C394.272 45.3053 393.801 45.7773 393.219 45.7773Z" fill="#1C31B5"/>
<path d="M393.219 53.9043C392.637 53.9043 392.166 53.4333 392.166 52.8513V48.2073C392.166 47.6253 392.638 47.1543 393.219 47.1543C393.8 47.1543 394.272 47.6253 394.272 48.2073V52.8513C394.272 53.4333 393.801 53.9043 393.219 53.9043Z" fill="#1C31B5"/>
<path d="M399.737 47.5201H395.565C394.984 47.5201 394.512 47.0481 394.512 46.4671C394.512 45.8851 394.984 45.4141 395.565 45.4141H399.737C400.319 45.4141 400.79 45.8851 400.79 46.4671C400.79 47.0481 400.319 47.5201 399.737 47.5201Z" fill="#1C31B5"/>
<path d="M390.871 47.5201H386.699C386.117 47.5201 385.646 47.0481 385.646 46.4671C385.646 45.8851 386.118 45.4141 386.699 45.4141H390.871C391.453 45.4141 391.924 45.8851 391.924 46.4671C391.925 47.0481 391.453 47.5201 390.871 47.5201Z" fill="#1C31B5"/>
<path d="M121.844 39.7531C121.844 36.0511 124.856 33.0391 128.558 33.0391C132.26 33.0391 135.272 36.0511 135.272 39.7531C135.272 43.4551 132.26 46.4671 128.558 46.4671C124.856 46.4661 121.844 43.4551 121.844 39.7531ZM123.951 39.7531C123.951 42.2941 126.018 44.3601 128.558 44.3601C131.099 44.3601 133.165 42.2931 133.165 39.7531C133.165 37.2121 131.098 35.1451 128.558 35.1451C126.018 35.1451 123.951 37.2121 123.951 39.7531Z" fill="#006BDE"/>
<path d="M94.8828 65.3429C94.8828 61.6409 97.8948 58.6289 101.597 58.6289C105.299 58.6289 108.311 61.6409 108.311 65.3429C108.311 69.0449 105.299 72.0569 101.597 72.0569C97.8938 72.0569 94.8828 69.0449 94.8828 65.3429ZM96.9888 65.3429C96.9888 67.8839 99.0558 69.9499 101.597 69.9499C104.138 69.9499 106.204 67.8829 106.204 65.3429C106.204 62.8019 104.137 60.7349 101.597 60.7349C99.0558 60.7349 96.9888 62.8019 96.9888 65.3429Z" fill="#009CF8"/>
<path d="M80.9241 74.7637C81.5061 74.7637 81.9771 74.2927 81.9771 73.7107V69.0667C81.9771 68.4847 81.5051 68.0137 80.9241 68.0137C80.3431 68.0137 79.8711 68.4847 79.8711 69.0667V73.7107C79.8711 74.2927 80.3431 74.7637 80.9241 74.7637Z" fill="#006BDE"/>
<path d="M80.9241 82.8926C81.5061 82.8926 81.9771 82.4216 81.9771 81.8396V77.1956C81.9771 76.6136 81.5051 76.1426 80.9241 76.1426C80.3431 76.1426 79.8711 76.6136 79.8711 77.1956V81.8396C79.8711 82.4206 80.3431 82.8926 80.9241 82.8926Z" fill="#006BDE"/>
<path d="M74.4046 76.5064H78.5766C79.1586 76.5064 79.6296 76.0344 79.6296 75.4534C79.6296 74.8714 79.1576 74.4004 78.5766 74.4004H74.4046C73.8236 74.4004 73.3516 74.8714 73.3516 75.4534C73.3516 76.0344 73.8236 76.5064 74.4046 76.5064Z" fill="#006BDE"/>
<path d="M83.2698 76.5064H87.4418C88.0238 76.5064 88.4948 76.0344 88.4948 75.4534C88.4948 74.8714 88.0228 74.4004 87.4418 74.4004H83.2698C82.6878 74.4004 82.2168 74.8714 82.2168 75.4534C82.2168 76.0344 82.6888 76.5064 83.2698 76.5064Z" fill="#006BDE"/>
<path d="M105.192 39.0645C105.773 39.0645 106.245 38.5935 106.245 38.0115V33.3675C106.245 32.7855 105.773 32.3145 105.192 32.3145C104.611 32.3145 104.139 32.7855 104.139 33.3675V38.0115C104.139 38.5935 104.61 39.0645 105.192 39.0645Z" fill="#1C31B5"/>
<path d="M105.192 47.1934C105.773 47.1934 106.245 46.7224 106.245 46.1404V41.4964C106.245 40.9144 105.773 40.4434 105.192 40.4434C104.611 40.4434 104.139 40.9154 104.139 41.4964V46.1404C104.139 46.7214 104.61 47.1934 105.192 47.1934Z" fill="#1C31B5"/>
<path d="M98.6721 40.8072H102.844C103.425 40.8072 103.897 40.3362 103.897 39.7542C103.897 39.1722 103.425 38.7012 102.844 38.7012H98.6721C98.0901 38.7012 97.6191 39.1732 97.6191 39.7542C97.6191 40.3352 98.0901 40.8072 98.6721 40.8072Z" fill="#1C31B5"/>
<path d="M107.537 40.8072H111.709C112.291 40.8072 112.762 40.3362 112.762 39.7542C112.762 39.1722 112.29 38.7012 111.709 38.7012H107.537C106.955 38.7012 106.484 39.1732 106.484 39.7542C106.484 40.3352 106.955 40.8072 107.537 40.8072Z" fill="#1C31B5"/>
<path d="M305.964 40.2361C305.842 40.2491 305.716 40.2321 305.595 40.1811C304.317 39.6421 303.568 39.39 303.56 39.387C303.168 39.256 302.957 38.833 303.087 38.441C303.218 38.049 303.641 37.838 304.033 37.968C304.065 37.979 304.838 38.238 306.176 38.802C306.556 38.963 306.735 39.4011 306.574 39.7821C306.465 40.0431 306.226 40.2081 305.964 40.2361Z" fill="#BBE2F2"/>
<path d="M344.073 80.3452C344.582 81.7022 345.058 83.1012 345.489 84.5042C345.596 84.8512 345.933 85.0652 346.282 85.0282C346.329 85.0232 346.377 85.0132 346.424 84.9992C346.819 84.8782 347.04 84.4592 346.919 84.0652C346.479 82.6332 345.993 81.2052 345.474 79.8212C345.329 79.4352 344.9 79.2392 344.512 79.3832C344.124 79.5272 343.928 79.9582 344.073 80.3452Z" fill="#BBE2F2"/>
<path d="M346.654 88.74C346.997 90.145 347.306 91.591 347.575 93.039C347.647 93.425 348.004 93.687 348.388 93.646C348.407 93.644 348.427 93.641 348.446 93.638C348.852 93.562 349.12 93.172 349.045 92.766C348.772 91.291 348.456 89.817 348.107 88.385C348.009 87.984 347.604 87.738 347.203 87.836C346.802 87.934 346.557 88.339 346.654 88.74Z" fill="#BBE2F2"/>
<path d="M349.809 111.323C350.18 111.284 350.471 110.973 350.477 110.591C350.5 109.091 350.489 107.585 350.445 106.116C350.433 105.703 350.088 105.379 349.675 105.391C349.257 105.406 348.938 105.748 348.95 106.161C348.994 107.607 349.004 109.09 348.982 110.568C348.976 110.981 349.305 111.321 349.718 111.327C349.749 111.328 349.779 111.326 349.809 111.323Z" fill="#BBE2F2"/>
<path d="M348.902 96.5453C348.492 96.5983 348.203 96.9733 348.257 97.3833C348.345 98.0593 348.425 98.7423 348.496 99.4133C348.578 100.187 348.651 100.978 348.712 101.762C348.744 102.174 349.104 102.481 349.516 102.449C349.523 102.448 349.529 102.448 349.536 102.447C349.937 102.405 350.234 102.05 350.203 101.645C350.14 100.848 350.067 100.044 349.984 99.2563C349.912 98.5733 349.83 97.8783 349.741 97.1903C349.689 96.7873 349.324 96.5003 348.922 96.5433C348.915 96.5443 348.908 96.5443 348.902 96.5453Z" fill="#BBE2F2"/>
<path d="M342.404 76.2824C342.539 76.5854 342.852 76.7534 343.165 76.7204C343.241 76.7124 343.318 76.6924 343.392 76.6594C343.769 76.4904 343.938 76.0484 343.769 75.6714C343.16 74.3094 342.5 72.9514 341.808 71.6364C341.616 71.2704 341.164 71.1304 340.798 71.3224C340.433 71.5144 340.292 71.9664 340.484 72.3324C341.162 73.6204 341.807 74.9484 342.404 76.2824Z" fill="#BBE2F2"/>
<path d="M309.567 42.0406C310.851 42.6966 312.147 43.4106 313.419 44.1636C313.563 44.2486 313.724 44.2806 313.878 44.2636C314.105 44.2396 314.318 44.1126 314.444 43.9006C314.654 43.5456 314.537 43.0866 314.182 42.8766C312.884 42.1076 311.56 41.3786 310.249 40.7086C309.882 40.5216 309.431 40.6666 309.243 41.0346C309.054 41.4016 309.199 41.8516 309.567 42.0406Z" fill="#BBE2F2"/>
<path d="M320.712 49.0825C320.87 49.2035 321.061 49.2515 321.244 49.2315C321.441 49.2105 321.63 49.1115 321.76 48.9415C322.011 48.6135 321.948 48.1435 321.619 47.8935C320.435 46.9895 319.209 46.1095 317.975 45.2765C317.632 45.0455 317.168 45.1355 316.937 45.4785C316.706 45.8205 316.796 46.2855 317.139 46.5165C318.349 47.3325 319.551 48.1965 320.712 49.0825Z" fill="#BBE2F2"/>
<path d="M333.275 61.3238C333.44 61.5308 333.693 61.6258 333.938 61.5998C334.075 61.5848 334.21 61.5328 334.326 61.4398C334.648 61.1818 334.701 60.7109 334.442 60.3889C333.513 59.2289 332.533 58.0798 331.529 56.9758C331.252 56.6698 330.779 56.6468 330.473 56.9248C330.167 57.2028 330.145 57.6758 330.423 57.9808C331.405 59.0628 332.365 60.1878 333.275 61.3238Z" fill="#BBE2F2"/>
<path d="M327.369 54.8224C327.535 54.9834 327.756 55.0524 327.97 55.0304C328.138 55.0124 328.3 54.9384 328.427 54.8084C328.715 54.5124 328.708 54.0394 328.413 53.7514C327.35 52.7164 326.236 51.6974 325.103 50.7204C324.79 50.4504 324.318 50.4864 324.049 50.7984C323.779 51.1114 323.814 51.5834 324.127 51.8524C325.236 52.8094 326.327 53.8084 327.369 54.8224Z" fill="#BBE2F2"/>
<path d="M338.32 68.5116C338.476 68.7666 338.759 68.8956 339.037 68.8656C339.144 68.8546 339.25 68.8196 339.348 68.7606C339.7 68.5456 339.812 68.0846 339.596 67.7326C338.82 66.4616 337.993 65.1986 337.138 63.9786C336.901 63.6406 336.435 63.5586 336.096 63.7956C335.758 64.0326 335.676 64.4996 335.913 64.8376C336.75 66.0316 337.56 67.2676 338.32 68.5116Z" fill="#BBE2F2"/>
<path d="M305.95 35.12L309.223 23L269.125 23.344L305.95 35.12Z" fill="#009CF8"/>
<path d="M269.125 23.3438L304.004 38.0468L304.096 38.0868L305.597 40.5718L305.95 35.1208L269.125 23.3438Z" fill="#006BDE"/>
<path d="M305.597 40.5709L302.346 40.0589L304.096 38.0859L305.597 40.5709Z" fill="#006BDE"/>
<path d="M299.708 36.2348L304.097 38.0848L295.058 48.2698L269.125 23.3438L299.708 36.2348Z" fill="#009CF8"/>
<path d="M490.329 353.984V354.715C490.329 358.929 486.911 362.347 482.695 362.347H86.7472C82.5302 362.347 79.1152 358.929 79.1152 354.715V353.984C79.1152 349.77 82.5302 346.352 86.7472 346.352H482.695C486.912 346.353 490.329 349.77 490.329 353.984Z" fill="#1C31B5"/>
<path d="M490.329 353.984V354.349H79.1152V353.984C79.1152 349.77 82.5302 346.352 86.7472 346.352H482.695C486.912 346.353 490.329 349.77 490.329 353.984Z" fill="#006BDE"/>
<path d="M345.32 322.343H220.934C217.962 322.343 215.553 319.934 215.553 316.962V251.885C215.553 248.913 217.962 246.504 220.934 246.504H345.319C348.291 246.504 350.7 248.913 350.7 251.885V316.962C350.701 319.934 348.291 322.343 345.32 322.343Z" fill="#014579"/>
<path d="M293.593 322.258H272.662V346.119H293.593V322.258Z" fill="#000B29"/>
<path d="M282.892 295.741C288.629 295.741 293.28 291.09 293.28 285.353C293.28 279.616 288.629 274.965 282.892 274.965C277.155 274.965 272.504 279.616 272.504 285.353C272.504 291.09 277.155 295.741 282.892 295.741Z" fill="#1D567E"/>
<path d="M309.785 346.117H255.797V344.298C255.797 340.628 258.772 337.652 262.442 337.652H303.139C306.809 337.652 309.784 340.627 309.784 344.298V346.117H309.785Z" fill="#014579"/>
</g>
<defs>
<filter id="filter0_d_480_853" x="0" y="0" width="569" height="394" filterUnits="userSpaceOnUse" color-interpolation-filters="sRGB">
<feFlood flood-opacity="0" result="BackgroundImageFix"/>
<feColorMatrix in="SourceAlpha" type="matrix" values="0 0 0 0 0 0 0 0 0 0 0 0 0 0 0 0 0 0 127 0" result="hardAlpha"/>
<feOffset dx="3" dy="4"/>
<feGaussianBlur stdDeviation="7"/>
<feComposite in2="hardAlpha" operator="out"/>
<feColorMatrix type="matrix" values="0 0 0 0 0 0 0 0 0 0 0 0 0 0 0 0 0 0 0.1 0"/>
<feBlend mode="normal" in2="BackgroundImageFix" result="effect1_dropShadow_480_853"/>
<feBlend mode="normal" in="SourceGraphic" in2="effect1_dropShadow_480_853" result="shape"/>
</filter>
</defs>
</svg>
