<svg width="563" height="554" viewBox="0 0 563 554" fill="none" xmlns="http://www.w3.org/2000/svg">
<path fill-rule="evenodd" clip-rule="evenodd" d="M267.5 107.43L181.092 170.209L94.6816 232.989L127.686 334.57L160.692 436.151H267.5H374.309L407.314 334.57L440.319 232.989L353.909 170.209L267.5 107.43Z" fill="#E9EBEC"/>
<path fill-rule="evenodd" clip-rule="evenodd" d="M423.732 123.273L420.506 116.09L415.904 122.425L423.732 123.273Z" stroke="#5B6770" stroke-width="2.8797" stroke-miterlimit="22.9256"/>
<path d="M378.396 90.3359L423.731 123.274" stroke="#5B6770" stroke-width="2.8797" stroke-miterlimit="22.9256" stroke-linecap="round" stroke-linejoin="round"/>
<path d="M368.508 83.1504L372.352 85.9428" stroke="#5B6770" stroke-width="2.8797" stroke-miterlimit="22.9256" stroke-linecap="round" stroke-linejoin="round"/>
<path fill-rule="evenodd" clip-rule="evenodd" d="M311.865 83.999C334.998 83.999 353.864 65.1315 353.864 41.9995C353.864 18.8675 334.997 0 311.865 0C288.733 0 269.865 18.8675 269.865 41.9995C269.865 65.1315 288.733 83.999 311.865 83.999Z" fill="#E9EBEC"/>
<path d="M546.613 264.882C555.49 243.452 545.314 218.883 523.883 210.006C502.453 201.129 477.884 211.305 469.007 232.736C460.13 254.166 470.306 278.735 491.737 287.612C513.167 296.489 537.736 286.313 546.613 264.882Z" fill="#E9EBEC"/>
<path d="M410.383 515.255C419.336 493.857 409.248 469.252 387.85 460.299C366.452 451.345 341.847 461.434 332.893 482.832C323.94 504.23 334.028 528.834 355.426 537.788C376.824 546.742 401.429 536.653 410.383 515.255Z" fill="#E9EBEC"/>
<path fill-rule="evenodd" clip-rule="evenodd" d="M91.5698 488.907C114.703 488.907 133.569 470.04 133.569 446.908C133.569 423.776 114.702 404.908 91.5698 404.908C68.4378 404.908 49.5703 423.774 49.5703 446.908C49.5703 470.04 68.4378 488.907 91.5698 488.907Z" fill="#E9EBEC"/>
<path d="M93.6044 180.086C102.254 158.563 91.818 134.103 70.2947 125.453C48.7714 116.804 24.3114 127.24 15.6617 148.763C7.01207 170.286 17.4482 194.746 38.9715 203.396C60.4948 212.046 84.9548 201.61 93.6044 180.086Z" fill="#E9EBEC"/>
<path fill-rule="evenodd" clip-rule="evenodd" d="M465.458 380.45L471.266 375.135L463.807 372.752L465.458 380.45Z" stroke="#5B6770" stroke-width="2.8797" stroke-miterlimit="22.9256"/>
<path d="M482.508 327.07L465.457 380.45" stroke="#5B6770" stroke-width="2.8797" stroke-miterlimit="22.9256" stroke-linecap="round" stroke-linejoin="round"/>
<path d="M486.23 315.426L484.785 319.952" stroke="#5B6770" stroke-width="2.8797" stroke-miterlimit="22.9256" stroke-linecap="round" stroke-linejoin="round"/>
<path fill-rule="evenodd" clip-rule="evenodd" d="M233.369 499.063L240.199 502.978V495.146L233.369 499.063Z" stroke="#5B6770" stroke-width="2.8797" stroke-miterlimit="22.9256"/>
<path d="M289.406 499.062H233.369" stroke="#5B6770" stroke-width="2.8797" stroke-miterlimit="22.9256" stroke-linecap="round" stroke-linejoin="round"/>
<path d="M301.628 499.062H296.877" stroke="#5B6770" stroke-width="2.8797" stroke-miterlimit="22.9256" stroke-linecap="round" stroke-linejoin="round"/>
<path fill-rule="evenodd" clip-rule="evenodd" d="M48.4479 315.531L46.8732 323.243L54.309 320.786L48.4479 315.531Z" stroke="#5B6770" stroke-width="2.8797" stroke-miterlimit="22.9256"/>
<path d="M66.0298 368.737L48.4493 315.529" stroke="#5B6770" stroke-width="2.8797" stroke-miterlimit="22.9256" stroke-linecap="round" stroke-linejoin="round"/>
<path d="M69.863 380.343L68.373 375.832" stroke="#5B6770" stroke-width="2.8797" stroke-miterlimit="22.9256" stroke-linecap="round" stroke-linejoin="round"/>
<path fill-rule="evenodd" clip-rule="evenodd" d="M166.49 83.1523L158.664 83.9988L163.266 90.3338L166.49 83.1523Z" stroke="#5B6770" stroke-width="2.8797" stroke-miterlimit="22.9256"/>
<path d="M121.156 116.09L166.492 83.1523" stroke="#5B6770" stroke-width="2.8797" stroke-miterlimit="22.9256" stroke-linecap="round" stroke-linejoin="round"/>
<path d="M111.268 123.275L115.112 120.482" stroke="#5B6770" stroke-width="2.8797" stroke-miterlimit="22.9256" stroke-linecap="round" stroke-linejoin="round"/>
<path opacity="0.1" fill-rule="evenodd" clip-rule="evenodd" d="M381.167 300.973L388.68 308.487L396.194 316.001H396.195L403.708 323.515H403.709H458.548H513.388L530.336 271.36L547.282 219.202L539.768 211.688L532.255 204.174L524.741 196.661L480.374 164.426L436.007 132.191L391.64 164.426L347.273 196.661L364.219 248.817L381.167 300.973Z" fill="black"/>
<path opacity="0.1" fill-rule="evenodd" clip-rule="evenodd" d="M316.801 499.063L324.316 506.577L331.83 514.091L339.344 521.605H394.184H449.024L465.972 469.448L482.918 417.292L475.404 409.778L467.889 402.264L460.375 394.75L416.009 362.516L371.642 330.281L327.275 362.516L282.908 394.75L299.855 446.907L316.801 499.063Z" fill="#1F1B20"/>
<path opacity="0.1" fill-rule="evenodd" clip-rule="evenodd" d="M108.518 499.063L116.031 506.577L123.545 514.091H123.547L131.059 521.605H131.061H185.9H240.74L257.687 469.448L274.633 417.292L267.119 409.778L259.606 402.264L252.092 394.75L207.725 362.516L163.359 330.281L118.992 362.516L74.625 394.75L91.571 446.907L108.518 499.063Z" fill="#1F1B20"/>
<path opacity="0.1" fill-rule="evenodd" clip-rule="evenodd" d="M44.1549 300.973L51.6691 308.487L59.1832 316.001L66.6973 323.515H121.538H176.378L193.325 271.36L210.271 219.202L202.757 211.688L195.243 204.174L187.729 196.661L143.362 164.426L98.9953 132.191L54.6285 164.426L10.2617 196.661L27.209 248.817L44.1549 300.973Z" fill="#1F1B20"/>
<path opacity="0.1" fill-rule="evenodd" clip-rule="evenodd" d="M212.661 178.547L220.175 186.061L227.689 193.575L235.202 201.088L235.203 201.09V201.088H290.044H344.884L361.83 148.933L378.777 96.7767L371.263 89.2626L363.749 81.7485L356.235 74.2343L311.868 42.0006L267.501 9.76562L223.134 42.0006L178.768 74.2343L195.714 126.39L212.661 178.547Z" fill="#1F1B20"/>
<path fill-rule="evenodd" clip-rule="evenodd" d="M267.501 9.76562L223.134 42.0006L178.768 74.2343L195.714 126.39L212.661 178.547H267.501H322.341L339.289 126.39L356.235 74.2343L311.868 42.0006L267.501 9.76562Z" fill="white"/>
<path fill-rule="evenodd" clip-rule="evenodd" d="M267.499 28.0547L196.16 79.8855L223.409 163.75H311.59L338.839 79.8855L267.499 28.0547Z" fill="#FFAE35"/>
<path d="M241.958 94.4203C241.198 94.4203 240.818 94.2113 240.818 93.7933V81.6333C240.818 81.2153 241.198 81.0063 241.958 81.0063H242.623C243.383 81.0063 243.763 81.2153 243.763 81.6333V93.7933C243.763 94.2113 243.383 94.4203 242.623 94.4203H241.958ZM249.334 94.5153C248.65 94.5153 248.042 94.3189 247.51 93.9263C246.978 93.5336 246.553 92.9573 246.237 92.1973C245.933 91.4246 245.781 90.4873 245.781 89.3853C245.781 87.8399 246.129 86.6049 246.826 85.6803C247.522 84.7429 248.51 84.2743 249.79 84.2743C250.233 84.2743 250.613 84.3376 250.93 84.4643C251.259 84.5909 251.525 84.7239 251.728 84.8633V80.6453C251.728 80.2399 252.108 80.0373 252.868 80.0373H253.4C254.16 80.0373 254.54 80.2399 254.54 80.6453V91.0193C254.54 91.6779 254.559 92.1846 254.597 92.5393C254.635 92.8813 254.673 93.1409 254.711 93.3183C254.749 93.4829 254.768 93.6349 254.768 93.7743C254.768 93.8883 254.679 93.9833 254.502 94.0593C254.337 94.1353 254.128 94.1986 253.875 94.2493C253.634 94.2999 253.393 94.3379 253.153 94.3633C252.925 94.3759 252.754 94.3823 252.64 94.3823C252.437 94.3823 252.285 94.3126 252.184 94.1733C252.095 94.0213 252.032 93.8439 251.994 93.6413C251.956 93.4386 251.918 93.2549 251.88 93.0903C251.664 93.4956 251.335 93.8376 250.892 94.1163C250.448 94.3823 249.929 94.5153 249.334 94.5153ZM250.17 92.2163C250.537 92.2163 250.847 92.1023 251.101 91.8743C251.354 91.6463 251.563 91.3866 251.728 91.0953V86.8583C251.576 86.7696 251.386 86.6873 251.158 86.6113C250.942 86.5353 250.689 86.4973 250.398 86.4973C249.802 86.4973 249.359 86.7443 249.068 87.2383C248.776 87.7196 248.631 88.4353 248.631 89.3853C248.631 90.3099 248.757 91.0129 249.011 91.4943C249.264 91.9756 249.65 92.2163 250.17 92.2163ZM261.483 94.5153C259.76 94.5153 258.5 94.0593 257.702 93.1473C256.917 92.2226 256.524 90.9939 256.524 89.4613C256.524 88.2073 256.72 87.2003 257.113 86.4403C257.506 85.6803 258.05 85.1293 258.747 84.7873C259.444 84.4453 260.242 84.2743 261.141 84.2743C262.142 84.2743 262.94 84.5023 263.535 84.9583C264.13 85.4016 264.561 85.9969 264.827 86.7443C265.106 87.4789 265.245 88.2896 265.245 89.1763C265.245 89.2776 265.182 89.4233 265.055 89.6133C264.928 89.7906 264.789 89.9489 264.637 90.0883C264.485 90.2276 264.365 90.2973 264.276 90.2973H259.431C259.494 91.0573 259.716 91.5829 260.096 91.8743C260.489 92.1529 260.995 92.2923 261.616 92.2923C262.021 92.2923 262.376 92.2416 262.68 92.1403C262.997 92.0389 263.256 91.9439 263.459 91.8553C263.674 91.7539 263.826 91.7033 263.915 91.7033C264.054 91.7033 264.2 91.7983 264.352 91.9883C264.504 92.1783 264.631 92.3873 264.732 92.6153C264.846 92.8433 264.903 93.0206 264.903 93.1473C264.903 93.3879 264.776 93.5969 264.523 93.7743C264.282 93.9389 263.972 94.0783 263.592 94.1923C263.225 94.3063 262.845 94.3886 262.452 94.4393C262.072 94.4899 261.749 94.5153 261.483 94.5153ZM259.431 88.4163H262.509C262.509 87.8589 262.401 87.4029 262.186 87.0483C261.971 86.6809 261.622 86.4973 261.141 86.4973C260.748 86.4973 260.394 86.6366 260.077 86.9153C259.76 87.1813 259.545 87.6816 259.431 88.4163ZM268.286 94.4013C267.526 94.4013 267.146 94.1986 267.146 93.7933V87.7703C267.146 87.1369 267.127 86.6493 267.089 86.3073C267.051 85.9653 267.013 85.7119 266.975 85.5473C266.937 85.3699 266.918 85.2179 266.918 85.0913C266.918 84.9773 267.001 84.8823 267.165 84.8063C267.343 84.7303 267.552 84.6669 267.792 84.6163C268.046 84.5656 268.286 84.5339 268.514 84.5213C268.755 84.4959 268.932 84.4833 269.046 84.4833C269.249 84.4833 269.395 84.5529 269.483 84.6923C269.585 84.8316 269.654 84.9963 269.692 85.1863C269.73 85.3763 269.768 85.5536 269.806 85.7183C270.085 85.3509 270.471 85.0216 270.965 84.7303C271.459 84.4263 272.017 84.2743 272.637 84.2743C273.587 84.2743 274.29 84.5276 274.746 85.0343C275.202 85.5283 275.43 86.3009 275.43 87.3523V93.7933C275.43 94.1986 275.05 94.4013 274.29 94.4013H273.758C272.998 94.4013 272.618 94.1986 272.618 93.7933V87.7703C272.618 87.4029 272.53 87.1179 272.352 86.9153C272.188 86.6999 271.896 86.5923 271.478 86.5923C271.086 86.5923 270.763 86.7253 270.509 86.9913C270.256 87.2446 270.072 87.4789 269.958 87.6943V93.7933C269.958 94.1986 269.578 94.4013 268.818 94.4013H268.286ZM280.781 94.5153C280.338 94.5153 279.939 94.4583 279.584 94.3443C279.242 94.2176 278.951 94.0276 278.71 93.7743C278.482 93.5209 278.305 93.2043 278.178 92.8243C278.064 92.4316 278.007 91.9693 278.007 91.4373V86.6493H277.703C277.323 86.6493 277.133 86.3326 277.133 85.6993V85.3763C277.133 84.7429 277.323 84.4263 277.703 84.4263H278.007L278.254 82.6213C278.318 82.2159 278.66 82.0133 279.28 82.0133H279.869C280.503 82.0133 280.819 82.2159 280.819 82.6213V84.4263H281.75C282.13 84.4263 282.32 84.7429 282.32 85.3763V85.6993C282.32 86.3326 282.13 86.6493 281.75 86.6493H280.819V91.4753C280.819 91.7539 280.87 91.9629 280.971 92.1023C281.085 92.2289 281.263 92.2923 281.503 92.2923C281.592 92.2923 281.687 92.2796 281.788 92.2543C281.89 92.2289 281.966 92.2163 282.016 92.2163C282.143 92.2163 282.251 92.3239 282.339 92.5393C282.428 92.7419 282.491 92.9573 282.529 93.1853C282.58 93.4006 282.605 93.5336 282.605 93.5843C282.605 93.8756 282.491 94.0909 282.263 94.2303C282.048 94.3569 281.795 94.4329 281.503 94.4583C281.225 94.4963 280.984 94.5153 280.781 94.5153ZM285.299 94.4013C284.539 94.4013 284.159 94.1986 284.159 93.7933V84.9963C284.159 84.5909 284.539 84.3883 285.299 84.3883H285.831C286.591 84.3883 286.971 84.5909 286.971 84.9963V93.7933C286.971 94.1986 286.591 94.4013 285.831 94.4013H285.299ZM285.565 83.4573C285.071 83.4573 284.71 83.4066 284.482 83.3053C284.267 83.2039 284.159 83.0519 284.159 82.8493V81.3673C284.159 81.1646 284.267 81.0126 284.482 80.9113C284.71 80.8099 285.071 80.7593 285.565 80.7593C286.059 80.7593 286.414 80.8099 286.629 80.9113C286.857 81.0126 286.971 81.1646 286.971 81.3673V82.8493C286.971 83.0519 286.857 83.2039 286.629 83.3053C286.414 83.4066 286.059 83.4573 285.565 83.4573ZM290.708 94.4013C289.948 94.4013 289.568 94.1986 289.568 93.7933V86.6493H289.226C288.846 86.6493 288.656 86.3326 288.656 85.6993V85.3763C288.656 84.7429 288.846 84.4263 289.226 84.4263H289.568V83.0013C289.568 82.4693 289.625 82.0133 289.739 81.6333C289.865 81.2406 290.043 80.9176 290.271 80.6643C290.511 80.4109 290.803 80.2273 291.145 80.1133C291.499 79.9866 291.898 79.9233 292.342 79.9233C292.544 79.9233 292.791 79.9423 293.083 79.9803C293.387 80.0056 293.653 80.0879 293.881 80.2273C294.121 80.3539 294.242 80.5629 294.242 80.8543C294.242 80.9049 294.216 81.0443 294.166 81.2723C294.128 81.4876 294.064 81.7029 293.976 81.9183C293.887 82.1209 293.779 82.2223 293.653 82.2223C293.589 82.2223 293.501 82.2096 293.387 82.1843C293.273 82.1589 293.165 82.1463 293.064 82.1463C292.899 82.1463 292.766 82.1779 292.665 82.2413C292.563 82.2919 292.487 82.3806 292.437 82.5073C292.399 82.6213 292.38 82.7733 292.38 82.9633V84.4263H293.33C293.71 84.4263 293.9 84.7429 293.9 85.3763V85.6993C293.9 86.3326 293.71 86.6493 293.33 86.6493H292.38V93.7933C292.38 94.1986 292 94.4013 291.24 94.4013H290.708ZM297.514 98.2773C296.754 98.2773 296.374 98.1443 296.374 97.8783C296.374 97.8276 296.38 97.7706 296.393 97.7073C296.405 97.6566 296.424 97.5996 296.45 97.5363L298.027 93.3373V95.4273L294.512 85.1483C294.499 85.0849 294.48 85.0279 294.455 84.9773C294.442 84.9139 294.436 84.8569 294.436 84.8063C294.436 84.5276 294.822 84.3883 295.595 84.3883H296.203C296.481 84.3883 296.716 84.4199 296.906 84.4833C297.096 84.5339 297.216 84.6353 297.267 84.7873L298.388 88.3023C298.451 88.5176 298.533 88.8533 298.635 89.3093C298.736 89.7653 298.831 90.1959 298.92 90.6013H298.996C299.084 90.1959 299.179 89.7653 299.281 89.3093C299.382 88.8406 299.464 88.5049 299.528 88.3023L300.649 84.7873C300.699 84.6353 300.82 84.5339 301.01 84.4833C301.2 84.4199 301.434 84.3883 301.713 84.3883H302.169C302.929 84.3883 303.309 84.5276 303.309 84.8063C303.309 84.8949 303.29 85.0089 303.252 85.1483L298.901 97.8783C298.85 98.0303 298.73 98.1316 298.54 98.1823C298.35 98.2456 298.115 98.2773 297.837 98.2773H297.514ZM254.891 116.515C252.763 116.515 251.186 115.964 250.16 114.862C249.146 113.748 248.64 112.019 248.64 109.675C248.64 107.408 249.172 105.717 250.236 104.602C251.3 103.475 252.883 102.911 254.986 102.911C255.404 102.911 255.847 102.943 256.316 103.006C256.784 103.07 257.228 103.165 257.646 103.291C258.064 103.405 258.399 103.545 258.653 103.709C258.919 103.861 259.052 104.039 259.052 104.241C259.052 104.419 258.982 104.653 258.843 104.944C258.703 105.223 258.539 105.476 258.349 105.704C258.159 105.92 257.981 106.027 257.817 106.027C257.741 106.027 257.589 105.977 257.361 105.875C257.145 105.774 256.835 105.673 256.43 105.571C256.037 105.47 255.537 105.419 254.929 105.419C254.181 105.419 253.561 105.578 253.067 105.894C252.585 106.211 252.224 106.686 251.984 107.319C251.756 107.953 251.642 108.744 251.642 109.694C251.642 110.404 251.705 111.031 251.832 111.575C251.971 112.12 252.174 112.576 252.44 112.943C252.718 113.298 253.06 113.57 253.466 113.76C253.871 113.938 254.346 114.026 254.891 114.026C255.296 114.026 255.663 114.001 255.993 113.95C256.335 113.9 256.74 113.817 257.209 113.703L256.373 114.995V111.48H254.701C254.321 111.48 254.131 111.164 254.131 110.53V109.922C254.131 109.289 254.321 108.972 254.701 108.972H258.558C259.064 108.972 259.318 109.226 259.318 109.732V115.014C259.318 115.344 259.153 115.61 258.824 115.812C258.494 116.002 258.089 116.148 257.608 116.249C257.126 116.351 256.639 116.42 256.145 116.458C255.651 116.496 255.233 116.515 254.891 116.515ZM265.965 116.515C264.458 116.515 263.312 116.072 262.526 115.185C261.741 114.299 261.348 113.032 261.348 111.385C261.348 109.726 261.741 108.459 262.526 107.585C263.312 106.711 264.458 106.274 265.965 106.274C267.473 106.274 268.613 106.711 269.385 107.585C270.171 108.459 270.563 109.726 270.563 111.385C270.563 113.032 270.171 114.299 269.385 115.185C268.613 116.072 267.473 116.515 265.965 116.515ZM265.965 114.292C266.573 114.292 267.017 114.045 267.295 113.551C267.574 113.057 267.713 112.335 267.713 111.385C267.713 110.435 267.574 109.72 267.295 109.238C267.017 108.744 266.573 108.497 265.965 108.497C265.357 108.497 264.908 108.744 264.616 109.238C264.338 109.72 264.198 110.435 264.198 111.385C264.198 112.335 264.338 113.057 264.616 113.551C264.908 114.045 265.357 114.292 265.965 114.292ZM274.978 116.515C273.952 116.515 273.223 116.249 272.793 115.717C272.375 115.173 272.166 114.514 272.166 113.741C272.166 113.349 272.223 112.95 272.337 112.544C272.463 112.126 272.71 111.74 273.078 111.385C273.445 111.031 273.99 110.746 274.712 110.53C275.446 110.315 276.415 110.207 277.619 110.207V109.58C277.619 109.213 277.498 108.941 277.258 108.763C277.03 108.586 276.656 108.497 276.137 108.497C275.681 108.497 275.282 108.548 274.94 108.649C274.61 108.751 274.338 108.852 274.123 108.953C273.92 109.055 273.781 109.105 273.705 109.105C273.578 109.105 273.432 109.01 273.268 108.82C273.116 108.618 272.983 108.396 272.869 108.155C272.767 107.902 272.717 107.712 272.717 107.585C272.717 107.37 272.869 107.161 273.173 106.958C273.489 106.756 273.92 106.591 274.465 106.464C275.022 106.338 275.649 106.274 276.346 106.274C277.346 106.274 278.144 106.414 278.74 106.692C279.335 106.958 279.766 107.332 280.032 107.813C280.298 108.282 280.431 108.827 280.431 109.447V113.019C280.431 113.678 280.45 114.185 280.488 114.539C280.526 114.881 280.564 115.141 280.602 115.318C280.64 115.483 280.659 115.635 280.659 115.774C280.659 115.888 280.57 115.983 280.393 116.059C280.228 116.135 280.019 116.199 279.766 116.249C279.525 116.3 279.284 116.338 279.044 116.363C278.816 116.376 278.645 116.382 278.531 116.382C278.328 116.382 278.176 116.313 278.075 116.173C277.986 116.021 277.923 115.844 277.885 115.641C277.847 115.426 277.809 115.236 277.771 115.071C277.733 115.147 277.6 115.306 277.372 115.546C277.156 115.774 276.846 115.996 276.441 116.211C276.048 116.414 275.56 116.515 274.978 116.515ZM275.909 114.292C276.276 114.292 276.612 114.178 276.916 113.95C277.232 113.722 277.467 113.437 277.619 113.095V112.05C277.163 112.05 276.77 112.082 276.441 112.145C276.111 112.209 275.833 112.297 275.605 112.411C275.389 112.525 275.225 112.671 275.111 112.848C275.009 113.026 274.959 113.228 274.959 113.456C274.959 113.697 275.035 113.9 275.187 114.064C275.351 114.216 275.592 114.292 275.909 114.292ZM285.692 116.515C285.249 116.515 284.85 116.458 284.495 116.344C284.153 116.218 283.862 116.028 283.621 115.774C283.393 115.521 283.216 115.204 283.089 114.824C282.975 114.432 282.918 113.969 282.918 113.437V102.645C282.918 102.24 283.298 102.037 284.058 102.037H284.59C285.35 102.037 285.73 102.24 285.73 102.645V113.475C285.73 113.754 285.781 113.963 285.882 114.102C285.996 114.229 286.173 114.292 286.414 114.292C286.503 114.292 286.598 114.28 286.699 114.254C286.8 114.229 286.876 114.216 286.927 114.216C287.054 114.216 287.161 114.324 287.25 114.539C287.339 114.742 287.402 114.957 287.44 115.185C287.491 115.401 287.516 115.534 287.516 115.584C287.516 115.876 287.402 116.091 287.174 116.23C286.959 116.357 286.705 116.433 286.414 116.458C286.135 116.496 285.895 116.515 285.692 116.515ZM291.048 116.515C290.579 116.515 290.098 116.465 289.604 116.363C289.122 116.262 288.717 116.116 288.388 115.926C288.058 115.724 287.894 115.489 287.894 115.223C287.894 115.059 287.951 114.862 288.065 114.634C288.179 114.406 288.312 114.204 288.464 114.026C288.628 113.849 288.774 113.76 288.901 113.76C289.002 113.76 289.135 113.805 289.3 113.893C289.477 113.982 289.692 114.071 289.946 114.159C290.199 114.248 290.49 114.292 290.82 114.292C291.592 114.292 291.979 114.026 291.979 113.494C291.979 113.203 291.833 112.981 291.542 112.829C291.25 112.677 290.883 112.506 290.44 112.316C290.136 112.177 289.8 112.006 289.433 111.803C289.078 111.601 288.768 111.309 288.502 110.929C288.248 110.549 288.122 110.036 288.122 109.39C288.122 108.732 288.261 108.174 288.54 107.718C288.831 107.25 289.236 106.895 289.756 106.654C290.275 106.401 290.883 106.274 291.58 106.274C291.947 106.274 292.352 106.312 292.796 106.388C293.239 106.452 293.619 106.566 293.936 106.73C294.265 106.895 294.43 107.11 294.43 107.376C294.43 107.516 294.385 107.706 294.297 107.946C294.208 108.187 294.1 108.402 293.974 108.592C293.86 108.782 293.739 108.877 293.613 108.877C293.511 108.877 293.321 108.814 293.043 108.687C292.764 108.548 292.39 108.478 291.922 108.478C291.605 108.478 291.358 108.535 291.181 108.649C291.003 108.751 290.915 108.928 290.915 109.181C290.915 109.498 291.06 109.732 291.352 109.884C291.643 110.024 292.023 110.182 292.492 110.359C292.808 110.473 293.138 110.632 293.48 110.834C293.834 111.037 294.138 111.335 294.392 111.727C294.645 112.107 294.772 112.62 294.772 113.266C294.772 113.912 294.626 114.482 294.335 114.976C294.043 115.458 293.619 115.838 293.062 116.116C292.517 116.382 291.846 116.515 291.048 116.515Z" fill="white"/>
<path fill-rule="evenodd" clip-rule="evenodd" d="M436.007 132.191L391.64 164.426L347.273 196.661L364.219 248.817L381.167 300.973H436.007H490.847L507.793 248.817L524.741 196.661L480.374 164.426L436.007 132.191Z" fill="white"/>
<path fill-rule="evenodd" clip-rule="evenodd" d="M436.007 150.48L364.668 202.311L391.917 286.175H480.097L507.345 202.311L436.007 150.48Z" fill="#9C93FE"/>
<path fill-rule="evenodd" clip-rule="evenodd" d="M98.9953 132.191L54.6285 164.426L10.2617 196.661L27.209 248.817L44.1549 300.973H98.9953H153.836L170.783 248.817L187.729 196.661L143.362 164.426L98.9953 132.191Z" fill="white"/>
<path fill-rule="evenodd" clip-rule="evenodd" d="M98.9936 150.48L27.6543 202.311L54.9043 286.175H143.084L170.333 202.311L98.9936 150.48Z" fill="#00C6E0"/>
<path fill-rule="evenodd" clip-rule="evenodd" d="M163.359 330.281L118.992 362.516L74.625 394.75L91.571 446.907L108.518 499.063H163.359H218.199L235.145 446.907L252.092 394.75L207.725 362.516L163.359 330.281Z" fill="white"/>
<path fill-rule="evenodd" clip-rule="evenodd" d="M163.357 348.57L92.0177 400.401L119.266 484.265H207.446L234.695 400.401L163.357 348.57Z" fill="#595BD4"/>
<path fill-rule="evenodd" clip-rule="evenodd" d="M371.642 330.281L327.275 362.516L282.908 394.75L299.855 446.907L316.801 499.063H371.642H426.482L443.429 446.907L460.375 394.75L416.009 362.516L371.642 330.281Z" fill="white"/>
<path fill-rule="evenodd" clip-rule="evenodd" d="M371.642 348.57L300.303 400.401L327.553 484.265H415.733L442.981 400.401L371.642 348.57Z" fill="#EC5FA3"/>
<path opacity="0.1" fill-rule="evenodd" clip-rule="evenodd" d="M276.064 34.2779L267.499 28.0547L196.16 79.8855L223.409 163.75H229.952L204.725 86.1087L276.064 34.2779Z" fill="black"/>
<path opacity="0.1" fill-rule="evenodd" clip-rule="evenodd" d="M444.572 156.702L436.007 150.48L364.668 202.311L391.917 286.175H398.46L373.233 208.533L444.572 156.702Z" fill="black"/>
<path opacity="0.1" fill-rule="evenodd" clip-rule="evenodd" d="M380.207 354.794L371.642 348.57L300.303 400.401L327.553 484.265H334.096L308.868 406.624L380.207 354.794Z" fill="black"/>
<path opacity="0.15" fill-rule="evenodd" clip-rule="evenodd" d="M171.922 354.794L163.357 348.57L92.0177 400.401L119.266 484.265H125.809L100.583 406.624L171.922 354.794Z" fill="black"/>
<path opacity="0.1" fill-rule="evenodd" clip-rule="evenodd" d="M107.558 156.702L98.9936 150.48L27.6543 202.311L54.9043 286.175H61.4461L36.2191 208.533L107.558 156.702Z" fill="black"/>
<path d="M258.408 253.209C256.457 253.209 254.95 252.626 253.886 251.461C252.834 250.283 252.309 248.598 252.309 246.407C252.309 244.215 252.834 242.537 253.886 241.372C254.95 240.194 256.457 239.605 258.408 239.605C260.371 239.605 261.872 240.194 262.911 241.372C263.962 242.537 264.488 244.215 264.488 246.407C264.488 248.598 263.962 250.283 262.911 251.461C261.872 252.626 260.371 253.209 258.408 253.209ZM258.408 250.72C259.421 250.72 260.187 250.352 260.707 249.618C261.226 248.87 261.486 247.8 261.486 246.407C261.486 245.013 261.226 243.949 260.707 243.215C260.187 242.48 259.421 242.113 258.408 242.113C257.394 242.113 256.622 242.48 256.09 243.215C255.57 243.949 255.311 245.013 255.311 246.407C255.311 247.8 255.57 248.87 256.09 249.618C256.622 250.352 257.394 250.72 258.408 250.72ZM269.265 253.209C268.315 253.209 267.612 252.962 267.156 252.468C266.7 251.961 266.472 251.182 266.472 250.131V243.69C266.472 243.284 266.852 243.082 267.612 243.082H268.144C268.904 243.082 269.284 243.284 269.284 243.69V249.713C269.284 250.08 269.366 250.371 269.531 250.587C269.708 250.789 270.006 250.891 270.424 250.891C270.817 250.891 271.14 250.764 271.393 250.511C271.646 250.245 271.83 250.004 271.944 249.789V243.69C271.944 243.284 272.324 243.082 273.084 243.082H273.616C274.376 243.082 274.756 243.284 274.756 243.69V249.713C274.756 250.371 274.775 250.878 274.813 251.233C274.851 251.575 274.889 251.834 274.927 252.012C274.965 252.176 274.984 252.328 274.984 252.468C274.984 252.582 274.895 252.677 274.718 252.753C274.553 252.829 274.344 252.892 274.091 252.943C273.85 252.993 273.61 253.031 273.369 253.057C273.141 253.069 272.97 253.076 272.856 253.076C272.653 253.076 272.501 253.006 272.4 252.867C272.311 252.715 272.248 252.537 272.21 252.335C272.172 252.119 272.134 251.929 272.096 251.765C271.817 252.119 271.431 252.449 270.937 252.753C270.443 253.057 269.886 253.209 269.265 253.209ZM278.245 253.095C277.485 253.095 277.105 252.892 277.105 252.487V246.464C277.105 245.83 277.086 245.343 277.048 245.001C277.01 244.659 276.972 244.405 276.934 244.241C276.896 244.063 276.877 243.911 276.877 243.785C276.877 243.671 276.96 243.576 277.124 243.5C277.302 243.424 277.511 243.36 277.751 243.31C278.005 243.259 278.245 243.227 278.473 243.215C278.714 243.189 278.891 243.177 279.005 243.177C279.208 243.177 279.354 243.246 279.442 243.386C279.544 243.525 279.613 243.69 279.651 243.88C279.689 244.07 279.727 244.247 279.765 244.412C279.968 244.044 280.228 243.715 280.544 243.424C280.861 243.12 281.292 242.968 281.836 242.968C282.305 242.968 282.603 243.063 282.729 243.253C282.856 243.443 282.919 243.69 282.919 243.994C282.919 244.108 282.894 244.298 282.843 244.564C282.805 244.817 282.742 245.051 282.653 245.267C282.565 245.482 282.457 245.59 282.33 245.59C282.204 245.59 282.071 245.564 281.931 245.514C281.792 245.463 281.627 245.438 281.437 245.438C281.184 245.438 280.956 245.495 280.753 245.609C280.551 245.71 280.38 245.837 280.24 245.989C280.101 246.128 279.993 246.261 279.917 246.388V252.487C279.917 252.892 279.537 253.095 278.777 253.095H278.245ZM231.976 275.095C231.216 275.095 230.836 274.892 230.836 274.487V262.517C230.836 262.01 231.089 261.757 231.596 261.757H237.847C238.227 261.757 238.417 262.073 238.417 262.707V263.296C238.417 263.929 238.227 264.246 237.847 264.246H233.762V267.59H237.714C238.094 267.59 238.284 267.906 238.284 268.54V269.129C238.284 269.762 238.094 270.079 237.714 270.079H233.762V274.487C233.762 274.892 233.382 275.095 232.622 275.095H231.976ZM241.209 275.095C240.449 275.095 240.069 274.892 240.069 274.487V265.69C240.069 265.284 240.449 265.082 241.209 265.082H241.741C242.501 265.082 242.881 265.284 242.881 265.69V274.487C242.881 274.892 242.501 275.095 241.741 275.095H241.209ZM241.475 264.151C240.981 264.151 240.62 264.1 240.392 263.999C240.176 263.897 240.069 263.745 240.069 263.543V262.061C240.069 261.858 240.176 261.706 240.392 261.605C240.62 261.503 240.981 261.453 241.475 261.453C241.969 261.453 242.323 261.503 242.539 261.605C242.767 261.706 242.881 261.858 242.881 262.061V263.543C242.881 263.745 242.767 263.897 242.539 263.999C242.323 264.1 241.969 264.151 241.475 264.151ZM248.289 275.095C248.01 275.095 247.776 275.069 247.586 275.019C247.409 274.955 247.288 274.848 247.225 274.696L244.204 265.842C244.191 265.778 244.172 265.721 244.147 265.671C244.134 265.607 244.128 265.55 244.128 265.5C244.128 265.221 244.514 265.082 245.287 265.082H245.914C246.193 265.082 246.427 265.113 246.617 265.177C246.807 265.227 246.927 265.329 246.978 265.481L247.928 268.483C248.105 269.027 248.251 269.566 248.365 270.098C248.492 270.617 248.58 271.079 248.631 271.485H248.707C248.758 271.092 248.84 270.642 248.954 270.136C249.068 269.616 249.22 269.065 249.41 268.483L250.36 265.481C250.411 265.329 250.531 265.227 250.721 265.177C250.911 265.113 251.145 265.082 251.424 265.082H251.899C252.659 265.082 253.039 265.221 253.039 265.5C253.039 265.588 253.02 265.702 252.982 265.842L249.961 274.696C249.91 274.848 249.79 274.955 249.6 275.019C249.41 275.069 249.176 275.095 248.897 275.095H248.289ZM258.769 275.209C257.046 275.209 255.786 274.753 254.988 273.841C254.203 272.916 253.81 271.687 253.81 270.155C253.81 268.901 254.006 267.894 254.399 267.134C254.792 266.374 255.336 265.823 256.033 265.481C256.73 265.139 257.528 264.968 258.427 264.968C259.428 264.968 260.226 265.196 260.821 265.652C261.416 266.095 261.847 266.69 262.113 267.438C262.392 268.172 262.531 268.983 262.531 269.87C262.531 269.971 262.468 270.117 262.341 270.307C262.214 270.484 262.075 270.642 261.923 270.782C261.771 270.921 261.651 270.991 261.562 270.991H256.717C256.78 271.751 257.002 272.276 257.382 272.568C257.775 272.846 258.281 272.986 258.902 272.986C259.307 272.986 259.662 272.935 259.966 272.834C260.283 272.732 260.542 272.637 260.745 272.549C260.96 272.447 261.112 272.397 261.201 272.397C261.34 272.397 261.486 272.492 261.638 272.682C261.79 272.872 261.917 273.081 262.018 273.309C262.132 273.537 262.189 273.714 262.189 273.841C262.189 274.081 262.062 274.29 261.809 274.468C261.568 274.632 261.258 274.772 260.878 274.886C260.511 275 260.131 275.082 259.738 275.133C259.358 275.183 259.035 275.209 258.769 275.209ZM256.717 269.11H259.795C259.795 268.552 259.687 268.096 259.472 267.742C259.257 267.374 258.908 267.191 258.427 267.191C258.034 267.191 257.68 267.33 257.363 267.609C257.046 267.875 256.831 268.375 256.717 269.11ZM272.702 275.209C271.739 275.209 270.928 275.114 270.27 274.924C269.611 274.721 269.111 274.499 268.769 274.259C268.414 274.018 268.237 273.777 268.237 273.537C268.237 273.334 268.306 273.106 268.446 272.853C268.585 272.587 268.75 272.352 268.94 272.15C269.13 271.947 269.288 271.846 269.415 271.846C269.478 271.846 269.548 271.871 269.624 271.922C269.712 271.96 269.82 272.01 269.947 272.074C270.2 272.2 270.51 272.34 270.878 272.492C271.258 272.644 271.701 272.72 272.208 272.72C272.486 272.72 272.759 272.688 273.025 272.625C273.303 272.549 273.531 272.416 273.709 272.226C273.899 272.023 273.994 271.744 273.994 271.39C273.994 271.01 273.848 270.706 273.557 270.478C273.265 270.25 272.892 270.047 272.436 269.87C271.992 269.692 271.536 269.49 271.068 269.262C270.738 269.11 270.422 268.932 270.118 268.73C269.814 268.514 269.535 268.261 269.282 267.97C269.041 267.678 268.851 267.33 268.712 266.925C268.572 266.507 268.503 266.013 268.503 265.443C268.503 264.531 268.724 263.796 269.168 263.239C269.611 262.669 270.175 262.257 270.859 262.004C271.555 261.738 272.271 261.605 273.006 261.605C273.462 261.605 273.88 261.636 274.26 261.7C274.64 261.763 274.975 261.852 275.267 261.966C275.571 262.067 275.818 262.187 276.008 262.327C276.286 262.529 276.426 262.732 276.426 262.935C276.426 263.099 276.369 263.315 276.255 263.581C276.153 263.847 276.02 264.081 275.856 264.284C275.691 264.486 275.533 264.588 275.381 264.588C275.317 264.588 275.229 264.562 275.115 264.512C275.013 264.461 274.874 264.404 274.697 264.341C274.532 264.277 274.329 264.227 274.089 264.189C273.861 264.138 273.588 264.113 273.272 264.113C272.778 264.113 272.404 264.17 272.151 264.284C271.897 264.398 271.726 264.537 271.638 264.702C271.549 264.866 271.505 265.025 271.505 265.177C271.505 265.519 271.6 265.804 271.79 266.032C271.98 266.247 272.227 266.431 272.531 266.583C272.835 266.735 273.17 266.887 273.538 267.039C273.93 267.203 274.329 267.387 274.735 267.59C275.14 267.78 275.514 268.02 275.856 268.312C276.198 268.603 276.47 268.97 276.673 269.414C276.888 269.857 276.996 270.402 276.996 271.048C276.996 271.82 276.869 272.473 276.616 273.005C276.375 273.537 276.046 273.967 275.628 274.297C275.21 274.613 274.747 274.848 274.241 275C273.734 275.139 273.221 275.209 272.702 275.209ZM281.556 275.209C281.112 275.209 280.713 275.152 280.359 275.038C280.017 274.911 279.725 274.721 279.485 274.468C279.257 274.214 279.079 273.898 278.953 273.518C278.839 273.125 278.782 272.663 278.782 272.131V267.343H278.478C278.098 267.343 277.908 267.026 277.908 266.393V266.07C277.908 265.436 278.098 265.12 278.478 265.12H278.782L279.029 263.315C279.092 262.909 279.434 262.707 280.055 262.707H280.644C281.277 262.707 281.594 262.909 281.594 263.315V265.12H282.525C282.905 265.12 283.095 265.436 283.095 266.07V266.393C283.095 267.026 282.905 267.343 282.525 267.343H281.594V272.169C281.594 272.447 281.644 272.656 281.746 272.796C281.86 272.922 282.037 272.986 282.278 272.986C282.366 272.986 282.461 272.973 282.563 272.948C282.664 272.922 282.74 272.91 282.791 272.91C282.917 272.91 283.025 273.017 283.114 273.233C283.202 273.435 283.266 273.651 283.304 273.879C283.354 274.094 283.38 274.227 283.38 274.278C283.38 274.569 283.266 274.784 283.038 274.924C282.822 275.05 282.569 275.126 282.278 275.152C281.999 275.19 281.758 275.209 281.556 275.209ZM289.57 275.209C287.847 275.209 286.587 274.753 285.789 273.841C285.004 272.916 284.611 271.687 284.611 270.155C284.611 268.901 284.807 267.894 285.2 267.134C285.593 266.374 286.137 265.823 286.834 265.481C287.531 265.139 288.329 264.968 289.228 264.968C290.229 264.968 291.027 265.196 291.622 265.652C292.217 266.095 292.648 266.69 292.914 267.438C293.193 268.172 293.332 268.983 293.332 269.87C293.332 269.971 293.269 270.117 293.142 270.307C293.015 270.484 292.876 270.642 292.724 270.782C292.572 270.921 292.452 270.991 292.363 270.991H287.518C287.581 271.751 287.803 272.276 288.183 272.568C288.576 272.846 289.082 272.986 289.703 272.986C290.108 272.986 290.463 272.935 290.767 272.834C291.084 272.732 291.343 272.637 291.546 272.549C291.761 272.447 291.913 272.397 292.002 272.397C292.141 272.397 292.287 272.492 292.439 272.682C292.591 272.872 292.718 273.081 292.819 273.309C292.933 273.537 292.99 273.714 292.99 273.841C292.99 274.081 292.863 274.29 292.61 274.468C292.369 274.632 292.059 274.772 291.679 274.886C291.312 275 290.932 275.082 290.539 275.133C290.159 275.183 289.836 275.209 289.57 275.209ZM287.518 269.11H290.596C290.596 268.552 290.488 268.096 290.273 267.742C290.058 267.374 289.709 267.191 289.228 267.191C288.835 267.191 288.481 267.33 288.164 267.609C287.847 267.875 287.632 268.375 287.518 269.11ZM296.525 278.971C295.765 278.971 295.385 278.768 295.385 278.363V268.464C295.385 267.83 295.366 267.343 295.328 267.001C295.29 266.659 295.252 266.405 295.214 266.241C295.176 266.063 295.157 265.911 295.157 265.785C295.157 265.671 295.239 265.576 295.404 265.5C295.581 265.424 295.79 265.36 296.031 265.31C296.284 265.259 296.525 265.227 296.753 265.215C296.994 265.189 297.171 265.177 297.285 265.177C297.488 265.177 297.633 265.246 297.722 265.386C297.823 265.525 297.893 265.69 297.931 265.88C297.969 266.07 298.007 266.241 298.045 266.393C298.26 265.987 298.59 265.652 299.033 265.386C299.489 265.107 300.008 264.968 300.591 264.968C301.275 264.968 301.883 265.164 302.415 265.557C302.96 265.949 303.384 266.532 303.688 267.305C303.992 268.065 304.144 268.996 304.144 270.098C304.144 271.643 303.796 272.884 303.099 273.822C302.402 274.746 301.414 275.209 300.135 275.209C299.692 275.209 299.305 275.145 298.976 275.019C298.659 274.892 298.4 274.759 298.197 274.62V278.363C298.197 278.768 297.817 278.971 297.057 278.971H296.525ZM299.527 272.986C300.122 272.986 300.566 272.745 300.857 272.264C301.148 271.77 301.294 271.048 301.294 270.098C301.294 269.173 301.167 268.47 300.914 267.989C300.661 267.507 300.274 267.267 299.755 267.267C299.4 267.267 299.096 267.381 298.843 267.609C298.59 267.837 298.374 268.096 298.197 268.388V272.625C298.349 272.713 298.533 272.796 298.748 272.872C298.976 272.948 299.236 272.986 299.527 272.986ZM237.92 297.095C237.16 297.095 236.78 296.892 236.78 296.487V284.517C236.78 284.01 237.033 283.757 237.54 283.757H241.53C241.948 283.757 242.416 283.807 242.936 283.909C243.455 283.997 243.949 284.181 244.418 284.46C244.899 284.738 245.292 285.156 245.596 285.714C245.9 286.271 246.052 287.006 246.052 287.918C246.052 288.652 245.938 289.267 245.71 289.761C245.482 290.255 245.184 290.66 244.817 290.977C244.462 291.281 244.082 291.515 243.677 291.68C243.284 291.832 242.91 291.939 242.556 292.003C242.201 292.053 241.922 292.079 241.72 292.079H239.706V296.487C239.706 296.892 239.326 297.095 238.566 297.095H237.92ZM239.706 289.571H241.397C241.574 289.571 241.758 289.552 241.948 289.514C242.15 289.463 242.334 289.381 242.499 289.267C242.663 289.14 242.796 288.969 242.898 288.754C242.999 288.538 243.05 288.26 243.05 287.918C243.05 287.462 242.961 287.113 242.784 286.873C242.606 286.632 242.391 286.467 242.138 286.379C241.884 286.29 241.637 286.246 241.397 286.246H239.706V289.571ZM248.623 297.095C247.863 297.095 247.483 296.892 247.483 296.487V290.464C247.483 289.83 247.464 289.343 247.426 289.001C247.388 288.659 247.35 288.405 247.312 288.241C247.274 288.063 247.255 287.911 247.255 287.785C247.255 287.671 247.337 287.576 247.502 287.5C247.679 287.424 247.888 287.36 248.129 287.31C248.382 287.259 248.623 287.227 248.851 287.215C249.091 287.189 249.269 287.177 249.383 287.177C249.585 287.177 249.731 287.246 249.82 287.386C249.921 287.525 249.991 287.69 250.029 287.88C250.067 288.07 250.105 288.247 250.143 288.412C250.345 288.044 250.605 287.715 250.922 287.424C251.238 287.12 251.669 286.968 252.214 286.968C252.682 286.968 252.98 287.063 253.107 287.253C253.233 287.443 253.297 287.69 253.297 287.994C253.297 288.108 253.271 288.298 253.221 288.564C253.183 288.817 253.119 289.051 253.031 289.267C252.942 289.482 252.834 289.59 252.708 289.59C252.581 289.59 252.448 289.564 252.309 289.514C252.169 289.463 252.005 289.438 251.815 289.438C251.561 289.438 251.333 289.495 251.131 289.609C250.928 289.71 250.757 289.837 250.618 289.989C250.478 290.128 250.371 290.261 250.295 290.388V296.487C250.295 296.892 249.915 297.095 249.155 297.095H248.623ZM258.307 297.209C256.799 297.209 255.653 296.765 254.868 295.879C254.082 294.992 253.69 293.725 253.69 292.079C253.69 290.419 254.082 289.153 254.868 288.279C255.653 287.405 256.799 286.968 258.307 286.968C259.814 286.968 260.954 287.405 261.727 288.279C262.512 289.153 262.905 290.419 262.905 292.079C262.905 293.725 262.512 294.992 261.727 295.879C260.954 296.765 259.814 297.209 258.307 297.209ZM258.307 294.986C258.915 294.986 259.358 294.739 259.637 294.245C259.915 293.751 260.055 293.029 260.055 292.079C260.055 291.129 259.915 290.413 259.637 289.932C259.358 289.438 258.915 289.191 258.307 289.191C257.699 289.191 257.249 289.438 256.958 289.932C256.679 290.413 256.54 291.129 256.54 292.079C256.54 293.029 256.679 293.751 256.958 294.245C257.249 294.739 257.699 294.986 258.307 294.986ZM269.295 297.209C267.674 297.209 266.47 296.791 265.685 295.955C264.9 295.119 264.507 293.852 264.507 292.155C264.507 291.306 264.602 290.559 264.792 289.913C264.982 289.267 265.273 288.728 265.666 288.298C266.071 287.854 266.578 287.525 267.186 287.31C267.807 287.082 268.541 286.968 269.39 286.968C269.846 286.968 270.315 287.018 270.796 287.12C271.29 287.208 271.702 287.354 272.031 287.557C272.373 287.747 272.544 287.987 272.544 288.279C272.544 288.393 272.481 288.57 272.354 288.811C272.24 289.039 272.101 289.254 271.936 289.457C271.784 289.647 271.651 289.742 271.537 289.742C271.499 289.742 271.448 289.729 271.385 289.704C271.334 289.678 271.271 289.647 271.195 289.609C271.03 289.52 270.815 289.431 270.549 289.343C270.283 289.241 269.947 289.191 269.542 289.191C268.782 289.191 268.231 289.431 267.889 289.913C267.56 290.381 267.395 291.103 267.395 292.079C267.395 293.054 267.553 293.782 267.87 294.264C268.187 294.745 268.706 294.986 269.428 294.986C269.871 294.986 270.245 294.935 270.549 294.834C270.853 294.72 271.1 294.625 271.29 294.549C271.366 294.523 271.429 294.498 271.48 294.473C271.543 294.447 271.594 294.435 271.632 294.435C271.771 294.435 271.917 294.53 272.069 294.72C272.221 294.91 272.348 295.119 272.449 295.347C272.563 295.575 272.62 295.752 272.62 295.879C272.62 296.145 272.481 296.366 272.202 296.544C271.923 296.708 271.588 296.841 271.195 296.943C270.802 297.044 270.422 297.114 270.055 297.152C269.7 297.19 269.447 297.209 269.295 297.209ZM278.688 297.209C276.965 297.209 275.705 296.753 274.907 295.841C274.121 294.916 273.729 293.687 273.729 292.155C273.729 290.901 273.925 289.894 274.318 289.134C274.71 288.374 275.255 287.823 275.952 287.481C276.648 287.139 277.446 286.968 278.346 286.968C279.346 286.968 280.144 287.196 280.74 287.652C281.335 288.095 281.766 288.69 282.032 289.438C282.31 290.172 282.45 290.983 282.45 291.87C282.45 291.971 282.386 292.117 282.26 292.307C282.133 292.484 281.994 292.642 281.842 292.782C281.69 292.921 281.569 292.991 281.481 292.991H276.636C276.699 293.751 276.921 294.276 277.301 294.568C277.693 294.846 278.2 294.986 278.821 294.986C279.226 294.986 279.581 294.935 279.885 294.834C280.201 294.732 280.461 294.637 280.664 294.549C280.879 294.447 281.031 294.397 281.12 294.397C281.259 294.397 281.405 294.492 281.557 294.682C281.709 294.872 281.835 295.081 281.937 295.309C282.051 295.537 282.108 295.714 282.108 295.841C282.108 296.081 281.981 296.29 281.728 296.468C281.487 296.632 281.177 296.772 280.797 296.886C280.429 297 280.049 297.082 279.657 297.133C279.277 297.183 278.954 297.209 278.688 297.209ZM276.636 291.11H279.714C279.714 290.552 279.606 290.096 279.391 289.742C279.175 289.374 278.827 289.191 278.346 289.191C277.953 289.191 277.598 289.33 277.282 289.609C276.965 289.875 276.75 290.375 276.636 291.11ZM286.859 297.209C286.39 297.209 285.909 297.158 285.415 297.057C284.933 296.955 284.528 296.81 284.199 296.62C283.869 296.417 283.705 296.183 283.705 295.917C283.705 295.752 283.762 295.556 283.876 295.328C283.99 295.1 284.123 294.897 284.275 294.72C284.439 294.542 284.585 294.454 284.712 294.454C284.813 294.454 284.946 294.498 285.111 294.587C285.288 294.675 285.503 294.764 285.757 294.853C286.01 294.941 286.301 294.986 286.631 294.986C287.403 294.986 287.79 294.72 287.79 294.188C287.79 293.896 287.644 293.675 287.353 293.523C287.061 293.371 286.694 293.2 286.251 293.01C285.947 292.87 285.611 292.699 285.244 292.497C284.889 292.294 284.579 292.003 284.313 291.623C284.059 291.243 283.933 290.73 283.933 290.084C283.933 289.425 284.072 288.868 284.351 288.412C284.642 287.943 285.047 287.588 285.567 287.348C286.086 287.094 286.694 286.968 287.391 286.968C287.758 286.968 288.163 287.006 288.607 287.082C289.05 287.145 289.43 287.259 289.747 287.424C290.076 287.588 290.241 287.804 290.241 288.07C290.241 288.209 290.196 288.399 290.108 288.64C290.019 288.88 289.911 289.096 289.785 289.286C289.671 289.476 289.55 289.571 289.424 289.571C289.322 289.571 289.132 289.507 288.854 289.381C288.575 289.241 288.201 289.172 287.733 289.172C287.416 289.172 287.169 289.229 286.992 289.343C286.814 289.444 286.726 289.621 286.726 289.875C286.726 290.191 286.871 290.426 287.163 290.578C287.454 290.717 287.834 290.875 288.303 291.053C288.619 291.167 288.949 291.325 289.291 291.528C289.645 291.73 289.949 292.028 290.203 292.421C290.456 292.801 290.583 293.314 290.583 293.96C290.583 294.606 290.437 295.176 290.146 295.67C289.854 296.151 289.43 296.531 288.873 296.81C288.328 297.076 287.657 297.209 286.859 297.209ZM294.707 297.209C294.239 297.209 293.757 297.158 293.263 297.057C292.782 296.955 292.377 296.81 292.047 296.62C291.718 296.417 291.553 296.183 291.553 295.917C291.553 295.752 291.61 295.556 291.724 295.328C291.838 295.1 291.971 294.897 292.123 294.72C292.288 294.542 292.434 294.454 292.56 294.454C292.662 294.454 292.795 294.498 292.959 294.587C293.137 294.675 293.352 294.764 293.605 294.853C293.859 294.941 294.15 294.986 294.479 294.986C295.252 294.986 295.638 294.72 295.638 294.188C295.638 293.896 295.493 293.675 295.201 293.523C294.91 293.371 294.543 293.2 294.099 293.01C293.795 292.87 293.46 292.699 293.092 292.497C292.738 292.294 292.427 292.003 292.161 291.623C291.908 291.243 291.781 290.73 291.781 290.084C291.781 289.425 291.921 288.868 292.199 288.412C292.491 287.943 292.896 287.588 293.415 287.348C293.935 287.094 294.543 286.968 295.239 286.968C295.607 286.968 296.012 287.006 296.455 287.082C296.899 287.145 297.279 287.259 297.595 287.424C297.925 287.588 298.089 287.804 298.089 288.07C298.089 288.209 298.045 288.399 297.956 288.64C297.868 288.88 297.76 289.096 297.633 289.286C297.519 289.476 297.399 289.571 297.272 289.571C297.171 289.571 296.981 289.507 296.702 289.381C296.424 289.241 296.05 289.172 295.581 289.172C295.265 289.172 295.018 289.229 294.84 289.343C294.663 289.444 294.574 289.621 294.574 289.875C294.574 290.191 294.72 290.426 295.011 290.578C295.303 290.717 295.683 290.875 296.151 291.053C296.468 291.167 296.797 291.325 297.139 291.528C297.494 291.73 297.798 292.028 298.051 292.421C298.305 292.801 298.431 293.314 298.431 293.96C298.431 294.606 298.286 295.176 297.994 295.67C297.703 296.151 297.279 296.531 296.721 296.81C296.177 297.076 295.505 297.209 294.707 297.209Z" fill="#3C3C3C"/>
<path d="M313.805 31.3704C312.842 31.3704 312.021 31.1083 311.344 30.5842C310.666 30.0558 310.148 29.2908 309.79 28.2894C309.433 27.2837 309.254 26.0692 309.254 24.646C309.254 23.2312 309.433 22.0231 309.79 21.0217C310.153 20.016 310.673 19.2489 311.35 18.7205C312.032 18.1879 312.85 17.9215 313.805 17.9215C314.759 17.9215 315.575 18.1879 316.253 18.7205C316.935 19.2489 317.455 20.016 317.812 21.0217C318.175 22.0231 318.356 23.2312 318.356 24.646C318.356 26.0692 318.177 27.2837 317.819 28.2894C317.461 29.2908 316.943 30.0558 316.266 30.5842C315.588 31.1083 314.768 31.3704 313.805 31.3704ZM313.805 29.9641C314.759 29.9641 315.501 29.5039 316.029 28.5835C316.558 27.663 316.822 26.3505 316.822 24.646C316.822 23.5124 316.7 22.5472 316.457 21.7504C316.219 20.9535 315.874 20.3462 315.422 19.9286C314.974 19.511 314.435 19.3022 313.805 19.3022C312.859 19.3022 312.119 19.7688 311.587 20.7021C311.054 21.631 310.788 22.9457 310.788 24.646C310.788 25.7795 310.907 26.7425 311.146 27.5352C311.384 28.3278 311.727 28.9308 312.175 29.3441C312.626 29.7575 313.17 29.9641 313.805 29.9641ZM325.387 18.1005V31.1914H323.802V19.7624H323.725L320.529 21.8846V20.2738L323.802 18.1005H325.387Z" fill="#5B6770"/>
<path d="M517.176 256.761C516.213 256.761 515.392 256.499 514.715 255.975C514.037 255.446 513.52 254.681 513.162 253.68C512.804 252.674 512.625 251.46 512.625 250.037C512.625 248.622 512.804 247.414 513.162 246.412C513.524 245.407 514.044 244.64 514.721 244.111C515.403 243.578 516.221 243.312 517.176 243.312C518.13 243.312 518.946 243.578 519.624 244.111C520.306 244.64 520.826 245.407 521.184 246.412C521.546 247.414 521.727 248.622 521.727 250.037C521.727 251.46 521.548 252.674 521.19 253.68C520.832 254.681 520.314 255.446 519.637 255.975C518.959 256.499 518.139 256.761 517.176 256.761ZM517.176 255.355C518.13 255.355 518.872 254.895 519.4 253.974C519.929 253.054 520.193 251.741 520.193 250.037C520.193 248.903 520.071 247.938 519.828 247.141C519.59 246.344 519.245 245.737 518.793 245.319C518.346 244.902 517.806 244.693 517.176 244.693C516.23 244.693 515.49 245.159 514.958 246.093C514.425 247.022 514.159 248.336 514.159 250.037C514.159 251.17 514.278 252.133 514.517 252.926C514.755 253.718 515.098 254.321 515.546 254.735C515.998 255.148 516.541 255.355 517.176 255.355ZM524.156 256.582V255.431L528.477 250.701C528.984 250.147 529.402 249.666 529.73 249.257C530.058 248.843 530.301 248.456 530.458 248.093C530.62 247.727 530.701 247.343 530.701 246.943C530.701 246.483 530.591 246.084 530.369 245.748C530.152 245.411 529.853 245.151 529.474 244.968C529.095 244.784 528.669 244.693 528.196 244.693C527.693 244.693 527.254 244.797 526.879 245.006C526.508 245.211 526.221 245.498 526.016 245.869C525.816 246.24 525.716 246.674 525.716 247.173H524.207C524.207 246.406 524.384 245.733 524.738 245.153C525.091 244.574 525.573 244.122 526.182 243.798C526.796 243.474 527.484 243.312 528.247 243.312C529.014 243.312 529.694 243.474 530.286 243.798C530.878 244.122 531.343 244.559 531.679 245.108C532.016 245.658 532.184 246.27 532.184 246.943C532.184 247.424 532.097 247.895 531.922 248.355C531.752 248.811 531.453 249.321 531.027 249.883C530.605 250.441 530.02 251.123 529.27 251.929L526.329 255.074V255.176H532.414V256.582H524.156Z" fill="#5B6770"/>
<path d="M363.422 519.628C362.459 519.628 361.639 519.366 360.961 518.842C360.284 518.314 359.766 517.549 359.408 516.547C359.05 515.542 358.871 514.327 358.871 512.904C358.871 511.489 359.05 510.281 359.408 509.279C359.77 508.274 360.29 507.507 360.967 506.978C361.649 506.446 362.467 506.179 363.422 506.179C364.377 506.179 365.193 506.446 365.87 506.978C366.552 507.507 367.072 508.274 367.43 509.279C367.792 510.281 367.973 511.489 367.973 512.904C367.973 514.327 367.794 515.542 367.436 516.547C367.078 517.549 366.56 518.314 365.883 518.842C365.205 519.366 364.385 519.628 363.422 519.628ZM363.422 518.222C364.377 518.222 365.118 517.762 365.646 516.841C366.175 515.921 366.439 514.608 366.439 512.904C366.439 511.77 366.318 510.805 366.075 510.008C365.836 509.211 365.491 508.604 365.039 508.186C364.592 507.769 364.053 507.56 363.422 507.56C362.476 507.56 361.737 508.027 361.204 508.96C360.671 509.889 360.405 511.203 360.405 512.904C360.405 514.037 360.524 515 360.763 515.793C361.002 516.586 361.345 517.189 361.792 517.602C362.244 518.015 362.787 518.222 363.422 518.222ZM374.825 519.628C373.982 519.628 373.23 519.483 372.569 519.194C371.913 518.904 371.391 518.501 371.003 517.985C370.619 517.466 370.411 516.863 370.377 516.176H371.987C372.021 516.598 372.166 516.963 372.422 517.27C372.678 517.572 373.012 517.806 373.426 517.973C373.839 518.139 374.297 518.222 374.8 518.222C375.362 518.222 375.861 518.124 376.296 517.928C376.73 517.732 377.071 517.459 377.318 517.11C377.565 516.76 377.689 516.355 377.689 515.895C377.689 515.414 377.57 514.99 377.331 514.623C377.092 514.252 376.743 513.963 376.283 513.754C375.823 513.545 375.26 513.441 374.595 513.441H373.547V512.034H374.595C375.115 512.034 375.571 511.941 375.963 511.753C376.359 511.566 376.668 511.301 376.89 510.961C377.116 510.62 377.229 510.219 377.229 509.759C377.229 509.316 377.131 508.93 376.935 508.602C376.739 508.274 376.462 508.018 376.104 507.835C375.75 507.652 375.333 507.56 374.851 507.56C374.399 507.56 373.973 507.643 373.573 507.809C373.176 507.971 372.852 508.208 372.601 508.519C372.35 508.826 372.213 509.196 372.192 509.631H370.658C370.683 508.945 370.89 508.344 371.278 507.828C371.666 507.309 372.173 506.904 372.799 506.614C373.43 506.324 374.122 506.179 374.877 506.179C375.686 506.179 376.381 506.343 376.96 506.672C377.54 506.995 377.985 507.424 378.296 507.956C378.607 508.489 378.763 509.064 378.763 509.682C378.763 510.419 378.569 511.048 378.181 511.568C377.798 512.088 377.276 512.448 376.615 512.648V512.75C377.442 512.887 378.087 513.238 378.552 513.805C379.016 514.368 379.249 515.064 379.249 515.895C379.249 516.607 379.055 517.246 378.667 517.813C378.284 518.375 377.759 518.819 377.095 519.142C376.43 519.466 375.673 519.628 374.825 519.628Z" fill="#5B6770"/>
<path d="M62.3809 454.554C61.4178 454.554 60.5975 454.292 59.9199 453.768C59.2424 453.239 58.7246 452.474 58.3667 451.473C58.0087 450.467 57.8297 449.253 57.8297 447.83C57.8297 446.415 58.0087 445.207 58.3667 444.205C58.7289 443.2 59.2488 442.433 59.9263 441.904C60.6081 441.371 61.4263 441.105 62.3809 441.105C63.3354 441.105 64.1515 441.371 64.829 441.904C65.5108 442.433 66.0307 443.2 66.3887 444.205C66.7509 445.207 66.932 446.415 66.932 447.83C66.932 449.253 66.753 450.467 66.3951 451.473C66.0371 452.474 65.5194 453.239 64.8418 453.768C64.1642 454.292 63.3439 454.554 62.3809 454.554ZM62.3809 453.148C63.3354 453.148 64.0769 452.687 64.6053 451.767C65.1337 450.847 65.3979 449.534 65.3979 447.83C65.3979 446.696 65.2765 445.731 65.0336 444.934C64.7949 444.137 64.4498 443.53 63.998 443.112C63.5506 442.695 63.0115 442.486 62.3809 442.486C61.4348 442.486 60.6955 442.952 60.1628 443.886C59.6301 444.815 59.3638 446.129 59.3638 447.83C59.3638 448.963 59.4831 449.926 59.7218 450.719C59.9604 451.511 60.3034 452.114 60.7509 452.528C61.2026 452.941 61.7459 453.148 62.3809 453.148ZM69.0542 451.69V450.386L74.807 441.284H75.753V443.304H75.1138L70.7672 450.182V450.284H78.5144V451.69H69.0542ZM75.2161 454.375V451.294V450.687V441.284H76.7246V454.375H75.2161Z" fill="#5B6770"/>
<path d="M34.9102 152.185C33.9471 152.185 33.1268 151.923 32.4492 151.399C31.7717 150.87 31.2539 150.105 30.896 149.104C30.538 148.098 30.359 146.884 30.359 145.46C30.359 144.046 30.538 142.838 30.896 141.836C31.2582 140.83 31.7781 140.063 32.4556 139.535C33.1374 139.002 33.9556 138.736 34.9102 138.736C35.8647 138.736 36.6808 139.002 37.3583 139.535C38.0401 140.063 38.56 140.83 38.918 141.836C39.2802 142.838 39.4613 144.046 39.4613 145.46C39.4613 146.884 39.2823 148.098 38.9244 149.104C38.5664 150.105 38.0487 150.87 37.3711 151.399C36.6935 151.923 35.8732 152.185 34.9102 152.185ZM34.9102 150.779C35.8647 150.779 36.6062 150.318 37.1346 149.398C37.663 148.477 37.9272 147.165 37.9272 145.46C37.9272 144.327 37.8058 143.362 37.5629 142.565C37.3242 141.768 36.979 141.161 36.5273 140.743C36.0799 140.325 35.5408 140.117 34.9102 140.117C33.9641 140.117 33.2248 140.583 32.6921 141.517C32.1594 142.445 31.8931 143.76 31.8931 145.46C31.8931 146.594 32.0124 147.557 32.2511 148.35C32.4897 149.142 32.8327 149.745 33.2802 150.159C33.7319 150.572 34.2752 150.779 34.9102 150.779ZM45.9812 152.185C45.2312 152.185 44.5558 152.036 43.9549 151.737C43.354 151.439 42.8725 151.03 42.5103 150.51C42.1481 149.99 41.9499 149.398 41.9158 148.733H43.4499C43.5096 149.325 43.7781 149.816 44.2553 150.203C44.7369 150.587 45.3121 150.779 45.9812 150.779C46.5181 150.779 46.9954 150.653 47.413 150.401C47.8349 150.15 48.1651 149.805 48.4038 149.366C48.6467 148.923 48.7681 148.422 48.7681 147.864C48.7681 147.293 48.6424 146.784 48.391 146.336C48.1438 145.884 47.8029 145.529 47.3683 145.269C46.9336 145.009 46.4371 144.877 45.8789 144.872C45.4783 144.868 45.0671 144.93 44.6452 145.058C44.2234 145.181 43.8761 145.341 43.6033 145.537L42.1204 145.358L42.913 138.915H49.7141V140.321H44.2425L43.7823 144.182H43.859C44.1275 143.969 44.4641 143.792 44.869 143.651C45.2738 143.511 45.6957 143.441 46.1346 143.441C46.9357 143.441 47.6495 143.632 48.2759 144.016C48.9066 144.395 49.4009 144.915 49.7589 145.575C50.1211 146.236 50.3022 146.99 50.3022 147.838C50.3022 148.673 50.1147 149.419 49.7397 150.075C49.369 150.727 48.8576 151.243 48.2056 151.622C47.5536 151.997 46.8121 152.185 45.9812 152.185Z" fill="#5B6770"/>
<path d="M417.897 228.69C417.137 228.69 416.757 228.488 416.757 228.082V216.112C416.757 215.606 417.01 215.352 417.517 215.352H421.507C421.925 215.352 422.394 215.403 422.913 215.504C423.432 215.593 423.926 215.777 424.395 216.055C424.876 216.334 425.269 216.752 425.573 217.309C425.877 217.867 426.029 218.601 426.029 219.513C426.029 220.248 425.915 220.862 425.687 221.356C425.459 221.85 425.161 222.256 424.794 222.572C424.439 222.876 424.059 223.111 423.654 223.275C423.261 223.427 422.888 223.535 422.533 223.598C422.178 223.649 421.9 223.674 421.697 223.674H419.683V228.082C419.683 228.488 419.303 228.69 418.543 228.69H417.897ZM419.683 221.166H421.374C421.551 221.166 421.735 221.147 421.925 221.109C422.128 221.059 422.311 220.976 422.476 220.862C422.641 220.736 422.774 220.565 422.875 220.349C422.976 220.134 423.027 219.855 423.027 219.513C423.027 219.057 422.938 218.709 422.761 218.468C422.584 218.228 422.368 218.063 422.115 217.974C421.862 217.886 421.615 217.841 421.374 217.841H419.683V221.166ZM430.253 228.804C429.809 228.804 429.41 228.747 429.056 228.633C428.714 228.507 428.422 228.317 428.182 228.063C427.954 227.81 427.776 227.493 427.65 227.113C427.536 226.721 427.479 226.258 427.479 225.726V214.934C427.479 214.529 427.859 214.326 428.619 214.326H429.151C429.911 214.326 430.291 214.529 430.291 214.934V225.764C430.291 226.043 430.341 226.252 430.443 226.391C430.557 226.518 430.734 226.581 430.975 226.581C431.063 226.581 431.158 226.569 431.26 226.543C431.361 226.518 431.437 226.505 431.488 226.505C431.614 226.505 431.722 226.613 431.811 226.828C431.899 227.031 431.963 227.246 432.001 227.474C432.051 227.69 432.077 227.823 432.077 227.873C432.077 228.165 431.963 228.38 431.735 228.519C431.519 228.646 431.266 228.722 430.975 228.747C430.696 228.785 430.455 228.804 430.253 228.804ZM435.532 228.804C434.506 228.804 433.778 228.538 433.347 228.006C432.929 227.462 432.72 226.803 432.72 226.03C432.72 225.638 432.777 225.239 432.891 224.833C433.018 224.415 433.265 224.029 433.632 223.674C434 223.32 434.544 223.035 435.266 222.819C436.001 222.604 436.97 222.496 438.173 222.496V221.869C438.173 221.502 438.053 221.23 437.812 221.052C437.584 220.875 437.211 220.786 436.691 220.786C436.235 220.786 435.836 220.837 435.494 220.938C435.165 221.04 434.893 221.141 434.677 221.242C434.475 221.344 434.335 221.394 434.259 221.394C434.133 221.394 433.987 221.299 433.822 221.109C433.67 220.907 433.537 220.685 433.423 220.444C433.322 220.191 433.271 220.001 433.271 219.874C433.271 219.659 433.423 219.45 433.727 219.247C434.044 219.045 434.475 218.88 435.019 218.753C435.577 218.627 436.204 218.563 436.9 218.563C437.901 218.563 438.699 218.703 439.294 218.981C439.89 219.247 440.32 219.621 440.586 220.102C440.852 220.571 440.985 221.116 440.985 221.736V225.308C440.985 225.967 441.004 226.474 441.042 226.828C441.08 227.17 441.118 227.43 441.156 227.607C441.194 227.772 441.213 227.924 441.213 228.063C441.213 228.177 441.125 228.272 440.947 228.348C440.783 228.424 440.574 228.488 440.32 228.538C440.08 228.589 439.839 228.627 439.598 228.652C439.37 228.665 439.199 228.671 439.085 228.671C438.883 228.671 438.731 228.602 438.629 228.462C438.541 228.31 438.477 228.133 438.439 227.93C438.401 227.715 438.363 227.525 438.325 227.36C438.287 227.436 438.154 227.595 437.926 227.835C437.711 228.063 437.401 228.285 436.995 228.5C436.603 228.703 436.115 228.804 435.532 228.804ZM436.463 226.581C436.831 226.581 437.166 226.467 437.47 226.239C437.787 226.011 438.021 225.726 438.173 225.384V224.339C437.717 224.339 437.325 224.371 436.995 224.434C436.666 224.498 436.387 224.586 436.159 224.7C435.944 224.814 435.779 224.96 435.665 225.137C435.564 225.315 435.513 225.517 435.513 225.745C435.513 225.986 435.589 226.189 435.741 226.353C435.906 226.505 436.147 226.581 436.463 226.581ZM444.594 228.69C443.834 228.69 443.454 228.488 443.454 228.082V222.059C443.454 221.426 443.435 220.938 443.397 220.596C443.359 220.254 443.321 220.001 443.283 219.836C443.245 219.659 443.226 219.507 443.226 219.38C443.226 219.266 443.308 219.171 443.473 219.095C443.65 219.019 443.859 218.956 444.1 218.905C444.353 218.855 444.594 218.823 444.822 218.81C445.063 218.785 445.24 218.772 445.354 218.772C445.557 218.772 445.702 218.842 445.791 218.981C445.892 219.121 445.962 219.285 446 219.475C446.038 219.665 446.076 219.843 446.114 220.007C446.393 219.64 446.779 219.311 447.273 219.019C447.767 218.715 448.324 218.563 448.945 218.563C449.895 218.563 450.598 218.817 451.054 219.323C451.51 219.817 451.738 220.59 451.738 221.641V228.082C451.738 228.488 451.358 228.69 450.598 228.69H450.066C449.306 228.69 448.926 228.488 448.926 228.082V222.059C448.926 221.692 448.837 221.407 448.66 221.204C448.495 220.989 448.204 220.881 447.786 220.881C447.393 220.881 447.07 221.014 446.817 221.28C446.564 221.534 446.38 221.768 446.266 221.983V228.082C446.266 228.488 445.886 228.69 445.126 228.69H444.594Z" fill="white"/>
<path d="M136.144 425.214C135.384 425.214 135.004 425.011 135.004 424.606V412.636C135.004 412.129 135.257 411.876 135.764 411.876H139.469C141.116 411.876 142.313 412.186 143.06 412.807C143.82 413.427 144.2 414.308 144.2 415.448C144.2 416.182 143.991 416.809 143.573 417.329C143.168 417.835 142.636 418.215 141.977 418.469V418.545C142.218 418.633 142.465 418.849 142.718 419.191C142.971 419.52 143.18 419.887 143.345 420.293L145.017 424.473C145.08 424.637 145.112 424.758 145.112 424.834C145.112 425.087 144.732 425.214 143.972 425.214H143.193C142.914 425.214 142.674 425.188 142.471 425.138C142.281 425.074 142.154 424.967 142.091 424.815L140.59 421.11C140.4 420.73 140.185 420.445 139.944 420.255C139.716 420.065 139.292 419.97 138.671 419.97H137.93V424.606C137.93 425.011 137.55 425.214 136.79 425.214H136.144ZM137.93 417.443H139.735C140.001 417.443 140.242 417.373 140.457 417.234C140.685 417.082 140.862 416.885 140.989 416.645C141.128 416.391 141.198 416.113 141.198 415.809C141.198 415.365 141.052 415.017 140.761 414.764C140.482 414.498 140.096 414.365 139.602 414.365H137.93V417.443ZM151.047 425.328C149.324 425.328 148.064 424.872 147.266 423.96C146.48 423.035 146.088 421.806 146.088 420.274C146.088 419.02 146.284 418.013 146.677 417.253C147.069 416.493 147.614 415.942 148.311 415.6C149.007 415.258 149.805 415.087 150.705 415.087C151.705 415.087 152.503 415.315 153.099 415.771C153.694 416.214 154.125 416.809 154.391 417.557C154.669 418.291 154.809 419.102 154.809 419.989C154.809 420.09 154.745 420.236 154.619 420.426C154.492 420.603 154.353 420.761 154.201 420.901C154.049 421.04 153.928 421.11 153.84 421.11H148.995C149.058 421.87 149.28 422.395 149.66 422.687C150.052 422.965 150.559 423.105 151.18 423.105C151.585 423.105 151.94 423.054 152.244 422.953C152.56 422.851 152.82 422.756 153.023 422.668C153.238 422.566 153.39 422.516 153.479 422.516C153.618 422.516 153.764 422.611 153.916 422.801C154.068 422.991 154.194 423.2 154.296 423.428C154.41 423.656 154.467 423.833 154.467 423.96C154.467 424.2 154.34 424.409 154.087 424.587C153.846 424.751 153.536 424.891 153.156 425.005C152.788 425.119 152.408 425.201 152.016 425.252C151.636 425.302 151.313 425.328 151.047 425.328ZM148.995 419.229H152.073C152.073 418.671 151.965 418.215 151.75 417.861C151.534 417.493 151.186 417.31 150.705 417.31C150.312 417.31 149.957 417.449 149.641 417.728C149.324 417.994 149.109 418.494 148.995 419.229ZM159.659 425.214C159.381 425.214 159.146 425.188 158.956 425.138C158.779 425.074 158.659 424.967 158.595 424.815L155.574 415.961C155.562 415.897 155.543 415.84 155.517 415.79C155.505 415.726 155.498 415.669 155.498 415.619C155.498 415.34 155.885 415.201 156.657 415.201H157.284C157.563 415.201 157.797 415.232 157.987 415.296C158.177 415.346 158.298 415.448 158.348 415.6L159.298 418.602C159.476 419.146 159.621 419.685 159.735 420.217C159.862 420.736 159.951 421.198 160.001 421.604H160.077C160.128 421.211 160.21 420.761 160.324 420.255C160.438 419.735 160.59 419.184 160.78 418.602L161.73 415.6C161.781 415.448 161.901 415.346 162.091 415.296C162.281 415.232 162.516 415.201 162.794 415.201H163.269C164.029 415.201 164.409 415.34 164.409 415.619C164.409 415.707 164.39 415.821 164.352 415.961L161.331 424.815C161.281 424.967 161.16 425.074 160.97 425.138C160.78 425.188 160.546 425.214 160.267 425.214H159.659ZM166.829 425.214C166.069 425.214 165.689 425.011 165.689 424.606V415.809C165.689 415.403 166.069 415.201 166.829 415.201H167.361C168.121 415.201 168.501 415.403 168.501 415.809V424.606C168.501 425.011 168.121 425.214 167.361 425.214H166.829ZM167.095 414.27C166.601 414.27 166.24 414.219 166.012 414.118C165.797 414.016 165.689 413.864 165.689 413.662V412.18C165.689 411.977 165.797 411.825 166.012 411.724C166.24 411.622 166.601 411.572 167.095 411.572C167.589 411.572 167.944 411.622 168.159 411.724C168.387 411.825 168.501 411.977 168.501 412.18V413.662C168.501 413.864 168.387 414.016 168.159 414.118C167.944 414.219 167.589 414.27 167.095 414.27ZM175.353 425.328C173.631 425.328 172.37 424.872 171.572 423.96C170.787 423.035 170.394 421.806 170.394 420.274C170.394 419.02 170.591 418.013 170.983 417.253C171.376 416.493 171.921 415.942 172.617 415.6C173.314 415.258 174.112 415.087 175.011 415.087C176.012 415.087 176.81 415.315 177.405 415.771C178.001 416.214 178.431 416.809 178.697 417.557C178.976 418.291 179.115 419.102 179.115 419.989C179.115 420.09 179.052 420.236 178.925 420.426C178.799 420.603 178.659 420.761 178.507 420.901C178.355 421.04 178.235 421.11 178.146 421.11H173.301C173.365 421.87 173.586 422.395 173.966 422.687C174.359 422.965 174.866 423.105 175.486 423.105C175.892 423.105 176.246 423.054 176.55 422.953C176.867 422.851 177.127 422.756 177.329 422.668C177.545 422.566 177.697 422.516 177.785 422.516C177.925 422.516 178.07 422.611 178.222 422.801C178.374 422.991 178.501 423.2 178.602 423.428C178.716 423.656 178.773 423.833 178.773 423.96C178.773 424.2 178.647 424.409 178.393 424.587C178.153 424.751 177.842 424.891 177.462 425.005C177.095 425.119 176.715 425.201 176.322 425.252C175.942 425.302 175.619 425.328 175.353 425.328ZM173.301 419.229H176.379C176.379 418.671 176.272 418.215 176.056 417.861C175.841 417.493 175.493 417.31 175.011 417.31C174.619 417.31 174.264 417.449 173.947 417.728C173.631 417.994 173.415 418.494 173.301 419.229ZM183.472 425.214C183.155 425.214 182.908 425.182 182.731 425.119C182.566 425.043 182.465 424.941 182.427 424.815L180.033 415.98C180.02 415.916 180.007 415.866 179.995 415.828C179.995 415.777 179.995 415.733 179.995 415.695C179.995 415.543 180.09 415.422 180.28 415.334C180.47 415.245 180.767 415.201 181.173 415.201C181.692 415.201 182.059 415.232 182.275 415.296C182.503 415.359 182.636 415.46 182.674 415.6L183.795 420.274C183.883 420.603 183.947 420.901 183.985 421.167C184.035 421.433 184.067 421.661 184.08 421.851H184.156C184.168 421.762 184.2 421.578 184.251 421.3C184.301 421.021 184.384 420.66 184.498 420.217L185.619 415.6C185.657 415.46 185.764 415.359 185.942 415.296C186.119 415.232 186.36 415.201 186.664 415.201H187.12C187.386 415.201 187.62 415.232 187.823 415.296C188.025 415.359 188.139 415.46 188.165 415.6L189.305 420.312C189.406 420.704 189.476 421.04 189.514 421.319C189.564 421.585 189.596 421.787 189.609 421.927H189.647C189.685 421.673 189.729 421.407 189.78 421.129C189.83 420.837 189.894 420.546 189.97 420.255L191.11 415.6C191.135 415.46 191.243 415.359 191.433 415.296C191.623 415.232 191.889 415.201 192.231 415.201C193.016 415.201 193.409 415.365 193.409 415.695C193.409 415.733 193.409 415.777 193.409 415.828C193.409 415.866 193.396 415.916 193.371 415.98L191.129 424.815C191.103 424.941 190.989 425.043 190.787 425.119C190.584 425.182 190.35 425.214 190.084 425.214H189.153C188.849 425.214 188.608 425.182 188.431 425.119C188.253 425.043 188.146 424.941 188.108 424.815L187.044 420.635C186.968 420.331 186.911 420.046 186.873 419.78C186.835 419.514 186.803 419.267 186.778 419.039H186.702C186.689 419.241 186.664 419.482 186.626 419.761C186.588 420.027 186.531 420.324 186.455 420.654L185.448 424.815C185.422 424.941 185.308 425.043 185.106 425.119C184.903 425.182 184.669 425.214 184.403 425.214H183.472Z" fill="white"/>
<path d="M344.289 425.176C343.782 425.176 343.529 424.922 343.529 424.416V412.636C343.529 412.129 343.782 411.876 344.289 411.876H350.958C351.338 411.876 351.528 412.192 351.528 412.826V413.415C351.528 414.048 351.338 414.365 350.958 414.365H346.455V417.12H350.445C350.825 417.12 351.015 417.436 351.015 418.07V418.659C351.015 419.292 350.825 419.609 350.445 419.609H346.455V422.687H350.977C351.357 422.687 351.547 423.003 351.547 423.637V424.226C351.547 424.859 351.357 425.176 350.977 425.176H344.289ZM353.73 425.214C353.324 425.214 353.02 425.182 352.818 425.119C352.628 425.055 352.533 424.973 352.533 424.872C352.533 424.77 352.602 424.612 352.742 424.397L355.611 420.141L352.913 416.037C352.773 415.821 352.704 415.657 352.704 415.543C352.704 415.441 352.799 415.359 352.989 415.296C353.191 415.232 353.495 415.201 353.901 415.201H354.509C354.787 415.201 355.022 415.22 355.212 415.258C355.414 415.283 355.566 415.384 355.668 415.562L356.827 417.443C356.877 417.519 356.922 417.595 356.96 417.671C357.01 417.747 357.061 417.823 357.112 417.899C357.175 417.81 357.232 417.728 357.283 417.652C357.333 417.576 357.384 417.493 357.435 417.405L358.613 415.562C358.714 415.384 358.86 415.283 359.05 415.258C359.252 415.22 359.493 415.201 359.772 415.201H360.323C361.121 415.201 361.52 415.315 361.52 415.543C361.52 415.644 361.45 415.802 361.311 416.018L358.537 420.122L361.349 424.378C361.488 424.593 361.558 424.758 361.558 424.872C361.558 424.973 361.456 425.055 361.254 425.119C361.064 425.182 360.766 425.214 360.361 425.214H359.753C359.474 425.214 359.233 425.195 359.031 425.157C358.841 425.119 358.695 425.017 358.594 424.853L357.283 422.763C357.245 422.699 357.2 422.636 357.15 422.573C357.112 422.497 357.074 422.427 357.036 422.364C356.998 422.427 356.953 422.497 356.903 422.573C356.865 422.636 356.827 422.699 356.789 422.763L355.459 424.853C355.357 425.017 355.205 425.119 355.003 425.157C354.813 425.195 354.578 425.214 354.3 425.214H353.73ZM367.231 425.328C365.508 425.328 364.248 424.872 363.45 423.96C362.665 423.035 362.272 421.806 362.272 420.274C362.272 419.02 362.468 418.013 362.861 417.253C363.254 416.493 363.798 415.942 364.495 415.6C365.192 415.258 365.99 415.087 366.889 415.087C367.89 415.087 368.688 415.315 369.283 415.771C369.878 416.214 370.309 416.809 370.575 417.557C370.854 418.291 370.993 419.102 370.993 419.989C370.993 420.09 370.93 420.236 370.803 420.426C370.676 420.603 370.537 420.761 370.385 420.901C370.233 421.04 370.113 421.11 370.024 421.11H365.179C365.242 421.87 365.464 422.395 365.844 422.687C366.237 422.965 366.743 423.105 367.364 423.105C367.769 423.105 368.124 423.054 368.428 422.953C368.745 422.851 369.004 422.756 369.207 422.668C369.422 422.566 369.574 422.516 369.663 422.516C369.802 422.516 369.948 422.611 370.1 422.801C370.252 422.991 370.379 423.2 370.48 423.428C370.594 423.656 370.651 423.833 370.651 423.96C370.651 424.2 370.524 424.409 370.271 424.587C370.03 424.751 369.72 424.891 369.34 425.005C368.973 425.119 368.593 425.201 368.2 425.252C367.82 425.302 367.497 425.328 367.231 425.328ZM365.179 419.229H368.257C368.257 418.671 368.149 418.215 367.934 417.861C367.719 417.493 367.37 417.31 366.889 417.31C366.496 417.31 366.142 417.449 365.825 417.728C365.508 417.994 365.293 418.494 365.179 419.229ZM377.116 425.328C375.495 425.328 374.292 424.91 373.506 424.074C372.721 423.238 372.328 421.971 372.328 420.274C372.328 419.425 372.423 418.678 372.613 418.032C372.803 417.386 373.095 416.847 373.487 416.417C373.893 415.973 374.399 415.644 375.007 415.429C375.628 415.201 376.363 415.087 377.211 415.087C377.667 415.087 378.136 415.137 378.617 415.239C379.111 415.327 379.523 415.473 379.852 415.676C380.194 415.866 380.365 416.106 380.365 416.398C380.365 416.512 380.302 416.689 380.175 416.93C380.061 417.158 379.922 417.373 379.757 417.576C379.605 417.766 379.472 417.861 379.358 417.861C379.32 417.861 379.27 417.848 379.206 417.823C379.156 417.797 379.092 417.766 379.016 417.728C378.852 417.639 378.636 417.55 378.37 417.462C378.104 417.36 377.769 417.31 377.363 417.31C376.603 417.31 376.052 417.55 375.71 418.032C375.381 418.5 375.216 419.222 375.216 420.198C375.216 421.173 375.375 421.901 375.691 422.383C376.008 422.864 376.527 423.105 377.249 423.105C377.693 423.105 378.066 423.054 378.37 422.953C378.674 422.839 378.921 422.744 379.111 422.668C379.187 422.642 379.251 422.617 379.301 422.592C379.365 422.566 379.415 422.554 379.453 422.554C379.593 422.554 379.738 422.649 379.89 422.839C380.042 423.029 380.169 423.238 380.27 423.466C380.384 423.694 380.441 423.871 380.441 423.998C380.441 424.264 380.302 424.485 380.023 424.663C379.745 424.827 379.409 424.96 379.016 425.062C378.624 425.163 378.244 425.233 377.876 425.271C377.522 425.309 377.268 425.328 377.116 425.328ZM384.666 425.328C383.716 425.328 383.013 425.081 382.557 424.587C382.101 424.08 381.873 423.301 381.873 422.25V415.809C381.873 415.403 382.253 415.201 383.013 415.201H383.545C384.305 415.201 384.685 415.403 384.685 415.809V421.832C384.685 422.199 384.767 422.49 384.932 422.706C385.109 422.908 385.407 423.01 385.825 423.01C386.218 423.01 386.541 422.883 386.794 422.63C387.047 422.364 387.231 422.123 387.345 421.908V415.809C387.345 415.403 387.725 415.201 388.485 415.201H389.017C389.777 415.201 390.157 415.403 390.157 415.809V421.832C390.157 422.49 390.176 422.997 390.214 423.352C390.252 423.694 390.29 423.953 390.328 424.131C390.366 424.295 390.385 424.447 390.385 424.587C390.385 424.701 390.296 424.796 390.119 424.872C389.954 424.948 389.745 425.011 389.492 425.062C389.251 425.112 389.011 425.15 388.77 425.176C388.542 425.188 388.371 425.195 388.257 425.195C388.054 425.195 387.902 425.125 387.801 424.986C387.712 424.834 387.649 424.656 387.611 424.454C387.573 424.238 387.535 424.048 387.497 423.884C387.218 424.238 386.832 424.568 386.338 424.872C385.844 425.176 385.287 425.328 384.666 425.328ZM395.565 425.328C395.122 425.328 394.723 425.271 394.368 425.157C394.026 425.03 393.735 424.84 393.494 424.587C393.266 424.333 393.089 424.017 392.962 423.637C392.848 423.244 392.791 422.782 392.791 422.25V417.462H392.487C392.107 417.462 391.917 417.145 391.917 416.512V416.189C391.917 415.555 392.107 415.239 392.487 415.239H392.791L393.038 413.434C393.102 413.028 393.444 412.826 394.064 412.826H394.653C395.287 412.826 395.603 413.028 395.603 413.434V415.239H396.534C396.914 415.239 397.104 415.555 397.104 416.189V416.512C397.104 417.145 396.914 417.462 396.534 417.462H395.603V422.288C395.603 422.566 395.654 422.775 395.755 422.915C395.869 423.041 396.047 423.105 396.287 423.105C396.376 423.105 396.471 423.092 396.572 423.067C396.674 423.041 396.75 423.029 396.8 423.029C396.927 423.029 397.035 423.136 397.123 423.352C397.212 423.554 397.275 423.77 397.313 423.998C397.364 424.213 397.389 424.346 397.389 424.397C397.389 424.688 397.275 424.903 397.047 425.043C396.832 425.169 396.579 425.245 396.287 425.271C396.009 425.309 395.768 425.328 395.565 425.328ZM403.579 425.328C401.857 425.328 400.596 424.872 399.798 423.96C399.013 423.035 398.62 421.806 398.62 420.274C398.62 419.02 398.817 418.013 399.209 417.253C399.602 416.493 400.147 415.942 400.843 415.6C401.54 415.258 402.338 415.087 403.237 415.087C404.238 415.087 405.036 415.315 405.631 415.771C406.227 416.214 406.657 416.809 406.923 417.557C407.202 418.291 407.341 419.102 407.341 419.989C407.341 420.09 407.278 420.236 407.151 420.426C407.025 420.603 406.885 420.761 406.733 420.901C406.581 421.04 406.461 421.11 406.372 421.11H401.527C401.591 421.87 401.812 422.395 402.192 422.687C402.585 422.965 403.092 423.105 403.712 423.105C404.118 423.105 404.472 423.054 404.776 422.953C405.093 422.851 405.353 422.756 405.555 422.668C405.771 422.566 405.923 422.516 406.011 422.516C406.151 422.516 406.296 422.611 406.448 422.801C406.6 422.991 406.727 423.2 406.828 423.428C406.942 423.656 406.999 423.833 406.999 423.96C406.999 424.2 406.873 424.409 406.619 424.587C406.379 424.751 406.068 424.891 405.688 425.005C405.321 425.119 404.941 425.201 404.548 425.252C404.168 425.302 403.845 425.328 403.579 425.328ZM401.527 419.229H404.605C404.605 418.671 404.498 418.215 404.282 417.861C404.067 417.493 403.719 417.31 403.237 417.31C402.845 417.31 402.49 417.449 402.173 417.728C401.857 417.994 401.641 418.494 401.527 419.229Z" fill="white"/>
<path d="M63.5939 221.097C62.6313 221.097 61.8206 221.002 61.1619 220.812C60.5033 220.61 60.0029 220.388 59.6609 220.147C59.3063 219.907 59.1289 219.666 59.1289 219.425C59.1289 219.223 59.1986 218.995 59.3379 218.741C59.4773 218.475 59.6419 218.241 59.8319 218.038C60.0219 217.836 60.1803 217.734 60.3069 217.734C60.3703 217.734 60.4399 217.76 60.5159 217.81C60.6046 217.848 60.7123 217.899 60.8389 217.962C61.0923 218.089 61.4026 218.228 61.7699 218.38C62.1499 218.532 62.5933 218.608 63.0999 218.608C63.3786 218.608 63.6509 218.577 63.9169 218.513C64.1956 218.437 64.4236 218.304 64.6009 218.114C64.7909 217.912 64.8859 217.633 64.8859 217.278C64.8859 216.898 64.7403 216.594 64.4489 216.366C64.1576 216.138 63.7839 215.936 63.3279 215.758C62.8846 215.581 62.4286 215.378 61.9599 215.15C61.6306 214.998 61.3139 214.821 61.0099 214.618C60.7059 214.403 60.4273 214.15 60.1739 213.858C59.9333 213.567 59.7433 213.219 59.6039 212.813C59.4646 212.395 59.3949 211.901 59.3949 211.331C59.3949 210.419 59.6166 209.685 60.0599 209.127C60.5033 208.557 61.0669 208.146 61.7509 207.892C62.4476 207.626 63.1633 207.493 63.8979 207.493C64.3539 207.493 64.7719 207.525 65.1519 207.588C65.5319 207.652 65.8676 207.74 66.1589 207.854C66.4629 207.956 66.7099 208.076 66.8999 208.215C67.1786 208.418 67.3179 208.621 67.3179 208.823C67.3179 208.988 67.2609 209.203 67.1469 209.469C67.0456 209.735 66.9126 209.97 66.7479 210.172C66.5833 210.375 66.4249 210.476 66.2729 210.476C66.2096 210.476 66.1209 210.451 66.0069 210.4C65.9056 210.35 65.7663 210.293 65.5889 210.229C65.4243 210.166 65.2216 210.115 64.9809 210.077C64.7529 210.027 64.4806 210.001 64.1639 210.001C63.6699 210.001 63.2963 210.058 63.0429 210.172C62.7896 210.286 62.6186 210.426 62.5299 210.59C62.4413 210.755 62.3969 210.913 62.3969 211.065C62.3969 211.407 62.4919 211.692 62.6819 211.92C62.8719 212.136 63.1189 212.319 63.4229 212.471C63.7269 212.623 64.0626 212.775 64.4299 212.927C64.8226 213.092 65.2216 213.276 65.6269 213.478C66.0323 213.668 66.4059 213.909 66.7479 214.2C67.0899 214.492 67.3623 214.859 67.5649 215.302C67.7803 215.746 67.8879 216.29 67.8879 216.936C67.8879 217.709 67.7613 218.361 67.5079 218.893C67.2673 219.425 66.9379 219.856 66.5199 220.185C66.1019 220.502 65.6396 220.736 65.1329 220.888C64.6263 221.028 64.1133 221.097 63.5939 221.097ZM72.4479 221.097C72.0046 221.097 71.6056 221.04 71.2509 220.926C70.9089 220.8 70.6176 220.61 70.3769 220.356C70.1489 220.103 69.9716 219.786 69.8449 219.406C69.7309 219.014 69.6739 218.551 69.6739 218.019V213.231H69.3699C68.9899 213.231 68.7999 212.915 68.7999 212.281V211.958C68.7999 211.325 68.9899 211.008 69.3699 211.008H69.6739L69.9209 209.203C69.9843 208.798 70.3263 208.595 70.9469 208.595H71.5359C72.1693 208.595 72.4859 208.798 72.4859 209.203V211.008H73.4169C73.7969 211.008 73.9869 211.325 73.9869 211.958V212.281C73.9869 212.915 73.7969 213.231 73.4169 213.231H72.4859V218.057C72.4859 218.336 72.5366 218.545 72.6379 218.684C72.7519 218.811 72.9293 218.874 73.1699 218.874C73.2586 218.874 73.3536 218.862 73.4549 218.836C73.5563 218.811 73.6323 218.798 73.6829 218.798C73.8096 218.798 73.9173 218.906 74.0059 219.121C74.0946 219.324 74.1579 219.539 74.1959 219.767C74.2466 219.983 74.2719 220.116 74.2719 220.166C74.2719 220.458 74.1579 220.673 73.9299 220.812C73.7146 220.939 73.4613 221.015 73.1699 221.04C72.8913 221.078 72.6506 221.097 72.4479 221.097ZM77.0231 220.983C76.2631 220.983 75.8831 220.781 75.8831 220.375V214.352C75.8831 213.719 75.8641 213.231 75.8261 212.889C75.7881 212.547 75.7501 212.294 75.7121 212.129C75.6741 211.952 75.6551 211.8 75.6551 211.673C75.6551 211.559 75.7374 211.464 75.9021 211.388C76.0794 211.312 76.2884 211.249 76.5291 211.198C76.7824 211.148 77.0231 211.116 77.2511 211.103C77.4918 211.078 77.6691 211.065 77.7831 211.065C77.9858 211.065 78.1314 211.135 78.2201 211.274C78.3214 211.414 78.3911 211.578 78.4291 211.768C78.4671 211.958 78.5051 212.136 78.5431 212.3C78.7458 211.933 79.0054 211.604 79.3221 211.312C79.6388 211.008 80.0694 210.856 80.6141 210.856C81.0828 210.856 81.3804 210.951 81.5071 211.141C81.6338 211.331 81.6971 211.578 81.6971 211.882C81.6971 211.996 81.6718 212.186 81.6211 212.452C81.5831 212.706 81.5198 212.94 81.4311 213.155C81.3424 213.371 81.2348 213.478 81.1081 213.478C80.9814 213.478 80.8484 213.453 80.7091 213.402C80.5698 213.352 80.4051 213.326 80.2151 213.326C79.9618 213.326 79.7338 213.383 79.5311 213.497C79.3284 213.599 79.1574 213.725 79.0181 213.877C78.8788 214.017 78.7711 214.15 78.6951 214.276V220.375C78.6951 220.781 78.3151 220.983 77.5551 220.983H77.0231ZM84.902 221.097C83.876 221.097 83.1477 220.831 82.717 220.299C82.299 219.755 82.09 219.096 82.09 218.323C82.09 217.931 82.147 217.532 82.261 217.126C82.3877 216.708 82.6347 216.322 83.002 215.967C83.3693 215.613 83.914 215.328 84.636 215.112C85.3707 214.897 86.3397 214.789 87.543 214.789V214.162C87.543 213.795 87.4227 213.523 87.182 213.345C86.954 213.168 86.5803 213.079 86.061 213.079C85.605 213.079 85.206 213.13 84.864 213.231C84.5347 213.333 84.2623 213.434 84.047 213.535C83.8443 213.637 83.705 213.687 83.629 213.687C83.5023 213.687 83.3567 213.592 83.192 213.402C83.04 213.2 82.907 212.978 82.793 212.737C82.6917 212.484 82.641 212.294 82.641 212.167C82.641 211.952 82.793 211.743 83.097 211.54C83.4137 211.338 83.8443 211.173 84.389 211.046C84.9463 210.92 85.5733 210.856 86.27 210.856C87.2707 210.856 88.0687 210.996 88.664 211.274C89.2593 211.54 89.69 211.914 89.956 212.395C90.222 212.864 90.355 213.409 90.355 214.029V217.601C90.355 218.26 90.374 218.767 90.412 219.121C90.45 219.463 90.488 219.723 90.526 219.9C90.564 220.065 90.583 220.217 90.583 220.356C90.583 220.47 90.4943 220.565 90.317 220.641C90.1523 220.717 89.9433 220.781 89.69 220.831C89.4493 220.882 89.2087 220.92 88.968 220.945C88.74 220.958 88.569 220.964 88.455 220.964C88.2523 220.964 88.1003 220.895 87.999 220.755C87.9103 220.603 87.847 220.426 87.809 220.223C87.771 220.008 87.733 219.818 87.695 219.653C87.657 219.729 87.524 219.888 87.296 220.128C87.0807 220.356 86.7703 220.578 86.365 220.793C85.9723 220.996 85.4847 221.097 84.902 221.097ZM85.833 218.874C86.2003 218.874 86.536 218.76 86.84 218.532C87.1567 218.304 87.391 218.019 87.543 217.677V216.632C87.087 216.632 86.6943 216.664 86.365 216.727C86.0357 216.791 85.757 216.879 85.529 216.993C85.3137 217.107 85.149 217.253 85.035 217.43C84.9337 217.608 84.883 217.81 84.883 218.038C84.883 218.279 84.959 218.482 85.111 218.646C85.2757 218.798 85.5163 218.874 85.833 218.874ZM95.8825 221.097C95.4392 221.097 95.0402 221.04 94.6855 220.926C94.3435 220.8 94.0522 220.61 93.8115 220.356C93.5835 220.103 93.4062 219.786 93.2795 219.406C93.1655 219.014 93.1085 218.551 93.1085 218.019V213.231H92.8045C92.4245 213.231 92.2345 212.915 92.2345 212.281V211.958C92.2345 211.325 92.4245 211.008 92.8045 211.008H93.1085L93.3555 209.203C93.4188 208.798 93.7608 208.595 94.3815 208.595H94.9705C95.6038 208.595 95.9205 208.798 95.9205 209.203V211.008H96.8515C97.2315 211.008 97.4215 211.325 97.4215 211.958V212.281C97.4215 212.915 97.2315 213.231 96.8515 213.231H95.9205V218.057C95.9205 218.336 95.9712 218.545 96.0725 218.684C96.1865 218.811 96.3638 218.874 96.6045 218.874C96.6932 218.874 96.7882 218.862 96.8895 218.836C96.9908 218.811 97.0668 218.798 97.1175 218.798C97.2442 218.798 97.3518 218.906 97.4405 219.121C97.5292 219.324 97.5925 219.539 97.6305 219.767C97.6812 219.983 97.7065 220.116 97.7065 220.166C97.7065 220.458 97.5925 220.673 97.3645 220.812C97.1492 220.939 96.8958 221.015 96.6045 221.04C96.3258 221.078 96.0852 221.097 95.8825 221.097ZM103.897 221.097C102.174 221.097 100.914 220.641 100.116 219.729C99.3303 218.805 98.9377 217.576 98.9377 216.043C98.9377 214.789 99.134 213.782 99.5267 213.022C99.9193 212.262 100.464 211.711 101.161 211.369C101.857 211.027 102.655 210.856 103.555 210.856C104.555 210.856 105.353 211.084 105.949 211.54C106.544 211.984 106.975 212.579 107.241 213.326C107.519 214.061 107.659 214.872 107.659 215.758C107.659 215.86 107.595 216.005 107.469 216.195C107.342 216.373 107.203 216.531 107.051 216.67C106.899 216.81 106.778 216.879 106.69 216.879H101.845C101.908 217.639 102.13 218.165 102.51 218.456C102.902 218.735 103.409 218.874 104.03 218.874C104.435 218.874 104.79 218.824 105.094 218.722C105.41 218.621 105.67 218.526 105.873 218.437C106.088 218.336 106.24 218.285 106.329 218.285C106.468 218.285 106.614 218.38 106.766 218.57C106.918 218.76 107.044 218.969 107.146 219.197C107.26 219.425 107.317 219.603 107.317 219.729C107.317 219.97 107.19 220.179 106.937 220.356C106.696 220.521 106.386 220.66 106.006 220.774C105.638 220.888 105.258 220.971 104.866 221.021C104.486 221.072 104.163 221.097 103.897 221.097ZM101.845 214.998H104.923C104.923 214.441 104.815 213.985 104.6 213.63C104.384 213.263 104.036 213.079 103.555 213.079C103.162 213.079 102.807 213.219 102.491 213.497C102.174 213.763 101.959 214.264 101.845 214.998ZM113.36 224.973C112.347 224.973 111.504 224.872 110.833 224.669C110.162 224.479 109.661 224.188 109.332 223.795C109.003 223.403 108.838 222.921 108.838 222.351C108.838 221.857 108.984 221.42 109.275 221.04C109.579 220.66 110.01 220.363 110.567 220.147L110.586 220.071C110.32 219.932 110.117 219.742 109.978 219.501C109.839 219.248 109.769 218.963 109.769 218.646C109.769 218.292 109.87 217.969 110.073 217.677C110.276 217.386 110.554 217.139 110.909 216.936C110.44 216.683 110.067 216.341 109.788 215.91C109.509 215.467 109.37 214.91 109.37 214.238C109.37 213.415 109.554 212.756 109.921 212.262C110.288 211.768 110.782 211.414 111.403 211.198C112.024 210.97 112.708 210.856 113.455 210.856C113.708 210.856 113.955 210.869 114.196 210.894C114.449 210.92 114.69 210.958 114.918 211.008H117.977C118.357 211.008 118.547 211.325 118.547 211.958V212.281C118.547 212.877 118.395 213.174 118.091 213.174C118.015 213.174 117.869 213.155 117.654 213.117C117.439 213.079 117.28 213.041 117.179 213.003L117.141 213.079C117.255 213.206 117.35 213.383 117.426 213.611C117.502 213.827 117.54 214.036 117.54 214.238C117.54 214.998 117.369 215.619 117.027 216.1C116.685 216.569 116.216 216.917 115.621 217.145C115.038 217.361 114.386 217.468 113.664 217.468C113.081 217.468 112.714 217.519 112.562 217.62C112.41 217.722 112.334 217.874 112.334 218.076C112.334 218.292 112.473 218.45 112.752 218.551C113.043 218.653 113.417 218.729 113.873 218.779C114.329 218.83 114.81 218.9 115.317 218.988C115.811 219.077 116.28 219.216 116.723 219.406C117.179 219.596 117.546 219.875 117.825 220.242C118.116 220.61 118.262 221.11 118.262 221.743C118.262 222.389 118.059 222.953 117.654 223.434C117.249 223.928 116.679 224.308 115.944 224.574C115.209 224.84 114.348 224.973 113.36 224.973ZM113.569 222.75C114.228 222.75 114.715 222.662 115.032 222.484C115.361 222.32 115.526 222.098 115.526 221.819C115.526 221.667 115.475 221.541 115.374 221.439C115.273 221.338 115.108 221.249 114.88 221.173C114.652 221.11 114.348 221.053 113.968 221.002C113.601 220.952 113.145 220.907 112.6 220.869C112.271 220.983 112.017 221.135 111.84 221.325C111.663 221.515 111.574 221.705 111.574 221.895C111.574 222.149 111.732 222.351 112.049 222.503C112.366 222.668 112.872 222.75 113.569 222.75ZM113.455 215.435C113.848 215.435 114.183 215.34 114.462 215.15C114.741 214.948 114.88 214.618 114.88 214.162C114.88 213.719 114.741 213.396 114.462 213.193C114.183 212.991 113.848 212.889 113.455 212.889C113.062 212.889 112.727 212.991 112.448 213.193C112.169 213.396 112.03 213.719 112.03 214.162C112.03 214.618 112.169 214.948 112.448 215.15C112.727 215.34 113.062 215.435 113.455 215.435ZM121.015 220.983C120.255 220.983 119.875 220.781 119.875 220.375V211.578C119.875 211.173 120.255 210.97 121.015 210.97H121.547C122.307 210.97 122.687 211.173 122.687 211.578V220.375C122.687 220.781 122.307 220.983 121.547 220.983H121.015ZM121.281 210.039C120.787 210.039 120.426 209.989 120.198 209.887C119.983 209.786 119.875 209.634 119.875 209.431V207.949C119.875 207.747 119.983 207.595 120.198 207.493C120.426 207.392 120.787 207.341 121.281 207.341C121.775 207.341 122.13 207.392 122.345 207.493C122.573 207.595 122.687 207.747 122.687 207.949V209.431C122.687 209.634 122.573 209.786 122.345 209.887C122.13 209.989 121.775 210.039 121.281 210.039ZM124.846 220.945C124.77 220.945 124.688 220.863 124.599 220.698C124.511 220.521 124.435 220.318 124.371 220.09C124.321 219.862 124.295 219.666 124.295 219.501C124.295 219.375 124.314 219.286 124.352 219.235L128.703 213.231H125.169C124.789 213.231 124.599 212.915 124.599 212.281V211.958C124.599 211.325 124.789 211.008 125.169 211.008H131.895C131.971 211.008 132.047 211.097 132.123 211.274C132.212 211.439 132.288 211.635 132.351 211.863C132.415 212.091 132.446 212.294 132.446 212.471C132.446 212.598 132.427 212.693 132.389 212.756L128.057 218.722H131.952C132.332 218.722 132.522 219.039 132.522 219.672V219.995C132.522 220.629 132.332 220.945 131.952 220.945H124.846ZM138.464 221.097C136.741 221.097 135.481 220.641 134.683 219.729C133.898 218.805 133.505 217.576 133.505 216.043C133.505 214.789 133.701 213.782 134.094 213.022C134.487 212.262 135.031 211.711 135.728 211.369C136.425 211.027 137.223 210.856 138.122 210.856C139.123 210.856 139.921 211.084 140.516 211.54C141.111 211.984 141.542 212.579 141.808 213.326C142.087 214.061 142.226 214.872 142.226 215.758C142.226 215.86 142.163 216.005 142.036 216.195C141.909 216.373 141.77 216.531 141.618 216.67C141.466 216.81 141.346 216.879 141.257 216.879H136.412C136.475 217.639 136.697 218.165 137.077 218.456C137.47 218.735 137.976 218.874 138.597 218.874C139.002 218.874 139.357 218.824 139.661 218.722C139.978 218.621 140.237 218.526 140.44 218.437C140.655 218.336 140.807 218.285 140.896 218.285C141.035 218.285 141.181 218.38 141.333 218.57C141.485 218.76 141.612 218.969 141.713 219.197C141.827 219.425 141.884 219.603 141.884 219.729C141.884 219.97 141.757 220.179 141.504 220.356C141.263 220.521 140.953 220.66 140.573 220.774C140.206 220.888 139.826 220.971 139.433 221.021C139.053 221.072 138.73 221.097 138.464 221.097ZM136.412 214.998H139.49C139.49 214.441 139.382 213.985 139.167 213.63C138.952 213.263 138.603 213.079 138.122 213.079C137.729 213.079 137.375 213.219 137.058 213.497C136.741 213.763 136.526 214.264 136.412 214.998Z" fill="white"/>
</svg>
