<svg width="193" height="193" viewBox="0 0 193 193" fill="none" xmlns="http://www.w3.org/2000/svg">
<path d="M127.083 113.963C123.942 113.963 120.815 113.555 117.733 112.741C112.634 111.394 107.964 109.015 103.853 105.669C99.885 102.439 96.603 98.449 94.0986 93.8102C91.5953 89.1733 89.995 84.1214 89.3421 78.7949C88.6664 73.2815 89.0406 67.7139 90.4544 62.2466C91.8434 56.8749 95.0771 51.5819 100.066 46.5144C104.599 41.9091 110.472 37.6653 117.05 34.2417C130.469 27.257 144.976 24.5482 154.909 27.1722C159.883 28.486 163.725 31.1313 166.33 35.0346C168.633 38.486 170.028 43.022 170.478 48.5168C171.382 59.5727 168.337 73.0327 165.968 82.1955C164.554 87.6629 162.185 92.7036 158.927 97.1776C155.779 101.5 151.938 105.114 147.51 107.92C143.08 110.727 138.286 112.584 133.261 113.438C131.202 113.788 129.139 113.963 127.083 113.963ZM146.593 26.9369C137.837 26.9369 127.323 29.7414 117.391 34.9109C103.572 42.1035 93.7718 52.3936 91.1748 62.4369C85.5013 84.3782 97.4997 106.618 117.921 112.013C120.964 112.817 124.053 113.214 127.131 113.214C134.055 113.214 140.927 111.203 147.114 107.283C156.058 101.615 162.497 92.6381 165.247 82.0052C167.602 72.8958 170.63 59.5199 169.736 48.5788C168.795 37.0851 163.884 30.3212 154.721 27.9005C152.269 27.2526 149.529 26.9369 146.593 26.9369Z" fill="#407BFF"/>
<path d="M179.127 113.814C179.127 131.559 173.853 148.057 164.802 161.797C162.402 165.44 159.738 168.888 156.835 172.115C141.497 173.883 119.13 174.998 94.2229 174.998C68.2484 174.998 45.0357 173.786 29.677 171.883C26.9225 168.8 24.3849 165.516 22.0884 162.055C12.1274 147.045 3.0289 123.391 13.4582 106.281C18.0575 98.736 24.1508 93.5093 29.467 86.7C35.563 78.8917 36.48 69.2351 38.0391 59.776C39.5399 50.6714 41.2102 44.3883 46.9676 36.858C61.5563 17.777 92.5327 8.70164 111.305 27.421C114.924 31.03 118.53 34.6068 121.454 38.8485C127.353 47.4057 131.557 53.3554 141.158 57.7555C149.976 61.7969 163.299 63.5205 169.086 72.2848C176.427 83.4015 179.127 100.673 179.127 113.814Z" fill="#E1F0FF"/>
<path d="M137.823 70.9879C136.112 70.9879 134.721 69.5813 134.721 67.8523C134.721 66.1234 136.112 64.7168 137.823 64.7168C139.533 64.7168 140.925 66.1234 140.925 67.8523C140.925 69.5813 139.533 70.9879 137.823 70.9879ZM137.823 65.4695C136.523 65.4695 135.465 66.5384 135.465 67.8523C135.465 69.1662 136.523 70.2351 137.823 70.2351C139.123 70.2351 140.18 69.1662 140.18 67.8523C140.18 66.5384 139.123 65.4695 137.823 65.4695Z" fill="#407BFF"/>
<path d="M24.1457 96.2602C24.0978 96.2602 24.0492 96.255 24.0007 96.2444L18.6713 95.0847C18.4332 95.033 18.2465 94.8621 18.1719 94.6278C18.0972 94.3935 18.1502 94.1446 18.3136 93.9621L21.9721 89.8769C22.1355 89.6943 22.3753 89.6162 22.6133 89.6681C22.8514 89.7199 23.0381 89.8907 23.1128 90.1251L24.7838 95.3701C24.8585 95.6044 24.8054 95.8533 24.642 96.0357C24.5118 96.1811 24.3333 96.2602 24.1457 96.2602ZM18.9483 94.3751L24.0372 95.4825L22.4416 90.4742L18.9483 94.3751ZM22.5242 90.382L22.524 90.3822C22.5241 90.3821 22.5242 90.382 22.5242 90.382Z" fill="#407BFF"/>
<path d="M173.731 148.265C173.511 148.265 173.288 148.209 173.083 148.089L170.533 146.601C169.912 146.239 169.698 145.433 170.057 144.805L171.529 142.227C171.888 141.6 172.685 141.384 173.306 141.746L175.856 143.235C176.157 143.41 176.372 143.694 176.462 144.033C176.552 144.372 176.506 144.726 176.332 145.03L174.86 147.608C174.619 148.03 174.181 148.265 173.731 148.265ZM173.456 147.438C173.721 147.592 174.062 147.5 174.215 147.232L175.688 144.654C175.762 144.524 175.781 144.373 175.743 144.228C175.705 144.083 175.613 143.962 175.484 143.886L172.933 142.398C172.668 142.243 172.327 142.335 172.174 142.604L170.702 145.182C170.548 145.45 170.64 145.794 170.905 145.949L173.456 147.438Z" fill="#407BFF"/>
<path d="M21.1279 127.549C21.0782 122.443 21.4206 118.134 21.7683 115.137C23.5959 115.245 25.2043 113.884 25.4023 112.024C25.6063 110.107 24.2337 108.385 22.3365 108.179C20.4393 107.972 18.7359 109.36 18.5318 111.277C18.3417 113.063 19.5198 114.679 21.2153 115.059C20.865 118.075 20.5201 122.407 20.5692 127.539C20.6255 133.425 21.181 139.198 22.2201 144.698C23.5196 151.576 25.5836 158.044 28.3546 163.923L28.8589 163.68C22.6309 150.468 21.2172 136.74 21.1279 127.549Z" fill="#C6D7F4"/>
<path d="M158.699 144.751C161.093 141.419 162.799 138.383 163.896 136.207C162.354 135.211 161.669 133.377 162.364 132.037C163.081 130.656 164.995 130.324 166.639 131.296C168.282 132.268 169.034 134.175 168.316 135.557C167.649 136.843 165.942 137.219 164.383 136.479C163.279 138.668 161.565 141.721 159.16 145.071C156.401 148.912 153.287 152.387 149.905 155.4C145.674 159.168 141.009 162.221 136.038 164.472L135.738 164.018C146.91 158.958 154.391 150.748 158.699 144.751Z" fill="#C6D7F4"/>
<path d="M137.835 148.663C137.786 147.344 137.761 144.426 139.456 143.99C141.048 143.58 141.701 146.323 142.146 147.406C142.529 148.34 143.358 149.485 143.759 148.182C144.106 147.059 143.767 145.097 143.762 143.904C143.755 141.777 143.681 139.645 143.591 137.521C143.545 136.415 143.181 134.231 144.632 133.747C145.38 133.498 145.909 134.498 146.191 135.084C146.856 136.464 147.117 138.212 147.134 139.738C147.144 140.604 147.801 143.124 148.868 141.311C149.736 139.837 149.637 138.066 149.849 136.434C150.098 134.511 150.371 132.561 150.613 130.621C150.761 129.433 150.449 124.305 152.575 124.673C153.887 124.901 154.169 127.462 154.3 128.489C154.614 130.946 154.184 133.451 153.646 135.844C153.248 137.612 151.507 139.878 152.154 141.726C152.777 141.745 153.159 141.494 153.576 141.074C153.819 140.83 153.967 140.482 154.172 140.202C154.822 139.316 157.653 136.6 157.78 139.231C157.859 140.868 156.297 142.086 155.293 143.123C153.783 144.681 152.605 146.703 151.334 148.477C150.815 149.201 149.655 151.037 150.368 151.939C151.711 153.64 153.821 150.459 154.842 151.264C156.622 152.668 153.197 155.88 152.313 156.724C149.168 159.729 144.552 162.864 140.729 159.064C139.865 158.206 139.624 156.415 139.203 155.255C138.478 153.257 138.041 151.583 137.879 149.43C137.861 149.199 137.845 148.94 137.835 148.663Z" fill="#C6D7F4"/>
<path d="M39.8319 143.897C39.5843 141.8 38.9051 137.179 36.1178 136.916C33.5007 136.669 33.1433 141.169 32.7073 142.993C32.3312 144.567 31.3029 146.585 30.3473 144.627C29.5231 142.938 29.5759 139.75 29.2891 137.863C28.7778 134.5 28.369 131.11 27.988 127.729C27.7897 125.969 27.8273 122.424 25.4136 122.024C24.1699 121.819 23.5792 123.533 23.2772 124.53C22.5657 126.879 22.5841 129.708 22.9325 132.126C23.13 133.497 22.7116 137.646 20.5783 135.048C18.8439 132.937 18.564 130.112 17.8274 127.584C16.9596 124.607 16.0477 121.592 15.1882 118.586C14.6622 116.746 13.8921 108.559 10.622 109.677C8.60394 110.366 8.78822 114.487 8.83371 116.143C8.94261 120.106 10.2391 123.959 11.6796 127.607C12.7436 130.302 16.0542 133.446 15.4858 136.53C14.506 136.717 13.8401 136.417 13.0764 135.858C12.6337 135.534 12.3132 135.019 11.9196 134.629C10.6737 133.393 5.53039 129.81 5.97657 134.001C6.2548 136.61 9.0244 138.143 10.8663 139.528C13.6376 141.613 15.9981 144.512 18.4449 146.998C19.4435 148.012 21.7282 150.623 20.8242 152.228C19.1192 155.256 15.0006 150.756 13.5849 152.286C11.1161 154.953 17.321 159.17 18.9262 160.282C24.6391 164.243 32.7091 168.038 37.8176 161.069C38.9719 159.494 38.9127 156.602 39.2922 154.663C39.9465 151.321 40.2245 148.565 39.9512 145.12C39.922 144.751 39.8839 144.337 39.8319 143.897Z" fill="#C6D7F4"/>
<path d="M182.608 166.416C182.608 168.603 174.628 170.598 161.489 172.114C146.151 173.883 123.783 174.998 98.8766 174.998C72.902 174.998 49.6894 173.785 34.3307 171.883C22.3465 170.398 14.6797 168.494 14.6797 166.416C14.6797 164.824 19.3732 163.334 26.7421 162.055C41.3133 159.529 68.1638 157.834 98.8766 157.834C128.527 157.834 154.577 159.414 169.456 161.797C177.781 163.129 182.608 164.715 182.608 166.416Z" fill="#9FB6E3"/>
<path d="M115.642 165.277H70.6918C67.7187 165.277 65.3086 162.841 65.3086 159.836V53.4626C65.3086 50.4576 67.7187 48.0215 70.6918 48.0215H115.642C118.615 48.0215 121.025 50.4576 121.025 53.4626V159.836C121.025 162.841 118.615 165.277 115.642 165.277Z" fill="#407BFF"/>
<path d="M117.945 57.2973V158.927C117.945 160.715 116.512 162.164 114.743 162.164H71.5909C69.8224 162.164 68.3887 160.715 68.3887 158.927V57.2973C68.3887 55.926 69.4884 54.8145 70.845 54.8145H115.489C116.846 54.8144 117.945 55.9261 117.945 57.2973Z" fill="white"/>
<path d="M64.9394 86.9545C64.2836 86.9545 63.752 86.4171 63.752 85.7543V69.0478C63.752 68.385 64.2836 67.8477 64.9394 67.8477C65.5951 67.8477 66.1268 68.385 66.1268 69.0478V85.7543C66.1268 86.4171 65.5951 86.9545 64.9394 86.9545Z" fill="#407BFF"/>
<path d="M121.025 78.4863C120.37 78.4863 119.838 77.9489 119.838 77.2861V69.0478C119.838 68.385 120.37 67.8477 121.025 67.8477C121.681 67.8477 122.213 68.385 122.213 69.0478V77.2861C122.213 77.9489 121.681 78.4863 121.025 78.4863Z" fill="#407BFF"/>
<path d="M121.025 91.9785C120.37 91.9785 119.838 91.4411 119.838 90.7783V82.54C119.838 81.8772 120.37 81.3398 121.025 81.3398C121.681 81.3398 122.213 81.8772 122.213 82.54V90.7783C122.213 91.4411 121.681 91.9785 121.025 91.9785Z" fill="#407BFF"/>
<path d="M117.945 116.637V159.08C117.945 160.781 116.576 162.165 114.893 162.165H71.4408C69.7579 162.165 68.3887 160.781 68.3887 159.08V116.637H117.945Z" fill="#F1F0E9"/>
<path d="M117.945 116.541H68.3887V118.822H117.945V116.541Z" fill="#C6D7F4"/>
<path d="M113.224 116.561H73.1074C73.1074 115.039 74.3285 113.805 75.8348 113.805H110.497C112.003 113.805 113.224 115.039 113.224 116.561Z" fill="#407BFF"/>
<path d="M109.068 97.541H77.2656V113.807H109.068V97.541Z" fill="#C6D7F4"/>
<path d="M81.0769 97.541H77.2656V113.807H81.0769V97.541Z" fill="#1A4CBC"/>
<path d="M95.073 97.541H91.2617V113.807H95.073V97.541Z" fill="#1A4CBC"/>
<path d="M109.067 97.541H105.256V113.807H109.067V97.541Z" fill="#1A4CBC"/>
<path d="M82.1869 100.086H76.1582V102.397H82.1869V100.086Z" fill="#1A4CBC"/>
<path d="M96.181 100.086H90.1523V102.397H96.181V100.086Z" fill="#1A4CBC"/>
<path d="M110.177 100.086H104.148V102.397H110.177V100.086Z" fill="#1A4CBC"/>
<path d="M113.224 97.3301H73.1074V100.087H113.224V97.3301Z" fill="#407BFF"/>
<path d="M92.6663 84.8995L73.1074 97.3301H93.1659L113.609 97.5745L94.0501 85.1439C93.3602 84.7054 92.9717 84.7054 92.6663 84.8995Z" fill="#1A4CBC"/>
<path d="M99.144 51.9809H87.1889C86.899 51.9809 86.6641 51.7434 86.6641 51.4504C86.6641 51.1574 86.8991 50.9199 87.1889 50.9199H99.144C99.4339 50.9199 99.6689 51.1574 99.6689 51.4504C99.6689 51.7434 99.4339 51.9809 99.144 51.9809Z" fill="white"/>
<path d="M101.512 70.0667C101.512 71.5674 101.115 72.975 100.421 74.1869C100.282 74.4306 100.13 74.6658 99.9681 74.8925C98.487 76.9616 96.0788 78.3071 93.3588 78.3071C90.6396 78.3071 88.2314 76.9616 86.7504 74.8925C86.5875 74.6658 86.4367 74.4306 86.2971 74.1869C85.6036 72.975 85.207 71.5674 85.207 70.0667C85.207 65.5155 88.857 61.8262 93.3588 61.8262C97.8615 61.8262 101.512 65.5155 101.512 70.0667Z" fill="#C6D7F4"/>
<path d="M99.9696 74.8931C98.4886 76.9622 96.0803 78.3076 93.3603 78.3076C90.6412 78.3076 88.233 76.9622 86.752 74.8931C88.233 72.824 90.6412 71.4785 93.3603 71.4785C96.0803 71.4786 98.4886 72.8241 99.9696 74.8931Z" fill="#407BFF"/>
<path d="M93.3591 69.9294C94.9177 69.9294 96.1811 68.6523 96.1811 67.077C96.1811 65.5017 94.9177 64.2246 93.3591 64.2246C91.8006 64.2246 90.5371 65.5017 90.5371 67.077C90.5371 68.6523 91.8006 69.9294 93.3591 69.9294Z" fill="#407BFF"/>
<path d="M75.8833 60.6349H72.2579C72.0087 60.6349 71.8066 60.4307 71.8066 60.1788C71.8066 59.9268 72.0087 59.7227 72.2579 59.7227H75.8833C76.1325 59.7227 76.3345 59.9268 76.3345 60.1788C76.3346 60.4307 76.1325 60.6349 75.8833 60.6349Z" fill="#C6D7F4"/>
<path d="M75.8833 62.4689H72.2579C72.0087 62.4689 71.8066 62.2647 71.8066 62.0128C71.8066 61.7609 72.0087 61.5566 72.2579 61.5566H75.8833C76.1325 61.5566 76.3345 61.7609 76.3345 62.0128C76.3346 62.2647 76.1325 62.4689 75.8833 62.4689Z" fill="#C6D7F4"/>
<path d="M110.215 156.092H76.1181C74.8771 156.092 73.8711 155.075 73.8711 153.821V127.881C73.8711 126.626 74.8771 125.609 76.1181 125.609H110.215C111.456 125.609 112.462 126.626 112.462 127.881V153.821C112.462 155.075 111.456 156.092 110.215 156.092Z" fill="#1A4CBC"/>
<path d="M107.487 132.855H87.4203C87.0512 132.855 86.752 132.553 86.752 132.179C86.752 131.806 87.0512 131.504 87.4203 131.504H107.487C107.856 131.504 108.155 131.806 108.155 132.179C108.155 132.553 107.856 132.855 107.487 132.855Z" fill="white"/>
<path d="M107.487 141.414H87.4203C87.0512 141.414 86.752 141.111 86.752 140.738C86.752 140.365 87.0512 140.062 87.4203 140.062H107.487C107.856 140.062 108.155 140.365 108.155 140.738C108.155 141.111 107.856 141.414 107.487 141.414Z" fill="white"/>
<path d="M107.487 149.97H87.4203C87.0512 149.97 86.752 149.668 86.752 149.295C86.752 148.922 87.0512 148.619 87.4203 148.619H107.487C107.856 148.619 108.155 148.922 108.155 149.295C108.155 149.668 107.856 149.97 107.487 149.97Z" fill="white"/>
<path d="M81.9824 134.208C83.0919 133.087 83.0919 131.269 81.9824 130.147C80.8728 129.025 79.0738 129.025 77.9642 130.147C76.8546 131.269 76.8546 133.087 77.9642 134.208C79.0738 135.33 80.8728 135.33 81.9824 134.208Z" fill="white"/>
<path d="M80.6296 143.522C82.1568 143.157 83.1025 141.61 82.7419 140.067C82.3813 138.523 80.8509 137.567 79.3238 137.932C77.7966 138.296 76.8509 139.843 77.2115 141.387C77.5721 142.93 79.1025 143.886 80.6296 143.522Z" fill="#C6D7F4"/>
<path d="M82.7832 149.755C83.0346 148.19 81.9827 146.714 80.4338 146.46C78.8848 146.206 77.4253 147.269 77.1739 148.835C76.9225 150.401 77.9744 151.876 79.5234 152.13C81.0724 152.384 82.5319 151.321 82.7832 149.755Z" fill="white"/>
<path d="M158.904 167.675H136.499C135.666 167.675 134.99 166.992 134.99 166.15V164.093C134.99 163.251 135.666 162.568 136.499 162.568H158.904C159.737 162.568 160.413 163.251 160.413 164.093V166.15C160.413 166.992 159.737 167.675 158.904 167.675Z" fill="#C29628"/>
<path d="M156.285 162.565H133.88C133.047 162.565 132.371 161.883 132.371 161.04V158.984C132.371 158.142 133.047 157.459 133.88 157.459H156.285C157.118 157.459 157.794 158.142 157.794 158.984V161.04C157.794 161.883 157.118 162.565 156.285 162.565Z" fill="#B18828"/>
<path d="M159.652 157.46H137.247C136.414 157.46 135.738 156.777 135.738 155.935V153.878C135.738 153.036 136.414 152.354 137.247 152.354H159.652C160.485 152.354 161.161 153.036 161.161 153.878V155.935C161.161 156.777 160.485 157.46 159.652 157.46Z" fill="#C29628"/>
<path d="M141.035 167.675H118.63C117.797 167.675 117.121 166.992 117.121 166.15V164.093C117.121 163.251 117.797 162.568 118.63 162.568H141.035C141.868 162.568 142.544 163.251 142.544 164.093V166.15C142.544 166.992 141.868 167.675 141.035 167.675Z" fill="#EBB631"/>
<path d="M138.041 162.569H115.636C114.802 162.569 114.127 161.886 114.127 161.044V158.988C114.127 158.146 114.802 157.463 115.636 157.463H138.041C138.874 157.463 139.55 158.146 139.55 158.988V161.044C139.55 161.886 138.874 162.569 138.041 162.569Z" fill="#DAA730"/>
<path d="M138.041 157.462H115.636C114.802 157.462 114.127 156.779 114.127 155.937V153.88C114.127 153.038 114.802 152.355 115.636 152.355H138.041C138.874 152.355 139.55 153.038 139.55 153.88V155.937C139.55 156.779 138.874 157.462 138.041 157.462Z" fill="#EBB631"/>
<path d="M141.035 152.356H118.63C117.797 152.356 117.121 151.674 117.121 150.831V148.775C117.121 147.933 117.797 147.25 118.63 147.25H141.035C141.868 147.25 142.544 147.933 142.544 148.775V150.831C142.544 151.674 141.868 152.356 141.035 152.356Z" fill="#DAA730"/>
<path d="M141.035 147.472H118.63C117.797 147.472 117.121 146.789 117.121 145.947V143.89C117.121 143.048 117.797 142.365 118.63 142.365H141.035C141.868 142.365 142.544 143.048 142.544 143.89V145.947C142.544 146.789 141.868 147.472 141.035 147.472Z" fill="#EBB631"/>
<path d="M138.416 142.364H116.011C115.177 142.364 114.502 141.681 114.502 140.839V138.783C114.502 137.941 115.177 137.258 116.011 137.258H138.416C139.249 137.258 139.925 137.941 139.925 138.783V140.839C139.925 141.681 139.249 142.364 138.416 142.364Z" fill="#DAA730"/>
<path d="M141.783 137.259H119.378C118.545 137.259 117.869 136.576 117.869 135.734V133.677C117.869 132.835 118.545 132.152 119.378 132.152H141.783C142.616 132.152 143.292 132.835 143.292 133.677V135.734C143.292 136.576 142.616 137.259 141.783 137.259Z" fill="#EBB631"/>
<path d="M185.326 120.055H130.476C129.066 120.055 127.922 118.899 127.922 117.473V84.535C127.922 83.1091 129.066 81.9531 130.476 81.9531H185.326C186.737 81.9531 187.88 83.1091 187.88 84.535V117.473C187.88 118.899 186.737 120.055 185.326 120.055Z" fill="#407BFF"/>
<path d="M181.652 114.944H170.778C169.326 114.944 168.148 113.753 168.148 112.285C168.148 110.817 169.326 109.627 170.778 109.627H181.652C183.104 109.627 184.282 110.817 184.282 112.285C184.282 113.753 183.104 114.944 181.652 114.944Z" fill="#1A4CBC"/>
<path d="M183.149 91.5213H178.438C177.812 91.5213 177.305 91.0084 177.305 90.3756V89.4876C177.305 88.8548 177.812 88.3418 178.438 88.3418H183.149C183.775 88.3418 184.283 88.8548 184.283 89.4876V90.3756C184.283 91.0083 183.775 91.5213 183.149 91.5213Z" fill="#C6D7F4"/>
<path d="M140.649 103.725H133.595C132.917 103.725 132.367 103.17 132.367 102.485C132.367 101.8 132.917 101.244 133.595 101.244H140.649C141.327 101.244 141.876 101.8 141.876 102.485C141.876 103.17 141.327 103.725 140.649 103.725Z" fill="white"/>
<path d="M152.672 103.725H145.618C144.94 103.725 144.391 103.17 144.391 102.485C144.391 101.8 144.94 101.244 145.618 101.244H152.672C153.35 101.244 153.9 101.8 153.9 102.485C153.9 103.17 153.35 103.725 152.672 103.725Z" fill="white"/>
<path d="M164.696 103.725H157.641C156.964 103.725 156.414 103.17 156.414 102.485C156.414 101.8 156.964 101.244 157.641 101.244H164.696C165.374 101.244 165.923 101.8 165.923 102.485C165.923 103.17 165.374 103.725 164.696 103.725Z" fill="white"/>
<path d="M176.719 103.725H169.665C168.987 103.725 168.438 103.17 168.438 102.485C168.438 101.8 168.987 101.244 169.665 101.244H176.719C177.397 101.244 177.947 101.8 177.947 102.485C177.947 103.17 177.397 103.725 176.719 103.725Z" fill="white"/>
<path d="M143.158 95.6084H133.6C132.919 95.6084 132.367 95.0506 132.367 94.3625V88.2009C132.367 87.5128 132.919 86.9551 133.6 86.9551H143.158C143.839 86.9551 144.391 87.5128 144.391 88.2009V94.3625C144.391 95.0506 143.839 95.6084 143.158 95.6084Z" fill="#C6D7F4"/>
<path d="M135.462 85.0059H134.508V97.5606H135.462V85.0059Z" fill="#407BFF"/>
<path d="M142.251 85.0059H141.297V97.5606H142.251V85.0059Z" fill="#407BFF"/>
<path d="M35.4318 156.686L34.9756 161.732L33.9832 163.292L31.7539 162.152L32.3195 155.871L35.4318 156.686Z" fill="#F4BD93"/>
<path d="M56.5789 103.759C56.9431 103.163 57.0286 102.373 57.1373 101.692C57.1887 101.37 57.2566 101.061 57.4508 100.8C57.5273 100.698 57.7025 100.473 57.8598 100.523C58.145 100.614 57.8789 101.092 57.854 101.258C57.8031 101.598 57.9252 102.058 58.1431 102.319C58.337 102.551 58.6549 102.738 58.901 102.913C59.3254 103.214 59.8962 103.471 60.1119 103.982C60.3372 104.515 59.7725 104.978 59.3834 105.228C59.066 105.432 58.6993 105.632 58.3385 105.747C57.9642 105.868 57.5714 105.79 57.1912 105.868C57.0136 105.905 56.7213 106.055 56.5497 106.046C56.3122 106.033 56.3412 105.969 56.2428 105.717C56.0822 105.306 55.8294 104.81 56.0868 104.408C56.2564 104.143 56.4399 103.986 56.5789 103.759Z" fill="#F4BD93"/>
<path d="M57.5077 103.582H59.8915C60.1584 103.582 60.4024 103.43 60.5214 103.188L62.5804 99.0107C62.6909 98.7867 62.5297 98.5234 62.282 98.5234H59.8876C59.6272 98.5234 59.3891 98.6724 59.273 98.9079L57.2092 103.095C57.0988 103.319 57.26 103.582 57.5077 103.582Z" fill="#19162B"/>
<path d="M57.7207 103.112L59.6894 99.118C59.727 99.0417 59.8029 98.9941 59.8873 98.9941H62.0685L60.1046 102.979C60.064 103.061 59.9822 103.112 59.8913 103.112H57.7207Z" fill="white"/>
<path d="M58.7984 105.552C59.3654 105.169 60.3937 104.756 60.6418 104.035C60.8188 103.52 60.6517 103.017 60.9094 102.482C61.1495 101.983 61.8098 101.402 61.5421 100.804C61.472 100.647 60.9552 99.6843 60.7248 99.859C60.5802 99.9686 60.6593 100.412 60.6977 100.552C60.7555 100.762 60.8333 100.969 60.8922 101.178C61.0184 101.627 60.8463 101.617 60.5937 101.259C60.4666 101.078 60.2786 100.807 60.0431 100.764C59.8279 100.725 59.7143 100.915 59.7102 101.109C59.7051 101.342 59.8954 101.555 60.0256 101.733C60.1629 101.925 60.4769 102.426 60.1413 102.532C59.7739 102.648 59.3904 102.458 59.0153 102.611C58.5819 102.786 58.6481 103.113 59.074 103.219C59.3902 103.298 59.6802 103.249 59.7998 103.6C59.8794 103.834 59.8682 103.995 59.7027 104.181C59.5473 104.356 59.3368 104.473 59.17 104.635C59.135 104.669 58.7932 105.227 58.8992 105.216C58.9752 105.209 58.969 105.165 58.7984 105.552Z" fill="#F4BD93"/>
<path d="M49.1514 156.686L49.4399 161.732L48.4474 163.292L46.2182 162.152L45.7598 155.871L49.1514 156.686Z" fill="#F4BD93"/>
<path d="M48.3463 81.2092C48.8157 81.8703 49.0168 82.9466 49.0462 83.6737C49.0818 84.5548 48.7748 85.4382 48.6186 86.2941C48.3819 87.5908 48.0329 88.9486 47.5456 90.1581C47.0574 91.37 46.0465 92.6473 44.9502 93.3557C44.3498 93.7437 43.8724 93.6965 43.1978 93.7636C42.4349 93.8394 41.8026 93.9597 41.0111 93.8657C40.0902 93.7563 39.1333 93.4653 38.231 93.2416C37.4344 93.0441 36.8103 92.986 36.4731 92.1348C35.9791 90.8879 36.8836 90.0065 37.3867 88.9139C37.6206 88.4059 37.8512 87.9276 38.121 87.4424C38.5066 86.7492 38.6155 85.9745 39.0632 85.3015C39.9968 83.898 41.1068 82.5754 42.4268 81.5225C43.3055 80.8215 44.7236 80.537 45.8332 80.5427C46.607 80.5466 47.4924 80.354 48.1176 80.9431C48.2001 81.0209 48.2762 81.1104 48.3463 81.2092Z" fill="#19162B"/>
<path d="M46.4308 93.767C46.6798 94.4279 47.0339 95.0607 47.242 95.7362C47.4581 96.4373 47.5397 97.1819 47.6899 97.9012C47.9366 99.082 48.2141 100.256 48.4988 101.428C48.637 101.997 48.7614 102.572 48.9171 103.137C49.03 103.546 49.4987 104.162 49.9171 104.299C50.5014 104.489 51.5297 104.096 52.1406 104.039C52.7259 103.984 53.3115 103.915 53.8882 103.798C54.4569 103.682 55.059 103.312 55.6106 103.241C56.5099 103.125 57.015 104.874 57.2091 105.58C57.2614 105.77 57.4193 106.146 57.3865 106.332C57.3057 106.79 56.4852 107.057 56.1163 107.27C55.6989 107.511 55.2536 107.712 54.82 107.922C53.8418 108.395 52.8477 108.842 51.8189 109.191C50.0788 109.782 47.5609 110.375 46.1753 108.74C46.1121 108.665 46.0527 108.587 45.9971 108.507C45.6667 108.028 45.4082 107.421 45.2467 106.861C44.9072 105.685 44.5308 104.52 44.1813 103.346C43.8717 102.306 43.4149 101.253 43.274 100.171C43.1832 99.4741 43.1582 98.735 43.1603 98.0313C43.165 96.4529 43.3743 93.1484 45.662 93.563C45.8401 93.5953 46.135 93.6213 46.4308 93.767Z" fill="#DAA730"/>
<path d="M31.9755 157.286H35.9279C35.9279 157.286 44.4889 135.608 46.5244 115.253V110.891H35.7155C35.7155 110.891 34.8771 121.465 34.8771 132.832C34.8771 132.832 31.8213 144.611 31.791 157.099C31.7907 157.202 31.8736 157.286 31.9755 157.286Z" fill="#19162B"/>
<path d="M37.9297 110.891H48.4462C48.4462 110.891 51.7255 134.551 49.4639 157.286H45.2819C45.2819 157.286 42.7652 148.37 42.5526 136.041L37.9297 110.891Z" fill="#19162B"/>
<path d="M48.4472 110.888L35.0098 111.448L36.3602 92.2822L39.3442 91.5898L43.057 91.7989L46.3006 94.6318L48.4472 98.956V110.888Z" fill="white"/>
<path d="M39.3434 91.5898L36.3594 92.2823C34.7632 92.6527 33.6114 94.0586 33.5498 95.7127C33.3629 100.735 32.9136 111.189 32.2656 115.916C32.2656 115.916 36.4576 116.888 41.6823 115.344C42.2454 115.177 42.6541 114.685 42.7102 114.094L43.841 102.191C44.0079 100.435 43.7691 98.6633 43.1434 97.0162L41.8856 93.7048L39.3434 91.5898Z" fill="#DAA730"/>
<path d="M43.0566 91.8027C44.147 93.4352 44.7501 94.7452 45.9646 96.4341C47.2446 98.2141 47.5378 98.4395 47.3585 100.095C47.1712 101.826 47.0312 103.438 46.9468 105.196C46.8596 107.011 46.6996 108.778 46.6818 110.625C46.6765 111.174 46.5245 113.447 46.5245 113.447C46.6766 113.552 49.0394 113.31 49.255 113.282C49.5525 113.243 49.544 109.385 49.5438 108.197C49.5435 106.368 49.4273 104.527 49.353 102.699C49.2968 101.314 49.622 99.6128 49.0453 98.3816C48.7711 97.7963 48.2201 97.3034 47.8982 96.7446C47.5161 96.0811 47.3186 95.6446 47.0035 94.94C46.6846 94.227 46.4284 93.4526 45.774 92.9573C45.0021 92.3729 43.5859 91.9516 43.0566 91.8027Z" fill="#EBB631"/>
<path d="M39.3438 91.5919C39.3438 91.5919 40.7187 89.9939 41.728 86.8438L43.7377 89.2178C43.7377 89.2178 43.3388 90.1982 43.3459 91.885C43.3459 91.885 44.227 93.5147 43.0565 93.6108C43.0565 93.6108 40.7597 94.0067 39.3438 91.5919Z" fill="#F4BD93"/>
<path d="M43.1055 89.0768C43.0604 89.035 43.0157 88.9929 42.9716 88.9509C42.3102 88.3219 41.8123 87.7113 41.5387 86.8132C41.0441 85.1898 41.3287 83.2079 42.5021 81.9426C43.5336 80.8305 45.5156 80.3018 46.6072 81.5574C47.6215 82.7242 47.9387 83.9774 47.4591 85.4804C47.035 86.8095 46.6766 88.5287 45.623 89.5088C44.7049 90.3626 43.8387 89.7549 43.1055 89.0768Z" fill="#F4BD93"/>
<path d="M34.0391 93.7064C33.8129 94.1111 33.3234 95.0301 33.0071 95.4857C31.2762 97.7057 30.2103 100.325 29.1024 102.859C26.98 107.713 31.6173 112.82 34.6725 116.081C35.286 116.735 35.8266 117.948 36.8266 118.014C37.8513 118.083 38.8829 116.831 39.7854 116.448C39.8893 115.238 39.1547 114.268 38.5485 113.331C37.322 111.434 35.6919 109.392 35.0526 107.189C34.525 105.371 35.9778 104.468 36.7838 102.946C37.7328 101.155 38.9209 99.4611 38.8776 97.4069C38.8464 95.9261 38.7549 94.7527 37.7007 93.7832C37.2187 93.34 37.1069 93.2161 36.5233 93.0165C36.277 92.9323 35.0528 92.7936 34.0391 93.7064Z" fill="#EBB631"/>
<path d="M40.9678 89.4219C39.6406 91.5172 37.6331 93.8006 34.8566 93.2281C32.9091 92.8265 30.7527 90.3355 31.9346 88.3072C33.0266 86.4333 34.7266 85.5906 36.4427 84.4912C38.2497 83.3335 39.1454 81.2272 41.0013 80.095C42.6363 79.0975 44.9428 78.7786 46.6632 79.7429C47.349 80.1273 48.3252 80.7892 48.5188 81.599C48.6441 82.1232 48.5907 82.948 48.133 83.2743C47.7797 83.5263 47.2184 83.3973 46.8009 83.4628C46.0381 83.5825 45.3611 83.993 44.6253 84.2028C44.2354 84.3139 43.4936 85.0883 43.1514 84.822C42.8617 84.5966 42.9188 84.1212 42.4292 84.1205C41.4387 84.119 41.2699 86.0516 42.1549 86.3825C42.1581 86.868 41.9144 87.4783 41.7729 87.9481C41.6162 88.4677 41.2555 88.9675 40.9678 89.4219Z" fill="#19162B"/>
<path d="M34.4322 161.215C34.4483 161.198 34.4645 161.18 34.4808 161.161C34.6939 160.915 34.917 160.6 35.2158 160.455C35.8176 160.162 35.9862 160.639 36.185 161.133C36.9946 163.143 39.8736 163.225 41.5238 164.105C42.2084 164.469 42.9632 166.066 41.673 166.076C41.2233 166.079 40.8179 166.183 40.3738 166.114C39.6857 166.009 39.0224 166.192 38.2736 166.192C37.2584 166.192 36.2431 166.101 35.2322 166.153C34.1955 166.206 33.1944 166.075 32.1596 166.076C31.8537 166.076 31.194 166.116 30.9917 165.829C30.6705 165.374 30.9954 164.458 31.0431 163.964C31.1182 163.184 31.189 162.403 31.3073 161.628C31.3848 161.119 31.5287 161.134 32.0182 161.22C32.4602 161.298 32.8721 161.511 33.324 161.559C33.8173 161.611 34.1102 161.561 34.4322 161.215Z" fill="#19162B"/>
<path d="M48.6842 161.215C48.7003 161.198 48.7164 161.18 48.7327 161.161C48.9459 160.915 49.169 160.6 49.4677 160.455C50.0696 160.162 50.2381 160.639 50.437 161.133C51.2466 163.143 54.1256 163.225 55.7758 164.105C56.4604 164.469 57.2152 166.066 55.925 166.076C55.4753 166.079 55.0699 166.183 54.6258 166.114C53.9376 166.009 53.2743 166.192 52.5256 166.192C51.5104 166.192 50.4951 166.101 49.4842 166.153C48.4474 166.206 47.4463 166.075 46.4115 166.076C46.1056 166.076 45.4459 166.116 45.2437 165.829C44.9224 165.374 45.2474 164.458 45.295 163.964C45.3702 163.184 45.441 162.403 45.5592 161.628C45.6368 161.119 45.7806 161.134 46.2702 161.22C46.7122 161.298 47.124 161.511 47.5759 161.559C48.0693 161.611 48.3621 161.561 48.6842 161.215Z" fill="#19162B"/>
<path d="M55.628 71.2527H26.9327C26.2374 71.2527 25.6738 70.683 25.6738 69.9802V58.4717C25.6738 57.769 26.2374 57.1992 26.9327 57.1992H55.628C56.3233 57.1992 56.8869 57.7689 56.8869 58.4717V69.9802C56.887 70.683 56.3234 71.2527 55.628 71.2527Z" fill="#407BFF"/>
<path d="M30.5474 65.359C31.1664 65.0998 31.4603 64.3825 31.2039 63.7568C30.9475 63.1312 30.2378 62.8341 29.6188 63.0932C28.9998 63.3524 28.7059 64.0697 28.9623 64.6954C29.2187 65.321 29.9284 65.6181 30.5474 65.359Z" fill="#C6D7F4"/>
<path d="M35.8024 64.3757C35.8843 63.7035 35.4116 63.0916 34.7466 63.0088C34.0816 62.9261 33.4762 63.4039 33.3943 64.076C33.3125 64.7481 33.7852 65.3601 34.4501 65.4428C35.1151 65.5256 35.7205 65.0478 35.8024 64.3757Z" fill="#C6D7F4"/>
<path d="M39.9699 65.0916C40.4436 64.6128 40.4436 63.8364 39.9699 63.3576C39.4961 62.8787 38.728 62.8787 38.2543 63.3576C37.7805 63.8364 37.7805 64.6128 38.2543 65.0916C38.728 65.5705 39.4961 65.5705 39.9699 65.0916Z" fill="#C6D7F4"/>
<path d="M51.1887 67.4093C52.9278 65.6515 52.9278 62.8016 51.1887 61.0438C49.4496 59.286 46.6301 59.286 44.891 61.0438C43.152 62.8016 43.152 65.6515 44.891 67.4093C46.6301 69.1671 49.4496 69.1671 51.1887 67.4093Z" fill="#1A4CBC"/>
</svg>
