<svg width="193" height="193" viewBox="0 0 193 193" fill="none" xmlns="http://www.w3.org/2000/svg">
<path fill-rule="evenodd" clip-rule="evenodd" d="M25.3805 100.875H176.422C174.857 110.226 174.793 119.44 179.335 128.013C200.21 167.415 117.243 141.812 86.2829 149.034C84.4781 149.455 82.7086 149.832 80.9605 150.182C88.5261 150.039 96.5602 149.961 104.889 149.961C149.793 149.961 186.195 152.21 186.195 154.984C186.195 157.758 149.793 160.007 104.889 160.007C59.9847 160.007 23.5838 157.758 23.5838 154.984C23.5838 153.849 29.6856 152.801 39.9709 151.96C5.76675 146.572 -3.04894 121.946 19.303 106.464C21.7222 104.789 23.7525 102.903 25.382 100.875H25.3805Z" fill="#E7EFF9"/>
<path fill-rule="evenodd" clip-rule="evenodd" d="M180.697 50.2943H20.5781C20.9244 10.7317 97.1745 47.6954 111.128 47.439C136.492 46.9727 168.952 25.0016 180.569 50.0026C180.615 50.0999 180.654 50.1971 180.697 50.2943Z" fill="#DEEDF9"/>
<path fill-rule="evenodd" clip-rule="evenodd" d="M26.7959 36.0723L99.8452 51.4826V135.784H9.87242C4.10874 126.421 6.92134 115.039 19.3025 106.464C29.3175 99.528 32.6656 88.9929 28.5307 79.6756C17.4829 54.7836 18.915 41.9052 26.7959 36.073V36.0723Z" fill="#A5CDED"/>
<path fill-rule="evenodd" clip-rule="evenodd" d="M20.7489 54.0418L82.2628 62.6217V107.302L13.7734 111.1C15.3389 109.489 17.1798 107.935 19.3029 106.464C29.3178 99.528 32.666 88.9929 28.5311 79.6755C23.8289 69.0793 21.395 60.6681 20.7489 54.041V54.0418Z" fill="white"/>
<path fill-rule="evenodd" clip-rule="evenodd" d="M82.2628 83.6189V107.302L13.7734 111.1C15.3389 109.489 17.1798 107.935 19.3029 106.464C29.3178 99.5279 32.666 88.9929 28.5311 79.6755C27.9219 78.3031 27.3561 76.9727 26.822 75.6725C30.0567 74.0923 33.494 72.8473 37.0926 71.9854C53.3501 68.0922 70.2257 72.6426 82.2636 83.6189H82.2628Z" fill="#F0F6FB"/>
<path fill-rule="evenodd" clip-rule="evenodd" d="M20.6937 53.3008L82.3623 61.9028L82.9906 61.9905V62.6226V107.303V107.99L82.3026 108.028L13.0508 111.869C13.5215 111.351 14.021 110.838 14.5477 110.331L81.5343 106.616V63.2554L20.8307 54.7881C20.7725 54.2798 20.732 53.7892 20.6937 53.3008Z" fill="#86BAE4"/>
<path fill-rule="evenodd" clip-rule="evenodd" d="M82.4481 61.9245L88.8321 60.709L89.0059 108.625L82.2617 108.027L82.4481 61.9245Z" fill="#5D9CD4"/>
<path d="M36.6974 56.1914H35.6094V109.673H36.6974V56.1914Z" fill="#86BAE4"/>
<path d="M61.3068 59.5488H60.2188V108.464H61.3068V59.5488Z" fill="#86BAE4"/>
<path fill-rule="evenodd" clip-rule="evenodd" d="M163.105 38.1309L99.8457 51.4837V135.785L181.029 144.127C183.512 140.662 183.313 135.52 179.336 128.013C166.249 103.311 191.389 73.2853 180.57 50.003C176.71 41.6941 170.545 38.5773 163.105 38.1309Z" fill="#BAD9F2"/>
<path fill-rule="evenodd" clip-rule="evenodd" d="M32.0518 33.45L99.8443 47.7509V51.4843L26.7949 36.074C28.3198 34.9461 30.0886 34.0857 32.0518 33.4492V33.45Z" fill="#86BAE4"/>
<path fill-rule="evenodd" clip-rule="evenodd" d="M105.449 46.5667L99.8457 47.7491V51.4825L163.105 38.1297C148.16 37.2332 128.064 47.1273 111.128 47.4382C109.779 47.4632 107.839 47.1347 105.449 46.566V46.5667Z" fill="#A5CDED"/>
<path fill-rule="evenodd" clip-rule="evenodd" d="M9.71414 116.406L18.0687 117.943V144.038C7.24042 136.715 4.15894 126.046 9.71414 116.406Z" fill="#C1DFF4"/>
<path fill-rule="evenodd" clip-rule="evenodd" d="M95.1704 112.554L18.0679 117.943L9.79297 116.268C10.0287 115.865 10.2747 115.465 10.5407 115.066L86.4814 111.199L95.1697 112.554H95.1704Z" fill="#DEEDF9"/>
<path fill-rule="evenodd" clip-rule="evenodd" d="M18.0684 117.941L95.1701 112.553L95.4316 137.169L92.9608 137.434L93.0065 135.07L23.007 146.869C21.2147 145.995 19.566 145.049 18.0684 144.035V117.94V117.941Z" fill="white"/>
<path fill-rule="evenodd" clip-rule="evenodd" d="M21.6406 128.42L60.4792 123.965V138.671L21.6406 144.933V128.42Z" fill="#C1DFF4"/>
<path fill-rule="evenodd" clip-rule="evenodd" d="M23.2637 129.868V143.025L58.8535 137.287V125.785L23.2637 129.868Z" fill="#DEEDF9"/>
<path fill-rule="evenodd" clip-rule="evenodd" d="M21.666 120.394L60.8081 116.865V123.021L21.666 126.55V120.394Z" fill="#C1DFF4"/>
<path fill-rule="evenodd" clip-rule="evenodd" d="M23.2324 121.827L59.2414 118.58V121.591L23.2324 124.837V121.827Z" fill="#DEEDF9"/>
<path fill-rule="evenodd" clip-rule="evenodd" d="M62.9238 124.077L93.9662 120.516V132.269L62.9238 137.275V124.077Z" fill="#C1DFF4"/>
<path fill-rule="evenodd" clip-rule="evenodd" d="M64.2207 125.234V135.75L92.6671 131.164V121.971L64.2207 125.234Z" fill="#DEEDF9"/>
<path fill-rule="evenodd" clip-rule="evenodd" d="M62.9453 117.661L94.2293 114.842V119.762L62.9453 122.582V117.661Z" fill="#C1DFF4"/>
<path fill-rule="evenodd" clip-rule="evenodd" d="M64.1973 118.806L92.9788 116.211V118.618L64.1973 121.213V118.806Z" fill="#DEEDF9"/>
<path fill-rule="evenodd" clip-rule="evenodd" d="M20.5808 50.5339L82.1617 59.8815L88.833 60.708C88.833 60.708 83.157 63.0396 82.2619 62.6204C81.5871 62.3044 40.7176 56.2991 20.698 53.3701C20.6191 52.3852 20.5794 51.4386 20.5801 50.5332L20.5808 50.5339Z" fill="#73ACDD"/>
<path fill-rule="evenodd" clip-rule="evenodd" d="M120.035 90.875L125.913 91.1136L129.958 86.5389L179.563 86.5949C179.859 85.3816 180.155 84.1698 180.443 82.9609L119.227 82.9808L120.034 90.875H120.035Z" fill="#A5CDED"/>
<path fill-rule="evenodd" clip-rule="evenodd" d="M123.428 96.1231L123.268 95.2207L177.111 97.1721C176.96 97.9176 176.816 98.6631 176.68 99.4072L123.429 96.1231H123.428Z" fill="#73ACDD"/>
<path fill-rule="evenodd" clip-rule="evenodd" d="M123.268 95.2211L115.219 96.5883V81.9471L123.234 81.8926L123.268 95.2211Z" fill="#73ACDD"/>
<path fill-rule="evenodd" clip-rule="evenodd" d="M116.122 81.937L180.851 81.2246C180.711 81.8301 180.567 82.4357 180.423 83.0427L117.039 83.7403V94.8714L176.901 98.232C176.785 98.8324 176.672 99.4328 176.566 100.032L116.079 96.6364L115.219 96.5878V81.9458L116.122 81.9362V81.937Z" fill="#86BAE4"/>
<path fill-rule="evenodd" clip-rule="evenodd" d="M131.768 59.8971C138.441 58.812 145.116 57.6945 151.81 56.5306C151.856 56.5232 151.903 56.549 151.903 56.5873V76.0603C151.903 76.0949 151.856 76.1259 151.81 76.1266C145.116 76.2032 138.442 76.2754 131.768 76.3299C131.712 76.3299 131.664 76.3056 131.664 76.274V59.9752C131.664 59.9435 131.712 59.9074 131.768 59.8979V59.8971Z" fill="white"/>
<path fill-rule="evenodd" clip-rule="evenodd" d="M131.767 59.8615C138.442 58.7734 145.116 57.6566 151.809 56.4905C151.847 56.4905 151.894 56.4875 151.931 56.5015C151.951 56.5229 151.969 56.548 151.969 56.5752V76.0549C151.969 76.0836 151.95 76.1109 151.931 76.1322C151.894 76.1536 151.847 76.1602 151.809 76.1676C145.116 76.2449 138.442 76.3076 131.767 76.3606C131.72 76.3606 131.673 76.3532 131.655 76.3363C131.627 76.3223 131.617 76.298 131.617 76.27V59.9816C131.617 59.9572 131.626 59.9293 131.655 59.9072C131.673 59.8865 131.72 59.8681 131.767 59.8622V59.8615ZM151.809 56.5752C145.116 57.7369 138.442 58.85 131.767 59.9307C131.758 59.9344 131.739 59.9381 131.739 59.9447C131.729 59.9447 131.729 59.9558 131.729 59.9624V76.2685C131.729 76.2759 131.729 76.2788 131.739 76.2825C131.739 76.2862 131.758 76.2899 131.767 76.2899C138.442 76.2302 145.116 76.1639 151.809 76.0792C151.818 76.0792 151.828 76.0755 151.837 76.0726C151.837 76.0659 151.847 76.0586 151.847 76.0512V56.5995C151.847 56.5929 151.837 56.5826 151.837 56.5752H151.809Z" fill="#A5CDED"/>
<path fill-rule="evenodd" clip-rule="evenodd" d="M132.529 60.2825C138.696 59.3101 144.863 58.3053 151.039 57.2637V75.5389C144.863 75.6479 138.696 75.7363 132.529 75.8166V60.2833V60.2825Z" fill="#DEEDF9"/>
<path fill-rule="evenodd" clip-rule="evenodd" d="M141.854 63.5238C142.503 63.4465 143.141 63.3691 143.79 63.2852V63.9378C143.198 64.0115 143.189 63.9769 142.719 64.2922C142.352 64.5272 142.022 65.2226 141.863 65.4893C141.807 65.4959 141.759 65.5062 141.722 65.5062C141.543 65.2742 141.214 64.6568 140.857 64.5021C140.377 64.3018 140.368 64.3371 139.785 64.4034V63.775C140.433 63.6977 141.082 63.6167 141.731 63.54C141.759 63.5364 141.806 63.529 141.853 63.5224L141.854 63.5238Z" fill="#A5CDED"/>
<path fill-rule="evenodd" clip-rule="evenodd" d="M139.955 68.0413C139.025 69.449 138.677 70.9548 140.951 70.9901C141.563 71.0005 142.371 70.9423 142.945 70.7831C144.712 70.2903 144.448 68.9503 143.658 67.7886C145.745 67.4446 147.762 66.7123 147.381 65.5145C147.255 65.1197 146.864 64.7027 146.488 64.4154C145.106 63.376 143.226 64.5731 141.844 65.9248C140.302 64.9104 138.197 64.1834 136.918 65.5528C136.579 65.9101 136.25 66.3808 136.175 66.7565C135.94 67.8903 137.914 68.1326 139.954 68.0413H139.955Z" fill="#A5CDED"/>
<path fill-rule="evenodd" clip-rule="evenodd" d="M166.662 54.0215C171.468 53.0991 176.275 52.154 181.084 51.1875C184.27 58.9645 183.656 67.4583 181.93 76.2305C176.838 76.3277 171.749 76.4191 166.662 76.4957C166.606 76.4964 166.568 76.4611 166.568 76.4183V54.1172C166.568 54.0716 166.607 54.0325 166.662 54.0229V54.0215Z" fill="white"/>
<path fill-rule="evenodd" clip-rule="evenodd" d="M166.661 53.9714C171.461 53.0476 176.261 52.1032 181.064 51.1367L181.103 51.2376C176.287 52.2034 171.474 53.1441 166.661 54.062C166.652 54.0657 166.642 54.076 166.633 54.0797C166.633 54.0863 166.614 54.0974 166.614 54.104V76.4162C166.614 76.4235 166.633 76.4272 166.633 76.4346V76.4412C166.642 76.4449 166.652 76.4449 166.661 76.4449C171.752 76.3646 176.843 76.2784 181.94 76.1797L181.918 76.2843C176.829 76.3793 171.745 76.4648 166.661 76.5392C166.615 76.5392 166.577 76.5289 166.54 76.5075C166.52 76.4862 166.502 76.4508 166.502 76.4154V54.1246C166.502 54.093 166.521 54.0583 166.54 54.0296C166.577 54.0016 166.614 53.9773 166.661 53.9699V53.9714Z" fill="#A5CDED"/>
<path fill-rule="evenodd" clip-rule="evenodd" d="M167.432 54.5642C172.071 53.6971 176.716 52.8094 181.361 51.9004C184.141 59.2531 183.637 67.2267 182.078 75.4575C177.193 75.5791 172.309 75.6925 167.432 75.7949V54.5634L167.432 54.5642Z" fill="#DEEDF9"/>
<path fill-rule="evenodd" clip-rule="evenodd" d="M176.778 61.8944C176.778 61.8944 177.699 60.466 179.551 60.1986C181.206 59.9563 182.362 61.1813 182.38 62.7932C182.399 64.6636 180.867 67.0268 176.853 69.2523C172.801 67.7671 171.222 65.8687 171.213 64.1413C171.194 62.6561 172.323 61.2174 173.976 60.9891C175.828 60.729 176.778 61.8944 176.778 61.8944Z" fill="#A5CDED"/>
<path fill-rule="evenodd" clip-rule="evenodd" d="M176.852 58.9211C177.5 58.8305 178.148 58.7354 178.789 58.6367V59.5215C178.216 59.5988 178.187 59.5531 177.726 59.9671C177.369 60.2832 177.04 61.2173 176.862 61.5782C176.805 61.5885 176.767 61.5922 176.72 61.5996C176.542 61.2843 176.213 60.4408 175.855 60.2272C175.395 59.9502 175.376 59.9959 174.793 60.0762V59.2231C175.441 59.1288 176.081 59.0375 176.729 58.9424C176.767 58.9395 176.804 58.9321 176.851 58.9211H176.852Z" fill="#A5CDED"/>
<path fill-rule="evenodd" clip-rule="evenodd" d="M96.9535 145.327L153.45 150.615C131.292 150.187 102.047 145.356 86.2814 149.034C84.4765 149.455 82.7071 149.832 80.959 150.182C88.5245 150.039 96.5586 149.961 104.887 149.961C127.044 149.961 147.126 150.509 161.792 151.396L180.712 153.168C184.25 153.731 186.193 154.344 186.193 154.984C186.193 157.758 149.792 160.007 104.887 160.007C75.5754 160.007 49.89 159.049 35.584 157.611L36.0643 155.482L96.9542 145.326L96.9535 145.327Z" fill="#BAD9F2"/>
<path fill-rule="evenodd" clip-rule="evenodd" d="M97.5331 142.764L162.875 150.465C140.373 151.827 104.414 144.804 86.2835 149.033C84.4787 149.454 82.7092 149.831 80.9611 150.18C88.5267 150.038 96.5607 149.959 104.889 149.959C149.794 149.959 186.195 152.208 186.195 154.983C186.195 157.757 149.794 160.006 104.889 160.006C84.6952 160.006 66.2233 159.551 52.0064 158.798L36.0664 155.481L97.5339 142.764H97.5331Z" fill="#C1DFF4"/>
<path fill-rule="evenodd" clip-rule="evenodd" d="M90.0762 63.5644H108.316L106.777 55.9834C105.948 51.8978 103.366 48.4023 99.1961 48.4023C95.0266 48.4023 92.4446 51.8978 91.6158 55.9834L90.0769 63.5644H90.0762Z" fill="white"/>
<path fill-rule="evenodd" clip-rule="evenodd" d="M101.491 45.5322L102.784 49.7607H95.6074L97.276 44.3027C98.7574 44.7477 100.17 45.161 101.491 45.5315V45.5322Z" fill="#5D9CD4"/>
<path fill-rule="evenodd" clip-rule="evenodd" d="M99.7609 45.0373V46.3162H98.6309V44.7051L99.7609 45.0373Z" fill="#5D9CD4"/>
<path fill-rule="evenodd" clip-rule="evenodd" d="M86.8566 77.6211C87.689 77.7537 88.0846 78.1124 88.0433 78.6966C87.2028 79.5814 86.2348 80.0005 85.1387 79.9556C85.6897 79.6963 86.2621 78.9176 86.8573 77.6211H86.8566Z" fill="#09378C"/>
<path fill-rule="evenodd" clip-rule="evenodd" d="M103.672 93.1111C103.672 93.1111 106.178 92.4783 106.47 92.56C106.761 92.6411 107.751 93.5648 107.832 93.9376C107.911 94.3103 107.355 95.1619 107.093 95.2643C106.828 95.3675 106.504 94.8223 106.209 94.7855C105.914 94.7501 105.671 94.8083 105.464 94.8312C105.068 94.8754 104.268 94.829 104.268 94.829L103.672 93.1111Z" fill="#F4AE7C"/>
<path fill-rule="evenodd" clip-rule="evenodd" d="M88.3699 85.9277C88.3699 85.9277 94.8363 93.2045 96.4467 93.3327C98.057 93.4609 103.672 93.111 103.672 93.111L104.436 95.0668C104.436 95.0668 99.3897 97.131 96.583 97.3792C93.7748 97.6282 89.4204 96.1622 89.4204 96.1622L88.3691 85.9277H88.3699Z" fill="#498AC9"/>
<path fill-rule="evenodd" clip-rule="evenodd" d="M87.2246 82.4414L88.001 89.4795L88.7149 89.8213L88.6795 90.8814L88.1057 101.372C88.1057 101.372 94.4513 90.2545 87.2253 82.4421L87.2246 82.4414Z" fill="#498AC9"/>
<path fill-rule="evenodd" clip-rule="evenodd" d="M90.3188 89.6133C90.3188 89.6133 88.7865 103.475 84.4078 115.554C84.4078 115.554 81.2048 115.428 77.0831 112.907C72.9423 110.374 90.3188 89.6133 90.3188 89.6133Z" fill="#5D9CD4"/>
<path fill-rule="evenodd" clip-rule="evenodd" d="M88.1911 86.8035C85.4345 85.988 83.086 81.764 83.086 81.764C83.0816 81.7419 83.3357 81.4561 84.247 81.0811C85.3306 80.6354 86.9019 79.6144 88.0585 77.8965L88.8615 80.4984L89.4066 82.2657C89.4066 82.2657 89.0191 82.8292 88.2191 83.7353C88.0732 83.9003 87.9119 84.0771 87.7395 84.2642C87.601 84.413 87.5605 84.6304 87.6445 84.8167C88.1263 85.8871 88.1904 86.8028 88.1904 86.8028L88.1911 86.8035Z" fill="#F4AE7C"/>
<path fill-rule="evenodd" clip-rule="evenodd" d="M83.0171 111.972C82.9154 112.006 81.8723 111.531 81.7699 111.491C80.8174 111.101 79.0133 110.026 76.7458 108.852C74.8275 107.876 73.296 106.591 71.7365 104.997C71.5295 104.785 71.0735 104.249 71.1965 103.973C71.3254 103.668 71.5324 103.234 71.7925 102.686C72.6956 100.784 74.2522 97.5127 75.5532 93.5443C75.797 92.8061 76.0578 92.0813 76.3318 91.3741C78.3812 86.1084 81.2454 81.8954 83.9563 81.1543C83.9563 81.1543 85.0945 82.5495 85.9777 83.27C86.8433 83.9765 87.3796 84.1142 88.0279 83.9757C88.0279 83.9757 88.8323 84.8664 89.0754 85.5006C89.6412 86.9695 89.8504 88.7066 89.5513 90.9645C89.2972 92.8857 88.699 95.5974 87.5527 98.9227C87.0312 100.429 83.1003 111.945 83.0163 111.971L83.0171 111.972Z" fill="white"/>
<path fill-rule="evenodd" clip-rule="evenodd" d="M89.4072 82.2661C89.4072 82.2661 89.0198 82.8297 88.219 83.7358C87.0492 82.6168 86.9902 79.4668 86.9902 79.4668C87.7954 79.7268 88.4083 80.0893 88.8621 80.4989L89.4072 82.2661Z" fill="#ED7D5B"/>
<path fill-rule="evenodd" clip-rule="evenodd" d="M89.8678 84.1652C89.8678 84.1652 85.2681 81.4241 86.7672 78.2719C88.2663 75.1197 88.6184 72.6953 91.9371 74.0501C95.2558 75.4048 95.311 76.9061 95.0657 78.0789C94.8219 79.2531 91.2328 84.6905 89.8678 84.1652Z" fill="#F4AE7C"/>
<path fill-rule="evenodd" clip-rule="evenodd" d="M86.5084 79.7242C86.2785 79.7611 87.4727 78.2303 87.8336 77.5312C88.1946 76.8321 88.7677 75.9864 89.1876 76.4991C89.6075 77.0118 89.3497 77.4516 89.7328 77.3514C90.1151 77.252 90.8186 76.2155 92.4349 77.2004C94.0511 78.1853 94.7679 79.146 95.7138 79.3169C96.6582 79.4878 98.2022 78.7865 98.2022 78.7865C98.2022 78.7865 96.969 78.6649 96.5698 78.578C96.5698 78.578 98.0637 77.5444 97.4243 75.4545C96.7746 73.3248 94.748 72.8629 92.8164 72.5204C92.2131 72.4136 91.3755 72.6405 90.8039 72.7001C90.0377 72.7812 89.2723 72.404 88.7294 72.7126C88.4075 72.8953 88.0738 73.271 87.7607 73.7631C86.7272 75.3875 85.9176 78.2841 86.5084 79.7242Z" fill="#09378C"/>
<path fill-rule="evenodd" clip-rule="evenodd" d="M89.74 150.607C89.74 150.607 91.2421 152.154 92.7743 152.492C94.3058 152.831 96.0215 153.483 96.0282 154.361C96.0348 155.238 90.9621 155.534 89.2118 154.628C86.5996 153.276 86.3314 153.671 86.0441 153.008C85.7568 152.345 86.4066 150.588 86.3881 150.377C86.366 150.117 89.74 150.606 89.74 150.606V150.607Z" fill="#09378C"/>
<path fill-rule="evenodd" clip-rule="evenodd" d="M89.5726 149.873L89.739 150.606C89.7096 150.62 86.2804 150.95 86.3872 150.376C86.4734 149.912 86.5964 149.406 86.5964 149.406L89.5733 149.873H89.5726Z" fill="#F4AE7C"/>
<path fill-rule="evenodd" clip-rule="evenodd" d="M60.5029 150.279C60.5029 150.279 61.1784 152.2 62.4079 153.052C63.6374 153.904 64.1376 155.096 63.7604 155.882C63.3825 156.668 59.4376 156.069 58.2715 153.68C57.473 152.044 56.5042 151.401 56.5359 150.706C56.5683 150.011 57.5135 149.066 57.5894 148.871C57.6829 148.632 60.5021 150.28 60.5021 150.28L60.5029 150.279Z" fill="#09378C"/>
<path fill-rule="evenodd" clip-rule="evenodd" d="M60.8429 149.608L60.5026 150.279C60.4694 150.282 57.2782 149.365 57.5898 148.87C57.8358 148.478 58.2962 148.064 58.2962 148.064L60.8429 149.607V149.608Z" fill="#F4AE7C"/>
<path fill-rule="evenodd" clip-rule="evenodd" d="M83.9733 112.16C83.9733 112.16 91.2111 125.004 92.5231 128.095C93.7386 130.96 92.5614 133.799 92.3787 135.969C92.1688 138.453 90.2497 149.045 90.3816 149.778C90.5135 150.511 86.0773 149.925 86.0773 149.925C86.0773 149.925 87.6869 133.026 86.4692 130.532C85.6581 128.869 77.7529 117.596 77.14 118.243C76.5286 118.891 69.7527 128.66 68.8297 130.596C67.9648 132.411 61.2788 149.919 61.2788 149.919C61.2788 149.919 58.8641 149.635 57.2891 148.196C57.2891 148.196 63.2185 129.225 64.0038 126.591C64.3434 125.449 65.388 121.457 67.8484 115.684C68.275 114.684 69.0949 110.438 69.4927 109.547C69.7373 108.998 71.31 106.373 72.0548 106.267C75.6409 105.757 83.9733 112.159 83.9733 112.159V112.16Z" fill="#3E62AC"/>
<path fill-rule="evenodd" clip-rule="evenodd" d="M83.62 111.883C83.62 111.883 83.8027 112.288 83.4491 113.624C83.4491 113.624 72.1376 108.484 71.0605 107.584C71.0605 107.584 71.4922 106.126 71.7633 106.187C72.0609 106.256 83.62 111.883 83.62 111.883Z" fill="#498AC9"/>
<path fill-rule="evenodd" clip-rule="evenodd" d="M75.031 107.066C75.031 107.066 74.2376 108.365 74.0733 108.721L73.5938 108.423C73.5938 108.423 74.3172 107.003 74.4984 106.789L75.031 107.066Z" fill="#576267"/>
<path fill-rule="evenodd" clip-rule="evenodd" d="M82.6976 111.388C82.6976 111.388 82.4611 112.785 82.2998 113.289L81.748 113.031C81.748 113.031 82.1827 111.332 82.1746 111.137L82.6976 111.389V111.388Z" fill="#5D9CD4"/>
<path fill-rule="evenodd" clip-rule="evenodd" d="M78.4612 108.92C78.4612 108.92 80.037 109.746 80.5328 110.083L79.8034 111.726L77.7305 110.67L78.4612 108.92Z" fill="#535C9B"/>
<path fill-rule="evenodd" clip-rule="evenodd" d="M69.582 108.59C74.4308 115.163 78.7086 114.301 78.7086 114.301C82.5518 107.306 85.5301 98.2103 86.2609 95.9937C89.6967 86.3515 83.9566 81.1543 83.9566 81.1543L83.0513 81.491L82.2085 81.9948L80.6858 83.1286L77.0599 88.2624L75.7907 92.4363L72.9398 99.3691L69.582 108.589V108.59Z" fill="#5D9CD4"/>
<path fill-rule="evenodd" clip-rule="evenodd" d="M83.9578 81.1562L84.7357 88.1944L86.5368 88.2423L85.4119 89.5955L84.8388 100.087C84.8388 100.087 91.1837 88.9686 83.957 81.1562H83.9578Z" fill="#498AC9"/>
<path fill-rule="evenodd" clip-rule="evenodd" d="M93.0605 74.7515C94.0823 76.5821 95.244 77.4602 97.2227 77.3755C97.3914 75.8115 97.9866 74.4472 94.7726 72.2129C95.6072 73.6494 95.0363 74.4958 93.0605 74.7522V74.7515Z" fill="#09378C"/>
<path fill-rule="evenodd" clip-rule="evenodd" d="M87.3253 75.2324C88.1578 75.365 88.5534 75.7238 88.5121 76.3087C87.6716 77.1927 86.7036 77.6126 85.6074 77.5677C86.1577 77.3083 86.7308 76.5297 87.3253 75.2324Z" fill="#09378C"/>
<path fill-rule="evenodd" clip-rule="evenodd" d="M91.2925 73.4312C90.8018 73.5321 90.5064 73.4165 90.4062 73.082C90.6877 72.4139 91.1378 71.977 91.7573 71.7715C91.5054 72.0315 91.3507 72.584 91.2925 73.4312Z" fill="#09378C"/>
<path fill-rule="evenodd" clip-rule="evenodd" d="M90.036 73.6982C90.4906 73.9096 90.8044 73.8646 90.979 73.5633C90.8589 72.848 90.5222 72.3191 89.9668 71.9766C90.1517 72.2874 90.1753 72.862 90.036 73.6982Z" fill="#09378C"/>
<path fill-rule="evenodd" clip-rule="evenodd" d="M91.6486 78.1918C91.5263 78.0835 91.32 78.1284 91.1889 78.2927C91.0578 78.457 91.0511 78.6787 91.1734 78.7878C91.2964 78.8968 91.502 78.8511 91.6331 78.6868C91.7642 78.5226 91.7708 78.3008 91.6486 78.1918Z" fill="#BAD9F2"/>
<path fill-rule="evenodd" clip-rule="evenodd" d="M91.1737 78.7865C91.0507 78.6775 91.058 78.4557 91.1892 78.2915C91.3203 78.1265 91.5266 78.0815 91.6488 78.1898C91.7004 78.2355 91.7291 78.301 91.735 78.374L91.7203 78.3563C91.6805 78.3209 91.6135 78.3357 91.5715 78.3895C91.5288 78.4425 91.5266 78.5147 91.5663 78.55C91.6061 78.5854 91.6732 78.5707 91.7152 78.5169L91.7233 78.5058C91.7078 78.5677 91.6776 78.6303 91.6326 78.6863C91.5015 78.8506 91.2953 78.8963 91.173 78.7873L91.1737 78.7865Z" fill="#0053A1"/>
<path fill-rule="evenodd" clip-rule="evenodd" d="M92.2158 78.268C92.2181 78.2791 92.221 78.2872 92.2225 78.2982C92.2343 78.2636 92.2262 78.2025 92.2284 78.17C92.2343 78.1907 92.2402 78.2002 92.2416 78.2275C92.2424 78.2511 92.2387 78.2732 92.2343 78.299C92.2512 78.2783 92.2527 78.2584 92.2645 78.2371C92.2645 78.2584 92.2527 78.2931 92.2416 78.3115C92.2844 78.2467 92.2785 78.2496 92.2954 78.173C92.3094 78.2091 92.2902 78.2805 92.2718 78.3159C92.288 78.3071 92.3006 78.2886 92.3131 78.2702C92.3094 78.2997 92.302 78.31 92.2866 78.3321L92.3197 78.3203C92.3072 78.3328 92.2998 78.3336 92.2895 78.3439C92.3374 78.3417 92.4479 78.2975 92.4707 78.2511C92.4531 78.2658 92.4177 78.2901 92.4007 78.2938C92.4251 78.2658 92.4582 78.24 92.4766 78.2017C92.4531 78.2179 92.4346 78.2496 92.4118 78.2695C92.389 78.2901 92.3602 78.3115 92.3381 78.3181C92.3823 78.2739 92.4258 78.2415 92.4494 78.1752L92.4383 78.1877C92.4192 78.2142 92.4015 78.2444 92.3779 78.2658C92.403 78.2135 92.4383 78.1723 92.4228 78.1096C92.4184 78.1354 92.4192 78.1538 92.4103 78.1811C92.4044 78.145 92.4236 78.0993 92.3912 78.0706C92.3941 78.0993 92.4007 78.1214 92.4 78.1583C92.3993 78.187 92.3949 78.2341 92.3691 78.2533C92.4052 78.1509 92.3868 78.0713 92.3389 78.0153C92.3492 78.0352 92.3742 78.106 92.3646 78.1295L92.3617 78.1332C92.3426 78.1538 92.3728 78.1096 92.3573 78.1376C92.3624 78.1538 92.3632 78.1818 92.361 78.2017C92.3595 78.2142 92.3566 78.2282 92.3521 78.2408C92.3507 78.2467 92.3462 78.257 92.3433 78.2621C92.3403 78.268 92.3403 78.2673 92.3374 78.271L92.3322 78.2761C92.3551 78.2069 92.3573 78.1612 92.3396 78.1015C92.3286 78.0654 92.2954 77.9925 92.2667 77.966C92.2667 77.9667 92.2674 77.9682 92.2682 77.9689L92.2866 78.0006C92.3293 78.0794 92.3654 78.1627 92.3293 78.2592C92.3278 78.2533 92.3286 78.2599 92.3278 78.2481C92.3278 78.2452 92.3278 78.2444 92.3278 78.2415C92.33 78.2076 92.333 78.1723 92.3271 78.1384C92.3212 78.1023 92.3094 78.0632 92.2954 78.0352C92.2777 77.9984 92.207 77.8975 92.154 77.8702C92.1694 77.8791 92.2409 77.9675 92.2512 77.9837C92.2755 78.0205 92.305 78.0684 92.3072 78.1185C92.2961 78.1052 92.288 78.0853 92.2792 78.0706C92.221 77.977 92.1149 77.8231 92.0243 77.7693C92.07 77.8164 92.1304 77.8923 92.1547 77.9424L92.1267 77.9129C92.1326 77.9233 92.137 77.9343 92.1436 77.9454C92.1503 77.9564 92.1554 77.9645 92.1613 77.9763C92.1886 78.033 92.2269 78.1236 92.2181 78.1899C92.2144 78.1708 92.2063 78.1479 92.2004 78.1273C92.1937 78.1045 92.1878 78.0861 92.179 78.0647C92.1643 78.0257 92.1473 77.9815 92.1267 77.9454C92.0818 77.868 92.0368 77.798 91.9727 77.731C91.9801 77.742 91.9875 77.7531 91.9897 77.7686C91.9308 77.7244 91.8645 77.608 91.7164 77.4975C91.7414 77.5314 91.793 77.5719 91.8225 77.608L91.8475 77.6441C91.8269 77.6308 91.7731 77.5697 91.7503 77.5461C91.6368 77.4326 91.5668 77.3612 91.4247 77.2662C91.3341 77.2057 91.2486 77.1483 91.1315 77.1254C91.0556 77.11 90.9797 77.1034 90.9053 77.11C90.8781 77.1122 90.8626 77.1166 90.8398 77.121C90.8884 77.1277 91.0239 77.1019 91.1153 77.1394C90.9421 77.1284 90.8007 77.1262 90.6497 77.163C90.6828 77.1645 90.7374 77.1549 90.7771 77.1527C90.8221 77.1498 90.8648 77.1498 90.9097 77.1498C90.9893 77.1498 91.1116 77.1608 91.1933 77.1903C91.1683 77.1925 91.1101 77.1844 91.0806 77.1822C90.8692 77.166 90.6549 77.166 90.4442 77.1881C90.4191 77.191 90.3646 77.2028 90.3477 77.2028C90.3661 77.2065 90.453 77.1999 90.4803 77.1999C90.6254 77.1984 90.7609 77.1999 90.9061 77.247C90.8582 77.2499 90.579 77.1903 90.467 77.208L90.7197 77.2396C90.7941 77.2514 90.9193 77.275 90.9886 77.3096C90.9068 77.275 90.5414 77.2138 90.4537 77.2234C90.4906 77.2337 90.5495 77.2382 90.5915 77.2455C90.6401 77.2544 90.6873 77.2647 90.7359 77.2765C90.8331 77.3008 90.934 77.3332 91.0239 77.3774C91.1462 77.4378 91.2508 77.5115 91.3517 77.5954C91.3812 77.6198 91.4173 77.6558 91.4475 77.6757C91.4365 77.6529 91.3856 77.6131 91.3679 77.5969C91.312 77.5454 91.2515 77.4982 91.1889 77.4547C91.1639 77.4371 91.1079 77.4083 91.0895 77.3914C91.1786 77.4238 91.2324 77.4709 91.3031 77.5063C91.2972 77.5012 91.3002 77.5048 91.2957 77.4989C91.2913 77.4923 91.2935 77.4953 91.2906 77.4901C91.3333 77.5137 91.4011 77.58 91.432 77.6146C91.4689 77.6551 91.5337 77.7494 91.5381 77.7531C91.533 77.7376 91.5263 77.7258 91.5234 77.7118L91.6133 77.8098L91.5145 77.6721C91.5381 77.6927 91.5646 77.7303 91.586 77.7546C91.6125 77.784 91.6663 77.8437 91.6877 77.8746C91.7127 77.9107 91.7709 77.9623 91.8055 77.9873C91.7989 77.9711 91.7635 77.9299 91.7495 77.9107L91.695 77.8371C91.6854 77.8223 91.6759 77.812 91.6685 77.7988C91.6471 77.759 91.6206 77.7229 91.5956 77.6853C91.5499 77.6183 91.4062 77.4422 91.3274 77.4164C91.4313 77.4466 91.5691 77.619 91.614 77.6853L91.7171 77.8415C91.7274 77.8547 91.7333 77.8665 91.7429 77.8805C91.768 77.9181 91.793 77.9579 91.8232 77.9932L91.8262 77.9844V77.9829V77.9815C91.8262 77.9807 91.8262 77.98 91.8269 77.98C91.8343 77.9962 91.8615 78.036 91.8777 78.0492C91.8652 77.9932 91.7967 77.9078 91.7959 77.8459C91.8188 77.8761 91.8365 77.9255 91.8519 77.9616C91.8571 77.9748 91.8645 77.9851 91.8696 77.9969C91.8748 77.9402 91.8512 77.8739 91.8328 77.8216L91.8077 77.7678C91.8409 77.7936 91.86 77.8555 91.8711 77.8967C91.8814 77.938 91.8858 77.9815 91.8895 78.0242C91.8895 78.0293 91.8895 78.0286 91.891 78.033C91.8925 78.0411 91.8917 78.0367 91.8954 78.0419L91.9006 77.9645C91.8991 77.9792 91.9131 78.0544 91.905 78.0706C91.9197 78.0382 91.916 78.0021 91.9197 77.9711L91.93 77.9999C91.9359 77.921 91.8836 77.8282 91.8578 77.7597C91.9028 77.798 91.9455 77.9262 91.9462 77.9925C91.947 78.0242 91.9396 78.0581 91.9418 78.0853L91.9558 78.0308C91.9558 78.0308 91.9565 78.033 91.9573 78.0338L91.9617 78.0772C91.9808 78.0095 91.9735 77.9616 91.9639 77.9048C91.9764 77.9181 91.9809 77.935 91.9845 77.9542C91.9882 77.9711 91.9912 77.9896 91.9912 78.0087C91.9912 78.0478 91.9882 78.0868 91.9786 78.1281C91.9897 78.1163 91.9978 78.0861 92.003 78.0669C92.0103 78.0765 92.0052 78.0669 92.0096 78.0787C92.0177 78.0986 92.0125 78.1281 92.0118 78.1479L92.0287 78.1111V78.1597C92.0449 78.1258 92.0464 78.1023 92.0567 78.0721C92.0663 78.0971 92.0589 78.1266 92.0516 78.156C92.0619 78.1472 92.0685 78.1281 92.0737 78.1126L92.0818 78.1568C92.0818 78.17 92.0818 78.1855 92.0818 78.198C92.0943 78.1641 92.0914 78.1398 92.0943 78.1096C92.1098 78.1457 92.1017 78.1789 92.1017 78.2216C92.1193 78.184 92.1282 78.1177 92.1238 78.0846C92.1503 78.1104 92.1149 78.2017 92.1186 78.2282L92.1414 78.1936C92.1422 78.1973 92.1422 78.1951 92.1429 78.2032L92.1378 78.2496L92.1658 78.2039C92.1694 78.2246 92.1613 78.2393 92.1584 78.2629C92.1584 78.2606 92.1834 78.2268 92.1908 78.2017C92.1945 78.2091 92.1923 78.2017 92.1952 78.2142C92.1996 78.2356 92.1923 78.2577 92.1952 78.2791L92.2055 78.2349C92.2092 78.24 92.207 78.2371 92.21 78.2437L92.2166 78.268H92.2158Z" fill="#0053A1"/>
<path fill-rule="evenodd" clip-rule="evenodd" d="M93.8581 79.5781C93.9709 79.6805 93.9569 79.897 93.8265 80.0621C93.6961 80.2271 93.4994 80.2786 93.3867 80.1762C93.274 80.0738 93.288 79.8573 93.4184 79.6922C93.5487 79.5272 93.7454 79.4757 93.8581 79.5781Z" fill="#BAD9F2"/>
<path fill-rule="evenodd" clip-rule="evenodd" d="M93.3867 80.1748C93.4994 80.2772 93.6968 80.2256 93.8272 80.0606C93.9576 79.8948 93.9716 79.6783 93.8589 79.5759C93.8117 79.5331 93.7491 79.5169 93.6836 79.5258L93.7012 79.5368C93.7381 79.57 93.7329 79.6407 93.6909 79.6937C93.6489 79.7475 93.5848 79.7637 93.5487 79.7306C93.5119 79.6974 93.5171 79.6267 93.5591 79.5737L93.5679 79.5626C93.5141 79.5906 93.4626 79.6341 93.4184 79.69C93.288 79.8551 93.274 80.0724 93.3867 80.1748Z" fill="#0053A1"/>
<path fill-rule="evenodd" clip-rule="evenodd" d="M93.3998 79.1227C93.391 79.1249 93.3836 79.1271 93.3748 79.1308C93.4006 79.1065 93.4514 79.0851 93.4772 79.0675C93.4595 79.0726 93.4506 79.0719 93.4285 79.0837C93.4094 79.094 93.3917 79.1072 93.3718 79.122C93.3858 79.0991 93.4013 79.0888 93.4168 79.0704C93.3991 79.08 93.374 79.105 93.36 79.122C93.405 79.0594 93.4042 79.0645 93.4624 79.0166C93.4308 79.0218 93.377 79.0697 93.3512 79.0999C93.3556 79.0837 93.3681 79.0652 93.3807 79.0468C93.3578 79.0638 93.3505 79.0734 93.3357 79.0955L93.3394 79.0638C93.332 79.0792 93.332 79.0851 93.3254 79.0977C93.3195 79.0586 93.3357 78.9511 93.3696 78.912C93.3608 78.9326 93.3468 78.9717 93.3468 78.9864C93.3652 78.9547 93.3807 78.9164 93.4087 78.8848C93.3998 78.9105 93.377 78.9393 93.3645 78.9665C93.3519 78.9938 93.3401 79.0262 93.3379 79.0468C93.3667 78.9916 93.3851 78.943 93.4337 78.8936L93.4256 78.9083C93.4079 78.9349 93.3866 78.9628 93.3726 78.9916C93.4101 78.9481 93.4374 78.9017 93.4904 78.8855C93.4705 78.9002 93.4558 78.9083 93.4344 78.9282C93.4646 78.9164 93.4985 78.8811 93.5265 78.8936C93.5029 78.9039 93.4838 78.9091 93.4551 78.9268C93.4322 78.9407 93.3947 78.9658 93.3836 78.9945C93.4602 78.9194 93.5273 78.8973 93.581 78.9105C93.5633 78.9113 93.5022 78.9231 93.4845 78.9422L93.4823 78.9459C93.4691 78.971 93.4993 78.9268 93.4794 78.9518C93.4654 78.9548 93.4425 78.9673 93.4271 78.9783C93.4175 78.985 93.4064 78.9938 93.3969 79.0026C93.3924 79.0063 93.3843 79.0144 93.3807 79.0188C93.377 79.024 93.377 79.0233 93.374 79.0277L93.3711 79.0336C93.4234 78.9842 93.4595 78.9621 93.5103 78.9489C93.5413 78.9408 93.6061 78.9341 93.6319 78.9452C93.6311 78.9452 93.6297 78.9452 93.6289 78.9452H93.6002C93.5295 78.9474 93.4558 78.9562 93.3843 79.0284C93.3895 79.0269 93.3843 79.0299 93.3932 79.0247C93.3961 79.0233 93.3961 79.0233 93.3983 79.021C93.4256 79.0041 93.4536 78.9857 93.4816 78.9754C93.5118 78.9636 93.5457 78.9555 93.57 78.9533C93.6024 78.9511 93.696 78.9606 93.7269 78.9901C93.7166 78.9827 93.6341 78.9658 93.6186 78.9651C93.5847 78.9628 93.5405 78.9614 93.5 78.982C93.5125 78.9849 93.5302 78.982 93.5435 78.982C93.6289 78.9849 93.7711 78.9997 93.83 79.0468C93.7843 79.0321 93.7129 79.0188 93.668 79.0218L93.6967 79.0306C93.6871 79.0306 93.6775 79.0321 93.668 79.0321C93.6576 79.0321 93.6503 79.0321 93.64 79.0321C93.5899 79.0358 93.5103 79.0468 93.458 79.0837C93.4742 79.0778 93.4941 79.0741 93.5118 79.0697C93.5309 79.0645 93.5471 79.0608 93.5656 79.0579C93.5994 79.052 93.6385 79.0454 93.6716 79.0454C93.7416 79.0454 93.8057 79.0498 93.8698 79.0704C93.8595 79.0704 93.8499 79.0682 93.8367 79.0741C93.8823 79.1006 93.9877 79.1006 94.1019 79.1676C94.0702 79.1632 94.0289 79.1411 93.9943 79.1345L93.9612 79.1308C93.9751 79.1411 94.0341 79.1559 94.0562 79.164C94.1667 79.203 94.2367 79.2251 94.3376 79.2951C94.4017 79.3393 94.4621 79.3805 94.5011 79.463C94.5262 79.5161 94.5446 79.5728 94.552 79.6354C94.5549 79.6583 94.5534 79.6723 94.5542 79.6921C94.5409 79.6568 94.5387 79.5382 94.4923 79.4822C94.5306 79.6141 94.5564 79.7246 94.552 79.8616C94.5453 79.8358 94.5431 79.7887 94.5387 79.7562C94.5335 79.7194 94.5262 79.6855 94.5188 79.6502C94.5048 79.5875 94.4761 79.4955 94.4378 79.4439C94.4407 79.4645 94.4569 79.5072 94.4636 79.5293C94.5129 79.6892 94.549 79.8586 94.5667 80.0354C94.5689 80.0568 94.5682 80.1047 94.5711 80.1187C94.5645 80.1062 94.5556 80.0347 94.5505 80.0126C94.5269 79.8977 94.5026 79.7901 94.4407 79.6973C94.4459 79.7371 94.5416 79.9308 94.5468 80.0266L94.4783 79.841C94.4555 79.7872 94.4157 79.6988 94.3766 79.6597C94.4186 79.7084 94.5299 79.9699 94.5372 80.0435C94.5232 80.0192 94.5092 79.9743 94.496 79.9448C94.4805 79.9102 94.4643 79.8778 94.4466 79.8454C94.4105 79.7791 94.3678 79.7142 94.3162 79.6634C94.247 79.5942 94.1696 79.5441 94.0849 79.5021C94.0606 79.4903 94.0252 79.477 94.0039 79.463C94.0245 79.4608 94.065 79.4829 94.0812 79.4896C94.1321 79.5109 94.1807 79.5367 94.2264 79.5669C94.2448 79.5787 94.2779 79.6104 94.2949 79.617C94.2536 79.5618 94.2065 79.5397 94.1659 79.4999C94.1711 79.5021 94.1682 79.5014 94.1726 79.5021C94.1785 79.5028 94.1755 79.5021 94.1807 79.5021C94.1542 79.4785 94.0893 79.4557 94.0562 79.4461C94.0171 79.4351 93.9302 79.4262 93.9265 79.4255C93.9398 79.4225 93.9501 79.4225 93.9626 79.4181L93.8683 79.3909L93.9958 79.4071C93.9751 79.3975 93.9398 79.3938 93.917 79.3879C93.889 79.3805 93.8315 79.3643 93.8035 79.3614C93.7696 79.3577 93.7188 79.3356 93.6923 79.3194C93.7063 79.3172 93.7453 79.3268 93.7637 79.329L93.8322 79.3393C93.8455 79.3408 93.8558 79.343 93.8676 79.343C93.9037 79.3415 93.9368 79.3467 93.9715 79.3496C94.0333 79.3548 94.1998 79.3894 94.2337 79.4402C94.1925 79.3717 94.0297 79.3408 93.9685 79.3349L93.8256 79.3238C93.8131 79.3216 93.8028 79.3231 93.7895 79.3216C93.7556 79.3187 93.7188 79.3165 93.6849 79.3091L93.6923 79.3032L93.6937 79.3017C93.6937 79.3017 93.6937 79.3017 93.6952 79.3002C93.6952 79.3002 93.696 79.2995 93.6967 79.2988C93.6827 79.301 93.6459 79.2973 93.6326 79.2899C93.6797 79.2745 93.76 79.2899 93.8101 79.2627C93.7821 79.2583 93.7394 79.2664 93.7077 79.2708C93.6967 79.2723 93.6864 79.2708 93.6761 79.273C93.721 79.2435 93.7785 79.2317 93.8234 79.2229L93.8713 79.2177C93.8448 79.203 93.7917 79.2163 93.7564 79.2266C93.7217 79.2369 93.6856 79.2531 93.6503 79.2693C93.6466 79.2715 93.6466 79.2708 93.6429 79.2723C93.6355 79.2745 93.6392 79.2737 93.6348 79.273L93.6967 79.2339C93.6849 79.2413 93.6223 79.2649 93.6105 79.2789C93.6341 79.2524 93.6635 79.2391 93.6879 79.2222L93.6628 79.2266C93.7247 79.1868 93.8094 79.1861 93.8683 79.175C93.83 79.1566 93.7195 79.1809 93.665 79.2104C93.6392 79.2244 93.6134 79.2457 93.5906 79.256L93.6326 79.22C93.6326 79.22 93.6304 79.22 93.6297 79.22L93.5936 79.2362C93.6451 79.1905 93.6849 79.1743 93.732 79.1559C93.7195 79.1522 93.7048 79.1566 93.6893 79.1618C93.6753 79.1662 93.6591 79.1728 93.6444 79.1809C93.6134 79.1979 93.5818 79.2185 93.5501 79.2457C93.5575 79.2317 93.581 79.2111 93.595 79.1986C93.5862 79.1964 93.595 79.1971 93.5847 79.1986C93.567 79.2015 93.5449 79.2185 93.528 79.2281L93.5552 79.1978L93.5162 79.22C93.5405 79.192 93.5589 79.1802 93.5825 79.1581C93.5604 79.1617 93.5383 79.1809 93.5155 79.2001C93.5206 79.1883 93.5354 79.1735 93.5471 79.1625L93.5103 79.1765C93.4993 79.1824 93.4875 79.1897 93.4772 79.1949C93.5022 79.1699 93.5228 79.161 93.5464 79.1448C93.5147 79.1485 93.4889 79.1706 93.4543 79.1897C93.4823 79.1588 93.5339 79.1212 93.5611 79.1102C93.5361 79.1006 93.4683 79.1699 93.4462 79.1794L93.4705 79.1455C93.4705 79.1455 93.4691 79.1455 93.4632 79.1485L93.4263 79.1735L93.458 79.1308C93.4411 79.1374 93.43 79.1507 93.4116 79.164C93.4138 79.1625 93.4366 79.1271 93.4551 79.1109C93.4484 79.1109 93.4551 79.1094 93.4447 79.1131C93.4271 79.119 93.4101 79.1352 93.3924 79.1419L93.4263 79.1139C93.4212 79.1139 93.4241 79.1139 93.4182 79.1139L93.3976 79.1198L93.3998 79.1227Z" fill="#0053A1"/>
<path fill-rule="evenodd" clip-rule="evenodd" d="M92.5311 79.5453C92.5244 79.51 92.5465 79.4746 92.5826 79.468C92.618 79.4613 92.6533 79.4834 92.66 79.5195C92.6777 79.6072 92.5996 79.9615 92.5016 80.3277C92.3859 80.7615 92.2386 81.2242 92.1892 81.2831C91.9454 81.5756 91.703 81.426 91.5388 81.3251L91.5358 81.3229C91.4931 81.2956 91.4563 81.2743 91.4445 81.2743C91.4084 81.2743 91.3789 81.2448 91.3789 81.2087C91.3789 81.1726 91.4084 81.1431 91.4445 81.1431C91.4931 81.1431 91.5447 81.1748 91.6065 81.2131C91.7325 81.2905 91.9174 81.4039 92.0876 81.1999C92.1266 81.1535 92.2622 80.7144 92.3741 80.2945C92.4677 79.9431 92.5436 79.6116 92.5303 79.5461L92.5311 79.5453Z" fill="#F09171"/>
<path fill-rule="evenodd" clip-rule="evenodd" d="M89.373 81.692C90.9237 81.5955 91.5948 81.9292 91.3849 82.6931C90.6328 82.1362 89.9624 81.8018 89.373 81.692Z" fill="#F09171"/>
<path fill-rule="evenodd" clip-rule="evenodd" d="M86.2079 113.081L85.6598 113.167L85.595 112.756C85.5235 112.304 85.0977 111.994 84.6447 112.064L81.0041 112.637C80.5518 112.709 80.2416 113.135 80.3131 113.588L80.3727 113.968L79.8247 114.054L79.765 113.674C79.6464 112.92 80.1628 112.209 80.9179 112.09L84.5585 111.517C85.3136 111.398 86.0245 111.915 86.1431 112.67L86.2079 113.081Z" fill="#EC743D"/>
<path fill-rule="evenodd" clip-rule="evenodd" d="M80.8634 114.515C80.8789 114.616 80.8104 114.71 80.7095 114.726L79.7666 114.874C79.6656 114.89 79.5713 114.822 79.5551 114.72L79.4594 114.112C79.4432 114.011 79.5131 113.917 79.6133 113.901L80.5555 113.752C80.6564 113.737 80.7507 113.805 80.7662 113.905L80.8627 114.514L80.8634 114.515Z" fill="#F09171"/>
<path fill-rule="evenodd" clip-rule="evenodd" d="M86.7026 113.596C86.7188 113.698 86.6503 113.791 86.5493 113.807L85.6064 113.956C85.5055 113.972 85.4112 113.903 85.395 113.802L85.2992 113.194C85.283 113.093 85.3523 112.999 85.4532 112.983L86.3961 112.834C86.4963 112.819 86.5906 112.887 86.6068 112.987L86.7026 113.596Z" fill="#F09171"/>
<path fill-rule="evenodd" clip-rule="evenodd" d="M92.8589 123.209C92.9539 123.815 92.5407 124.382 91.9351 124.477L77.9753 126.676C77.3697 126.772 76.8025 126.359 76.7075 125.754L75.1553 115.899C75.1074 115.597 75.3144 115.313 75.6172 115.266L90.6732 112.894C90.9752 112.846 91.2596 113.053 91.3067 113.355L92.8589 123.209Z" fill="#F09171"/>
<path fill-rule="evenodd" clip-rule="evenodd" d="M90.7311 113.446L75.6744 115.818C75.3723 115.865 75.1661 116.149 75.2139 116.451L75.7318 119.736C75.9219 120.945 77.0578 121.771 78.2667 121.581L83.3578 120.779L83.4462 121.34C83.5176 121.795 83.9434 122.104 84.3972 122.033C84.8503 121.961 85.1604 121.536 85.089 121.082L85.0006 120.521L90.0379 119.727C91.2475 119.536 92.074 118.401 91.884 117.192L91.3668 113.907C91.3189 113.605 91.0346 113.398 90.7318 113.446L90.7311 113.446Z" fill="#EC743D"/>
<path fill-rule="evenodd" clip-rule="evenodd" d="M91.7965 116.642C91.9873 117.851 91.1601 118.986 89.9512 119.177L78.18 121.031C76.9711 121.222 75.8359 120.396 75.6451 119.187L75.128 115.902C75.0801 115.599 75.2871 115.316 75.5884 115.268L90.6451 112.896C90.9479 112.848 91.2315 113.055 91.2794 113.357L91.7965 116.642V116.642Z" fill="#F6BCA5"/>
<path fill-rule="evenodd" clip-rule="evenodd" d="M85.0026 120.534C85.074 120.988 84.7639 121.413 84.3109 121.485C83.8571 121.557 83.4313 121.247 83.3598 120.793L83.1543 119.485L84.7971 119.227L85.0033 120.535L85.0026 120.534Z" fill="#F09171"/>
<path fill-rule="evenodd" clip-rule="evenodd" d="M84.811 120.51C84.867 120.863 84.6254 121.194 84.2733 121.249C83.9204 121.305 83.5896 121.064 83.5336 120.711L83.373 119.693L84.6504 119.492L84.811 120.51Z" fill="#FAE0DA"/>
<path d="M84.7628 119.995L83.3555 120.217L83.3901 120.437L84.7975 120.215L84.7628 119.995Z" fill="#F09171"/>
<path fill-rule="evenodd" clip-rule="evenodd" d="M84.0135 108.726C84.0135 108.726 83.8109 109.584 83.9052 109.85C84.538 111.658 85.4433 111.551 83.7976 113.427C83.7976 113.427 83.061 114.15 82.7464 113.471C82.4311 112.791 83.0551 112.505 82.5202 111.595C81.9029 110.544 81.9125 110.528 82.3877 109.631L82.5217 108.625L84.0127 108.726H84.0135Z" fill="#F4AE7C"/>
<path fill-rule="evenodd" clip-rule="evenodd" d="M82.9962 109.761C83.8441 109.571 84.6625 109.14 84.6625 109.14C84.6625 109.14 83.8536 100.975 83.8662 100.191C83.8743 99.6852 83.2614 92.9719 84.4209 89.9958C85.5612 87.0683 84.8135 82.5157 83.0455 81.8711C83.0455 81.8711 79.5066 82.4995 79.6922 87.9375C79.1883 92.3575 78.9769 96.1772 79.4248 100.12C80.006 103.998 81.7247 109.773 81.7247 109.773C81.7247 109.773 82.3317 109.909 82.9954 109.761H82.9962Z" fill="#498AC9"/>
<path fill-rule="evenodd" clip-rule="evenodd" d="M171.123 153.468H108.956C107.993 153.468 107.205 152.679 107.205 151.717V57.2804C107.205 56.3168 107.993 55.5293 108.956 55.5293H171.123C172.087 55.5293 172.874 56.3168 172.874 57.2804V151.717C172.874 152.68 172.087 153.468 171.123 153.468ZM108.956 146.187H171.124C171.411 146.187 171.645 145.953 171.645 145.666V57.2804C171.645 56.9938 171.411 56.7595 171.124 56.7595H108.956C108.67 56.7595 108.435 56.9938 108.435 57.2804V145.666C108.435 145.953 108.67 146.187 108.956 146.187Z" fill="#EC743D"/>
<path fill-rule="evenodd" clip-rule="evenodd" d="M171.124 146.187H108.956C108.67 146.187 108.436 145.953 108.436 145.667V57.2806C108.436 56.994 108.67 56.7598 108.956 56.7598H171.124C171.411 56.7598 171.645 56.994 171.645 57.2806V145.667C171.645 145.953 171.411 146.187 171.124 146.187Z" fill="white"/>
<path fill-rule="evenodd" clip-rule="evenodd" d="M171.124 146.187H108.956C108.67 146.187 108.436 145.953 108.436 145.667V57.2806C108.436 56.994 108.67 56.7598 108.956 56.7598H171.124C171.411 56.7598 171.645 56.994 171.645 57.2806V145.667C171.645 145.953 171.411 146.187 171.124 146.187Z" fill="#EB6622"/>
<path d="M171.106 57.2988H108.977V145.647H171.106V57.2988Z" fill="#FAE0DA"/>
<path d="M171.106 57.2988H108.977V62.0076H171.106V57.2988Z" fill="#F09171"/>
<path fill-rule="evenodd" clip-rule="evenodd" d="M120.022 58.9805C119.542 58.9805 119.153 59.3694 119.153 59.849C119.153 60.3286 119.542 60.7168 120.022 60.7168C120.502 60.7168 120.891 60.3278 120.891 59.849C120.891 59.3702 120.502 58.9805 120.022 58.9805ZM111.992 58.9805C111.512 58.9805 111.123 59.3694 111.123 59.849C111.123 60.3286 111.512 60.7168 111.992 60.7168C112.471 60.7168 112.86 60.3278 112.86 59.849C112.86 59.3702 112.471 58.9805 111.992 58.9805ZM116.006 58.9805C115.527 58.9805 115.139 59.3694 115.139 59.849C115.139 60.3286 115.527 60.7168 116.006 60.7168C116.486 60.7168 116.875 60.3278 116.875 59.849C116.875 59.3702 116.486 58.9805 116.006 58.9805Z" fill="white"/>
<path d="M107.067 63.6289H107.066C106.884 63.6289 106.736 63.7763 106.736 63.9582V78.2333C106.736 78.4152 106.884 78.5626 107.066 78.5626H107.067C107.249 78.5626 107.396 78.4152 107.396 78.2333V63.9582C107.396 63.7763 107.249 63.6289 107.067 63.6289Z" fill="#EC743D"/>
<path d="M107.067 79.0625H107.066C106.884 79.0625 106.736 79.2099 106.736 79.3918V93.6669C106.736 93.8488 106.884 93.9962 107.066 93.9962H107.067C107.249 93.9962 107.396 93.8488 107.396 93.6669V79.3918C107.396 79.2099 107.249 79.0625 107.067 79.0625Z" fill="#EC743D"/>
<path fill-rule="evenodd" clip-rule="evenodd" d="M172.797 76.4699V90.745C172.797 90.9263 172.945 91.0743 173.126 91.0743H173.127C173.308 91.0743 173.456 90.9263 173.456 90.745V76.4699C173.456 76.2887 173.308 76.1406 173.127 76.1406H173.126C172.945 76.1406 172.797 76.2887 172.797 76.4699Z" fill="#EC743D"/>
<path d="M167.421 65.2793H111.459V142.867H167.421V65.2793Z" fill="white"/>
<path fill-rule="evenodd" clip-rule="evenodd" d="M159.385 95.9245H123.731C123.641 95.9245 123.568 95.8523 123.568 95.7617C123.568 95.6711 123.641 95.5989 123.73 95.5989H159.385C159.476 95.5989 159.548 95.6718 159.548 95.7617C159.548 95.8516 159.476 95.9245 159.385 95.9245ZM159.385 90.6272H123.731C123.641 90.6272 123.568 90.5542 123.568 90.4643C123.568 90.3745 123.641 90.3023 123.73 90.3023H159.385C159.476 90.3023 159.548 90.3752 159.548 90.4643C159.548 90.5535 159.476 90.6272 159.385 90.6272ZM159.385 69.4362H123.731C123.641 69.4362 123.568 69.3633 123.568 69.2734C123.568 69.1835 123.641 69.1113 123.73 69.1113H159.385C159.476 69.1113 159.548 69.1843 159.548 69.2734C159.548 69.3625 159.476 69.4362 159.385 69.4362ZM159.385 74.7336H123.731C123.641 74.7336 123.568 74.6606 123.568 74.5708C123.568 74.4809 123.641 74.408 123.73 74.408H159.385C159.476 74.408 159.548 74.4802 159.548 74.5708C159.548 74.6614 159.476 74.7336 159.385 74.7336ZM159.385 80.0317H123.731C123.641 80.0317 123.568 79.9587 123.568 79.8689C123.568 79.779 123.641 79.7061 123.73 79.7061H159.385C159.476 79.7061 159.548 79.779 159.548 79.8689C159.548 79.9587 159.476 80.0317 159.385 80.0317ZM159.385 85.329H123.731C123.641 85.329 123.568 85.2561 123.568 85.1662C123.568 85.0764 123.641 85.0034 123.73 85.0034H159.385C159.476 85.0034 159.548 85.0764 159.548 85.1662C159.548 85.2561 159.476 85.329 159.385 85.329Z" fill="#EC743D"/>
<path fill-rule="evenodd" clip-rule="evenodd" d="M159.278 101.385H122.182C122.002 101.385 121.857 101.24 121.857 101.061V69.2741C121.857 69.0943 122.003 68.9492 122.182 68.9492C122.362 68.9492 122.507 69.0943 122.507 69.2741V100.735H159.278C159.458 100.735 159.603 100.881 159.603 101.061C159.603 101.24 159.458 101.385 159.278 101.385Z" fill="#EC743D"/>
<path fill-rule="evenodd" clip-rule="evenodd" d="M119.37 99.1324H119.149V97.7622L118.776 97.9899L118.679 97.8344L119.175 97.5272H119.37V99.1324ZM119.892 71.8065C119.892 72.2795 119.998 72.4614 120.2 72.4614C120.402 72.4614 120.508 72.2795 120.508 71.8065C120.508 71.3336 120.4 71.1538 120.2 71.1538C119.998 71.1538 119.892 71.3365 119.892 71.8065ZM120.738 71.8065C120.738 72.3391 120.56 72.6375 120.2 72.6375C119.84 72.6375 119.662 72.3399 119.662 71.8065C119.662 71.2732 119.839 70.9785 120.2 70.9785C120.56 70.9785 120.738 71.2761 120.738 71.8065ZM119.21 72.071C119.21 71.8168 119.103 71.7277 118.952 71.7277C118.807 71.7277 118.687 71.8161 118.605 71.9487C118.616 72.2994 118.709 72.4622 118.923 72.4622C119.112 72.4622 119.209 72.306 119.209 72.071H119.21ZM119.433 72.0636C119.433 72.4143 119.206 72.6375 118.923 72.6375C118.531 72.6375 118.382 72.3156 118.382 71.8551C118.382 71.3292 118.61 70.9792 118.988 70.9792C119.119 70.9792 119.227 71.0153 119.32 71.078L119.234 71.2246C119.159 71.1789 119.075 71.1546 118.987 71.1546C118.753 71.1546 118.615 71.3969 118.602 71.7645C118.709 71.615 118.838 71.5531 118.988 71.5531C119.224 71.5531 119.433 71.7211 119.433 72.0644L119.433 72.0636ZM119.855 77.112C119.855 77.5849 119.96 77.7676 120.162 77.7676C120.361 77.7676 120.469 77.5849 120.469 77.112C120.469 76.6391 120.361 76.4593 120.162 76.4593C119.96 76.4593 119.855 76.642 119.855 77.112ZM120.7 77.112C120.7 77.6453 120.521 77.943 120.162 77.943C119.802 77.943 119.624 77.6453 119.624 77.112C119.624 76.5786 119.801 76.284 120.162 76.284C120.523 76.284 120.7 76.5816 120.7 77.112ZM119.297 76.4807H118.671V76.9536C118.755 76.9109 118.842 76.891 118.928 76.891C119.199 76.891 119.383 77.0811 119.383 77.4C119.383 77.719 119.16 77.943 118.826 77.943C118.622 77.943 118.476 77.8656 118.351 77.7389L118.486 77.6092C118.581 77.7124 118.686 77.7632 118.823 77.7632C119.025 77.7632 119.153 77.6314 119.153 77.3956C119.153 77.1481 119.025 77.0619 118.86 77.0619C118.773 77.0619 118.708 77.0811 118.632 77.1172H118.459V76.3083H119.327L119.296 76.4814L119.297 76.4807ZM119.891 82.416C119.891 82.8889 119.997 83.0716 120.198 83.0716C120.399 83.0716 120.506 82.8889 120.506 82.416C120.506 81.9453 120.398 81.7633 120.198 81.7633C119.998 81.7633 119.89 81.946 119.891 82.416ZM120.736 82.416C120.736 82.9486 120.559 83.247 120.198 83.247C119.837 83.247 119.66 82.9486 119.66 82.416C119.66 81.8834 119.838 81.588 120.198 81.588C120.558 81.588 120.736 81.8856 120.736 82.416ZM119.456 82.8219H119.248V83.2182H119.034V82.8219H118.347V82.6635L118.829 81.588L119.015 81.6646L118.58 82.6466H119.036L119.055 82.2141H119.248V82.6466H119.456V82.8219ZM119.852 87.7215C119.852 88.1944 119.958 88.3764 120.159 88.3764C120.36 88.3764 120.465 88.1944 120.465 87.7215C120.465 87.2485 120.359 87.0688 120.159 87.0688C119.959 87.0688 119.852 87.2515 119.852 87.7215ZM120.697 87.7215C120.697 88.2548 120.52 88.5524 120.159 88.5524C119.798 88.5524 119.621 88.2548 119.621 87.7215C119.621 87.1881 119.8 86.8935 120.159 86.8935C120.518 86.8935 120.697 87.1911 120.697 87.7215ZM119.307 87.3008C119.307 87.5049 119.175 87.6272 118.994 87.6706C119.196 87.6898 119.357 87.8172 119.357 88.0596C119.357 88.3403 119.143 88.5517 118.809 88.5517C118.618 88.5517 118.449 88.4817 118.326 88.3359L118.459 88.2136C118.564 88.3241 118.672 88.372 118.802 88.372C119.004 88.372 119.125 88.2475 119.125 88.0574C119.125 87.8364 119.002 87.7694 118.806 87.7694H118.687L118.714 87.5992H118.795C118.953 87.5992 119.085 87.5027 119.085 87.3156C119.085 87.1638 118.98 87.071 118.819 87.071C118.692 87.071 118.597 87.1145 118.488 87.2154L118.373 87.0835C118.51 86.9561 118.659 86.8935 118.832 86.8935C119.139 86.8935 119.307 87.0857 119.307 87.3016L119.307 87.3008ZM119.847 93.0255C119.847 93.4984 119.952 93.6811 120.154 93.6811C120.356 93.6811 120.461 93.4984 120.461 93.0255C120.461 92.5525 120.353 92.3728 120.154 92.3728C119.954 92.3728 119.847 92.5547 119.847 93.0255ZM120.692 93.0255C120.692 93.5581 120.515 93.8557 120.154 93.8557C119.793 93.8557 119.616 93.5581 119.616 93.0255C119.616 92.4929 119.794 92.1975 120.154 92.1975C120.513 92.1975 120.692 92.4951 120.692 93.0255ZM119.326 92.6365C119.326 92.9363 119.134 93.1507 118.641 93.6421H119.363L119.337 93.827H118.389V93.6516C118.957 93.0608 119.095 92.9076 119.095 92.6461C119.095 92.4781 118.988 92.3794 118.831 92.3794C118.697 92.3794 118.608 92.4324 118.504 92.5547L118.355 92.4398C118.485 92.2792 118.641 92.1975 118.842 92.1975C119.137 92.1975 119.325 92.3868 119.325 92.6365H119.326ZM119.997 98.3309C119.997 98.8039 120.102 98.9866 120.305 98.9866C120.507 98.9866 120.611 98.8039 120.611 98.3309C120.611 97.8602 120.503 97.6783 120.305 97.6783C120.107 97.6783 119.997 97.8602 119.997 98.3309ZM120.842 98.3309C120.842 98.8636 120.664 99.1619 120.304 99.1619C119.945 99.1619 119.766 98.8643 119.766 98.3317C119.766 97.7991 119.943 97.5037 120.304 97.5037C120.665 97.5037 120.842 97.8013 120.842 98.3317V98.3309Z" fill="#F09171"/>
<path fill-rule="evenodd" clip-rule="evenodd" d="M132.43 76.8211L127.555 86.1761V96.7399L150.958 95.6025L156.971 95.7653L154.858 76.0999L148.682 79.1873L137.794 71.5488L132.43 76.8211Z" fill="#FAE0DA"/>
<path fill-rule="evenodd" clip-rule="evenodd" d="M158.271 76.8203L152.095 83.0672L140.732 82.1125L135.355 87.0747L130.48 93.827L127.555 99.1317H158.411L158.271 76.8203Z" fill="#F6BCA5"/>
<path fill-rule="evenodd" clip-rule="evenodd" d="M158.409 99.133L148.681 88.5235L144.617 92.6769L137.466 88.5235L131.128 93.8283L130.478 83.0685L127.878 77.9141L123.73 99.133H158.409Z" fill="#F09171"/>
<path d="M157.535 106.68H120.396C118.752 106.68 117.42 108.012 117.42 109.656V133.295C117.42 134.939 118.752 136.272 120.396 136.272H157.535C159.179 136.272 160.511 134.939 160.511 133.295V109.656C160.511 108.012 159.179 106.68 157.535 106.68Z" fill="#EC743D"/>
<path fill-rule="evenodd" clip-rule="evenodd" d="M157.535 107.689H120.396C119.316 107.689 118.432 108.573 118.432 109.655V133.295C118.432 134.375 119.316 135.26 120.396 135.26H157.535C158.616 135.26 159.501 134.376 159.501 133.295V109.655C159.501 108.574 158.617 107.689 157.535 107.689Z" fill="#FAE0DA"/>
<path d="M150.948 124.916H147.361V131.945H150.948V124.916Z" fill="#F6BCA5"/>
<path d="M146.433 122.869H142.846V131.946H146.433V122.869Z" fill="#F6BCA5"/>
<path d="M141.917 121.85H138.33V131.945H141.917V121.85Z" fill="#F6BCA5"/>
<path d="M137.399 119.738H133.812V131.946H137.399V119.738Z" fill="#F6BCA5"/>
<path d="M132.883 119.006H129.297V131.945H132.883V119.006Z" fill="#F6BCA5"/>
<path d="M128.366 116.209H124.779V131.946H128.366V116.209Z" fill="#F6BCA5"/>
<path fill-rule="evenodd" clip-rule="evenodd" d="M157.713 128.404V115.096H153.548V128.404H152.383L154.006 131.216L155.631 134.029L157.254 131.216L158.879 128.404H157.713Z" fill="#EC743D"/>
<path fill-rule="evenodd" clip-rule="evenodd" d="M157.341 115.467H153.919V128.774H153.025L155.63 133.287L158.235 128.774H157.341V115.467Z" fill="#F08F64"/>
<path fill-rule="evenodd" clip-rule="evenodd" d="M156.97 115.838H154.29V129.146H153.668L155.63 132.545L157.592 129.146H156.97V115.838Z" fill="#F3AB8C"/>
<path fill-rule="evenodd" clip-rule="evenodd" d="M156.601 116.209H154.662V129.517H154.312L155.632 131.802L156.951 129.517H156.601V116.209Z" fill="#F7C7B1"/>
<path fill-rule="evenodd" clip-rule="evenodd" d="M156.227 116.58H155.031V129.888H154.953L155.629 131.06L156.306 129.888H156.227V116.58Z" fill="#FBE3D9"/>
<path fill-rule="evenodd" clip-rule="evenodd" d="M155.857 116.951H155.404V129.925L155.631 130.317L155.857 129.925V116.951Z" fill="white"/>
<path fill-rule="evenodd" clip-rule="evenodd" d="M128.366 121.85V131.945H124.779V121.85H128.366ZM132.882 123.587V131.945H129.296V123.587H132.882ZM141.915 127.904V131.945H138.328V127.904H141.915ZM146.431 129V131.945H142.845V129H146.431ZM150.948 129.397V131.945H147.362V129.397H150.948ZM137.398 125.475V131.945H133.812V125.475H137.398Z" fill="#EC743D"/>
<path d="M128.028 109.688H122.363V110.522H128.028V109.688Z" fill="#EC743D"/>
<path fill-rule="evenodd" clip-rule="evenodd" d="M125.108 110.951H128.028V111.291H125.108V110.951ZM122.362 111.857V112.197H121.648V111.857H122.362ZM127.266 111.857H128.027V112.197H127.266V111.857ZM123.822 111.857V112.083H124.012V111.857H127.028V112.197H122.537V111.857H123.822ZM122.767 110.951H124.632V111.291H122.767V110.951Z" fill="#EC743D"/>
<path fill-rule="evenodd" clip-rule="evenodd" d="M152.545 113.72H154.745C154.938 113.72 155.095 113.564 155.095 113.37V113.363C155.095 113.17 154.938 113.014 154.745 113.014H152.545C152.352 113.014 152.196 113.17 152.196 113.363V113.37C152.196 113.563 152.353 113.72 152.545 113.72ZM125.555 113.72H127.755C127.948 113.72 128.105 113.564 128.105 113.37V113.363C128.105 113.17 127.948 113.014 127.755 113.014H125.555C125.362 113.014 125.205 113.17 125.205 113.363V113.37C125.205 113.563 125.361 113.72 125.555 113.72ZM129.99 113.72H132.191C132.384 113.72 132.541 113.564 132.541 113.37V113.363C132.541 113.17 132.385 113.014 132.192 113.014H129.991C129.798 113.014 129.642 113.17 129.642 113.363V113.37C129.642 113.563 129.798 113.72 129.991 113.72H129.99ZM134.507 113.72H136.707C136.9 113.72 137.057 113.564 137.057 113.37V113.363C137.057 113.17 136.901 113.014 136.707 113.014H134.507C134.314 113.014 134.157 113.17 134.157 113.363V113.37C134.157 113.563 134.313 113.72 134.507 113.72ZM139.023 113.72H141.224C141.416 113.72 141.573 113.564 141.573 113.37V113.363C141.573 113.17 141.416 113.014 141.224 113.014H139.023C138.83 113.014 138.673 113.17 138.673 113.363V113.37C138.673 113.563 138.83 113.72 139.023 113.72ZM143.539 113.72H145.74C145.933 113.72 146.089 113.564 146.089 113.37V113.363C146.089 113.17 145.933 113.014 145.74 113.014H143.539C143.346 113.014 143.19 113.17 143.19 113.363V113.37C143.19 113.563 143.346 113.72 143.539 113.72ZM148.056 113.72H150.256C150.449 113.72 150.606 113.564 150.606 113.37V113.363C150.606 113.17 150.45 113.014 150.256 113.014H148.056C147.863 113.014 147.706 113.17 147.706 113.363V113.37C147.706 113.563 147.862 113.72 148.056 113.72Z" fill="#EC743D"/>
<path fill-rule="evenodd" clip-rule="evenodd" d="M35.0778 88.4756C34.8966 88.2413 34.6476 88.0645 34.3986 87.9091C34.3323 87.8678 34.2365 87.8958 34.2004 87.9636C34.0074 88.3231 33.8292 88.6914 33.6082 89.0347C33.5352 89.1482 33.4313 89.2984 33.3393 89.3647C33.3334 89.3692 33.3098 89.3802 33.2995 89.3861C33.298 89.3846 33.2965 89.3824 33.2951 89.3795C33.2774 89.353 33.2663 89.3235 33.2568 89.2926C33.0844 88.7644 33.2929 88.1986 33.1573 87.6667C33.0859 87.3853 32.9076 87.0921 32.7043 86.8866C32.484 86.6634 32.1886 86.5595 32.0508 86.2582C32.0302 86.2133 31.9926 86.1912 31.9521 86.1875H31.9249C31.8755 86.1919 31.8262 86.2192 31.7982 86.259C31.4799 86.7164 31.0357 87.1886 30.9503 87.7603C30.8751 88.2678 31.1499 88.6914 31.4416 89.0767C31.5831 89.2631 31.723 89.4524 31.8328 89.6594C31.8932 89.7736 31.9978 89.9799 31.888 90.0918C31.7731 90.209 31.5978 89.9997 31.5064 89.9062C31.3193 89.7132 31.1617 89.4937 31.0003 89.28C30.7329 88.9272 30.3094 88.3909 29.8055 88.4881C29.5837 88.5308 29.4931 88.7607 29.4813 88.9603C29.4629 89.2778 29.6184 89.6196 29.7745 89.8863C30.1289 90.4911 30.8479 90.6664 31.3098 91.1541C31.4166 91.2661 31.7076 91.6499 31.5403 91.8083C31.4821 91.8628 31.3458 91.8451 31.2773 91.8341C31.1079 91.8083 30.9215 91.7457 30.7852 91.6403C30.2652 91.2388 30.0758 90.5397 29.53 90.1589C29.2905 89.9924 28.9215 89.89 28.6334 89.9585C28.3896 90.0167 28.2769 90.2465 28.2658 90.4778C28.2526 90.7585 28.3808 91.048 28.5215 91.2823C28.685 91.5534 28.9097 91.7795 29.1845 91.9364C29.7348 92.2495 30.4316 92.2886 30.7978 92.8654C30.8479 92.9442 30.9024 93.0473 30.8773 93.1431C30.8582 93.2175 30.7528 93.2411 30.6902 93.2551C30.4081 93.317 30.0375 93.2131 29.79 93.0812C29.4902 92.9214 29.2721 92.6333 29.0423 92.3917C28.7999 92.1368 28.5296 91.9291 28.1892 91.8252C27.9417 91.7508 27.6382 91.7626 27.4791 91.9932C27.3325 92.2053 27.3627 92.4904 27.4224 92.7254C27.5012 93.037 27.6714 93.3258 27.8798 93.5674C28.1053 93.8289 28.4611 93.977 28.7793 94.0838C29.1108 94.1943 29.4548 94.2621 29.7826 94.3859C29.8688 94.4183 29.9366 94.4419 30.0316 94.4485C30.1326 94.4558 30.235 94.4507 30.3344 94.4765C30.4176 94.4978 30.3624 94.5862 30.3344 94.6466C30.2666 94.7925 30.0493 94.7859 29.9123 94.7969C29.7826 94.8065 29.6545 94.8396 29.5248 94.8411C29.376 94.8419 29.2265 94.8146 29.0799 94.7918C28.7881 94.7476 28.4802 94.696 28.1922 94.7837C27.9137 94.8684 27.717 95.1306 27.6669 95.412C27.5616 96.0028 28.2224 96.3631 28.7123 96.4382C29.0268 96.4861 29.3112 96.4176 29.5874 96.2614C29.9278 96.0691 30.1952 95.7914 30.5886 95.7435C30.6143 95.9004 30.5583 96.0264 30.4184 96.1443C30.2261 96.3064 29.9602 96.394 29.7289 96.4802C29.2721 96.6504 28.6032 96.8007 28.3587 97.2743C28.3285 97.3318 28.3351 97.4032 28.383 97.4497C28.5996 97.6567 28.8493 97.8187 29.1535 97.843C29.4062 97.8629 29.653 97.7458 29.8578 97.6102C30.2239 97.3671 30.5392 96.9892 30.951 96.8183C30.8943 96.9222 30.7992 96.9929 30.6843 97.0828C30.4788 97.2419 30.3734 97.4637 30.3167 97.7126C30.2305 98.0906 30.3617 98.4994 30.8051 98.5016C31.0475 98.5031 31.2899 98.3808 31.4917 98.2593C31.723 98.1208 31.9079 97.9189 32.0516 97.6935C32.2298 97.4136 32.3286 97.0902 32.3831 96.7601C32.7544 97.4821 33.5595 98.2372 34.319 97.6132C34.968 97.0791 33.8984 96.6703 33.4763 96.2504C33.5595 96.2843 33.6406 96.327 33.7172 96.366C33.9374 96.4787 34.1518 96.604 34.3817 96.6968C34.8104 96.8714 35.2914 96.8552 35.5485 96.4139C35.7695 96.033 35.3113 95.8562 35.0284 95.7715C34.7986 95.7023 34.3684 95.6279 34.2019 95.3966C34.7691 95.4585 35.3997 95.5292 35.8889 95.2021C36.1106 95.0533 36.3765 94.7675 36.4031 94.4883C36.4244 94.2606 36.1784 94.1796 36.0001 94.1619C35.5161 94.114 35.0461 94.3269 34.5607 94.3122C34.4443 94.3078 34.3286 94.2953 34.2152 94.2702C34.1724 94.2606 34.129 94.2488 34.0892 94.2312C34.0745 94.2245 34.059 94.2113 34.0479 94.2032C34.0501 94.1965 34.0538 94.1884 34.0612 94.1803C34.1039 94.1302 34.1607 94.0934 34.2152 94.0566C34.3389 93.9748 34.4693 93.9277 34.6174 93.9122C34.8988 93.882 35.1809 93.9173 35.4616 93.8687C35.7776 93.8142 36.034 93.6308 36.2425 93.395C36.4281 93.1866 36.6064 92.9214 36.6358 92.6363C36.6661 92.3416 36.4878 92.1427 36.2248 92.0418C35.4889 91.7604 35.0586 92.5199 34.5341 92.8646C34.3956 92.956 34.2299 93.0164 34.0715 93.065C34.0067 93.0849 33.8174 93.1497 33.7547 93.0996C33.7172 93.0687 33.8424 92.8698 33.866 92.8315C33.9721 92.6606 34.1069 92.5413 34.28 92.4418C34.719 92.1906 35.2539 92.1125 35.5994 91.7162C35.827 91.4561 36.0053 91.0141 35.7835 90.6966C35.5478 90.36 35.0233 90.4513 34.7264 90.6465C34.3537 90.8933 34.1658 91.3928 33.7172 91.5114C33.6781 91.2992 33.7614 91.1033 33.9043 90.914C34.1135 90.6377 34.3831 90.4108 34.6321 90.1707C34.8701 89.9415 35.1146 89.6918 35.2384 89.3787C35.3651 89.059 35.2841 88.7364 35.0778 88.4712V88.4756Z" fill="#86BAE4"/>
<path fill-rule="evenodd" clip-rule="evenodd" d="M46.1642 98.7076C46.2357 98.4196 46.2209 98.1154 46.1893 97.8236C46.1804 97.7463 46.0986 97.6881 46.0235 97.7021C45.622 97.7728 45.222 97.8605 44.8154 97.8995C44.682 97.9128 44.4993 97.9238 44.3903 97.8929C44.3837 97.8907 44.3601 97.8789 44.3491 97.8745C44.3491 97.8723 44.3498 97.87 44.3513 97.8664C44.3616 97.8354 44.3778 97.8096 44.3955 97.7831C44.7041 97.3205 45.278 97.1348 45.6117 96.6987C45.7885 96.4682 45.9078 96.147 45.9439 95.8597C45.983 95.5488 45.8813 95.2519 46.0331 94.958C46.0883 94.8504 45.9741 94.7547 45.8762 94.7606C45.32 94.7945 44.6739 94.7363 44.1723 95.0243C43.7273 95.2792 43.5645 95.7573 43.443 96.2251C43.384 96.4512 43.3214 96.6781 43.2271 96.8932C43.1748 97.0111 43.0776 97.221 42.9214 97.2041C42.7579 97.1864 42.8138 96.919 42.8315 96.7894C42.8676 96.5234 42.9428 96.2634 43.0098 96.0041C43.121 95.5753 43.2809 94.9109 42.8927 94.5757C42.7218 94.4283 42.4853 94.4991 42.321 94.6132C42.0602 94.7952 41.8879 95.1282 41.7759 95.4162C41.5203 96.0689 41.8275 96.7422 41.7302 97.4067C41.7081 97.5599 41.5866 98.0262 41.3589 97.9923C41.2794 97.9805 41.2101 97.8627 41.1762 97.8023C41.0915 97.6527 41.026 97.4686 41.0237 97.2954C41.0171 96.6383 41.4488 96.0578 41.4105 95.3934C41.3936 95.1017 41.2455 94.7488 41.0134 94.5654C40.8167 94.4099 40.567 94.4637 40.3784 94.5985C40.1501 94.7613 40.002 95.0412 39.9055 95.2976C39.7935 95.5937 39.7545 95.9098 39.8016 96.2229C39.8959 96.849 40.2967 97.4207 40.0705 98.0653C40.0396 98.1529 39.9924 98.259 39.9018 98.2995C39.8318 98.3305 39.7478 98.262 39.6985 98.2214C39.4753 98.038 39.3272 97.6829 39.2778 97.4067C39.2174 97.073 39.3095 96.7231 39.3567 96.393C39.4068 96.0446 39.4023 95.7035 39.2734 95.372C39.1799 95.1319 38.9817 94.9005 38.7018 94.9182C38.4454 94.9344 38.2391 95.1341 38.0911 95.3271C37.8951 95.582 37.7736 95.8943 37.7124 96.2081C37.6469 96.547 37.75 96.9175 37.8634 97.2343C37.9813 97.5629 38.1412 97.8752 38.2465 98.2089C38.2745 98.2973 38.2981 98.3643 38.3511 98.4424C38.4086 98.5264 38.4749 98.6038 38.5161 98.6973C38.5508 98.7761 38.4476 98.7872 38.3821 98.8027C38.2259 98.8395 38.0962 98.6649 38.0027 98.5647C37.9143 98.469 37.8089 98.3887 37.7279 98.287C37.6343 98.1699 37.5644 98.0358 37.4907 97.9069C37.3456 97.6505 37.1953 97.3765 36.9478 97.2048C36.7091 97.0383 36.3813 97.0465 36.1293 97.1813C35.6004 97.4649 35.7264 98.206 35.9702 98.6377C36.1264 98.9139 36.357 99.0951 36.6502 99.2159C37.0119 99.364 37.3957 99.403 37.6763 99.6822C37.5688 99.7994 37.4354 99.8333 37.2557 99.7964C37.0097 99.7463 36.7761 99.5909 36.5647 99.4627C36.1485 99.2086 35.6166 98.7776 35.0936 98.8771C35.0302 98.8896 34.9772 98.9382 34.9706 99.0052C34.9426 99.3036 34.9691 99.5997 35.1385 99.8539C35.2792 100.065 35.5238 100.186 35.7573 100.263C36.175 100.4 36.6664 100.414 37.0553 100.632C36.9382 100.652 36.824 100.621 36.6826 100.586C36.4299 100.524 36.1912 100.578 35.9599 100.687C35.61 100.854 35.3698 101.209 35.6424 101.559C35.7912 101.749 36.0372 101.865 36.2575 101.949C36.5095 102.045 36.782 102.065 37.0487 102.038C37.3787 102.005 37.6933 101.882 37.9872 101.721C37.6498 102.459 37.5548 103.559 38.5161 103.769C39.3368 103.948 38.9964 102.856 39.065 102.264C39.09 102.351 39.1069 102.44 39.1231 102.525C39.171 102.769 39.2049 103.013 39.2734 103.253C39.4016 103.698 39.7132 104.065 40.2178 103.994C40.6539 103.932 40.5088 103.462 40.4005 103.188C40.3121 102.965 40.1051 102.581 40.1832 102.307C40.4852 102.791 40.8204 103.329 41.3803 103.511C41.6337 103.593 42.0234 103.626 42.2591 103.474C42.4514 103.349 42.3623 103.106 42.2658 102.955C42.0035 102.546 41.5453 102.308 41.2573 101.917C41.188 101.824 41.1261 101.725 41.0753 101.62C41.0562 101.581 41.0385 101.539 41.0282 101.497C41.0245 101.481 41.0245 101.46 41.0245 101.447C41.0311 101.445 41.04 101.443 41.051 101.444C41.1173 101.446 41.1814 101.467 41.2433 101.488C41.3847 101.535 41.5018 101.608 41.6057 101.715C41.8031 101.918 41.9497 102.16 42.1619 102.351C42.4006 102.565 42.7026 102.653 43.0164 102.672C43.2956 102.689 43.6146 102.664 43.8562 102.511C44.106 102.353 44.1524 102.089 44.0684 101.82C43.8341 101.069 42.9708 101.201 42.3755 101.002C42.2179 100.949 42.0676 100.856 41.9321 100.762C41.8761 100.724 41.7081 100.615 41.7088 100.535C41.7088 100.487 41.9438 100.461 41.988 100.456C42.1884 100.433 42.3652 100.465 42.5501 100.54C43.0186 100.73 43.4113 101.102 43.9373 101.128C44.2828 101.145 44.7402 101.012 44.8522 100.641C44.9708 100.248 44.5745 99.8922 44.2371 99.7802C43.8128 99.6395 43.3045 99.8009 42.9332 99.5224C43.0754 99.3603 43.2809 99.3043 43.5181 99.2999C43.8651 99.2933 44.2098 99.3647 44.5516 99.4112C44.8795 99.4561 45.2272 99.4944 45.5491 99.3979C45.8784 99.2992 46.0817 99.0355 46.1635 98.7098L46.1642 98.7076Z" fill="#A5CDED"/>
<path fill-rule="evenodd" clip-rule="evenodd" d="M26.4619 90.6997C26.1856 90.5929 25.8821 90.5686 25.5882 90.5635C25.5101 90.562 25.4423 90.6357 25.446 90.7123C25.4652 91.1196 25.502 91.527 25.4895 91.9359C25.4851 92.0699 25.4733 92.2519 25.4284 92.3565C25.4254 92.3624 25.4114 92.3845 25.4055 92.3948C25.4033 92.3941 25.4018 92.3933 25.3982 92.3926C25.3694 92.3786 25.3451 92.3587 25.3208 92.3381C24.9016 91.9734 24.7889 91.3812 24.3992 90.9944C24.1922 90.7896 23.8887 90.6305 23.6088 90.5583C23.3045 90.4802 22.9981 90.5436 22.7255 90.3565C22.6261 90.2879 22.5163 90.3889 22.5097 90.4876C22.4721 91.043 22.3336 91.6766 22.5554 92.2106C22.752 92.6843 23.2051 92.9068 23.6537 93.0858C23.871 93.1727 24.0884 93.2641 24.2895 93.3849C24.4 93.4512 24.5959 93.575 24.5591 93.7274C24.5208 93.8866 24.2629 93.7982 24.1362 93.7643C23.8769 93.695 23.6287 93.5875 23.3804 93.4873C22.9694 93.323 22.3299 93.0806 21.9483 93.4232C21.7804 93.5742 21.8209 93.8173 21.9137 93.9949C22.0618 94.277 22.3704 94.4899 22.6415 94.638C23.2567 94.9739 23.9631 94.7544 24.6107 94.9348C24.7595 94.9761 25.2066 95.1558 25.1447 95.3768C25.1234 95.4542 24.9967 95.508 24.9326 95.5345C24.7735 95.5993 24.5819 95.6413 24.411 95.6207C23.7583 95.5441 23.2368 95.0424 22.5723 94.9967C22.2813 94.9768 21.9122 95.0792 21.7008 95.2862C21.5218 95.4616 21.5432 95.7164 21.6529 95.9205C21.7855 96.1673 22.0441 96.35 22.2865 96.4782C22.5657 96.6262 22.8751 96.7051 23.1911 96.6977C23.8246 96.683 24.442 96.3581 25.0527 96.6645C25.1359 96.7065 25.2353 96.7669 25.2633 96.8612C25.2854 96.9349 25.2074 97.0093 25.1602 97.0535C24.9503 97.2524 24.579 97.3533 24.299 97.3681C23.9602 97.385 23.625 97.2502 23.3031 97.1618C22.9642 97.0682 22.6253 97.0292 22.2806 97.1154C22.0301 97.178 21.776 97.3452 21.7575 97.6244C21.7413 97.8815 21.913 98.1106 22.0861 98.2815C22.3145 98.5084 22.6084 98.6683 22.9119 98.7685C23.2397 98.876 23.6206 98.8208 23.9491 98.7486C24.2902 98.6734 24.6202 98.5541 24.965 98.4915C25.0556 98.4753 25.1256 98.4598 25.2103 98.4171C25.3009 98.3707 25.3864 98.3147 25.4843 98.2852C25.5668 98.2609 25.5646 98.3648 25.572 98.4318C25.5889 98.5917 25.3989 98.6985 25.2877 98.778C25.1816 98.8539 25.088 98.9475 24.9775 99.0152C24.8501 99.0933 24.7079 99.1464 24.5709 99.2024C24.2983 99.3136 24.0073 99.4285 23.8055 99.6517C23.6103 99.8676 23.5764 100.193 23.678 100.461C23.8924 101.021 24.6438 100.99 25.1027 100.803C25.3974 100.682 25.6059 100.478 25.7621 100.202C25.9551 99.8617 26.0413 99.486 26.3536 99.2429C26.456 99.3644 26.4729 99.5014 26.414 99.6746C26.333 99.9125 26.1503 100.125 25.9956 100.318C25.6906 100.699 25.1948 101.171 25.2287 101.703C25.2324 101.768 25.2751 101.826 25.34 101.842C25.6324 101.907 25.93 101.918 26.2033 101.782C26.4302 101.669 26.5812 101.442 26.6873 101.22C26.8766 100.824 26.9525 100.338 27.2177 99.9795C27.2229 100.098 27.1779 100.207 27.1249 100.343C27.0306 100.587 27.0542 100.83 27.1337 101.073C27.2546 101.442 27.5772 101.725 27.9581 101.499C28.1665 101.376 28.3117 101.146 28.4222 100.938C28.5496 100.7 28.6041 100.432 28.6108 100.164C28.6196 99.8329 28.5378 99.5051 28.4155 99.1935C29.1051 99.6215 30.1835 99.8543 30.5136 98.9283C30.7957 98.1364 29.6679 98.336 29.0896 98.1931C29.1787 98.1799 29.2701 98.1747 29.3563 98.1688C29.603 98.1519 29.8513 98.1489 30.0959 98.1113C30.5533 98.0406 30.957 97.7784 30.9504 97.2679C30.9445 96.8281 30.4598 96.9121 30.174 96.9842C29.9419 97.0439 29.5345 97.2001 29.273 97.0889C29.7909 96.8502 30.3677 96.5857 30.6189 96.0538C30.7331 95.8122 30.8141 95.4306 30.6933 95.1772C30.5946 94.9709 30.3412 95.0284 30.1799 95.105C29.7408 95.3135 29.4469 95.7378 29.0233 95.9743C28.9209 96.031 28.8163 96.0796 28.705 96.1165C28.6638 96.1305 28.6203 96.143 28.5769 96.1474C28.5599 96.1496 28.54 96.1459 28.5268 96.1445C28.5253 96.1371 28.5246 96.1282 28.5268 96.1179C28.5378 96.0524 28.5666 95.992 28.5945 95.9323C28.6594 95.7982 28.7463 95.6907 28.8649 95.6015C29.0911 95.4314 29.3504 95.3172 29.5662 95.1301C29.8086 94.9208 29.9345 94.6313 29.992 94.3227C30.0436 94.0486 30.0598 93.7289 29.939 93.4696C29.8137 93.2007 29.5574 93.1219 29.2804 93.1713C28.5047 93.309 28.5268 94.182 28.2542 94.7477C28.182 94.8973 28.0715 95.0343 27.961 95.1573C27.9153 95.2074 27.7864 95.3614 27.7069 95.3503C27.659 95.3437 27.6634 95.108 27.6641 95.063C27.6663 94.8612 27.7209 94.6903 27.8181 94.5157C28.0656 94.0751 28.484 93.7319 28.5769 93.214C28.6373 92.8736 28.5636 92.4029 28.2093 92.2445C27.8343 92.0773 27.4306 92.425 27.2774 92.7462C27.0844 93.1492 27.1801 93.6737 26.8568 94.0066C26.7138 93.8446 26.6844 93.6339 26.7102 93.3982C26.7477 93.0534 26.8619 92.7197 26.9518 92.3867C27.038 92.0677 27.119 91.7274 27.0645 91.3959C27.0085 91.0563 26.7728 90.8213 26.4597 90.6997H26.4619Z" fill="#86BAE4"/>
<path fill-rule="evenodd" clip-rule="evenodd" d="M40.5754 94.7043C40.5356 94.4111 40.4096 94.1333 40.2726 93.874C40.2358 93.8048 40.1385 93.782 40.073 93.8217C39.726 94.0361 39.3864 94.2652 39.0232 94.4516C38.9039 94.5127 38.7381 94.5908 38.6254 94.6019C38.6181 94.6026 38.5923 94.6011 38.5805 94.6004C38.5805 94.5982 38.5805 94.596 38.5798 94.593C38.5775 94.5606 38.5834 94.5304 38.5901 94.4987C38.7065 93.9558 39.1706 93.5705 39.3201 93.0423C39.3997 92.7624 39.3916 92.4199 39.3201 92.1399C39.2413 91.8357 39.038 91.5985 39.0704 91.2692C39.0822 91.1491 38.9407 91.102 38.8516 91.144C38.347 91.3797 37.7252 91.5653 37.365 92.0176C37.0453 92.4191 37.0703 92.923 37.13 93.4026C37.1587 93.6346 37.1845 93.8689 37.1757 94.1031C37.1705 94.2321 37.158 94.4634 37.0062 94.5046C36.8478 94.5481 36.8007 94.2799 36.769 94.1525C36.7042 93.8917 36.6777 93.6228 36.6453 93.3569C36.5908 92.9178 36.4935 92.2409 36.0088 92.0729C35.7952 91.9992 35.6021 92.1517 35.4916 92.3189C35.3163 92.5849 35.2795 92.9576 35.281 93.267C35.2846 93.9676 35.818 94.4796 35.9734 95.1337C36.0088 95.284 36.0685 95.7629 35.8445 95.8152C35.7664 95.8336 35.6581 95.7496 35.6036 95.7054C35.4703 95.5978 35.3406 95.4505 35.2751 95.2907C35.0268 94.6822 35.2139 93.9831 34.9325 93.3797C34.8088 93.1153 34.5413 92.8412 34.2577 92.7558C34.0176 92.6843 33.8047 92.8265 33.6794 93.021C33.527 93.2567 33.4923 93.5713 33.4975 93.8453C33.5026 94.1621 33.5837 94.4707 33.7428 94.7441C34.0618 95.2914 34.6445 95.6752 34.6725 96.3573C34.6762 96.4509 34.6717 96.5673 34.6025 96.638C34.5487 96.6925 34.4456 96.6601 34.3844 96.641C34.1089 96.5526 33.8408 96.277 33.6927 96.0384C33.5137 95.7503 33.4695 95.3916 33.3921 95.0667C33.3104 94.7249 33.1807 94.4089 32.9376 94.1488C32.7616 93.9595 32.4927 93.8181 32.2393 93.9381C32.0065 94.0479 31.8893 94.3094 31.823 94.5437C31.7346 94.8531 31.7369 95.1875 31.7965 95.5013C31.8606 95.8409 32.0934 96.1467 32.3151 96.3993C32.5465 96.6616 32.8102 96.8929 33.0312 97.164C33.0894 97.2362 33.1365 97.29 33.2153 97.343C33.2993 97.3997 33.3899 97.4476 33.4629 97.5191C33.524 97.5795 33.4319 97.6281 33.3774 97.6664C33.2456 97.7585 33.0606 97.6443 32.9369 97.5846C32.8198 97.5286 32.6923 97.4925 32.5796 97.4285C32.45 97.3548 32.335 97.2553 32.2194 97.1625C31.9895 96.9784 31.7494 96.7795 31.4555 96.7102C31.1718 96.6439 30.8705 96.7721 30.6864 96.9901C30.2989 97.4484 30.6893 98.0915 31.0761 98.4023C31.3236 98.602 31.6043 98.6852 31.9218 98.6889C32.3129 98.6933 32.6835 98.5865 33.0474 98.7427C32.9907 98.8915 32.8787 98.9718 32.6989 99.0042C32.4514 99.0484 32.1774 98.9902 31.9335 98.9489C31.4532 98.8657 30.7991 98.6609 30.3497 98.9475C30.2952 98.9821 30.2643 99.0477 30.2827 99.1117C30.3659 99.3998 30.5007 99.665 30.7519 99.8388C30.9604 99.9832 31.2322 100.005 31.4775 99.9906C31.9159 99.9641 32.3785 99.7961 32.8198 99.8543C32.7181 99.9162 32.601 99.9302 32.4566 99.9493C32.1987 99.9847 31.9962 100.123 31.8223 100.31C31.5586 100.594 31.4665 101.013 31.8488 101.238C32.0573 101.36 32.3284 101.376 32.5641 101.373C32.8338 101.37 33.0945 101.287 33.3325 101.164C33.6271 101.011 33.8747 100.782 34.0876 100.524C34.0463 101.334 34.3638 102.391 35.3347 102.232C36.1642 102.096 35.4445 101.205 35.2891 100.631C35.3443 100.701 35.3929 100.779 35.4393 100.852C35.5734 101.06 35.6957 101.275 35.8475 101.471C36.1303 101.837 36.5554 102.064 36.9989 101.812C37.3812 101.594 37.0733 101.211 36.8714 100.995C36.7071 100.82 36.3727 100.54 36.3447 100.257C36.8037 100.595 37.3142 100.972 37.9013 100.934C38.168 100.917 38.5414 100.803 38.7043 100.575C38.8376 100.388 38.6645 100.195 38.5193 100.091C38.1245 99.8072 37.611 99.7549 37.1992 99.4985C37.1005 99.4366 37.0062 99.3681 36.9208 99.2893C36.8891 99.2598 36.8567 99.2274 36.8316 99.192C36.8221 99.178 36.8147 99.1589 36.8103 99.1464C36.8162 99.1427 36.8235 99.1375 36.8331 99.1338C36.8957 99.1117 36.9628 99.1073 37.0283 99.1036C37.1771 99.0948 37.3134 99.1191 37.449 99.1803C37.7075 99.2959 37.933 99.4676 38.2004 99.5663C38.5009 99.6768 38.8148 99.648 39.1131 99.5486C39.3783 99.4602 39.6656 99.321 39.8343 99.0896C40.0089 98.8495 39.9544 98.5872 39.7768 98.3684C39.2818 97.7563 38.5282 98.1975 37.9013 98.2322C37.7348 98.2417 37.5617 98.2108 37.4004 98.174C37.3341 98.1585 37.1374 98.1195 37.1086 98.045C37.0917 98.0001 37.2994 97.8896 37.3392 97.8682C37.5175 97.7732 37.6928 97.7379 37.8932 97.7393C38.3985 97.7423 38.9009 97.9434 39.3989 97.7732C39.726 97.662 40.1024 97.3695 40.0693 96.9835C40.0339 96.5739 39.5345 96.3898 39.1801 96.4104C38.7345 96.4369 38.3212 96.7743 37.8733 96.652C37.9462 96.4487 38.1157 96.3212 38.3352 96.2299C38.6549 96.0958 39.0026 96.0347 39.3378 95.9522C39.659 95.8734 39.9956 95.7791 40.2594 95.5721C40.529 95.3592 40.6211 95.0387 40.5761 94.7057L40.5754 94.7043Z" fill="#BAD9F2"/>
<path fill-rule="evenodd" clip-rule="evenodd" d="M36.3711 96.8239C35.2852 98.4806 34.1124 99.2637 33.7286 101.153C33.6027 101.773 33.5644 102.409 33.5393 103.041C33.5084 103.812 33.515 104.579 33.5504 105.35C33.5923 106.255 33.6528 107.163 33.6137 108.07C33.6115 108.122 33.6086 108.174 33.6056 108.227C33.5953 108.415 33.8863 108.414 33.8966 108.227C33.9467 107.342 33.8951 106.456 33.8517 105.571C33.8126 104.782 33.7957 103.998 33.8237 103.208C33.8458 102.597 33.876 101.986 33.9806 101.383C34.3401 99.3072 37.051 96.9911 37.2919 95.5273L36.3711 96.8239Z" fill="#87B7E2"/>
<path fill-rule="evenodd" clip-rule="evenodd" d="M33.6788 108.273C33.5205 106.858 32.8692 105.591 32.1952 104.36C31.5263 103.139 30.822 101.902 30.6165 100.504C30.5893 100.319 30.3086 100.398 30.3358 100.582C30.7447 103.371 33.0733 105.457 33.3879 108.273C33.4085 108.457 33.6995 108.46 33.6788 108.273Z" fill="#87B7E2"/>
<path fill-rule="evenodd" clip-rule="evenodd" d="M37.9587 101.638C36.713 102.181 35.4924 103.014 34.6562 104.097C34.1995 104.688 33.9314 105.36 33.7634 106.065C33.7 105.33 33.5652 104.603 33.4245 103.879C33.0967 102.192 32.844 100.496 32.6857 98.7823C32.623 98.1031 32.5759 97.4216 32.5442 96.7402C32.5354 96.5531 32.2444 96.5524 32.2532 96.7402C32.3402 98.632 32.5582 100.515 32.8514 102.386C33.0503 103.652 33.3855 104.902 33.4827 106.181C33.373 105.489 33.208 104.807 32.9958 104.142C32.6923 103.19 32.2834 102.266 31.753 101.419C31.756 101.383 31.7457 101.344 31.7155 101.311C31.6794 101.27 31.6433 101.23 31.6064 101.191C31.4753 100.993 31.3368 100.8 31.1917 100.611C31.1269 100.527 31.0333 100.558 30.9847 100.625C30.7615 100.454 30.5235 100.303 30.2672 100.169C29.669 99.86 28.9242 99.6589 28.6377 98.9812C28.5647 98.8088 28.3143 98.9576 28.3857 99.1285C28.6708 99.8025 29.3662 100.053 29.974 100.348C30.5199 100.614 30.9803 100.955 31.3921 101.389C31.974 102.275 32.4079 103.258 32.7291 104.265C33.1188 105.485 33.342 106.769 33.3442 108.052C33.3442 108.059 33.3442 108.066 33.3457 108.072C33.3258 108.167 33.401 108.23 33.4805 108.236C33.5196 108.369 33.7538 108.349 33.7663 108.183C33.8732 106.806 34.0301 105.361 34.9119 104.238C35.7266 103.202 36.906 102.412 38.1053 101.889C38.277 101.814 38.1289 101.563 37.9587 101.638Z" fill="#87B7E2"/>
<path fill-rule="evenodd" clip-rule="evenodd" d="M27.2284 94.1063C26.9338 94.079 26.6347 94.1394 26.3511 94.2153C26.2759 94.2352 26.231 94.3251 26.2553 94.3973C26.3864 94.7833 26.533 95.1663 26.634 95.5619C26.6671 95.6923 26.7054 95.8706 26.6907 95.9833C26.6899 95.9907 26.6818 96.0157 26.6796 96.0275C26.6774 96.0275 26.6752 96.0275 26.6715 96.0268C26.6398 96.0216 26.6111 96.0091 26.5824 95.9958C26.0785 95.7608 25.8081 95.2223 25.3264 94.9579C25.0715 94.8179 24.7356 94.7486 24.4468 94.756C24.133 94.7649 23.856 94.91 23.5422 94.8046C23.4272 94.7656 23.3499 94.8938 23.3705 94.9903C23.4876 95.5347 23.5289 96.1822 23.8884 96.6345C24.2074 97.036 24.7046 97.1251 25.1849 97.1737C25.4177 97.1973 25.652 97.2253 25.8781 97.2865C26.0026 97.3203 26.2251 97.3844 26.2317 97.5413C26.2384 97.7056 25.9665 97.6909 25.8354 97.6931C25.5673 97.6975 25.2991 97.6629 25.0324 97.6356C24.5919 97.59 23.9112 97.5332 23.6379 97.9679C23.5178 98.1594 23.6239 98.3819 23.7617 98.527C23.9812 98.7576 24.337 98.8777 24.6383 98.9454C25.3219 99.0994 25.9407 98.6935 26.6126 98.6891C26.7673 98.6876 27.2469 98.7377 27.2476 98.9675C27.2476 99.0478 27.1415 99.1348 27.087 99.1775C26.9522 99.2836 26.7798 99.3764 26.6096 99.4044C25.9614 99.5097 25.3219 99.1709 24.6707 99.3101C24.3849 99.3712 24.0586 99.5709 23.912 99.828C23.7882 100.046 23.8788 100.285 24.0409 100.451C24.2361 100.652 24.5352 100.756 24.8033 100.813C25.1127 100.878 25.4317 100.87 25.7337 100.775C26.3385 100.587 26.8432 100.105 27.5143 100.232C27.6056 100.249 27.7176 100.28 27.7714 100.363C27.8126 100.428 27.7574 100.52 27.725 100.576C27.5776 100.825 27.2491 101.024 26.9831 101.115C26.6619 101.225 26.3025 101.187 25.9695 101.19C25.6174 101.193 25.2814 101.249 24.9735 101.427C24.7496 101.556 24.5514 101.787 24.6111 102.061C24.6656 102.313 24.8947 102.485 25.1076 102.603C25.389 102.758 25.7161 102.831 26.035 102.844C26.3798 102.858 26.7312 102.699 27.0266 102.54C27.3345 102.374 27.6181 102.168 27.9327 102.014C28.0159 101.973 28.0786 101.939 28.1485 101.874C28.2229 101.805 28.2892 101.728 28.3754 101.673C28.4484 101.626 28.4749 101.727 28.4999 101.789C28.5603 101.938 28.4071 102.093 28.3217 102.2C28.2406 102.302 28.1765 102.418 28.0889 102.513C27.9879 102.623 27.8657 102.713 27.7493 102.805C27.5179 102.987 27.2697 103.178 27.1371 103.447C27.0089 103.709 27.0664 104.031 27.2373 104.26C27.5968 104.74 28.3113 104.504 28.701 104.196C28.9508 104 29.0952 103.745 29.1696 103.437C29.2616 103.057 29.241 102.671 29.4745 102.352C29.6071 102.44 29.6602 102.568 29.6513 102.75C29.6388 103.001 29.5209 103.255 29.4252 103.483C29.2373 103.933 28.8911 104.525 29.0686 105.026C29.09 105.087 29.1475 105.132 29.2138 105.128C29.5128 105.111 29.8016 105.04 30.0278 104.834C30.2149 104.663 30.2974 104.403 30.3386 104.161C30.4116 103.728 30.3512 103.239 30.5066 102.822C30.5442 102.934 30.5309 103.052 30.5177 103.197C30.4941 103.457 30.5832 103.684 30.7269 103.897C30.9442 104.218 31.3324 104.401 31.6367 104.079C31.8031 103.902 31.8798 103.642 31.9291 103.412C31.9858 103.148 31.9645 102.876 31.8974 102.616C31.8149 102.295 31.6462 102.003 31.4429 101.737C32.223 101.958 33.3251 101.885 33.3877 100.904C33.4408 100.066 32.4116 100.568 31.8164 100.589C31.8982 100.551 31.9844 100.522 32.0661 100.492C32.2989 100.408 32.5369 100.337 32.7623 100.233C33.1829 100.039 33.4989 99.6762 33.3516 99.1871C33.2249 98.7657 32.7822 98.9801 32.528 99.1281C32.3203 99.2489 31.9726 99.5119 31.6897 99.4766C32.1221 99.1046 32.6039 98.6913 32.6989 98.1115C32.7424 97.8478 32.7144 97.4588 32.5288 97.2482C32.377 97.0772 32.1494 97.2017 32.0153 97.3196C31.6499 97.6408 31.4842 98.1299 31.1423 98.474C31.0598 98.5565 30.9722 98.6323 30.8757 98.6986C30.8396 98.723 30.8013 98.7473 30.7608 98.7642C30.746 98.7701 30.7254 98.7731 30.7121 98.7753C30.7092 98.7694 30.7062 98.7605 30.7048 98.7502C30.6974 98.6847 30.7085 98.6176 30.7195 98.5528C30.7445 98.4062 30.7991 98.2787 30.8882 98.1601C31.0591 97.934 31.2764 97.752 31.4326 97.5141C31.6079 97.2452 31.6499 96.9329 31.6204 96.6205C31.5939 96.3421 31.5225 96.0312 31.3346 95.8146C31.1401 95.5907 30.8727 95.5848 30.6193 95.7085C29.9114 96.0533 30.1722 96.8872 30.0661 97.506C30.0381 97.6703 29.9688 97.8323 29.8966 97.9811C29.8672 98.0423 29.7854 98.2257 29.7051 98.2368C29.658 98.2434 29.5968 98.0158 29.585 97.9723C29.532 97.7778 29.5372 97.5981 29.5828 97.4029C29.6992 96.9108 30.0071 96.4666 29.9541 95.9435C29.9187 95.5995 29.7184 95.1678 29.3346 95.1126C28.9279 95.0544 28.6362 95.5 28.5765 95.8514C28.5021 96.292 28.7386 96.7701 28.5191 97.1789C28.3371 97.0625 28.2509 96.868 28.2104 96.6345C28.1515 96.292 28.1699 95.9406 28.1647 95.5951C28.1596 95.2643 28.1449 94.9159 28.0012 94.6116C27.8546 94.3007 27.5629 94.1394 27.2284 94.1092V94.1063Z" fill="#A5CDED"/>
<path fill-rule="evenodd" clip-rule="evenodd" d="M28.5663 105.822H38.5982C39.0041 105.822 39.3356 106.154 39.3356 106.56V106.991C39.3356 107.16 39.1971 107.299 39.0277 107.299H28.1361C27.9666 107.299 27.8281 107.16 27.8281 106.991V106.56C27.8281 106.154 28.1596 105.822 28.5663 105.822Z" fill="#A5CDED"/>
<path fill-rule="evenodd" clip-rule="evenodd" d="M27.9224 107.221C27.8642 107.164 27.8281 107.081 27.8281 106.991V106.56C27.8281 106.272 27.9799 106.022 28.2001 105.9H38.1275C38.4582 105.9 38.7286 106.197 38.7286 106.56C38.7286 106.924 38.4582 107.221 38.1275 107.221H27.9224Z" fill="#BAD9F2"/>
<path fill-rule="evenodd" clip-rule="evenodd" d="M29.993 115.805H37.174C39.3037 115.805 41.046 113.891 41.046 111.552V110.478C41.046 108.729 39.7119 107.31 38.1199 107.308L28.8261 107.299C27.2342 107.297 26.1211 108.73 26.1211 110.479V111.552C26.1211 113.891 27.8633 115.806 29.993 115.806V115.805Z" fill="#86BAE4"/>
<path fill-rule="evenodd" clip-rule="evenodd" d="M27.9598 107.451C26.8452 107.864 26.1211 109.068 26.1211 110.478V111.551C26.1211 113.482 27.3086 115.124 28.9212 115.638C28.9727 115.641 29.025 115.642 29.0766 115.642L34.564 115.649C37.4429 115.652 40.12 113.563 40.12 110.437C40.12 108.795 38.7859 107.461 37.1939 107.46L27.9591 107.451H27.9598Z" fill="#A5CDED"/>
<path fill-rule="evenodd" clip-rule="evenodd" d="M27.758 115.02C28.0895 115.054 28.4563 115.071 28.8644 115.071L32.3474 115.076C34.9221 115.079 37.7663 113.042 37.7663 109.917C37.7663 108.887 37.3413 107.99 36.6731 107.46L27.9598 107.451C26.8452 107.864 26.1211 109.068 26.1211 110.478V111.551C26.1211 112.978 26.7694 114.246 27.758 115.019V115.02Z" fill="#C1DFF4"/>
<path fill-rule="evenodd" clip-rule="evenodd" d="M34.2715 109.245C33.957 108.75 33.182 107.853 31.6925 107.851L28.3112 107.848C27.3469 108.205 26.7207 109.247 26.7207 110.467V111.395C26.7207 118.076 35.6255 111.376 34.2715 109.245Z" fill="#DEEDF9"/>
<path fill-rule="evenodd" clip-rule="evenodd" d="M30.2445 108.995C30.1273 108.81 29.8378 108.475 29.2824 108.474C28.1037 108.473 27.2042 108.371 27.2624 109.953C27.3221 111.584 30.7498 109.789 30.2445 108.995Z" fill="white"/>
<path fill-rule="evenodd" clip-rule="evenodd" d="M30.4466 111.653C30.3295 111.469 30.04 111.134 29.4845 111.133H28.2234C27.8639 111.265 27.2944 111.699 27.4764 112.108L27.6304 112.454C28.6263 114.692 30.9513 112.447 30.4466 111.653Z" fill="white"/>
<path fill-rule="evenodd" clip-rule="evenodd" d="M27.9791 106.096H36.8015C37.1072 106.096 37.3569 106.305 37.3569 106.561C37.3569 106.816 37.1072 107.025 36.8015 107.025H27.8296C27.8289 107.014 27.8281 107.003 27.8281 106.991V106.561C27.8281 106.384 27.8848 106.223 27.9791 106.096Z" fill="#D2E5F6"/>
<path fill-rule="evenodd" clip-rule="evenodd" d="M39.2601 111.868C39.5548 111.896 39.8539 111.835 40.1375 111.759C40.2126 111.739 40.2576 111.65 40.2333 111.577C40.1021 111.191 39.9555 110.808 39.8546 110.413C39.8215 110.282 39.7824 110.104 39.7979 109.991C39.7986 109.984 39.8067 109.959 39.8089 109.947C39.8111 109.947 39.8134 109.947 39.817 109.949C39.8487 109.954 39.8774 109.966 39.9069 109.98C40.4108 110.215 40.6812 110.753 41.1629 111.018C41.4178 111.158 41.7537 111.227 42.0425 111.219C42.3563 111.211 42.6333 111.065 42.9471 111.171C43.0621 111.209 43.1394 111.082 43.1188 110.985C43.0016 110.441 42.9604 109.793 42.6009 109.341C42.2812 108.939 41.7847 108.851 41.3044 108.802C41.0716 108.777 40.8373 108.75 40.6112 108.689C40.4867 108.655 40.2642 108.591 40.2576 108.434C40.2509 108.27 40.5228 108.285 40.6539 108.282C40.922 108.278 41.1902 108.313 41.4569 108.34C41.8974 108.385 42.5781 108.442 42.8514 108.008C42.9714 107.817 42.8654 107.594 42.7276 107.449C42.5081 107.219 42.1523 107.098 41.851 107.031C41.1673 106.877 40.5485 107.283 39.8767 107.288C39.722 107.289 39.2424 107.239 39.2417 107.009C39.2417 106.929 39.3478 106.843 39.4023 106.799C39.5378 106.693 39.7102 106.6 39.8797 106.573C40.5279 106.467 41.1681 106.806 41.8186 106.667C42.1044 106.606 42.4307 106.406 42.5773 106.149C42.7011 105.931 42.6105 105.692 42.4484 105.526C42.2525 105.325 41.9541 105.221 41.686 105.164C41.3766 105.098 41.0576 105.107 40.7556 105.202C40.1507 105.389 39.6461 105.872 38.975 105.745C38.8837 105.728 38.7717 105.697 38.7179 105.614C38.6767 105.55 38.7319 105.456 38.7643 105.401C38.9117 105.152 39.2402 104.953 39.5062 104.862C39.8273 104.752 40.1868 104.79 40.5198 104.787C40.8719 104.783 41.2079 104.728 41.5158 104.55C41.7397 104.421 41.9379 104.19 41.8782 103.916C41.8237 103.665 41.5946 103.492 41.3817 103.374C41.1003 103.219 40.7732 103.146 40.4543 103.133C40.1095 103.119 39.7581 103.277 39.4627 103.437C39.1548 103.603 38.8712 103.809 38.5566 103.964C38.4734 104.004 38.4107 104.038 38.3408 104.102C38.2664 104.172 38.2001 104.25 38.1139 104.304C38.0409 104.351 38.0144 104.25 37.9894 104.188C37.929 104.038 38.0822 103.884 38.1676 103.777C38.2487 103.675 38.3128 103.559 38.4004 103.464C38.5014 103.354 38.6236 103.264 38.74 103.172C38.9713 102.99 39.2189 102.799 39.3522 102.53C39.4804 102.268 39.4229 101.946 39.252 101.716C38.8925 101.237 38.178 101.473 37.7883 101.78C37.5385 101.976 37.3941 102.231 37.3197 102.539C37.2277 102.919 37.2483 103.305 37.0148 103.624C36.8822 103.536 36.8291 103.409 36.838 103.227C36.8505 102.975 36.9683 102.721 37.0641 102.493C37.252 102.043 37.5982 101.451 37.4207 100.95C37.3993 100.889 37.3418 100.844 37.2755 100.848C36.9765 100.865 36.6877 100.936 36.4615 101.143C36.2744 101.313 36.1919 101.573 36.1506 101.816C36.0777 102.249 36.1381 102.737 35.9827 103.154C35.9451 103.042 35.9584 102.924 35.9716 102.779C35.9952 102.519 35.9061 102.292 35.7624 102.08C35.5451 101.758 35.1569 101.575 34.8526 101.898C34.6862 102.074 34.6095 102.334 34.5602 102.564C34.5035 102.828 34.5248 103.101 34.5919 103.36C34.6744 103.68 34.8431 103.974 35.0464 104.239C34.2663 104.018 33.1642 104.09 33.1016 105.072C33.0485 105.91 34.0777 105.409 34.6729 105.387C34.5911 105.424 34.5049 105.454 34.4232 105.484C34.1896 105.568 33.9524 105.638 33.727 105.742C33.3064 105.937 32.9903 106.299 33.1377 106.788C33.2644 107.21 33.7071 106.995 33.9613 106.847C34.169 106.726 34.5167 106.463 34.7996 106.499C34.3672 106.871 33.8854 107.284 33.7904 107.865C33.7469 108.128 33.7749 108.517 33.9605 108.728C34.1123 108.899 34.3399 108.774 34.474 108.656C34.8394 108.335 35.0051 107.845 35.3469 107.501C35.4287 107.419 35.5171 107.344 35.6136 107.277C35.6497 107.253 35.688 107.229 35.7285 107.212C35.7433 107.205 35.7639 107.203 35.7772 107.201C35.7801 107.207 35.7831 107.216 35.7845 107.227C35.7919 107.292 35.7808 107.359 35.7698 107.423C35.7447 107.57 35.6902 107.697 35.6011 107.816C35.4302 108.042 35.2129 108.223 35.0567 108.462C34.8814 108.73 34.8394 109.043 34.8688 109.356C34.8954 109.634 34.9668 109.945 35.1547 110.162C35.3492 110.385 35.6166 110.391 35.87 110.268C36.5779 109.923 36.3164 109.089 36.4232 108.47C36.4512 108.306 36.5205 108.144 36.5926 107.995C36.6221 107.935 36.7039 107.751 36.7834 107.739C36.8313 107.733 36.8917 107.96 36.9035 108.004C36.9566 108.198 36.9514 108.378 36.9057 108.573C36.7893 109.065 36.4814 109.509 36.5345 110.033C36.5698 110.377 36.7702 110.808 37.154 110.864C37.5614 110.922 37.8531 110.476 37.912 110.125C37.9864 109.684 37.75 109.206 37.9695 108.797C38.1514 108.914 38.2376 109.107 38.2781 109.342C38.3371 109.683 38.3187 110.036 38.3238 110.38C38.329 110.711 38.3444 111.06 38.4881 111.364C38.6347 111.675 38.9264 111.836 39.2609 111.867L39.2601 111.868Z" fill="#86BAE4"/>
<path fill-rule="evenodd" clip-rule="evenodd" d="M34.7026 104.086C34.5324 103.992 34.377 103.947 34.2363 103.942C34.0558 103.936 33.8967 103.997 33.7589 104.101C33.6153 104.211 33.493 104.368 33.3928 104.549C33.1718 104.948 33.0576 105.455 33.0458 105.826L32.8477 105.819C32.8602 105.423 32.9825 104.88 33.2197 104.452C33.3324 104.249 33.4723 104.07 33.6388 103.943C33.812 103.812 34.0131 103.735 34.2422 103.743C34.4138 103.749 34.5994 103.801 34.7991 103.911C35.9181 104.532 38.9841 108.193 38.9929 108.203C38.7498 108.376 35.8341 104.602 34.7026 104.084V104.086Z" fill="#A5CDED"/>
<path fill-rule="evenodd" clip-rule="evenodd" d="M29.034 98.9849C30.2539 100.363 31.4377 100.925 32.0432 102.612C32.2421 103.164 32.363 103.745 32.4698 104.321C32.5626 104.821 32.6392 105.32 32.7003 105.823H32.427C32.3733 105.385 32.3099 104.949 32.2304 104.513C32.1287 103.954 32.0182 103.396 31.8421 102.856C31.2336 100.996 28.4306 99.2288 28.0137 97.916L29.034 98.9849Z" fill="#87B7E2"/>
</svg>
