<svg width="193" height="193" viewBox="0 0 193 193" fill="none" xmlns="http://www.w3.org/2000/svg">
<g clip-path="url(#clip0_497_10955)">
<path d="M200 151.312H-7V151.416H200V151.312Z" fill="#EBEBEB"/>
<path d="M179.259 157.977H165.547V158.08H179.259V157.977Z" fill="#EBEBEB"/>
<path d="M130.124 159.1H126.525V159.203H130.124V159.1Z" fill="#EBEBEB"/>
<path d="M165.133 154.133H157.188V154.236H165.133V154.133Z" fill="#EBEBEB"/>
<path d="M32.6007 154.828H14.7188V154.932H32.6007V154.828Z" fill="#EBEBEB"/>
<path d="M38.909 154.828H36.2871V154.932H38.909V154.828Z" fill="#EBEBEB"/>
<path d="M86.2116 156.576H47.4297V156.68H86.2116V156.576Z" fill="#EBEBEB"/>
<path d="M91.1245 132.849H11.1815C9.87861 132.849 8.81836 131.789 8.81836 130.486V18.1131C8.81836 16.8103 9.87861 15.75 11.1815 15.75H91.1245C92.4269 15.75 93.4872 16.8103 93.4872 18.1131V130.486C93.4872 131.789 92.4269 132.849 91.1245 132.849ZM11.1815 15.8539C9.93533 15.8539 8.92186 16.8674 8.92186 18.1135V130.486C8.92186 131.733 9.93533 132.746 11.1815 132.746H91.1245C92.3702 132.746 93.3837 131.733 93.3837 130.486V18.1131C93.3837 16.8674 92.3702 15.8535 91.1245 15.8535L11.1815 15.8539Z" fill="#EBEBEB"/>
<path d="M180.671 132.849H100.728C99.4251 132.849 98.3652 131.789 98.3652 130.486V18.1131C98.3652 16.8103 99.4255 15.75 100.728 15.75H180.671C181.974 15.75 183.034 16.8103 183.034 18.1131V130.486C183.034 131.789 181.974 132.849 180.671 132.849ZM100.728 15.8539C99.4822 15.8539 98.4687 16.8674 98.4687 18.1135V130.486C98.4687 131.733 99.4822 132.746 100.728 132.746H180.671C181.917 132.746 182.93 131.733 182.93 130.486V18.1131C182.93 16.8674 181.917 15.8535 180.671 15.8535L100.728 15.8539Z" fill="#EBEBEB"/>
<path d="M19.2422 151.027V131.83H20.8837V122.683H23.2832V90.8789H26.7517V86.7749L34.1582 83.3209V79.183H35.1841V90.8789H36.6203V122.683H38.0564V105.96H41.9551V97.3423H43.043V122.683H46.004V113.039H47.9531V110.577H52.4673V102.164H54.9393V96.2137H57.9781V87.5445H59.0628V96.2137H62.1015V102.164H64.5735V110.577H69.0874V113.039H71.0369V122.683H73.3487V110.577H77.8629V84.5178H79.2991V81.6454H88.9428V84.5178H90.995V103.395H99.2026V105.242H102.28V106.678H99.2026V114.065H107.82V89.4423H109.667V84.2102H113.668V65.6406H114.797V84.2102H117.669V89.4423H134.51V87.7201H135.536V99.416H136.973V99.6209H137.835V111.317H139.272V114.497H142.307V105.879H143.395V126.398H144.606V117.78H145.694V131.22H146.356V121.576H148.305V119.114H152.82V110.701H155.292V104.751H158.33V96.0816H159.415V104.751H162.453V110.701H164.925V119.114H169.44V121.576H171.389V131.015H171.739V131.22H172.704V151.027H19.2422Z" fill="#EBEBEB"/>
<path d="M125.114 90.5918H123.951V91.7547H125.114V90.5918Z" fill="#F5F5F5"/>
<path d="M125.114 92.541H123.951V93.7039H125.114V92.541Z" fill="#F5F5F5"/>
<path d="M125.114 100.338H123.951V101.501H125.114V100.338Z" fill="#F5F5F5"/>
<path d="M125.114 102.289H123.951V103.452H125.114V102.289Z" fill="#F5F5F5"/>
<path d="M125.114 104.238H123.951V105.401H125.114V104.238Z" fill="#F5F5F5"/>
<path d="M125.114 110.086H123.951V111.249H125.114V110.086Z" fill="#F5F5F5"/>
<path d="M125.114 112.035H123.951V113.198H125.114V112.035Z" fill="#F5F5F5"/>
<path d="M123.266 98.3906H122.104V99.5536H123.266V98.3906Z" fill="#F5F5F5"/>
<path d="M123.266 100.338H122.104V101.501H123.266V100.338Z" fill="#F5F5F5"/>
<path d="M123.266 102.289H122.104V103.452H123.266V102.289Z" fill="#F5F5F5"/>
<path d="M123.266 104.238H122.104V105.401H123.266V104.238Z" fill="#F5F5F5"/>
<path d="M123.266 106.188H122.104V107.35H123.266V106.188Z" fill="#F5F5F5"/>
<path d="M123.266 110.086H122.104V111.249H123.266V110.086Z" fill="#F5F5F5"/>
<path d="M123.266 112.035H122.104V113.198H123.266V112.035Z" fill="#F5F5F5"/>
<path d="M121.421 90.5918H120.258V91.7547H121.421V90.5918Z" fill="#F5F5F5"/>
<path d="M121.421 92.541H120.258V93.7039H121.421V92.541Z" fill="#F5F5F5"/>
<path d="M121.421 94.4902H120.258V95.6532H121.421V94.4902Z" fill="#F5F5F5"/>
<path d="M121.421 96.4395H120.258V97.6024H121.421V96.4395Z" fill="#F5F5F5"/>
<path d="M121.421 98.3906H120.258V99.5536H121.421V98.3906Z" fill="#F5F5F5"/>
<path d="M121.421 100.338H120.258V101.501H121.421V100.338Z" fill="#F5F5F5"/>
<path d="M121.421 102.289H120.258V103.452H121.421V102.289Z" fill="#F5F5F5"/>
<path d="M121.421 104.238H120.258V105.401H121.421V104.238Z" fill="#F5F5F5"/>
<path d="M121.421 106.188H120.258V107.35H121.421V106.188Z" fill="#F5F5F5"/>
<path d="M121.421 108.137H120.258V109.3H121.421V108.137Z" fill="#F5F5F5"/>
<path d="M121.421 112.035H120.258V113.198H121.421V112.035Z" fill="#F5F5F5"/>
<path d="M119.575 90.5918H118.412V91.7547H119.575V90.5918Z" fill="#F5F5F5"/>
<path d="M119.575 92.541H118.412V93.7039H119.575V92.541Z" fill="#F5F5F5"/>
<path d="M119.575 94.4902H118.412V95.6532H119.575V94.4902Z" fill="#F5F5F5"/>
<path d="M119.575 96.4395H118.412V97.6024H119.575V96.4395Z" fill="#F5F5F5"/>
<path d="M119.575 98.3887H118.412V99.5516H119.575V98.3887Z" fill="#F5F5F5"/>
<path d="M119.575 100.338H118.412V101.501H119.575V100.338Z" fill="#F5F5F5"/>
<path d="M119.575 102.289H118.412V103.452H119.575V102.289Z" fill="#F5F5F5"/>
<path d="M119.575 119.832H118.412V120.995H119.575V119.832Z" fill="#F5F5F5"/>
<path d="M117.727 90.5918H116.564V91.7547H117.727V90.5918Z" fill="#F5F5F5"/>
<path d="M117.727 92.541H116.564V93.7039H117.727V92.541Z" fill="#F5F5F5"/>
<path d="M117.727 94.4902H116.564V95.6532H117.727V94.4902Z" fill="#F5F5F5"/>
<path d="M117.727 96.4395H116.564V97.6024H117.727V96.4395Z" fill="#F5F5F5"/>
<path d="M117.727 98.3887H116.564V99.5516H117.727V98.3887Z" fill="#F5F5F5"/>
<path d="M117.727 100.338H116.564V101.501H117.727V100.338Z" fill="#F5F5F5"/>
<path d="M117.727 102.289H116.564V103.452H117.727V102.289Z" fill="#F5F5F5"/>
<path d="M117.727 104.238H116.564V105.401H117.727V104.238Z" fill="#F5F5F5"/>
<path d="M117.727 115.934H116.564V117.097H117.727V115.934Z" fill="#F5F5F5"/>
<path d="M117.727 117.883H116.564V119.046H117.727V117.883Z" fill="#F5F5F5"/>
<path d="M117.727 119.832H116.564V120.995H117.727V119.832Z" fill="#F5F5F5"/>
<path d="M117.727 121.781H116.564V122.944H117.727V121.781Z" fill="#F5F5F5"/>
<path d="M117.727 129.578H116.564V130.741H117.727V129.578Z" fill="#F5F5F5"/>
<path d="M115.882 90.5918H114.719V91.7547H115.882V90.5918Z" fill="#F5F5F5"/>
<path d="M115.882 92.541H114.719V93.7039H115.882V92.541Z" fill="#F5F5F5"/>
<path d="M115.882 94.4902H114.719V95.6532H115.882V94.4902Z" fill="#F5F5F5"/>
<path d="M115.882 96.4395H114.719V97.6024H115.882V96.4395Z" fill="#F5F5F5"/>
<path d="M115.882 98.3887H114.719V99.5516H115.882V98.3887Z" fill="#F5F5F5"/>
<path d="M115.882 100.338H114.719V101.501H115.882V100.338Z" fill="#F5F5F5"/>
<path d="M115.882 102.289H114.719V103.452H115.882V102.289Z" fill="#F5F5F5"/>
<path d="M115.882 104.238H114.719V105.401H115.882V104.238Z" fill="#F5F5F5"/>
<path d="M115.882 106.188H114.719V107.35H115.882V106.188Z" fill="#F5F5F5"/>
<path d="M115.882 108.137H114.719V109.3H115.882V108.137Z" fill="#F5F5F5"/>
<path d="M115.882 113.984H114.719V115.147H115.882V113.984Z" fill="#F5F5F5"/>
<path d="M115.882 115.934H114.719V117.097H115.882V115.934Z" fill="#F5F5F5"/>
<path d="M115.882 117.883H114.719V119.046H115.882V117.883Z" fill="#F5F5F5"/>
<path d="M115.882 119.832H114.719V120.995H115.882V119.832Z" fill="#F5F5F5"/>
<path d="M115.882 121.781H114.719V122.944H115.882V121.781Z" fill="#F5F5F5"/>
<path d="M115.882 129.578H114.719V130.741H115.882V129.578Z" fill="#F5F5F5"/>
<path d="M114.034 90.5918H112.871V91.7547H114.034V90.5918Z" fill="#F5F5F5"/>
<path d="M114.034 92.541H112.871V93.7039H114.034V92.541Z" fill="#F5F5F5"/>
<path d="M114.034 94.4902H112.871V95.6532H114.034V94.4902Z" fill="#F5F5F5"/>
<path d="M114.034 96.4395H112.871V97.6024H114.034V96.4395Z" fill="#F5F5F5"/>
<path d="M114.034 98.3887H112.871V99.5516H114.034V98.3887Z" fill="#F5F5F5"/>
<path d="M114.034 100.338H112.871V101.501H114.034V100.338Z" fill="#F5F5F5"/>
<path d="M114.034 102.289H112.871V103.452H114.034V102.289Z" fill="#F5F5F5"/>
<path d="M114.034 104.238H112.871V105.401H114.034V104.238Z" fill="#F5F5F5"/>
<path d="M114.034 106.188H112.871V107.35H114.034V106.188Z" fill="#F5F5F5"/>
<path d="M114.034 108.137H112.871V109.3H114.034V108.137Z" fill="#F5F5F5"/>
<path d="M114.034 110.086H112.871V111.249H114.034V110.086Z" fill="#F5F5F5"/>
<path d="M114.034 112.035H112.871V113.198H114.034V112.035Z" fill="#F5F5F5"/>
<path d="M114.034 113.984H112.871V115.147H114.034V113.984Z" fill="#F5F5F5"/>
<path d="M114.034 115.934H112.871V117.097H114.034V115.934Z" fill="#F5F5F5"/>
<path d="M114.034 117.883H112.871V119.046H114.034V117.883Z" fill="#F5F5F5"/>
<path d="M114.034 119.832H112.871V120.995H114.034V119.832Z" fill="#F5F5F5"/>
<path d="M114.034 121.781H112.871V122.944H114.034V121.781Z" fill="#F5F5F5"/>
<path d="M114.034 123.73H112.871V124.893H114.034V123.73Z" fill="#F5F5F5"/>
<path d="M112.186 90.5918H111.023V91.7547H112.186V90.5918Z" fill="#F5F5F5"/>
<path d="M112.186 92.541H111.023V93.7039H112.186V92.541Z" fill="#F5F5F5"/>
<path d="M112.186 94.4902H111.023V95.6532H112.186V94.4902Z" fill="#F5F5F5"/>
<path d="M112.186 96.4395H111.023V97.6024H112.186V96.4395Z" fill="#F5F5F5"/>
<path d="M112.186 98.3887H111.023V99.5516H112.186V98.3887Z" fill="#F5F5F5"/>
<path d="M112.186 100.338H111.023V101.501H112.186V100.338Z" fill="#F5F5F5"/>
<path d="M112.186 102.289H111.023V103.452H112.186V102.289Z" fill="#F5F5F5"/>
<path d="M112.186 104.238H111.023V105.401H112.186V104.238Z" fill="#F5F5F5"/>
<path d="M112.186 106.188H111.023V107.35H112.186V106.188Z" fill="#F5F5F5"/>
<path d="M112.186 108.137H111.023V109.3H112.186V108.137Z" fill="#F5F5F5"/>
<path d="M112.186 113.984H111.023V115.147H112.186V113.984Z" fill="#F5F5F5"/>
<path d="M112.186 115.934H111.023V117.097H112.186V115.934Z" fill="#F5F5F5"/>
<path d="M112.186 117.883H111.023V119.046H112.186V117.883Z" fill="#F5F5F5"/>
<path d="M112.186 119.832H111.023V120.995H112.186V119.832Z" fill="#F5F5F5"/>
<path d="M110.341 90.5918H109.178V91.7547H110.341V90.5918Z" fill="#F5F5F5"/>
<path d="M110.341 92.541H109.178V93.7039H110.341V92.541Z" fill="#F5F5F5"/>
<path d="M110.341 94.4902H109.178V95.6532H110.341V94.4902Z" fill="#F5F5F5"/>
<path d="M110.341 96.4395H109.178V97.6024H110.341V96.4395Z" fill="#F5F5F5"/>
<path d="M110.341 98.3887H109.178V99.5516H110.341V98.3887Z" fill="#F5F5F5"/>
<path d="M110.341 100.338H109.178V101.501H110.341V100.338Z" fill="#F5F5F5"/>
<path d="M110.341 102.289H109.178V103.452H110.341V102.289Z" fill="#F5F5F5"/>
<path d="M110.341 104.238H109.178V105.401H110.341V104.238Z" fill="#F5F5F5"/>
<path d="M110.341 106.188H109.178V107.35H110.341V106.188Z" fill="#F5F5F5"/>
<path d="M110.341 108.137H109.178V109.3H110.341V108.137Z" fill="#F5F5F5"/>
<path d="M110.341 113.984H109.178V115.147H110.341V113.984Z" fill="#F5F5F5"/>
<path d="M110.341 115.934H109.178V117.097H110.341V115.934Z" fill="#F5F5F5"/>
<path d="M110.341 117.883H109.178V119.046H110.341V117.883Z" fill="#F5F5F5"/>
<path d="M89.5496 85.5312H88.3867V86.6942H89.5496V85.5312Z" fill="#F5F5F5"/>
<path d="M89.5496 87.4805H88.3867V88.6434H89.5496V87.4805Z" fill="#F5F5F5"/>
<path d="M89.5496 89.4297H88.3867V90.5926H89.5496V89.4297Z" fill="#F5F5F5"/>
<path d="M89.5496 91.3789H88.3867V92.5418H89.5496V91.3789Z" fill="#F5F5F5"/>
<path d="M89.5496 93.3281H88.3867V94.491H89.5496V93.3281Z" fill="#F5F5F5"/>
<path d="M89.5496 95.2773H88.3867V96.4403H89.5496V95.2773Z" fill="#F5F5F5"/>
<path d="M89.5496 97.2266H88.3867V98.3895H89.5496V97.2266Z" fill="#F5F5F5"/>
<path d="M89.5496 99.1758H88.3867V100.339H89.5496V99.1758Z" fill="#F5F5F5"/>
<path d="M89.5496 105.023H88.3867V106.186H89.5496V105.023Z" fill="#F5F5F5"/>
<path d="M89.5496 106.973H88.3867V108.136H89.5496V106.973Z" fill="#F5F5F5"/>
<path d="M87.702 85.5312H86.5391V86.6942H87.702V85.5312Z" fill="#F5F5F5"/>
<path d="M87.702 87.4805H86.5391V88.6434H87.702V87.4805Z" fill="#F5F5F5"/>
<path d="M87.702 89.4297H86.5391V90.5926H87.702V89.4297Z" fill="#F5F5F5"/>
<path d="M87.702 91.3789H86.5391V92.5418H87.702V91.3789Z" fill="#F5F5F5"/>
<path d="M87.702 93.3281H86.5391V94.491H87.702V93.3281Z" fill="#F5F5F5"/>
<path d="M87.702 95.2773H86.5391V96.4403H87.702V95.2773Z" fill="#F5F5F5"/>
<path d="M87.702 97.2266H86.5391V98.3895H87.702V97.2266Z" fill="#F5F5F5"/>
<path d="M87.702 99.1758H86.5391V100.339H87.702V99.1758Z" fill="#F5F5F5"/>
<path d="M87.702 106.973H86.5391V108.136H87.702V106.973Z" fill="#F5F5F5"/>
<path d="M85.8543 85.5312H84.6914V86.6942H85.8543V85.5312Z" fill="#F5F5F5"/>
<path d="M85.8543 87.4805H84.6914V88.6434H85.8543V87.4805Z" fill="#F5F5F5"/>
<path d="M85.8543 89.4297H84.6914V90.5926H85.8543V89.4297Z" fill="#F5F5F5"/>
<path d="M85.8543 91.3789H84.6914V92.5418H85.8543V91.3789Z" fill="#F5F5F5"/>
<path d="M85.8543 93.3281H84.6914V94.491H85.8543V93.3281Z" fill="#F5F5F5"/>
<path d="M85.8543 95.2773H84.6914V96.4403H85.8543V95.2773Z" fill="#F5F5F5"/>
<path d="M85.8543 97.2266H84.6914V98.3895H85.8543V97.2266Z" fill="#F5F5F5"/>
<path d="M85.8543 99.1758H84.6914V100.339H85.8543V99.1758Z" fill="#F5F5F5"/>
<path d="M84.0086 85.5312H82.8457V86.6942H84.0086V85.5312Z" fill="#F5F5F5"/>
<path d="M84.0086 87.4805H82.8457V88.6434H84.0086V87.4805Z" fill="#F5F5F5"/>
<path d="M84.0086 89.4297H82.8457V90.5926H84.0086V89.4297Z" fill="#F5F5F5"/>
<path d="M84.0086 91.3789H82.8457V92.5418H84.0086V91.3789Z" fill="#F5F5F5"/>
<path d="M84.0086 93.3281H82.8457V94.491H84.0086V93.3281Z" fill="#F5F5F5"/>
<path d="M84.0086 95.2773H82.8457V96.4403H84.0086V95.2773Z" fill="#F5F5F5"/>
<path d="M84.0086 99.1758H82.8457V100.339H84.0086V99.1758Z" fill="#F5F5F5"/>
<path d="M84.0086 101.125H82.8457V102.288H84.0086V101.125Z" fill="#F5F5F5"/>
<path d="M84.0086 106.973H82.8457V108.136H84.0086V106.973Z" fill="#F5F5F5"/>
<path d="M84.0086 108.922H82.8457V110.085H84.0086V108.922Z" fill="#F5F5F5"/>
<path d="M84.0086 110.871H82.8457V112.034H84.0086V110.871Z" fill="#F5F5F5"/>
<path d="M84.0086 112.82H82.8457V113.983H84.0086V112.82Z" fill="#F5F5F5"/>
<path d="M84.0086 114.77H82.8457V115.932H84.0086V114.77Z" fill="#F5F5F5"/>
<path d="M84.0086 116.719H82.8457V117.882H84.0086V116.719Z" fill="#F5F5F5"/>
<path d="M84.0086 118.668H82.8457V119.831H84.0086V118.668Z" fill="#F5F5F5"/>
<path d="M82.161 85.5312H80.998V86.6942H82.161V85.5312Z" fill="#F5F5F5"/>
<path d="M82.161 87.4805H80.998V88.6434H82.161V87.4805Z" fill="#F5F5F5"/>
<path d="M82.161 89.4297H80.998V90.5926H82.161V89.4297Z" fill="#F5F5F5"/>
<path d="M82.161 91.3789H80.998V92.5418H82.161V91.3789Z" fill="#F5F5F5"/>
<path d="M82.161 93.3281H80.998V94.491H82.161V93.3281Z" fill="#F5F5F5"/>
<path d="M82.161 95.2773H80.998V96.4403H82.161V95.2773Z" fill="#F5F5F5"/>
<path d="M82.161 101.125H80.998V102.288H82.161V101.125Z" fill="#F5F5F5"/>
<path d="M82.161 103.074H80.998V104.237H82.161V103.074Z" fill="#F5F5F5"/>
<path d="M82.161 105.023H80.998V106.186H82.161V105.023Z" fill="#F5F5F5"/>
<path d="M82.161 106.973H80.998V108.136H82.161V106.973Z" fill="#F5F5F5"/>
<path d="M82.161 108.922H80.998V110.085H82.161V108.922Z" fill="#F5F5F5"/>
<path d="M82.161 110.871H80.998V112.034H82.161V110.871Z" fill="#F5F5F5"/>
<path d="M82.161 112.82H80.998V113.983H82.161V112.82Z" fill="#F5F5F5"/>
<path d="M82.161 114.77H80.998V115.932H82.161V114.77Z" fill="#F5F5F5"/>
<path d="M82.161 116.719H80.998V117.882H82.161V116.719Z" fill="#F5F5F5"/>
<path d="M82.161 118.668H80.998V119.831H82.161V118.668Z" fill="#F5F5F5"/>
<path d="M82.161 120.619H80.998V121.782H82.161V120.619Z" fill="#F5F5F5"/>
<path d="M82.161 124.518H80.998V125.68H82.161V124.518Z" fill="#F5F5F5"/>
<path d="M80.3153 85.5312H79.1523V86.6942H80.3153V85.5312Z" fill="#F5F5F5"/>
<path d="M80.3153 87.4805H79.1523V88.6434H80.3153V87.4805Z" fill="#F5F5F5"/>
<path d="M80.3153 89.4297H79.1523V90.5926H80.3153V89.4297Z" fill="#F5F5F5"/>
<path d="M80.3153 91.3789H79.1523V92.5418H80.3153V91.3789Z" fill="#F5F5F5"/>
<path d="M80.3153 93.3281H79.1523V94.491H80.3153V93.3281Z" fill="#F5F5F5"/>
<path d="M80.3153 95.2773H79.1523V96.4403H80.3153V95.2773Z" fill="#F5F5F5"/>
<path d="M80.3153 101.125H79.1523V102.288H80.3153V101.125Z" fill="#F5F5F5"/>
<path d="M80.3153 103.074H79.1523V104.237H80.3153V103.074Z" fill="#F5F5F5"/>
<path d="M80.3153 105.023H79.1523V106.186H80.3153V105.023Z" fill="#F5F5F5"/>
<path d="M80.3153 106.973H79.1523V108.136H80.3153V106.973Z" fill="#F5F5F5"/>
<path d="M80.3153 112.82H79.1523V113.983H80.3153V112.82Z" fill="#F5F5F5"/>
<path d="M80.3153 114.77H79.1523V115.932H80.3153V114.77Z" fill="#F5F5F5"/>
<path d="M80.3153 116.719H79.1523V117.882H80.3153V116.719Z" fill="#F5F5F5"/>
<path d="M80.3153 118.668H79.1523V119.831H80.3153V118.668Z" fill="#F5F5F5"/>
<path d="M80.3153 120.619H79.1523V121.782H80.3153V120.619Z" fill="#F5F5F5"/>
<path d="M80.3153 124.518H79.1523V125.68H80.3153V124.518Z" fill="#F5F5F5"/>
<path d="M80.3153 126.467H79.1523V127.63H80.3153V126.467Z" fill="#F5F5F5"/>
<path d="M63.5575 103.656H62.3945V104.819H63.5575V103.656Z" fill="#F5F5F5"/>
<path d="M63.5575 105.605H62.3945V106.768H63.5575V105.605Z" fill="#F5F5F5"/>
<path d="M63.5575 107.555H62.3945V108.718H63.5575V107.555Z" fill="#F5F5F5"/>
<path d="M63.5575 109.504H62.3945V110.667H63.5575V109.504Z" fill="#F5F5F5"/>
<path d="M63.5575 111.453H62.3945V112.616H63.5575V111.453Z" fill="#F5F5F5"/>
<path d="M63.5575 113.402H62.3945V114.565H63.5575V113.402Z" fill="#F5F5F5"/>
<path d="M63.5575 115.352H62.3945V116.514H63.5575V115.352Z" fill="#F5F5F5"/>
<path d="M63.5575 121.199H62.3945V122.362H63.5575V121.199Z" fill="#F5F5F5"/>
<path d="M63.5575 123.148H62.3945V124.311H63.5575V123.148Z" fill="#F5F5F5"/>
<path d="M63.5575 125.098H62.3945V126.261H63.5575V125.098Z" fill="#F5F5F5"/>
<path d="M61.7118 103.656H60.5488V104.819H61.7118V103.656Z" fill="#F5F5F5"/>
<path d="M61.7118 105.605H60.5488V106.768H61.7118V105.605Z" fill="#F5F5F5"/>
<path d="M61.7118 107.555H60.5488V108.718H61.7118V107.555Z" fill="#F5F5F5"/>
<path d="M61.7118 109.504H60.5488V110.667H61.7118V109.504Z" fill="#F5F5F5"/>
<path d="M61.7118 111.453H60.5488V112.616H61.7118V111.453Z" fill="#F5F5F5"/>
<path d="M61.7118 113.402H60.5488V114.565H61.7118V113.402Z" fill="#F5F5F5"/>
<path d="M61.7118 115.352H60.5488V116.514H61.7118V115.352Z" fill="#F5F5F5"/>
<path d="M59.8641 103.656H58.7012V104.819H59.8641V103.656Z" fill="#F5F5F5"/>
<path d="M59.8641 105.605H58.7012V106.768H59.8641V105.605Z" fill="#F5F5F5"/>
<path d="M59.8641 107.555H58.7012V108.718H59.8641V107.555Z" fill="#F5F5F5"/>
<path d="M59.8641 109.504H58.7012V110.667H59.8641V109.504Z" fill="#F5F5F5"/>
<path d="M59.8641 111.453H58.7012V112.616H59.8641V111.453Z" fill="#F5F5F5"/>
<path d="M59.8641 113.402H58.7012V114.565H59.8641V113.402Z" fill="#F5F5F5"/>
<path d="M59.8641 115.352H58.7012V116.514H59.8641V115.352Z" fill="#F5F5F5"/>
<path d="M58.0164 103.656H56.8535V104.819H58.0164V103.656Z" fill="#F5F5F5"/>
<path d="M58.0164 105.605H56.8535V106.768H58.0164V105.605Z" fill="#F5F5F5"/>
<path d="M58.0164 107.555H56.8535V108.718H58.0164V107.555Z" fill="#F5F5F5"/>
<path d="M58.0164 109.504H56.8535V110.667H58.0164V109.504Z" fill="#F5F5F5"/>
<path d="M58.0164 111.453H56.8535V112.616H58.0164V111.453Z" fill="#F5F5F5"/>
<path d="M58.0164 113.402H56.8535V114.565H58.0164V113.402Z" fill="#F5F5F5"/>
<path d="M58.0164 115.352H56.8535V116.514H58.0164V115.352Z" fill="#F5F5F5"/>
<path d="M58.0164 117.301H56.8535V118.464H58.0164V117.301Z" fill="#F5F5F5"/>
<path d="M58.0164 119.25H56.8535V120.413H58.0164V119.25Z" fill="#F5F5F5"/>
<path d="M58.0164 121.199H56.8535V122.362H58.0164V121.199Z" fill="#F5F5F5"/>
<path d="M58.0164 123.148H56.8535V124.311H58.0164V123.148Z" fill="#F5F5F5"/>
<path d="M56.1707 103.656H55.0078V104.819H56.1707V103.656Z" fill="#F5F5F5"/>
<path d="M56.1707 105.605H55.0078V106.768H56.1707V105.605Z" fill="#F5F5F5"/>
<path d="M56.1707 107.555H55.0078V108.718H56.1707V107.555Z" fill="#F5F5F5"/>
<path d="M56.1707 109.504H55.0078V110.667H56.1707V109.504Z" fill="#F5F5F5"/>
<path d="M56.1707 111.453H55.0078V112.616H56.1707V111.453Z" fill="#F5F5F5"/>
<path d="M56.1707 113.402H55.0078V114.565H56.1707V113.402Z" fill="#F5F5F5"/>
<path d="M56.1707 115.352H55.0078V116.514H56.1707V115.352Z" fill="#F5F5F5"/>
<path d="M56.1707 117.301H55.0078V118.464H56.1707V117.301Z" fill="#F5F5F5"/>
<path d="M56.1707 119.25H55.0078V120.413H56.1707V119.25Z" fill="#F5F5F5"/>
<path d="M56.1707 121.199H55.0078V122.362H56.1707V121.199Z" fill="#F5F5F5"/>
<path d="M56.1707 123.148H55.0078V124.311H56.1707V123.148Z" fill="#F5F5F5"/>
<path d="M56.1707 125.098H55.0078V126.261H56.1707V125.098Z" fill="#F5F5F5"/>
<path d="M56.1707 130.945H55.0078V132.108H56.1707V130.945Z" fill="#F5F5F5"/>
<path d="M56.1707 132.895H55.0078V134.057H56.1707V132.895Z" fill="#F5F5F5"/>
<path d="M54.325 103.656H53.1621V104.819H54.325V103.656Z" fill="#F5F5F5"/>
<path d="M54.325 105.605H53.1621V106.768H54.325V105.605Z" fill="#F5F5F5"/>
<path d="M54.325 107.555H53.1621V108.718H54.325V107.555Z" fill="#F5F5F5"/>
<path d="M54.325 113.402H53.1621V114.565H54.325V113.402Z" fill="#F5F5F5"/>
<path d="M54.325 115.352H53.1621V116.514H54.325V115.352Z" fill="#F5F5F5"/>
<path d="M54.325 117.301H53.1621V118.464H54.325V117.301Z" fill="#F5F5F5"/>
<path d="M54.325 119.25H53.1621V120.413H54.325V119.25Z" fill="#F5F5F5"/>
<path d="M54.325 121.199H53.1621V122.362H54.325V121.199Z" fill="#F5F5F5"/>
<path d="M54.325 123.148H53.1621V124.311H54.325V123.148Z" fill="#F5F5F5"/>
<path d="M54.325 125.098H53.1621V126.261H54.325V125.098Z" fill="#F5F5F5"/>
<path d="M54.325 130.945H53.1621V132.108H54.325V130.945Z" fill="#F5F5F5"/>
<path d="M54.325 132.895H53.1621V134.057H54.325V132.895Z" fill="#F5F5F5"/>
<path d="M54.325 134.844H53.1621V136.007H54.325V134.844Z" fill="#F5F5F5"/>
<path d="M34.9696 91.9609H33.8066V93.1239H34.9696V91.9609Z" fill="#F5F5F5"/>
<path d="M34.9696 93.9102H33.8066V95.0731H34.9696V93.9102Z" fill="#F5F5F5"/>
<path d="M34.9696 95.8594H33.8066V97.0223H34.9696V95.8594Z" fill="#F5F5F5"/>
<path d="M34.9696 97.8086H33.8066V98.9715H34.9696V97.8086Z" fill="#F5F5F5"/>
<path d="M34.9696 99.7578H33.8066V100.92H34.9696V99.7578Z" fill="#F5F5F5"/>
<path d="M34.9696 101.707H33.8066V102.87H34.9696V101.707Z" fill="#F5F5F5"/>
<path d="M34.9696 103.656H33.8066V104.819H34.9696V103.656Z" fill="#F5F5F5"/>
<path d="M34.9696 105.605H33.8066V106.768H34.9696V105.605Z" fill="#F5F5F5"/>
<path d="M34.9696 107.555H33.8066V108.718H34.9696V107.555Z" fill="#F5F5F5"/>
<path d="M34.9696 109.504H33.8066V110.667H34.9696V109.504Z" fill="#F5F5F5"/>
<path d="M34.9696 111.453H33.8066V112.616H34.9696V111.453Z" fill="#F5F5F5"/>
<path d="M34.9696 113.402H33.8066V114.565H34.9696V113.402Z" fill="#F5F5F5"/>
<path d="M34.9696 115.352H33.8066V116.514H34.9696V115.352Z" fill="#F5F5F5"/>
<path d="M34.9696 117.301H33.8066V118.464H34.9696V117.301Z" fill="#F5F5F5"/>
<path d="M34.9696 119.25H33.8066V120.413H34.9696V119.25Z" fill="#F5F5F5"/>
<path d="M34.9696 121.199H33.8066V122.362H34.9696V121.199Z" fill="#F5F5F5"/>
<path d="M34.9696 123.148H33.8066V124.311H34.9696V123.148Z" fill="#F5F5F5"/>
<path d="M34.9696 125.098H33.8066V126.261H34.9696V125.098Z" fill="#F5F5F5"/>
<path d="M34.9696 127.047H33.8066V128.21H34.9696V127.047Z" fill="#F5F5F5"/>
<path d="M34.9696 128.996H33.8066V130.159H34.9696V128.996Z" fill="#F5F5F5"/>
<path d="M34.9696 130.945H33.8066V132.108H34.9696V130.945Z" fill="#F5F5F5"/>
<path d="M34.9696 132.895H33.8066V134.057H34.9696V132.895Z" fill="#F5F5F5"/>
<path d="M34.9696 134.844H33.8066V136.007H34.9696V134.844Z" fill="#F5F5F5"/>
<path d="M33.1219 91.9609H31.959V93.1239H33.1219V91.9609Z" fill="#F5F5F5"/>
<path d="M33.1219 93.9102H31.959V95.0731H33.1219V93.9102Z" fill="#F5F5F5"/>
<path d="M33.1219 95.8594H31.959V97.0223H33.1219V95.8594Z" fill="#F5F5F5"/>
<path d="M33.1219 97.8086H31.959V98.9715H33.1219V97.8086Z" fill="#F5F5F5"/>
<path d="M33.1219 99.7578H31.959V100.92H33.1219V99.7578Z" fill="#F5F5F5"/>
<path d="M33.1219 101.707H31.959V102.87H33.1219V101.707Z" fill="#F5F5F5"/>
<path d="M33.1219 103.656H31.959V104.819H33.1219V103.656Z" fill="#F5F5F5"/>
<path d="M33.1219 105.605H31.959V106.768H33.1219V105.605Z" fill="#F5F5F5"/>
<path d="M33.1219 107.555H31.959V108.718H33.1219V107.555Z" fill="#F5F5F5"/>
<path d="M33.1219 109.504H31.959V110.667H33.1219V109.504Z" fill="#F5F5F5"/>
<path d="M33.1219 111.453H31.959V112.616H33.1219V111.453Z" fill="#F5F5F5"/>
<path d="M33.1219 113.402H31.959V114.565H33.1219V113.402Z" fill="#F5F5F5"/>
<path d="M33.1219 115.352H31.959V116.514H33.1219V115.352Z" fill="#F5F5F5"/>
<path d="M33.1219 117.301H31.959V118.464H33.1219V117.301Z" fill="#F5F5F5"/>
<path d="M33.1219 119.25H31.959V120.413H33.1219V119.25Z" fill="#F5F5F5"/>
<path d="M33.1219 121.199H31.959V122.362H33.1219V121.199Z" fill="#F5F5F5"/>
<path d="M33.1219 123.148H31.959V124.311H33.1219V123.148Z" fill="#F5F5F5"/>
<path d="M33.1219 125.098H31.959V126.261H33.1219V125.098Z" fill="#F5F5F5"/>
<path d="M33.1219 127.047H31.959V128.21H33.1219V127.047Z" fill="#F5F5F5"/>
<path d="M31.2743 91.9609H30.1113V93.1239H31.2743V91.9609Z" fill="#F5F5F5"/>
<path d="M31.2743 93.9102H30.1113V95.0731H31.2743V93.9102Z" fill="#F5F5F5"/>
<path d="M31.2743 95.8594H30.1113V97.0223H31.2743V95.8594Z" fill="#F5F5F5"/>
<path d="M31.2743 97.8086H30.1113V98.9715H31.2743V97.8086Z" fill="#F5F5F5"/>
<path d="M31.2743 99.7578H30.1113V100.92H31.2743V99.7578Z" fill="#F5F5F5"/>
<path d="M31.2743 101.707H30.1113V102.87H31.2743V101.707Z" fill="#F5F5F5"/>
<path d="M31.2743 103.656H30.1113V104.819H31.2743V103.656Z" fill="#F5F5F5"/>
<path d="M31.2743 105.605H30.1113V106.768H31.2743V105.605Z" fill="#F5F5F5"/>
<path d="M31.2743 107.555H30.1113V108.718H31.2743V107.555Z" fill="#F5F5F5"/>
<path d="M31.2743 109.504H30.1113V110.667H31.2743V109.504Z" fill="#F5F5F5"/>
<path d="M31.2743 111.453H30.1113V112.616H31.2743V111.453Z" fill="#F5F5F5"/>
<path d="M31.2743 113.402H30.1113V114.565H31.2743V113.402Z" fill="#F5F5F5"/>
<path d="M31.2743 115.352H30.1113V116.514H31.2743V115.352Z" fill="#F5F5F5"/>
<path d="M31.2743 117.301H30.1113V118.464H31.2743V117.301Z" fill="#F5F5F5"/>
<path d="M31.2743 119.25H30.1113V120.413H31.2743V119.25Z" fill="#F5F5F5"/>
<path d="M31.2743 121.199H30.1113V122.362H31.2743V121.199Z" fill="#F5F5F5"/>
<path d="M31.2743 123.148H30.1113V124.311H31.2743V123.148Z" fill="#F5F5F5"/>
<path d="M31.2743 125.098H30.1113V126.261H31.2743V125.098Z" fill="#F5F5F5"/>
<path d="M31.2743 127.047H30.1113V128.21H31.2743V127.047Z" fill="#F5F5F5"/>
<path d="M29.4286 91.9609H28.2656V93.1239H29.4286V91.9609Z" fill="#F5F5F5"/>
<path d="M29.4286 93.9102H28.2656V95.0731H29.4286V93.9102Z" fill="#F5F5F5"/>
<path d="M29.4286 95.8594H28.2656V97.0223H29.4286V95.8594Z" fill="#F5F5F5"/>
<path d="M29.4286 97.8086H28.2656V98.9715H29.4286V97.8086Z" fill="#F5F5F5"/>
<path d="M29.4286 99.7578H28.2656V100.92H29.4286V99.7578Z" fill="#F5F5F5"/>
<path d="M29.4286 101.707H28.2656V102.87H29.4286V101.707Z" fill="#F5F5F5"/>
<path d="M29.4286 103.656H28.2656V104.819H29.4286V103.656Z" fill="#F5F5F5"/>
<path d="M29.4286 105.605H28.2656V106.768H29.4286V105.605Z" fill="#F5F5F5"/>
<path d="M29.4286 107.555H28.2656V108.718H29.4286V107.555Z" fill="#F5F5F5"/>
<path d="M29.4286 109.504H28.2656V110.667H29.4286V109.504Z" fill="#F5F5F5"/>
<path d="M29.4286 111.453H28.2656V112.616H29.4286V111.453Z" fill="#F5F5F5"/>
<path d="M29.4286 113.402H28.2656V114.565H29.4286V113.402Z" fill="#F5F5F5"/>
<path d="M29.4286 115.352H28.2656V116.514H29.4286V115.352Z" fill="#F5F5F5"/>
<path d="M29.4286 117.301H28.2656V118.464H29.4286V117.301Z" fill="#F5F5F5"/>
<path d="M29.4286 119.25H28.2656V120.413H29.4286V119.25Z" fill="#F5F5F5"/>
<path d="M27.5828 91.9609H26.4199V93.1239H27.5828V91.9609Z" fill="#F5F5F5"/>
<path d="M27.5828 93.9102H26.4199V95.0731H27.5828V93.9102Z" fill="#F5F5F5"/>
<path d="M27.5828 95.8594H26.4199V97.0223H27.5828V95.8594Z" fill="#F5F5F5"/>
<path d="M27.5828 97.8086H26.4199V98.9715H27.5828V97.8086Z" fill="#F5F5F5"/>
<path d="M27.5828 99.7578H26.4199V100.92H27.5828V99.7578Z" fill="#F5F5F5"/>
<path d="M27.5828 101.707H26.4199V102.87H27.5828V101.707Z" fill="#F5F5F5"/>
<path d="M27.5828 103.656H26.4199V104.819H27.5828V103.656Z" fill="#F5F5F5"/>
<path d="M27.5828 105.605H26.4199V106.768H27.5828V105.605Z" fill="#F5F5F5"/>
<path d="M27.5828 107.555H26.4199V108.718H27.5828V107.555Z" fill="#F5F5F5"/>
<path d="M27.5828 109.504H26.4199V110.667H27.5828V109.504Z" fill="#F5F5F5"/>
<path d="M27.5828 111.453H26.4199V112.616H27.5828V111.453Z" fill="#F5F5F5"/>
<path d="M27.5828 113.402H26.4199V114.565H27.5828V113.402Z" fill="#F5F5F5"/>
<path d="M27.5828 115.352H26.4199V116.514H27.5828V115.352Z" fill="#F5F5F5"/>
<path d="M25.7352 91.9609H24.5723V93.1239H25.7352V91.9609Z" fill="#F5F5F5"/>
<path d="M25.7352 93.9102H24.5723V95.0731H25.7352V93.9102Z" fill="#F5F5F5"/>
<path d="M25.7352 95.8594H24.5723V97.0223H25.7352V95.8594Z" fill="#F5F5F5"/>
<path d="M25.7352 97.8086H24.5723V98.9715H25.7352V97.8086Z" fill="#F5F5F5"/>
<path d="M25.7352 99.7578H24.5723V100.92H25.7352V99.7578Z" fill="#F5F5F5"/>
<path d="M25.7352 101.707H24.5723V102.87H25.7352V101.707Z" fill="#F5F5F5"/>
<path d="M25.7352 103.656H24.5723V104.819H25.7352V103.656Z" fill="#F5F5F5"/>
<path d="M25.7352 105.605H24.5723V106.768H25.7352V105.605Z" fill="#F5F5F5"/>
<path d="M25.7352 107.555H24.5723V108.718H25.7352V107.555Z" fill="#F5F5F5"/>
<path d="M25.7352 109.504H24.5723V110.667H25.7352V109.504Z" fill="#F5F5F5"/>
<path d="M25.7352 111.453H24.5723V112.616H25.7352V111.453Z" fill="#F5F5F5"/>
<path d="M25.7352 113.402H24.5723V114.565H25.7352V113.402Z" fill="#F5F5F5"/>
<path d="M161.432 106.188H160.27V107.35H161.432V106.188Z" fill="#F5F5F5"/>
<path d="M161.432 108.137H160.27V109.3H161.432V108.137Z" fill="#F5F5F5"/>
<path d="M161.432 110.086H160.27V111.249H161.432V110.086Z" fill="#F5F5F5"/>
<path d="M161.432 112.035H160.27V113.198H161.432V112.035Z" fill="#F5F5F5"/>
<path d="M161.432 113.984H160.27V115.147H161.432V113.984Z" fill="#F5F5F5"/>
<path d="M161.432 115.934H160.27V117.097H161.432V115.934Z" fill="#F5F5F5"/>
<path d="M161.432 117.883H160.27V119.046H161.432V117.883Z" fill="#F5F5F5"/>
<path d="M161.432 119.832H160.27V120.995H161.432V119.832Z" fill="#F5F5F5"/>
<path d="M161.432 121.781H160.27V122.944H161.432V121.781Z" fill="#F5F5F5"/>
<path d="M161.432 123.73H160.27V124.893H161.432V123.73Z" fill="#F5F5F5"/>
<path d="M161.432 125.68H160.27V126.843H161.432V125.68Z" fill="#F5F5F5"/>
<path d="M161.432 127.629H160.27V128.792H161.432V127.629Z" fill="#F5F5F5"/>
<path d="M161.432 129.578H160.27V130.741H161.432V129.578Z" fill="#F5F5F5"/>
<path d="M161.432 131.527H160.27V132.69H161.432V131.527Z" fill="#F5F5F5"/>
<path d="M161.432 133.477H160.27V134.639H161.432V133.477Z" fill="#F5F5F5"/>
<path d="M161.432 135.426H160.27V136.589H161.432V135.426Z" fill="#F5F5F5"/>
<path d="M161.432 137.375H160.27V138.538H161.432V137.375Z" fill="#F5F5F5"/>
<path d="M161.432 139.324H160.27V140.487H161.432V139.324Z" fill="#F5F5F5"/>
<path d="M161.432 141.273H160.27V142.436H161.432V141.273Z" fill="#F5F5F5"/>
<path d="M161.432 143.223H160.27V144.386H161.432V143.223Z" fill="#F5F5F5"/>
<path d="M159.587 106.188H158.424V107.35H159.587V106.188Z" fill="#F5F5F5"/>
<path d="M159.587 108.137H158.424V109.3H159.587V108.137Z" fill="#F5F5F5"/>
<path d="M159.587 110.086H158.424V111.249H159.587V110.086Z" fill="#F5F5F5"/>
<path d="M159.587 112.035H158.424V113.198H159.587V112.035Z" fill="#F5F5F5"/>
<path d="M159.587 113.984H158.424V115.147H159.587V113.984Z" fill="#F5F5F5"/>
<path d="M159.587 115.934H158.424V117.097H159.587V115.934Z" fill="#F5F5F5"/>
<path d="M159.587 117.883H158.424V119.046H159.587V117.883Z" fill="#F5F5F5"/>
<path d="M159.587 119.832H158.424V120.995H159.587V119.832Z" fill="#F5F5F5"/>
<path d="M159.587 121.781H158.424V122.944H159.587V121.781Z" fill="#F5F5F5"/>
<path d="M159.587 123.73H158.424V124.893H159.587V123.73Z" fill="#F5F5F5"/>
<path d="M159.587 125.68H158.424V126.843H159.587V125.68Z" fill="#F5F5F5"/>
<path d="M159.587 127.629H158.424V128.792H159.587V127.629Z" fill="#F5F5F5"/>
<path d="M159.587 129.578H158.424V130.741H159.587V129.578Z" fill="#F5F5F5"/>
<path d="M159.587 131.527H158.424V132.69H159.587V131.527Z" fill="#F5F5F5"/>
<path d="M159.587 133.477H158.424V134.639H159.587V133.477Z" fill="#F5F5F5"/>
<path d="M159.587 135.426H158.424V136.589H159.587V135.426Z" fill="#F5F5F5"/>
<path d="M159.587 137.375H158.424V138.538H159.587V137.375Z" fill="#F5F5F5"/>
<path d="M159.587 139.324H158.424V140.487H159.587V139.324Z" fill="#F5F5F5"/>
<path d="M157.739 106.188H156.576V107.35H157.739V106.188Z" fill="#F5F5F5"/>
<path d="M157.739 108.137H156.576V109.3H157.739V108.137Z" fill="#F5F5F5"/>
<path d="M157.739 110.086H156.576V111.249H157.739V110.086Z" fill="#F5F5F5"/>
<path d="M157.739 112.035H156.576V113.198H157.739V112.035Z" fill="#F5F5F5"/>
<path d="M157.739 113.984H156.576V115.147H157.739V113.984Z" fill="#F5F5F5"/>
<path d="M157.739 115.934H156.576V117.097H157.739V115.934Z" fill="#F5F5F5"/>
<path d="M157.739 117.883H156.576V119.046H157.739V117.883Z" fill="#F5F5F5"/>
<path d="M157.739 119.832H156.576V120.995H157.739V119.832Z" fill="#F5F5F5"/>
<path d="M157.739 121.781H156.576V122.944H157.739V121.781Z" fill="#F5F5F5"/>
<path d="M157.739 123.73H156.576V124.893H157.739V123.73Z" fill="#F5F5F5"/>
<path d="M157.739 125.68H156.576V126.843H157.739V125.68Z" fill="#F5F5F5"/>
<path d="M157.739 127.629H156.576V128.792H157.739V127.629Z" fill="#F5F5F5"/>
<path d="M157.739 129.578H156.576V130.741H157.739V129.578Z" fill="#F5F5F5"/>
<path d="M157.739 131.527H156.576V132.69H157.739V131.527Z" fill="#F5F5F5"/>
<path d="M157.739 133.477H156.576V134.639H157.739V133.477Z" fill="#F5F5F5"/>
<path d="M157.739 135.426H156.576V136.589H157.739V135.426Z" fill="#F5F5F5"/>
<path d="M157.739 137.375H156.576V138.538H157.739V137.375Z" fill="#F5F5F5"/>
<path d="M157.739 139.324H156.576V140.487H157.739V139.324Z" fill="#F5F5F5"/>
<path d="M168.339 120.414H167.176V121.577H168.339V120.414Z" fill="#F5F5F5"/>
<path d="M168.339 122.361H167.176V123.524H168.339V122.361Z" fill="#F5F5F5"/>
<path d="M168.339 124.312H167.176V125.475H168.339V124.312Z" fill="#F5F5F5"/>
<path d="M168.339 126.262H167.176V127.425H168.339V126.262Z" fill="#F5F5F5"/>
<path d="M168.339 128.209H167.176V129.371H168.339V128.209Z" fill="#F5F5F5"/>
<path d="M168.339 130.16H167.176V131.323H168.339V130.16Z" fill="#F5F5F5"/>
<path d="M168.339 132.109H167.176V133.272H168.339V132.109Z" fill="#F5F5F5"/>
<path d="M168.339 134.059H167.176V135.222H168.339V134.059Z" fill="#F5F5F5"/>
<path d="M168.339 136.008H167.176V137.171H168.339V136.008Z" fill="#F5F5F5"/>
<path d="M168.339 137.957H167.176V139.12H168.339V137.957Z" fill="#F5F5F5"/>
<path d="M168.339 139.906H167.176V141.069H168.339V139.906Z" fill="#F5F5F5"/>
<path d="M168.339 141.855H167.176V143.018H168.339V141.855Z" fill="#F5F5F5"/>
<path d="M168.339 143.805H167.176V144.968H168.339V143.805Z" fill="#F5F5F5"/>
<path d="M166.493 120.414H165.33V121.577H166.493V120.414Z" fill="#F5F5F5"/>
<path d="M166.493 122.361H165.33V123.524H166.493V122.361Z" fill="#F5F5F5"/>
<path d="M166.493 124.312H165.33V125.475H166.493V124.312Z" fill="#F5F5F5"/>
<path d="M166.493 126.262H165.33V127.425H166.493V126.262Z" fill="#F5F5F5"/>
<path d="M166.493 128.209H165.33V129.371H166.493V128.209Z" fill="#F5F5F5"/>
<path d="M166.493 130.16H165.33V131.323H166.493V130.16Z" fill="#F5F5F5"/>
<path d="M166.493 132.109H165.33V133.272H166.493V132.109Z" fill="#F5F5F5"/>
<path d="M166.493 134.059H165.33V135.222H166.493V134.059Z" fill="#F5F5F5"/>
<path d="M166.493 136.008H165.33V137.171H166.493V136.008Z" fill="#F5F5F5"/>
<path d="M166.493 137.957H165.33V139.12H166.493V137.957Z" fill="#F5F5F5"/>
<path d="M166.493 139.906H165.33V141.069H166.493V139.906Z" fill="#F5F5F5"/>
<path d="M166.493 141.855H165.33V143.018H166.493V141.855Z" fill="#F5F5F5"/>
<path d="M166.493 143.805H165.33V144.968H166.493V143.805Z" fill="#F5F5F5"/>
<path d="M164.647 120.414H163.484V121.577H164.647V120.414Z" fill="#F5F5F5"/>
<path d="M164.647 122.363H163.484V123.526H164.647V122.363Z" fill="#F5F5F5"/>
<path d="M164.647 124.311H163.484V125.473H164.647V124.311Z" fill="#F5F5F5"/>
<path d="M164.647 126.262H163.484V127.425H164.647V126.262Z" fill="#F5F5F5"/>
<path d="M164.647 128.211H163.484V129.373H164.647V128.211Z" fill="#F5F5F5"/>
<path d="M164.647 130.16H163.484V131.323H164.647V130.16Z" fill="#F5F5F5"/>
<path d="M164.647 132.109H163.484V133.272H164.647V132.109Z" fill="#F5F5F5"/>
<path d="M164.647 134.059H163.484V135.222H164.647V134.059Z" fill="#F5F5F5"/>
<path d="M164.647 136.008H163.484V137.171H164.647V136.008Z" fill="#F5F5F5"/>
<path d="M164.647 137.957H163.484V139.12H164.647V137.957Z" fill="#F5F5F5"/>
<path d="M164.647 139.906H163.484V141.069H164.647V139.906Z" fill="#F5F5F5"/>
<path d="M164.647 141.855H163.484V143.018H164.647V141.855Z" fill="#F5F5F5"/>
<path d="M164.647 143.805H163.484V144.968H164.647V143.805Z" fill="#F5F5F5"/>
<path d="M164.647 145.754H163.484V146.917H164.647V145.754Z" fill="#F5F5F5"/>
<path d="M154.388 120.994H153.225V122.157H154.388V120.994Z" fill="#F5F5F5"/>
<path d="M154.388 122.943H153.225V124.106H154.388V122.943Z" fill="#F5F5F5"/>
<path d="M154.388 124.893H153.225V126.056H154.388V124.893Z" fill="#F5F5F5"/>
<path d="M154.388 126.842H153.225V128.005H154.388V126.842Z" fill="#F5F5F5"/>
<path d="M154.388 128.791H153.225V129.954H154.388V128.791Z" fill="#F5F5F5"/>
<path d="M154.388 130.74H153.225V131.903H154.388V130.74Z" fill="#F5F5F5"/>
<path d="M154.388 132.689H153.225V133.852H154.388V132.689Z" fill="#F5F5F5"/>
<path d="M154.388 134.639H153.225V135.802H154.388V134.639Z" fill="#F5F5F5"/>
<path d="M154.388 136.588H153.225V137.751H154.388V136.588Z" fill="#F5F5F5"/>
<path d="M154.388 138.539H153.225V139.702H154.388V138.539Z" fill="#F5F5F5"/>
<path d="M154.388 144.387H153.225V145.55H154.388V144.387Z" fill="#F5F5F5"/>
<path d="M152.54 120.994H151.377V122.157H152.54V120.994Z" fill="#F5F5F5"/>
<path d="M152.54 122.943H151.377V124.106H152.54V122.943Z" fill="#F5F5F5"/>
<path d="M152.54 124.893H151.377V126.056H152.54V124.893Z" fill="#F5F5F5"/>
<path d="M152.54 126.842H151.377V128.005H152.54V126.842Z" fill="#F5F5F5"/>
<path d="M152.54 128.791H151.377V129.954H152.54V128.791Z" fill="#F5F5F5"/>
<path d="M152.54 130.74H151.377V131.903H152.54V130.74Z" fill="#F5F5F5"/>
<path d="M152.54 132.689H151.377V133.852H152.54V132.689Z" fill="#F5F5F5"/>
<path d="M152.54 134.639H151.377V135.802H152.54V134.639Z" fill="#F5F5F5"/>
<path d="M152.54 136.588H151.377V137.751H152.54V136.588Z" fill="#F5F5F5"/>
<path d="M152.54 142.436H151.377V143.598H152.54V142.436Z" fill="#F5F5F5"/>
<path d="M152.54 144.387H151.377V145.55H152.54V144.387Z" fill="#F5F5F5"/>
<path d="M150.694 120.994H149.531V122.157H150.694V120.994Z" fill="#F5F5F5"/>
<path d="M150.694 122.943H149.531V124.106H150.694V122.943Z" fill="#F5F5F5"/>
<path d="M150.694 124.893H149.531V126.056H150.694V124.893Z" fill="#F5F5F5"/>
<path d="M150.694 126.842H149.531V128.005H150.694V126.842Z" fill="#F5F5F5"/>
<path d="M150.694 128.791H149.531V129.954H150.694V128.791Z" fill="#F5F5F5"/>
<path d="M150.694 130.74H149.531V131.903H150.694V130.74Z" fill="#F5F5F5"/>
<path d="M150.694 132.689H149.531V133.852H150.694V132.689Z" fill="#F5F5F5"/>
<path d="M150.694 134.639H149.531V135.802H150.694V134.639Z" fill="#F5F5F5"/>
<path d="M150.694 140.486H149.531V141.649H150.694V140.486Z" fill="#F5F5F5"/>
<path d="M150.694 142.436H149.531V143.598H150.694V142.436Z" fill="#F5F5F5"/>
<path d="M150.694 144.387H149.531V145.55H150.694V144.387Z" fill="#F5F5F5"/>
<path d="M133.526 91.3789H132.363V92.5418H133.526V91.3789Z" fill="#F5F5F5"/>
<path d="M133.526 93.3281H132.363V94.491H133.526V93.3281Z" fill="#F5F5F5"/>
<path d="M133.526 95.2773H132.363V96.4403H133.526V95.2773Z" fill="#F5F5F5"/>
<path d="M133.526 97.2266H132.363V98.3895H133.526V97.2266Z" fill="#F5F5F5"/>
<path d="M133.526 99.1758H132.363V100.339H133.526V99.1758Z" fill="#F5F5F5"/>
<path d="M133.526 101.125H132.363V102.288H133.526V101.125Z" fill="#F5F5F5"/>
<path d="M133.526 103.074H132.363V104.237H133.526V103.074Z" fill="#F5F5F5"/>
<path d="M133.526 105.023H132.363V106.186H133.526V105.023Z" fill="#F5F5F5"/>
<path d="M133.526 106.973H132.363V108.136H133.526V106.973Z" fill="#F5F5F5"/>
<path d="M133.526 108.922H132.363V110.085H133.526V108.922Z" fill="#F5F5F5"/>
<path d="M133.526 110.871H132.363V112.034H133.526V110.871Z" fill="#F5F5F5"/>
<path d="M133.526 112.82H132.363V113.983H133.526V112.82Z" fill="#F5F5F5"/>
<path d="M133.526 114.77H132.363V115.932H133.526V114.77Z" fill="#F5F5F5"/>
<path d="M133.526 116.719H132.363V117.882H133.526V116.719Z" fill="#F5F5F5"/>
<path d="M133.526 118.668H132.363V119.831H133.526V118.668Z" fill="#F5F5F5"/>
<path d="M133.526 120.619H132.363V121.782H133.526V120.619Z" fill="#F5F5F5"/>
<path d="M133.526 122.568H132.363V123.731H133.526V122.568Z" fill="#F5F5F5"/>
<path d="M133.526 126.467H132.363V127.63H133.526V126.467Z" fill="#F5F5F5"/>
<path d="M133.526 128.416H132.363V129.579H133.526V128.416Z" fill="#F5F5F5"/>
<path d="M133.526 130.365H132.363V131.528H133.526V130.365Z" fill="#F5F5F5"/>
<path d="M133.526 132.314H132.363V133.477H133.526V132.314Z" fill="#F5F5F5"/>
<path d="M133.526 134.264H132.363V135.426H133.526V134.264Z" fill="#F5F5F5"/>
<path d="M131.681 91.3789H130.518V92.5418H131.681V91.3789Z" fill="#F5F5F5"/>
<path d="M131.681 93.3281H130.518V94.491H131.681V93.3281Z" fill="#F5F5F5"/>
<path d="M131.681 95.2773H130.518V96.4403H131.681V95.2773Z" fill="#F5F5F5"/>
<path d="M131.681 97.2266H130.518V98.3895H131.681V97.2266Z" fill="#F5F5F5"/>
<path d="M131.681 99.1758H130.518V100.339H131.681V99.1758Z" fill="#F5F5F5"/>
<path d="M131.681 101.125H130.518V102.288H131.681V101.125Z" fill="#F5F5F5"/>
<path d="M131.681 103.074H130.518V104.237H131.681V103.074Z" fill="#F5F5F5"/>
<path d="M131.681 105.023H130.518V106.186H131.681V105.023Z" fill="#F5F5F5"/>
<path d="M131.681 106.973H130.518V108.136H131.681V106.973Z" fill="#F5F5F5"/>
<path d="M131.681 108.922H130.518V110.085H131.681V108.922Z" fill="#F5F5F5"/>
<path d="M131.681 110.871H130.518V112.034H131.681V110.871Z" fill="#F5F5F5"/>
<path d="M131.681 112.822H130.518V113.985H131.681V112.822Z" fill="#F5F5F5"/>
<path d="M131.681 114.77H130.518V115.932H131.681V114.77Z" fill="#F5F5F5"/>
<path d="M131.681 116.719H130.518V117.882H131.681V116.719Z" fill="#F5F5F5"/>
<path d="M131.681 118.67H130.518V119.833H131.681V118.67Z" fill="#F5F5F5"/>
<path d="M131.681 120.617H130.518V121.78H131.681V120.617Z" fill="#F5F5F5"/>
<path d="M131.681 132.314H130.518V133.477H131.681V132.314Z" fill="#F5F5F5"/>
<path d="M131.681 134.264H130.518V135.426H131.681V134.264Z" fill="#F5F5F5"/>
<path d="M129.833 91.3789H128.67V92.5418H129.833V91.3789Z" fill="#F5F5F5"/>
<path d="M129.833 93.3281H128.67V94.491H129.833V93.3281Z" fill="#F5F5F5"/>
<path d="M129.833 95.2773H128.67V96.4403H129.833V95.2773Z" fill="#F5F5F5"/>
<path d="M129.833 97.2266H128.67V98.3895H129.833V97.2266Z" fill="#F5F5F5"/>
<path d="M129.833 99.1758H128.67V100.339H129.833V99.1758Z" fill="#F5F5F5"/>
<path d="M129.833 101.125H128.67V102.288H129.833V101.125Z" fill="#F5F5F5"/>
<path d="M129.833 103.074H128.67V104.237H129.833V103.074Z" fill="#F5F5F5"/>
<path d="M129.833 105.023H128.67V106.186H129.833V105.023Z" fill="#F5F5F5"/>
<path d="M129.833 106.973H128.67V108.136H129.833V106.973Z" fill="#F5F5F5"/>
<path d="M129.833 108.922H128.67V110.085H129.833V108.922Z" fill="#F5F5F5"/>
<path d="M129.833 110.871H128.67V112.034H129.833V110.871Z" fill="#F5F5F5"/>
<path d="M129.833 112.82H128.67V113.983H129.833V112.82Z" fill="#F5F5F5"/>
<path d="M129.833 114.77H128.67V115.932H129.833V114.77Z" fill="#F5F5F5"/>
<path d="M129.833 116.719H128.67V117.882H129.833V116.719Z" fill="#F5F5F5"/>
<path d="M129.833 118.668H128.67V119.831H129.833V118.668Z" fill="#F5F5F5"/>
<path d="M129.833 120.619H128.67V121.782H129.833V120.619Z" fill="#F5F5F5"/>
<path d="M129.833 124.518H128.67V125.68H129.833V124.518Z" fill="#F5F5F5"/>
<path d="M129.833 126.467H128.67V127.63H129.833V126.467Z" fill="#F5F5F5"/>
<path d="M129.833 128.416H128.67V129.579H129.833V128.416Z" fill="#F5F5F5"/>
<path d="M129.833 130.365H128.67V131.528H129.833V130.365Z" fill="#F5F5F5"/>
<path d="M129.833 134.264H128.67V135.426H129.833V134.264Z" fill="#F5F5F5"/>
<path d="M140.229 115.934H139.066V117.097H140.229V115.934Z" fill="#F5F5F5"/>
<path d="M140.229 117.883H139.066V119.046H140.229V117.883Z" fill="#F5F5F5"/>
<path d="M140.229 119.832H139.066V120.995H140.229V119.832Z" fill="#F5F5F5"/>
<path d="M140.229 121.781H139.066V122.944H140.229V121.781Z" fill="#F5F5F5"/>
<path d="M140.229 123.73H139.066V124.893H140.229V123.73Z" fill="#F5F5F5"/>
<path d="M140.229 125.68H139.066V126.843H140.229V125.68Z" fill="#F5F5F5"/>
<path d="M140.229 127.629H139.066V128.792H140.229V127.629Z" fill="#F5F5F5"/>
<path d="M140.229 131.527H139.066V132.69H140.229V131.527Z" fill="#F5F5F5"/>
<path d="M140.229 133.477H139.066V134.639H140.229V133.477Z" fill="#F5F5F5"/>
<path d="M140.229 135.426H139.066V136.589H140.229V135.426Z" fill="#F5F5F5"/>
<path d="M140.229 137.375H139.066V138.538H140.229V137.375Z" fill="#F5F5F5"/>
<path d="M140.229 139.324H139.066V140.487H140.229V139.324Z" fill="#F5F5F5"/>
<path d="M140.229 141.273H139.066V142.436H140.229V141.273Z" fill="#F5F5F5"/>
<path d="M140.229 143.223H139.066V144.386H140.229V143.223Z" fill="#F5F5F5"/>
<path d="M140.229 145.172H139.066V146.335H140.229V145.172Z" fill="#F5F5F5"/>
<path d="M138.384 115.934H137.221V117.097H138.384V115.934Z" fill="#F5F5F5"/>
<path d="M138.384 117.883H137.221V119.046H138.384V117.883Z" fill="#F5F5F5"/>
<path d="M138.384 119.832H137.221V120.995H138.384V119.832Z" fill="#F5F5F5"/>
<path d="M138.384 121.781H137.221V122.944H138.384V121.781Z" fill="#F5F5F5"/>
<path d="M138.384 123.73H137.221V124.893H138.384V123.73Z" fill="#F5F5F5"/>
<path d="M138.384 125.68H137.221V126.843H138.384V125.68Z" fill="#F5F5F5"/>
<path d="M138.384 131.527H137.221V132.69H138.384V131.527Z" fill="#F5F5F5"/>
<path d="M138.384 133.477H137.221V134.639H138.384V133.477Z" fill="#F5F5F5"/>
<path d="M138.384 135.426H137.221V136.589H138.384V135.426Z" fill="#F5F5F5"/>
<path d="M138.384 137.375H137.221V138.538H138.384V137.375Z" fill="#F5F5F5"/>
<path d="M138.384 139.324H137.221V140.487H138.384V139.324Z" fill="#F5F5F5"/>
<path d="M138.384 141.273H137.221V142.436H138.384V141.273Z" fill="#F5F5F5"/>
<path d="M138.384 143.223H137.221V144.386H138.384V143.223Z" fill="#F5F5F5"/>
<path d="M138.384 145.172H137.221V146.335H138.384V145.172Z" fill="#F5F5F5"/>
<path d="M136.536 115.934H135.373V117.097H136.536V115.934Z" fill="#F5F5F5"/>
<path d="M136.536 117.883H135.373V119.046H136.536V117.883Z" fill="#F5F5F5"/>
<path d="M136.536 119.832H135.373V120.995H136.536V119.832Z" fill="#F5F5F5"/>
<path d="M136.536 121.781H135.373V122.944H136.536V121.781Z" fill="#F5F5F5"/>
<path d="M136.536 123.73H135.373V124.893H136.536V123.73Z" fill="#F5F5F5"/>
<path d="M136.536 125.68H135.373V126.843H136.536V125.68Z" fill="#F5F5F5"/>
<path d="M136.536 129.578H135.373V130.741H136.536V129.578Z" fill="#F5F5F5"/>
<path d="M136.536 131.527H135.373V132.69H136.536V131.527Z" fill="#F5F5F5"/>
<path d="M136.536 133.477H135.373V134.639H136.536V133.477Z" fill="#F5F5F5"/>
<path d="M136.536 135.426H135.373V136.589H136.536V135.426Z" fill="#F5F5F5"/>
<path d="M136.536 137.375H135.373V138.538H136.536V137.375Z" fill="#F5F5F5"/>
<path d="M136.536 139.324H135.373V140.487H136.536V139.324Z" fill="#F5F5F5"/>
<path d="M136.536 141.273H135.373V142.436H136.536V141.273Z" fill="#F5F5F5"/>
<path d="M136.536 143.223H135.373V144.386H136.536V143.223Z" fill="#F5F5F5"/>
<path d="M136.536 145.172H135.373V146.335H136.536V145.172Z" fill="#F5F5F5"/>
<path d="M97.62 105.023H96.457V106.186H97.62V105.023Z" fill="#F5F5F5"/>
<path d="M97.62 106.973H96.457V108.136H97.62V106.973Z" fill="#F5F5F5"/>
<path d="M97.62 108.922H96.457V110.085H97.62V108.922Z" fill="#F5F5F5"/>
<path d="M97.62 110.871H96.457V112.034H97.62V110.871Z" fill="#F5F5F5"/>
<path d="M97.62 112.82H96.457V113.983H97.62V112.82Z" fill="#F5F5F5"/>
<path d="M97.62 114.77H96.457V115.932H97.62V114.77Z" fill="#F5F5F5"/>
<path d="M97.62 116.719H96.457V117.882H97.62V116.719Z" fill="#F5F5F5"/>
<path d="M97.62 118.668H96.457V119.831H97.62V118.668Z" fill="#F5F5F5"/>
<path d="M97.62 120.619H96.457V121.782H97.62V120.619Z" fill="#F5F5F5"/>
<path d="M97.62 122.568H96.457V123.731H97.62V122.568Z" fill="#F5F5F5"/>
<path d="M97.62 124.518H96.457V125.68H97.62V124.518Z" fill="#F5F5F5"/>
<path d="M97.62 126.467H96.457V127.63H97.62V126.467Z" fill="#F5F5F5"/>
<path d="M97.62 128.416H96.457V129.579H97.62V128.416Z" fill="#F5F5F5"/>
<path d="M97.62 132.314H96.457V133.477H97.62V132.314Z" fill="#F5F5F5"/>
<path d="M97.62 134.264H96.457V135.426H97.62V134.264Z" fill="#F5F5F5"/>
<path d="M97.62 136.213H96.457V137.376H97.62V136.213Z" fill="#F5F5F5"/>
<path d="M97.62 138.162H96.457V139.325H97.62V138.162Z" fill="#F5F5F5"/>
<path d="M97.62 142.061H96.457V143.223H97.62V142.061Z" fill="#F5F5F5"/>
<path d="M97.62 144.01H96.457V145.172H97.62V144.01Z" fill="#F5F5F5"/>
<path d="M97.62 145.959H96.457V147.122H97.62V145.959Z" fill="#F5F5F5"/>
<path d="M95.7723 105.023H94.6094V106.186H95.7723V105.023Z" fill="#F5F5F5"/>
<path d="M95.7723 106.973H94.6094V108.136H95.7723V106.973Z" fill="#F5F5F5"/>
<path d="M95.7723 108.922H94.6094V110.085H95.7723V108.922Z" fill="#F5F5F5"/>
<path d="M95.7723 110.871H94.6094V112.034H95.7723V110.871Z" fill="#F5F5F5"/>
<path d="M95.7723 112.82H94.6094V113.983H95.7723V112.82Z" fill="#F5F5F5"/>
<path d="M95.7723 114.77H94.6094V115.932H95.7723V114.77Z" fill="#F5F5F5"/>
<path d="M95.7723 116.719H94.6094V117.882H95.7723V116.719Z" fill="#F5F5F5"/>
<path d="M95.7723 118.668H94.6094V119.831H95.7723V118.668Z" fill="#F5F5F5"/>
<path d="M95.7723 120.619H94.6094V121.782H95.7723V120.619Z" fill="#F5F5F5"/>
<path d="M95.7723 122.568H94.6094V123.731H95.7723V122.568Z" fill="#F5F5F5"/>
<path d="M95.7723 124.518H94.6094V125.68H95.7723V124.518Z" fill="#F5F5F5"/>
<path d="M95.7723 126.467H94.6094V127.63H95.7723V126.467Z" fill="#F5F5F5"/>
<path d="M95.7723 128.416H94.6094V129.579H95.7723V128.416Z" fill="#F5F5F5"/>
<path d="M95.7723 134.264H94.6094V135.426H95.7723V134.264Z" fill="#F5F5F5"/>
<path d="M95.7723 136.213H94.6094V137.376H95.7723V136.213Z" fill="#F5F5F5"/>
<path d="M95.7723 140.111H94.6094V141.274H95.7723V140.111Z" fill="#F5F5F5"/>
<path d="M95.7723 142.061H94.6094V143.223H95.7723V142.061Z" fill="#F5F5F5"/>
<path d="M95.7723 144.01H94.6094V145.172H95.7723V144.01Z" fill="#F5F5F5"/>
<path d="M95.7723 145.959H94.6094V147.122H95.7723V145.959Z" fill="#F5F5F5"/>
<path d="M93.9246 105.023H92.7617V106.186H93.9246V105.023Z" fill="#F5F5F5"/>
<path d="M93.9246 106.973H92.7617V108.136H93.9246V106.973Z" fill="#F5F5F5"/>
<path d="M93.9246 108.922H92.7617V110.085H93.9246V108.922Z" fill="#F5F5F5"/>
<path d="M93.9246 110.871H92.7617V112.034H93.9246V110.871Z" fill="#F5F5F5"/>
<path d="M93.9246 112.82H92.7617V113.983H93.9246V112.82Z" fill="#F5F5F5"/>
<path d="M93.9246 114.77H92.7617V115.932H93.9246V114.77Z" fill="#F5F5F5"/>
<path d="M93.9246 116.719H92.7617V117.882H93.9246V116.719Z" fill="#F5F5F5"/>
<path d="M93.9246 118.668H92.7617V119.831H93.9246V118.668Z" fill="#F5F5F5"/>
<path d="M93.9246 120.619H92.7617V121.782H93.9246V120.619Z" fill="#F5F5F5"/>
<path d="M93.9246 122.568H92.7617V123.731H93.9246V122.568Z" fill="#F5F5F5"/>
<path d="M93.9246 124.518H92.7617V125.68H93.9246V124.518Z" fill="#F5F5F5"/>
<path d="M93.9246 126.467H92.7617V127.63H93.9246V126.467Z" fill="#F5F5F5"/>
<path d="M93.9246 128.416H92.7617V129.579H93.9246V128.416Z" fill="#F5F5F5"/>
<path d="M93.9246 130.365H92.7617V131.528H93.9246V130.365Z" fill="#F5F5F5"/>
<path d="M93.9246 134.264H92.7617V135.426H93.9246V134.264Z" fill="#F5F5F5"/>
<path d="M93.9246 138.162H92.7617V139.325H93.9246V138.162Z" fill="#F5F5F5"/>
<path d="M93.9246 140.111H92.7617V141.274H93.9246V140.111Z" fill="#F5F5F5"/>
<path d="M93.9246 142.061H92.7617V143.223H93.9246V142.061Z" fill="#F5F5F5"/>
<path d="M93.9246 144.01H92.7617V145.172H93.9246V144.01Z" fill="#F5F5F5"/>
<path d="M93.9246 145.959H92.7617V147.122H93.9246V145.959Z" fill="#F5F5F5"/>
<path d="M105.143 116.139H103.98V117.302H105.143V116.139Z" fill="#F5F5F5"/>
<path d="M105.143 118.088H103.98V119.251H105.143V118.088Z" fill="#F5F5F5"/>
<path d="M105.143 120.037H103.98V121.2H105.143V120.037Z" fill="#F5F5F5"/>
<path d="M105.143 121.986H103.98V123.149H105.143V121.986Z" fill="#F5F5F5"/>
<path d="M105.143 123.936H103.98V125.098H105.143V123.936Z" fill="#F5F5F5"/>
<path d="M105.143 125.885H103.98V127.048H105.143V125.885Z" fill="#F5F5F5"/>
<path d="M105.143 131.732H103.98V132.895H105.143V131.732Z" fill="#F5F5F5"/>
<path d="M105.143 133.682H103.98V134.845H105.143V133.682Z" fill="#F5F5F5"/>
<path d="M105.143 135.631H103.98V136.794H105.143V135.631Z" fill="#F5F5F5"/>
<path d="M105.143 137.58H103.98V138.743H105.143V137.58Z" fill="#F5F5F5"/>
<path d="M105.143 139.529H103.98V140.692H105.143V139.529Z" fill="#F5F5F5"/>
<path d="M105.143 141.479H103.98V142.641H105.143V141.479Z" fill="#F5F5F5"/>
<path d="M105.143 143.428H103.98V144.591H105.143V143.428Z" fill="#F5F5F5"/>
<path d="M103.296 116.139H102.133V117.302H103.296V116.139Z" fill="#F5F5F5"/>
<path d="M103.296 118.088H102.133V119.251H103.296V118.088Z" fill="#F5F5F5"/>
<path d="M103.296 120.037H102.133V121.2H103.296V120.037Z" fill="#F5F5F5"/>
<path d="M103.296 121.986H102.133V123.149H103.296V121.986Z" fill="#F5F5F5"/>
<path d="M103.296 123.936H102.133V125.098H103.296V123.936Z" fill="#F5F5F5"/>
<path d="M103.296 125.885H102.133V127.048H103.296V125.885Z" fill="#F5F5F5"/>
<path d="M103.296 131.732H102.133V132.895H103.296V131.732Z" fill="#F5F5F5"/>
<path d="M103.296 133.682H102.133V134.845H103.296V133.682Z" fill="#F5F5F5"/>
<path d="M103.296 135.631H102.133V136.794H103.296V135.631Z" fill="#F5F5F5"/>
<path d="M103.296 137.58H102.133V138.743H103.296V137.58Z" fill="#F5F5F5"/>
<path d="M103.296 139.529H102.133V140.692H103.296V139.529Z" fill="#F5F5F5"/>
<path d="M103.296 141.479H102.133V142.641H103.296V141.479Z" fill="#F5F5F5"/>
<path d="M103.296 145.377H102.133V146.54H103.296V145.377Z" fill="#F5F5F5"/>
<path d="M41.9442 107.555H40.7812V108.718H41.9442V107.555Z" fill="#F5F5F5"/>
<path d="M41.9442 109.504H40.7812V110.667H41.9442V109.504Z" fill="#F5F5F5"/>
<path d="M41.9442 111.453H40.7812V112.616H41.9442V111.453Z" fill="#F5F5F5"/>
<path d="M41.9442 113.402H40.7812V114.565H41.9442V113.402Z" fill="#F5F5F5"/>
<path d="M41.9442 115.352H40.7812V116.514H41.9442V115.352Z" fill="#F5F5F5"/>
<path d="M41.9442 117.301H40.7812V118.464H41.9442V117.301Z" fill="#F5F5F5"/>
<path d="M41.9442 119.25H40.7812V120.413H41.9442V119.25Z" fill="#F5F5F5"/>
<path d="M41.9442 121.199H40.7812V122.362H41.9442V121.199Z" fill="#F5F5F5"/>
<path d="M41.9442 123.148H40.7812V124.311H41.9442V123.148Z" fill="#F5F5F5"/>
<path d="M41.9442 125.098H40.7812V126.261H41.9442V125.098Z" fill="#F5F5F5"/>
<path d="M41.9442 127.047H40.7812V128.21H41.9442V127.047Z" fill="#F5F5F5"/>
<path d="M41.9442 130.945H40.7812V132.108H41.9442V130.945Z" fill="#F5F5F5"/>
<path d="M41.9442 132.895H40.7812V134.057H41.9442V132.895Z" fill="#F5F5F5"/>
<path d="M41.9442 134.844H40.7812V136.007H41.9442V134.844Z" fill="#F5F5F5"/>
<path d="M41.9442 136.795H40.7812V137.958H41.9442V136.795Z" fill="#F5F5F5"/>
<path d="M41.9442 138.742H40.7812V139.905H41.9442V138.742Z" fill="#F5F5F5"/>
<path d="M41.9442 140.691H40.7812V141.854H41.9442V140.691Z" fill="#F5F5F5"/>
<path d="M41.9442 142.643H40.7812V143.806H41.9442V142.643Z" fill="#F5F5F5"/>
<path d="M41.9442 144.592H40.7812V145.755H41.9442V144.592Z" fill="#F5F5F5"/>
<path d="M40.0985 107.555H38.9355V108.718H40.0985V107.555Z" fill="#F5F5F5"/>
<path d="M40.0985 109.504H38.9355V110.667H40.0985V109.504Z" fill="#F5F5F5"/>
<path d="M40.0985 111.453H38.9355V112.616H40.0985V111.453Z" fill="#F5F5F5"/>
<path d="M40.0985 113.402H38.9355V114.565H40.0985V113.402Z" fill="#F5F5F5"/>
<path d="M40.0985 115.352H38.9355V116.514H40.0985V115.352Z" fill="#F5F5F5"/>
<path d="M40.0985 117.301H38.9355V118.464H40.0985V117.301Z" fill="#F5F5F5"/>
<path d="M40.0985 119.25H38.9355V120.413H40.0985V119.25Z" fill="#F5F5F5"/>
<path d="M40.0985 121.199H38.9355V122.362H40.0985V121.199Z" fill="#F5F5F5"/>
<path d="M40.0985 123.148H38.9355V124.311H40.0985V123.148Z" fill="#F5F5F5"/>
<path d="M40.0985 125.098H38.9355V126.261H40.0985V125.098Z" fill="#F5F5F5"/>
<path d="M40.0985 127.047H38.9355V128.21H40.0985V127.047Z" fill="#F5F5F5"/>
<path d="M40.0985 128.996H38.9355V130.159H40.0985V128.996Z" fill="#F5F5F5"/>
<path d="M40.0985 130.945H38.9355V132.108H40.0985V130.945Z" fill="#F5F5F5"/>
<path d="M40.0985 132.895H38.9355V134.057H40.0985V132.895Z" fill="#F5F5F5"/>
<path d="M40.0985 134.844H38.9355V136.007H40.0985V134.844Z" fill="#F5F5F5"/>
<path d="M40.0985 136.795H38.9355V137.958H40.0985V136.795Z" fill="#F5F5F5"/>
<path d="M40.0985 138.742H38.9355V139.905H40.0985V138.742Z" fill="#F5F5F5"/>
<path d="M40.0985 140.691H38.9355V141.854H40.0985V140.691Z" fill="#F5F5F5"/>
<path d="M40.0985 142.643H38.9355V143.806H40.0985V142.643Z" fill="#F5F5F5"/>
<path d="M40.0985 144.592H38.9355V145.755H40.0985V144.592Z" fill="#F5F5F5"/>
<path d="M51.0418 115.146H49.8789V116.309H51.0418V115.146Z" fill="#F5F5F5"/>
<path d="M51.0418 117.096H49.8789V118.259H51.0418V117.096Z" fill="#F5F5F5"/>
<path d="M51.0418 119.045H49.8789V120.208H51.0418V119.045Z" fill="#F5F5F5"/>
<path d="M51.0418 120.994H49.8789V122.157H51.0418V120.994Z" fill="#F5F5F5"/>
<path d="M51.0418 122.943H49.8789V124.106H51.0418V122.943Z" fill="#F5F5F5"/>
<path d="M51.0418 124.893H49.8789V126.056H51.0418V124.893Z" fill="#F5F5F5"/>
<path d="M51.0418 126.842H49.8789V128.005H51.0418V126.842Z" fill="#F5F5F5"/>
<path d="M51.0418 128.791H49.8789V129.954H51.0418V128.791Z" fill="#F5F5F5"/>
<path d="M51.0418 130.74H49.8789V131.903H51.0418V130.74Z" fill="#F5F5F5"/>
<path d="M51.0418 132.689H49.8789V133.852H51.0418V132.689Z" fill="#F5F5F5"/>
<path d="M49.1961 115.146H48.0332V116.309H49.1961V115.146Z" fill="#F5F5F5"/>
<path d="M49.1961 117.096H48.0332V118.259H49.1961V117.096Z" fill="#F5F5F5"/>
<path d="M49.1961 119.045H48.0332V120.208H49.1961V119.045Z" fill="#F5F5F5"/>
<path d="M49.1961 120.994H48.0332V122.157H49.1961V120.994Z" fill="#F5F5F5"/>
<path d="M49.1961 122.943H48.0332V124.106H49.1961V122.943Z" fill="#F5F5F5"/>
<path d="M49.1961 124.893H48.0332V126.056H49.1961V124.893Z" fill="#F5F5F5"/>
<path d="M49.1961 126.842H48.0332V128.005H49.1961V126.842Z" fill="#F5F5F5"/>
<path d="M49.1961 128.791H48.0332V129.954H49.1961V128.791Z" fill="#F5F5F5"/>
<path d="M49.1961 130.74H48.0332V131.903H49.1961V130.74Z" fill="#F5F5F5"/>
<path d="M43.8119 36.1273C43.8119 35.2595 43.1085 34.5562 42.2408 34.5562C42.0839 34.5562 41.9328 34.5798 41.7895 34.6228C41.8123 34.4651 41.8247 34.3045 41.8247 34.1405C41.8247 32.3028 40.3352 30.8132 38.4974 30.8132C38.2879 30.8132 38.0834 30.8335 37.8847 30.8703C37.3734 30.0332 36.4539 29.4727 35.4015 29.4727C33.8085 29.4727 32.5159 30.7527 32.4923 32.3404C32.4762 32.34 32.4605 32.3379 32.4439 32.3379C30.9634 32.3379 29.7637 33.5381 29.7637 35.0182C29.7637 36.4986 30.9639 37.6984 32.4439 37.6984H42.2876L42.2855 37.6964C43.1321 37.6728 43.8119 36.9801 43.8119 36.1273Z" fill="#F5F5F5"/>
<path d="M138.592 36.9562H146.53C146.509 36.7657 146.496 36.5732 146.496 36.377C146.496 33.491 148.836 31.1519 151.722 31.1519C151.786 31.1519 151.848 31.1593 151.912 31.1614C152.567 29.4044 154.255 28.1504 156.24 28.1504C158.794 28.1504 160.864 30.22 160.864 32.7735C160.864 32.7773 160.863 32.7806 160.863 32.7839C163.127 32.8894 164.941 34.6957 165.058 36.9562H165.269C166.546 36.9562 167.592 38.0015 167.592 39.2791C167.592 40.5567 166.546 41.6021 165.269 41.6021H138.592C137.315 41.6021 136.27 40.5567 136.27 39.2791C136.269 38.0015 137.314 36.9562 138.592 36.9562Z" fill="#F5F5F5"/>
<path d="M87.2632 47.3144C88.9739 44.5844 92.0006 42.7637 95.4596 42.7637C98.9761 42.7637 102.045 44.6461 103.739 47.4518C104.184 47.3276 104.651 47.256 105.136 47.256C107.998 47.256 110.319 49.5769 110.319 52.4397C110.319 52.4417 110.318 52.4442 110.318 52.4463H113.051C114.475 52.4463 115.64 53.6113 115.64 55.0346C115.64 56.4584 114.475 57.623 113.051 57.623H103.62C101.903 60.3206 98.8941 62.1153 95.4596 62.1153C92.7512 62.1153 90.3061 60.9995 88.5499 59.2065C88.3868 59.2198 88.2229 59.2313 88.056 59.2313C84.749 59.2313 82.0684 56.5507 82.0684 53.2437C82.0684 50.2057 84.3317 47.7027 87.2632 47.3144Z" fill="#F5F5F5"/>
<path d="M96.5005 170.01C140.832 170.01 176.771 167.911 176.771 165.322C176.771 162.734 140.832 160.635 96.5005 160.635C52.1686 160.635 16.2305 162.734 16.2305 165.322C16.2305 167.911 52.1686 170.01 96.5005 170.01Z" fill="#F5F5F5"/>
<path d="M28.9004 155.304C28.9004 155.304 30.8668 151.014 28.6201 146.784C26.3733 142.554 25.7217 141.557 27.1541 140.691C28.5865 139.824 29.2436 144.074 29.2436 144.074C29.2436 144.074 30.4508 141.15 29.4539 138.09C28.457 135.03 27.8318 130.046 29.193 129.512C30.5547 128.977 29.453 135.729 30.6342 138.031C30.6342 138.031 31.6265 135.469 31.7897 133.011C31.9528 130.553 31.6977 126.628 32.7729 125.621C33.8481 124.614 34.537 125.311 33.48 130.735C32.4235 136.16 32.4314 140.569 32.4314 140.569C32.4314 140.569 34.7651 133.454 36.3312 133.246C37.8974 133.038 37.8953 135.343 36.5548 137.341C35.2143 139.34 32.6288 142.92 32.2049 144.763C32.2049 144.763 34.7663 139.408 37.0706 141.049C39.375 142.69 35.0652 145.924 33.1443 147.093C31.2233 148.262 29.8894 155.587 29.8894 155.587L28.9004 155.304Z" fill="#407BFF"/>
<path opacity="0.2" d="M28.9004 155.304C28.9004 155.304 30.8668 151.014 28.6201 146.784C26.3733 142.554 25.7217 141.557 27.1541 140.691C28.5865 139.824 29.2436 144.074 29.2436 144.074C29.2436 144.074 30.4508 141.15 29.4539 138.09C28.457 135.03 27.8318 130.046 29.193 129.512C30.5547 128.977 29.453 135.729 30.6342 138.031C30.6342 138.031 31.6265 135.469 31.7897 133.011C31.9528 130.553 31.6977 126.628 32.7729 125.621C33.8481 124.614 34.537 125.311 33.48 130.735C32.4235 136.16 32.4314 140.569 32.4314 140.569C32.4314 140.569 34.7651 133.454 36.3312 133.246C37.8974 133.038 37.8953 135.343 36.5548 137.341C35.2143 139.34 32.6288 142.92 32.2049 144.763C32.2049 144.763 34.7663 139.408 37.0706 141.049C39.375 142.69 35.0652 145.924 33.1443 147.093C31.2233 148.262 29.8894 155.587 29.8894 155.587L28.9004 155.304Z" fill="black"/>
<path d="M30.4531 157.063C30.4531 157.063 28.5383 152.744 30.8356 148.548C33.1329 144.352 33.7961 143.365 32.3745 142.477C30.9528 141.589 30.2444 145.829 30.2444 145.829C30.2444 145.829 29.0724 142.888 30.1057 139.843C31.1395 136.798 31.8243 131.823 30.4692 131.268C29.1142 130.714 30.1347 137.482 28.9258 139.766C28.9258 139.766 27.9645 137.189 27.8308 134.728C27.6971 132.269 27.9993 128.348 26.9362 127.325C25.8734 126.302 25.1762 126.988 26.1678 132.428C27.1593 137.867 27.0984 142.276 27.0984 142.276C27.0984 142.276 24.8504 135.127 23.2867 134.896C21.7231 134.665 21.6974 136.969 23.0139 138.987C24.3304 141.006 26.8728 144.624 27.2748 146.473C27.2748 146.473 24.7776 141.08 22.4542 142.687C20.1304 144.294 24.4012 147.592 26.3077 148.789C28.2146 149.986 29.4603 157.331 29.4603 157.331L30.4531 157.063Z" fill="#407BFF"/>
<path d="M21.6211 153.984H37.4404L36.1599 165.305H22.9016L21.6211 153.984Z" fill="#263238"/>
<path d="M62.5244 42.6426H50.631C48.6086 42.6426 46.9688 44.282 46.9688 46.3048V56.6557C46.9688 58.678 48.6086 60.3179 50.631 60.3179H54.1036L54.0924 64.0004L56.5669 60.3179H62.5248C64.5472 60.3179 66.187 58.6785 66.187 56.6557V46.3048C66.1866 44.282 64.5472 42.6426 62.5244 42.6426Z" fill="#407BFF"/>
<path opacity="0.7" d="M62.5244 42.6426H50.631C48.6086 42.6426 46.9688 44.282 46.9688 46.3048V56.6557C46.9688 58.678 48.6086 60.3179 50.631 60.3179H54.1036L54.0924 64.0004L56.5669 60.3179H62.5248C64.5472 60.3179 66.187 58.6785 66.187 56.6557V46.3048C66.1866 44.282 64.5472 42.6426 62.5244 42.6426Z" fill="white"/>
<path d="M54.2174 56.7521L54.6264 57.0908L55.3505 56.3667L55.0119 55.9576C55.1978 55.674 55.334 55.3553 55.4052 55.0121L55.9322 54.9624V53.9386L55.4052 53.8889C55.334 53.5457 55.1978 53.2265 55.0119 52.9433L55.3505 52.5343L54.6264 51.8102L54.2174 52.1488C53.9338 51.963 53.6146 51.8267 53.2718 51.7555L53.2221 51.2285H52.1983L52.1486 51.7555C51.8054 51.8267 51.4862 51.963 51.2031 52.1488L50.794 51.8102L50.07 52.5343L50.4086 52.9433C50.2227 53.2265 50.0865 53.5457 50.0153 53.8889L49.4883 53.9386V54.9624L50.0153 55.0121C50.0865 55.3553 50.2223 55.6745 50.4086 55.9576L50.07 56.3667L50.794 57.0908L51.2031 56.7521C51.4867 56.938 51.8054 57.0742 52.1486 57.1454L52.1983 57.6724H53.2221L53.2718 57.1454C53.6146 57.0742 53.9338 56.938 54.2174 56.7521ZM51.324 54.4503C51.324 53.6848 51.9445 53.0642 52.71 53.0642C53.4755 53.0642 54.0961 53.6848 54.0961 54.4503C54.0961 55.2158 53.4755 55.8363 52.71 55.8363C51.9445 55.8363 51.324 55.2158 51.324 54.4503Z" fill="#407BFF"/>
<path d="M61.2522 53.4978L61.8429 53.9872L62.8891 52.941L62.3998 52.3502C62.6685 51.9408 62.8651 51.4796 62.9678 50.984L63.7295 50.9124V49.4332L62.9678 49.3616C62.8651 48.8656 62.6685 48.4048 62.3998 47.9954L62.8891 47.4042L61.8429 46.358L61.2522 46.8473C60.8427 46.5787 60.3815 46.382 59.886 46.2793L59.8143 45.5176L58.3351 45.518L58.2635 46.2793C57.7675 46.382 57.3063 46.5787 56.8973 46.8473L56.3061 46.358L55.2599 47.4042L55.7493 47.9954C55.4806 48.4048 55.2839 48.8656 55.1813 49.3616L54.4199 49.4332V50.9124L55.1813 50.984C55.2844 51.48 55.4806 51.9408 55.7493 52.3502L55.2599 52.941L56.3061 53.9872L56.8973 53.4978C57.3067 53.7665 57.7679 53.9632 58.2635 54.0658L58.3351 54.8276H59.8143L59.886 54.0658C60.3815 53.9628 60.8427 53.7665 61.2522 53.4978ZM57.072 50.1722C57.072 49.0664 57.9683 48.1697 59.0745 48.1697C60.1803 48.1697 61.077 49.066 61.077 50.1722C61.077 51.278 60.1803 52.1747 59.0745 52.1747C57.9683 52.1747 57.072 51.2784 57.072 50.1722Z" fill="#407BFF"/>
<path d="M53.9102 82.2188C57.3919 82.9996 64.4891 90.9612 64.4891 90.9612L77.3115 92.2475L77.4477 95.278C77.4477 95.278 64.8961 95.5289 63.2732 95.3786C61.6503 95.2283 53.9102 89.2058 53.9102 89.2058V82.2188Z" fill="#407BFF"/>
<path opacity="0.7" d="M77.4461 95.2805C77.4461 95.2805 64.8977 95.5289 63.2748 95.3798C62.4593 95.3053 60.1077 93.7528 57.9632 92.221C56.8744 91.4468 55.8394 90.6726 55.0859 90.1055C54.3697 89.5631 53.9102 89.2071 53.9102 89.2071V82.2188C57.3919 83.0012 64.4879 90.9624 64.4879 90.9624L77.3094 92.25L77.4461 95.2805Z" fill="white"/>
<path d="M77.0429 95.1536L80.8563 94.8638L80.0738 91.613C80.0738 91.613 77.3795 91.4408 76.4414 93.4603L77.0429 95.1536Z" fill="#EBB376"/>
<path d="M83.1565 93.4082L81.9931 91.125L80.0742 91.6139L80.8567 94.8647L83.1565 93.4082Z" fill="#EBB376"/>
<path opacity="0.1" d="M57.9638 92.2212C56.875 91.447 55.84 90.6729 55.0865 90.1057C54.805 89.1907 54.6725 88.2344 54.7967 87.3691C54.7967 87.3691 57.4463 89.435 57.9638 92.2212Z" fill="black"/>
<path d="M46.4913 161.985L43.0117 162.04C42.8945 162.042 42.7943 162.126 42.7707 162.241L42.2462 164.8C42.2015 165.03 42.3509 165.252 42.5803 165.296C42.6109 165.302 42.642 165.305 42.6734 165.304C43.7991 165.268 44.6176 165.186 46.0318 165.163C46.9029 165.149 49.5313 165.199 50.7336 165.18C51.9359 165.161 52.0741 163.97 51.5802 163.869C49.3645 163.423 47.6924 162.782 46.9753 162.159C46.8424 162.041 46.6694 161.979 46.4913 161.985Z" fill="#263238"/>
<path d="M75.8331 161.985L72.3535 162.04C72.2363 162.042 72.1361 162.126 72.1125 162.241L71.588 164.8C71.5433 165.03 71.6927 165.252 71.9221 165.296C71.9527 165.302 71.9838 165.305 72.0152 165.304C73.1409 165.268 73.9598 165.186 75.3736 165.163C76.2447 165.149 78.8731 165.199 80.0754 165.18C81.2777 165.161 81.4155 163.97 80.922 163.869C78.7063 163.423 77.0342 162.782 76.3171 162.159C76.1842 162.041 76.0107 161.979 75.8331 161.985Z" fill="#263238"/>
<path d="M42.2363 162.163H46.977C46.977 162.163 53.0132 142.267 53.5331 137.191C54.0527 132.116 54.2419 119.398 54.2419 119.398C54.2419 119.398 54.2419 119.401 54.2461 119.406C54.2502 119.41 54.2539 119.418 54.2618 119.429C54.4667 119.701 56.2581 122.221 58.3173 125.146C61.0145 128.978 64.1763 133.506 64.842 134.616C66.7989 137.884 71.5827 162.163 71.5827 162.163H76.3197C76.3197 162.163 75.1266 140.432 72.6935 133.27C70.2641 126.107 59.7353 110.468 59.2786 109.625C58.6957 108.554 57.2629 105.152 57.2629 105.152L43.0602 107.125C43.0602 107.125 43.2419 109.531 43.2577 111.634C43.3247 119.524 46.0559 130.191 46.296 133.057C46.744 138.51 42.2363 162.163 42.2363 162.163Z" fill="#263238"/>
<path d="M53.9086 82.2209C53.9086 82.2209 58.1579 89.8034 57.2582 105.15C52.9791 105.745 45.1384 106.835 43.056 107.125C42.6548 104.959 42.5455 94.133 39.0137 84.1531C39.0137 84.1531 41.3801 83.3259 43.6844 82.8912C45.487 82.5513 48.1064 82.1278 49.7218 82.0516C51.8518 81.9514 53.9086 82.2209 53.9086 82.2209Z" fill="#407BFF"/>
<path opacity="0.7" d="M57.2587 105.149C54.1288 105.584 49.0987 106.284 45.8033 106.743C44.5944 106.909 43.6174 107.045 43.0585 107.124C42.8101 105.799 42.6734 101.216 41.7916 95.5692C41.7751 95.4492 41.7544 95.325 41.7337 95.2008C41.4853 93.6483 41.1789 92.0213 40.798 90.3611C40.3261 88.316 39.7423 86.217 39.0137 84.1511C39.0137 84.1511 41.3818 83.3273 43.6836 82.8926C45.4886 82.5489 48.1051 82.1267 49.7239 82.048C51.8518 81.9528 53.9094 82.2177 53.9094 82.2177C53.9094 82.2177 58.1566 89.8022 57.2587 105.149Z" fill="white"/>
<path d="M45.0742 84.1524L48.4835 85.7728L49.2498 86.7018C49.2498 86.7018 50.4691 93.0447 50.3399 98.0127L51.6303 99.1591L52.6132 97.2485C52.6132 97.2485 50.5846 88.311 49.9296 86.4662L50.1018 85.2925L50.7026 82.8301L45.2907 83.1633L45.0742 84.1524Z" fill="#263238"/>
<path d="M43.3633 76.3945C44.072 78.2633 45.0541 81.7409 43.9214 83.262C45.9081 83.7335 47.3352 84.0366 49.1473 85.1804C49.5033 83.8979 49.9301 82.2377 49.9301 82.2377C47.6867 82.0903 47.4693 80.4815 47.589 78.9154L43.3633 76.3945Z" fill="#EBB376"/>
<path opacity="0.2" d="M45.0854 77.4219L47.586 78.9123C47.5566 79.2832 47.5479 79.6554 47.5827 80.0102C46.7389 80.0317 45.453 79.3205 45.2187 78.473C45.102 78.0507 45.0494 77.6343 45.0854 77.4219Z" fill="black"/>
<path opacity="0.5" d="M42.2363 162.163H46.977C46.977 162.163 53.0132 142.267 53.5331 137.191C54.0527 132.116 54.2419 119.398 54.2419 119.398C54.2419 119.398 54.2419 119.401 54.2461 119.406C54.2502 119.41 54.2539 119.418 54.2618 119.429C54.4667 119.701 56.2581 122.221 58.3173 125.146C61.0145 128.978 64.1763 133.506 64.842 134.616C66.7989 137.884 71.5827 162.163 71.5827 162.163H76.3197C76.3197 162.163 75.1266 140.432 72.6935 133.27C70.2641 126.107 59.7353 110.468 59.2786 109.625C58.6957 108.554 57.2629 105.152 57.2629 105.152L43.0602 107.125C43.0602 107.125 43.2419 109.531 43.2577 111.634C43.3247 119.524 46.0559 130.191 46.296 133.057C46.744 138.51 42.2363 162.163 42.2363 162.163Z" fill="white"/>
<path d="M41.9102 83.2912L43.0888 81.819L46.9117 82.5551L48.8521 84.7787L49.096 82.2123L49.8138 81.3516L51.3821 82.0301V83.6364L50.2655 83.2729L49.2984 85.5143L46.246 84.2595L45.5666 85.1239L41.9102 83.2912Z" fill="#407BFF"/>
<path opacity="0.9" d="M41.9102 83.2912L43.0888 81.819L46.9117 82.5551L48.8521 84.7787L49.096 82.2123L49.8138 81.3516L51.3821 82.0301V83.6364L50.2655 83.2729L49.2984 85.5143L46.246 84.2595L45.5666 85.1239L41.9102 83.2912Z" fill="white"/>
<path opacity="0.1" d="M49.2988 85.5128L49.6689 82.8301L51.3825 83.6349L50.2659 83.2714L49.2988 85.5128Z" fill="black"/>
<path opacity="0.1" d="M49.2982 85.5128L46.4698 83.4316L45.5664 85.1224L46.2458 84.258L49.2982 85.5128Z" fill="black"/>
<path opacity="0.2" d="M54.2402 119.397C54.2402 119.397 54.2402 119.401 54.2444 119.405C54.2485 119.409 54.2522 119.417 54.2601 119.429C54.465 119.7 56.2564 122.22 58.3157 125.146C58.981 119.507 54.323 117.094 54.323 117.094L54.2402 119.397Z" fill="black"/>
<path d="M48.3456 69.7884C49.1562 70.4976 49.2962 71.7495 49.4485 72.5407C49.6013 73.3322 49.8956 74.3482 48.7087 73.4059C47.5218 72.4641 45.7879 68.1183 48.3456 69.7884Z" fill="#263238"/>
<path d="M42.5284 74.4371C43.2744 77.0416 42.99 77.5467 44.6232 78.5954C47.0799 80.1731 50.4511 79.8473 50.3373 77.0669C50.2346 74.5642 49.5221 70.1456 46.7052 69.6898C43.9306 69.2402 41.7824 71.8327 42.5284 74.4371Z" fill="#EBB376"/>
<path d="M43.1914 76.1652C44.5849 75.9068 44.3047 75.3761 44.202 75.2577C43.7528 74.7406 44.0273 73.836 44.2951 72.6789C44.563 71.5213 42.1817 70.5907 40.6615 71.3036C39.2621 71.9602 40.8643 76.5966 43.1914 76.1652Z" fill="#263238"/>
<path d="M41.7115 76.4656C42.1106 77.0427 42.6964 77.3867 43.2106 77.4873C43.9844 77.6384 44.2236 76.8613 43.885 76.1054C43.5803 75.4248 42.8107 74.526 42.0936 74.7176C41.3873 74.9064 41.2553 75.8056 41.7115 76.4656Z" fill="#EBB376"/>
<path d="M48.127 73.5586C48.127 73.5586 48.7194 74.481 49.2497 74.8755C48.9984 75.2262 48.4499 75.2022 48.4499 75.2022L48.127 73.5586Z" fill="#D58745"/>
<path d="M40.4461 70.1604C40.8638 69.1788 45.4666 67.719 47.4365 68.0767C48.4528 68.2613 48.6983 69.0968 48.522 69.6304C47.8972 71.5216 46.269 70.7884 46.269 70.7884C44.1982 70.0084 43.3863 71.876 43.3863 71.876L40.5384 71.6305C40.5384 71.6305 40.0809 71.0178 40.4461 70.1604Z" fill="#263238"/>
<path d="M46.2393 73.7366C46.2853 73.9589 46.4401 74.1134 46.585 74.0819C46.7299 74.0504 46.8106 73.8451 46.7647 73.6228C46.7187 73.4005 46.5639 73.246 46.419 73.2775C46.2741 73.3086 46.1938 73.5143 46.2393 73.7366Z" fill="#263238"/>
<path d="M48.7491 73.1917C48.795 73.414 48.9499 73.5684 49.0948 73.537C49.2401 73.5055 49.3204 73.2998 49.2744 73.0779C49.2285 72.8555 49.0737 72.7011 48.9288 72.7326C48.7839 72.7636 48.7035 72.9694 48.7491 73.1917Z" fill="#263238"/>
<path d="M44.8764 73.1566C44.9228 73.1529 44.9658 73.1251 44.9874 73.0796C45.2428 72.5397 45.728 72.4636 45.733 72.4627C45.8059 72.4524 45.8572 72.3845 45.8473 72.3116C45.8377 72.2388 45.7703 72.1883 45.6978 72.1986C45.6721 72.2023 45.0636 72.2971 44.7473 72.967C44.7158 73.0341 44.7439 73.1131 44.8102 73.1442C44.8313 73.155 44.8541 73.1587 44.8764 73.1566Z" fill="#263238"/>
<path d="M49.2301 72.1581C49.2553 72.1561 49.2802 72.147 49.3021 72.13C49.3605 72.0844 49.3713 72.0004 49.3266 71.9424C48.8765 71.3604 48.2655 71.4121 48.2381 71.4109C48.1649 71.4175 48.1102 71.4821 48.1156 71.5558C48.1214 71.629 48.1847 71.6829 48.2576 71.6771C48.2829 71.6738 48.7544 71.6402 49.1154 72.1072C49.1432 72.1441 49.187 72.1614 49.2301 72.1581Z" fill="#263238"/>
<path d="M48.8521 76.4243C48.8521 76.4243 47.8498 76.6077 47.0234 76.1465" stroke="#263238" stroke-width="0.5" stroke-miterlimit="10" stroke-linecap="round" stroke-linejoin="round"/>
<path opacity="0.1" d="M45.8027 106.743C44.5938 106.908 43.6168 107.045 43.0579 107.124C42.8095 105.799 42.6728 101.216 41.791 95.5688C42.7681 92.9689 43.712 90.9941 43.712 90.9941C43.712 90.9941 46.3591 93.645 48.6883 97.5759C50.3708 100.416 48.7007 104.71 45.8027 106.743Z" fill="black"/>
<path d="M157.208 38.709L134.666 39.5904L136.764 42.6449L138.507 44.9699L102.253 72.1536L84.7505 69.6513L33.7734 107.875L35.8708 110.93L43.3219 120.866L90.183 85.7286L107.686 88.2308L148.179 57.8685L152.143 63.1549L159.305 41.7635L157.208 38.709Z" fill="#407BFF"/>
<path opacity="0.2" d="M157.208 38.709L134.666 39.5904L136.764 42.6449L138.507 44.9699L102.253 72.1536L84.7505 69.6513L33.7734 107.875L35.8708 110.93L43.3219 120.866L90.183 85.7286L107.686 88.2308L148.179 57.8685L152.143 63.1549L159.305 41.7635L157.208 38.709Z" fill="black"/>
<path d="M157.208 38.709L134.666 39.5904L138.63 44.8772L102.253 72.1536L84.7505 69.6513L33.7734 107.875L41.2242 117.812L88.0857 82.6745L105.588 85.1768L146.081 54.814L150.045 60.1008L157.208 38.709Z" fill="#407BFF"/>
<path d="M157.208 38.709L134.666 39.5904L138.63 44.8772L102.253 72.1536L84.7505 69.6513L33.7734 107.875L41.2242 117.812L88.0857 82.6745L105.588 85.1768L146.081 54.814L150.045 60.1008L157.208 38.709Z" fill="#407BFF"/>
<path d="M58.2993 102.342L61.7094 104.073L59.7392 106.774C59.7392 106.774 57.1852 105.899 57.0938 103.674L58.2993 102.342Z" fill="#EBB376"/>
<path d="M63.2734 106.3L61.3227 107.962L59.7383 106.774L61.7085 104.072L63.2734 106.3Z" fill="#EBB376"/>
<path d="M39.014 84.1543C35.281 86.471 41.5088 98.5776 42.6804 100.387C43.852 102.196 57.0921 105.153 57.0921 105.153L58.7283 102.343L46.4308 96.8802L42.6808 87.4783C41.2248 84.4743 39.014 84.1543 39.014 84.1543Z" fill="#407BFF"/>
<path opacity="0.7" d="M39.014 84.1543C35.281 86.471 41.5088 98.5776 42.6804 100.387C43.852 102.196 57.0921 105.153 57.0921 105.153L58.7283 102.343L46.4308 96.8802L42.6808 87.4783C41.2248 84.4743 39.014 84.1543 39.014 84.1543Z" fill="white"/>
<path d="M155.243 76.6309L151.053 77.9308L155.243 79.2312V76.6309Z" fill="#407BFF"/>
<path opacity="0.7" d="M155.243 76.6309L151.053 77.9308L155.243 79.2312V76.6309Z" fill="white"/>
<path d="M170.286 69.0938H158.393C156.37 69.0938 154.73 70.7336 154.73 72.756V83.1068C154.73 85.1292 156.37 86.7691 158.393 86.7691H163.097H165.582H170.287C172.309 86.7691 173.949 85.1296 173.949 83.1068V72.7564C173.948 70.7336 172.309 69.0938 170.286 69.0938Z" fill="#407BFF"/>
<path opacity="0.7" d="M170.286 69.0938H158.393C156.37 69.0938 154.73 70.7336 154.73 72.756V83.1068C154.73 85.1292 156.37 86.7691 158.393 86.7691H170.287C172.309 86.7691 173.949 85.1296 173.949 83.1068V72.7564C173.948 70.7336 172.309 69.0938 170.286 69.0938Z" fill="white"/>
<path d="M168.557 82.1055C170.862 79.8003 170.862 76.0629 168.557 73.7578C166.252 71.4526 162.514 71.4526 160.209 73.7578C157.904 76.0629 157.904 79.8003 160.209 82.1055C162.514 84.4107 166.252 84.4107 168.557 82.1055Z" fill="#407BFF"/>
<path d="M163.766 80.5683C163.607 80.5683 163.456 80.4984 163.353 80.3771L161.037 77.6484C160.843 77.4199 160.871 77.0779 161.099 76.8837C161.328 76.6904 161.67 76.7177 161.864 76.9462L163.766 79.1876L166.908 75.4865C167.102 75.2575 167.444 75.2302 167.673 75.424C167.901 75.6177 167.929 75.9601 167.735 76.1886L164.18 80.3775C164.077 80.4984 163.926 80.5683 163.766 80.5683Z" fill="white"/>
<path d="M150.439 164.659L152.995 163.6L151.269 157.381L148.713 158.439L150.439 164.659Z" fill="#B55B52"/>
<path d="M153.017 159.428L148.161 161.44C148.161 161.44 143.864 145.58 139.724 137.407C137.451 132.928 133.58 125.819 130.218 119.738C128.558 116.724 127.022 113.966 125.867 111.901C124.6 109.628 123.793 108.195 123.793 108.195L132.015 102.66C132.015 102.66 143.131 124.88 146.455 132.617C150.09 141.092 153.017 159.428 153.017 159.428Z" fill="#263238"/>
<path d="M152.817 162.16H149.444C149.331 162.16 149.232 162.239 149.206 162.349L148.636 164.808C148.576 165.063 148.774 165.304 149.035 165.3C150.121 165.281 150.913 165.218 152.28 165.218C153.121 165.218 155.656 165.305 156.817 165.305C157.953 165.305 158.141 164.156 157.667 164.053C155.54 163.586 153.94 162.943 153.264 162.33C153.142 162.22 152.982 162.16 152.817 162.16Z" fill="#263238"/>
<path opacity="0.3" d="M130.218 119.738C128.558 116.724 127.022 113.967 125.867 111.901C126.298 111.797 126.877 111.892 127.643 112.248C127.643 112.248 129.991 115.428 130.218 119.738Z" fill="black"/>
<path d="M143.082 66.061L145.151 62.8446L142.086 61.5078C142.086 61.5078 140.323 63.553 141.368 65.5195L143.082 66.061Z" fill="#B55B52"/>
<path d="M145.376 60.1312L142.853 59.6816L142.086 61.5074L145.151 62.8442L145.376 60.1312Z" fill="#B55B52"/>
<path d="M137.034 89.7584C142.656 85.1352 145.594 82.0745 146.722 80.2372C147.849 78.3999 143.708 65.2363 143.708 65.2363L140.467 65.3858L141.94 78.3651L136.959 82.4504L137.034 89.7584Z" fill="#263238"/>
<path opacity="0.2" d="M146.723 80.2377C145.705 81.8896 143.225 84.5351 138.638 88.4184C138.129 88.8489 137.595 89.2961 137.032 89.7556L137.007 87.3461L136.957 82.4485L141.942 78.3623L140.468 65.3834L143.709 65.2344C143.709 65.2344 147.849 78.3996 146.723 80.2377Z" fill="white"/>
<path opacity="0.2" d="M138.637 88.418C138.128 88.8485 137.594 89.2956 137.031 89.7552L137.006 87.3457C137.395 87.5279 137.958 87.8549 138.637 88.418Z" fill="black"/>
<path d="M109.24 164.35L111.948 164.92L114.034 158.812L111.327 158.242L109.24 164.35Z" fill="#B55B52"/>
<path d="M129.253 102.888C129.253 102.888 125.882 127.503 124.253 135.765C122.47 144.813 114.533 161.6 114.533 161.6L109.389 160.518C109.389 160.518 114.798 145.003 115.994 135.919C117.332 125.761 119.34 102.814 119.34 102.814L129.253 102.888Z" fill="#263238"/>
<path d="M112.933 162.16H109.56C109.447 162.16 109.348 162.239 109.322 162.349L108.751 164.808C108.692 165.063 108.889 165.304 109.151 165.3C110.236 165.281 111.029 165.218 112.395 165.218C113.236 165.218 115.771 165.305 116.932 165.305C118.068 165.305 118.257 164.156 117.782 164.053C115.655 163.586 114.055 162.943 113.379 162.33C113.258 162.22 113.098 162.16 112.933 162.16Z" fill="#263238"/>
<path d="M134.93 102.37C138.156 90.8142 136.682 84.4034 136.682 84.4034C136.682 84.4034 135.12 83.8462 133.262 83.4678C133.019 83.4169 132.771 83.3726 132.518 83.3312C130.892 83.0633 128.207 82.9288 126.369 82.8836C125.985 82.8745 125.595 82.8753 125.216 82.8824C123.297 82.9201 121.581 83.5841 121.581 83.5841C121.677 86.5951 121.477 89.1872 121.145 92.031C120.9 94.1171 120.996 96.0964 120.664 97.8862C120.351 99.5724 120.444 101.086 120.16 102.371H134.93V102.37Z" fill="#407BFF"/>
<path opacity="0.7" d="M134.93 102.37C138.156 90.8142 136.682 84.4034 136.682 84.4034C136.682 84.4034 135.12 83.8462 133.262 83.4678C133.019 83.4169 132.771 83.3726 132.518 83.3312C130.892 83.0633 128.207 82.9288 126.369 82.8836C125.985 82.8745 125.595 82.8753 125.216 82.8824C123.297 82.9201 121.581 83.5841 121.581 83.5841C121.677 86.5951 121.477 89.1872 121.145 92.031C120.9 94.1171 120.996 96.0964 120.664 97.8862C120.351 99.5724 120.444 101.086 120.16 102.371H134.93V102.37Z" fill="white"/>
<path d="M131.239 86.8203C131.419 87.941 131.99 90.8207 131.965 93.6587C131.698 94.2093 131.339 95.5515 131.015 96.0959C130.777 95.4745 130.366 94.1957 130.084 93.5689C130.335 90.8717 130.813 88.1674 130.666 86.752L131.239 86.8203Z" fill="#407BFF"/>
<path d="M130.62 86.3395C128.484 85.735 127.316 84.4558 126.662 83.1641C127.089 82.953 127.449 82.5762 127.759 82.096C128.339 81.2059 128.732 79.9639 128.989 78.7923C129.15 78.0553 129.254 77.3433 129.32 76.7637L130.579 78.7509L131.957 80.9244C131.746 81.268 131.556 81.6116 131.415 81.9511C131.005 82.953 131.022 83.9176 132.239 84.6586C132.404 85.3956 132.255 86.799 130.62 86.3395Z" fill="#B55B52"/>
<path d="M131.066 87.674L131.774 86.4134L130.876 85.8438L130.082 86.1741L131.066 87.674Z" fill="#407BFF"/>
<path d="M130.877 85.8432C130.877 85.8432 130.118 86.559 129.249 87.2496C128.231 86.5027 125.87 84.5581 126.183 83.1182C126.388 82.715 126.986 82.5391 126.986 82.5391C126.986 82.5391 128.397 84.328 130.877 85.8432Z" fill="white"/>
<path d="M130.877 85.8446C130.877 85.8446 131.642 86.6751 132.082 87.6546C132.959 87.2137 132.647 84.3289 132.389 83.9865C131.669 83.1312 131.175 82.959 131.175 82.959C131.175 82.959 131.571 84.4245 130.877 85.8446Z" fill="white"/>
<path d="M118.043 111.214L128.306 112.249L130.083 108.054L131.768 111.86L136.386 110.395L133.967 105.542C138.601 94.2841 136.96 82.4512 136.96 82.4512C134.858 82.9591 132.335 83.3011 132.335 83.3011C135.026 87.3894 131.014 96.0974 131.014 96.0974C128.602 89.3712 125.716 82.8755 125.716 82.8755C122.785 82.9587 120.435 84.108 120.435 84.108C120.435 84.108 120.926 97.8627 119.534 101.76C118.146 105.653 118.043 111.214 118.043 111.214Z" fill="#263238"/>
<path opacity="0.2" d="M133.97 105.542L136.387 110.394L131.767 111.86L130.082 108.055L128.306 112.249L118.043 111.214C118.043 111.214 118.146 105.654 119.533 101.758C119.976 100.52 120.229 98.2847 120.366 95.8131C120.486 93.739 120.519 91.491 120.519 89.5286C120.519 86.4774 120.436 84.1094 120.436 84.1094C120.436 84.1094 122.783 82.9584 125.714 82.8756C125.714 82.8756 128.604 89.3713 131.014 96.0947C131.014 96.0947 135.029 87.3882 132.334 83.3021C132.334 83.3021 134.86 82.9584 136.959 82.4492C136.959 82.4492 138.602 94.2813 133.97 105.542Z" fill="white"/>
<path d="M127.289 88.435L125.037 91.2726C125.037 91.2726 130.3 95.0412 131.848 101.298L131.293 97.644L135.621 91.5653L133.63 89.078L135.998 87.3222C135.998 87.3222 133.962 83.8947 132.335 83.3006C135.027 87.3888 131.014 96.0969 131.014 96.0969C128.602 89.3707 125.716 82.875 125.716 82.875C125.716 82.875 123.809 84.2275 122.785 87.0605L127.289 88.435Z" fill="#263238"/>
<path opacity="0.2" d="M131.956 80.926C131.745 81.2696 131.554 81.6132 131.413 81.9527C130.494 82.3998 129.29 82.5737 127.758 82.0976C128.337 81.2075 128.731 79.9655 128.987 78.7938C129.513 78.7566 130.051 78.7442 130.577 78.7525L131.956 80.926Z" fill="black"/>
<path d="M126.855 72.8823C126.357 73.8615 126.18 76.0138 127.74 75.5651C129.298 75.1163 127.711 71.1998 126.855 72.8823Z" fill="#263238"/>
<path d="M134.066 75.5241C133.781 78.2064 133.751 79.792 132.329 81.0994C130.19 83.0663 126.919 81.6529 126.396 78.9313C125.925 76.4816 126.47 72.5068 129.155 71.5791C131.799 70.6654 134.351 72.8418 134.066 75.5241Z" fill="#B55B52"/>
<path d="M136.14 73.1067L133.315 72.0879L132.73 73.7087C132.794 73.6946 132.865 73.6839 132.925 73.6681C132.925 73.6681 132.363 76.1256 133.479 77.3714C135.776 76.5301 137.037 74.3831 136.14 73.1067Z" fill="#263238"/>
<path d="M135.007 77.8109C134.761 78.494 134.222 78.9962 133.676 79.2375C132.856 79.6006 132.309 78.8947 132.423 78.0506C132.525 77.2909 133.076 76.1868 133.954 76.1797C134.82 76.1735 135.288 77.0301 135.007 77.8109Z" fill="#B55B52"/>
<path d="M129.948 76.0535C129.938 76.2725 129.814 76.4439 129.671 76.4361C129.527 76.4282 129.419 76.2444 129.428 76.0254C129.438 75.8064 129.562 75.635 129.706 75.6428C129.849 75.6507 129.957 75.8345 129.948 76.0535Z" fill="#263238"/>
<path d="M127.469 75.9192C127.459 76.1382 127.336 76.3096 127.192 76.3017C127.049 76.2938 126.94 76.11 126.95 75.8906C126.96 75.6716 127.084 75.5002 127.227 75.5081C127.371 75.5159 127.479 75.7002 127.469 75.9192Z" fill="#263238"/>
<path d="M128.251 76.0703C128.251 76.0703 127.686 77.2597 127.105 77.8203C127.473 78.1834 128.14 78.0534 128.14 78.0534L128.251 76.0703Z" fill="#A02724"/>
<path d="M129.278 78.9568C129.187 78.9643 129.092 78.9655 128.991 78.9601C128.956 78.9581 128.928 78.9278 128.93 78.8922C128.931 78.8566 128.962 78.8293 128.997 78.8314C129.961 78.8827 130.439 78.236 130.444 78.2294C130.464 78.2008 130.505 78.1946 130.534 78.2153C130.563 78.2365 130.569 78.2766 130.548 78.3056C130.53 78.3321 130.118 78.8897 129.278 78.9568Z" fill="#263238"/>
<path d="M130.748 75.2946C130.703 75.2983 130.657 75.278 130.63 75.2378C130.303 74.7613 129.828 74.7634 129.824 74.7634C129.752 74.7646 129.693 74.7079 129.691 74.6367C129.69 74.5655 129.746 74.5071 129.817 74.5059C129.842 74.5055 130.437 74.503 130.842 75.0942C130.883 75.1534 130.868 75.2333 130.809 75.273C130.79 75.2859 130.769 75.2929 130.748 75.2946Z" fill="#263238"/>
<path d="M126.437 75.0082C126.413 75.0102 126.387 75.0053 126.364 74.9924C126.302 74.9577 126.279 74.8794 126.313 74.8173C126.653 74.1926 127.244 74.1483 127.271 74.1429C127.341 74.1379 127.404 74.1913 127.41 74.2625C127.415 74.3333 127.363 74.3946 127.292 74.4004C127.268 74.4012 126.813 74.4414 126.539 74.9423C126.517 74.9812 126.479 75.0049 126.437 75.0082Z" fill="#263238"/>
<path d="M133.62 74.5592C133.62 74.5592 133.539 74.5973 133.409 74.6267C133.149 74.6859 132.691 74.7107 132.288 74.3299C131.683 73.7581 132.087 71.6641 129.742 72.0669C129.742 72.0669 129.112 71.643 128.392 72.1203C127.673 72.5977 127.31 75.0436 126.296 74.3754C125.282 73.7076 125.583 73.424 125.583 73.424C125.583 73.424 125.833 73.718 126.067 73.619C126.067 73.619 125.634 72.9533 126.124 72.3621C126.124 72.3621 126.296 72.7653 126.496 72.7583C126.496 72.7583 126.528 71.4621 127.671 70.0516C128.814 68.6411 132.657 70.2255 132.657 70.2255C132.657 70.2255 133.413 69.5473 135.019 70.6817C136.624 71.816 136.773 74.2197 136.2 75.0705" fill="#263238"/>
<path opacity="0.2" d="M121.976 89.7568C121.976 89.7568 121.889 93.5863 120.365 95.8136C120.485 93.7395 120.518 91.4915 120.518 89.5291C120.998 89.4297 121.487 89.4918 121.976 89.7568Z" fill="black"/>
<path d="M106.174 88.9779L102.383 88.4749L103.347 85.2734C103.347 85.2734 106.046 85.2527 106.87 87.3215L106.174 88.9779Z" fill="#B55B52"/>
<path d="M100.168 86.8922L101.458 84.6777L103.346 85.2735L102.382 88.4754L100.168 86.8922Z" fill="#B55B52"/>
<path d="M122.785 89.7581C122.785 89.7581 117.147 97.9023 115.073 98.4902C112.999 99.0785 104.762 89.044 104.762 89.044L106.611 86.3786L114.15 92.9666C114.15 92.9666 118.077 85.8437 120.436 84.1074L122.785 89.7581Z" fill="#263238"/>
<path opacity="0.2" d="M122.785 89.7581C122.785 89.7581 117.147 97.9023 115.073 98.4902C112.999 99.0785 104.762 89.044 104.762 89.044L106.611 86.3786L114.15 92.9666C114.15 92.9666 118.077 85.8437 120.436 84.1074L122.785 89.7581Z" fill="white"/>
</g>
<defs>
<clipPath id="clip0_497_10955">
<rect width="193" height="193" fill="white"/>
</clipPath>
</defs>
</svg>
