<svg width="193" height="193" viewBox="0 0 193 193" fill="none" xmlns="http://www.w3.org/2000/svg">
<path d="M175.486 186.732H11.6641V187.956H175.486V186.732Z" fill="#010101"/>
<path d="M155.699 83.7741C117.814 70.5837 149.52 38.5316 103.442 12.1136C49.772 -18.6613 13.1807 57.8765 6.69108 99.3408C0.654575 137.911 7.26829 168.429 85.7186 184.829C164.169 201.229 220.378 106.292 155.702 83.7741H155.699Z" fill="#E6EBF0"/>
<path d="M169.087 46.2563C149.497 27.3813 141.367 2.96792 136.782 25.7405C133.739 40.8558 139.074 69.0315 169.087 78.6721C199.1 88.3153 188.68 65.1312 169.087 46.2563Z" fill="#E6EBF0"/>
<path d="M176.245 63.0957L175.226 63.101L175.199 67.7421L172.402 67.7554L172.383 70.6335L175.183 70.6202L175.131 79.2173L176.148 79.212L176.199 70.6149L178.999 70.6016L179.015 67.7235L176.218 67.7368L176.245 63.0957Z" fill="#407BFF"/>
<path d="M166.97 60.4746L165.951 60.4799L165.943 62.1128L163.143 62.1287L163.1 69.1753L165.899 69.162L165.862 75.6085L166.878 75.6032L166.916 69.1567L169.716 69.1434L169.756 62.0942L166.959 62.1101L166.97 60.4746Z" fill="#AAB6C2"/>
<path d="M157.664 62.7559L156.645 62.7612L156.626 65.9844L153.826 66.0004L153.713 85.0691L156.513 85.0558L156.47 92.0573L157.486 92.052L157.53 85.0505L160.329 85.0373L160.443 65.9658L157.643 65.9791L157.664 62.7559Z" fill="#AAB6C2"/>
<path d="M148.291 76.1484L147.271 76.1537L147.225 84.0632L144.425 84.0765L144.363 94.2614L147.163 94.2481L147.106 103.618L148.126 103.613L148.183 94.2428L150.98 94.2295L151.042 84.0446L148.242 84.0579L148.291 76.1484Z" fill="#407BFF"/>
<path d="M138.934 86.6309L137.917 86.6362L137.896 90.3347L135.096 90.348L135.031 101.159L137.831 101.143L137.774 110.513L138.791 110.508L138.848 101.141L141.645 101.128L141.712 90.3134L138.913 90.3294L138.934 86.6309Z" fill="#AAB6C2"/>
<path d="M129.63 88.9375L128.613 88.9401L128.583 93.8414L125.783 93.8547L125.74 101.204L128.537 101.191L128.467 112.923L129.487 112.918L129.557 101.185L132.354 101.172L132.4 93.8228L129.6 93.8361L129.63 88.9375Z" fill="#AAB6C2"/>
<path d="M120.393 79.4453L119.376 79.448L119.352 83.4465L116.552 83.4598L116.42 105.377L119.22 105.364L119.171 113.616L120.188 113.611L120.237 105.359L123.036 105.346L123.169 83.4279L120.369 83.4412L120.393 79.4453Z" fill="#407BFF"/>
<path d="M111.129 74.625L110.112 74.6303L110.061 83.3974L107.261 83.4133L107.213 91.5352L110.013 91.5219L109.986 95.7753L111.003 95.77L111.03 91.5166L113.829 91.5033L113.875 83.3788L111.078 83.3947L111.129 74.625Z" fill="#407BFF"/>
<path d="M101.778 84.1328L100.761 84.1381L100.721 90.8422L97.9211 90.8555L97.8672 100.331L100.664 100.318L100.635 105.219L101.651 105.214L101.681 100.313L104.481 100.3L104.538 90.8236L101.738 90.8369L101.778 84.1328Z" fill="#407BFF"/>
<path d="M92.4559 79.9805L91.439 79.9858L91.3824 89.6556L88.5826 89.6688L88.4531 111.419L91.2502 111.403L91.172 124.761L92.1888 124.758L92.2698 111.398L95.0669 111.385L95.199 89.637L92.3992 89.6503L92.4559 79.9805Z" fill="#AAB6C2"/>
<path d="M83.0762 95.2383L82.0567 95.2436L82.0243 100.787L79.2245 100.803L79.0762 125.509L81.8759 125.493L81.8355 132.069L82.8551 132.064L82.8928 125.49L85.6926 125.474L85.8409 100.769L83.0412 100.782L83.0762 95.2383Z" fill="#407BFF"/>
<path d="M73.7966 92.5273L72.7797 92.5327L72.7473 98.0764L69.9475 98.0897L69.8828 109.053L72.6826 109.037L72.6718 110.539L73.6887 110.534L73.6995 109.034L76.4965 109.018L76.564 98.0579L73.7642 98.0711L73.7966 92.5273Z" fill="#AAB6C2"/>
<path d="M64.6029 79.4805L63.5861 79.4831L63.5591 83.9968L60.7593 84.01L60.6406 104.213L63.4377 104.197L63.4053 109.87L64.4222 109.865L64.4573 104.191L67.2544 104.178L67.3757 83.9782L64.5787 83.9914L64.6029 79.4805Z" fill="#AAB6C2"/>
<path d="M55.3033 85.9121L54.2864 85.9174L54.2756 87.5928L51.4785 87.6087L51.4219 96.8908L54.2217 96.8776L54.1893 102.291L55.2062 102.289L55.2385 96.8723L58.0383 96.859L58.0922 87.5768L55.2952 87.5901L55.3033 85.9121Z" fill="#AAB6C2"/>
<path d="M46.1138 69.0391L45.0942 69.0444L45.0673 73.943L42.2675 73.9589L42.1758 89.515L44.9729 89.5017L44.9432 94.6579L45.9601 94.6526L45.9897 89.4964L48.7895 89.4831L48.8839 73.9244L46.0841 73.9377L46.1138 69.0391Z" fill="#407BFF"/>
<path d="M36.8936 77.2949L35.8767 77.3002L35.8524 81.0386L33.0553 81.0519L32.9609 96.5495L35.7607 96.5363L35.6771 110.327L36.6967 110.319L36.7776 96.5309L39.5774 96.5177L39.6691 81.02L36.8693 81.0333L36.8936 77.2949Z" fill="#407BFF"/>
<path d="M27.6751 64.9434L26.6582 64.9487L26.6366 68.5596L23.8369 68.5728L23.6777 95.4475L26.4748 95.4316L26.437 102.093L27.4539 102.088L27.4944 95.4289L30.2915 95.413L30.4533 68.541L27.6535 68.5543L27.6751 64.9434Z" fill="#AAB6C2"/>
<path d="M18.3614 68.4043L17.3445 68.4096L17.3122 73.9534L14.5124 73.9667L14.4746 80.1981L17.2744 80.1849L17.2447 85.0835L18.2616 85.0782L18.2913 80.1796L21.091 80.1663L21.1288 73.9348L18.329 73.9481L18.3614 68.4043Z" fill="#407BFF"/>
<path d="M33.8356 41.9336H62.4375C63.8158 41.9336 64.9379 43.0354 64.9379 44.3948V54.8824C64.9379 56.2391 63.8185 57.3436 62.4375 57.3436H33.8383C32.46 57.3436 31.3379 56.2418 31.3379 54.8824V44.3948C31.3379 43.0381 32.4573 41.9336 33.8383 41.9336H33.8356Z" fill="#010101"/>
<path d="M31.9164 41.9336H60.5183C61.8993 41.9336 63.0187 43.0354 63.0187 44.3948V54.8824C63.0187 56.2391 61.8993 57.3436 60.5183 57.3436H31.9164C30.5354 57.3436 29.416 56.2418 29.416 54.8824V44.3948C29.416 43.0381 30.5354 41.9336 31.9164 41.9336Z" fill="#AAB6C2"/>
<path d="M41.0849 49.5176C41.4464 49.3556 41.735 49.114 41.9454 48.7901C42.1558 48.4662 42.2637 48.113 42.2637 47.7254C42.2637 47.3696 42.1773 47.0457 42.0047 46.759C41.8321 46.4722 41.619 46.2412 41.3601 46.0686C41.1038 45.8961 40.8098 45.7819 40.4834 45.7288C40.1571 45.673 39.6635 45.6465 38.9972 45.6465H35.6445V53.9064H38.5009C39.5799 53.8985 40.2623 53.8799 40.5428 53.8507C40.9932 53.8002 41.3735 53.6701 41.6783 53.4577C41.9858 53.2453 42.2286 52.9612 42.4066 52.6081C42.5846 52.2523 42.6709 51.8886 42.6709 51.5115C42.6709 51.0336 42.5334 50.6194 42.261 50.2663C41.9858 49.9132 41.592 49.6636 41.0822 49.5176H41.0849ZM37.3411 47.0218H38.3148C39.1132 47.0218 39.596 47.0298 39.7633 47.051C40.0465 47.0829 40.2596 47.1811 40.4025 47.3404C40.5455 47.4997 40.6156 47.7068 40.6156 47.9617C40.6156 48.2166 40.532 48.4449 40.3675 48.6069C40.2002 48.7715 39.9737 48.8697 39.6824 48.9016C39.5232 48.9202 39.1105 48.9308 38.4524 48.9308H37.3411V47.0218ZM40.6857 52.1328C40.5266 52.3081 40.3216 52.4169 40.0708 52.4621C39.9062 52.4966 39.5205 52.5125 38.9082 52.5125H37.3384V50.3035H38.7059C39.4774 50.3035 39.9764 50.3433 40.2083 50.423C40.4376 50.5026 40.6156 50.6274 40.737 50.8C40.8584 50.9726 40.9204 51.1823 40.9204 51.4319C40.9204 51.724 40.8422 51.9603 40.683 52.1328H40.6857Z" fill="white"/>
<path d="M49.0903 50.218C49.0903 50.8711 49.066 51.3384 49.0175 51.6199C48.9689 51.9013 48.8206 52.1376 48.5778 52.3314C48.3324 52.5252 47.971 52.6208 47.4908 52.6208C47.0107 52.6208 46.6439 52.5173 46.3715 52.3128C46.099 52.1084 45.9264 51.8376 45.8536 51.4977C45.8104 51.288 45.7915 50.826 45.7915 50.1171V45.6433H44.0977V50.0481C44.0977 50.972 44.1543 51.6703 44.2649 52.1429C44.3404 52.4615 44.4996 52.7668 44.7396 53.0589C44.9797 53.351 45.306 53.5873 45.7214 53.7678C46.1341 53.951 46.741 54.0413 47.5448 54.0413C48.2083 54.0413 48.7478 53.959 49.1578 53.7891C49.5704 53.6218 49.8995 53.3988 50.145 53.1173C50.3904 52.8359 50.5603 52.4907 50.652 52.0818C50.7438 51.673 50.7896 50.972 50.7896 49.979V45.6406H49.0957V50.21L49.0903 50.218Z" fill="white"/>
<path d="M55.6608 48.9149L53.6864 45.6465H51.7012L54.7734 50.4283V53.9064H56.4619V50.4415L59.5476 45.6465H57.5947L55.6608 48.9149Z" fill="white"/>
<path d="M115.708 38.4551H149.144C150.757 38.4551 152.065 39.7454 152.065 41.3305V53.589C152.065 55.1767 150.757 56.4645 149.144 56.4645H115.708C114.095 56.4645 112.787 55.1767 112.787 53.589V41.3305C112.787 39.7428 114.095 38.4551 115.708 38.4551Z" fill="#010101"/>
<path d="M113.468 38.4551H146.904C148.516 38.4551 149.825 39.7454 149.825 41.3305V53.589C149.825 55.1767 148.516 56.4645 146.904 56.4645H113.468C111.855 56.4645 110.547 55.1767 110.547 53.589V41.3305C110.547 39.7428 111.855 38.4551 113.468 38.4551Z" fill="#02B7CC"/>
<path d="M121.87 47.3024C121.45 47.0847 120.8 46.8723 119.92 46.6678C119.044 46.4634 118.488 46.2669 118.262 46.0784C118.084 45.9324 117.995 45.7518 117.995 45.5447C117.995 45.3164 118.089 45.1332 118.28 44.9978C118.577 44.7854 118.987 44.6792 119.513 44.6792C120.039 44.6792 120.403 44.7774 120.657 44.9766C120.91 45.1757 121.077 45.4996 121.153 45.9536L122.957 45.8766C122.928 45.0668 122.631 44.4216 122.065 43.9384C121.498 43.4525 120.651 43.2109 119.529 43.2109C118.841 43.2109 118.256 43.3118 117.771 43.5163C117.285 43.7207 116.913 44.0181 116.654 44.4084C116.395 44.7987 116.268 45.2182 116.268 45.6669C116.268 46.3625 116.543 46.9546 117.091 47.4378C117.482 47.7803 118.162 48.0724 119.13 48.3087C119.883 48.4919 120.365 48.622 120.576 48.6937C120.886 48.8025 121.102 48.93 121.226 49.076C121.35 49.222 121.412 49.3999 121.412 49.607C121.412 49.9309 121.264 50.215 120.97 50.4566C120.676 50.6982 120.236 50.8204 119.656 50.8204C119.106 50.8204 118.672 50.685 118.348 50.4115C118.024 50.1407 117.811 49.7132 117.703 49.1318L115.947 49.299C116.066 50.2841 116.427 51.0328 117.032 51.5479C117.638 52.063 118.507 52.3205 119.637 52.3205C120.414 52.3205 121.061 52.2143 121.582 51.9992C122.102 51.7842 122.504 51.4576 122.79 51.0169C123.076 50.5761 123.216 50.1062 123.216 49.6017C123.216 49.0468 123.098 48.5768 122.858 48.1998C122.62 47.8228 122.291 47.5228 121.87 47.3051V47.3024Z" fill="white"/>
<path d="M126.538 48.2845H131.026V46.8004H126.538V44.8489H131.36V43.3594H124.73V52.1609H131.533V50.6794H126.538V48.2845Z" fill="white"/>
<path d="M134.916 43.4297H133.111V52.1596H139.404V50.678H134.916V43.4297Z" fill="white"/>
<path d="M142.549 43.4297H140.744V52.1596H147.037V50.678H142.549V43.4297Z" fill="white"/>
<path d="M68.0264 181.424C67.9132 181.381 67.7945 181.357 67.665 181.357L60.5523 181.379L31.3542 181.466L27.9557 181.474C27.4108 181.48 26.9766 181.912 26.9766 182.449L26.99 185.945C26.99 186.482 27.4297 186.909 27.9719 186.909L60.644 186.811L67.6785 186.79C68.2179 186.784 68.6576 186.352 68.6576 185.818L68.6441 182.321C68.6441 181.915 68.3852 181.57 68.0237 181.424H68.0264Z" fill="#407BFF"/>
<path d="M68.0885 181.263C67.9509 181.21 67.8053 181.184 67.665 181.184L27.9584 181.303C27.3218 181.308 26.8066 181.821 26.8066 182.447L26.8174 185.944C26.8174 186.571 27.338 187.081 27.9773 187.081L67.6839 186.961C68.3178 186.956 68.8356 186.443 68.8356 185.817L68.8221 182.32C68.8221 181.855 68.5362 181.441 68.0885 181.263ZM67.6812 186.616L27.9746 186.735C27.5295 186.735 27.1654 186.38 27.1654 185.944L27.1546 182.445C27.1546 182.007 27.516 181.648 27.9584 181.646L67.665 181.526C67.7648 181.526 67.8646 181.545 67.9617 181.582C68.2719 181.707 68.4742 181.993 68.4742 182.32L68.4877 185.817C68.4877 186.255 68.1263 186.613 67.6812 186.619V186.616Z" fill="#010101"/>
<path d="M71.4167 175.985L58.0922 176.022L31.7155 176.105C31.1706 176.105 30.731 176.54 30.7364 177.071L30.7445 180.573C30.7445 180.977 30.998 181.319 31.3567 181.465C31.47 181.513 31.5941 181.537 31.7263 181.537L60.6816 181.447L68.0262 181.42L71.4329 181.412C71.9778 181.412 72.412 180.979 72.412 180.443L72.3985 176.946C72.3985 176.413 71.9589 175.98 71.4167 175.982V175.985Z" fill="#407BFF"/>
<path d="M72.2316 176.142C72.0131 175.927 71.7083 175.812 71.4143 175.812L31.7131 175.932C31.4029 175.932 31.1116 176.051 30.8931 176.269C30.6746 176.487 30.5559 176.771 30.5586 177.074L30.5667 180.576C30.5667 181.038 30.8499 181.449 31.2842 181.624C31.4191 181.683 31.5674 181.712 31.7239 181.712L71.4305 181.59C72.0644 181.59 72.5822 181.08 72.5822 180.451L72.5714 176.954C72.5714 176.649 72.4501 176.362 72.2316 176.147V176.142ZM71.4332 181.242L31.7266 181.367C31.6187 181.367 31.5162 181.346 31.4218 181.308C31.1143 181.184 30.9174 180.897 30.9174 180.576L30.9093 177.074C30.9093 176.864 30.9902 176.665 31.1413 176.513C31.295 176.362 31.4973 176.28 31.7131 176.28L71.417 176.16H71.4224C71.6355 176.16 71.8351 176.243 71.9861 176.389C72.1399 176.54 72.2235 176.739 72.2235 176.952L72.237 180.448C72.237 180.889 71.8782 181.245 71.4332 181.245V181.242Z" fill="#010101"/>
<path d="M68.7866 170.553L66.2107 170.561L52.549 170.599L29.0827 170.67C28.9721 170.67 28.8669 170.691 28.7671 170.726C28.3787 170.859 28.0982 171.22 28.1036 171.645L28.1117 175.141C28.1171 175.678 28.554 176.105 29.0989 176.105L58.0757 176.02C58.0757 176.02 58.0757 176.015 58.0811 176.02L68.8028 175.986C69.3477 175.98 69.7873 175.548 69.7819 175.014L69.7738 171.515C69.7684 170.978 69.3288 170.551 68.7866 170.551V170.553Z" fill="#407BFF"/>
<path d="M68.7866 170.383L29.0854 170.502C28.9613 170.502 28.8399 170.524 28.7159 170.566C28.2438 170.725 27.9283 171.161 27.9337 171.647L27.9418 175.146C27.9471 175.773 28.4677 176.28 29.1043 176.28L68.8082 176.16C69.1184 176.16 69.407 176.038 69.6255 175.823C69.844 175.608 69.9627 175.321 69.96 175.016L69.9519 171.517C69.9465 170.893 69.4232 170.383 68.7893 170.383H68.7866ZM68.8028 175.815L58.1486 175.85L58.1108 175.818L58.0353 175.85L29.0989 175.935C28.6538 175.935 28.2897 175.579 28.2843 175.143L28.2762 171.644C28.2735 171.304 28.492 171.004 28.8238 170.89C28.9128 170.861 28.9964 170.845 29.08 170.845L68.7812 170.725C69.2263 170.725 69.5904 171.081 69.5958 171.517L69.6039 175.016C69.6039 175.451 69.2452 175.812 68.7974 175.815H68.8028Z" fill="#010101"/>
<path d="M68.0264 149.01C67.9132 148.967 67.7945 148.943 67.665 148.943L60.5523 148.965L31.3542 149.055L27.9557 149.063C27.4108 149.068 26.9766 149.501 26.9766 150.037L26.99 153.534C26.99 154.07 27.4297 154.498 27.9719 154.498L60.644 154.4L67.6785 154.378C68.2179 154.373 68.6576 153.94 68.6576 153.407L68.6441 149.91C68.6441 149.504 68.3852 149.158 68.0237 149.012L68.0264 149.01Z" fill="#407BFF"/>
<path d="M68.0885 148.849C67.9509 148.796 67.8053 148.77 67.665 148.77L27.9584 148.889C27.3218 148.894 26.8066 149.407 26.8066 150.033L26.8174 153.53C26.8174 154.157 27.338 154.666 27.9773 154.666L67.6839 154.547C68.3178 154.542 68.8356 154.029 68.8356 153.403L68.8221 149.906C68.8221 149.441 68.5362 149.027 68.0885 148.852V148.849ZM67.6812 154.204L27.9746 154.321C27.5295 154.321 27.1654 153.966 27.1654 153.53L27.1546 150.031C27.1546 149.593 27.516 149.234 27.9584 149.232L67.665 149.112C67.7648 149.112 67.8646 149.133 67.9617 149.168C68.2719 149.293 68.4742 149.582 68.4742 149.906L68.4877 153.403C68.4877 153.841 68.1263 154.199 67.6812 154.204Z" fill="#010101"/>
<path d="M71.4167 143.57L58.0922 143.608L31.7155 143.69C31.1706 143.69 30.731 144.125 30.7364 144.656L30.7445 148.158C30.7445 148.562 30.998 148.904 31.3567 149.05C31.47 149.096 31.5941 149.122 31.7263 149.122L60.6816 149.034L68.0262 149.008L71.4329 149C71.9778 149 72.412 148.567 72.412 148.031L72.3985 144.534C72.3985 143.998 71.9589 143.565 71.4167 143.57Z" fill="#407BFF"/>
<path d="M72.2316 143.727C72.0131 143.512 71.7083 143.398 71.4143 143.4L31.7131 143.517C31.4029 143.517 31.1116 143.637 30.8931 143.854C30.6746 144.072 30.5559 144.356 30.5586 144.659L30.5667 148.161C30.5667 148.623 30.8499 149.035 31.2842 149.21C31.4191 149.268 31.5674 149.297 31.7239 149.297L71.4305 149.175C72.0644 149.175 72.5822 148.663 72.5822 148.036L72.5714 144.539C72.5714 144.234 72.4501 143.947 72.2316 143.732V143.727ZM71.4332 148.83L31.7266 148.955C31.6187 148.955 31.5162 148.934 31.4218 148.894C31.1143 148.772 30.9174 148.482 30.9174 148.161L30.9093 144.659C30.9093 144.449 30.9902 144.25 31.1413 144.099C31.295 143.947 31.4973 143.865 31.7131 143.865L71.417 143.746H71.4224C71.6355 143.746 71.8351 143.828 71.9861 143.974C72.1399 144.125 72.2235 144.324 72.2235 144.537L72.237 148.034C72.237 148.474 71.8782 148.83 71.4332 148.83Z" fill="#010101"/>
<path d="M68.7866 138.139L66.2107 138.147L52.549 138.185L29.0827 138.256C28.9721 138.256 28.8669 138.277 28.7671 138.312C28.3787 138.445 28.0982 138.806 28.1036 139.231L28.1117 142.727C28.1171 143.264 28.554 143.691 29.0989 143.691L58.0757 143.604C58.0757 143.604 58.0757 143.601 58.0811 143.604L68.8028 143.569C69.3477 143.566 69.7873 143.134 69.7819 142.597L69.7738 139.101C69.7684 138.564 69.3288 138.137 68.7866 138.137V138.139Z" fill="#407BFF"/>
<path d="M68.7866 137.967L29.0854 138.086C28.9613 138.086 28.8399 138.108 28.7159 138.15C28.2438 138.312 27.9283 138.745 27.9337 139.231L27.9418 142.73C27.9471 143.357 28.4677 143.864 29.1043 143.864L68.8082 143.744C69.1184 143.744 69.407 143.622 69.6255 143.407C69.844 143.189 69.9627 142.905 69.96 142.6L69.9519 139.101C69.9465 138.477 69.4232 137.967 68.7893 137.967H68.7866ZM68.8028 143.402L58.1486 143.434L58.1108 143.402L58.0353 143.434L29.0989 143.519C28.6538 143.519 28.2897 143.163 28.2843 142.727L28.2762 139.228C28.2735 138.891 28.492 138.588 28.8238 138.474C28.9128 138.442 28.9964 138.429 29.08 138.429L68.7812 138.309C69.2263 138.309 69.5904 138.665 69.5958 139.101L69.6039 142.6C69.6039 143.038 69.2452 143.394 68.7974 143.399L68.8028 143.402Z" fill="#010101"/>
<path d="M66.0956 165.206C66.0255 165.188 65.9527 165.18 65.8798 165.18L55.5843 165.209C55.5843 165.209 55.5789 165.212 55.5789 165.209L31.5084 165.281L26.1705 165.299C25.6257 165.299 25.1914 165.735 25.1914 166.266L25.2049 169.768C25.2049 170.301 25.6445 170.731 26.1894 170.731L28.768 170.723L52.6254 170.652L65.896 170.609C66.0039 170.609 66.1118 170.591 66.2116 170.559C66.6 170.426 66.8751 170.065 66.8751 169.64L66.8617 166.143C66.8617 165.684 66.5299 165.299 66.0956 165.206Z" fill="#407BFF"/>
<path d="M66.1356 165.042C66.052 165.02 65.9657 165.01 65.8767 165.01L55.7538 165.039L26.1701 165.129C25.5335 165.129 25.0156 165.639 25.0156 166.271L25.0264 169.773C25.0264 170.4 25.547 170.907 26.1862 170.907L65.8929 170.785C66.0197 170.785 66.1491 170.763 66.2624 170.723C66.729 170.564 67.0446 170.131 67.0446 169.643L67.0311 166.146C67.0311 165.618 66.6508 165.15 66.1302 165.042H66.1356ZM66.1545 170.397C66.0763 170.423 65.9873 170.439 65.8956 170.439L26.1889 170.564C25.7439 170.564 25.3798 170.208 25.3798 169.77L25.3663 166.268C25.3663 165.83 25.7277 165.472 26.1728 165.472L55.5461 165.381L55.627 165.413L55.6594 165.381L65.8821 165.352C65.9414 165.352 66.0008 165.36 66.0601 165.374C66.4242 165.451 66.6913 165.777 66.6913 166.143L66.7048 169.64C66.7048 169.98 66.4863 170.283 66.1599 170.394L66.1545 170.397Z" fill="#010101"/>
<path d="M71.6663 159.796C71.5854 159.774 71.5018 159.764 71.4155 159.764L54.3579 159.817L31.7142 159.883C31.6306 159.883 31.5551 159.891 31.4796 159.915C31.048 160.016 30.7297 160.398 30.7324 160.852L30.7405 164.354C30.7459 164.808 31.0723 165.196 31.5066 165.289C31.5767 165.307 31.6495 165.315 31.7223 165.315L55.6283 165.241L66.0911 165.212L71.429 165.193C71.9738 165.193 72.4081 164.761 72.4081 164.224L72.3946 160.727C72.3946 160.279 72.0844 159.899 71.6609 159.793L71.6663 159.796Z" fill="#407BFF"/>
<path d="M71.7103 159.63C71.6186 159.606 71.5215 159.596 71.4163 159.596L31.715 159.715C31.6098 159.715 31.5181 159.726 31.4399 159.747C30.9166 159.872 30.5552 160.326 30.5606 160.854L30.5687 164.359C30.5741 164.885 30.9544 165.347 31.4669 165.458C31.5505 165.479 31.6368 165.49 31.7258 165.49L71.4325 165.37C72.0663 165.37 72.5842 164.861 72.5842 164.231L72.5734 160.735C72.5734 160.214 72.2174 159.763 71.7103 159.636V159.63ZM71.4325 165.023L31.7258 165.14C31.6665 165.14 31.6072 165.132 31.5478 165.118C31.1864 165.041 30.922 164.717 30.9193 164.354L30.9112 160.849C30.9059 160.483 31.1594 160.164 31.5316 160.076C31.5829 160.06 31.6449 160.052 31.715 160.052L71.4163 159.933C71.4945 159.933 71.5592 159.941 71.624 159.957C71.9773 160.044 72.2255 160.36 72.2255 160.724L72.2389 164.223C72.2389 164.662 71.8802 165.02 71.4351 165.02L71.4325 165.023Z" fill="#010101"/>
<path d="M71.5658 154.398C71.5173 154.39 71.466 154.385 71.4148 154.385L49.5291 154.454L35.9537 154.496L31.7135 154.51C31.1687 154.51 30.729 154.942 30.7344 155.476L30.7425 158.975C30.7479 159.424 31.0581 159.804 31.4789 159.91C31.5571 159.931 31.638 159.939 31.7243 159.939L54.4732 159.87L71.431 159.82C71.5146 159.82 71.5901 159.812 71.6656 159.79C72.0972 159.69 72.4128 159.305 72.4128 158.853L72.3993 155.351C72.3993 154.873 72.0378 154.472 71.5685 154.401L71.5658 154.398Z" fill="#407BFF"/>
<path d="M71.597 154.231C71.5376 154.22 71.4783 154.215 71.4136 154.215L31.7123 154.337C31.4021 154.337 31.1081 154.456 30.8924 154.674C30.6766 154.889 30.5579 155.173 30.5606 155.476L30.5687 158.975C30.5741 159.496 30.9301 159.947 31.4318 160.072C31.5208 160.096 31.6152 160.106 31.7258 160.106L71.4324 159.99C71.5349 159.99 71.6293 159.976 71.7049 159.955C72.2227 159.833 72.5842 159.379 72.5842 158.851L72.5734 155.349C72.5734 154.794 72.1526 154.313 71.597 154.228V154.231ZM71.6159 159.626C71.5619 159.642 71.5026 159.65 71.4297 159.65L31.7231 159.769C31.6476 159.769 31.5802 159.761 31.5208 159.745C31.1675 159.658 30.9193 159.342 30.9166 158.978L30.9085 155.479C30.9085 155.266 30.9895 155.067 31.1405 154.918C31.2942 154.767 31.4965 154.685 31.715 154.685L71.4163 154.563C71.4567 154.563 71.4972 154.565 71.5403 154.573C71.9314 154.634 72.2254 154.969 72.2254 155.357L72.2389 158.859C72.2389 159.228 71.9881 159.544 71.6186 159.631L71.6159 159.626Z" fill="#010101"/>
<path opacity="0.15" d="M99.6935 180.46L99.6827 176.961C99.6827 176.656 99.5613 176.371 99.3428 176.156C99.1243 175.941 98.833 175.822 98.5228 175.824L96.8775 175.83C97.0852 175.625 97.212 175.339 97.212 175.025L97.2012 171.526C97.2012 170.899 96.6806 170.392 96.044 170.392H96.0413L91.3616 170.405C91.5693 170.19 91.6879 169.912 91.6879 169.614L91.6772 166.115C91.6772 165.81 91.5558 165.525 91.3346 165.31C91.1161 165.095 90.8275 164.979 90.52 164.979H90.5146L50.8107 165.101C50.5032 165.101 50.2119 165.22 49.9934 165.435C49.7776 165.65 49.6562 165.937 49.6562 166.24L49.667 169.739C49.667 170.366 50.1876 170.873 50.8242 170.873H50.8269L55.5066 170.859C55.299 171.072 55.1803 171.353 55.183 171.648L55.1938 175.147C55.1938 175.774 55.7143 176.281 56.3509 176.281L57.9962 176.276C57.7805 176.491 57.6618 176.775 57.6618 177.078L57.6726 180.577C57.6726 180.97 57.8937 181.302 58.2039 181.506C58.1338 181.549 58.0583 181.583 57.9962 181.642C57.7778 181.857 57.6591 182.144 57.6591 182.449L57.6699 185.946C57.6699 186.251 57.7912 186.535 58.0097 186.75C58.2282 186.963 58.5168 187.082 58.8243 187.082L98.5309 186.963C99.1675 186.963 99.6854 186.447 99.6827 185.821L99.6719 182.321C99.6719 181.929 99.4507 181.597 99.1405 181.392C99.2106 181.347 99.2862 181.315 99.3482 181.257C99.5667 181.039 99.6854 180.755 99.6827 180.45L99.6935 180.46Z" fill="#191E3F"/>
<path d="M103.517 181.371L63.8131 181.491C63.2709 181.491 62.834 181.926 62.834 182.46L62.8448 185.959C62.8448 186.493 63.2871 186.926 63.8293 186.923L103.533 186.803C104.075 186.803 104.515 186.368 104.512 185.834L104.502 182.335C104.502 181.801 104.059 181.368 103.517 181.371Z" fill="#407BFF"/>
<path d="M103.519 181.197H103.517L63.8126 181.317C63.5025 181.317 63.2138 181.436 62.9954 181.654C62.7769 181.869 62.6582 182.156 62.6582 182.461L62.669 185.958C62.669 186.263 62.7904 186.547 63.0088 186.762C63.2273 186.975 63.5159 187.094 63.8234 187.094H63.8261L103.53 186.975C104.167 186.975 104.684 186.46 104.682 185.833L104.671 182.334C104.671 181.707 104.15 181.2 103.514 181.2L103.519 181.197ZM103.533 186.63L63.8261 186.749C63.6103 186.749 63.4107 186.667 63.257 186.518C63.1033 186.369 63.0196 186.17 63.0196 185.958L63.0088 182.458C63.0088 182.246 63.0925 182.047 63.2435 181.896C63.3946 181.744 63.5969 181.662 63.8126 181.659L103.517 181.54C103.962 181.54 104.323 181.896 104.326 182.331L104.337 185.83C104.337 186.268 103.978 186.624 103.533 186.627V186.63Z" fill="#010101"/>
<path d="M95.5061 165.156L55.7994 165.276C55.2573 165.276 54.8176 165.711 54.8203 166.245L54.8311 169.744C54.8311 170.278 55.2762 170.708 55.8156 170.705L95.5196 170.586C96.0617 170.586 96.5013 170.15 96.4986 169.617L96.4879 166.117C96.4879 165.584 96.0455 165.154 95.5034 165.156H95.5061Z" fill="#407BFF"/>
<path d="M96.3229 165.314C96.1044 165.099 95.8158 164.982 95.5083 164.982H95.5029L55.799 165.105C55.4915 165.105 55.2002 165.224 54.9817 165.439C54.7632 165.654 54.6445 165.941 54.6445 166.244L54.6553 169.743C54.6553 170.37 55.1759 170.877 55.8125 170.877H55.8152L95.5191 170.757C95.8293 170.757 96.1179 170.638 96.3364 170.42C96.5548 170.205 96.6735 169.918 96.6735 169.616L96.6627 166.116C96.6627 165.811 96.5414 165.527 96.3202 165.312L96.3229 165.314ZM96.0936 170.181C95.9426 170.332 95.7403 170.415 95.5245 170.415L55.8205 170.534C55.6048 170.534 55.4025 170.452 55.2514 170.303C55.0977 170.155 55.0141 169.955 55.0114 169.743L55.0006 166.244C55.0006 166.031 55.0842 165.829 55.2352 165.681C55.3863 165.532 55.5886 165.447 55.8044 165.447L95.511 165.328H95.5137C95.7295 165.328 95.9291 165.41 96.0801 165.559C96.2339 165.71 96.3175 165.909 96.3202 166.121L96.331 169.618C96.331 169.831 96.2474 170.032 96.0963 170.181H96.0936Z" fill="#010101"/>
<path d="M103.515 176L63.8111 176.119C63.269 176.119 62.832 176.555 62.832 177.089L62.8428 180.588C62.8428 181.122 63.2852 181.552 63.8273 181.552L103.531 181.432C104.073 181.432 104.513 180.997 104.51 180.463L104.5 176.964C104.5 176.43 104.057 176 103.515 176Z" fill="#407BFF"/>
<path d="M104.333 176.158C104.114 175.943 103.823 175.824 103.513 175.826L63.8087 175.946C63.4985 175.946 63.2099 176.065 62.9915 176.283C62.773 176.498 62.6543 176.785 62.6543 177.087L62.6651 180.587C62.6651 181.213 63.183 181.72 63.8195 181.72H63.8222L103.526 181.601C103.834 181.601 104.125 181.482 104.343 181.266C104.562 181.049 104.681 180.765 104.681 180.459L104.67 176.96C104.67 176.655 104.548 176.371 104.33 176.155L104.333 176.158ZM104.101 181.025C103.95 181.176 103.747 181.258 103.532 181.258L63.8249 181.378C63.6091 181.378 63.4095 181.296 63.2558 181.147C63.102 180.998 63.0184 180.799 63.0184 180.587L63.0076 177.087C63.0076 176.875 63.0913 176.676 63.2423 176.525C63.3934 176.373 63.5956 176.291 63.8114 176.291L103.515 176.171C103.731 176.171 103.931 176.254 104.084 176.402C104.238 176.551 104.322 176.75 104.322 176.963L104.333 180.462C104.333 180.674 104.249 180.874 104.098 181.025H104.101Z" fill="#010101"/>
<path d="M101.031 170.566L61.3268 170.686C60.7846 170.686 60.3477 171.121 60.3477 171.655L60.3584 175.154C60.3584 175.688 60.8008 176.118 61.343 176.118L101.047 175.999C101.589 175.999 102.026 175.563 102.026 175.03L102.015 171.533C102.015 170.999 101.573 170.566 101.031 170.569V170.566Z" fill="#407BFF"/>
<path d="M101.035 170.393H101.032L61.3256 170.512C61.0181 170.512 60.7268 170.632 60.5083 170.849C60.2899 171.064 60.1712 171.351 60.1739 171.654L60.1847 175.153C60.1847 175.78 60.7052 176.29 61.3418 176.29L101.046 176.17C101.685 176.17 102.2 175.655 102.197 175.028L102.187 171.529C102.187 170.902 101.666 170.395 101.03 170.395L101.035 170.393ZM101.046 175.825L61.3418 175.944C60.8967 175.944 60.5353 175.589 60.5353 175.153L60.5245 171.654C60.5245 171.216 60.8833 170.857 61.3283 170.855L101.035 170.735C101.477 170.735 101.841 171.091 101.841 171.529L101.852 175.028C101.852 175.466 101.493 175.825 101.048 175.825H101.046Z" fill="#010101"/>
<path d="M40.838 150.49L37.1454 148.746L36.8649 149.322C29.674 148.364 21.7305 153.063 17.7466 161.236C13.7358 169.466 15.025 178.573 20.3791 183.472L20.0744 184.101L23.6779 185.694C31.6915 189.478 42.0329 184.667 46.7693 174.946C51.5084 165.226 48.8516 154.277 40.8353 150.493L40.838 150.49Z" fill="#010101"/>
<path d="M37.1441 148.746C29.1305 144.96 18.7891 149.773 14.0527 159.491C9.3136 169.211 12.0594 180.315 20.0757 184.098C28.092 187.884 38.339 182.919 43.0781 173.199C47.8145 163.479 45.1577 152.529 37.1441 148.743V148.746Z" fill="#407BFF"/>
<path d="M35.6051 151.895C29.021 148.786 20.53 152.74 16.6378 160.721C12.7483 168.705 15.0005 177.825 21.5846 180.931C28.1687 184.043 36.5869 179.965 40.4763 171.981C44.3658 163.997 42.1837 155.005 35.6024 151.895H35.6051Z" fill="#407BFF"/>
<path d="M34.7899 158.799C34.4689 158.284 34.0805 157.83 33.6112 157.443C33.1391 157.047 32.6267 156.718 32.0521 156.447L32.686 154.546L30.5012 153.848L29.8754 155.751C29.2011 155.637 28.5403 155.621 27.8848 155.698C27.2375 155.781 26.6306 155.94 26.0777 156.197C25.5166 156.452 25.0311 156.803 24.613 157.23C24.5186 157.328 24.4242 157.435 24.3379 157.544C24.0574 157.91 23.8389 158.321 23.6879 158.781C23.6177 158.996 23.5611 159.203 23.526 159.41C23.4424 159.856 23.4316 160.281 23.5018 160.677C23.5935 161.258 23.7985 161.81 24.1113 162.341C24.2543 162.586 24.4215 162.83 24.5996 163.066C24.6886 163.18 24.7857 163.3 24.8855 163.417C24.988 163.536 25.0986 163.658 25.2118 163.775C25.2334 163.799 25.2496 163.815 25.2712 163.839C25.7378 164.309 26.2287 164.773 26.7385 165.233L25.0932 170.216L25.023 170.431V170.439L24.9529 170.649L24.613 171.671C24.2867 171.435 24.0089 171.159 23.7769 170.832C23.6124 170.601 23.4721 170.352 23.3615 170.083C23.321 169.996 23.2887 169.908 23.259 169.818H23.2536C23.2455 169.797 23.2401 169.77 23.232 169.754C23.2131 169.693 23.1943 169.624 23.1781 169.555C23.0837 169.218 23.0163 168.867 22.992 168.49C22.9542 168.036 22.9758 167.572 23.0459 167.104L20.7532 166.366C20.6373 167.067 20.6103 167.76 20.675 168.44C20.675 168.461 20.6723 168.485 20.6804 168.501C20.6804 168.554 20.6912 168.605 20.6912 168.652C20.6912 168.66 20.6966 168.66 20.6912 168.668C20.6966 168.692 20.702 168.719 20.6993 168.74C20.7047 168.796 20.7128 168.854 20.729 168.905C20.729 168.926 20.7317 168.952 20.737 168.976C20.8315 169.606 21.0014 170.19 21.236 170.739C21.2954 170.888 21.3655 171.031 21.441 171.169C21.4815 171.254 21.5193 171.331 21.5678 171.398C21.6083 171.485 21.6487 171.554 21.6946 171.629C21.878 171.942 22.0938 172.231 22.3257 172.505C22.7762 173.028 23.3022 173.471 23.9063 173.816L22.9057 176.835L25.0851 177.531L26.0669 174.565C26.725 174.701 27.4155 174.756 28.1168 174.735C28.8208 174.709 29.4924 174.573 30.1209 174.326C30.7547 174.079 31.3185 173.71 31.8202 173.216C32.3192 172.728 32.7076 172.08 32.9692 171.27C33.1283 170.795 33.2012 170.336 33.1985 169.898C33.1904 169.465 33.1149 169.043 32.9773 168.642C32.8343 168.236 32.6347 167.848 32.3947 167.487C32.1411 167.12 31.8579 166.765 31.5396 166.425C31.2214 166.077 30.8842 165.745 30.5174 165.424C30.1532 165.097 29.7864 164.773 29.4142 164.449L31.3724 158.526C32.0306 158.876 32.5188 159.328 32.8289 159.885C33.1391 160.443 33.3064 161.125 33.3199 161.935L35.4804 162.623C35.5964 161.869 35.5856 161.173 35.4561 160.53C35.3293 159.888 35.1028 159.312 34.7926 158.807L34.7899 158.799ZM26.6926 162.07C26.458 161.789 26.2692 161.505 26.1289 161.215C25.9887 160.926 25.905 160.639 25.87 160.342C25.8349 160.045 25.8727 159.739 25.9752 159.429C26.164 158.85 26.5389 158.409 27.1053 158.109C27.661 157.814 28.3542 157.721 29.1795 157.844L27.4964 162.917C27.1997 162.633 26.9327 162.355 26.6953 162.07H26.6926ZM29.5679 167.712C29.8673 168.028 30.1128 168.344 30.3124 168.674C30.5147 168.995 30.6549 169.321 30.7278 169.635C30.806 169.959 30.7871 170.272 30.69 170.591C30.5686 170.944 30.3906 171.268 30.1479 171.541C29.9051 171.815 29.6084 172.035 29.2631 172.205C28.9179 172.375 28.5322 172.489 28.1033 172.547C27.6772 172.6 27.224 172.585 26.7412 172.5L28.632 166.786C28.9691 167.089 29.2793 167.394 29.5679 167.712Z" fill="#010101"/>
<path d="M35.6748 151.75C32.4461 150.226 28.67 150.314 25.0421 152.002C21.4251 153.686 18.3879 156.757 16.4891 160.652C14.5929 164.545 14.0723 168.819 15.0217 172.696C15.9739 176.578 18.2801 179.554 21.5114 181.081C22.183 181.399 22.8789 181.643 23.5937 181.819C26.2964 182.482 29.2526 182.129 32.1117 180.765C35.6964 179.055 38.72 175.959 40.6243 172.053C44.5488 164 42.3263 154.894 35.6721 151.753L35.6748 151.75ZM40.3276 171.913C38.4557 175.755 35.486 178.795 31.9687 180.473C28.4434 182.153 24.7832 182.265 21.6543 180.786C18.512 179.304 16.2706 176.402 15.3427 172.619C14.4094 168.817 14.9219 164.619 16.7858 160.793C18.6496 156.967 21.6328 153.948 25.1797 152.297C28.7158 150.653 32.3922 150.56 35.5291 152.042C42.0188 155.109 44.1712 164.022 40.3249 171.913H40.3276Z" fill="#010101"/>
<path d="M119.187 61.6883C119.02 61.5927 118.796 61.6511 118.648 61.7732C118.499 61.8954 118.41 62.0706 118.324 62.2432C118.316 62.2618 118.305 62.2777 118.297 62.2963C118.267 62.1556 118.208 62.0255 118.084 61.9564C117.917 61.8609 117.693 61.9166 117.547 62.0414C117.399 62.1635 117.31 62.3388 117.221 62.5087C117.089 62.7689 116.956 63.0291 116.824 63.2919C116.743 63.3158 116.66 63.345 116.576 63.3796C116.557 63.1937 116.501 63.0132 116.344 62.9229C116.177 62.8273 115.953 62.8857 115.805 63.0078C115.656 63.13 115.567 63.3052 115.481 63.4778C115.349 63.738 115.217 63.9982 115.085 64.2584C114.292 64.8345 113.588 65.4664 113.275 65.6311C113.113 65.716 112.946 65.7957 112.778 65.878C112.827 65.3602 112.838 64.8425 112.8 64.3248C112.784 64.0911 112.73 63.8176 112.517 63.7141C112.341 63.6291 112.126 63.7008 111.985 63.8336C111.845 63.9663 111.77 64.1469 111.694 64.3221C111.163 65.5753 110.631 66.8312 110.1 68.0843C110.033 68.2251 109.971 68.3738 109.911 68.5277C109.903 68.5463 109.895 68.5649 109.887 68.5835C109.879 68.6021 109.873 68.626 109.865 68.6446C109.844 68.703 109.825 68.7587 109.806 68.8172C109.798 68.8437 109.792 68.8676 109.784 68.8942C109.609 69.4836 109.534 70.1075 109.65 70.6279V70.6332L107.3 83.7227L106.229 83.0112L97.207 77.0107C97.1557 80.6349 91.2972 79.9632 93.6412 82.9793C93.6412 82.9793 101.617 90.0126 107.346 92.7341C109.407 93.7164 111.182 94.136 112.18 93.4695C112.298 93.3872 112.414 93.2916 112.506 93.1775C115.799 89.3462 114.858 76.6496 114.383 71.974C115.219 71.2386 116.042 70.1792 116.77 68.9234C117.013 68.5039 118.073 67.1577 118.408 66.5152C118.556 66.3028 118.683 66.0479 118.809 65.716C119.219 64.6328 119.43 63.4778 119.424 62.3202C119.424 62.0865 119.389 61.8104 119.182 61.6909L119.187 61.6883Z" fill="#FFC3BD"/>
<path d="M119.241 61.5962C119.052 61.4873 118.78 61.5271 118.58 61.6917C118.467 61.7873 118.383 61.9095 118.313 62.0316C118.267 61.9599 118.21 61.9015 118.14 61.8617C117.916 61.7369 117.641 61.8218 117.48 61.9572C117.312 62.0953 117.215 62.2891 117.126 62.4591L116.751 63.1998C116.724 63.2078 116.695 63.2184 116.665 63.229C116.622 63.0352 116.535 62.9025 116.398 62.8255C116.171 62.698 115.904 62.783 115.737 62.921C115.57 63.0591 115.47 63.2529 115.386 63.4229L115.001 64.1795C114.65 64.4371 114.321 64.6999 114.027 64.9309C113.684 65.2044 113.388 65.4434 113.226 65.5283C113.121 65.5841 113.013 65.6372 112.905 65.6903C112.94 65.2097 112.943 64.7451 112.91 64.307C112.894 64.0707 112.837 63.7388 112.565 63.6087C112.33 63.4972 112.069 63.5981 111.912 63.7468C111.756 63.8955 111.67 64.0946 111.597 64.2725L110.003 68.0347C109.941 68.1648 109.876 68.3135 109.814 68.4834L109.792 68.5339C109.784 68.5498 109.781 68.5657 109.776 68.5764L109.752 68.6454C109.736 68.6905 109.719 68.733 109.706 68.7808C109.698 68.81 109.69 68.8339 109.684 68.8631C109.547 69.3198 109.412 69.9995 109.544 70.6234L107.227 83.535L97.1043 76.8044V77.0009C97.0773 78.6683 95.7826 79.3931 94.639 80.0303C93.8325 80.4791 93.1366 80.8694 93.0044 81.5145C92.9154 81.9447 93.0961 82.4412 93.5573 83.0359C93.6517 83.1209 101.625 90.1249 107.303 92.8225C108.794 93.5341 110.011 93.8898 110.941 93.8898C111.467 93.8898 111.902 93.7757 112.241 93.5473C112.382 93.4518 112.5 93.3482 112.592 93.2367C115.858 89.4346 115.02 77.1682 114.499 72.0094C115.319 71.2766 116.139 70.2278 116.867 68.9666C116.962 68.802 117.191 68.4861 117.453 68.1223C117.852 67.5701 118.302 66.9435 118.504 66.5532C118.65 66.3461 118.782 66.0859 118.912 65.7434C119.33 64.6362 119.54 63.4813 119.535 62.3104C119.535 62.0741 119.502 61.7395 119.238 61.5909L119.241 61.5962ZM118.712 65.6744C118.591 66.0009 118.467 66.2478 118.324 66.4496C118.121 66.8373 117.655 67.4851 117.28 68.0029C117.013 68.3719 116.784 68.6905 116.684 68.8658C115.953 70.1269 115.136 71.173 114.318 71.8899L114.278 71.9244L114.283 71.9775C114.801 77.0779 115.653 89.3497 112.43 93.1013C112.349 93.1995 112.247 93.2898 112.123 93.3721C111.249 93.9589 109.657 93.7093 107.4 92.6313C101.749 89.9444 93.8001 82.9615 93.7192 82.8925C93.3119 82.3642 93.1447 81.9234 93.2202 81.557C93.3335 81.0048 93.9916 80.6384 94.7496 80.2135C95.8419 79.6029 97.1906 78.8515 97.312 77.1947L107.386 83.8908L107.416 83.7289L109.768 70.6181V70.5942C109.663 70.1375 109.709 69.5401 109.897 68.9135C109.906 68.8843 109.911 68.8631 109.916 68.8392C109.93 68.7967 109.943 68.7542 109.959 68.7144L110.016 68.5604C110.081 68.3905 110.14 68.2498 110.202 68.1197L111.799 64.3521C111.869 64.1875 111.942 64.0176 112.066 63.8981C112.169 63.7999 112.341 63.7362 112.476 63.7972C112.608 63.8609 112.678 64.0256 112.7 64.3203C112.735 64.8035 112.73 65.3212 112.678 65.8576L112.659 66.0487L112.918 65.9213C113.056 65.8522 113.196 65.7832 113.331 65.7142C113.512 65.6186 113.8 65.3876 114.167 65.0955C114.464 64.8592 114.798 64.5911 115.154 64.3335L115.187 64.2964L115.583 63.5158C115.662 63.3644 115.748 63.1919 115.88 63.0803C115.991 62.9874 116.169 62.9343 116.295 63.006C116.398 63.0644 116.455 63.1866 116.476 63.383L116.49 63.5237L116.622 63.4706C116.703 63.4388 116.784 63.4096 116.862 63.3883L116.908 63.3751L117.326 62.552C117.407 62.3927 117.49 62.2254 117.622 62.1166C117.733 62.0263 117.911 61.9705 118.038 62.0422C118.119 62.0873 118.17 62.1723 118.197 62.313L118.259 62.6131L118.424 62.2865C118.504 62.1272 118.588 61.9599 118.72 61.851C118.796 61.79 118.901 61.7448 119.001 61.7448C119.047 61.7448 119.095 61.7555 119.136 61.7794C119.262 61.851 119.322 62.021 119.324 62.3157C119.33 63.46 119.125 64.5911 118.715 65.6744H118.712Z" fill="#010101"/>
<path d="M83.3056 65.719C82.9198 65.8677 82.7337 66.3085 82.8929 66.6988C83.0493 67.0917 83.489 67.2882 83.8747 67.1395C84.2604 66.9908 84.4465 66.5501 84.2874 66.1571C84.1309 65.7642 83.6913 65.5677 83.3056 65.719Z" fill="#010101"/>
<path d="M82.1063 65.1004C81.7206 65.2491 81.5345 65.6898 81.6937 66.0828C81.8501 66.4757 82.2898 66.6722 82.6755 66.5209C83.0612 66.3722 83.2473 65.9315 83.0909 65.5412C82.9344 65.1482 82.4947 64.9517 82.109 65.1004H82.1063Z" fill="#010101"/>
<path d="M80.7763 54.805C80.3905 54.9537 80.2044 55.3944 80.3636 55.7847C80.52 56.1776 80.9597 56.3741 81.3454 56.2254C81.7311 56.0768 81.9172 55.636 81.7581 55.2431C81.6016 54.8501 81.162 54.6536 80.7763 54.805Z" fill="#010101"/>
<path d="M81.9767 54.104C81.3375 54.3509 80.9464 54.8713 81.1028 55.2642C81.2593 55.6572 81.9066 55.774 82.5458 55.5244C83.1851 55.2775 83.5762 54.7571 83.4198 54.3642C83.2633 53.9712 82.616 53.8544 81.9767 54.104Z" fill="#010101"/>
<path d="M79.4317 56.493C79.046 56.6417 78.8599 57.0824 79.0164 57.4754C79.1728 57.8683 79.6124 58.0648 79.9982 57.9135C80.3839 57.7648 80.57 57.324 80.4108 56.9337C80.2544 56.5408 79.8147 56.3443 79.429 56.493H79.4317Z" fill="#010101"/>
<path d="M79.3106 57.4488C78.9249 57.5975 78.7388 58.0382 78.8953 58.4285C79.0517 58.8215 79.4914 59.018 79.8771 58.8693C80.2628 58.7206 80.4489 58.2798 80.2898 57.8895C80.1333 57.4966 79.6937 57.3001 79.3079 57.4515L79.3106 57.4488Z" fill="#010101"/>
<path d="M80.413 62.5726C80.0273 62.7212 79.8412 63.162 80.0003 63.5523C80.1567 63.9452 80.5964 64.1417 80.9821 63.9904C81.3678 63.8417 81.5539 63.4009 81.3948 63.0106C81.2384 62.6177 80.7987 62.4212 80.413 62.5726Z" fill="#010101"/>
<path d="M79.3896 58.6155C79.0038 58.7642 78.8177 59.2049 78.9769 59.5952C79.1333 59.9882 79.573 60.1847 79.9587 60.0333C80.3444 59.8846 80.5305 59.4439 80.3714 59.0536C80.2149 58.6607 79.7753 58.4642 79.3896 58.6155Z" fill="#010101"/>
<path d="M80.8265 63.4722C80.4111 63.6341 80.2843 64.2846 80.5405 64.9245C80.7968 65.567 81.3416 65.9573 81.757 65.7954C82.1724 65.6334 82.2992 64.9829 82.0429 64.343C81.7867 63.7005 81.2418 63.3102 80.8265 63.4722Z" fill="#010101"/>
<path d="M79.8518 60.8706C79.4365 61.0299 79.3097 61.6831 79.5659 62.3229C79.8222 62.9655 80.367 63.3558 80.7824 63.1938C81.1978 63.0345 81.3246 62.3814 81.0683 61.7415C80.8121 61.099 80.2672 60.7087 79.8518 60.8706Z" fill="#010101"/>
<path d="M78.9886 59.2449C78.5732 59.4069 78.4464 60.0574 78.7027 60.6999C78.9589 61.3424 79.5038 61.7327 79.9191 61.5708C80.3345 61.4088 80.4613 60.7583 80.205 60.1184C79.9488 59.4759 79.4039 59.0856 78.9886 59.2476V59.2449Z" fill="#010101"/>
<path d="M79.9827 55.4988C79.5673 55.6608 79.4406 56.3113 79.6968 56.9538C79.953 57.5963 80.4979 57.9866 80.9133 57.8247C81.3287 57.6654 81.4554 57.0122 81.1992 56.3723C80.9429 55.7298 80.3981 55.3395 79.9827 55.5015V55.4988Z" fill="#010101"/>
<path d="M89.4311 54.9209C87.8236 54.3341 86.0191 54.135 84.2605 54.3447C82.9927 54.4961 81.6846 54.897 80.8322 55.7546C80.2226 56.3652 79.9017 57.1565 79.7155 57.9424C79.2732 59.8089 79.5294 61.7736 80.4357 63.457C80.9509 64.4128 81.6738 65.2757 82.5477 65.9952C82.9469 66.3244 83.4971 66.8289 84.0258 66.9935C84.7028 67.2033 84.7649 66.9112 85.1883 66.4386C86.7069 64.742 88.8404 63.6667 90.7339 62.3365C91.6591 61.686 92.5546 60.9214 92.9214 59.9416C93.3152 58.8902 93.0212 57.722 92.3226 56.8378C91.6267 55.9537 90.5667 55.3351 89.4311 54.9209Z" fill="#010101"/>
<path d="M90.7526 67.5273L86.623 68.1991L86.7121 70.0444L86.8766 73.403L92.0635 72.5587L91.203 69.2558L90.7526 67.5273Z" fill="#BD695B"/>
<path d="M86.6218 68.1991L86.6785 69.1974C87.5092 69.7204 88.8444 69.9355 89.632 69.8081C90.4547 69.6753 91.0292 69.4018 91.1991 69.2585L90.7487 67.5273L86.6191 68.1991H86.6218Z" fill="#010101"/>
<path d="M86.3846 55.0039C83.4041 55.4898 81.3596 58.105 81.8208 60.8503C82.282 63.593 85.071 65.425 88.0515 64.9392C91.032 64.4533 93.0766 61.838 92.6153 59.0927C92.1541 56.35 89.3651 54.518 86.3846 55.0039Z" fill="#010101"/>
<path d="M86.65 56.1894C83.772 56.6567 81.9351 59.9968 82.5474 63.6475C83.1597 67.2983 85.9918 69.879 88.8698 69.4117C91.7478 68.9444 93.5847 65.6043 92.9724 61.9536C92.3601 58.3029 89.528 55.7221 86.65 56.1894Z" fill="#FFC3BD"/>
<path d="M86.6319 56.0845C85.2077 56.3154 83.9859 57.2368 83.1956 58.6732C82.4107 60.1016 82.1409 61.8752 82.443 63.6647C83.0148 67.0738 85.5152 69.5722 88.1963 69.5722C88.4256 69.5722 88.6576 69.5537 88.8895 69.5165C90.3137 69.2855 91.5356 68.3642 92.3259 66.9278C93.1108 65.4994 93.3778 63.7258 93.0784 61.9362C92.4553 58.2324 89.5638 55.6012 86.6319 56.0871V56.0845ZM92.137 66.8242C91.3791 68.2022 90.2139 69.0864 88.8545 69.3067C86.0412 69.7634 83.2603 67.2172 82.6561 63.6302C82.3648 61.8858 82.6237 60.1627 83.3871 58.774C84.145 57.3961 85.3102 56.5119 86.6697 56.2915C86.8908 56.257 87.1093 56.2384 87.3278 56.2384C89.9064 56.2384 92.3124 58.6599 92.8653 61.9681C93.1593 63.7098 92.8977 65.4356 92.137 66.8242Z" fill="#010101"/>
<path d="M81.2708 61.4585C80.4913 61.6417 80.0543 62.5922 80.2944 63.5826C80.5344 64.5703 82.1015 65.6721 82.881 65.4863C83.6605 65.3031 83.3585 63.9065 83.1157 62.9162C82.8756 61.9285 82.0476 61.2753 81.2681 61.4585H81.2708Z" fill="#FFC3BD"/>
<path d="M82.4663 61.6674C82.0914 61.37 81.6598 61.2612 81.2471 61.3594C80.8371 61.455 80.5027 61.7471 80.3031 62.1772C80.1089 62.5993 80.0684 63.1091 80.1898 63.6083C80.4191 64.5482 81.7974 65.6155 82.6902 65.6155C82.7657 65.6155 82.8385 65.6075 82.906 65.5916C83.8257 65.3739 83.4319 63.7596 83.2215 62.8941C83.1002 62.3922 82.8304 61.9568 82.4636 61.6674H82.4663ZM82.8574 65.3872C82.1723 65.5412 80.6349 64.519 80.4002 63.5605C80.2896 63.1038 80.3247 62.6445 80.5 62.2648C80.6699 61.8957 80.9531 61.6462 81.2957 61.5639C81.3766 61.5453 81.4575 61.5347 81.5384 61.5347C81.8082 61.5347 82.0806 61.6355 82.3287 61.832C82.6605 62.0922 82.9006 62.4878 83.0138 62.9418C83.1946 63.68 83.5668 65.2172 82.8574 65.3845V65.3872Z" fill="#010101"/>
<path d="M80.851 62.0501C80.7674 62.0554 80.7 62.1244 80.7054 62.2094C80.7108 62.2943 80.7809 62.3554 80.8672 62.3527C81.1558 62.3368 81.4849 62.4058 81.849 62.8413C81.6494 62.8253 81.4067 62.8864 81.1127 63.0271C81.0371 63.0643 81.0048 63.1546 81.0425 63.2289C81.0803 63.3033 81.172 63.3351 81.2475 63.2979C81.5415 63.1546 81.7708 63.1094 81.9192 63.1599C82.0918 63.2183 82.1889 63.4148 82.3022 63.6404C82.3669 63.7705 82.4343 63.906 82.5234 64.0307C82.553 64.0706 82.6016 64.0945 82.6474 64.0945C82.6744 64.0945 82.6987 64.0892 82.723 64.0759C82.7904 64.0387 82.8201 63.9564 82.7904 63.8847C82.081 62.2173 81.4148 62.0209 80.851 62.0447V62.0501Z" fill="#010101"/>
<path d="M93.4298 59.4761C92.6314 59.5478 92.0623 60.4292 92.1567 61.4408C92.2511 62.4524 92.4211 63.8729 93.2194 63.7985C94.0178 63.7269 95.1426 62.1869 95.0455 61.1753C94.9511 60.1637 94.2255 59.4017 93.4271 59.4734L93.4298 59.4761Z" fill="#FFC3BD"/>
<path d="M93.5363 59.3652C93.4985 59.3652 93.4607 59.3652 93.4203 59.3705C92.9995 59.4077 92.6273 59.6493 92.3684 60.0502C92.1148 60.4405 92.0015 60.9397 92.0501 61.4521C92.104 62.015 92.1741 62.6018 92.3225 63.0611C92.5059 63.624 92.7891 63.9081 93.1614 63.9081C93.1856 63.9081 93.2072 63.9081 93.2315 63.9054C93.6442 63.8682 94.1378 63.4939 94.5585 62.9018C94.9793 62.3097 95.2032 61.6619 95.1546 61.168C95.0575 60.1485 94.3427 59.3652 93.5336 59.3652H93.5363ZM94.3832 62.7797C94.011 63.3054 93.5525 63.6638 93.2126 63.693C92.9159 63.7089 92.692 63.4912 92.5302 62.9947C92.3872 62.554 92.3198 61.9831 92.2659 61.4309C92.2227 60.9636 92.3225 60.5149 92.5491 60.1644C92.7702 59.8219 93.0858 59.6148 93.4392 59.583C93.4715 59.583 93.5039 59.5776 93.5336 59.5776C94.2322 59.5776 94.8525 60.2759 94.9389 61.1866C94.9793 61.6247 94.7662 62.2354 94.3805 62.7797H94.3832Z" fill="#010101"/>
<path d="M94.0976 60.9116C93.7712 60.8691 93.5258 60.8877 93.3397 60.9673C93.542 60.439 93.8306 60.2717 94.1084 60.1921C94.1893 60.1682 94.2379 60.0859 94.2136 60.0062C94.1893 59.9266 94.1057 59.8788 94.0248 59.9027C93.4853 60.054 92.9135 60.4549 92.7894 62.2577C92.784 62.3347 92.838 62.4037 92.9162 62.417C92.9243 62.417 92.9351 62.417 92.9432 62.417C93.0106 62.417 93.0699 62.3745 93.0888 62.3108C93.1347 62.1648 93.1536 62.0161 93.1724 61.8701C93.2048 61.6205 93.2318 61.4028 93.3774 61.2939C93.5042 61.1983 93.7335 61.1718 94.0598 61.2116C94.1462 61.2222 94.2217 61.1638 94.2325 61.0815C94.2433 60.9992 94.1839 60.9222 94.1003 60.9116H94.0976Z" fill="#010101"/>
<path d="M88.6083 61.9757C88.5867 61.8934 88.5031 61.843 88.4221 61.8642C88.3412 61.8855 88.29 61.9651 88.3089 62.0474L88.7539 63.8316C88.7809 63.9432 88.8106 64.0972 88.7458 64.1582C88.7108 64.1927 88.6433 64.206 88.5867 64.214C88.3196 64.2538 88.0472 64.2246 87.7937 64.1264C87.7155 64.0972 87.6265 64.1343 87.5941 64.214C87.5644 64.291 87.6022 64.3786 87.6804 64.4104C87.8962 64.4928 88.1254 64.5352 88.3547 64.5352C88.4464 64.5352 88.5381 64.5299 88.6298 64.5167C88.7323 64.5007 88.8618 64.4715 88.9616 64.3759C89.1585 64.1874 89.083 63.8901 89.0506 63.7626L88.6056 61.9784L88.6083 61.9757Z" fill="#010101"/>
<path d="M90.3151 60.7607C90.1182 60.7926 90.0022 61.0793 90.0562 61.3979C90.1101 61.7192 90.3124 61.9528 90.5093 61.921C90.7062 61.8891 90.8222 61.6024 90.7683 61.2838C90.7143 60.9625 90.512 60.7289 90.3151 60.7607Z" fill="#010101"/>
<path d="M85.7058 61.5127C85.5089 61.5445 85.3929 61.8313 85.4468 62.1499C85.5008 62.4712 85.7031 62.7048 85.9 62.6729C86.0969 62.6411 86.2128 62.357 86.1589 62.0357C86.105 61.7145 85.9027 61.4808 85.7058 61.5127Z" fill="#010101"/>
<path d="M85.3848 60.4552C85.1474 60.5614 84.9182 60.872 84.7779 61.0791C84.697 61.1986 84.6214 61.3367 84.6511 61.4747C84.6889 61.6606 84.8885 61.7615 85.0665 61.8385C85.1771 61.496 85.3983 61.188 85.6869 60.9729C85.7597 60.9198 85.8433 60.8587 85.846 60.7685C85.8514 60.5853 85.5358 60.3861 85.3848 60.4525V60.4552Z" fill="#010101"/>
<path d="M91.0041 59.8839C90.7883 59.7512 90.4538 59.5573 90.1922 59.5547C90.0277 59.5547 89.82 59.86 89.9009 60.0273C89.9413 60.1069 90.0411 60.1308 90.1302 60.1494C90.4862 60.2317 90.8126 60.4256 91.0553 60.6937C91.1848 60.553 91.325 60.3804 91.2846 60.1946C91.2549 60.0565 91.1281 59.9583 91.0068 59.8839H91.0041Z" fill="#010101"/>
<path d="M90.567 56.5972C90.2676 56.645 91.1523 57.8185 91.3843 59.2045C91.6163 60.5904 92.6655 60.9728 92.6655 60.9728C92.6655 60.9728 92.7006 60.4152 92.4686 59.0293C92.2366 57.6433 90.8664 56.5494 90.5697 56.5972H90.567Z" fill="#010101"/>
<path d="M83.9738 57.6699C83.6744 57.7177 81.7917 59.1222 82.0236 60.5082C82.2556 61.8941 82.4363 62.9615 82.4363 62.9615C82.4363 62.9615 84.2867 61.7853 84.0547 60.3993C83.8227 59.0134 84.2759 57.6221 83.9765 57.6726L83.9738 57.6699Z" fill="#010101"/>
<path d="M84.9817 56.1575C84.3262 56.4496 83.749 56.9381 83.4307 57.5727C83.1691 58.0957 83.0936 58.6958 83.1233 59.2772C83.1556 59.8587 83.2878 60.4322 83.4253 61.0004C83.4442 61.0827 83.4739 61.1756 83.5521 61.2075C83.6843 61.2659 83.803 61.1092 83.8839 60.9898C84.1806 60.541 84.7173 60.3207 85.2082 60.095C86.0525 59.71 86.8671 59.2401 87.5333 58.6002C88.1968 57.9603 88.7039 57.1346 88.8388 56.2292L89.0519 56.3673C88.5502 55.8761 87.7895 55.7513 87.0829 55.7539C86.3627 55.7539 85.6371 55.8628 84.9817 56.1549V56.1575Z" fill="#010101"/>
<path d="M89.8201 56.4059C89.5099 56.2493 89.1809 56.1192 88.8437 56.0262C88.7277 55.9944 88.5929 55.9705 88.4931 56.0342C88.3906 56.0979 88.4283 56.3741 88.547 56.3953C88.5794 56.921 88.8842 57.3989 89.2699 57.76C89.6583 58.1211 90.1249 58.384 90.5835 58.6548C91.042 58.9256 91.5005 59.2123 91.8512 59.6079C91.9914 58.976 91.6785 58.1742 91.309 57.6405C90.9395 57.1069 90.4 56.7006 89.8147 56.4059H89.8201Z" fill="#010101"/>
<path d="M94.508 54.669C94.3732 54.1592 93.8607 53.7291 93.3239 53.7291C93.4426 53.6229 93.4804 53.4476 93.4588 53.291C93.4372 53.1343 93.3617 52.991 93.2835 52.8529C93.1216 52.5714 92.9193 52.2953 92.6226 52.1546C92.3556 52.0298 92.0427 52.0325 91.7568 52.1068C91.4709 52.1785 91.1985 52.3537 90.9368 52.4891C90.5538 51.8679 89.7446 51.536 89.0271 51.7032C88.3097 51.8705 87.6785 52.529 87.6192 53.2511C87.4223 52.8024 86.8801 52.5343 86.3973 52.6405C85.9307 52.7414 85.5719 53.0334 85.2698 53.3972C84.6036 53.1157 83.7621 53.3042 83.2846 53.8406C83.0743 54.0769 82.9286 54.4141 83.05 54.7061C84.2017 55.3726 85.5153 55.7522 86.837 55.9567C87.6219 56.0788 88.4149 56.1133 89.2079 56.1399C89.4803 56.1478 89.7689 56.1611 89.9955 56.3098C90.187 56.4346 90.3057 56.6417 90.4243 56.8355C90.9045 57.6214 91.4763 58.3542 92.129 59.0073C92.3826 59.2622 92.6901 59.5463 93.0434 59.4587C93.2673 59.403 93.4938 59.3472 93.6934 59.233C93.893 59.1189 94.063 58.933 94.1034 58.71C94.1358 58.5321 94.0845 58.3489 93.9955 58.1922C93.9065 58.0356 93.7959 57.9108 93.6692 57.7834C93.947 57.8205 94.2329 57.6639 94.3759 57.4249C94.5188 57.1886 94.5269 56.8833 94.4271 56.6257C94.3273 56.3682 94.1574 56.177 93.9227 56.0257C94.392 55.7682 94.6456 55.1814 94.5107 54.6716L94.508 54.669Z" fill="#010101"/>
<path d="M90.4792 55.8901C89.8048 55.4653 88.9255 55.3485 88.1865 55.6459C87.6497 55.8609 87.2181 56.2672 86.8216 56.684C86.2148 57.3212 85.6537 58.0009 85.1466 58.7151C85.0253 58.8851 84.9066 59.063 84.8553 59.2647C84.8068 59.4665 84.9174 59.8462 85.0684 59.9922C85.3327 60.0214 85.5971 60.0188 85.8614 59.979C86.0071 59.9577 86.1581 59.9232 86.2714 59.8303C86.3847 59.7374 86.4494 59.5701 86.3793 59.44C86.649 59.4479 86.9322 59.424 87.175 59.3099C87.4177 59.1957 87.6039 58.9196 87.5229 58.6674C87.7036 58.9143 88.03 59.0869 88.3375 59.0444C88.645 59.0019 88.9201 58.7815 89.0253 58.4948C89.1224 58.7258 89.2681 58.9063 89.5054 58.9913C89.7428 59.0762 90.0179 59.0603 90.2418 58.9461C90.2769 59.2886 90.7381 59.5303 91.0833 59.4772C91.4286 59.4214 91.7037 59.132 91.8143 58.8054C91.9222 58.4788 91.8925 58.1178 91.8089 57.7832C91.6174 57.0186 91.1508 56.3123 90.4792 55.8901Z" fill="#010101"/>
<path d="M99.4869 87.782L94.149 73.2109C91.6216 76.089 99.4869 87.782 99.4869 87.782Z" fill="#FD4E4E"/>
<path d="M123.5 185.221C123.5 185.221 123.481 185.216 123.473 185.213C123.152 185.115 122.346 185.083 121.383 185.032C119.349 184.932 117.898 183.349 116.01 182.699C114.122 182.048 113.223 175.18 112.646 173.531C109.922 173.443 106.057 175.089 106.747 175.79C112.986 182.104 108.166 182.51 108.161 185.348C108.161 186.639 109.469 186.888 110.178 186.87C115.619 186.737 118.766 186.841 123.192 186.878C124.166 186.886 124.428 185.516 123.503 185.221H123.5Z" fill="#FFC3BD"/>
<path d="M123.532 185.12H123.527C123.198 185.019 122.502 184.982 121.62 184.94L121.388 184.929C120.182 184.868 119.201 184.286 118.157 183.668C117.49 183.272 116.8 182.861 116.045 182.6C114.701 182.138 113.844 178.228 113.275 175.639C113.072 174.72 112.9 173.929 112.749 173.496L112.724 173.427H112.649C112.579 173.422 112.506 173.422 112.436 173.422C110.1 173.422 106.974 174.598 106.599 175.429C106.526 175.591 106.553 175.745 106.672 175.865C110.977 180.222 109.946 181.716 108.951 183.163C108.511 183.803 108.055 184.464 108.055 185.348C108.055 185.789 108.198 186.156 108.487 186.432C109.04 186.965 109.93 186.992 110.184 186.979C114.359 186.878 117.232 186.915 120.271 186.952C121.207 186.965 122.168 186.976 123.195 186.984H123.203C123.775 186.984 124.107 186.557 124.174 186.158C124.239 185.763 124.069 185.287 123.54 185.12H123.532ZM123.953 186.124C123.899 186.448 123.646 186.772 123.198 186.772H123.19C122.162 186.764 121.202 186.75 120.269 186.74C117.226 186.7 114.351 186.663 110.173 186.766C109.69 186.782 109.024 186.657 108.633 186.28C108.39 186.047 108.266 185.733 108.266 185.351C108.266 184.531 108.684 183.925 109.126 183.285C110.17 181.767 111.252 180.198 106.823 175.719C106.766 175.66 106.755 175.602 106.793 175.517C107.103 174.826 110.057 173.637 112.42 173.637C112.468 173.637 112.517 173.637 112.563 173.637C112.705 174.07 112.87 174.821 113.059 175.684C113.671 178.474 114.513 182.298 115.969 182.802C116.703 183.054 117.385 183.458 118.043 183.848C119.063 184.454 120.115 185.078 121.375 185.141L121.606 185.152C122.44 185.194 123.157 185.229 123.441 185.314L123.468 185.322C123.902 185.46 124.002 185.84 123.956 186.124H123.953Z" fill="#010101"/>
<path d="M123.828 185.118C122.938 184.635 121.867 184.449 120.766 184.415C119.96 184.388 118.447 183.6 117.699 183.18C117.497 183.066 117.252 183.151 117.133 183.348C116.944 183.664 116.478 184.091 115.323 184.391C113.543 184.853 109.926 183.584 109.003 183.241C108.871 183.194 108.723 183.236 108.645 183.35C108.407 183.69 107.943 184.418 107.827 185.081C107.73 185.647 107.919 186.273 108.075 186.664C108.167 186.892 108.386 187.041 108.634 187.041L123.612 187.049C124.016 187.049 124.343 186.725 124.34 186.327C124.335 185.875 124.238 185.339 123.83 185.118H123.828Z" fill="#010101"/>
<path d="M81.6136 183.453C79.5906 182.508 80.6803 176.608 80.2461 174.734C78.2204 174.646 75.515 175.084 75.6931 176.162C76.7855 182.797 76.4537 182.516 75.1077 184.51C74.2824 185.734 74.2743 187.191 76.4132 186.995C78.6142 186.793 80.3243 186.883 81.9507 186.894C83.2751 186.902 85.7539 185.388 81.6136 183.453Z" fill="#FFC3BD"/>
<path d="M81.6604 183.358C80.3549 182.748 80.4088 179.848 80.4547 177.52C80.4763 176.346 80.4952 175.329 80.3522 174.711L80.3333 174.631H80.2524C78.5235 174.554 76.4304 174.849 75.7884 175.56C75.6185 175.749 75.5511 175.956 75.5888 176.179C76.5814 182.211 76.3926 182.482 75.3407 183.985C75.2409 184.128 75.133 184.28 75.0197 184.45C74.4802 185.249 74.34 186.027 74.6448 186.531C74.8147 186.81 75.195 187.118 76.0474 187.118C76.1633 187.118 76.2901 187.113 76.425 187.099C78.1674 186.94 79.5727 186.964 80.9321 186.988C81.2774 186.993 81.6145 186.998 81.9517 187.001H81.9625C82.6773 187.001 83.8047 186.568 83.9881 185.774C84.1149 185.227 83.8155 184.365 81.6604 183.358ZM83.7778 185.727C83.624 186.388 82.6206 186.789 81.9625 186.789H81.9517C81.6172 186.789 81.2801 186.781 80.9348 186.775C80.4466 186.767 79.953 186.759 79.4378 186.759C78.5154 186.759 77.5309 186.786 76.4034 186.89C75.605 186.961 75.0602 186.802 74.8309 186.422C74.5719 185.997 74.7149 185.286 75.1977 184.569C75.311 184.402 75.4189 184.248 75.516 184.107C76.6084 182.543 76.8053 182.262 75.7992 176.147C75.7722 175.988 75.8208 175.842 75.9476 175.701C76.5302 175.059 78.5369 174.78 80.158 174.835C80.2767 175.441 80.2578 176.45 80.2389 177.514C80.1931 179.904 80.1364 182.88 81.5687 183.549C83.1466 184.288 83.9315 185.06 83.7778 185.727Z" fill="#010101"/>
<path d="M102.118 117.081C101.122 116.353 97.7912 108.678 96.8175 107.916C94.6678 106.235 86.5274 106.28 83.9865 106.992C83.3527 139.575 104.631 172.123 108.532 179.887C110.172 180.24 113.166 179.329 114.897 178.817C113.635 174.638 108.575 142.636 108.575 142.636C108.575 142.636 103.774 123.498 102.118 117.078V117.081Z" fill="#010101"/>
<path d="M76.5948 104.783C73.0586 117.756 70.8253 164.443 74.6446 178.828C78.1646 179.125 78.2914 179.022 81.8086 179.319C82.1431 172.759 83.0224 162.019 86.599 150.947C86.7554 150.464 86.8768 149.967 86.9442 149.463C88.7002 136.644 92.1554 134.634 94.734 118.059C93.9302 117.132 87.9071 109.509 87.1303 108.553C85.4149 106.445 79.2327 104.645 76.5921 104.781L76.5948 104.783Z" fill="#010101"/>
<path d="M100.312 95.9092C100.248 95.1259 100.183 94.3506 100.113 93.5886C100.102 93.4665 100.097 93.3815 100.091 93.3391C100.059 93.0576 100.037 92.7629 100.01 92.4549V92.4178C99.8971 91.2203 99.7838 90.0813 99.6705 89.0325C99.6436 88.7564 99.6112 88.4882 99.5842 88.228C99.5842 88.2174 99.5788 88.2121 99.5788 88.2015C99.3199 85.9181 99.0556 84.1844 98.8209 83.4861C98.2194 81.7284 101.588 74.2438 92.431 72.8047C92.3933 72.7888 92.3609 72.7729 92.3285 72.7569C90.2732 71.756 88.5982 71.1055 88.5982 71.1055C88.5982 71.1055 86.8665 71.6232 84.7384 72.4569C84.4363 72.579 84.1261 72.7012 83.8078 72.8392C83.7215 72.8711 83.6298 72.9136 83.5381 72.9507C80.3337 74.2332 76.7086 75.566 76.6223 77.4723L74.5508 113.3C74.5508 113.3 81.6311 111.009 89.642 115.777C92.574 117.524 102.373 118.183 102.373 118.183C102.373 118.183 100.946 103.511 100.315 95.949C100.315 95.9384 100.315 95.9278 100.31 95.9118L100.312 95.9092Z" fill="#263238"/>
<path d="M91.3784 132.958C91.3056 132.935 91.2274 132.972 91.2004 133.043L88.9077 139.636C88.8835 139.708 88.9212 139.785 88.994 139.811C89.0102 139.816 89.0237 139.819 89.0399 139.819C89.0965 139.819 89.1505 139.785 89.1721 139.726L91.4647 133.134C91.489 133.062 91.4513 132.982 91.3784 132.958Z" fill="#FFC3BD"/>
<path d="M81.9609 183.471C81.7262 183.421 81.5051 183.325 81.3028 183.201C80.8307 182.906 80.205 182.858 79.6413 182.951C78.9588 183.065 78.3196 183.352 77.648 183.522C77.0546 183.67 76.3964 183.718 75.8435 183.482C75.7113 183.426 75.5576 183.437 75.4578 183.535C74.6 184.371 74.1253 185.577 74.1847 186.764C74.1981 187.016 74.4058 187.218 74.6621 187.218H84.1889C84.4289 187.218 84.6258 187.024 84.615 186.788C84.5854 186.031 84.3264 185.181 83.8517 184.648C83.3689 184.103 82.6838 183.628 81.9609 183.471Z" fill="#010101"/>
<path d="M98.5469 75.0755C97.2576 74.3692 90.9649 71.43 89.5164 72.1469C88.13 72.8319 91.7848 75.7684 90.9945 77.08C89.9372 78.835 89.6675 81.0839 90.4956 82.9531C91.1456 84.4213 92.389 85.5497 93.6675 86.5401C96.6777 88.8739 103.944 92.737 107.564 93.9716C108.991 91.1811 108.745 84.1664 107.407 82.8469C105.053 80.5237 101.463 76.6685 98.5469 75.0755Z" fill="#263238"/>
<path d="M78.2108 77.2883L71.0225 85.3412L70.1675 86.297L64.5302 74.2191V74.2138C64.5059 73.6827 64.2739 73.096 63.9529 72.5703C63.9395 72.5464 63.926 72.5251 63.9125 72.5012C63.8801 72.4481 63.8451 72.4003 63.8127 72.3499C63.7992 72.3313 63.7884 72.3101 63.7749 72.2941C63.7614 72.2782 63.748 72.2623 63.7372 72.2437C63.6401 72.1083 63.543 71.9808 63.4432 71.864C62.607 70.7834 61.7708 69.7028 60.9347 68.6195C60.8187 68.4682 60.6946 68.3115 60.5274 68.2186C60.3602 68.1257 60.1282 68.1097 59.9825 68.2345C59.8018 68.3885 59.8207 68.6646 59.8639 68.8956C59.961 69.4054 60.1039 69.9046 60.2846 70.3931C60.1039 70.3559 59.9205 70.3188 59.7425 70.2763C59.3999 70.1966 58.5557 69.7585 57.6386 69.4001C57.4444 69.1797 57.2502 68.962 57.0533 68.7443C56.9265 68.6009 56.7944 68.4522 56.619 68.3699C56.4437 68.2876 56.2144 68.2876 56.0769 68.423C55.9474 68.5505 55.9393 68.739 55.969 68.9222C55.88 68.9116 55.791 68.9036 55.7074 68.9009C55.5132 68.6806 55.319 68.4629 55.1221 68.2425C54.9953 68.0991 54.8631 67.9531 54.6878 67.8708C54.5125 67.7885 54.2832 67.7885 54.1456 67.9239C54.0431 68.0221 54.0216 68.1628 54.0297 68.3062C54.0162 68.2929 54.0027 68.277 53.9919 68.2637C53.8651 68.1204 53.733 67.9717 53.5576 67.892C53.3823 67.8097 53.153 67.8097 53.0155 67.9451C52.8456 68.1097 52.8833 68.3859 52.9427 68.6142C53.234 69.7346 53.7357 70.7993 54.41 71.7445C54.6177 72.0366 54.8065 72.249 55.0034 72.4189C55.4889 72.9579 56.8618 73.996 57.2044 74.3412C58.232 75.374 59.3001 76.1944 60.2981 76.6989C61.0399 81.3373 63.3946 93.856 67.5646 96.7447C67.6833 96.8297 67.8208 96.8961 67.9557 96.9438C69.0913 97.3421 70.7015 96.4951 72.4413 95.0295C77.2829 90.9673 83.1926 82.1763 83.1926 82.1763C84.6842 78.6743 79.1899 80.7824 78.2081 77.291L78.2108 77.2883Z" fill="#FFC3BD"/>
<path d="M81.4779 79.5773C80.2075 79.2427 78.7698 78.8657 78.3167 77.2594L78.2628 77.0709L78.1306 77.2195L70.1979 86.1034L64.6361 74.1875C64.6037 73.5502 64.299 72.9263 64.0454 72.5148C64.0346 72.4935 64.0211 72.4696 64.0049 72.4457C63.9807 72.4059 63.9564 72.3714 63.9321 72.3342L63.9024 72.2891L63.7946 72.3209L63.8863 72.2652C63.8863 72.2652 63.8701 72.2386 63.8593 72.228L63.8215 72.1776C63.7244 72.0395 63.6246 71.9121 63.5248 71.7926L61.0191 68.5534C60.9031 68.402 60.7682 68.2295 60.5767 68.1233C60.3501 67.9985 60.075 68.0091 59.9078 68.1525C59.6785 68.3463 59.7109 68.6808 59.754 68.9145C59.835 69.3499 59.9563 69.7906 60.1155 70.25C59.9941 70.2261 59.8781 70.1995 59.7621 70.173C59.5841 70.1305 59.2335 69.9765 58.8316 69.796C58.489 69.6446 58.1033 69.472 57.6987 69.3101L57.1323 68.6729C57.0109 68.5375 56.8626 68.3675 56.663 68.2746C56.431 68.1657 56.1559 68.1949 55.9994 68.3489C55.8888 68.4578 55.8376 68.6091 55.8457 68.8056C55.816 68.8056 55.7863 68.8003 55.7567 68.8003L55.2037 68.1764C55.077 68.033 54.9313 67.871 54.7344 67.7781C54.4997 67.6692 54.2273 67.6984 54.0709 67.8524C54.0115 67.9082 53.9711 67.9772 53.9468 68.0595C53.8497 67.9586 53.7391 67.8631 53.6015 67.7967C53.402 67.7064 53.1187 67.6931 52.938 67.871C52.7222 68.0808 52.7762 68.41 52.8382 68.641C53.1322 69.7747 53.6339 70.8394 54.3217 71.8085C54.5348 72.1059 54.729 72.3262 54.934 72.5015C55.2199 72.8174 55.816 73.3113 56.3447 73.7467C56.6926 74.0335 56.9947 74.283 57.1296 74.4184C58.1599 75.4539 59.22 76.269 60.2045 76.7708C61.0272 81.8925 63.3711 93.9678 67.5087 96.8352C67.622 96.9176 67.7596 96.9866 67.9241 97.0477C68.121 97.1167 68.3341 97.1512 68.566 97.1512C69.5829 97.1512 70.91 96.4688 72.5176 95.1148C77.316 91.0897 83.2311 82.3279 83.2878 82.2403C83.5899 81.534 83.6384 81.0057 83.4415 80.6127C83.1448 80.0207 82.3734 79.8189 81.4779 79.5852V79.5773ZM83.099 82.1341C83.0504 82.2031 77.1515 90.9383 72.3773 94.9475C70.4676 96.5538 68.9922 97.191 67.9969 96.8406C67.8513 96.7875 67.7326 96.7264 67.6328 96.6574C63.5464 93.827 61.2187 81.7438 60.4068 76.6806L60.3987 76.6275L60.3501 76.6036C59.3737 76.1124 58.3137 75.3052 57.2833 74.2671C57.1404 74.1237 56.8356 73.8742 56.4822 73.5821C55.9859 73.1732 55.3683 72.6634 55.0851 72.3501C54.8855 72.1802 54.702 71.9705 54.4997 71.6864C53.8254 70.7412 53.3372 69.6977 53.0486 68.5906C52.9758 68.3038 52.9893 68.1259 53.0918 68.025C53.1997 67.9188 53.3858 67.9321 53.5125 67.9932C53.669 68.0648 53.7931 68.2056 53.9117 68.341L54.1545 68.6198L54.1383 68.3091C54.1302 68.1684 54.1572 68.0728 54.2246 68.0091C54.3298 67.9082 54.5159 67.9162 54.6454 67.9772C54.8018 68.0516 54.9259 68.1896 55.0446 68.3224L55.6596 69.0154H55.7054C55.7863 69.0207 55.8727 69.026 55.959 69.0366L56.1019 69.0552L56.0803 68.9145C56.048 68.7207 56.075 68.5879 56.1559 68.5056C56.2611 68.4047 56.4472 68.4127 56.5766 68.4737C56.7358 68.5481 56.8626 68.6941 56.9758 68.8215L57.6016 69.5066C58.0116 69.6685 58.4027 69.8438 58.748 69.9977C59.1795 70.1916 59.5194 70.3429 59.719 70.3907C59.8943 70.4305 60.075 70.4677 60.2557 70.5049L60.4445 70.5447L60.3879 70.3668C60.1991 69.8517 60.0615 69.3658 59.9725 68.8879C59.9186 68.5985 59.9455 68.418 60.0534 68.325C60.164 68.2321 60.3501 68.2507 60.4742 68.3197C60.628 68.4047 60.7439 68.556 60.8491 68.6914L63.3576 71.9359C63.4574 72.0528 63.5518 72.1749 63.6489 72.313L63.6921 72.3661C63.7136 72.3979 63.719 72.4112 63.7271 72.4192L63.7541 72.459C63.7784 72.4935 63.8 72.5254 63.8215 72.5626C63.835 72.5838 63.8458 72.6024 63.8566 72.6263C64.2018 73.1891 64.3987 73.7547 64.4176 74.2246L64.4257 74.2618L70.1359 86.4964L71.0988 85.4184L78.1576 77.5089C78.6997 79.0808 80.1994 79.4711 81.4132 79.7897C82.2574 80.01 82.9884 80.2012 83.2392 80.7083C83.4065 81.0455 83.3579 81.5128 83.0882 82.1421L83.099 82.1341Z" fill="#010101"/>
<path d="M84.4045 70.6701C82.8185 70.3382 77.486 74.7483 76.4205 75.7519C74.0119 78.022 71.5304 82.6445 69.8473 85.4775C68.8924 87.0865 70.4569 93.9339 72.5553 96.281C75.7408 94.1835 81.7773 88.637 84.0889 85.6288C85.0707 84.3517 85.9824 82.9499 86.2359 81.3674C86.5569 79.3522 85.7181 77.2441 84.2453 75.8077C83.1422 74.7351 85.923 70.9834 84.4072 70.6675L84.4045 70.6701Z" fill="#263238"/>
<path d="M88.6035 71.1055C88.6035 71.1055 86.8718 71.6232 84.7437 72.4569C84.4416 72.579 84.1314 72.7012 83.8131 72.8392C83.7538 73.0569 87.94 75.2899 87.94 75.2899C87.94 75.2899 92.4984 73.0357 92.4363 72.8074C92.3986 72.7914 92.3662 72.7755 92.3338 72.7596C90.2785 71.7586 88.6035 71.1081 88.6035 71.1081V71.1055Z" fill="#BD695B"/>
<path d="M93.9563 68.6902C93.8807 68.361 93.7971 68.0185 93.5705 67.7663C93.2981 67.4583 92.8612 67.3361 92.4485 67.3441C92.0358 67.3521 91.4262 67.907 91.054 68.0796C87.4585 69.7576 84.5805 67.7716 83.8037 67.83C83.24 67.8698 82.8596 68.892 82.6385 69.3859C82.2932 70.1638 82.0828 71.0055 82.0963 71.8604C82.1206 73.3526 82.9244 74.8845 84.3 75.5164C85.333 75.989 86.5279 75.9174 87.6635 75.8112C89.4896 75.6386 91.3075 75.3996 93.112 75.0943C93.5786 75.0146 94.0668 74.9217 94.4202 74.6111C94.7573 74.311 94.9111 73.8517 94.93 73.4057C94.9488 72.9596 94.8464 72.5162 94.7466 72.0781C94.4849 70.9497 94.2206 69.8213 93.9589 68.6929L93.9563 68.6902Z" fill="#263238"/>
<path d="M93.1395 74.5077C89.8677 75.8671 86.0268 75.7317 82.8656 74.144C82.7981 74.1095 82.7145 74.136 82.6795 74.2051C82.6444 74.2714 82.6714 74.3564 82.7388 74.3909C84.4947 75.2724 86.4529 75.7158 88.4112 75.7158C90.0646 75.7158 91.718 75.3998 93.2501 74.7626C93.3202 74.7334 93.3526 74.6538 93.3229 74.5821C93.2932 74.513 93.2123 74.4785 93.1395 74.5104V74.5077Z" fill="#010101"/>
<path d="M91.2508 72.3986C89.0309 72.5605 86.7302 72.0773 84.7692 71.0392C84.7018 71.0047 84.6182 71.0286 84.5804 71.0949C84.5454 71.1613 84.5696 71.2436 84.6371 71.2808C86.3903 72.2101 88.4079 72.7039 90.4039 72.7039C90.6925 72.7039 90.9811 72.6933 91.2697 72.672C91.3452 72.6667 91.4045 72.6004 91.3992 72.526C91.3938 72.449 91.329 72.3986 91.2508 72.3986Z" fill="#010101"/>
<path d="M88.4517 65.6305C88.031 65.6252 87.6021 65.5588 87.1894 65.6411C87.157 66.0845 87.1759 66.6128 87.4564 66.9633C87.7262 67.2979 88.2063 67.4359 88.6271 67.335C89.0478 67.2341 89.3985 66.9129 89.5738 66.5226C89.7491 66.1323 89.7464 65.6862 89.6305 65.2773C89.3284 65.5667 88.8752 65.6358 88.4517 65.6305Z" fill="#010101"/>
<path d="M88.4513 65.6312C88.0305 65.6259 87.6017 65.5595 87.189 65.6418C87.1836 65.7002 87.1863 65.7639 87.1836 65.825C87.8606 66.4144 88.5376 66.1781 89.2147 66.117C89.506 66.0905 89.7271 65.8462 89.6894 65.5595C89.6759 65.4639 89.657 65.3683 89.63 65.2754C89.3279 65.5648 88.8748 65.6338 88.4513 65.6285V65.6312Z" fill="#FFC3BD"/>
<path d="M89.8896 64.9109C89.5767 65.2481 89.0858 65.4605 88.5059 65.5136C87.9664 65.564 87.4216 65.4791 86.8902 65.3968C86.8066 65.3835 86.7284 65.4392 86.7149 65.5242C86.7014 65.6065 86.758 65.6835 86.8443 65.6968C87.2786 65.7632 87.7236 65.8322 88.1741 65.8322C88.2955 65.8322 88.4142 65.8269 88.5355 65.8163C89.191 65.7552 89.7547 65.5083 90.1188 65.1153C90.1755 65.0543 90.1728 64.9587 90.1081 64.9029C90.046 64.8472 89.9489 64.8498 89.8923 64.9135L89.8896 64.9109Z" fill="#010101"/>
<path d="M88.4958 67.6368C88.0885 67.6687 87.6758 67.5147 87.3872 67.2333C87.3279 67.1749 87.2308 67.1749 87.1715 67.2333C87.1121 67.2917 87.1121 67.3873 87.1715 67.4483C87.4951 67.7616 87.9456 67.9422 88.3987 67.9422C88.4392 67.9422 88.4796 67.9422 88.5201 67.9369C88.6037 67.9315 88.6684 67.8572 88.663 67.7749C88.6576 67.6926 88.5821 67.6289 88.4985 67.6342L88.4958 67.6368Z" fill="#010101"/>
<path d="M36.7867 135.528C36.9242 136.93 38.1218 138 39.5541 138H43.2386C44.6735 138 45.8711 136.927 46.006 135.52L46.4564 130.812L36.3281 130.889L36.7867 135.528Z" fill="#B2CAF5"/>
<path d="M36.7867 135.528C36.9242 136.93 38.1218 138 39.5541 138H43.2386C44.6735 138 45.8711 136.927 46.006 135.52L46.4564 130.812L36.3281 130.889L36.7867 135.528Z" fill="white"/>
<path d="M36.6485 135.541C36.7942 137.019 38.043 138.137 39.5535 138.137H43.238C44.7512 138.137 46.0027 137.017 46.143 135.533L46.6069 130.674L36.1738 130.753L36.6459 135.541H36.6485ZM45.8678 135.506C45.7384 136.85 44.6082 137.864 43.238 137.864H39.5535C38.186 137.864 37.0558 136.855 36.9237 135.514L36.4813 131.024L46.3048 130.947L45.8678 135.506Z" fill="#010101"/>
<path d="M45.6176 116.516C43.4112 114.997 40.2689 115.023 38.0005 116.455C35.732 117.883 34.405 120.581 34.5075 123.23C34.61 125.877 36.0746 128.408 38.2459 129.98L45.0377 130.006C47.3519 128.684 48.59 125.612 48.6817 123.098C48.7761 120.583 47.7107 117.96 45.6149 116.518L45.6176 116.516Z" fill="#263238"/>
<path d="M45.695 116.403C43.4805 114.879 40.2843 114.853 37.9241 116.34C35.6557 117.771 34.2612 120.476 34.3691 123.235C34.4716 125.879 35.8877 128.441 38.1642 130.088L38.1993 130.114H38.2451L45.0746 130.141L45.107 130.122C47.5318 128.736 48.7321 125.513 48.8211 123.102C48.9209 120.367 47.7233 117.803 45.695 116.406V116.403ZM45.0018 129.865L38.291 129.838C36.1062 128.242 34.744 125.77 34.6442 123.222C34.5417 120.559 35.8877 117.943 38.0725 116.565C40.3382 115.137 43.4077 115.158 45.5359 116.624C47.4887 117.967 48.6404 120.444 48.5433 123.086C48.4597 125.415 47.3134 128.518 44.9991 129.862L45.0018 129.865Z" fill="#010101"/>
<path d="M41.9037 116.187C41.8579 116.554 41.8012 117.09 41.7392 117.749C41.6151 119.068 41.4803 120.897 41.3912 122.918C41.3022 124.938 41.2726 126.77 41.278 128.098C41.278 128.762 41.2887 129.295 41.3022 129.667C41.3157 130.039 41.3292 130.243 41.3427 130.243C41.3562 130.243 41.3724 130.039 41.3858 129.667C41.3993 129.256 41.4128 128.73 41.4317 128.101C41.4668 126.776 41.518 124.946 41.607 122.929C41.696 120.911 41.8093 119.084 41.8902 117.762C41.928 117.13 41.9604 116.607 41.9846 116.195C42.0062 115.826 42.0089 115.619 41.9927 115.619C41.9792 115.619 41.9469 115.821 41.901 116.187H41.9037Z" fill="#010101"/>
<path d="M48.8026 122.353C48.3522 122.388 47.9908 122.465 47.9962 122.526C48.0015 122.584 48.3711 122.603 48.8188 122.566C49.2693 122.531 49.6307 122.454 49.6253 122.393C49.6199 122.335 49.2504 122.316 48.8026 122.353Z" fill="#010101"/>
<path d="M48.4917 119.878C48.1249 120.04 47.8444 120.212 47.8687 120.268C47.8929 120.321 48.2112 120.236 48.578 120.074C48.9476 119.912 49.2254 119.74 49.2011 119.684C49.1768 119.631 48.8586 119.716 48.489 119.878H48.4917Z" fill="#010101"/>
<path d="M46.6899 118.593C46.7196 118.64 47.0783 118.476 47.4506 118.17C47.8228 117.868 48.0574 117.552 48.0143 117.515C47.9684 117.472 47.6744 117.714 47.313 118.006C46.9543 118.301 46.6576 118.542 46.6899 118.593Z" fill="#010101"/>
<path d="M45.6875 116.336C45.5311 116.687 45.4474 116.989 45.5041 117.013C45.558 117.037 45.7307 116.772 45.8871 116.424C46.0435 116.073 46.1272 115.771 46.0705 115.75C46.0166 115.726 45.8439 115.989 45.6875 116.339V116.336Z" fill="#010101"/>
<path d="M43.7979 115.184C43.6792 115.558 43.5875 115.869 43.6441 115.893C43.6981 115.916 43.8815 115.635 44.0056 115.247C44.1296 114.857 44.1377 114.522 44.0811 114.512C44.0218 114.504 43.9193 114.809 43.8006 115.184H43.7979Z" fill="#010101"/>
<path d="M40.5369 114.629C40.4802 114.648 40.5153 114.887 40.6151 115.163C40.7149 115.439 40.839 115.649 40.8983 115.627C40.9549 115.609 40.9199 115.367 40.8201 115.091C40.7203 114.815 40.5962 114.605 40.5396 114.626L40.5369 114.629Z" fill="#010101"/>
<path d="M38.2332 115.6C38.1928 115.642 38.3411 115.844 38.5623 116.046C38.7862 116.248 38.9992 116.378 39.0397 116.335C39.0802 116.293 38.9318 116.091 38.7106 115.889C38.4868 115.687 38.2737 115.557 38.2332 115.6Z" fill="#010101"/>
<path d="M36.7321 117.113C36.4759 116.943 36.2412 116.845 36.2089 116.893C36.1765 116.941 36.3545 117.121 36.6108 117.291C36.867 117.461 37.1017 117.559 37.134 117.512C37.1664 117.464 36.9884 117.286 36.7321 117.113Z" fill="#010101"/>
<path d="M35.4872 119C35.1123 118.843 34.7914 118.758 34.7671 118.814C34.7428 118.87 35.026 119.04 35.4009 119.196C35.7759 119.353 36.0968 119.438 36.1211 119.382C36.1427 119.329 35.8595 119.157 35.4872 119Z" fill="#010101"/>
<path d="M34.871 120.88C34.5069 120.835 34.2075 120.849 34.1994 120.907C34.1913 120.965 34.4799 121.048 34.844 121.093C35.2082 121.138 35.5076 121.125 35.5157 121.066C35.5237 121.008 35.2351 120.923 34.871 120.88Z" fill="#010101"/>
<path d="M34.5073 123.112C34.1513 123.266 33.8815 123.431 33.9058 123.487C33.9301 123.54 34.2376 123.46 34.5936 123.309C34.9497 123.155 35.2194 122.99 35.1951 122.934C35.1708 122.881 34.8633 122.961 34.5073 123.112Z" fill="#010101"/>
<path d="M34.1631 125.7C34.182 125.753 34.5704 125.663 34.9777 125.4C35.385 125.139 35.625 124.823 35.5846 124.786C35.5414 124.744 35.2447 124.975 34.859 125.222C34.476 125.471 34.1415 125.644 34.1631 125.7Z" fill="#010101"/>
<path d="M35.8208 127.124C35.5375 127.427 35.3002 127.671 35.3379 127.719C35.373 127.764 35.6832 127.584 35.9799 127.27C36.2793 126.955 36.4384 126.639 36.3872 126.607C36.3359 126.572 36.1067 126.824 35.8208 127.124Z" fill="#010101"/>
<path d="M47.282 128.256C46.8531 128.035 46.4836 127.9 46.4566 127.953C46.4297 128.006 46.7533 128.224 47.1822 128.444C47.6111 128.664 47.9833 128.8 48.0103 128.747C48.0373 128.694 47.7109 128.473 47.282 128.253V128.256Z" fill="#010101"/>
<path d="M48.1458 126.313C47.8006 126.159 47.4985 126.076 47.4742 126.129C47.4499 126.183 47.7116 126.352 48.0568 126.506C48.4021 126.66 48.7042 126.743 48.7285 126.69C48.7527 126.637 48.4911 126.469 48.1458 126.313Z" fill="#010101"/>
<path d="M48.215 124.518C48.2069 124.576 48.5279 124.669 48.9325 124.725C49.3371 124.781 49.6715 124.781 49.6796 124.722C49.6877 124.664 49.3667 124.571 48.9621 124.515C48.5575 124.457 48.2231 124.459 48.215 124.518Z" fill="#010101"/>
<path d="M45.7703 123.625C45.7514 123.681 46.067 123.824 46.4824 123.869C46.9004 123.917 47.2376 123.845 47.2322 123.787C47.2295 123.726 46.9031 123.699 46.5066 123.657C46.1101 123.614 45.7865 123.566 45.7676 123.625H45.7703Z" fill="#010101"/>
<path d="M43.7351 121.633C43.7189 121.689 43.9671 121.811 44.3042 121.843C44.6387 121.875 44.9084 121.8 44.903 121.744C44.8976 121.683 44.6387 121.662 44.3258 121.63C44.0129 121.601 43.754 121.575 43.7351 121.63V121.633Z" fill="#010101"/>
<path d="M43.8781 119.744C43.5652 119.85 43.3279 119.983 43.3468 120.039C43.3656 120.095 43.6354 120.052 43.9482 119.946C44.2611 119.84 44.4985 119.71 44.4796 119.654C44.4607 119.598 44.191 119.638 43.8781 119.747V119.744Z" fill="#010101"/>
<path d="M42.7731 118.01C42.6571 118.212 42.5573 118.381 42.6032 118.421C42.6436 118.461 42.8298 118.342 42.9619 118.116C43.0968 117.89 43.1076 117.673 43.0509 117.659C42.9916 117.643 42.8918 117.811 42.7731 118.01Z" fill="#010101"/>
<path d="M44.3634 125.213C44.3526 125.234 44.385 125.274 44.4497 125.322L44.4901 125.199C44.42 125.189 44.3742 125.191 44.3634 125.213Z" fill="#010101"/>
<path d="M44.45 125.326C44.388 125.278 44.3556 125.238 44.3637 125.217C44.3745 125.196 44.4203 125.193 44.4905 125.204C44.3987 125.153 44.2477 125.1 44.0724 125.058C43.7703 124.986 43.514 124.973 43.5006 125.029C43.4871 125.087 43.719 125.191 44.0211 125.265C44.1965 125.307 44.3556 125.329 44.4608 125.329L44.5039 125.204C44.5039 125.204 44.4959 125.204 44.4932 125.204L44.4527 125.326H44.45Z" fill="#010101"/>
<path d="M43.8237 128.034C43.4353 127.883 43.1008 127.806 43.0792 127.862C43.0576 127.918 43.357 128.085 43.7454 128.234C44.1365 128.385 44.4683 128.462 44.4899 128.409C44.5115 128.353 44.2148 128.188 43.8237 128.037V128.034Z" fill="#010101"/>
<path d="M45.8934 126.664C45.629 126.576 45.3998 126.55 45.3782 126.605C45.3593 126.661 45.5589 126.778 45.8232 126.866C46.0876 126.953 46.3168 126.98 46.3357 126.924C46.3546 126.868 46.155 126.751 45.8907 126.664H45.8934Z" fill="#010101"/>
<path d="M45.8888 120.525C45.5004 120.66 45.1875 120.785 45.2037 120.843C45.2172 120.899 45.5625 120.867 45.9617 120.726C46.3609 120.586 46.6522 120.397 46.6252 120.347C46.6009 120.294 46.2772 120.392 45.8888 120.525Z" fill="#010101"/>
<path d="M40.1937 120.451C39.9186 120.275 39.6704 120.169 39.6408 120.22C39.6057 120.267 39.8026 120.453 40.075 120.628C40.3475 120.806 40.5956 120.91 40.628 120.859C40.6603 120.809 40.4661 120.626 40.1937 120.448V120.451Z" fill="#010101"/>
<path d="M39.8422 123.052C39.5778 122.999 39.354 123.001 39.3405 123.06C39.327 123.118 39.532 123.208 39.7963 123.261C40.0606 123.314 40.2872 123.312 40.298 123.253C40.3088 123.195 40.1038 123.105 39.8395 123.049L39.8422 123.052Z" fill="#010101"/>
<path d="M39.5547 125.877C39.2149 126.031 38.9613 126.201 38.9883 126.254C39.0126 126.307 39.3093 126.225 39.6464 126.071C39.9863 125.917 40.2398 125.747 40.2129 125.694C40.1886 125.641 39.8919 125.723 39.5547 125.874V125.877Z" fill="#010101"/>
<path d="M39.9897 128.885C39.8008 129.113 39.6849 129.329 39.7307 129.366C39.7766 129.403 39.9681 129.249 40.1569 129.021C40.3457 128.792 40.4644 128.577 40.4158 128.543C40.37 128.505 40.1785 128.659 39.987 128.885H39.9897Z" fill="#010101"/>
<path d="M40.2894 118.243C40.0925 118.147 39.9226 118.078 39.8848 118.124C39.8497 118.169 39.9738 118.328 40.1923 118.434C40.4081 118.543 40.6131 118.546 40.6265 118.49C40.6427 118.432 40.4836 118.339 40.2894 118.243Z" fill="#010101"/>
<path d="M37.1572 120.99C37.1384 121.043 37.3892 121.181 37.7345 121.227C38.0797 121.274 38.3602 121.211 38.3548 121.152C38.3521 121.091 38.0851 121.059 37.7641 121.014C37.4432 120.972 37.1761 120.932 37.1572 120.99Z" fill="#010101"/>
<path d="M38.3498 118.554C38.0126 118.448 37.7294 118.366 37.7051 118.419C37.6781 118.472 37.929 118.647 38.285 118.756C38.6411 118.87 38.9486 118.87 38.9567 118.812C38.9674 118.753 38.6896 118.661 38.3498 118.554Z" fill="#010101"/>
<path d="M37.4715 124.769C36.9725 124.859 36.5625 124.917 36.5625 124.978C36.5625 125.034 36.9914 125.074 37.5092 124.978C38.0271 124.888 38.4128 124.705 38.3939 124.652C38.3751 124.593 37.9705 124.681 37.4715 124.769Z" fill="#010101"/>
<path d="M37.5761 128.714C37.6112 128.759 37.9268 128.576 38.2423 128.265C38.5579 127.954 38.7413 127.644 38.6955 127.609C38.6469 127.572 38.3934 127.816 38.0886 128.116C37.7838 128.416 37.5383 128.669 37.5761 128.716V128.714Z" fill="#010101"/>
<path d="M44.0384 116.753C43.499 116.222 42.9919 115.866 42.6196 115.662C42.4389 115.55 42.2825 115.492 42.1854 115.439C42.0856 115.394 42.0289 115.372 42.0262 115.378C41.9939 115.423 42.8894 115.781 43.9278 116.857C44.9636 117.908 46.0317 119.764 46.296 122.01C46.4228 123.125 46.3149 124.203 46.1531 125.167C45.9832 126.131 45.7593 126.986 45.5516 127.7C45.3439 128.414 45.1524 128.985 45.0256 129.381C44.8961 129.776 44.8287 129.997 44.8422 130.002C44.8557 130.007 44.9501 129.795 45.1038 129.407C45.2576 129.02 45.4707 128.454 45.6999 127.742C45.9265 127.031 46.1666 126.173 46.35 125.199C46.5226 124.227 46.6413 123.131 46.5118 121.984C46.2421 119.687 45.1254 117.797 44.0384 116.75V116.753Z" fill="#010101"/>
<path d="M42.0134 115.48C41.8974 115.501 41.7302 115.538 41.5225 115.61C41.1071 115.759 40.5191 116.029 39.9069 116.534C39.3135 117.057 38.7227 117.795 38.2534 118.722C37.8057 119.654 37.455 120.742 37.2959 121.921C36.956 124.284 37.4038 126.451 37.9486 127.895C38.07 128.264 38.2291 128.58 38.3451 128.864C38.4854 129.14 38.6014 129.379 38.7066 129.568C38.9277 129.942 39.0545 130.144 39.068 130.138C39.1138 130.115 38.5798 129.305 38.0943 127.845C37.5926 126.403 37.1772 124.268 37.5117 121.95C37.6681 120.795 38.008 119.723 38.4341 118.807C38.8792 117.904 39.451 117.163 40.0093 116.648C40.5866 116.144 41.1557 115.854 41.5522 115.687C41.9541 115.522 42.1941 115.482 42.1887 115.467C42.1887 115.459 42.1267 115.464 42.0134 115.48Z" fill="#010101"/>
<path d="M36.6203 129.637H46.2145C46.6703 129.637 47.0399 130 47.0399 130.449V131.179C47.0399 131.628 46.6703 131.992 46.2145 131.992H36.6203C36.1644 131.992 35.7949 131.628 35.7949 131.179V130.449C35.7949 130 36.1644 129.637 36.6203 129.637Z" fill="white"/>
<path d="M46.2153 129.5H36.6211C36.0898 129.5 35.6582 129.925 35.6582 130.448V131.178C35.6582 131.701 36.0898 132.126 36.6211 132.126H46.2153C46.7467 132.126 47.1783 131.701 47.1783 131.178V130.448C47.1783 129.925 46.7467 129.5 46.2153 129.5ZM46.9005 131.178C46.9005 131.55 46.593 131.855 46.2127 131.855H36.6184C36.2408 131.855 35.9333 131.552 35.9333 131.178V130.448C35.9333 130.073 36.2408 129.771 36.6184 129.771H46.2127C46.5903 129.771 46.9005 130.073 46.9005 130.448V131.178Z" fill="#010101"/>
</svg>
