<svg width="193" height="193" viewBox="0 0 193 193" fill="none" xmlns="http://www.w3.org/2000/svg">
<g clip-path="url(#clip0_497_10800)">
<path d="M195 155.951H-3V156.05H195V155.951Z" fill="#EBEBEB"/>
<path d="M169.525 162.322H162.045V162.421H169.525V162.322Z" fill="#EBEBEB"/>
<path d="M124.717 161.633H113.047V161.732H124.717V161.633Z" fill="#EBEBEB"/>
<path d="M161.65 158.648H142.994V158.747H161.65V158.648Z" fill="#EBEBEB"/>
<path d="M22.1176 159.312H17.7734V159.411H22.1176V159.312Z" fill="#EBEBEB"/>
<path d="M40.9123 159.312H25.6426V159.411H40.9123V159.312Z" fill="#EBEBEB"/>
<path d="M86.1602 160.984H64.7168V161.083H86.1602V160.984Z" fill="#EBEBEB"/>
<path d="M90.8517 130.934H14.3881C13.1407 130.932 12.1309 129.92 12.1309 128.673V21.1867C12.1416 19.9472 13.1486 18.9473 14.3881 18.9453H90.8517C92.1003 18.9453 93.1129 19.9579 93.1129 21.2065V128.673C93.1129 129.922 92.1003 130.934 90.8517 130.934ZM14.3881 19.0245C13.1953 19.0269 12.2299 19.9939 12.2299 21.1867V128.673C12.2299 129.866 13.1953 130.833 14.3881 130.835H90.8517C92.0449 130.833 93.0115 129.866 93.0139 128.673V21.1867C93.0115 19.9935 92.0449 19.0269 90.8517 19.0245H14.3881Z" fill="#EBEBEB"/>
<path d="M176.51 130.934H100.042C98.7946 130.932 97.7836 129.921 97.7812 128.673V21.1867C97.7943 19.9464 98.8021 18.9473 100.042 18.9453H176.51C177.748 18.9497 178.753 19.9488 178.763 21.1867V128.673C178.763 129.919 177.756 130.93 176.51 130.934ZM100.042 19.0245C98.8493 19.0269 97.8826 19.9935 97.8802 21.1867V128.673C97.8822 129.866 98.8493 130.833 100.042 130.835H176.51C177.703 130.833 178.67 129.866 178.672 128.673V21.1867C178.67 19.9935 177.703 19.0269 176.51 19.0245H100.042Z" fill="#EBEBEB"/>
<path d="M169.525 162.322H162.045V162.421H169.525V162.322Z" fill="#EBEBEB"/>
<path d="M124.717 161.633H113.047V161.732H124.717V161.633Z" fill="#EBEBEB"/>
<path d="M161.65 158.648H142.994V158.747H161.65V158.648Z" fill="#EBEBEB"/>
<path d="M22.1176 159.312H17.7734V159.411H22.1176V159.312Z" fill="#EBEBEB"/>
<path d="M40.9123 159.312H25.6426V159.411H40.9123V159.312Z" fill="#EBEBEB"/>
<path d="M86.1602 160.984H64.7168V161.083H86.1602V160.984Z" fill="#EBEBEB"/>
<path d="M163.324 156.511C164.796 156.511 165.99 155.318 165.99 153.846C165.99 152.373 164.796 151.18 163.324 151.18C161.852 151.18 160.658 152.373 160.658 153.846C160.658 155.318 161.852 156.511 163.324 156.511Z" fill="#E0E0E0"/>
<path d="M160.66 156.511C162.132 156.511 163.326 155.318 163.326 153.846C163.326 152.373 162.132 151.18 160.66 151.18C159.188 151.18 157.994 152.373 157.994 153.846C157.994 155.318 159.188 156.511 160.66 156.511Z" fill="#EBEBEB"/>
<path d="M127.562 156.511C129.035 156.511 130.228 155.318 130.228 153.846C130.228 152.373 129.035 151.18 127.562 151.18C126.09 151.18 124.896 152.373 124.896 153.846C124.896 155.318 126.09 156.511 127.562 156.511Z" fill="#E0E0E0"/>
<path d="M163.065 92.5664H118.129V151.717H163.065V92.5664Z" fill="#EBEBEB"/>
<path d="M165.988 92.5664H126.84V151.717H165.988V92.5664Z" fill="#F5F5F5"/>
<path d="M162.765 95.627H130.383V148.721H162.765V95.627Z" stroke="#E0E0E0" stroke-width="2" stroke-miterlimit="10"/>
<path d="M130.383 112.541H163.066" stroke="#E0E0E0" stroke-width="2" stroke-miterlimit="10"/>
<path d="M130.383 131.008H163.066" stroke="#E0E0E0" stroke-width="2" stroke-miterlimit="10"/>
<path d="M153.504 97.8496H141.477V99.2839H153.504V97.8496Z" fill="#FAFAFA"/>
<path d="M153.504 114.857H141.477V116.292H153.504V114.857Z" fill="#FAFAFA"/>
<path d="M153.504 133.914H141.477V135.348H153.504V133.914Z" fill="#FAFAFA"/>
<path d="M124.894 156.511C126.367 156.511 127.56 155.318 127.56 153.846C127.56 152.373 126.367 151.18 124.894 151.18C123.422 151.18 122.229 152.373 122.229 153.846C122.229 155.318 123.422 156.511 124.894 156.511Z" fill="#EBEBEB"/>
<path d="M117.409 34.9688H35.748V91.3128H117.409V34.9688Z" fill="#EBEBEB"/>
<path d="M119.002 34.9688H117.414V91.3128H119.002V34.9688Z" fill="#E0E0E0"/>
<path d="M115.754 40.6465H38.0117V88.5185H115.754V40.6465Z" fill="#F5F5F5"/>
<path d="M75.6841 88.5195H68.6448L48.3906 40.5742H55.4295L75.6841 88.5195Z" fill="#FAFAFA"/>
<path d="M91.4141 88.5195H78.6589L58.4043 40.5742H71.1634L91.4141 88.5195Z" fill="#FAFAFA"/>
<path d="M110.337 88.5367H103.298L83.0469 40.5918H90.0822L110.337 88.5367Z" fill="#FAFAFA"/>
<path opacity="0.3" d="M119.001 32.0879H35.748V55.6222H119.001V32.0879Z" fill="#E0E0E0" stroke="#F0F0F0" stroke-miterlimit="10"/>
<path d="M118.764 50.7129H35.748V51.4415H118.764V50.7129Z" fill="#FAFAFA"/>
<path d="M118.764 47.3398H35.748V48.0685H118.764V47.3398Z" fill="#FAFAFA"/>
<path d="M118.764 43.9688H35.748V44.6974H118.764V43.9688Z" fill="#FAFAFA"/>
<path d="M118.764 40.5957H35.748V41.3243H118.764V40.5957Z" fill="#FAFAFA"/>
<path d="M118.764 37.2246H35.748V37.9532H118.764V37.2246Z" fill="#FAFAFA"/>
<path d="M120.54 31.0762H34.7637V32.0662H120.54V31.0762Z" fill="#E0E0E0"/>
<path d="M35.3255 31.5706C35.3255 32.4552 34.8087 33.1724 34.1715 33.1724C33.5344 33.1724 33.0176 32.4552 33.0176 31.5706C33.0176 30.6859 33.5344 29.9688 34.1715 29.9688C34.8087 29.9688 35.3255 30.6859 35.3255 31.5706Z" fill="#E0E0E0"/>
<path d="M121.693 31.5706C121.693 32.4552 121.176 33.1724 120.539 33.1724C119.902 33.1724 119.385 32.4552 119.385 31.5706C119.385 30.6859 119.901 29.9688 120.539 29.9688C121.176 29.9691 121.693 30.6859 121.693 31.5706Z" fill="#E0E0E0"/>
<path d="M94.1589 177.135C129.028 177.135 157.294 174.926 157.294 172.202C157.294 169.478 129.028 167.27 94.1589 167.27C59.2902 167.27 31.0234 169.478 31.0234 172.202C31.0234 174.926 59.2902 177.135 94.1589 177.135Z" fill="#F5F5F5"/>
<path d="M154.176 61.9874L145.737 88.3154C145.314 89.6349 143.636 90.0258 142.673 89.029L138.288 84.4873C137.6 83.7749 136.471 83.7381 135.738 84.4034L99.0947 117.673C98.4183 118.287 97.3927 118.31 96.6906 117.725L73.4395 98.3742C72.7437 97.7953 71.7291 97.8107 71.052 98.4115L25.3496 138.914L27.0825 122.699C27.1312 122.245 27.3474 121.825 27.6892 121.522L70.8183 83.3025C71.4959 82.7021 72.5104 82.6863 73.2062 83.2657L96.3615 102.539C97.0636 103.123 98.0893 103.101 98.7656 102.487L127.689 76.2311C128.455 75.5361 128.494 74.3454 127.776 73.6013L123.441 69.111C122.452 68.0866 122.958 66.3743 124.346 66.0527L152.019 59.6427C153.403 59.3219 154.61 60.6331 154.176 61.9874Z" fill="#407BFF"/>
<path opacity="0.1" d="M154.163 62.0332L145.75 88.2749C145.321 89.6126 143.62 90.011 142.642 88.9988L138.306 84.5078C137.609 83.7862 136.461 83.7455 135.719 84.421L99.1133 117.657C98.7387 117.997 98.2639 118.158 97.7903 118.137C97.3931 118.128 96.9995 117.985 96.6716 117.712L73.4593 98.3887C73.1381 98.1238 72.7476 97.9817 72.3552 97.9658C71.8856 97.9417 71.408 98.0953 71.0341 98.4272L25.3496 138.915L27.1581 121.994L70.8013 83.3182C71.1878 82.9729 71.6836 82.8212 72.1707 82.8584C72.5473 82.8838 72.9187 83.0275 73.226 83.2837L83.0888 91.4928L96.3425 102.527C96.7013 102.825 97.1401 102.965 97.5764 102.952C98.0124 102.943 98.4429 102.781 98.7842 102.472L127.667 76.2496C128.445 75.5443 128.485 74.3361 127.755 73.5813L123.472 69.1481C122.468 68.1074 122.985 66.3698 124.392 66.0443L151.97 59.6532C153.377 59.3273 154.604 60.6598 154.163 62.0332Z" fill="black"/>
<path d="M106.417 160.771H72.6348V168.439H106.417V160.771Z" fill="#407BFF"/>
<path opacity="0.2" d="M76.912 160.771H75.998V168.439H76.912V160.771Z" fill="black"/>
<path opacity="0.2" d="M81.6093 160.771H80.6953V168.439H81.6093V160.771Z" fill="black"/>
<path opacity="0.2" d="M86.3085 168.439H85.3945V160.771L86.3085 160.907V168.439Z" fill="black"/>
<path opacity="0.2" d="M91.0077 160.771H90.0938V168.439H91.0077V160.771Z" fill="black"/>
<path opacity="0.2" d="M95.7089 160.771H94.7949V168.439H95.7089V160.771Z" fill="black"/>
<path opacity="0.2" d="M100.406 160.771H99.4922V168.439H100.406V160.771Z" fill="black"/>
<path opacity="0.2" d="M105.105 160.771H104.191V168.439H105.105V160.771Z" fill="black"/>
<path opacity="0.09" d="M106.417 160.771H72.6348V162.351H106.417V160.771Z" fill="black"/>
<path d="M111.684 153.104H77.9023V160.771H111.684V153.104Z" fill="#407BFF"/>
<path opacity="0.2" d="M82.1796 153.104H81.2656V160.771H82.1796V153.104Z" fill="black"/>
<path opacity="0.2" d="M86.8769 153.104H85.9629V160.771H86.8769V153.104Z" fill="black"/>
<path opacity="0.2" d="M91.5761 153.104H90.6621V160.771H91.5761V153.104Z" fill="black"/>
<path opacity="0.2" d="M96.2753 153.104H95.3613V160.771H96.2753V153.104Z" fill="black"/>
<path opacity="0.2" d="M100.975 153.104H100.061V160.771H100.975V153.104Z" fill="black"/>
<path opacity="0.2" d="M105.674 153.104H104.76V160.771H105.674V153.104Z" fill="black"/>
<path opacity="0.2" d="M110.373 153.104H109.459V160.771H110.373V153.104Z" fill="black"/>
<path opacity="0.09" d="M111.684 153.104H77.9023V154.683H111.684V153.104Z" fill="black"/>
<path d="M106.987 145.436H73.2051V153.103H106.987V145.436Z" fill="#407BFF"/>
<path opacity="0.2" d="M77.4823 145.436H76.5684V153.103H77.4823V145.436Z" fill="black"/>
<path opacity="0.2" d="M82.1796 153.103H81.2656V145.441L82.1796 145.436V153.103Z" fill="black"/>
<path opacity="0.2" d="M86.8788 145.436H85.9648V153.103H86.8788V145.436Z" fill="black"/>
<path opacity="0.2" d="M91.578 145.436H90.6641V153.103H91.578V145.436Z" fill="black"/>
<path opacity="0.2" d="M96.2772 153.103H95.3633V145.436L96.2772 145.441V153.103Z" fill="black"/>
<path opacity="0.2" d="M100.976 145.436H100.062V153.103H100.976V145.436Z" fill="black"/>
<path opacity="0.2" d="M105.676 145.436H104.762V153.103H105.676V145.436Z" fill="black"/>
<path opacity="0.09" d="M106.987 145.436H73.2051V147.323H106.987V145.436Z" fill="black"/>
<path d="M111.684 137.773H77.9023V145.441H111.684V137.773Z" fill="#407BFF"/>
<path opacity="0.2" d="M82.1796 137.773H81.2656V145.441H82.1796V137.773Z" fill="black"/>
<path opacity="0.2" d="M86.8769 137.773H85.9629V145.441H86.8769V137.773Z" fill="black"/>
<path opacity="0.2" d="M91.5761 137.773H90.6621V145.441H91.5761V137.773Z" fill="black"/>
<path opacity="0.2" d="M96.2753 137.773H95.3613V145.441H96.2753V137.773Z" fill="black"/>
<path opacity="0.2" d="M100.975 137.773H100.061V145.441H100.975V137.773Z" fill="black"/>
<path opacity="0.2" d="M105.674 145.435L104.76 145.441V137.773L105.674 137.909V145.435Z" fill="black"/>
<path opacity="0.2" d="M110.373 137.773H109.459V145.441H110.373V137.773Z" fill="black"/>
<path opacity="0.09" d="M111.684 137.773H77.9023V139.353H111.684V137.773Z" fill="black"/>
<path d="M113.167 130.105H79.3848V137.773H113.167V130.105Z" fill="#407BFF"/>
<path opacity="0.2" d="M83.662 130.105H82.748V137.773H83.662V130.105Z" fill="black"/>
<path opacity="0.2" d="M88.3593 130.105H87.4453V137.773H88.3593V130.105Z" fill="black"/>
<path opacity="0.2" d="M93.0585 130.105H92.1445V137.773H93.0585V130.105Z" fill="black"/>
<path opacity="0.2" d="M97.7577 130.105H96.8438V137.773H97.7577V130.105Z" fill="black"/>
<path opacity="0.2" d="M102.457 130.105H101.543V137.773H102.457V130.105Z" fill="black"/>
<path opacity="0.2" d="M107.156 130.105H106.242V137.773H107.156V130.105Z" fill="black"/>
<path opacity="0.2" d="M111.855 130.105H110.941V137.773H111.855V130.105Z" fill="black"/>
<path opacity="0.09" d="M113.167 130.105H79.3848V131.685H113.167V130.105Z" fill="black"/>
<path d="M109.147 122.439H75.3652V130.107H109.147V122.439Z" fill="#407BFF"/>
<path opacity="0.2" d="M79.6425 122.439H78.7285V130.107H79.6425V122.439Z" fill="black"/>
<path opacity="0.2" d="M84.3397 122.439H83.4258V130.107H84.3397V122.439Z" fill="black"/>
<path opacity="0.2" d="M89.039 122.439H88.125V130.107H89.039V122.439Z" fill="black"/>
<path opacity="0.2" d="M93.7382 122.439H92.8242V130.107H93.7382V122.439Z" fill="black"/>
<path opacity="0.2" d="M98.4374 122.439H97.5234V130.107H98.4374V122.439Z" fill="black"/>
<path opacity="0.2" d="M103.137 122.439H102.223V130.106H103.137V122.439Z" fill="black"/>
<path opacity="0.2" d="M107.836 122.439H106.922V130.107H107.836V122.439Z" fill="black"/>
<path opacity="0.09" d="M109.147 122.439H75.3652V124.019H109.147V122.439Z" fill="black"/>
<path d="M64.1785 160.887H30.3965V168.554H64.1785V160.887Z" fill="#407BFF"/>
<path opacity="0.2" d="M34.6737 160.887H33.7598V168.554H34.6737V160.887Z" fill="black"/>
<path opacity="0.2" d="M39.371 160.887H38.457V168.554H39.371V160.887Z" fill="black"/>
<path opacity="0.2" d="M44.0702 160.887H43.1562V168.554H44.0702V160.887Z" fill="black"/>
<path opacity="0.2" d="M48.7694 160.887H47.8555V168.554H48.7694V160.887Z" fill="black"/>
<path opacity="0.2" d="M53.4706 160.887H52.5566V168.554H53.4706V160.887Z" fill="black"/>
<path opacity="0.2" d="M58.1679 160.887H57.2539V168.554H58.1679V160.887Z" fill="black"/>
<path opacity="0.2" d="M62.8671 160.887H61.9531V168.554H62.8671V160.887Z" fill="black"/>
<path opacity="0.09" d="M64.1785 160.887H30.3965V162.466H64.1785V160.887Z" fill="black"/>
<path d="M65.7722 153.219H31.9902V160.887H65.7722V153.219Z" fill="#407BFF"/>
<path opacity="0.2" d="M36.2675 153.219H35.3535V160.887H36.2675V153.219Z" fill="black"/>
<path opacity="0.2" d="M40.9648 153.219H40.0508V160.887H40.9648V153.219Z" fill="black"/>
<path opacity="0.2" d="M45.664 153.219H44.75V160.887H45.664V153.219Z" fill="black"/>
<path opacity="0.2" d="M50.3651 153.219H49.4512V160.887H50.3651V153.219Z" fill="black"/>
<path opacity="0.2" d="M55.0644 153.219H54.1504V160.887H55.0644V153.219Z" fill="black"/>
<path opacity="0.2" d="M59.7616 153.219H58.8477V160.887H59.7616V153.219Z" fill="black"/>
<path opacity="0.2" d="M64.4608 153.219H63.5469V160.887H64.4608V153.219Z" fill="black"/>
<path opacity="0.09" d="M65.7722 153.219H31.9902V154.663H65.7722V153.219Z" fill="black"/>
<path d="M63.7019 145.551H29.9199V153.219H63.7019V145.551Z" fill="#407BFF"/>
<path opacity="0.2" d="M34.1972 145.551H33.2832V153.219H34.1972V145.551Z" fill="black"/>
<path opacity="0.2" d="M38.8944 145.551H37.9805V153.219H38.8944V145.551Z" fill="black"/>
<path opacity="0.2" d="M43.5937 145.551H42.6797V153.219H43.5937V145.551Z" fill="black"/>
<path opacity="0.2" d="M48.2929 145.551H47.3789V153.219H48.2929V145.551Z" fill="black"/>
<path opacity="0.2" d="M52.9921 145.551H52.0781V153.219H52.9921V145.551Z" fill="black"/>
<path opacity="0.2" d="M57.6913 145.551H56.7773V153.219H57.6913V145.551Z" fill="black"/>
<path opacity="0.2" d="M62.3905 145.551H61.4766V153.219H62.3905V145.551Z" fill="black"/>
<path opacity="0.09" d="M63.7019 145.551H29.9199V146.995H63.7019V145.551Z" fill="black"/>
<path d="M137.913 141.705H130.51V168.759H137.913V141.705Z" fill="#407BFF"/>
<g opacity="0.4">
<path d="M137.913 148.904V154.407L130.51 161.806V155.89L137.913 148.904Z" fill="white"/>
<path d="M137.913 144.881V145.817L130.51 153.219V152.288L137.913 144.881Z" fill="white"/>
</g>
<path d="M147.026 150.42H139.623V168.757H147.026V150.42Z" fill="#407BFF"/>
<g opacity="0.4">
<path d="M147.026 155.826V161.269L139.623 168.669V162.815L147.026 155.826Z" fill="white"/>
<path d="M147.026 153.26V154.306L139.623 161.71V160.659L147.026 153.26Z" fill="white"/>
</g>
<path d="M128.8 128.703H121.396V168.758H128.8V128.703Z" fill="#407BFF"/>
<g opacity="0.4">
<path d="M128.8 136.225V141.697L121.396 149.101V143.214L128.8 136.225Z" fill="white"/>
<path d="M128.8 133.215V134.239L121.396 141.646V140.618L128.8 133.215Z" fill="white"/>
</g>
<path d="M125.996 132.054C125.686 132.55 125.033 132.701 124.537 132.391C124.041 132.081 123.89 131.427 124.2 130.931C124.51 130.436 125.164 130.285 125.659 130.595C126.156 130.905 126.306 131.558 125.996 132.054Z" fill="#263238"/>
<path d="M135.109 144.915C134.799 145.411 134.146 145.562 133.65 145.252C133.154 144.942 133.003 144.288 133.314 143.793C133.624 143.297 134.277 143.146 134.773 143.456C135.269 143.766 135.419 144.42 135.109 144.915Z" fill="#263238"/>
<path d="M144.223 153.622C143.913 154.119 143.259 154.269 142.763 153.959C142.268 153.649 142.117 152.996 142.427 152.5C142.737 152.004 143.39 151.853 143.886 152.163C144.382 152.473 144.532 153.126 144.223 153.622Z" fill="#263238"/>
<path d="M143.324 153.06L133.934 161.806L134.211 144.354L125.098 149.99V131.492" stroke="#263238" stroke-miterlimit="10"/>
<path d="M58.5441 82.8541C58.5441 82.8541 56.022 86.5784 55.4319 86.9594C54.8419 87.3403 46.8787 85.8312 42.9718 83.8084L40.9486 81.2657L37.9065 80.1953L36.1582 83.6663L38.5702 85.2534C38.5702 85.2534 40.1162 87.0307 41.8444 86.5388C41.8444 86.5388 48.0687 90.6002 52.5201 91.6393C56.9716 92.678 58.0229 91.4734 59.3258 90.4157C60.629 89.358 64.0865 84.3212 64.0865 84.3212L58.5441 82.8541Z" fill="#B55B52"/>
<path d="M82.4824 67.1983C82.4824 67.1983 92.445 64.1566 95.8209 61.6321C95.8209 61.6321 100.941 55.3694 101.793 48.6789L100.639 45.1997L101.25 41.2227L105.043 42.0713C105.043 42.0713 107.039 46.2364 104.611 49.4998C104.611 49.4998 103.965 59.1939 99.8478 64.2461C95.731 69.2983 82.8962 72.6785 82.8962 72.6785L82.4824 67.1983Z" fill="#B55B52"/>
<path d="M86.0544 103.809L85.2411 74.4883L91.646 71.4446L87.5323 64.0996C87.5323 64.0996 82.5399 65.5644 78.2133 65.5644C72.4665 65.5644 66.6885 69.9374 63.5692 71.1567C60.4499 72.376 56.9766 83.0189 56.9766 83.0189L64.1984 86.8862L65.5547 82.9049C65.5547 82.9049 67.5003 97.6273 67.5062 104.084L86.0544 103.809Z" fill="#407BFF"/>
<path opacity="0.1" d="M86.0544 103.809L85.2411 74.4883L91.646 71.4446L87.5323 64.0996C87.5323 64.0996 82.5399 65.5644 78.2133 65.5644C72.4665 65.5644 66.6885 69.9374 63.5692 71.1567C60.4499 72.376 56.9766 83.0189 56.9766 83.0189L64.1984 86.8862L65.5547 82.9049C65.5547 82.9049 67.5003 97.6273 67.5062 104.084L86.0544 103.809Z" fill="white"/>
<path d="M71.4275 62.893C71.4275 62.893 66.4228 63.415 65.5195 59.4368C65.5195 59.4368 62.5313 58.2583 64.6539 55.3033C64.6539 55.3033 61.9068 51.2122 65.4158 49.9953C65.4158 49.9953 66.6513 46.3969 70.9039 45.3538C73.7417 44.658 72.9378 46.1822 72.9378 46.1822C72.9378 46.1822 78.8255 43.904 79.654 46.4412C80.4824 48.978 75.9145 50.1058 75.9145 50.1058L71.4275 62.893Z" fill="#263238"/>
<path d="M74.5573 62.1625C74.5573 62.1625 74.5704 62.4504 74.6456 62.8721C74.8484 64.0459 75.6645 65.953 77.6426 66.5799C77.6426 66.5799 77.9186 68.6937 74.6456 68.331C71.3723 67.9647 69.8192 67.3814 69.8192 67.3814C69.8192 67.3814 70.6627 63.8728 69.7245 59.6447C69.7245 59.6447 67.8804 59.9552 66.8373 58.9026C65.7911 57.8465 66.17 55.1814 69.4303 56.6921C69.4303 56.6921 70.1352 52.8082 67.8479 51.64C67.8479 51.64 72.3286 52.2866 75.916 50.1055C75.916 50.1055 79.008 54.0694 78.5732 57.8461C78.1379 61.6227 74.5573 62.1625 74.5573 62.1625Z" fill="#B55B52"/>
<path d="M75.3565 57.5846C75.3565 57.5846 74.1903 58.3442 72.8633 57.248" stroke="#263238" stroke-width="0.7223" stroke-miterlimit="10" stroke-linecap="round" stroke-linejoin="round"/>
<path d="M72.6146 54.3185C72.6859 54.6079 72.8879 54.8071 73.0657 54.7636C73.2435 54.7196 73.3302 54.4495 73.2589 54.1601C73.1876 53.8706 72.9857 53.6714 72.8079 53.715C72.6301 53.7589 72.5437 54.029 72.6146 54.3185Z" fill="#263238"/>
<path d="M75.7456 53.1603C75.8169 53.4497 76.0189 53.6489 76.1967 53.6054C76.3745 53.5614 76.4612 53.2913 76.3899 53.0019C76.3187 52.7124 76.1167 52.5132 75.9389 52.5568C75.7611 52.6007 75.6744 52.8708 75.7456 53.1603Z" fill="#263238"/>
<path d="M72.4272 52.2168C72.4272 52.2168 71.6214 52.3621 71.4277 53.3985" stroke="#263238" stroke-width="0.9631" stroke-miterlimit="10" stroke-linecap="round" stroke-linejoin="round"/>
<path d="M76.6531 51.2119C76.6531 51.2119 75.9518 50.6848 75.3301 51.1351" stroke="#263238" stroke-width="0.9631" stroke-miterlimit="10" stroke-linecap="round" stroke-linejoin="round"/>
<path d="M75.8362 56.1138L75.0977 53.6855L77.1727 55.4129C77.1727 55.4129 76.7957 56.2952 75.8362 56.1138Z" fill="#A02724"/>
<path opacity="0.19" d="M74.6462 62.8717C73.5148 63.006 72.9395 62.4433 72.9395 62.4433C73.5477 62.3811 74.5579 62.1621 74.5579 62.1621C74.5579 62.1621 74.571 62.45 74.6462 62.8717Z" fill="black"/>
<path d="M76.4032 68.3723L76.3858 72.1668L74.5242 72.3383C74.5242 72.3383 73.1021 70.9432 73.0107 70.2122C72.9192 69.4811 75.0572 67.5712 76.4032 68.3723Z" fill="#263238"/>
<path d="M76.1141 71.7793C76.1141 71.7793 78.9114 82.086 80.2519 87.2217L78.7249 90.2757L76.1517 87.7072L74.7617 71.9567L76.1141 71.7793Z" fill="#263238"/>
<path d="M88.9045 165.102L83.2346 165.994C83.2346 165.994 81.4851 144.328 81.0403 136.202C80.9651 134.799 80.8214 133.302 80.638 131.781V131.778C79.7617 124.486 77.963 116.687 77.963 116.687C77.963 116.687 77.3746 129.698 75.7526 139.675C74.1305 149.651 67.2572 164.209 67.2572 164.209L61.8652 161.724C66.0803 149.671 67.0449 134.659 67.4108 129.044C67.7771 123.433 67.3641 100.333 67.3641 100.333L85.9365 99.5234C87.7316 108.267 90.0644 128.253 90.3198 135.156C90.5721 142.062 88.9045 165.102 88.9045 165.102Z" fill="#263238"/>
<path d="M87.8986 166.76L88.198 171.313L84.8423 172.067L84.4902 166.975L87.8986 166.76Z" fill="#B55B52"/>
<path d="M89.8061 164.369L82.625 165.758L82.9766 167.987L89.6698 166.771L89.8061 164.369Z" fill="#407BFF"/>
<path d="M66.1026 164.839L64.1214 169.061L60.9336 167.828L63.0601 163.428L66.1026 164.839Z" fill="#B55B52"/>
<path d="M61.1347 167.888L64.8753 169.361C65.0373 169.425 65.1691 169.544 65.2499 169.698C65.5366 170.246 66.3136 171.596 67.2477 172.113C68.4326 172.768 69.0662 173.229 68.6377 173.909C68.2092 174.589 67.561 174.359 66.8957 174.183C66.3544 174.041 61.2424 171.899 59.3563 171.106C58.9915 170.952 58.8553 170.509 59.0672 170.176L60.3617 168.14C60.526 167.882 60.8504 167.776 61.1347 167.888Z" fill="#263238"/>
<path d="M84.7754 171.894L88.7203 171.119C88.8914 171.085 89.066 171.115 89.2173 171.201C89.7539 171.508 91.1359 172.227 92.2016 172.159C93.5523 172.072 94.3348 172.119 94.3403 172.922C94.3455 173.726 93.6759 173.882 93.0205 174.093C92.4875 174.264 87.027 175.214 85.011 175.562C84.6213 175.63 84.2673 175.33 84.2661 174.934L84.2598 172.522C84.259 172.216 84.4752 171.953 84.7754 171.894Z" fill="#263238"/>
<path d="M69.2726 163.294L61.5803 161.643L60.9023 163.873L67.8854 165.925L69.2726 163.294Z" fill="#407BFF"/>
<path opacity="0.61" d="M80.6381 131.832C79.7617 124.54 77.9631 116.742 77.9631 116.742L77.2012 107.033C77.2012 107.033 81.4946 123.818 80.6381 131.832Z" fill="black"/>
<path d="M70.0164 66.2148C70.0164 66.2148 72.2396 67.7961 74.6461 68.3315L73.4165 71.92C73.4165 71.92 70.433 70.5518 68.9199 69.312L70.0164 66.2148Z" fill="white"/>
<path d="M74.6445 68.3317L76.6515 71.4447C76.6515 71.4447 78.1483 69.4559 78.6136 67.2075L76.3552 65.5645C76.3552 65.5645 75.3985 67.6403 74.6445 68.3317Z" fill="white"/>
</g>
<defs>
<clipPath id="clip0_497_10800">
<rect width="193" height="193" fill="white"/>
</clipPath>
</defs>
</svg>
