<svg width="193" height="193" viewBox="0 0 193 193" fill="none" xmlns="http://www.w3.org/2000/svg">
<path d="M62.4873 18.8057H17.6152V93.0821H62.4873V18.8057Z" fill="#E0E0E0"/>
<path d="M60.9951 18.8057H16.123V93.0821H60.9951V18.8057Z" fill="#EBEBEB"/>
<path d="M59.0859 20.3115H18.0352V91.5755H59.0859V20.3115Z" fill="#FAFAFA"/>
<path d="M51.0902 29.5723H25.8477V82.3155H51.0902V29.5723Z" fill="#EBEBEB"/>
<path d="M25.8482 63.6514C25.7897 58.7246 30.2197 53.9144 35.099 53.2267C37.4255 52.8988 39.8974 53.3602 42.0711 52.4689C45.9513 50.8777 47.186 45.7224 51.0908 44.1934L51.2689 82.3156H25.8482V63.6514Z" fill="#E0E0E0"/>
<path d="M161.07 39.4762L157.387 39.4961L157.486 57.8221L161.169 57.8022L161.07 39.4762Z" fill="#E0E0E0"/>
<path d="M135.018 39.5373L125.48 39.5879L125.534 49.7049L135.072 49.6544L135.018 39.5373Z" fill="#EBEBEB"/>
<path d="M144.514 39.4739L134.977 39.5254L135.031 49.6424L144.569 49.5909L144.514 39.4739Z" fill="#F5F5F5"/>
<path d="M125.494 42.3761C131.832 42.4284 138.186 42.3916 144.524 42.2885C144.654 42.2867 144.653 42.0865 144.523 42.0858C138.185 42.0508 131.831 42.0817 125.494 42.2021C125.382 42.2046 125.383 42.375 125.494 42.3761Z" fill="#E0E0E0"/>
<path d="M136.861 49.4748L119.533 49.5684L119.578 57.813L136.905 57.7195L136.861 49.4748Z" fill="#EBEBEB"/>
<path d="M154.109 49.381L136.781 49.4746L136.826 57.7193L154.153 57.6257L154.109 49.381Z" fill="#F5F5F5"/>
<path d="M119.543 51.8642C131.054 51.9945 142.606 51.8778 154.116 51.6935C154.247 51.6913 154.246 51.4914 154.115 51.4907C142.604 51.43 131.051 51.4366 119.543 51.6902C119.431 51.6931 119.431 51.8631 119.543 51.8642Z" fill="#E0E0E0"/>
<path d="M180.197 57.8164H113.064V60.77H180.197V57.8164Z" fill="#E0E0E0"/>
<path d="M126.78 59.2363H124.055V69.3151H126.78V59.2363Z" fill="#E0E0E0"/>
<path d="M167.464 59.2363H164.738V69.3151H167.464V59.2363Z" fill="#E0E0E0"/>
<path d="M164.663 32.6422L160.98 32.6621L161.117 57.8664L164.8 57.8465L164.663 32.6422Z" fill="#EBEBEB"/>
<path d="M170.418 37.3363L164.695 37.3672L164.806 57.7927L170.528 57.7618L170.418 37.3363Z" fill="#F5F5F5"/>
<path d="M170.377 41.2748C170.377 41.3296 169.096 41.3738 167.516 41.3738C165.935 41.3738 164.654 41.3292 164.654 41.2748C164.654 41.2199 165.935 41.1758 167.516 41.1758C169.096 41.1754 170.377 41.2199 170.377 41.2748Z" fill="#E0E0E0"/>
<path d="M170.377 40.4174C170.377 40.4722 169.096 40.5163 167.516 40.5163C165.935 40.5163 164.654 40.4718 164.654 40.4174C164.654 40.3625 165.935 40.3184 167.516 40.3184C169.096 40.3184 170.377 40.3625 170.377 40.4174Z" fill="#E0E0E0"/>
<path d="M170.377 54.6931C170.377 54.7479 169.096 54.7921 167.516 54.7921C165.935 54.7921 164.654 54.7476 164.654 54.6931C164.654 54.6386 165.935 54.5938 167.516 54.5938C169.096 54.5941 170.377 54.6383 170.377 54.6931Z" fill="#E0E0E0"/>
<path d="M170.377 53.8353C170.377 53.8902 169.096 53.9343 167.516 53.9343C165.935 53.9343 164.654 53.8902 164.654 53.8353C164.654 53.7805 165.935 53.7363 167.516 53.7363C169.096 53.7363 170.377 53.7809 170.377 53.8353Z" fill="#E0E0E0"/>
<path d="M167.607 51.9626C167.552 51.9626 167.508 49.9018 167.508 47.3604C167.508 44.8182 167.552 42.7578 167.607 42.7578C167.662 42.7578 167.706 44.8182 167.706 47.3604C167.707 49.9018 167.662 51.9626 167.607 51.9626Z" fill="#E0E0E0"/>
<path d="M176.669 42.3574H170.439V57.7744H176.669V42.3574Z" fill="#EBEBEB"/>
<path d="M163.824 36.9529C163.824 37.5377 163.35 38.0113 162.765 38.0113C162.181 38.0113 161.707 37.5373 161.707 36.9529C161.707 36.3685 162.181 35.8945 162.765 35.8945C163.35 35.8942 163.824 36.3681 163.824 36.9529Z" fill="#E0E0E0"/>
<path d="M163.092 39.8633H162.438V54.8571H163.092V39.8633Z" fill="#E0E0E0"/>
<path d="M68.9543 156.836C68.9543 156.836 65.5805 159.406 68.813 162.803C68.8682 162.861 68.9466 162.894 69.0268 162.893L98.5051 162.721C98.5051 162.721 101.023 159.898 98.9338 156.645L68.9543 156.836Z" fill="#EBEBEB"/>
<path d="M91.9904 159.519C91.9904 159.551 88.3196 159.578 83.7924 159.578C79.2638 159.578 75.5938 159.552 75.5938 159.519C75.5938 159.486 79.2638 159.459 83.7924 159.459C88.3196 159.459 91.9904 159.486 91.9904 159.519Z" fill="#E0E0E0"/>
<path d="M87.4058 160.585C87.4058 160.618 85.6798 160.645 83.5517 160.645C81.4224 160.645 79.6973 160.618 79.6973 160.585C79.6973 160.552 81.4228 160.525 83.5517 160.525C85.6798 160.525 87.4058 160.552 87.4058 160.585Z" fill="#E0E0E0"/>
<path d="M95.0037 162.626C94.9846 162.621 95.0685 162.288 95.1597 161.742C95.2517 161.196 95.3371 160.435 95.3298 159.591C95.3209 158.747 95.2212 157.987 95.1189 157.444C95.0173 156.9 94.9268 156.568 94.9459 156.563C94.9537 156.56 94.9838 156.641 95.0317 156.789C95.0806 156.937 95.1395 157.155 95.2013 157.427C95.3257 157.97 95.4398 158.737 95.4486 159.59C95.4556 160.443 95.3563 161.211 95.2422 161.757C95.1855 162.03 95.131 162.249 95.0847 162.398C95.0401 162.547 95.0114 162.629 95.0037 162.626Z" fill="#E0E0E0"/>
<path d="M97.2048 156.608C97.2121 156.604 97.2581 156.68 97.3362 156.822C97.3763 156.892 97.4223 156.98 97.4672 157.086C97.5132 157.191 97.5713 157.309 97.6177 157.446C97.7229 157.716 97.8197 158.049 97.8981 158.424C97.9702 158.801 98.0206 159.221 98.0265 159.665C98.0276 160.108 97.9842 160.53 97.9183 160.907C97.8458 161.284 97.7546 161.618 97.6537 161.89C97.6096 162.028 97.5533 162.147 97.5091 162.253C97.4661 162.359 97.4212 162.448 97.3825 162.519C97.3071 162.662 97.2622 162.739 97.2548 162.735C97.2342 162.725 97.3987 162.408 97.5742 161.863C97.664 161.591 97.7454 161.26 97.8109 160.888C97.8701 160.516 97.9095 160.102 97.908 159.666C97.9021 159.23 97.8561 158.817 97.791 158.445C97.7196 158.074 97.6328 157.745 97.5389 157.474C97.3542 156.933 97.1845 156.618 97.2048 156.608Z" fill="#E0E0E0"/>
<path d="M73.6059 162.667C73.5989 162.671 73.5503 162.601 73.4686 162.469C73.4263 162.404 73.3781 162.323 73.331 162.224C73.2828 162.125 73.2217 162.015 73.1735 161.885C73.0634 161.63 72.9644 161.313 72.8861 160.955C72.815 160.595 72.7687 160.192 72.7716 159.767C72.7801 159.343 72.8368 158.941 72.9177 158.583C73.0057 158.226 73.1131 157.912 73.2301 157.661C73.2817 157.532 73.3457 157.424 73.3965 157.326C73.4462 157.228 73.4969 157.148 73.5407 157.084C73.6261 156.955 73.6765 156.886 73.6831 156.891C73.7034 156.903 73.5135 157.188 73.3074 157.694C73.2022 157.946 73.105 158.257 73.0244 158.607C72.9512 158.96 72.8986 159.353 72.8905 159.769C72.8875 160.184 72.9295 160.579 72.9931 160.933C73.0642 161.286 73.1529 161.599 73.2515 161.853C73.4443 162.365 73.6261 162.655 73.6059 162.667Z" fill="#E0E0E0"/>
<path d="M70.4218 163.385C70.4148 163.389 70.3615 163.31 70.2702 163.161C70.2235 163.088 70.1694 162.996 70.116 162.884C70.0615 162.774 69.9931 162.65 69.9379 162.504C69.8128 162.219 69.6965 161.865 69.6004 161.464C69.5117 161.061 69.4477 160.611 69.4345 160.134C69.4267 159.657 69.4709 159.204 69.5416 158.798C69.6196 158.393 69.72 158.034 69.8326 157.743C69.8816 157.595 69.9445 157.469 69.9938 157.355C70.042 157.241 70.0921 157.147 70.1355 157.072C70.2198 156.92 70.2698 156.838 70.2768 156.842C70.2982 156.853 70.1094 157.188 69.9118 157.771C69.8106 158.061 69.7204 158.417 69.6494 158.817C69.5857 159.217 69.546 159.663 69.5533 160.131C69.5666 160.6 69.6262 161.043 69.7075 161.44C69.7962 161.836 69.9022 162.187 70.0159 162.473C70.2393 163.046 70.4424 163.372 70.4218 163.385Z" fill="#E0E0E0"/>
<path d="M97.4254 171.699C97.4254 171.923 97.4254 177.34 97.4254 177.34H86.5098V171.699H97.4254Z" fill="#EBEBEB"/>
<path d="M62.1702 174.572C62.172 174.621 62.1742 174.671 62.1768 174.721C62.2655 176.428 63.7147 177.748 65.424 177.748H97.9328V177.34H90.2154C88.6577 177.34 87.3947 176.077 87.3947 174.519C87.3947 172.962 88.6577 171.699 90.2154 171.699H97.9328V171.1L65.4144 171.21C63.5789 171.216 62.1032 172.737 62.1702 174.572Z" fill="#E0E0E0"/>
<path d="M97.4235 174.595C97.4235 174.628 95.1791 174.654 92.4113 174.654C89.6425 174.654 87.3984 174.628 87.3984 174.595C87.3984 174.562 89.6425 174.535 92.4113 174.535C95.1791 174.536 97.4235 174.562 97.4235 174.595Z" fill="#E0E0E0"/>
<path d="M97.2652 175.866C97.2652 175.899 95.1415 175.926 92.5224 175.926C89.9023 175.926 87.7793 175.899 87.7793 175.866C87.7793 175.833 89.9027 175.807 92.5224 175.807C95.1415 175.807 97.2652 175.833 97.2652 175.866Z" fill="#E0E0E0"/>
<path d="M97.4253 177.028C97.4253 177.061 95.5157 177.088 93.1612 177.088C90.8057 177.088 88.8965 177.061 88.8965 177.028C88.8965 176.996 90.8053 176.969 93.1612 176.969C95.5157 176.969 97.4253 176.996 97.4253 177.028Z" fill="#E0E0E0"/>
<path d="M97.4236 173.452C97.4236 173.485 95.2252 173.512 92.5137 173.512C89.8016 173.512 87.6035 173.485 87.6035 173.452C87.6035 173.419 89.8016 173.393 92.5137 173.393C95.2252 173.393 97.4236 173.419 97.4236 173.452Z" fill="#E0E0E0"/>
<path d="M97.2658 172.31C97.2658 172.342 95.3091 172.369 92.8958 172.369C90.4817 172.369 88.5254 172.342 88.5254 172.31C88.5254 172.277 90.4817 172.25 92.8958 172.25C95.3087 172.25 97.2658 172.277 97.2658 172.31Z" fill="#E0E0E0"/>
<path d="M66.1083 171.303C66.1264 171.321 65.7908 171.576 65.4176 172.124C65.0452 172.664 64.6654 173.539 64.6757 174.55C64.689 175.562 65.0897 176.428 65.4746 176.958C65.8607 177.498 66.2022 177.745 66.1845 177.763C66.1805 177.768 66.0933 177.711 65.9501 177.59C65.8062 177.47 65.6119 177.276 65.4069 177.009C64.997 176.481 64.5705 175.595 64.5569 174.552C64.5458 173.509 64.9514 172.614 65.3484 172.077C65.5468 171.804 65.7367 171.606 65.8776 171.482C66.0186 171.357 66.1043 171.298 66.1083 171.303Z" fill="#F5F5F5"/>
<path d="M65.0087 171.184C65.0268 171.202 64.6912 171.457 64.318 172.005C63.9456 172.545 63.5654 173.42 63.5761 174.431C63.5894 175.443 63.9901 176.309 64.375 176.839C64.7611 177.379 65.1026 177.625 65.0849 177.644C65.0809 177.649 64.9936 177.592 64.8505 177.471C64.7066 177.35 64.5123 177.157 64.3073 176.889C63.8974 176.362 63.4709 175.476 63.4573 174.433C63.4462 173.39 63.8517 172.495 64.2492 171.957C64.4475 171.685 64.6374 171.487 64.7784 171.363C64.9189 171.238 65.0047 171.179 65.0087 171.184Z" fill="#F5F5F5"/>
<path d="M87.0989 171.303C87.117 171.321 86.7814 171.576 86.4082 172.124C86.0358 172.664 85.6557 173.539 85.6663 174.55C85.6796 175.562 86.0803 176.428 86.4653 176.958C86.8513 177.498 87.1928 177.745 87.1751 177.763C87.1711 177.768 87.0839 177.711 86.9403 177.59C86.7965 177.47 86.6022 177.276 86.3972 177.009C85.9872 176.481 85.5607 175.595 85.5471 174.552C85.5361 173.509 85.9412 172.614 86.3387 172.077C86.537 171.804 86.7269 171.606 86.8678 171.482C87.0088 171.357 87.0945 171.298 87.0989 171.303Z" fill="#F5F5F5"/>
<path d="M85.9993 171.184C86.0174 171.202 85.6818 171.457 85.3086 172.005C84.9362 172.545 84.556 173.42 84.5667 174.431C84.58 175.443 84.9807 176.309 85.3656 176.839C85.7517 177.379 86.0932 177.625 86.0755 177.644C86.0715 177.649 85.9843 177.592 85.8407 177.471C85.6968 177.35 85.5025 177.157 85.2976 176.889C84.8876 176.362 84.4611 175.476 84.4475 174.433C84.4364 173.39 84.842 172.495 85.2394 171.957C85.4378 171.685 85.6277 171.487 85.7686 171.363C85.9092 171.238 85.9949 171.179 85.9993 171.184Z" fill="#F5F5F5"/>
<path d="M69.8083 175.365C69.798 174.6 69.7877 173.836 69.7774 173.071C69.7748 172.871 69.7711 172.666 69.6968 172.48C69.6225 172.295 69.4605 172.13 69.2615 172.113C68.974 171.986 68.5266 172.225 68.3256 172.556C68.1251 172.887 68.103 173.293 68.1 173.68C68.0956 174.285 68.1251 174.89 68.188 175.492C68.2178 175.778 68.2583 176.072 68.4014 176.321C68.5446 176.571 68.8147 176.768 69.1014 176.742C69.3855 176.716 69.614 176.477 69.7141 176.21C69.8146 175.943 69.812 175.65 69.8083 175.365Z" fill="#F5F5F5"/>
<path d="M82.4351 174.704C82.4351 174.737 80.085 174.764 77.1866 174.764C74.2872 174.764 71.9375 174.737 71.9375 174.704C71.9375 174.671 74.2872 174.645 77.1866 174.645C80.085 174.645 82.4351 174.671 82.4351 174.704Z" fill="#F5F5F5"/>
<path d="M67.6303 171.079L67.5703 165.732H70.4808L70.5813 171.079H67.6303Z" fill="#F5F5F5"/>
<path d="M70.3087 166.685C70.3087 166.717 69.703 166.744 68.9563 166.744C68.2092 166.744 67.6035 166.718 67.6035 166.685C67.6035 166.652 68.2089 166.625 68.9563 166.625C69.703 166.625 70.3087 166.652 70.3087 166.685Z" fill="#E0E0E0"/>
<path d="M70.3087 167.509C70.3087 167.542 69.703 167.568 68.9563 167.568C68.2092 167.568 67.6035 167.542 67.6035 167.509C67.6035 167.476 68.2089 167.449 68.9563 167.449C69.703 167.449 70.3087 167.476 70.3087 167.509Z" fill="#E0E0E0"/>
<path d="M70.3087 168.335C70.3087 168.368 69.703 168.395 68.9563 168.395C68.2092 168.395 67.6035 168.368 67.6035 168.335C67.6035 168.302 68.2089 168.275 68.9563 168.275C69.703 168.275 70.3087 168.302 70.3087 168.335Z" fill="#E0E0E0"/>
<path d="M70.3087 169.159C70.3087 169.192 69.703 169.219 68.9563 169.219C68.2092 169.219 67.6035 169.192 67.6035 169.159C67.6035 169.126 68.2089 169.1 68.9563 169.1C69.703 169.1 70.3087 169.126 70.3087 169.159Z" fill="#E0E0E0"/>
<path d="M70.3087 169.985C70.3087 170.018 69.703 170.045 68.9563 170.045C68.2092 170.045 67.6035 170.019 67.6035 169.985C67.6035 169.953 68.2089 169.926 68.9563 169.926C69.703 169.926 70.3087 169.952 70.3087 169.985Z" fill="#E0E0E0"/>
<path d="M67.416 165.59H99.6753C100.073 167.361 100.018 169.309 99.6753 171.369H67.5536V170.976H69.5166C70.0284 170.976 70.4436 170.561 70.4436 170.049V166.851C70.4436 166.339 70.0284 165.924 69.5166 165.924H67.416V165.59Z" fill="#EBEBEB"/>
<path d="M75.0434 168.484H75.5818C75.6021 168.484 75.6216 168.488 75.64 168.498C75.6782 168.52 75.6977 168.554 75.6977 168.599C75.6977 168.612 75.6963 168.624 75.6937 168.634C75.683 168.679 75.6709 168.725 75.6573 168.771C75.5822 169.017 75.4696 169.221 75.3202 169.381C75.1719 169.539 75.0188 169.618 74.8613 169.618C74.8399 169.618 74.8182 169.617 74.7965 169.614C74.6497 169.591 74.5279 169.503 74.4303 169.349C74.3233 169.176 74.2695 168.96 74.2695 168.701C74.2695 168.548 74.2909 168.394 74.3332 168.239C74.4016 167.988 74.5084 167.78 74.653 167.615C74.8042 167.444 74.9658 167.357 75.138 167.357C75.2105 167.357 75.2782 167.373 75.3419 167.404C75.481 167.472 75.5859 167.603 75.6562 167.797C75.665 167.814 75.669 167.832 75.669 167.851C75.669 167.871 75.6639 167.89 75.6532 167.908C75.63 167.947 75.5965 167.966 75.5535 167.966C75.5417 167.966 75.5299 167.964 75.5174 167.96C75.4799 167.947 75.4552 167.923 75.4435 167.888L75.4376 167.877C75.4203 167.83 75.3986 167.788 75.3728 167.75C75.3021 167.647 75.2164 167.597 75.1152 167.597C75.0563 167.597 74.9967 167.618 74.9375 167.662C74.8245 167.743 74.7266 167.883 74.6438 168.084C74.5588 168.291 74.5165 168.493 74.5165 168.691C74.5165 168.882 74.5474 169.041 74.6092 169.168C74.6776 169.309 74.7711 169.379 74.89 169.379C74.9698 169.378 75.0567 169.326 75.1502 169.222C75.2653 169.094 75.357 168.927 75.4265 168.723C75.1789 168.723 75.0501 168.721 75.0405 168.718C74.9566 168.705 74.9135 168.661 74.9117 168.588C74.9135 168.574 74.9176 168.56 74.9231 168.549C74.9433 168.505 74.9835 168.484 75.0434 168.484Z" fill="#FAFAFA"/>
<path d="M76.875 167.433C76.8798 167.444 76.8846 167.457 76.8894 167.472C76.9122 167.551 77.0388 168.218 77.2691 169.471C77.2728 169.481 77.2747 169.49 77.2747 169.5C77.2747 169.52 77.2695 169.54 77.2588 169.559C77.2356 169.598 77.204 169.618 77.1624 169.618C77.1569 169.618 77.1506 169.618 77.144 169.617C77.098 169.609 77.0682 169.583 77.055 169.537L76.9265 168.873H76.2638L75.9451 169.539C75.9425 169.547 75.9388 169.554 75.9344 169.561C75.9039 169.599 75.8707 169.618 75.8347 169.618C75.8122 169.618 75.7912 169.612 75.7717 169.599C75.7364 169.575 75.7188 169.543 75.7188 169.502C75.7188 169.491 75.7213 169.479 75.7261 169.467C75.746 169.421 75.7791 169.348 75.8247 169.248C76.2884 168.236 76.5659 167.638 76.6564 167.456C76.6825 167.403 76.7197 167.376 76.7683 167.375C76.8154 167.376 76.8507 167.396 76.875 167.433ZM76.7304 167.88L76.3719 168.634H76.8779L76.7304 167.88Z" fill="#FAFAFA"/>
<path d="M78.6733 169.617H77.701C77.6786 169.617 77.6579 169.611 77.6388 169.599C77.6108 169.578 77.5924 169.538 77.584 169.477V169.475C77.584 169.436 77.6734 168.772 77.8523 167.485C77.8534 167.47 77.8552 167.456 77.8581 167.442C77.8784 167.395 77.9133 167.371 77.9627 167.371C77.9822 167.371 77.9998 167.376 78.0164 167.384C78.0569 167.406 78.0775 167.44 78.0775 167.487C78.069 167.575 78.0469 167.757 78.0112 168.033C77.9001 168.882 77.8419 169.331 77.8372 169.378H78.6633C78.6858 169.378 78.7064 169.382 78.7255 169.39C78.7748 169.41 78.7995 169.446 78.7995 169.498C78.7995 169.511 78.7976 169.524 78.7936 169.536C78.777 169.581 78.7369 169.608 78.6733 169.617Z" fill="#FAFAFA"/>
<path d="M80.002 167.433C80.0067 167.444 80.0115 167.457 80.0163 167.472C80.0391 167.551 80.1657 168.218 80.3961 169.471C80.3998 169.481 80.4016 169.49 80.4016 169.5C80.4016 169.52 80.3965 169.54 80.3858 169.559C80.3626 169.598 80.3309 169.618 80.2894 169.618C80.2838 169.618 80.2776 169.618 80.271 169.617C80.225 169.609 80.1952 169.583 80.1819 169.537L80.0535 168.873H79.3907L79.072 169.539C79.0694 169.547 79.0658 169.554 79.0614 169.561C79.0308 169.599 78.9977 169.618 78.9616 169.618C78.9392 169.618 78.9182 169.612 78.8987 169.599C78.8634 169.575 78.8457 169.543 78.8457 169.502C78.8457 169.491 78.8483 169.479 78.8531 169.467C78.8729 169.421 78.9061 169.348 78.9517 169.248C79.4154 168.236 79.6925 167.638 79.7834 167.456C79.8095 167.403 79.8467 167.376 79.8952 167.375C79.9423 167.376 79.9777 167.396 80.002 167.433ZM79.8573 167.88L79.4989 168.634H80.0049L79.8573 167.88Z" fill="#FAFAFA"/>
<path d="M81.5517 168.581C81.6275 168.792 81.686 168.954 81.7276 169.068C81.8277 169.345 81.8781 169.491 81.8781 169.507C81.8781 169.528 81.8718 169.547 81.8593 169.566C81.8361 169.601 81.8037 169.619 81.7621 169.619C81.7187 169.618 81.6871 169.592 81.6657 169.541C81.6584 169.521 81.6521 169.504 81.6473 169.492C81.5943 169.371 81.5075 169.143 81.3872 168.807L80.837 169.559C80.8065 169.599 80.7722 169.619 80.734 169.62C80.7134 169.62 80.6931 169.614 80.674 169.604C80.6372 169.582 80.6191 169.55 80.6191 169.507C80.6191 169.497 80.6195 169.489 80.6206 169.482C80.6236 169.465 80.6427 169.434 80.6784 169.388C80.8628 169.15 81.0663 168.867 81.2893 168.537C81.2657 168.473 81.2436 168.411 81.2223 168.354C81.0155 167.799 80.9121 167.512 80.9121 167.494C80.9121 167.473 80.9169 167.453 80.9264 167.435C80.9478 167.396 80.9787 167.377 81.0203 167.377C81.0707 167.378 81.1067 167.399 81.1288 167.441L81.4534 168.316L82.1018 167.434C82.1294 167.398 82.164 167.38 82.2052 167.379C82.2244 167.379 82.242 167.383 82.2582 167.392C82.2958 167.413 82.3145 167.447 82.3145 167.495C82.3145 167.511 82.3105 167.529 82.3031 167.548L81.5517 168.581Z" fill="#FAFAFA"/>
<path d="M83.9595 167.383C83.9779 167.383 83.9956 167.387 84.0133 167.396C84.0519 167.417 84.0725 167.45 84.0754 167.495C83.9161 168.753 83.8285 169.432 83.812 169.533C83.7752 169.747 83.706 169.924 83.6037 170.064C83.4484 170.275 83.2331 170.381 82.9582 170.381C82.8691 170.381 82.7657 170.353 82.6469 170.298C82.4809 170.222 82.3668 170.121 82.3039 169.997C82.2951 169.98 82.291 169.961 82.291 169.941C82.291 169.921 82.2965 169.901 82.3068 169.883C82.33 169.844 82.3635 169.825 82.4066 169.825C82.4415 169.826 82.471 169.842 82.4949 169.873C82.6388 170.061 82.8047 170.156 82.9928 170.157C83.1422 170.156 83.271 170.091 83.3788 169.961C83.5014 169.812 83.5728 169.608 83.593 169.349C83.5555 169.408 83.5076 169.459 83.4498 169.501C83.3446 169.578 83.2283 169.615 83.101 169.615C83.0796 169.615 83.0579 169.614 83.0358 169.611C82.8875 169.59 82.7643 169.501 82.6667 169.346C82.5586 169.173 82.5048 168.957 82.5048 168.698C82.5048 168.58 82.51 168.459 82.521 168.333C82.5394 168.137 82.5832 167.858 82.6524 167.495C82.6542 167.484 82.6575 167.473 82.6627 167.462C82.6829 167.409 82.7175 167.383 82.7668 167.383C82.7863 167.383 82.8051 167.388 82.8231 167.399C82.8618 167.421 82.8809 167.452 82.8809 167.491C82.8809 167.551 82.8629 167.699 82.8276 167.934C82.7764 168.281 82.7507 168.507 82.7507 168.612C82.7507 168.828 82.7797 169.004 82.8375 169.14C82.9041 169.298 83.0002 169.377 83.1256 169.377C83.1382 169.377 83.151 169.375 83.1647 169.372C83.2592 169.353 83.356 169.275 83.4554 169.14C83.5691 168.984 83.6493 168.805 83.6957 168.603L83.8432 167.495C83.8451 167.478 83.8499 167.461 83.8576 167.446C83.8793 167.404 83.9132 167.383 83.9595 167.383Z" fill="#FAFAFA"/>
<path d="M98.4639 171.445C98.4312 171.445 98.4043 170.118 98.4043 168.481C98.4043 166.843 98.4308 165.516 98.4639 165.516C98.4967 165.516 98.5235 166.843 98.5235 168.481C98.5232 170.117 98.4967 171.445 98.4639 171.445Z" fill="#F5F5F5"/>
<path d="M72.0655 171.445C72.0327 171.445 72.0059 170.118 72.0059 168.481C72.0059 166.843 72.0324 165.516 72.0655 165.516C72.0982 165.516 72.1251 166.843 72.1251 168.481C72.1251 170.117 72.0982 171.445 72.0655 171.445Z" fill="#E0E0E0"/>
<path d="M99.0284 171.445C98.9956 171.445 98.9688 170.118 98.9688 168.481C98.9688 166.843 98.9952 165.516 99.0284 165.516C99.0611 165.516 99.088 166.843 99.088 168.481C99.0876 170.117 99.0611 171.445 99.0284 171.445Z" fill="#F5F5F5"/>
<path d="M71.5362 171.445C71.5034 171.445 71.4766 170.118 71.4766 168.481C71.4766 166.843 71.5031 165.516 71.5362 165.516C71.5693 165.516 71.5958 166.843 71.5958 168.481C71.5958 170.117 71.5693 171.445 71.5362 171.445Z" fill="#E0E0E0"/>
<path d="M90.6396 166.493L90.6344 166.482C91.5154 167.193 92.7125 168.159 94.044 169.233L94.0741 169.258L94.0366 169.267C93.8923 169.305 93.7382 169.346 93.5829 169.387C92.5473 169.658 91.567 169.916 90.7044 170.142L90.6985 170.144L90.693 170.141C89.6232 169.688 88.7208 169.305 88.0838 169.035C87.7681 168.899 87.5182 168.792 87.3453 168.718C87.2614 168.682 87.1962 168.653 87.1502 168.633C87.1292 168.624 87.1131 168.616 87.1005 168.611C87.0895 168.606 87.084 168.602 87.084 168.602C87.084 168.602 87.0902 168.604 87.1016 168.608C87.1145 168.614 87.1311 168.62 87.1524 168.628C87.1988 168.647 87.2647 168.674 87.3493 168.708C87.523 168.78 87.774 168.884 88.0916 169.015C88.7297 169.282 89.6342 169.66 90.7062 170.109L90.6948 170.108C91.557 169.881 92.5374 169.622 93.5726 169.349C93.7279 169.308 93.882 169.267 94.0263 169.23L94.0189 169.264C92.6901 168.186 91.4956 167.217 90.6164 166.504L90.6116 166.5L90.6113 166.494" fill="#E0E0E0"/>
<path d="M93.7358 168.805L93.9217 168.979L94.1712 168.926L94.0622 169.156L94.1907 169.377L93.9375 169.345L93.7671 169.535L93.7196 169.284L93.4863 169.181L93.7101 169.059L93.7358 168.805Z" fill="#E0E0E0"/>
<path d="M90.4664 169.889L90.5934 169.994L90.7527 169.95L90.6913 170.103L90.7829 170.24L90.618 170.229L90.5157 170.359L90.4752 170.199L90.3203 170.142L90.4598 170.054L90.4664 169.889Z" fill="#E0E0E0"/>
<path d="M86.8535 168.407L87.0559 168.419L87.181 168.26L87.2314 168.456L87.4221 168.526L87.251 168.634L87.2432 168.837L87.0868 168.708L86.8922 168.764L86.9665 168.575L86.8535 168.407Z" fill="#E0E0E0"/>
<path d="M95.2656 166.535L95.468 166.548L95.5931 166.389L95.6436 166.585L95.8338 166.655L95.6627 166.764L95.6553 166.966L95.4989 166.837L95.3039 166.892L95.3786 166.704L95.2656 166.535Z" fill="#E0E0E0"/>
<path d="M90.4766 166.402L90.6057 166.411L90.6856 166.309L90.718 166.434L90.8394 166.479L90.7301 166.548L90.7253 166.677L90.6256 166.595L90.5012 166.63L90.5487 166.51L90.4766 166.402Z" fill="#E0E0E0"/>
<path d="M95.5496 166.676C95.5488 166.69 94.4459 166.653 93.0866 166.595C91.7264 166.537 90.6246 166.479 90.625 166.466C90.6254 166.452 91.7283 166.489 93.0884 166.547C94.4482 166.605 95.5503 166.663 95.5496 166.676Z" fill="#E0E0E0"/>
<path d="M96.7903 165.54H64.0729C63.6442 164.568 63.5393 163.644 64.0729 162.816H96.7903C97.2194 163.807 97.1833 164.708 96.7903 165.54Z" fill="#E0E0E0"/>
<path d="M88.5712 163.594H70.8457V164.585H88.5712V163.594Z" fill="#EBEBEB"/>
<path d="M65.3278 165.554C65.3178 165.563 65.2008 165.45 65.0694 165.225C64.9381 165.001 64.8067 164.657 64.7706 164.258C64.7364 163.86 64.8056 163.498 64.8961 163.254C64.9859 163.01 65.082 162.879 65.093 162.885C65.1107 162.894 65.0426 163.037 64.9763 163.279C64.9094 163.521 64.8567 163.867 64.8891 164.248C64.9233 164.628 65.0356 164.959 65.1438 165.186C65.252 165.413 65.3436 165.542 65.3278 165.554Z" fill="#E0E0E0"/>
<path d="M66.0368 165.554C66.0268 165.563 65.9098 165.45 65.7784 165.225C65.6471 165.001 65.5157 164.657 65.4796 164.258C65.4454 163.86 65.5146 163.498 65.6051 163.254C65.6949 163.01 65.7909 162.879 65.802 162.885C65.8196 162.894 65.7516 163.037 65.6853 163.279C65.618 163.521 65.5657 163.867 65.5981 164.248C65.6327 164.628 65.7446 164.959 65.8528 165.186C65.9606 165.413 66.0526 165.542 66.0368 165.554Z" fill="#E0E0E0"/>
<path d="M95.4662 165.492C95.4302 165.479 95.6973 164.912 95.6966 164.161C95.7062 163.409 95.4456 162.839 95.4817 162.827C95.503 162.808 95.8243 163.378 95.8155 164.161C95.8155 164.945 95.4876 165.512 95.4662 165.492Z" fill="#F5F5F5"/>
<path d="M94.8588 165.485C94.8231 165.477 94.9607 164.902 94.957 164.181C94.9589 163.46 94.8198 162.886 94.8555 162.877C94.8827 162.866 95.0777 163.441 95.0763 164.181C95.0792 164.921 94.886 165.496 94.8588 165.485Z" fill="#F5F5F5"/>
<path d="M115.49 152.846L69.5179 152.819C63.9887 152.816 59.5087 148.333 59.5098 142.803L59.5322 27.5512C59.5333 22.0191 64.02 17.5358 69.5521 17.5391L115.524 17.5659C121.053 17.5692 125.533 22.053 125.532 27.5818L125.509 142.834C125.508 148.367 121.022 152.85 115.49 152.846Z" fill="#263238"/>
<path d="M115.373 21.6773L106.46 21.6721C105.264 21.6717 104.295 22.6841 104.295 23.9335L104.294 25.5501C104.294 26.7998 103.325 27.8122 102.13 27.8114L84.7561 27.8011C83.5609 27.8004 82.5919 26.7869 82.5923 25.5372L82.5927 23.9206C82.5927 22.6709 81.6237 21.6574 80.4285 21.6566L77.2938 21.6548L69.4926 21.6504C65.6183 21.6482 62.4759 24.788 62.4752 28.6623L62.4531 141.157C62.4524 145.029 65.59 148.169 69.4624 148.172L115.342 148.199C119.216 148.201 122.359 145.061 122.36 141.187L122.382 28.6921C122.382 24.8192 119.245 21.6795 115.373 21.6773Z" fill="white"/>
<path d="M122.897 39.5508C122.897 39.6038 109.351 39.6464 92.6445 39.6464C75.9322 39.6464 62.3887 39.6034 62.3887 39.5508C62.3887 39.4978 75.9322 39.4551 92.6445 39.4551C109.351 39.4551 122.897 39.4978 122.897 39.5508Z" fill="#263238"/>
<path d="M68.7172 35.3838C68.6741 35.3838 68.6307 35.3688 68.5957 35.3382L66.8477 33.8051C66.8073 33.7694 66.7844 33.7183 66.7852 33.6642C66.7859 33.6105 66.8102 33.5597 66.8514 33.5251L68.5994 32.0718C68.6778 32.0067 68.7937 32.0178 68.8585 32.0954C68.9236 32.1734 68.9129 32.2897 68.8349 32.3545L67.2525 33.6701L68.8386 35.0611C68.9152 35.1281 68.9229 35.2444 68.8555 35.3209C68.8191 35.3625 68.7683 35.3838 68.7172 35.3838Z" fill="#263238"/>
<path d="M106.861 33.5644C106.861 33.6174 101.166 33.6601 94.1439 33.6601C87.1187 33.6601 81.4258 33.6171 81.4258 33.5644C81.4258 33.5118 87.1187 33.4688 94.1439 33.4688C101.166 33.4688 106.861 33.5114 106.861 33.5644Z" fill="#263238"/>
<path d="M114.227 33.5531C114.227 33.9178 113.932 34.2137 113.567 34.2137C113.202 34.2137 112.906 33.9182 112.906 33.5531C112.906 33.1884 113.202 32.8926 113.567 32.8926C113.932 32.8926 114.227 33.1884 114.227 33.5531Z" fill="#263238"/>
<path d="M116.136 33.5531C116.136 33.9178 115.84 34.2137 115.475 34.2137C115.11 34.2137 114.814 33.9182 114.814 33.5531C114.814 33.1884 115.11 32.8926 115.475 32.8926C115.84 32.8926 116.136 33.1884 116.136 33.5531Z" fill="#263238"/>
<path d="M118.044 33.5531C118.044 33.9178 117.748 34.2137 117.383 34.2137C117.019 34.2137 116.723 33.9182 116.723 33.5531C116.723 33.1884 117.018 32.8926 117.383 32.8926C117.748 32.8926 118.044 33.1884 118.044 33.5531Z" fill="#263238"/>
<path d="M86.9038 64.2668C86.9038 64.6934 86.7264 64.9495 86.4306 64.9495C86.2727 64.9495 86.1593 64.8755 86.1174 64.7349C86.0213 64.8755 85.8708 64.9495 85.6736 64.9495C85.3332 64.9495 85.0818 64.6908 85.0818 64.3209C85.0818 63.9563 85.3332 63.6972 85.6736 63.6972C85.8462 63.6972 85.989 63.7564 86.0854 63.8724V63.7119H86.3588V64.5502C86.3588 64.6761 86.418 64.718 86.4872 64.718C86.6204 64.718 86.6944 64.5627 86.6944 64.272C86.6944 63.7443 86.3099 63.3895 85.7479 63.3895C85.176 63.3895 84.7966 63.7719 84.7966 64.3092C84.7966 64.8538 85.1713 65.2336 85.7383 65.2336C85.8889 65.2336 86.0662 65.2016 86.2167 65.125L86.2834 65.3223C86.1328 65.3988 85.9212 65.4382 85.7387 65.4382C85.0388 65.4382 84.5703 64.9624 84.5703 64.3092C84.5703 63.6633 85.0436 63.1875 85.7487 63.1875C86.428 63.1871 86.9038 63.6383 86.9038 64.2668ZM86.0902 64.3209C86.0902 64.077 85.9323 63.9364 85.7255 63.9364C85.5109 63.9364 85.3604 64.0843 85.3604 64.3209C85.3604 64.5601 85.5109 64.7107 85.7255 64.7107C85.9327 64.7107 86.0902 64.5675 86.0902 64.3209Z" fill="#263238"/>
<path d="M100.81 64.9355C100.81 64.9885 98.1483 65.0312 94.8653 65.0312C91.5813 65.0312 88.9199 64.9882 88.9199 64.9355C88.9199 64.8825 91.5813 64.8398 94.8653 64.8398C98.1483 64.8398 100.81 64.8829 100.81 64.9355Z" fill="#263238"/>
<path d="M77.3002 81.7558C77.3002 81.8088 76.9311 81.8515 76.4763 81.8515C76.0211 81.8515 75.6523 81.8085 75.6523 81.7558C75.6523 81.7029 76.0211 81.6602 76.4763 81.6602C76.9315 81.6598 77.3002 81.7029 77.3002 81.7558Z" fill="#263238"/>
<path d="M81.1815 85.7422C81.1815 85.7952 79.1939 85.8378 76.7423 85.8378C74.2899 85.8378 72.3027 85.7948 72.3027 85.7422C72.3027 85.6895 74.2899 85.6465 76.7423 85.6465C79.1935 85.6461 81.1815 85.6892 81.1815 85.7422Z" fill="#263238"/>
<path d="M95.1621 81.7558C95.1621 81.8088 94.0313 81.8515 92.6369 81.8515C91.2418 81.8515 90.1113 81.8085 90.1113 81.7558C90.1113 81.7029 91.2418 81.6602 92.6369 81.6602C94.0313 81.6598 95.1621 81.7029 95.1621 81.7558Z" fill="#263238"/>
<path d="M96.652 85.5312C96.652 85.5842 94.6166 85.6269 92.1065 85.6269C89.5956 85.6269 87.5605 85.5838 87.5605 85.5312C87.5605 85.4782 89.5952 85.4355 92.1065 85.4355C94.6166 85.4355 96.652 85.4782 96.652 85.5312Z" fill="#263238"/>
<path d="M111.645 81.8086C111.645 81.8616 110.121 81.9043 108.242 81.9043C106.363 81.9043 104.84 81.8612 104.84 81.8086C104.84 81.7556 106.363 81.7129 108.242 81.7129C110.121 81.7129 111.645 81.7556 111.645 81.8086Z" fill="#263238"/>
<path d="M112.92 85.6894C112.92 85.7424 110.956 85.7851 108.535 85.7851C106.112 85.7851 104.148 85.7421 104.148 85.6894C104.148 85.6368 106.112 85.5938 108.535 85.5938C110.957 85.5937 112.92 85.6368 112.92 85.6894Z" fill="#263238"/>
<path d="M100.204 97.1733H75.2592C74.7418 97.1733 74.3223 96.7538 74.3223 96.2364V90.4018C74.3223 89.8844 74.7418 89.4648 75.2592 89.4648H100.204C100.721 89.4648 101.141 89.8844 101.141 90.4018V96.2364C101.141 96.7538 100.722 97.1733 100.204 97.1733Z" fill="#407BFF"/>
<path d="M96.0718 93.4472C96.0718 93.5002 92.6192 93.5429 88.3615 93.5429C84.1022 93.5429 80.6504 93.4999 80.6504 93.4472C80.6504 93.3943 84.1022 93.3516 88.3615 93.3516C92.6192 93.3512 96.0718 93.3943 96.0718 93.4472Z" fill="white"/>
<path d="M110.153 97.2225H104.232C103.751 97.2225 103.361 96.8324 103.361 96.3514V90.1933C103.361 89.7123 103.751 89.3223 104.232 89.3223H110.153C110.634 89.3223 111.024 89.7123 111.024 90.1933V96.3514C111.024 96.8324 110.634 97.2225 110.153 97.2225Z" fill="#EBEBEB"/>
<path d="M106.367 92.8672H108.019L107.263 94.0279L106.367 92.8672Z" fill="#263238"/>
<path d="M101.142 102.908C101.142 102.961 96.8779 103.004 91.6192 103.004C86.3586 103.004 82.0957 102.961 82.0957 102.908C82.0957 102.855 86.3586 102.812 91.6192 102.812C96.8779 102.812 101.142 102.855 101.142 102.908Z" fill="#E0E0E0"/>
<path d="M106.687 106.496C106.687 106.549 100.423 106.592 92.6968 106.592C84.9681 106.592 78.7051 106.549 78.7051 106.496C78.7051 106.443 84.9684 106.4 92.6968 106.4C100.423 106.4 106.687 106.443 106.687 106.496Z" fill="#E0E0E0"/>
<path d="M122.768 112.717C122.768 112.77 109.351 112.812 92.8053 112.812C76.2534 112.812 62.8398 112.769 62.8398 112.717C62.8398 112.664 76.2534 112.621 92.8053 112.621C109.352 112.621 122.768 112.664 122.768 112.717Z" fill="#263238"/>
<path d="M93.3949 119.695C93.3419 119.695 93.2988 118.177 93.2988 116.304C93.2988 114.43 93.3419 112.912 93.3949 112.912C93.4479 112.912 93.4906 114.43 93.4906 116.304C93.4909 118.177 93.4479 119.695 93.3949 119.695Z" fill="#263238"/>
<path d="M89.6721 69.959L87.951 73.9091H87.2286L85.502 69.959H86.2976L87.6124 73.0064L88.9387 69.959H89.6721Z" fill="#407BFF"/>
<path d="M92.6203 72.6293H90.2559C90.3405 73.0694 90.7074 73.3517 91.2322 73.3517C91.5707 73.3517 91.8361 73.2442 92.0506 73.0242L92.4289 73.4588C92.1581 73.7804 91.7349 73.9501 91.2156 73.9501C90.2055 73.9501 89.5508 73.3009 89.5508 72.4037C89.5508 71.5065 90.211 70.8633 91.1085 70.8633C91.9888 70.8633 92.632 71.4782 92.632 72.4207C92.6313 72.477 92.6258 72.5616 92.6203 72.6293ZM90.25 72.1608H91.9597C91.9034 71.7262 91.5704 71.4271 91.1078 71.4271C90.6507 71.4271 90.3177 71.7207 90.25 72.1608Z" fill="#407BFF"/>
<path d="M95.0545 70.8613V71.5329C94.9923 71.5215 94.9415 71.516 94.8907 71.516C94.3546 71.516 94.016 71.8321 94.016 72.447V73.9087H93.3105V70.8952H93.9821V71.3353C94.1856 71.0192 94.5525 70.8613 95.0545 70.8613Z" fill="#407BFF"/>
<path d="M95.5566 69.9759C95.5566 69.7389 95.7484 69.5527 96.0082 69.5527C96.268 69.5527 96.4597 69.7279 96.4597 69.959C96.4597 70.207 96.2735 70.3991 96.0082 70.3991C95.7484 70.3991 95.5566 70.2129 95.5566 69.9759ZM95.6523 70.8959H96.3578V73.9095H95.6523V70.8959Z" fill="#407BFF"/>
<path d="M98.4579 69.6826C98.7004 69.6826 98.9374 69.7334 99.0952 69.846L98.898 70.3767C98.7905 70.3031 98.6551 70.2523 98.5083 70.2523C98.2146 70.2523 98.0623 70.4161 98.0623 70.7377V70.9184H98.8921V71.4825H98.0851V73.9091H97.3796V71.4825H96.8828V70.9184H97.3796V70.7267C97.38 70.0944 97.7579 69.6826 98.4579 69.6826ZM99.7219 69.9759C99.7219 69.7389 99.9137 69.5527 100.173 69.5527C100.433 69.5527 100.625 69.7279 100.625 69.959C100.625 70.207 100.439 70.3991 100.173 70.3991C99.914 70.3991 99.7219 70.2129 99.7219 69.9759ZM99.818 70.8959H100.523V73.9095H99.818V70.8959Z" fill="#407BFF"/>
<path d="M104.272 72.6293H101.907C101.991 73.0694 102.359 73.3517 102.883 73.3517C103.222 73.3517 103.487 73.2442 103.702 73.0242L104.08 73.4588C103.809 73.7804 103.385 73.9501 102.866 73.9501C101.856 73.9501 101.201 73.3009 101.201 72.4037C101.201 71.5065 101.861 70.8633 102.759 70.8633C103.639 70.8633 104.282 71.4782 104.282 72.4207C104.283 72.477 104.277 72.5616 104.272 72.6293ZM101.901 72.1608H103.611C103.555 71.7262 103.222 71.4271 102.759 71.4271C102.302 71.4271 101.97 71.7207 101.901 72.1608Z" fill="#407BFF"/>
<path d="M107.913 69.7227V73.9098H107.236V73.5204C106.998 73.8082 106.649 73.9495 106.237 73.9495C105.362 73.9495 104.713 73.3401 104.713 72.4032C104.713 71.4662 105.362 70.8627 106.237 70.8627C106.626 70.8627 106.97 70.9923 107.207 71.269V69.7227H107.913ZM107.219 72.4032C107.219 71.8276 106.829 71.4607 106.321 71.4607C105.813 71.4607 105.423 71.8276 105.423 72.4032C105.423 72.9787 105.813 73.3456 106.321 73.3456C106.829 73.3456 107.219 72.9787 107.219 72.4032Z" fill="#407BFF"/>
<path d="M79.9284 74.9036C81.6385 74.9036 83.0247 73.5174 83.0247 71.8073C83.0247 70.0972 81.6385 68.7109 79.9284 68.7109C78.2183 68.7109 76.832 70.0972 76.832 71.8073C76.832 73.5174 78.2183 74.9036 79.9284 74.9036Z" fill="#407BFF"/>
<path d="M78.5312 71.8632L78.9287 71.4658L79.6956 72.1473L81.2004 70.6992L81.5695 71.0967L79.6386 72.9138L78.5312 71.8632Z" fill="white"/>
<path d="M93.2303 148.186L68.9463 148.176C65.3234 148.176 62.3867 145.239 62.3867 141.616V119.695H93.2306L93.2303 148.186Z" fill="#EBEBEB"/>
<path d="M115.63 148.245L92.9375 148.185V119.695H122.443V141.432C122.443 145.084 119.283 148.245 115.63 148.245Z" fill="#455A64"/>
<path d="M122.766 119.695C122.766 119.748 109.351 119.791 92.8055 119.791C76.2547 119.791 62.8418 119.748 62.8418 119.695C62.8418 119.643 76.2547 119.6 92.8055 119.6C109.351 119.6 122.766 119.642 122.766 119.695Z" fill="#263238"/>
<path d="M92.3487 136.362C92.3465 136.365 92.3185 136.347 92.2659 136.31C92.2048 136.266 92.129 136.211 92.0348 136.143C91.8225 135.984 91.5295 135.765 91.1582 135.486C90.3895 134.9 89.2987 134.067 87.9555 133.042C87.2813 132.531 86.5409 131.941 85.7508 131.362C85.3475 131.117 84.7852 131.121 84.3716 131.409C84.1739 131.551 83.9936 131.768 83.7982 131.957C83.6058 132.152 83.4111 132.35 83.2135 132.55C81.6314 134.15 79.8941 135.908 78.0703 137.754C77.9614 137.863 77.8532 137.973 77.7527 138.074L77.6942 138.133L77.6276 138.084C76.6071 137.323 75.6121 136.581 74.6516 135.865C74.1717 135.507 73.7007 135.155 73.2392 134.811C72.8215 134.428 72.232 134.332 71.7613 134.564C71.528 134.668 71.3517 134.871 71.1493 135.053C70.9535 135.235 70.7603 135.415 70.5701 135.592C70.1892 135.946 69.8197 136.29 69.4624 136.622C68.7481 137.285 68.0824 137.903 67.4741 138.467C66.2641 139.583 65.2823 140.487 64.5908 141.125C64.2567 141.427 63.9928 141.666 63.8015 141.839C63.7168 141.913 63.6484 141.973 63.5932 142.021C63.5453 142.061 63.5199 142.081 63.5177 142.079C63.5155 142.076 63.5365 142.052 63.5799 142.007C63.6318 141.955 63.6962 141.891 63.7753 141.811C63.9608 141.632 64.2162 141.385 64.5404 141.071C65.2219 140.423 66.1894 139.503 67.3825 138.37C67.986 137.8 68.6462 137.177 69.355 136.508C69.7101 136.173 70.0777 135.827 70.456 135.47C70.6455 135.292 70.8376 135.111 71.0323 134.928C71.1298 134.836 71.2281 134.744 71.3271 134.651C71.4327 134.552 71.5541 134.47 71.6855 134.406C71.9479 134.277 72.2544 134.231 72.5503 134.279C72.6982 134.303 72.8436 134.35 72.979 134.418C73.1181 134.485 73.234 134.583 73.3477 134.665C73.81 135.008 74.2821 135.359 74.7631 135.715C75.7243 136.43 76.7205 137.171 77.7417 137.93L77.6166 137.939C77.7166 137.838 77.8252 137.729 77.9338 137.619C79.7616 135.777 81.5023 134.023 83.0876 132.425C83.286 132.226 83.4817 132.029 83.6749 131.835C83.8748 131.646 84.0404 131.439 84.2762 131.269C84.7469 130.946 85.3799 130.947 85.8318 131.225C86.6502 131.832 87.3623 132.412 88.0383 132.935C89.3657 133.98 90.4439 134.829 91.2038 135.427C91.566 135.717 91.8515 135.946 92.0587 136.113C92.1481 136.187 92.2199 136.247 92.278 136.295C92.327 136.337 92.3509 136.36 92.3487 136.362Z" fill="#263238"/>
<path d="M80.3126 126.799C80.2909 126.8 80.3016 126.56 80.1926 126.155C80.0852 125.757 79.8147 125.175 79.2152 124.727C78.9182 124.509 78.5458 124.323 78.1175 124.25C77.6921 124.18 77.2129 124.195 76.7581 124.37C76.3032 124.535 75.8694 124.845 75.5613 125.274C75.2445 125.696 75.0664 126.239 75.0609 126.798C75.066 127.357 75.2441 127.9 75.561 128.323C75.869 128.752 76.3029 129.062 76.7581 129.226C77.2129 129.402 77.6921 129.417 78.1178 129.346C78.5462 129.273 78.9186 129.088 79.2156 128.869C79.8147 128.422 80.0852 127.839 80.1926 127.442C80.3019 127.037 80.2912 126.797 80.3126 126.799C80.3192 126.799 80.3229 126.857 80.3233 126.97C80.3262 127.083 80.3122 127.251 80.2651 127.46C80.1768 127.874 79.917 128.492 79.2977 128.978C78.9907 129.215 78.6003 129.418 78.1469 129.503C77.6965 129.585 77.1864 129.575 76.6977 129.393C76.2094 129.221 75.7424 128.892 75.4097 128.434C75.0679 127.982 74.8739 127.399 74.8691 126.798C74.8743 126.198 75.0682 125.614 75.4097 125.163C75.7424 124.705 76.2094 124.376 76.6977 124.204C77.1861 124.022 77.6965 124.012 78.1465 124.094C78.5999 124.178 78.9907 124.382 79.2973 124.619C79.9166 125.105 80.1764 125.722 80.2648 126.136C80.3119 126.346 80.3258 126.514 80.3229 126.626C80.3229 126.74 80.3192 126.799 80.3126 126.799Z" fill="#263238"/>
<path d="M121.544 135.465C121.542 135.467 121.515 135.45 121.464 135.413C121.405 135.368 121.331 135.313 121.241 135.245C121.036 135.086 120.754 134.866 120.396 134.587C119.655 133.999 118.604 133.166 117.311 132.139C116.662 131.629 115.949 131.036 115.187 130.459C114.797 130.216 114.244 130.226 113.853 130.527C113.667 130.673 113.492 130.891 113.305 131.078C113.121 131.272 112.934 131.469 112.745 131.668C111.229 133.263 109.565 135.014 107.817 136.852C107.712 136.963 107.607 137.074 107.51 137.175L107.45 137.238L107.382 137.185C106.399 136.423 105.44 135.68 104.515 134.963C104.052 134.604 103.598 134.251 103.154 133.907C102.755 133.522 102.174 133.435 101.724 133.677C101.503 133.788 101.333 133.993 101.139 134.173C100.951 134.354 100.766 134.534 100.583 134.711C100.217 135.064 99.8631 135.406 99.5201 135.738C98.8349 136.399 98.196 137.015 97.6124 137.578C96.4513 138.691 95.5093 139.593 94.8454 140.229C94.5249 140.531 94.2717 140.769 94.0877 140.942C94.0063 141.016 93.9408 141.075 93.8875 141.124C93.8415 141.164 93.8172 141.183 93.8146 141.181C93.8124 141.179 93.8326 141.155 93.8739 141.11C93.9235 141.058 93.9854 140.994 94.0612 140.915C94.2393 140.736 94.484 140.489 94.7942 140.177C95.4482 139.53 96.3759 138.613 97.5193 137.483C98.0981 136.915 98.7311 136.293 99.4108 135.626C99.7516 135.292 100.104 134.947 100.467 134.591C100.649 134.414 100.833 134.233 101.02 134.05C101.113 133.959 101.207 133.867 101.302 133.774C101.401 133.678 101.516 133.589 101.642 133.523C101.895 133.386 102.196 133.335 102.487 133.38C102.633 133.402 102.775 133.448 102.908 133.516C103.042 133.585 103.157 133.681 103.266 133.764C103.711 134.107 104.166 134.459 104.63 134.816C105.556 135.532 106.516 136.274 107.5 137.035L107.372 137.044C107.469 136.942 107.574 136.832 107.679 136.721C109.431 134.886 111.099 133.139 112.618 131.547C112.808 131.349 112.996 131.153 113.181 130.959C113.373 130.769 113.529 130.569 113.753 130.392C114.199 130.052 114.831 130.045 115.27 130.323C116.062 130.93 116.745 131.512 117.397 132.035C118.674 133.08 119.712 133.93 120.444 134.53C120.792 134.82 121.066 135.05 121.266 135.216C121.352 135.29 121.421 135.35 121.477 135.398C121.523 135.439 121.546 135.462 121.544 135.465Z" fill="#263238"/>
<path d="M109.035 125.99C109.014 125.991 109.024 125.751 108.915 125.346C108.808 124.948 108.537 124.366 107.938 123.919C107.641 123.7 107.268 123.515 106.84 123.442C106.415 123.371 105.936 123.387 105.481 123.562C105.026 123.726 104.592 124.036 104.284 124.465C103.967 124.888 103.789 125.43 103.784 125.99C103.789 126.549 103.967 127.092 104.284 127.515C104.592 127.943 105.026 128.254 105.481 128.418C105.936 128.594 106.415 128.609 106.841 128.538C107.269 128.465 107.641 128.28 107.938 128.062C108.537 127.614 108.808 127.031 108.915 126.634C109.024 126.228 109.014 125.988 109.035 125.99C109.042 125.99 109.045 126.048 109.046 126.161C109.049 126.274 109.035 126.442 108.988 126.651C108.899 127.065 108.64 127.683 108.02 128.169C107.713 128.406 107.323 128.609 106.87 128.694C106.419 128.776 105.909 128.766 105.42 128.584C104.932 128.413 104.465 128.084 104.132 127.626C103.791 127.174 103.597 126.59 103.592 125.99C103.597 125.389 103.791 124.806 104.133 124.354C104.465 123.896 104.932 123.567 105.421 123.396C105.909 123.214 106.42 123.204 106.87 123.285C107.323 123.37 107.713 123.573 108.02 123.81C108.64 124.296 108.899 124.914 108.988 125.328C109.035 125.538 109.049 125.705 109.046 125.818C109.045 125.931 109.042 125.99 109.035 125.99Z" fill="#263238"/>
<path d="M93.4022 61.8512C98.1094 61.8512 101.925 58.0352 101.925 53.3279C101.925 48.6207 98.1094 44.8047 93.4022 44.8047C88.6949 44.8047 84.8789 48.6207 84.8789 53.3279C84.8789 58.0352 88.6949 61.8512 93.4022 61.8512Z" fill="#F5F5F5"/>
<path d="M98.9139 59.795C98.6615 57.176 96.4318 54.9551 93.4046 54.9551C90.3778 54.9551 88.3074 57.2451 87.8945 59.8134C87.8945 59.8134 89.7651 61.8819 93.4046 61.8518C97.0445 61.8216 98.9139 59.795 98.9139 59.795Z" fill="#E0E0E0"/>
<path d="M96.704 52.7254C96.9988 50.9034 95.7607 49.1874 93.9387 48.8927C92.1167 48.5979 90.4007 49.836 90.106 51.658C89.8112 53.48 91.0493 55.196 92.8713 55.4907C94.6933 55.7855 96.4093 54.5474 96.704 52.7254Z" fill="#E0E0E0"/>
<path d="M98.8742 59.5024C98.8333 59.5138 98.8263 58.8834 98.3527 57.9278C98.101 57.4619 97.7146 56.9323 97.1479 56.4465C96.583 55.9659 95.8426 55.5155 94.97 55.2255L94.7971 55.1681L94.9557 55.0831C95.4849 54.7998 95.9681 54.3431 96.2875 53.7539C96.6084 53.168 96.7512 52.4445 96.6404 51.7258C96.5429 51.0064 96.1727 50.2995 95.5956 49.785C95.023 49.2669 94.2407 48.9522 93.4292 48.9519C92.62 48.9519 91.8387 49.2639 91.2658 49.7799C90.6876 50.2914 90.3174 50.9965 90.217 51.7137C90.1003 52.4317 90.246 53.1522 90.5592 53.7406C90.7189 54.0339 90.9169 54.2974 91.1417 54.5219C91.3669 54.7482 91.6231 54.9193 91.8836 55.0864L92.0305 55.1806L91.8615 55.2259C90.9644 55.4666 90.2236 55.9185 89.6833 56.4296C89.1391 56.9415 88.7836 57.4965 88.5429 57.9704C88.3026 58.447 88.1727 58.8466 88.0936 59.1193C88.0527 59.2555 88.0288 59.3618 88.0108 59.4329C87.9935 59.5043 87.9843 59.5411 87.9806 59.5403C87.9766 59.54 87.978 59.5017 87.988 59.4285C87.9986 59.3556 88.0152 59.2467 88.0494 59.1076C88.1149 58.829 88.2327 58.4209 88.4645 57.9314C88.6967 57.4449 89.0478 56.872 89.598 56.3391C90.1437 55.8066 90.9018 55.3319 91.8214 55.0765L91.7997 55.216C91.5414 55.0544 91.2654 54.8734 91.028 54.6378C90.7899 54.4042 90.5794 54.1289 90.4098 53.8209C90.0756 53.2037 89.9178 52.4442 90.0377 51.6861C90.1411 50.9277 90.5297 50.1802 91.1403 49.6382C91.7449 49.0913 92.5733 48.7594 93.43 48.7598C94.2885 48.7598 95.1183 49.0946 95.7226 49.6441C96.332 50.1894 96.721 50.9387 96.8211 51.6993C96.9348 52.4582 96.7795 53.2207 96.4376 53.8352C96.0972 54.4531 95.5861 54.9278 95.0289 55.2193L95.0146 55.0769C95.918 55.3867 96.6573 55.8519 97.2303 56.3523C97.8022 56.8569 98.1871 57.4063 98.4318 57.8873C98.5382 58.136 98.6471 58.3517 98.6942 58.5563C98.7534 58.7565 98.8075 58.925 98.8204 59.0689C98.8392 59.1992 98.8546 59.3052 98.8668 59.3913C98.8753 59.4645 98.8778 59.5021 98.8742 59.5024Z" fill="#263238"/>
<path d="M101.926 53.3283C101.922 53.3283 101.917 53.2816 101.909 53.1903C101.901 53.0899 101.891 52.9559 101.879 52.7859C101.873 52.6961 101.866 52.5968 101.859 52.4882C101.847 52.3793 101.823 52.2611 101.804 52.1327C101.762 51.8758 101.722 51.5781 101.623 51.2547C101.47 50.5978 101.161 49.8217 100.674 48.9996C100.184 48.1811 99.4767 47.3263 98.5154 46.6017C97.5575 45.8837 96.349 45.2732 94.955 45.0274C93.5703 44.79 92.0077 44.8338 90.5195 45.3998C90.1409 45.5212 89.785 45.7085 89.4188 45.8844C89.0722 46.0942 88.7071 46.2874 88.3844 46.5498C88.0414 46.7853 87.7415 47.0801 87.4276 47.3638C87.1439 47.6781 86.8458 47.9853 86.6011 48.3419C86.0991 49.0393 85.6608 49.8143 85.3955 50.6662C85.1206 51.513 84.9727 52.4124 84.9602 53.3276C84.9723 54.2432 85.1199 55.1429 85.3948 55.9897C85.6597 56.842 86.0984 57.617 86.6003 58.3147C86.8451 58.6713 87.1431 58.979 87.4269 59.2932C87.7411 59.577 88.0407 59.8717 88.384 60.1076C88.7068 60.37 89.0718 60.5636 89.4185 60.7733C89.7846 60.9489 90.1405 61.1366 90.5192 61.258C92.0074 61.824 93.5703 61.8674 94.955 61.63C96.3494 61.3839 97.5575 60.7733 98.5154 60.0554C99.4767 59.3304 100.183 58.4759 100.674 57.6571C101.16 56.835 101.47 56.0593 101.622 55.4024C101.722 55.0789 101.762 54.7812 101.803 54.5243C101.823 54.3959 101.847 54.2778 101.859 54.1689C101.866 54.0603 101.873 53.9609 101.879 53.8711C101.891 53.7011 101.901 53.5672 101.908 53.4667C101.917 53.3754 101.922 53.3283 101.926 53.3283C101.929 53.3283 101.93 53.3751 101.929 53.4667C101.926 53.5679 101.922 53.7022 101.918 53.8733C101.914 53.9639 101.911 54.0636 101.907 54.1733C101.898 54.2833 101.877 54.4022 101.86 54.5321C101.824 54.7915 101.79 55.0925 101.695 55.42C101.553 56.0854 101.25 56.874 100.766 57.7116C100.278 58.5455 99.569 59.4191 98.5979 60.1625C97.63 60.8992 96.4038 61.5277 94.9845 61.7857C93.575 62.0345 91.9809 61.9962 90.4592 61.4232C90.072 61.3 89.7077 61.1101 89.3338 60.9312C88.9791 60.7181 88.6056 60.5213 88.2755 60.2541C87.9248 60.0138 87.6171 59.7139 87.2962 59.4239C87.0055 59.1037 86.7004 58.7895 86.4498 58.4251C85.9354 57.7127 85.4868 56.9204 85.2148 56.049C84.9329 55.1827 84.7817 54.2623 84.7695 53.3265C84.7817 52.3907 84.9337 51.4707 85.2155 50.6051C85.4879 49.7341 85.9365 48.9418 86.4506 48.2297C86.7012 47.8657 87.0062 47.5518 87.297 47.2313C87.6182 46.9417 87.9255 46.6414 88.2762 46.4015C88.6067 46.1343 88.9798 45.9374 89.3346 45.7244C89.7088 45.5455 90.0728 45.3556 90.4599 45.2327C91.9816 44.6601 93.5754 44.6215 94.9848 44.8702C96.4042 45.1278 97.6304 45.7567 98.5982 46.4931C99.5694 47.2365 100.279 48.1101 100.766 48.944C101.251 49.7816 101.553 50.5702 101.696 51.2359C101.79 51.5638 101.824 51.8648 101.861 52.1242C101.877 52.2541 101.898 52.373 101.908 52.483C101.911 52.5923 101.915 52.6924 101.918 52.783C101.923 52.9537 101.927 53.0884 101.929 53.1896C101.93 53.2816 101.929 53.3283 101.926 53.3283Z" fill="#263238"/>
<path d="M58.1556 92.0449C53.68 94.3633 50.2476 98.355 47.7798 102.75C45.312 107.145 43.7215 111.968 42.1461 116.756L40.7676 141.45C45.9755 132.59 50.1556 122.175 51.285 111.96C50.1299 111.857 48.9747 111.755 47.8192 111.652C50.1427 111.297 52.0931 109.613 53.3344 107.617C54.5753 105.62 55.2142 103.318 55.8375 101.052C54.4281 101.261 53.0187 101.471 51.6092 101.681C54.9205 99.4708 57.321 95.9373 58.1556 92.0449Z" fill="#455A64"/>
<path d="M58.1556 92.0449C53.68 94.3633 50.2476 98.355 47.7798 102.75C45.312 107.145 43.7215 111.968 42.1461 116.756L40.7676 141.45C45.9755 132.59 50.1556 122.175 51.285 111.96C50.1299 111.857 48.9747 111.755 47.8192 111.652C50.1427 111.297 52.0931 109.613 53.3344 107.617C54.5753 105.62 55.2142 103.318 55.8375 101.052C54.4281 101.261 53.0187 101.471 51.6092 101.681C54.9205 99.4708 57.321 95.9373 58.1556 92.0449Z" fill="#455A64"/>
<path d="M39.9953 147.235C39.9953 147.235 28.6914 133.705 28.8221 120.789H33.3882C33.3882 120.789 28.4283 117.528 28.821 115.701C29.2133 113.875 29.3439 106.96 29.3439 106.96L33.5189 108.004C33.5189 108.004 30.3879 106.439 29.9964 103.96C29.6052 101.481 30.9097 90 30.9097 90C30.9097 90 35.9977 95.3489 37.5635 100.828C39.129 106.308 43.2385 112.701 42.0318 129.4C40.8248 146.099 39.9953 147.235 39.9953 147.235Z" fill="#455A64"/>
<path d="M45.7251 148.513C45.7251 148.513 57.9717 140.355 60.6927 129.942L57.0216 128.943C57.0216 128.943 61.7228 127.406 61.8067 125.851C61.8906 124.297 63.2985 118.709 63.2985 118.709L59.7139 118.635C59.7139 118.635 62.5736 118.061 63.4307 116.154C64.2877 114.246 65.7505 104.73 65.7505 104.73C65.7505 104.73 60.4896 107.918 58.0321 111.98C55.5746 116.043 50.8719 120.284 48.1885 133.974C45.505 147.664 45.7251 148.513 45.7251 148.513Z" fill="#455A64"/>
<path d="M33.9969 101.797C34.0002 101.796 34.0134 101.844 34.0366 101.937C34.0609 102.04 34.0929 102.178 34.1342 102.354C34.2181 102.732 34.3377 103.271 34.4911 103.96C34.6471 104.657 34.8289 105.512 35.0262 106.507C35.2267 107.502 35.4608 108.634 35.6897 109.89C36.1729 112.399 36.6829 115.398 37.2084 118.735C37.7177 122.074 38.2263 125.753 38.6786 129.625C39.1217 133.499 39.4661 137.198 39.7322 140.566C39.982 143.935 40.1697 146.971 40.2717 149.524C40.3357 150.8 40.3659 151.955 40.3975 152.969C40.4328 153.984 40.4509 154.857 40.4579 155.572C40.466 156.277 40.4722 156.83 40.477 157.216C40.477 157.397 40.477 157.538 40.477 157.644C40.4759 157.74 40.4737 157.79 40.4704 157.79C40.4671 157.79 40.4626 157.74 40.4571 157.644C40.4523 157.539 40.4461 157.397 40.438 157.217C40.4251 156.831 40.4067 156.279 40.3832 155.573C40.3648 154.86 40.3357 153.987 40.2904 152.973C40.2485 151.96 40.2087 150.806 40.1362 149.531C40.017 146.98 39.8153 143.946 39.5563 140.58C39.2806 137.215 38.9314 133.519 38.4883 129.647C38.0364 125.778 37.5334 122.101 37.034 118.762C36.5184 115.426 36.0227 112.427 35.5568 109.916C35.3368 108.658 35.1119 107.526 34.9217 106.529C34.7347 105.532 34.5636 104.675 34.419 103.976C34.281 103.284 34.1732 102.742 34.0974 102.363C34.0642 102.186 34.0381 102.046 34.0186 101.943C34.0006 101.847 33.9936 101.798 33.9969 101.797Z" fill="#263238"/>
<path d="M38.427 155.521C38.427 155.521 28.0826 143.783 24.8707 136.688L27.2954 135.652C25.5378 135.942 23.7372 135.187 22.3741 134.04C21.0114 132.893 20.0105 131.384 19.029 129.897L22.2233 129.357C19.3186 128.542 16.7596 126.56 15.2441 123.951C19.0136 124.571 22.4235 126.642 25.2335 129.229C27.5092 131.325 29.4361 133.757 31.2867 136.243C32.1894 137.455 32.9795 138.747 33.6375 140.108C35.3763 143.702 38.4329 151.21 38.427 155.521Z" fill="#455A64"/>
<path d="M60.8565 111.563C60.8594 111.564 60.8429 111.604 60.8079 111.682C60.7678 111.768 60.7148 111.88 60.6482 112.023C60.4988 112.331 60.2868 112.767 60.0167 113.324C59.7389 113.887 59.4011 114.577 59.0198 115.383C58.6371 116.189 58.1903 117.102 57.723 118.123C56.7684 120.155 55.6703 122.593 54.4908 125.317C53.321 128.045 52.0753 131.062 50.8362 134.256C49.6042 137.453 48.4961 140.524 47.5261 143.33C46.5663 146.14 45.7383 148.682 45.0774 150.828C44.7366 151.898 44.4533 152.873 44.1946 153.727C43.934 154.58 43.7198 155.318 43.5465 155.921C43.3717 156.515 43.2348 156.98 43.138 157.309C43.0917 157.459 43.0552 157.578 43.0273 157.668C43.0011 157.749 42.9864 157.79 42.9831 157.789C42.9798 157.788 42.9886 157.745 43.0081 157.663C43.0313 157.571 43.0619 157.451 43.1005 157.298C43.1892 156.967 43.3143 156.499 43.4744 155.901C43.6367 155.294 43.8405 154.553 44.0915 153.697C44.3407 152.84 44.6152 151.861 44.9475 150.788C45.5922 148.636 46.4073 146.088 47.3586 143.273C48.3202 140.462 49.4242 137.387 50.6574 134.186C51.8975 130.99 53.1491 127.973 54.3285 125.247C55.5179 122.525 56.6293 120.091 57.6004 118.064C58.0763 117.047 58.5315 116.138 58.9238 115.336C59.3142 114.534 59.662 113.849 59.9501 113.29C60.2342 112.74 60.4565 112.309 60.6136 112.005C60.6876 111.866 60.7461 111.756 60.7906 111.673C60.8315 111.599 60.8536 111.561 60.8565 111.563Z" fill="#263238"/>
<path d="M39.3043 160.551C39.2977 160.552 39.2815 160.477 39.2569 160.335C39.2307 160.172 39.198 159.965 39.1575 159.712C39.1185 159.44 39.0684 159.109 38.9974 158.727C38.9282 158.344 38.8616 157.906 38.7579 157.428C38.5731 156.467 38.3078 155.332 37.9692 154.084C37.62 152.839 37.1913 151.482 36.668 150.085C36.1366 148.69 35.5621 147.388 35.0013 146.223C34.4302 145.062 33.8789 144.035 33.3828 143.191C33.1447 142.764 32.9052 142.391 32.7042 142.058C32.5048 141.724 32.3234 141.443 32.1736 141.213C32.0363 140.996 31.9245 140.82 31.8361 140.68C31.7607 140.557 31.7235 140.491 31.7291 140.486C31.7346 140.483 31.782 140.542 31.8678 140.658C31.9638 140.792 32.0856 140.962 32.2354 141.172C32.3951 141.395 32.5861 141.671 32.7944 142C33.0045 142.329 33.2526 142.697 33.4991 143.122C34.0118 143.959 34.5774 144.983 35.1595 146.144C35.7314 147.31 36.3136 148.615 36.8472 150.017C37.3727 151.421 37.7981 152.784 38.1396 154.037C38.4697 155.293 38.7225 156.435 38.8907 157.402C38.9864 157.884 39.0438 158.325 39.103 158.71C39.1645 159.095 39.2035 159.428 39.2315 159.701C39.2572 159.957 39.2786 160.165 39.2951 160.33C39.3076 160.474 39.311 160.55 39.3043 160.551Z" fill="#263238"/>
<path d="M52.9549 157.789H30.3145V162.407H52.9549V157.789Z" fill="#407BFF"/>
<path d="M32.4707 162.408L34.9197 177.942H48.6005L50.8828 162.408H32.4707Z" fill="#407BFF"/>
<path d="M51.566 162.408C51.566 162.461 47.2832 162.504 42.0013 162.504C36.7176 162.504 32.4355 162.461 32.4355 162.408C32.4355 162.355 36.7176 162.312 42.0013 162.312C47.2832 162.312 51.566 162.355 51.566 162.408Z" fill="#263238"/>
<g opacity="0.3">
<path d="M58.1556 92.0449C53.68 94.3633 50.2476 98.355 47.7798 102.75C45.312 107.145 43.7215 111.968 42.1461 116.756L40.7676 141.45C45.9755 132.59 50.1556 122.175 51.285 111.96C50.1299 111.857 48.9747 111.755 47.8192 111.652C50.1427 111.297 52.0931 109.613 53.3344 107.617C54.5753 105.62 55.2142 103.318 55.8375 101.052C54.4281 101.261 53.0187 101.471 51.6092 101.681C54.9205 99.4708 57.321 95.9373 58.1556 92.0449Z" fill="black"/>
</g>
<path d="M163.561 111.972C163.561 111.972 167.316 118.204 167.873 124.138C168.43 130.071 164.469 178.002 164.469 178.002H117.77C117.77 178.002 130.279 118.813 134.374 115.014L134.655 111.076L163.561 111.972Z" fill="#263238"/>
<path d="M165.555 116.725C165.555 116.725 165.576 117.013 165.539 117.56C165.503 118.106 165.403 118.916 165.091 119.913C164.787 120.909 164.248 122.09 163.349 123.274C162.896 123.862 162.349 124.445 161.694 124.976C161.04 125.507 160.288 125.986 159.483 126.453C158.678 126.922 157.818 127.379 156.957 127.91C156.104 128.447 155.233 129.055 154.515 129.868C153.81 130.688 153.234 131.664 152.852 132.757C152.475 133.852 152.258 135.03 152.093 136.244C151.927 137.459 151.821 138.714 151.653 139.993C151.481 141.269 151.245 142.578 150.769 143.843C150.302 145.107 149.539 146.298 148.508 147.24C147.483 148.19 146.241 148.9 144.951 149.494C142.363 150.677 139.668 151.432 137.383 152.814C136.243 153.498 135.254 154.377 134.493 155.398C133.737 156.428 133.238 157.592 132.856 158.751C132.105 161.083 131.79 163.414 131.176 165.521C131.096 165.783 131.016 166.043 130.938 166.301C130.848 166.555 130.759 166.807 130.671 167.057C130.462 167.545 130.275 168.031 130.029 168.479C129.812 168.94 129.536 169.359 129.288 169.78C129.149 169.981 129.012 170.18 128.875 170.376L128.671 170.668L128.451 170.942C127.294 172.41 126.004 173.532 124.767 174.345C123.531 175.163 122.366 175.706 121.383 176.052C120.398 176.394 119.607 176.574 119.068 176.668C118.802 176.708 118.597 176.739 118.451 176.76C118.312 176.78 118.24 176.786 118.24 176.786C118.24 176.786 118.31 176.767 118.448 176.741C118.593 176.715 118.796 176.678 119.06 176.63C119.596 176.524 120.381 176.333 121.357 175.982C122.331 175.627 123.484 175.077 124.707 174.257C125.93 173.44 127.204 172.319 128.344 170.859L128.562 170.586L128.763 170.296C128.897 170.1 129.032 169.903 129.169 169.704C129.413 169.286 129.684 168.87 129.898 168.412C130.14 167.968 130.323 167.486 130.528 167.003C130.614 166.755 130.701 166.505 130.789 166.253C130.867 165.997 130.945 165.738 131.024 165.478C131.628 163.383 131.935 161.053 132.688 158.697C133.072 157.526 133.576 156.342 134.346 155.291C135.121 154.247 136.132 153.349 137.286 152.654C139.601 151.253 142.303 150.496 144.871 149.321C146.152 148.731 147.375 148.031 148.379 147.101C149.389 146.178 150.133 145.019 150.594 143.777C151.064 142.535 151.3 141.239 151.472 139.97C151.641 138.697 151.749 137.441 151.918 136.221C152.087 135.002 152.308 133.812 152.693 132.702C153.084 131.593 153.675 130.597 154.397 129.762C155.134 128.935 156.018 128.322 156.88 127.784C157.748 127.253 158.612 126.799 159.416 126.336C160.22 125.875 160.968 125.403 161.618 124.881C162.268 124.361 162.813 123.787 163.265 123.208C164.163 122.043 164.708 120.876 165.021 119.891C165.342 118.905 165.453 118.101 165.501 117.557C165.532 117.286 165.532 117.077 165.541 116.937C165.547 116.796 165.555 116.725 165.555 116.725Z" fill="#455A64"/>
<path d="M166.865 121.082C166.865 121.082 166.891 121.143 166.935 121.268C166.984 121.39 167.034 121.579 167.093 121.829C167.19 122.329 167.263 123.105 167.053 124.062C166.848 125.015 166.379 126.148 165.524 127.245C164.68 128.351 163.487 129.4 162.139 130.493C160.805 131.593 159.283 132.778 158.115 134.446C157.536 135.278 157.093 136.243 156.874 137.301C156.644 138.357 156.588 139.476 156.517 140.622C156.453 141.767 156.334 142.954 156.025 144.126C155.725 145.298 155.275 146.457 154.682 147.566C153.498 149.781 151.733 151.799 149.502 153.268C147.253 154.735 144.717 155.444 142.493 156.554C141.382 157.107 140.331 157.754 139.48 158.589C138.631 159.424 137.983 160.413 137.51 161.449C136.563 163.533 136.174 165.702 135.645 167.673C135.385 168.663 135.098 169.611 134.75 170.499C134.39 171.381 133.966 172.198 133.463 172.914C132.966 173.634 132.39 174.244 131.801 174.763C131.514 175.033 131.201 175.253 130.909 175.482C130.599 175.683 130.31 175.898 130.003 176.061C128.804 176.759 127.659 177.146 126.706 177.347C125.752 177.555 124.99 177.567 124.479 177.58C124.229 177.568 124.036 177.559 123.897 177.552C123.766 177.544 123.699 177.535 123.699 177.535C123.699 177.535 123.767 177.531 123.898 177.532C124.036 177.535 124.23 177.538 124.479 177.542C124.988 177.516 125.744 177.492 126.69 177.274C127.634 177.064 128.766 176.668 129.949 175.968C130.251 175.805 130.536 175.59 130.842 175.389C131.129 175.161 131.438 174.941 131.72 174.672C132.299 174.155 132.865 173.549 133.352 172.836C133.844 172.127 134.26 171.318 134.613 170.444C134.953 169.563 135.235 168.62 135.491 167.633C136.013 165.666 136.394 163.49 137.349 161.375C137.826 160.324 138.486 159.312 139.352 158.458C140.22 157.603 141.289 156.945 142.409 156.385C144.654 155.264 147.182 154.555 149.397 153.107C151.599 151.658 153.345 149.664 154.517 147.476C155.104 146.382 155.55 145.237 155.848 144.08C156.155 142.922 156.274 141.755 156.341 140.61C156.415 139.466 156.473 138.338 156.71 137.264C156.934 136.188 157.393 135.197 157.985 134.355C159.178 132.664 160.715 131.481 162.054 130.387C163.406 129.301 164.597 128.267 165.44 127.178C166.293 126.1 166.767 124.985 166.98 124.045C167.199 123.101 167.14 122.334 167.056 121.835C166.958 121.336 166.85 121.087 166.865 121.082Z" fill="#455A64"/>
<path d="M119.467 87.7477C119.467 87.7477 122.497 108.634 127.153 110.665C129.502 111.689 131.389 110.808 132.677 108.441C133.965 106.075 137.24 89.0022 137.24 89.0022L128.176 88.7906L127.837 92.1873L124.344 85.6836L119.467 87.7477Z" fill="#FFC3BD"/>
<path d="M132.83 101.387C132.835 101.384 132.808 101.327 132.753 101.222C132.686 101.1 132.604 100.949 132.503 100.765C132.273 100.348 131.96 99.7814 131.578 99.0914C130.798 97.6775 129.727 95.7209 128.557 93.5526C127.401 91.3884 126.356 89.4303 125.585 87.9855C125.216 87.2885 124.913 86.7163 124.69 86.2949C124.59 86.1106 124.508 85.9597 124.442 85.8379C124.383 85.7341 124.35 85.6811 124.345 85.6837C124.339 85.6863 124.362 85.7448 124.41 85.8533C124.469 85.9788 124.541 86.1348 124.63 86.3251C124.823 86.7336 125.113 87.3198 125.476 88.0415C126.203 89.4844 127.233 91.465 128.404 93.6347C129.574 95.8041 130.663 97.7522 131.471 99.1514C131.875 99.8513 132.209 100.413 132.445 100.799C132.557 100.977 132.648 101.122 132.722 101.239C132.788 101.339 132.824 101.39 132.83 101.387Z" fill="#6F4C47"/>
<path d="M164.415 92.6349L161.828 104.207L163.052 111.974H134.619L136.478 75.7164L143.567 75.1133L160.886 78.0367L164.415 92.6349Z" fill="#407BFF"/>
<path d="M157.182 77.8275C157.182 77.8275 164.588 77.1485 168.116 82.1868C170.274 85.2703 173.305 92.3521 173.305 92.3521L163.447 94.0519L157.182 77.8275Z" fill="#407BFF"/>
<g opacity="0.3">
<path d="M161.672 92.7705C160.708 90.7144 158.46 89.3315 156.19 89.3988C155.696 89.4136 155.142 89.5291 154.879 89.9472C154.602 90.3854 154.763 90.9588 154.953 91.4416C155.2 92.072 155.526 92.7348 156.132 93.0373C156.574 93.2577 157.093 93.2477 157.565 93.3916C158.145 93.5686 158.627 93.9676 159.091 94.3573C159.467 94.6723 159.85 94.9961 160.096 95.4204C160.292 95.7579 160.39 96.1417 160.486 96.52C160.967 98.4123 161.348 102.315 161.829 104.208L162.359 102.577C162.372 101.021 162.385 99.4651 162.398 97.9096C162.412 96.1638 162.412 94.3506 161.672 92.7705Z" fill="black"/>
</g>
<path d="M152.83 102.418C152.836 102.391 153.218 102.457 153.84 102.505C154.461 102.554 155.325 102.565 156.267 102.443C157.209 102.319 158.041 102.087 158.629 101.88C159.217 101.675 159.57 101.512 159.583 101.538C159.588 101.549 159.505 101.6 159.35 101.683C159.196 101.769 158.964 101.876 158.672 101.995C158.089 102.234 157.247 102.489 156.29 102.616C155.332 102.739 154.453 102.708 153.828 102.627C153.515 102.587 153.264 102.542 153.093 102.499C152.921 102.459 152.828 102.43 152.83 102.418Z" fill="#263238"/>
<path d="M140.426 102.927C140.439 102.881 144.463 104.027 149.411 105.487C154.361 106.948 158.361 108.168 158.348 108.214C158.334 108.26 154.312 107.114 149.362 105.654C144.414 104.194 140.412 102.973 140.426 102.927Z" fill="#263238"/>
<g opacity="0.3">
<path d="M153.037 102.465C153.745 103.546 155.091 104.172 156.374 104.016C157.657 103.86 158.652 103.038 159.08 101.818C157.134 102.608 155.121 102.725 153.037 102.465Z" fill="black"/>
</g>
<g opacity="0.3">
<path d="M157.266 107.86L157.162 107.9C154.624 108.354 152.245 107.885 149.811 107.034C147.377 106.183 145.111 104.922 142.863 103.658C147.664 105.059 152.465 106.459 157.266 107.86Z" fill="black"/>
</g>
<path d="M136.479 75.7166C136.479 75.7166 131.793 76.2911 129.973 80.2945C128.153 84.298 126.824 89.0824 126.824 89.0824L136.382 91.2341C136.382 91.2341 137.886 83.148 138 80.2945C138.126 77.1688 138.248 75.6265 136.479 75.7166Z" fill="#407BFF"/>
<path d="M135.577 92.5141C135.529 92.5141 135.493 91.3137 135.496 89.8332C135.5 88.3524 135.541 87.1523 135.589 87.1523C135.637 87.1523 135.673 88.3528 135.67 89.8336C135.667 91.3141 135.625 92.5141 135.577 92.5141Z" fill="#263238"/>
<path d="M140.766 50.0632C143.297 46.9698 146.696 45.189 150.692 45.1232C152.946 45.086 153.879 45.5545 155.503 45.9924C157.126 46.4303 158.591 47.3014 159.56 48.6762C160.71 50.309 161.676 52.1376 161.894 54.123C162.117 56.1624 162.341 58.2159 162.187 60.262C162.033 62.308 161.478 64.3685 160.273 66.0289L155.067 66.9334C152.192 67.0313 149.277 67.1255 146.476 66.4697C143.675 65.814 140.954 64.307 139.454 61.8521C137.37 58.4418 138.236 53.1562 140.766 50.0632Z" fill="#263238"/>
<path d="M158.7 68.9594C158.69 68.9715 158.785 69.0878 159.011 69.2325C159.235 69.3771 159.6 69.5379 160.083 69.5946C160.561 69.6446 161.167 69.5828 161.738 69.259C162.313 68.9428 162.785 68.3316 162.982 67.6077C163.177 66.8828 163.078 66.1173 162.74 65.5543C162.409 64.9865 161.918 64.628 161.479 64.4304C161.034 64.2361 160.637 64.1909 160.371 64.203C160.103 64.214 159.962 64.2667 159.965 64.2821C159.961 64.3443 160.571 64.2151 161.384 64.6284C161.778 64.8356 162.21 65.1826 162.49 65.6945C162.776 66.1994 162.856 66.8758 162.682 67.5268C162.504 68.1759 162.094 68.7202 161.593 69.012C161.093 69.3131 160.545 69.3951 160.101 69.3756C159.19 69.3234 158.728 68.9038 158.7 68.9594Z" fill="#E0E0E0"/>
<path d="M135.722 65.1751C135.851 64.0004 136.467 62.8464 137.485 62.2454C138.502 61.6445 139.923 61.7067 140.771 62.5303L141.589 63.5051C142.871 64.0512 143.677 65.5089 143.522 66.8936C143.367 68.2784 142.301 69.4995 140.968 69.9061C139.636 70.3127 138.107 69.919 137.088 68.9684C136.069 68.0182 135.57 66.5606 135.722 65.1751Z" fill="#263238"/>
<path d="M136.754 68.6863C136.792 68.6686 136.431 68.3356 136.474 67.6504C136.518 66.9843 137.002 66.1107 137.666 65.3103C138.343 64.5058 139.141 63.9557 139.751 63.6377C140.361 63.3102 140.781 63.1906 140.768 63.1479C140.762 63.1225 140.321 63.181 139.672 63.4754C139.023 63.7599 138.175 64.3078 137.47 65.145C137.118 65.5605 136.835 66.0006 136.629 66.4249C136.419 66.847 136.29 67.2739 136.293 67.6445C136.292 68.0154 136.412 68.3028 136.526 68.4699C136.644 68.6388 136.745 68.6973 136.754 68.6863Z" fill="#455A64"/>
<path d="M139.273 70.2241C139.358 70.219 139.004 68.645 139.505 66.7863C139.979 64.9194 141.058 63.7212 140.986 63.6748C140.965 63.6553 140.669 63.9225 140.299 64.4476C139.928 64.9702 139.509 65.7687 139.258 66.7215C139.01 67.6746 138.984 68.5762 139.052 69.2132C139.117 69.8528 139.245 70.2311 139.273 70.2241Z" fill="#455A64"/>
<path d="M155.071 75.3788C155.036 73.5521 154.993 72.0562 154.993 72.0646C154.993 72.0646 159.238 71.5969 160.411 66.1568C160.994 63.4512 161.103 58.9686 161.073 55.2978C161.046 51.9939 158.233 47.4947 154.153 47.4804L152.34 47.2695L145.4 50.0281C144.398 50.0788 143.601 50.8881 143.566 51.8912L143.357 75.1293L150.066 91.4163L154.879 84.8924L155.071 75.3788Z" fill="#FFC3BD"/>
<path d="M152.251 64.8832C152.289 64.5965 152.448 64.3429 152.651 64.1689C153.058 63.8204 153.652 63.7869 154.087 64.0872C154.522 64.3875 154.772 65.0031 154.69 65.5754C154.445 65.911 154.072 66.1377 153.658 66.1737C153.594 66.1793 153.529 66.1815 153.464 66.18C153.151 66.1719 152.832 66.0659 152.592 65.8348C152.352 65.6033 152.204 65.2372 152.251 64.8832Z" fill="#6F4C47"/>
<path d="M158.377 59.0577C158.37 59.4305 158.049 59.7312 157.66 59.7308C157.271 59.7304 156.962 59.429 156.969 59.0563C156.976 58.6838 157.298 58.3824 157.686 58.3828C158.075 58.3835 158.385 58.6857 158.377 59.0577Z" fill="#263238"/>
<path d="M159.724 57.3357C159.631 57.4229 159.12 56.9989 158.362 56.9592C157.606 56.9088 157.029 57.268 156.951 57.1708C156.913 57.1274 157.011 56.9669 157.263 56.8039C157.511 56.6416 157.927 56.4933 158.398 56.5209C158.87 56.5496 159.257 56.745 159.475 56.9353C159.699 57.1263 159.769 57.2967 159.724 57.3357Z" fill="#263238"/>
<path d="M154.963 63.0741C154.962 63.031 155.437 62.9754 156.206 62.9195C156.4 62.9099 156.585 62.8816 156.625 62.7517C156.678 62.6144 156.609 62.4013 156.528 62.1713C156.372 61.6933 156.208 61.1921 156.036 60.667C155.357 58.5267 154.877 56.7706 154.963 56.7445C155.05 56.7176 155.67 58.431 156.349 60.5717C156.512 61.0994 156.668 61.6021 156.816 62.083C156.877 62.3068 156.989 62.5633 156.875 62.8477C156.815 62.9894 156.667 63.0866 156.541 63.1131C156.415 63.144 156.306 63.1403 156.21 63.1407C155.44 63.1399 154.964 63.1171 154.963 63.0741Z" fill="#263238"/>
<path d="M154.995 72.0652C154.995 72.0652 151.289 72.1005 147.752 69.7012C147.752 69.7012 149.501 73.613 155.023 73.4007L154.995 72.0652Z" fill="#6F4C47"/>
<path d="M152.706 63.4748C152.83 63.4745 152.786 64.2966 153.458 64.9189C154.128 65.543 155.009 65.4988 155.01 65.614C155.019 65.6663 154.806 65.7631 154.435 65.7527C154.072 65.7454 153.548 65.5997 153.137 65.2191C152.727 64.8379 152.569 64.3499 152.56 64.0114C152.547 63.6658 152.65 63.4671 152.706 63.4748Z" fill="#263238"/>
<path d="M159.572 54.4807C159.435 54.6588 158.862 54.5032 158.181 54.5223C157.5 54.5197 156.929 54.689 156.789 54.5142C156.727 54.4292 156.811 54.2529 157.056 54.08C157.298 53.9074 157.707 53.758 158.175 53.7521C158.643 53.7469 159.055 53.886 159.298 54.0531C159.546 54.2202 159.633 54.3943 159.572 54.4807Z" fill="#263238"/>
<path d="M149.561 58.8573C149.542 59.2294 149.841 59.5525 150.229 59.5801C150.616 59.6077 150.947 59.3295 150.966 58.9574C150.986 58.5854 150.687 58.2615 150.3 58.2343C149.912 58.2067 149.581 58.4856 149.561 58.8573Z" fill="#263238"/>
<path d="M149.343 57.065C149.428 57.1585 149.969 56.7728 150.728 56.7879C151.486 56.7923 152.035 57.1923 152.119 57.1007C152.16 57.0602 152.074 56.8928 151.835 56.7121C151.6 56.5322 151.196 56.3544 150.723 56.3478C150.251 56.3423 149.85 56.5093 149.619 56.683C149.382 56.8582 149.3 57.0231 149.343 57.065Z" fill="#263238"/>
<path d="M148.907 55.4362C149.054 55.611 149.642 55.4424 150.346 55.4461C151.05 55.4281 151.643 55.5845 151.784 55.4067C151.846 55.3203 151.755 55.1462 151.497 54.9784C151.243 54.8117 150.817 54.6711 150.333 54.6759C149.849 54.6814 149.427 54.8301 149.18 55.0023C148.928 55.1749 148.843 55.3508 148.907 55.4362Z" fill="#263238"/>
<path d="M144.509 61.1134C144.53 60.7045 144.11 59.7149 143.71 59.6299C142.642 59.4029 140.694 59.3826 140.526 62.1191C140.296 65.8598 144.099 65.3192 144.112 65.2121C144.122 65.1286 144.435 62.525 144.509 61.1134Z" fill="#FFC3BD"/>
<path d="M143.164 63.7831C143.149 63.7702 143.096 63.8247 142.983 63.8685C142.873 63.9108 142.686 63.9336 142.495 63.8486C142.109 63.6793 141.815 63.0313 141.839 62.356C141.85 62.0149 141.941 61.6951 142.078 61.4342C142.209 61.1677 142.398 60.9874 142.599 60.9642C142.8 60.9304 142.933 61.0584 142.973 61.1663C143.016 61.2741 142.988 61.3473 143.007 61.3547C143.017 61.365 143.092 61.2973 143.071 61.1409C143.06 61.0654 143.022 60.9745 142.938 60.8973C142.853 60.8189 142.723 60.7736 142.584 60.7799C142.294 60.7821 142.018 61.0316 141.867 61.3179C141.701 61.6046 141.59 61.9637 141.577 62.3468C141.555 63.1019 141.897 63.831 142.428 64.0205C142.687 64.1051 142.912 64.0392 143.03 63.9579C143.152 63.8733 143.177 63.7908 143.164 63.7831Z" fill="#6F4C47"/>
<path d="M143.556 59.6432L144.507 60.629C148.611 56.7006 156.632 46.8647 156.184 47.4506C156.184 47.4506 153.373 46.2943 150.321 46.8139C147.269 47.3339 141.481 48.8611 141.569 52.4605C141.658 56.0599 143.556 59.6432 143.556 59.6432Z" fill="#263238"/>
<path d="M143.645 68.9594C143.655 68.9715 143.56 69.0878 143.334 69.2325C143.11 69.3771 142.744 69.5379 142.261 69.5946C141.783 69.6446 141.178 69.5828 140.606 69.259C140.031 68.9428 139.56 68.3316 139.363 67.6077C139.168 66.8828 139.267 66.1173 139.605 65.5543C139.935 64.9865 140.427 64.628 140.865 64.4304C141.311 64.2361 141.708 64.1909 141.974 64.203C142.242 64.214 142.383 64.2667 142.38 64.2821C142.384 64.3443 141.773 64.2151 140.96 64.6284C140.567 64.8356 140.135 65.1826 139.855 65.6945C139.569 66.1994 139.489 66.8758 139.663 67.5268C139.841 68.1759 140.251 68.7202 140.752 69.012C141.252 69.3131 141.8 69.3951 142.244 69.3756C143.155 69.3234 143.617 68.9038 143.645 68.9594Z" fill="#E0E0E0"/>
<path d="M138.122 58.8159C138.116 58.8141 138.135 58.7397 138.179 58.5995C138.224 58.4597 138.304 58.2573 138.434 58.0096C138.694 57.5173 139.192 56.8508 139.998 56.2506C140.791 55.6346 141.892 55.1315 143.145 54.7366C144.396 54.3289 145.807 54.0128 147.191 53.4181C148.585 52.8459 149.827 52.108 150.887 51.3481C151.943 50.5801 152.815 49.7841 153.495 49.0676C154.176 48.3504 154.67 47.7193 155.004 47.2777C155.157 47.0672 155.281 46.8964 155.379 46.7621C155.466 46.6447 155.514 46.5847 155.52 46.588C155.525 46.5917 155.488 46.6587 155.411 46.7834C155.333 46.9067 155.222 47.0925 155.065 47.3211C154.748 47.7781 154.268 48.4258 153.594 49.1603C152.922 49.8938 152.052 50.7078 150.991 51.4909C149.927 52.2659 148.674 53.0166 147.265 53.5951C145.862 54.1968 144.442 54.5096 143.199 54.9048C141.951 55.2883 140.868 55.7685 140.079 56.3595C139.278 56.9343 138.776 57.5728 138.5 58.0461C138.225 58.5237 138.142 58.8229 138.122 58.8159Z" fill="#455A64"/>
<path d="M139.21 59.4047C139.21 59.4047 139.172 59.0982 139.355 58.5874C139.53 58.0803 139.972 57.391 140.761 56.8261C141.542 56.2429 142.657 55.8822 143.882 55.6025C145.113 55.331 146.448 54.9839 147.761 54.3716C149.072 53.7644 150.248 53.0287 151.219 52.2368C152.195 51.4508 152.983 50.6345 153.59 49.9066C154.204 49.1828 154.616 48.5314 154.911 48.0898C155.04 47.8771 155.145 47.7038 155.229 47.5658C155.303 47.4469 155.345 47.3858 155.351 47.3888C155.357 47.3917 155.326 47.4591 155.262 47.5842C155.187 47.727 155.092 47.9069 154.975 48.1281C154.699 48.5837 154.301 49.2509 153.695 49.9924C153.096 50.7376 152.311 51.5718 151.33 52.3741C150.355 53.1818 149.168 53.9314 147.841 54.546C146.515 55.165 145.149 55.5138 143.922 55.7748C142.699 56.0441 141.607 56.3849 140.839 56.9369C140.062 57.4727 139.616 58.1281 139.425 58.6142C139.225 59.1033 139.235 59.4091 139.21 59.4047Z" fill="#455A64"/>
<path d="M119.846 89.7868C119.635 89.7081 119.36 86.7306 119.36 86.7306C119.36 86.7306 116.383 84.3507 115.978 83.3825C115.573 82.4143 115.632 80.1088 115.632 80.1088L120.507 76.7891C120.507 76.7891 123.389 79.3702 124.143 80.3793C124.566 80.9456 124.894 82.5107 125.101 83.7759C125.276 84.8527 125.317 85.946 125.223 87.0327L125.15 87.8717C125.15 87.8717 123.189 91.0318 119.846 89.7868Z" fill="#FFC3BD"/>
<path d="M116.202 83.97C116.202 83.97 115.822 83.6502 115.205 82.9811C114.573 82.2974 113.87 81.6567 114.465 80.9321C114.815 80.5056 115.229 80.5122 115.229 80.5122C115.229 80.5122 114.868 79.8752 115.181 79.4737C115.495 79.0722 115.953 79.1168 115.953 79.1168C115.953 79.1168 115.479 78.2052 115.916 77.5881C116.465 76.8142 117.389 77.0085 117.389 77.0085C117.389 77.0085 115.413 72.9826 115.293 72.7747C114.851 72.0125 114.892 71.1823 115.776 71.0907C116.1 71.0572 116.378 71.3108 117.22 72.5502C118.061 73.7896 119.463 75.9177 119.463 75.9177C119.463 75.9177 120.998 77.2168 121.765 77.9454C122.532 78.6741 124.144 80.3809 124.411 80.8905C125.102 82.2091 124.952 84.3387 124.952 84.3387L119.36 86.7322C119.36 86.7325 116.563 84.2894 116.202 83.97Z" fill="#FFC3BD"/>
<path d="M115.407 80.6531C115.417 80.6391 115.67 80.815 116.071 81.1105C116.28 81.2673 116.515 81.4432 116.771 81.6346C116.902 81.7339 117.044 81.8388 117.172 81.9753C117.298 82.1089 117.412 82.2881 117.436 82.4957C117.466 82.6974 117.397 82.9281 117.228 83.0488C117.062 83.1743 116.861 83.1842 116.693 83.1702C116.523 83.1555 116.367 83.1121 116.227 83.072C116.086 83.0319 115.955 82.9914 115.836 82.9524C115.599 82.8744 115.409 82.8026 115.281 82.7485C115.152 82.6944 115.083 82.6591 115.086 82.651C115.093 82.6333 115.384 82.7327 115.862 82.8659C116.101 82.9248 116.389 83.0241 116.703 83.0525C116.858 83.0628 117.028 83.0466 117.152 82.9491C117.279 82.856 117.333 82.6826 117.31 82.5108C117.29 82.3371 117.197 82.1851 117.081 82.0592C116.964 81.933 116.829 81.8289 116.7 81.7269C116.451 81.5275 116.221 81.3442 116.017 81.1812C115.63 80.868 115.396 80.6671 115.407 80.6531Z" fill="#6F4C47"/>
<path d="M120.269 79.4599C120.239 79.4724 120.062 79.072 120.005 78.5406C119.945 78.0092 120.031 77.5801 120.063 77.586C120.101 77.59 120.073 78.0125 120.132 78.5266C120.187 79.0411 120.305 79.4477 120.269 79.4599Z" fill="#6F4C47"/>
<path d="M122.976 79.8679C122.278 79.5319 121.474 79.4579 120.705 79.5602C119.937 79.6629 119.201 79.9341 118.5 80.262C117.938 80.5247 117.329 80.9145 117.251 81.5297C117.172 82.1631 117.749 82.7346 118.376 82.8564C119.002 82.9782 119.644 82.7603 120.222 82.4899C120.801 82.2197 121.363 81.8904 121.99 81.7686" fill="#FFC3BD"/>
<path d="M121.991 81.7698C121.993 81.7805 121.825 81.8129 121.536 81.9207C121.246 82.0256 120.85 82.2287 120.354 82.4789C120.105 82.6011 119.826 82.7292 119.51 82.8245C119.196 82.918 118.836 82.9827 118.461 82.9301C118.084 82.8812 117.706 82.6832 117.446 82.3568C117.314 82.1956 117.222 81.9936 117.191 81.7768C117.166 81.5593 117.207 81.33 117.315 81.135C117.532 80.7383 117.908 80.5006 118.259 80.3125C118.619 80.1311 118.974 79.9821 119.321 79.8555C120.013 79.6027 120.676 79.479 121.236 79.475C121.796 79.468 122.244 79.5677 122.538 79.6696C122.685 79.7197 122.796 79.7694 122.869 79.8054C122.942 79.843 122.979 79.8647 122.977 79.8687C122.973 79.8798 122.819 79.8021 122.523 79.7171C122.229 79.631 121.787 79.5471 121.238 79.5651C120.69 79.5806 120.042 79.7105 119.361 79.9659C119.022 80.0932 118.667 80.2452 118.317 80.4233C117.976 80.6069 117.62 80.8395 117.428 81.195C117.331 81.3694 117.296 81.5711 117.317 81.761C117.345 81.9509 117.424 82.1319 117.544 82.2799C117.78 82.5794 118.129 82.7664 118.477 82.8142C118.829 82.8668 119.173 82.8101 119.48 82.7233C119.789 82.635 120.066 82.5143 120.315 82.3976C120.813 82.1591 121.222 81.9656 121.52 81.874C121.668 81.8261 121.787 81.7996 121.867 81.7838C121.948 81.7702 121.991 81.7654 121.991 81.7698Z" fill="#6F4C47"/>
<path d="M115.471 80.7019C116.401 81.3974 117.294 82.2092 118.15 82.9945C118.399 83.2231 118.662 83.4645 118.993 83.5337C119.258 83.5889 119.708 83.1528 119.919 82.9831L116.913 79.8242" fill="#FFC3BD"/>
<path d="M116.913 79.8245C116.919 79.819 117.007 79.8996 117.161 80.0515C117.329 80.2208 117.547 80.4401 117.81 80.7058C118.357 81.2648 119.114 82.049 119.965 82.94L120.012 82.9889L119.959 83.0327C119.804 83.1604 119.641 83.3102 119.454 83.4364C119.379 83.4853 119.302 83.5317 119.215 83.5652C119.172 83.5818 119.126 83.5965 119.074 83.5998C119.024 83.6068 118.967 83.5939 118.928 83.5836C118.754 83.5376 118.601 83.4478 118.467 83.3481C118.201 83.1431 117.985 82.919 117.762 82.7195C117.322 82.314 116.923 81.9526 116.583 81.6549C116.243 81.3568 115.963 81.1224 115.768 80.9609C115.573 80.7993 115.465 80.7103 115.471 80.7025C115.476 80.6963 115.594 80.7717 115.798 80.9219C116.003 81.0716 116.293 81.2961 116.642 81.5865C116.99 81.8761 117.397 82.2312 117.841 82.6327C118.066 82.8292 118.29 83.0563 118.541 83.2476C118.668 83.3411 118.808 83.4209 118.96 83.4611C119.095 83.5082 119.244 83.4195 119.382 83.3308C119.56 83.2116 119.718 83.0673 119.879 82.9344L119.873 83.0272C119.026 82.1337 118.28 81.3388 117.749 80.7644C117.496 80.488 117.288 80.2595 117.128 80.0836C116.984 79.9213 116.908 79.83 116.913 79.8245Z" fill="#6F4C47"/>
<path d="M116.066 78.8704C117.077 80.0089 118.087 81.1475 119.098 82.2861C119.313 82.5279 119.533 82.7741 119.815 82.932C120.097 83.0898 120.457 83.1454 120.742 82.9919C121.134 82.7804 121.246 82.2427 121.116 81.8166C120.987 81.3904 120.675 81.0478 120.382 80.7129C119.468 79.6719 118.635 78.5601 117.892 77.3906" fill="#FFC3BD"/>
<path d="M117.892 77.3907C117.896 77.3885 117.925 77.4253 117.976 77.4978C118.035 77.5824 118.108 77.6877 118.198 77.8165C118.391 78.0929 118.67 78.4921 119.033 78.972C119.397 79.4519 119.844 80.0123 120.369 80.6096C120.627 80.9084 120.933 81.2153 121.115 81.6308C121.206 81.8354 121.25 82.0743 121.223 82.3079C121.197 82.5401 121.104 82.7819 120.914 82.949C120.724 83.1179 120.459 83.1705 120.226 83.1363C119.99 83.1054 119.774 82.999 119.597 82.8632C119.241 82.5854 118.994 82.2446 118.724 81.9528C118.201 81.3563 117.729 80.8172 117.328 80.3597C116.943 79.9134 116.627 79.5472 116.396 79.2782C116.295 79.1579 116.213 79.0592 116.147 78.9801C116.091 78.9109 116.063 78.8734 116.067 78.8704C116.07 78.8675 116.104 78.8995 116.166 78.9632C116.237 79.0383 116.325 79.1314 116.433 79.2454C116.672 79.5078 116.998 79.8648 117.396 80.3001C117.803 80.7528 118.282 81.2856 118.812 81.8752C119.084 82.1648 119.339 82.5074 119.672 82.7635C119.838 82.8901 120.033 82.9832 120.243 83.0108C120.451 83.0406 120.672 82.9939 120.83 82.8533C120.989 82.7146 121.074 82.5033 121.097 82.2943C121.122 82.082 121.084 81.8722 121 81.6801C120.833 81.2934 120.539 80.9894 120.281 80.6869C119.758 80.0826 119.316 79.5141 118.961 79.0257C118.606 78.5374 118.336 78.1289 118.156 77.8437C118.067 77.7006 117.998 77.5887 117.954 77.5114C117.91 77.4349 117.889 77.3933 117.892 77.3907Z" fill="#6F4C47"/>
<path d="M122.517 85.2281C122.521 85.2421 122.387 85.2925 122.158 85.3069C121.931 85.3223 121.608 85.287 121.283 85.1519C120.959 85.0158 120.706 84.8112 120.557 84.6382C120.407 84.4653 120.349 84.335 120.361 84.3273C120.39 84.3004 120.706 84.7803 121.332 85.0342C121.953 85.3006 122.516 85.188 122.517 85.2281Z" fill="#6F4C47"/>
<path d="M161.079 75.5962L160.02 88.9689C159.982 89.4447 159.569 89.8024 159.093 89.7712L151.639 89.2872C151.149 89.2552 150.781 88.8258 150.826 88.3367L152.044 74.9735C152.087 74.5021 152.498 74.1507 152.97 74.1816L160.265 74.6556C160.751 74.6876 161.117 75.1108 161.079 75.5962Z" fill="#455A64"/>
<path d="M171.745 92.6191C171.745 92.6191 173.972 107.664 173.884 109.686C173.796 111.707 171.511 116.19 168.434 116.629C165.358 117.069 162.458 114.256 162.37 110.565C162.282 106.873 161.826 95.1981 161.826 95.1981L164.122 93.9333L171.745 92.6191Z" fill="#FFC3BD"/>
<path d="M159.069 80.1895C159.069 80.1895 161.374 81.6077 162.055 81.9776C162.735 82.3474 162.648 85.0956 162.648 85.0956L166.526 94.1116L161.85 95.7868C161.85 95.7868 160.185 92.6326 159.707 92.2337C159.228 91.8348 158.59 91.6755 158.59 91.6755C158.59 91.6755 158.351 92.5528 157.633 92.1542C156.915 91.7553 156.118 90.7982 156.118 90.7982C156.118 90.7982 155.479 91.1971 155.24 90.7183C155.001 90.2399 154.602 89.2029 154.602 89.2029C154.602 89.2029 155.958 87.4479 156.516 87.4479C157.075 87.4479 159.946 87.6076 159.946 87.6076C159.946 87.6076 159.787 87.3684 158.989 87.0493C158.191 86.7303 153.441 85.333 153.218 85.2469C152.885 85.1177 152.507 84.2448 153.544 84.165C154.581 84.0851 160.424 85.1287 160.424 85.1287C160.424 85.1287 160.744 83.6196 160.504 83.3005C160.265 82.9811 158.191 81.625 159.069 80.1895Z" fill="#FFC3BD"/>
<path d="M156.112 90.726C156.096 90.7246 156.058 90.4773 156.131 90.0699C156.174 89.8697 156.264 89.6198 156.483 89.4244C156.706 89.2202 157.041 89.1797 157.339 89.1643C157.955 89.1249 158.513 89.1646 158.912 89.222C159.31 89.2794 159.55 89.3475 159.546 89.3696C159.539 89.423 158.559 89.2588 157.35 89.3376C157.049 89.3527 156.768 89.3887 156.586 89.5462C156.4 89.7004 156.304 89.9172 156.25 90.0997C156.152 90.4743 156.143 90.7297 156.112 90.726Z" fill="#6F4C47"/>
<path d="M157.037 91.0141C157.068 90.974 157.437 91.222 157.933 91.4362C158.429 91.6544 158.862 91.7556 158.853 91.8056C158.849 91.8505 158.384 91.8237 157.864 91.5951C157.344 91.3707 157.007 91.0483 157.037 91.0141Z" fill="#6F4C47"/>
<path d="M160.157 85.0949C160.163 85.0504 160.602 85.1332 160.981 85.5038C161.364 85.871 161.461 86.3067 161.417 86.3141C161.369 86.3325 161.21 85.9608 160.86 85.6285C160.517 85.2903 160.14 85.1435 160.157 85.0949Z" fill="#6F4C47"/>
<path d="M120.339 165.603C120.287 165.591 122.297 157.141 124.827 146.733C127.358 136.321 129.45 127.894 129.502 127.906C129.553 127.919 127.544 136.367 125.013 146.778C122.483 157.187 120.39 165.616 120.339 165.603Z" fill="#455A64"/>
<path d="M175.411 177.885C175.411 177.938 140.302 177.98 97.0032 177.98C53.6892 177.98 18.5879 177.937 18.5879 177.885C18.5879 177.832 53.6892 177.789 97.0032 177.789C140.302 177.789 175.411 177.832 175.411 177.885Z" fill="#263238"/>
<path d="M157.131 45.1777L158.212 41.2721C157.19 39.6131 156.6 37.6605 156.6 35.5692C156.6 29.555 161.475 24.6797 167.489 24.6797C173.503 24.6797 178.379 29.555 178.379 35.5692C178.379 41.583 173.503 46.4587 167.489 46.4587C164.978 46.4587 162.667 45.6064 160.825 44.1782L160.829 44.183L157.131 45.1777Z" fill="white"/>
<path d="M157.13 45.1769C157.13 45.1769 157.216 45.15 157.377 45.1044C157.544 45.0573 157.78 44.9907 158.087 44.9038C158.713 44.729 159.629 44.4736 160.818 44.1417L160.795 44.2083C160.795 44.2083 160.793 44.2054 160.791 44.2035C160.777 44.1851 160.78 44.1586 160.799 44.1443C160.814 44.1321 160.836 44.1332 160.851 44.1443C161.987 45.0109 163.658 45.9379 165.822 46.2639C166.897 46.4332 168.086 46.4373 169.313 46.2194C170.539 46.0067 171.806 45.5677 172.996 44.8571C174.185 44.1494 175.294 43.1716 176.186 41.9569C177.077 40.7447 177.752 39.2951 178.072 37.7149C178.381 36.1351 178.345 34.4364 177.911 32.7966C177.711 31.9708 177.362 31.1815 176.971 30.4094C176.531 29.6653 176.055 28.9234 175.44 28.2875C174.864 27.6303 174.181 27.0893 173.483 26.5936C172.758 26.1395 172.014 25.7203 171.218 25.4495C169.644 24.867 167.974 24.6723 166.388 24.8268C164.8 24.9913 163.304 25.5073 162.019 26.2654C160.732 27.0223 159.655 28.017 158.832 29.1166C157.173 31.3268 156.574 33.9021 156.676 36.0626C156.767 38.2445 157.495 40.0142 158.249 41.2492C158.255 41.2595 158.256 41.2724 158.253 41.2834C157.893 42.539 157.616 43.5058 157.426 44.1671C157.332 44.4917 157.26 44.7412 157.209 44.9171C157.159 45.0863 157.13 45.1769 157.13 45.1769C157.13 45.1769 157.148 45.0974 157.192 44.9322C157.238 44.7577 157.303 44.5112 157.387 44.1899C157.567 43.5179 157.829 42.5357 158.17 41.2599L158.175 41.2941C157.403 40.058 156.653 38.275 156.547 36.0678C156.431 33.883 157.026 31.2679 158.702 29.0187C159.534 27.8996 160.624 26.8865 161.93 26.1141C163.234 25.3409 164.754 24.8129 166.369 24.6432C167.982 24.4835 169.681 24.6793 171.283 25.271C172.093 25.5466 172.852 25.9721 173.589 26.4343C174.299 26.9381 174.994 27.489 175.581 28.1572C176.206 28.8046 176.691 29.5593 177.139 30.317C177.536 31.1027 177.891 31.9068 178.094 32.7473C178.535 34.4166 178.568 36.1439 178.252 37.7506C177.924 39.3577 177.234 40.8301 176.326 42.0595C175.417 43.2916 174.287 44.2815 173.078 44.9958C171.868 45.713 170.581 46.1532 169.337 46.3633C168.093 46.5782 166.889 46.5679 165.802 46.3902C163.614 46.0468 161.934 45.0966 160.798 44.2109L160.858 44.1516C160.859 44.1535 160.862 44.1564 160.862 44.1564C160.876 44.1748 160.873 44.2013 160.854 44.2153C160.85 44.2186 160.844 44.2215 160.839 44.223C159.63 44.5358 158.7 44.7765 158.064 44.9414C157.76 45.019 157.527 45.0786 157.361 45.1206C157.206 45.1607 157.13 45.1769 157.13 45.1769Z" fill="#263238"/>
<path d="M162.617 35.8326L163.892 34.5578L166.35 36.743L171.175 32.0996L172.359 33.3744L166.168 39.2013L162.617 35.8326Z" fill="#407BFF"/>
</svg>
