<svg width="193" height="193" viewBox="0 0 193 193" fill="none" xmlns="http://www.w3.org/2000/svg">
<path d="M193 147.605H1V147.702H193V147.605Z" fill="#EBEBEB"/>
<path d="M173.762 153.818H161.043V153.915H173.762V153.818Z" fill="#EBEBEB"/>
<path d="M128.188 154.867H124.85V154.964H128.188V154.867Z" fill="#EBEBEB"/>
<path d="M160.659 150.234H153.289V150.331H160.659V150.234Z" fill="#EBEBEB"/>
<path d="M37.7306 150.883H21.1445V150.979H37.7306V150.883Z" fill="#EBEBEB"/>
<path d="M43.5803 150.883H41.1484V150.979H43.5803V150.883Z" fill="#EBEBEB"/>
<path d="M87.456 152.514H51.4844V152.61H87.456V152.514Z" fill="#EBEBEB"/>
<path d="M92.0138 130.391H17.8637C16.6553 130.391 15.6719 129.403 15.6719 128.188V23.4152C15.6719 22.2005 16.6553 21.2119 17.8637 21.2119H92.0138C93.2218 21.2119 94.2052 22.2005 94.2052 23.4152V128.188C94.2052 129.403 93.2218 130.391 92.0138 130.391ZM17.8637 21.3088C16.7079 21.3088 15.7679 22.2537 15.7679 23.4156V128.188C15.7679 129.35 16.7079 130.295 17.8637 130.295H92.0138C93.1692 130.295 94.1092 129.35 94.1092 128.188V23.4152C94.1092 22.2537 93.1692 21.3084 92.0138 21.3084L17.8637 21.3088Z" fill="#EBEBEB"/>
<path d="M175.072 130.391H100.922C99.7135 130.391 98.7305 129.403 98.7305 128.188V23.4152C98.7305 22.2005 99.7139 21.2119 100.922 21.2119H175.072C176.28 21.2119 177.263 22.2005 177.263 23.4152V128.188C177.264 129.403 176.28 130.391 175.072 130.391ZM100.922 21.3088C99.7665 21.3088 98.8265 22.2537 98.8265 23.4156V128.188C98.8265 129.35 99.7665 130.295 100.922 130.295H175.072C176.227 130.295 177.167 129.35 177.167 128.188V23.4152C177.167 22.2537 176.227 21.3084 175.072 21.3084L100.922 21.3088Z" fill="#EBEBEB"/>
<path d="M159.902 87.4344V39.7773L128.208 39.7773V87.4344H159.902Z" fill="#E6E6E6"/>
<path d="M158.941 87.4344V39.7773L127.247 39.7773V87.4344H158.941Z" fill="#F5F5F5"/>
<path d="M154.869 43.8711H131.32V83.3392H154.869V43.8711Z" fill="white"/>
<path d="M131.854 83.3392V43.8711H131.319V83.3392H131.854Z" fill="#E6E6E6"/>
<path d="M83.4913 147.606L96.9316 147.605L96.9304 104.031L83.49 104.031L83.4913 147.606Z" fill="#E6E6E6"/>
<path d="M86.0454 147.605H83.4926L83.4922 141.422L88.7219 141.422L86.0454 147.605Z" fill="#F0F0F0"/>
<path d="M155.312 147.604L168.752 147.604L168.751 104.029L155.31 104.029L155.312 147.604Z" fill="#E6E6E6"/>
<path d="M83.4912 146.699L157.539 146.697L157.538 104.029L83.4904 104.031L83.4912 146.699Z" fill="#F0F0F0"/>
<path d="M85.4704 106.626L85.4707 116.434L130.451 116.432L130.451 106.625L85.4704 106.626Z" fill="#E6E6E6"/>
<path d="M132.164 106.626L132.164 116.434L155.557 116.433L155.557 106.626L132.164 106.626Z" fill="#E6E6E6"/>
<path d="M141.547 107.811H146.175C148.186 107.811 150.107 107.329 151.49 106.477L136.232 106.477C137.615 107.329 139.537 107.811 141.547 107.811Z" fill="#F0F0F0"/>
<path d="M94.6177 107.813H120.833C122.843 107.813 124.765 107.33 126.148 106.479L89.3027 106.479C90.6855 107.331 92.6071 107.814 94.6177 107.813Z" fill="#F0F0F0"/>
<path d="M85.4704 119.244L85.4707 129.051L130.451 129.049L130.451 119.242L85.4704 119.244Z" fill="#E6E6E6"/>
<path d="M132.164 119.244L132.164 129.051L155.557 129.05L155.557 119.243L132.164 119.244Z" fill="#E6E6E6"/>
<path d="M141.547 120.429H146.175C148.186 120.429 150.107 119.946 151.49 119.094L136.232 119.094C137.615 119.946 139.537 120.429 141.547 120.429Z" fill="#F0F0F0"/>
<path d="M94.6177 120.429H120.833C122.843 120.429 124.765 119.946 126.148 119.094L89.3027 119.094C90.6855 119.946 92.6074 120.429 94.6177 120.429Z" fill="#F0F0F0"/>
<path d="M85.4704 131.861L85.4707 141.668L130.451 141.666L130.451 131.859L85.4704 131.861Z" fill="#E6E6E6"/>
<path d="M132.166 131.859L132.166 141.666L155.559 141.665L155.559 131.858L132.166 131.859Z" fill="#E6E6E6"/>
<path d="M141.547 133.046H146.175C148.186 133.046 150.107 132.563 151.49 131.711L136.232 131.711C137.615 132.563 139.537 133.046 141.547 133.046Z" fill="#F0F0F0"/>
<path d="M94.6173 133.046H120.833C122.843 133.046 124.765 132.563 126.148 131.711L89.3027 131.711C90.6851 132.563 92.6071 133.046 94.6173 133.046Z" fill="#F0F0F0"/>
<path d="M154.987 147.604H157.54L157.54 141.422H152.311L154.987 147.604Z" fill="#F0F0F0"/>
<path d="M161.982 96.2734C161.982 96.2734 161.592 100.7 146.644 100.701C131.697 100.702 131.307 96.2746 131.307 96.2746L161.982 96.2734Z" fill="#FAFAFA"/>
<path d="M161.982 99.6016C161.982 99.6016 161.592 104.029 146.644 104.029C131.697 104.03 131.307 99.6027 131.307 99.6027L161.982 99.6016Z" fill="#EBEBEB"/>
<path d="M57.293 147.605H72.6583L68.1064 107.875H57.293V147.605Z" fill="#E6E6E6"/>
<path d="M31.3535 147.605H65.5311L69.138 101.104H34.9604L31.3535 147.605Z" fill="#E0E0E0"/>
<path d="M28.8965 147.605H64.461L68.0679 101.104H32.5034L28.8965 147.605Z" fill="#F5F5F5"/>
<path d="M61.0997 143.942L64.1379 104.77H35.8644L32.8262 143.942H61.0997Z" fill="white"/>
<path d="M111.983 29.2148H24.8945V93.0187H111.983V29.2148Z" fill="#EBEBEB"/>
<path d="M109.002 32.5898H27.875V89.6418H109.002V32.5898Z" fill="#FAFAFA"/>
<path d="M45.3336 89.6418H36.8184L44.8363 32.5898H53.3515L45.3336 89.6418Z" fill="white"/>
<path d="M66.3707 89.6418H57.8555L65.8738 32.5898H74.389L66.3707 89.6418Z" fill="white"/>
<path d="M93.4922 89.6418H89.2344L97.2527 32.5898H101.51L93.4922 89.6418Z" fill="white"/>
<path d="M73.8613 89.6418H69.6035L77.6218 32.5898H81.8792L73.8613 89.6418Z" fill="white"/>
<path d="M55.0714 32.5898H51.0586V89.6418H55.0714V32.5898Z" fill="#EBEBEB"/>
<path d="M55.0725 89.6426H55.9668L55.9668 32.5906H55.0725L55.0725 89.6426Z" fill="#E0E0E0"/>
<path d="M111.983 93.0195H112.625L112.625 29.2157H111.983L111.983 93.0195Z" fill="#E0E0E0"/>
<path d="M97.0003 165.038C138.12 165.038 171.454 163.081 171.454 160.668C171.454 158.254 138.12 156.297 97.0003 156.297C55.8808 156.297 22.5469 158.254 22.5469 160.668C22.5469 163.081 55.8808 165.038 97.0003 165.038Z" fill="#F5F5F5"/>
<path d="M114.889 149.501L119.756 146.676L122.728 152.657L118.665 155.024L114.889 149.501Z" fill="#FFC3BD"/>
<path opacity="0.2" d="M114.893 149.502L119.761 146.676L121.425 150.025L117.006 152.595L114.893 149.502Z" fill="black"/>
<path d="M116.637 130.218C120.085 122.188 125.765 112.859 123.438 104.248L107.941 101.785C107.941 101.785 104.737 121.03 105.373 128.924C106.033 137.131 115.67 151.7 115.67 151.7L121.22 148.425C121.22 148.425 118.806 135.971 116.637 130.218Z" fill="#407BFF"/>
<g opacity="0.4">
<path d="M116.637 130.218C120.085 122.188 125.765 112.859 123.438 104.248L107.941 101.785C107.941 101.785 104.737 121.03 105.373 128.924C106.033 137.131 115.67 151.7 115.67 151.7L121.22 148.425C121.22 148.425 118.806 135.971 116.637 130.218Z" fill="black"/>
</g>
<path d="M121.781 148.358L115.44 152.122L113.422 149.484L120.894 145.508L121.781 148.358Z" fill="#407BFF"/>
<path opacity="0.2" d="M117.773 127.68C119.636 123.616 121.789 119.287 123.006 114.934C119.345 115.56 116.243 118.548 117.773 127.68Z" fill="black"/>
<path d="M122.569 151.238C122.474 151.115 122.272 151.127 122.196 151.258C121.397 152.635 119.095 153.958 118.206 154.432C117.989 154.548 117.843 154.74 117.772 154.959C117.338 156.303 115.619 158.309 115.619 158.309C115.619 158.309 115.713 158.756 115.932 159.205C116.117 159.583 116.599 159.698 116.925 159.432L123.998 153.656C124.253 153.448 124.271 153.062 124.033 152.833C123.632 152.446 123.038 151.844 122.569 151.238Z" fill="#263238"/>
<path d="M124.029 152.227L129.649 152.281L129.139 158.95L124.443 158.912L124.029 152.227Z" fill="#FFC3BD"/>
<path d="M129.63 157.924C129.646 157.768 129.495 157.65 129.349 157.704C127.818 158.268 125.235 157.837 124.264 157.642C124.027 157.594 123.788 157.651 123.586 157.776C122.34 158.545 120.138 159.014 120.138 159.014C120.138 159.014 119.913 159.393 119.76 159.858C119.621 160.278 119.933 160.713 120.374 160.713L129.038 160.708C129.348 160.708 129.598 160.448 129.584 160.137C129.561 159.583 129.546 158.715 129.63 157.924Z" fill="#263238"/>
<path opacity="0.2" d="M124.029 152.229L129.651 152.282L129.364 156.017L124.26 155.972L124.029 152.229Z" fill="black"/>
<path d="M133.206 129.758C134.957 121.368 138.111 110.464 135.889 106.135L117.746 103.311C117.746 103.311 120.002 120.664 120.598 128.749C121.216 137.154 123.663 154.519 123.663 154.519L129.745 154.535C129.745 154.535 133.978 139.763 133.206 129.758Z" fill="#407BFF"/>
<path opacity="0.4" d="M133.206 129.758C134.957 121.368 138.111 110.464 135.889 106.135L117.746 103.311C117.746 103.311 120.002 120.664 120.598 128.749C121.216 137.154 123.663 154.519 123.663 154.519L129.745 154.535C129.745 154.535 133.978 139.763 133.206 129.758Z" fill="black"/>
<path d="M130.409 154.765H123.091L122.979 151.703L131.036 151.834L130.409 154.765Z" fill="#407BFF"/>
<path d="M122.538 76.8195L122.075 77.1931L121.645 77.5308C121.359 77.7516 121.068 77.9609 120.779 78.1716C120.202 78.5935 119.607 78.9853 119.01 79.3763C117.806 80.1433 116.571 80.8748 115.267 81.5236C113.968 82.1829 112.611 82.7785 111.16 83.2691C109.715 83.7698 108.164 84.1542 106.456 84.3194L106.142 84.3499C105.317 84.4298 104.531 84.1778 103.921 83.7084C102.651 82.726 101.869 81.5244 101.357 80.4258C101.092 79.8723 100.892 79.3203 100.741 78.7819C100.588 78.2434 100.458 77.7161 100.373 77.1958C100.29 76.6743 100.23 76.1613 100.188 75.6557C100.152 75.1496 100.145 74.6478 100.147 74.1526C100.152 73.6566 100.184 73.1644 100.226 72.6754L100.314 71.9404L100.442 71.17C100.623 70.076 101.652 69.3376 102.741 69.5198C103.436 69.6364 103.987 70.1011 104.247 70.7071L104.406 71.0866C104.466 71.2294 104.535 71.4475 104.603 71.6324L104.804 72.211C104.935 72.5962 105.079 72.9761 105.22 73.3485C105.506 74.0924 105.806 74.8065 106.139 75.4476C106.456 76.0907 106.827 76.6596 107.172 77.0734C107.515 77.5034 107.868 77.6957 108.027 77.7312L105.493 77.1201C106.406 76.9136 107.411 76.5462 108.435 76.0969C108.946 75.8738 109.461 75.6144 109.975 75.3445C110.493 75.0828 111.012 74.7945 111.528 74.4961C112.557 73.8924 113.592 73.2528 114.608 72.5731C115.119 72.238 115.62 71.8848 116.124 71.5397L116.868 71.0144L117.556 70.5211L117.712 70.4095C119.511 69.1211 122.009 69.5422 123.291 71.351C124.526 73.093 124.173 75.4943 122.538 76.8195Z" fill="#FFC3BD"/>
<path d="M104.238 71.0008L102.254 72.302C99.8227 72.8381 99.6779 69.5768 99.6779 69.5768L98.9779 68.0367C98.7405 67.5148 98.9698 66.8628 99.5193 66.4965L100.899 65.5763C101.528 65.1567 102.346 65.2602 102.711 65.8056L103.532 67.0311C103.771 67.3878 103.918 67.7981 103.961 68.2258L104.238 71.0008Z" fill="#FFC3BD"/>
<path d="M122.408 68.7108C118.606 68.483 110.793 73.4115 110.793 73.4115C109.893 76.2914 111.461 81.751 113.751 83.1009C113.751 83.1009 119.568 80.5888 122.305 78.1466C125.614 75.1944 130.098 69.1713 122.408 68.7108Z" fill="#263238"/>
<path d="M122.758 68.7175C127.413 68.9506 133.523 69.9604 138.167 71.3689C141.066 72.2478 142.873 74.4276 141.574 80.4723C138.939 92.7344 139.155 102.753 136.903 106.958C136.903 106.958 110.527 108.596 107 102.481C107.715 87.3412 114.935 75.8033 118.154 71.0331C119.184 69.508 120.926 68.6256 122.758 68.7175Z" fill="#263238"/>
<path d="M124.253 70.393C124.934 69.9028 125.498 70.3378 125.92 69.5063C126.145 68.8953 126.156 68.221 125.906 67.4393L133.523 64.7207C132.984 67.2992 132.564 69.3361 133.55 70.5474C133.585 72.5372 129.013 74.3553 125.148 73.6172C121.746 72.9672 123.273 71.0982 124.253 70.393Z" fill="#FFC3BD"/>
<path opacity="0.2" d="M125.975 67.6761L131.74 67.1445C129.997 69.1444 127.283 69.965 126.009 69.2174C126.125 68.7464 126.12 68.2408 125.975 67.6761Z" fill="black"/>
<path d="M125.417 60.4194C125.113 57.4519 127.99 53.6965 130.395 54.9915C132.799 56.2865 125.417 60.4194 125.417 60.4194Z" fill="#263238"/>
<path d="M135.556 62.113C134.032 65.494 132.925 67.7571 130.372 68.4542C125.3 69.8396 123.63 67.0384 124.121 63.2575C124.562 59.8545 126.98 54.8971 130.869 54.8423C134.7 54.7891 137.081 58.7321 135.556 62.113Z" fill="#FFC3BD"/>
<path d="M134.676 64.8229C132.937 64.5693 131.665 61.4129 133.485 59.7616C135.305 58.1107 134.676 56.5243 133.356 56.0549C132.035 55.5855 129.636 55.9256 129.088 54.7436C128.541 53.5621 132.197 52.704 134.322 54.0639C136.447 55.4238 136.335 54.5981 136.335 54.5981C136.335 54.5981 136.778 55.2941 135.937 55.44C137.607 56.5571 139.459 59.244 137.736 60.3445C139.91 61.5747 136.544 64.4936 134.676 64.8229Z" fill="#263238"/>
<path d="M137.199 60.1577C138.359 60.5383 138.852 59.6562 138.852 59.6562C138.852 59.6562 139.218 61.0937 137.199 60.1577Z" fill="#263238"/>
<path d="M128.678 63.7394C128.833 63.6726 128.99 63.5888 129.148 63.4842C129.19 63.456 129.199 63.3989 129.167 63.3568C129.135 63.3151 129.076 63.3036 129.032 63.3321C127.88 64.0976 126.737 63.6618 126.725 63.6571C126.675 63.6371 126.62 63.6591 126.602 63.7058C126.583 63.7525 126.609 63.8061 126.659 63.8258C126.703 63.8436 127.623 64.1952 128.678 63.7394Z" fill="#263238"/>
<path opacity="0.2" d="M130.723 61.0775C130.723 61.0775 131.473 60.9104 131.974 61.3114C131.27 61.3211 130.723 61.0775 130.723 61.0775Z" fill="black"/>
<path opacity="0.2" d="M130.688 61.3809C130.688 61.3809 131.388 61.3747 131.733 61.8707C131.11 61.7329 130.688 61.3809 130.688 61.3809Z" fill="black"/>
<path d="M135.344 65.7735C134.611 66.4463 133.636 66.7122 132.819 66.657C131.591 66.574 131.751 65.6021 132.426 64.6491C133.033 63.7914 134.029 62.5658 135.101 63.119C136.158 63.664 136.183 65.0042 135.344 65.7735Z" fill="#FFC3BD"/>
<path d="M130.01 60.9663C129.903 61.2485 129.668 61.4187 129.485 61.3465C129.302 61.2747 129.241 60.9875 129.347 60.7054C129.454 60.4232 129.689 60.253 129.872 60.3252C130.055 60.3974 130.117 60.6845 130.01 60.9663Z" fill="#263238"/>
<path d="M126.766 59.6968C126.659 59.979 126.424 60.1492 126.241 60.077C126.058 60.0052 125.996 59.718 126.103 59.4359C126.21 59.1537 126.445 58.9835 126.628 59.0556C126.811 59.1278 126.873 59.4146 126.766 59.6968Z" fill="#263238"/>
<path d="M127.78 60.1582L126.962 62.6282C126.962 62.6282 126.112 62.9251 125.334 62.084C126.148 60.814 127.78 60.1582 127.78 60.1582Z" fill="#ED847E"/>
<path d="M131.502 59.3259C131.53 59.3356 131.56 59.3379 131.591 59.3321C131.686 59.314 131.748 59.2205 131.73 59.124C131.543 58.1567 130.793 57.8356 130.761 57.8221C130.671 57.7846 130.568 57.8279 130.532 57.919C130.496 58.0097 130.539 58.1131 130.629 58.1509C130.653 58.1614 131.235 58.4184 131.384 59.19C131.397 59.2557 131.444 59.3059 131.502 59.3259Z" fill="#263238"/>
<path d="M125.548 58.3804C125.603 58.3955 125.664 58.3831 125.71 58.3422C126.289 57.823 126.905 57.9801 126.931 57.9875C127.025 58.0125 127.121 57.957 127.145 57.8624C127.17 57.7678 127.115 57.6709 127.021 57.6447C126.987 57.6362 126.2 57.4254 125.475 58.0758C125.402 58.1407 125.396 58.253 125.461 58.3267C125.485 58.3534 125.516 58.3715 125.548 58.3804Z" fill="#263238"/>
<path d="M84.8824 80.6706L83.2147 85.2432C82.9113 86.0746 82.2382 86.6424 81.4053 86.769L59.2623 90.1407C57.8335 90.3584 56.9883 91.8322 57.375 93.4325L65.1279 125.53C65.5146 127.13 66.9861 128.251 68.4153 128.033L121.129 120.007C122.557 119.789 123.403 118.315 123.016 116.715L113.674 78.0404C113.287 76.44 111.816 75.3191 110.387 75.5368L86.6914 79.1447C85.8589 79.2714 85.1854 79.8395 84.8824 80.6706Z" fill="#407BFF"/>
<path opacity="0.3" d="M84.8824 80.6706L83.2147 85.2432C82.9113 86.0746 82.2382 86.6424 81.4053 86.769L59.2623 90.1407C57.8335 90.3584 56.9883 91.8322 57.375 93.4325L65.1279 125.53C65.5146 127.13 66.9861 128.251 68.4153 128.033L121.129 120.007C122.557 119.789 123.403 118.315 123.016 116.715L113.674 78.0404C113.287 76.44 111.816 75.3191 110.387 75.5368L86.6914 79.1447C85.8589 79.2714 85.1854 79.8395 84.8824 80.6706Z" fill="black"/>
<path d="M73.5202 33.7416C74.0451 33.7416 74.5631 33.7698 75.0738 33.8231C78.4703 29.1054 83.9895 26.0332 90.2257 26.0332C98.1476 26.0332 104.913 30.9883 107.637 37.9811C113.696 39.0194 118.309 44.32 118.309 50.7063C118.309 57.8381 112.558 63.6196 105.463 63.6196H73.5198C65.3118 63.6196 58.6582 56.931 58.6582 48.6806C58.6586 40.4298 65.3122 33.7416 73.5202 33.7416Z" fill="#407BFF"/>
<path d="M74.8965 58.3965V95.6416H102.07V66.504L94.0047 58.3965H74.8965Z" fill="#407BFF"/>
<path opacity="0.6" d="M74.8965 58.3965V95.6416H102.07V66.504L94.0047 58.3965H74.8965Z" fill="white"/>
<path opacity="0.4" d="M94.0059 66.504V58.3965L102.071 66.504H94.0059Z" fill="#407BFF"/>
<path d="M75.7669 127.901L73.8418 128.193L73.8995 128.577L75.8245 128.285L75.7669 127.901Z" fill="#407BFF"/>
<path d="M84.6515 126.549L77.9277 127.57L77.9854 127.954L84.7092 126.933L84.6515 126.549Z" fill="#407BFF"/>
<path d="M94.5728 84.3287L92.0656 88.5346C91.6098 89.2992 90.8461 89.8277 90.0132 89.9547L67.8702 93.3264C66.4413 93.5441 65.335 94.9036 65.3991 96.363L66.6855 125.636C66.7497 127.095 67.96 128.102 69.3889 127.885L122.102 119.858C123.531 119.64 124.638 118.281 124.574 116.821L123.023 81.5499C122.959 80.0904 121.749 79.0834 120.32 79.3011L96.6249 82.909C95.7927 83.0356 95.0286 83.5641 94.5728 84.3287Z" fill="#407BFF"/>
<path d="M95.3451 52.9953C95.223 52.9953 95.1012 52.9486 95.0079 52.8548C94.8217 52.6675 94.8217 52.3642 95.0079 52.1769C98.6048 48.5609 98.6048 42.6775 95.0079 39.0614C93.2653 37.3098 90.9483 36.3452 88.4841 36.3452C86.02 36.3452 83.703 37.3098 81.9604 39.0614C80.2178 40.8131 79.2582 43.1418 79.2582 45.6192C79.2582 48.0965 80.2178 50.4253 81.9604 52.1769C82.1466 52.3642 82.1466 52.6675 81.9604 52.8548C81.7745 53.0416 81.4723 53.0416 81.2864 52.8548C79.3638 50.9221 78.3047 48.3525 78.3047 45.6192C78.3047 42.8859 79.3634 40.3163 81.2864 38.3836C83.2091 36.4509 85.7654 35.3867 88.4841 35.3867C91.2032 35.3867 93.7595 36.4509 95.6822 38.3836C99.6512 42.3733 99.6512 48.8651 95.6822 52.8548C95.5889 52.9486 95.4672 52.9953 95.3451 52.9953Z" fill="white"/>
<path d="M92.5665 55.8617V45.1803C92.5665 44.2176 91.7904 43.4375 90.8327 43.4375H86.1337C85.1764 43.4375 84.4 44.2176 84.4 45.1803V55.8617H82.6328L88.4831 60.9275L94.3337 55.8617H92.5665Z" fill="white"/>
<path d="M139.931 82.3957L139.698 82.926L139.478 83.4101C139.33 83.7289 139.172 84.0389 139.017 84.35C138.708 84.9714 138.37 85.5751 138.03 86.1792C137.337 87.3789 136.599 88.5608 135.77 89.705C135.356 90.2778 134.931 90.8467 134.479 91.4072C134.019 91.9623 133.547 92.5123 133.039 93.0508C132.032 94.1328 130.893 95.1626 129.547 96.0917L129.282 96.2743C129.148 96.3669 128.996 96.4453 128.85 96.5024C127.254 97.1177 125.925 97.2242 124.649 97.2991C123.383 97.3574 122.186 97.2706 121.02 97.1528C119.854 97.0146 118.719 96.8255 117.603 96.5746C116.48 96.3179 115.409 96.035 114.282 95.6358C113.231 95.2637 112.678 94.105 113.049 93.0477C113.321 92.2722 114.014 91.7666 114.779 91.6998L114.862 91.6932L117.975 91.4254C119.01 91.3323 120.031 91.232 121.023 91.0988C121.518 91.0316 122.005 90.9672 122.48 90.885C122.953 90.7993 123.413 90.7035 123.851 90.609C124.71 90.4121 125.526 90.1176 125.913 89.8659L125.217 90.2762C125.914 89.6501 126.607 88.8612 127.283 88.0042C127.62 87.5758 127.946 87.1172 128.266 86.6521C128.592 86.1904 128.908 85.7079 129.217 85.2192C129.829 84.2342 130.435 83.2221 131.004 82.1814C131.295 81.6646 131.568 81.1369 131.848 80.6158L132.627 79.1035L132.721 78.9217C133.737 76.9504 136.151 76.1799 138.113 77.2016C139.997 78.1817 140.773 80.4703 139.931 82.3957Z" fill="#FFC3BD"/>
<path d="M141.154 75.5743C143.001 82.2444 138.312 88.8743 138.312 88.8743C135.826 89.59 129.28 87.0254 127.891 84.5712C127.891 84.5712 130.172 78.2647 132.886 74.9119C135.398 71.8073 140.072 71.6653 141.154 75.5743Z" fill="#263238"/>
<path d="M115.554 91.8525L115.92 94.2052C115.408 96.6536 112.39 95.4473 112.39 95.4473L110.706 95.4566C110.135 95.4597 109.638 94.9822 109.531 94.3279L109.263 92.6851C109.141 91.9363 109.57 91.2299 110.215 91.1187L111.663 90.8694C112.085 90.7968 112.517 90.8304 112.923 90.9667L115.554 91.8525Z" fill="#FFC3BD"/>
</svg>
