<svg width="193" height="193" viewBox="0 0 193 193" fill="none" xmlns="http://www.w3.org/2000/svg">
<g clip-path="url(#clip0_497_9873)">
<path d="M198 150.488H-4V150.589H198V150.488Z" fill="#EBEBEB"/>
<path d="M125.895 156.121H112.514V156.222H125.895V156.121Z" fill="#EBEBEB"/>
<path d="M163.975 155.025H160.463V155.126H163.975V155.025Z" fill="#EBEBEB"/>
<path d="M156.222 153.24H128.379V153.341H156.222V153.24Z" fill="#EBEBEB"/>
<path d="M86.9596 155.625H74.7168V155.726H86.9596V155.625Z" fill="#EBEBEB"/>
<path d="M71.1192 155.625H63.3535V155.726H71.1192V155.625Z" fill="#EBEBEB"/>
<path d="M36.1159 153.918H17.1934V154.019H36.1159V153.918Z" fill="#EBEBEB"/>
<path d="M91.7536 132.471H13.7416C12.4702 132.471 11.4355 131.436 11.4355 130.165V20.5062C11.4355 19.2348 12.4702 18.2002 13.7416 18.2002H91.7536C93.0246 18.2002 94.0592 19.2348 94.0592 20.5062V130.165C94.0592 131.436 93.0246 132.471 91.7536 132.471ZM13.7416 18.3016C12.5255 18.3016 11.5365 19.2906 11.5365 20.5066V130.165C11.5365 131.381 12.5255 132.37 13.7416 132.37H91.7536C92.9692 132.37 93.9582 131.381 93.9582 130.165V20.5062C93.9582 19.2906 92.9692 18.3012 91.7536 18.3012L13.7416 18.3016Z" fill="#EBEBEB"/>
<path d="M179.138 132.471H101.126C99.8546 132.471 98.8203 131.436 98.8203 130.165V20.5062C98.8203 19.2348 99.855 18.2002 101.126 18.2002H179.138C180.409 18.2002 181.444 19.2348 181.444 20.5062V130.165C181.444 131.436 180.409 132.471 179.138 132.471ZM101.126 18.3016C99.9103 18.3016 98.9213 19.2906 98.9213 20.5066V130.165C98.9213 131.381 99.9103 132.37 101.126 132.37H179.138C180.354 132.37 181.343 131.381 181.343 130.165V20.5062C181.343 19.2906 180.354 18.3012 179.138 18.3012L101.126 18.3016Z" fill="#EBEBEB"/>
<path d="M173.224 64.3188C173.224 63.4033 172.475 62.6543 171.56 62.6543H119.711C118.796 62.6543 118.047 63.4033 118.047 64.3188V69.6766H173.224V64.3188Z" fill="#E6E6E6"/>
<path d="M161.027 66.1667C161.027 66.8615 160.463 67.4251 159.768 67.4251C159.073 67.4251 158.51 66.8615 158.51 66.1667C158.51 65.4714 159.073 64.9082 159.768 64.9082C160.463 64.9082 161.027 65.4714 161.027 66.1667Z" fill="white"/>
<path d="M165.486 66.1667C165.486 66.8615 164.922 67.4251 164.227 67.4251C163.532 67.4251 162.969 66.8615 162.969 66.1667C162.969 65.4714 163.532 64.9082 164.227 64.9082C164.922 64.9082 165.486 65.4714 165.486 66.1667Z" fill="white"/>
<path d="M168.686 67.4251C169.381 67.4251 169.945 66.8617 169.945 66.1667C169.945 65.4716 169.381 64.9082 168.686 64.9082C167.991 64.9082 167.428 65.4716 167.428 66.1667C167.428 66.8617 167.991 67.4251 168.686 67.4251Z" fill="white"/>
<path d="M119.711 105.763H171.56C172.476 105.763 173.225 105.014 173.225 104.098V69.6777H118.047V104.098C118.047 105.014 118.796 105.763 119.711 105.763Z" fill="#F0F0F0"/>
<path d="M177.437 76.9203C177.437 76.0049 176.688 75.2559 175.773 75.2559H123.924C123.009 75.2559 122.26 76.0049 122.26 76.9203V82.2782H177.437V76.9203Z" fill="#F0F0F0"/>
<path d="M165.24 78.7663C165.24 79.4616 164.676 80.0247 163.981 80.0247C163.286 80.0247 162.723 79.4611 162.723 78.7663C162.723 78.0714 163.286 77.5078 163.981 77.5078C164.676 77.5078 165.24 78.071 165.24 78.7663Z" fill="#E6E6E6"/>
<path d="M169.699 78.7663C169.699 79.4616 169.135 80.0247 168.44 80.0247C167.745 80.0247 167.182 79.4611 167.182 78.7663C167.182 78.0714 167.745 77.5078 168.44 77.5078C169.135 77.5078 169.699 78.071 169.699 78.7663Z" fill="#E6E6E6"/>
<path d="M174.158 78.7663C174.158 79.4616 173.594 80.0247 172.899 80.0247C172.204 80.0247 171.641 79.4611 171.641 78.7663C171.641 78.0714 172.204 77.5078 172.899 77.5078C173.594 77.5078 174.158 78.071 174.158 78.7663Z" fill="#E6E6E6"/>
<path d="M123.924 118.362H175.773C176.689 118.362 177.438 117.613 177.438 116.698V82.2773H122.26V116.698C122.26 117.613 123.009 118.362 123.924 118.362Z" fill="#FAFAFA"/>
<path d="M16.0645 25.6589C16.0645 24.7907 16.7747 24.0801 17.6433 24.0801H85.6761C86.5443 24.0801 87.2549 24.7903 87.2549 25.6589V30.7408H16.0645V25.6589Z" fill="#E0E0E0"/>
<path d="M28.8285 28.7078C28.113 28.7078 27.5312 28.126 27.5312 27.4105C27.5312 26.695 28.113 26.1133 28.8285 26.1133C29.544 26.1133 30.1257 26.695 30.1257 27.4105C30.1257 28.126 29.5436 28.7078 28.8285 28.7078ZM28.8285 26.3205C28.2273 26.3205 27.7381 26.8094 27.7381 27.4105C27.7381 28.0117 28.2273 28.5005 28.8285 28.5005C29.4296 28.5005 29.9189 28.0113 29.9189 27.4105C29.9189 26.8098 29.4296 26.3205 28.8285 26.3205Z" fill="white"/>
<path d="M24.5996 28.7078C23.8841 28.7078 23.3027 28.126 23.3027 27.4105C23.3027 26.695 23.8841 26.1133 24.5996 26.1133C25.3151 26.1133 25.8968 26.6954 25.8968 27.4105C25.8968 28.1256 25.3151 28.7078 24.5996 28.7078ZM24.5996 26.3205C23.9988 26.3205 23.5096 26.8094 23.5096 27.4105C23.5096 28.0117 23.9988 28.5005 24.5996 28.5005C25.2007 28.5005 25.69 28.0113 25.69 27.4105C25.69 26.8098 25.2007 26.3205 24.5996 26.3205Z" fill="white"/>
<path d="M20.3691 28.7078C19.6536 28.7078 19.0723 28.126 19.0723 27.4105C19.0723 26.695 19.6536 26.1133 20.3691 26.1133C21.0846 26.1133 21.6663 26.695 21.6663 27.4105C21.6663 28.126 21.0846 28.7078 20.3691 28.7078ZM20.3691 26.3205C19.7684 26.3205 19.2791 26.8094 19.2791 27.4105C19.2791 28.0117 19.7684 28.5005 20.3691 28.5005C20.9703 28.5005 21.4595 28.0113 21.4595 27.4105C21.4595 26.8098 20.9707 26.3205 20.3691 26.3205Z" fill="white"/>
<path d="M17.6429 72.9857H85.6761C86.5443 72.9857 87.2549 72.2755 87.2549 71.4069V30.7402H16.0645V71.4069C16.0645 72.2755 16.7747 72.9857 17.6429 72.9857Z" fill="#EBEBEB"/>
<path d="M33.1328 36.3249C33.1328 35.4567 33.843 34.7461 34.7116 34.7461H102.745C103.613 34.7461 104.324 35.4563 104.324 36.3249V41.4068H33.1328V36.3249Z" fill="#FAFAFA"/>
<path d="M45.8964 39.3738C45.181 39.3738 44.5996 38.792 44.5996 38.0765C44.5996 37.3611 45.181 36.7793 45.8964 36.7793C46.6119 36.7793 47.1937 37.3611 47.1937 38.0765C47.1937 38.792 46.6119 39.3738 45.8964 39.3738ZM45.8964 36.9865C45.2957 36.9865 44.8065 37.4758 44.8065 38.0769C44.8065 38.6781 45.2957 39.1669 45.8964 39.1669C46.4976 39.1669 46.9868 38.6781 46.9868 38.0769C46.9868 37.4754 46.4976 36.9865 45.8964 36.9865Z" fill="#E6E6E6"/>
<path d="M41.6683 39.3738C40.9529 39.3738 40.3711 38.792 40.3711 38.0765C40.3711 37.3611 40.9529 36.7793 41.6683 36.7793C42.3838 36.7793 42.9652 37.3611 42.9652 38.0765C42.9652 38.792 42.3838 39.3738 41.6683 39.3738ZM41.6683 36.9865C41.0672 36.9865 40.5779 37.4758 40.5779 38.0769C40.5779 38.6781 41.0672 39.1669 41.6683 39.1669C42.2691 39.1669 42.7583 38.6781 42.7583 38.0769C42.7587 37.4754 42.2695 36.9865 41.6683 36.9865Z" fill="#E6E6E6"/>
<path d="M37.4379 39.3738C36.7224 39.3738 36.1406 38.792 36.1406 38.0765C36.1406 37.3611 36.7224 36.7793 37.4379 36.7793C38.1534 36.7793 38.7347 37.3611 38.7347 38.0765C38.7347 38.792 38.1529 39.3738 37.4379 39.3738ZM37.4379 36.9865C36.8367 36.9865 36.3475 37.4758 36.3475 38.0769C36.3475 38.6781 36.8367 39.1669 37.4379 39.1669C38.0386 39.1669 38.5279 38.6781 38.5279 38.0769C38.5279 37.4754 38.0386 36.9865 37.4379 36.9865Z" fill="#E6E6E6"/>
<path d="M34.7116 91.6711H102.745C103.613 91.6711 104.324 90.9609 104.324 90.0923V41.4062H33.1328V90.0923C33.1328 90.9609 33.8434 91.6711 34.7116 91.6711Z" fill="#F5F5F5"/>
<path d="M137.038 45.002H113.038C112.75 45.002 112.514 45.2379 112.514 45.5263V49.469C112.514 49.7574 112.75 49.9934 113.038 49.9934H137.038C137.327 49.9934 137.563 49.7574 137.563 49.469V45.5263C137.563 45.2379 137.327 45.002 137.038 45.002Z" fill="#E6E6E6"/>
<path d="M154.868 36.5391L113.036 36.8021C112.748 36.8033 112.513 37.04 112.514 37.3285L112.529 41.2707C112.531 41.5592 112.767 41.7939 113.056 41.7927L154.888 41.5297C155.176 41.5285 155.411 41.2917 155.41 41.0033L155.394 37.061C155.393 36.773 155.157 36.5379 154.868 36.5391Z" fill="#F0F0F0"/>
<path d="M145.7 28.3398H113.038C112.75 28.3398 112.514 28.5758 112.514 28.8642V32.8065C112.514 33.0949 112.75 33.3309 113.038 33.3309H145.7C145.989 33.3309 146.225 33.0949 146.225 32.8065V28.8642C146.225 28.5758 145.989 28.3398 145.7 28.3398Z" fill="#F0F0F0"/>
<path d="M29.1382 109.166H20.8162C20.6768 109.166 20.5625 109.28 20.5625 109.42V112.226C20.5625 112.365 20.6764 112.479 20.8162 112.479H29.1382C29.2776 112.479 29.3919 112.365 29.3919 112.226V109.42C29.3915 109.28 29.2776 109.166 29.1382 109.166Z" fill="#E6E6E6"/>
<path d="M35.4915 103.695L20.7463 103.87C20.6445 103.871 20.5617 104.028 20.5625 104.219L20.5682 106.836C20.5686 107.028 20.6522 107.184 20.7536 107.183L35.4988 107.009C35.6006 107.008 35.6834 106.851 35.683 106.659L35.6774 104.042C35.6765 103.85 35.5929 103.695 35.4915 103.695Z" fill="#F0F0F0"/>
<path d="M32.1912 98.4004H20.8162C20.6768 98.4004 20.5625 98.5147 20.5625 98.6541V101.46C20.5625 101.599 20.6764 101.714 20.8162 101.714H32.1912C32.3306 101.714 32.4449 101.599 32.4449 101.46V98.6541C32.4449 98.5143 32.3306 98.4004 32.1912 98.4004Z" fill="#F0F0F0"/>
<path d="M35.4915 119.844L20.7463 120.018C20.6445 120.019 20.5617 120.176 20.5625 120.368L20.5682 122.985C20.5686 123.176 20.6522 123.332 20.7536 123.331L35.4988 123.157C35.6006 123.156 35.6834 122.999 35.683 122.807L35.6774 120.19C35.6765 119.999 35.5929 119.843 35.4915 119.844Z" fill="#F0F0F0"/>
<path d="M32.1912 114.549H20.8162C20.6768 114.549 20.5625 114.663 20.5625 114.803V117.608C20.5625 117.748 20.6764 117.862 20.8162 117.862H32.1912C32.3306 117.862 32.4449 117.748 32.4449 117.608V114.803C32.4449 114.663 32.3306 114.549 32.1912 114.549Z" fill="#F0F0F0"/>
<path d="M97.0011 168.735C140.262 168.735 175.332 166.687 175.332 164.16C175.332 161.634 140.262 159.586 97.0011 159.586C53.74 159.586 18.6699 161.634 18.6699 164.16C18.6699 166.687 53.74 168.735 97.0011 168.735Z" fill="#F5F5F5"/>
<path d="M173.516 29.5781H97.2188V105.499H173.516V29.5781Z" fill="#407BFF"/>
<path opacity="0.1" d="M122.125 33.3555H97.2188V47.6441H122.125V33.3555Z" fill="black"/>
<path opacity="0.2" d="M122.125 61.9336H97.2188V76.2223H122.125V61.9336Z" fill="black"/>
<path opacity="0.1" d="M122.125 76.2207H97.2188V90.5094H122.125V76.2207Z" fill="black"/>
<path d="M170.401 104.508H123.977C122.954 104.508 122.125 103.679 122.125 102.656V33.3555H172.253V102.656C172.253 103.679 171.424 104.508 170.401 104.508Z" fill="white"/>
<path opacity="0.3" d="M173.516 29.5781H97.2188V33.3555H173.516V29.5781Z" fill="black"/>
<path opacity="0.8" d="M100.191 32.2349C100.615 32.2349 100.959 31.8907 100.959 31.4661C100.959 31.0415 100.615 30.6973 100.191 30.6973C99.7661 30.6973 99.4219 31.0415 99.4219 31.4661C99.4219 31.8907 99.7661 32.2349 100.191 32.2349Z" fill="#407BFF"/>
<path opacity="0.8" d="M103.693 32.2349C104.117 32.2349 104.461 31.8907 104.461 31.4661C104.461 31.0415 104.117 30.6973 103.693 30.6973C103.268 30.6973 102.924 31.0415 102.924 31.4661C102.924 31.8907 103.268 32.2349 103.693 32.2349Z" fill="#407BFF"/>
<path opacity="0.8" d="M107.195 32.2349C107.619 32.2349 107.963 31.8907 107.963 31.4661C107.963 31.0415 107.619 30.6973 107.195 30.6973C106.77 30.6973 106.426 31.0415 106.426 31.4661C106.426 31.8907 106.77 32.2349 107.195 32.2349Z" fill="#407BFF"/>
<path opacity="0.2" d="M156.36 65.7451H127.147C126.514 65.7451 125.996 65.2272 125.996 64.5941V41.6295C125.996 40.9964 126.514 40.4785 127.147 40.4785H156.36C156.993 40.4785 157.511 40.9964 157.511 41.6295V64.5941C157.511 65.2272 156.993 65.7451 156.36 65.7451Z" fill="#407BFF"/>
<path opacity="0.2" d="M168.359 57.8776H145.921C145.435 57.8776 145.037 57.4797 145.037 56.9937V39.3547C145.037 38.8682 145.435 38.4707 145.921 38.4707H168.359C168.846 38.4707 169.243 38.8686 169.243 39.3547V56.9937C169.243 57.4797 168.846 57.8776 168.359 57.8776Z" fill="#407BFF"/>
<path opacity="0.2" d="M155.806 93.3034H133.368C132.882 93.3034 132.484 92.9055 132.484 92.4195V74.7804C132.484 74.294 132.882 73.8965 133.368 73.8965H155.806C156.292 73.8965 156.69 74.2944 156.69 74.7804V92.4195C156.69 92.9055 156.292 93.3034 155.806 93.3034Z" fill="#407BFF"/>
<path opacity="0.7" d="M173.516 29.5781H97.2188V105.499H173.516V29.5781Z" fill="white"/>
<path d="M166.51 36.582H90.2129V112.503H166.51V36.582Z" fill="#407BFF"/>
<path opacity="0.1" d="M115.119 40.3594H90.2129V54.648H115.119V40.3594Z" fill="black"/>
<path opacity="0.2" d="M115.119 68.9375H90.2129V83.2262H115.119V68.9375Z" fill="black"/>
<path opacity="0.1" d="M115.119 83.2246H90.2129V97.5133H115.119V83.2246Z" fill="black"/>
<path d="M163.396 111.512H116.971C115.948 111.512 115.119 110.683 115.119 109.66V40.3594H165.247V109.66C165.247 110.683 164.418 111.512 163.396 111.512Z" fill="white"/>
<path opacity="0.3" d="M166.51 36.582H90.2129V40.3594H166.51V36.582Z" fill="black"/>
<path opacity="0.8" d="M93.1848 39.2388C93.6094 39.2388 93.9536 38.8946 93.9536 38.47C93.9536 38.0454 93.6094 37.7012 93.1848 37.7012C92.7602 37.7012 92.416 38.0454 92.416 38.47C92.416 38.8946 92.7602 39.2388 93.1848 39.2388Z" fill="#407BFF"/>
<path opacity="0.8" d="M96.6887 39.2388C97.1133 39.2388 97.4575 38.8946 97.4575 38.47C97.4575 38.0454 97.1133 37.7012 96.6887 37.7012C96.2641 37.7012 95.9199 38.0454 95.9199 38.47C95.9199 38.8946 96.2641 39.2388 96.6887 39.2388Z" fill="#407BFF"/>
<path opacity="0.8" d="M100.189 39.2388C100.613 39.2388 100.958 38.8946 100.958 38.47C100.958 38.0454 100.613 37.7012 100.189 37.7012C99.7641 37.7012 99.4199 38.0454 99.4199 38.47C99.4199 38.8946 99.7641 39.2388 100.189 39.2388Z" fill="#407BFF"/>
<path opacity="0.2" d="M149.354 72.749H120.141C119.508 72.749 118.99 72.2311 118.99 71.598V48.6334C118.99 48.0004 119.508 47.4824 120.141 47.4824H149.354C149.987 47.4824 150.505 48.0004 150.505 48.6334V71.598C150.505 72.2311 149.987 72.749 149.354 72.749Z" fill="#407BFF"/>
<path opacity="0.2" d="M161.724 86.8523H139.286C138.8 86.8523 138.402 86.4543 138.402 85.9683V68.3293C138.402 67.8428 138.8 67.4453 139.286 67.4453H161.724C162.21 67.4453 162.608 67.8433 162.608 68.3293V85.9683C162.609 86.4543 162.211 86.8523 161.724 86.8523Z" fill="#407BFF"/>
<path opacity="0.2" d="M148.801 100.307H126.362C125.876 100.307 125.479 99.9094 125.479 99.4234V81.7843C125.479 81.2979 125.876 80.9004 126.362 80.9004H148.801C149.287 80.9004 149.685 81.2983 149.685 81.7843V99.4234C149.685 99.9098 149.287 100.307 148.801 100.307Z" fill="#407BFF"/>
<path opacity="0.5" d="M166.51 36.582H90.2129V112.503H166.51V36.582Z" fill="white"/>
<path d="M159.508 43.584H83.2109V119.504H159.508V43.584Z" fill="#407BFF"/>
<path opacity="0.1" d="M108.118 47.3613H83.2109V61.65H108.118V47.3613Z" fill="black"/>
<path opacity="0.2" d="M108.118 75.9395H83.2109V90.2281H108.118V75.9395Z" fill="black"/>
<path opacity="0.1" d="M108.118 90.2285H83.2109V104.517H108.118V90.2285Z" fill="black"/>
<path d="M156.394 118.513H109.969C108.946 118.513 108.117 117.684 108.117 116.662V47.3613H158.245V116.662C158.245 117.684 157.416 118.513 156.394 118.513Z" fill="white"/>
<path opacity="0.3" d="M159.508 43.584H83.2109V47.3614H159.508V43.584Z" fill="black"/>
<path opacity="0.8" d="M86.1829 46.2427C86.6075 46.2427 86.9517 45.8985 86.9517 45.4739C86.9517 45.0493 86.6075 44.7051 86.1829 44.7051C85.7583 44.7051 85.4141 45.0493 85.4141 45.4739C85.4141 45.8985 85.7583 46.2427 86.1829 46.2427Z" fill="#407BFF"/>
<path opacity="0.8" d="M90.4536 45.4739C90.4536 45.8985 90.1094 46.2427 89.6848 46.2427C89.2602 46.2427 88.916 45.8985 88.916 45.4739C88.916 45.0493 89.2602 44.7051 89.6848 44.7051C90.1094 44.7051 90.4536 45.0493 90.4536 45.4739Z" fill="#407BFF"/>
<path opacity="0.8" d="M93.1868 46.2427C93.6114 46.2427 93.9556 45.8985 93.9556 45.4739C93.9556 45.0493 93.6114 44.7051 93.1868 44.7051C92.7622 44.7051 92.418 45.0493 92.418 45.4739C92.418 45.8985 92.7622 46.2427 93.1868 46.2427Z" fill="#407BFF"/>
<path opacity="0.2" d="M124.615 79.6866H80.7198C79.7687 79.6866 78.9902 78.9085 78.9902 77.9571V43.4502C78.9902 42.4992 79.7683 41.7207 80.7198 41.7207H124.615C125.566 41.7207 126.345 42.4988 126.345 43.4502V77.9571C126.344 78.9081 125.566 79.6866 124.615 79.6866Z" fill="#407BFF"/>
<path opacity="0.2" d="M148.357 89.4307H114.641C113.91 89.4307 113.312 88.8327 113.312 88.1023V61.5979C113.312 60.8674 113.91 60.2695 114.641 60.2695H148.357C149.088 60.2695 149.685 60.8674 149.685 61.5979V88.1023C149.685 88.8331 149.087 89.4307 148.357 89.4307Z" fill="#407BFF"/>
<path opacity="0.2" d="M160.523 125.446H126.807C126.076 125.446 125.479 124.848 125.479 124.118V97.6135C125.479 96.8831 126.076 96.2852 126.807 96.2852H160.523C161.254 96.2852 161.851 96.8831 161.851 97.6135V124.118C161.851 124.848 161.254 125.446 160.523 125.446Z" fill="#407BFF"/>
<path d="M60.7817 63.937L57.8491 70.0911C56.8799 72.143 55.9301 74.2054 55.0861 76.2497L54.7815 77.0136C54.7378 77.1332 54.7237 77.1567 54.6922 77.2572C54.6663 77.351 54.636 77.4374 54.613 77.5514C54.5148 77.98 54.4304 78.4931 54.373 79.0155C54.2595 80.0679 54.1957 81.1841 54.1557 82.3028C54.0769 84.5442 54.0555 86.8421 54.0268 89.1183L51.8121 89.3639C51.3059 87.0611 50.9382 84.7656 50.712 82.4054C50.6082 81.2237 50.5241 80.0356 50.5439 78.79C50.5556 78.1642 50.5746 77.5287 50.6817 76.8246C50.7035 76.6537 50.7439 76.4614 50.7819 76.2743C50.8195 76.0957 50.8914 75.8437 50.9378 75.6909L51.2142 74.8292C51.9704 72.5563 52.8496 70.3909 53.7751 68.2476C54.7075 66.1044 55.6897 64.0137 56.7595 61.9238L60.7817 63.937Z" fill="#FFC3BD"/>
<path d="M53.9949 88.4258L55.0288 90.3601L51.7257 91.2817C51.7257 91.2817 51.0966 89.7255 51.8456 88.4985L53.9949 88.4258Z" fill="#FFC3BD"/>
<path d="M56.2962 93.1482L53.2593 93.3882L51.7266 91.2809L55.0297 90.3594L56.2962 93.1482Z" fill="#FFC3BD"/>
<path d="M70.6694 47.9615C70.7171 48.1962 70.8799 48.3611 71.0334 48.3299C71.187 48.2988 71.2726 48.0835 71.2249 47.8488C71.1773 47.6141 71.0145 47.4492 70.8609 47.4803C70.7074 47.5114 70.6218 47.7272 70.6694 47.9615Z" fill="#263238"/>
<path d="M70.8574 48.3652C70.8574 48.3652 71.6658 49.61 72.3858 50.1436C72.0496 50.6155 71.3079 50.5816 71.3079 50.5816L70.8574 48.3652Z" fill="#ED847E"/>
<path d="M69.5448 46.8338C69.5828 46.8338 69.6203 46.8185 69.6478 46.7886C70.0688 46.3329 70.5701 46.4068 70.5912 46.41C70.6679 46.4217 70.7398 46.3704 70.7524 46.2941C70.7649 46.2177 70.714 46.1458 70.6376 46.1329C70.6114 46.128 69.969 46.027 69.4418 46.5979C69.3889 46.6549 69.3925 46.7437 69.4495 46.7967C69.4765 46.8213 69.5109 46.8338 69.5448 46.8338Z" fill="#263238"/>
<path d="M63.985 51.2617C64.4108 53.4328 64.8354 57.4114 63.3164 58.8602C63.3164 58.8602 63.9099 61.0628 67.9446 61.0628C72.381 61.0628 70.0648 58.8606 70.0648 58.8606C67.6436 58.2824 67.7063 56.4858 68.128 54.7991L63.985 51.2617Z" fill="#FFC3BD"/>
<path d="M62.3108 59.6293C61.9565 59.0011 61.5666 58.2824 62.3734 58.0569C63.261 57.8093 68.1195 57.5564 69.7949 58.0218C71.4703 58.4868 70.9952 59.7606 70.9952 59.7606L62.3108 59.6293Z" fill="#263238"/>
<path d="M49.7773 158.155C50.0803 158.189 50.3781 158.174 50.5078 158.038C50.5623 157.98 50.6124 157.877 50.5413 157.706C50.5041 157.616 50.4363 157.553 50.3397 157.519C49.9212 157.371 49.0445 157.841 49.0073 157.861C48.9831 157.874 48.9685 157.9 48.971 157.928C48.973 157.956 48.9912 157.98 49.017 157.989C49.1641 158.041 49.4731 158.123 49.7773 158.155ZM50.2076 157.633C50.2383 157.637 50.267 157.643 50.2924 157.652C50.3506 157.673 50.3894 157.708 50.4112 157.76C50.4617 157.882 50.4197 157.927 50.4056 157.941C50.2609 158.093 49.6586 158.031 49.2259 157.908C49.4974 157.779 49.9393 157.604 50.2076 157.633Z" fill="#407BFF"/>
<path d="M49.033 157.994C49.0443 157.995 49.0564 157.993 49.0673 157.989C49.3909 157.856 50.0515 157.274 50.0248 156.939C50.0199 156.878 49.9872 156.77 49.822 156.731C49.7149 156.706 49.6119 156.726 49.5149 156.789C49.1417 157.031 48.9784 157.875 48.972 157.911C48.9671 157.936 48.9764 157.962 48.9966 157.978C49.0067 157.987 49.0196 157.992 49.033 157.994ZM49.7064 156.954C49.7169 156.956 49.727 156.958 49.7375 156.961C49.8252 156.989 49.8256 157.031 49.8256 157.05C49.8268 157.249 49.3659 157.663 49.0237 157.836C49.1033 157.596 49.2863 157.122 49.5368 156.985C49.5937 156.954 49.6499 156.943 49.7064 156.954Z" fill="#407BFF"/>
<path d="M71.2111 160.984C71.592 160.984 71.9601 160.932 72.0833 160.761C72.1265 160.701 72.1605 160.599 72.0772 160.454C72.0308 160.372 71.9556 160.317 71.8546 160.289C71.3605 160.155 70.3235 160.746 70.2794 160.771C70.254 160.786 70.2403 160.815 70.2451 160.844C70.25 160.873 70.2722 160.895 70.3009 160.901C70.4903 160.939 70.8564 160.984 71.2111 160.984ZM71.6821 160.409C71.7314 160.409 71.7775 160.414 71.8179 160.425C71.8829 160.443 71.9278 160.474 71.9556 160.523C72.0053 160.61 71.9872 160.653 71.9694 160.678C71.8312 160.87 71.081 160.875 70.5295 160.797C70.8042 160.655 71.3351 160.409 71.6821 160.409Z" fill="#407BFF"/>
<path d="M70.3148 160.902C70.3245 160.902 70.3342 160.9 70.3435 160.896C70.7018 160.735 71.4112 160.093 71.3571 159.758C71.3442 159.679 71.2884 159.581 71.0953 159.561C70.9511 159.547 70.8206 159.587 70.7054 159.682C70.3277 159.992 70.2481 160.791 70.2445 160.825C70.2421 160.85 70.253 160.874 70.2736 160.889C70.2861 160.898 70.3006 160.902 70.3148 160.902ZM71.0391 159.699C71.0529 159.699 71.067 159.7 71.0816 159.701C71.208 159.714 71.2161 159.763 71.2185 159.78C71.2512 159.981 70.7689 160.485 70.4032 160.705C70.4412 160.472 70.5471 159.993 70.7951 159.79C70.8695 159.729 70.9499 159.699 71.0391 159.699Z" fill="#407BFF"/>
<path d="M67.0508 160.832H70.0186L70.3143 153.959H67.3465L67.0508 160.832Z" fill="#FFC3BD"/>
<path d="M45.6602 157.556L48.6106 157.877L50.8362 151.206L47.8858 150.885L45.6602 157.556Z" fill="#FFC3BD"/>
<path d="M48.8576 157.557L45.5427 157.197C45.4219 157.184 45.3084 157.256 45.2696 157.371L44.4018 159.93C44.3117 160.196 44.4976 160.477 44.7767 160.502C45.9362 160.608 46.5059 160.601 47.9635 160.76C48.8604 160.857 50.6978 161.151 51.9364 161.286C53.1476 161.418 53.4696 160.214 52.9747 160.048C50.7555 159.303 49.9738 158.524 49.3169 157.791C49.1981 157.659 49.0337 157.576 48.8576 157.557Z" fill="#263238"/>
<path d="M69.9992 160.488H66.7579C66.6367 160.488 66.5317 160.573 66.505 160.691L65.9188 163.329C65.8582 163.603 66.0654 163.862 66.3458 163.857C67.515 163.837 69.2045 163.769 70.6739 163.769C72.3921 163.769 73.876 163.862 75.8911 163.862C77.1096 163.862 77.4477 162.631 76.9379 162.519C74.6161 162.011 72.7205 161.957 70.7139 160.72C70.4961 160.585 70.2553 160.488 69.9992 160.488Z" fill="#263238"/>
<path d="M74.4266 60.3795C75.2674 60.6405 76.2071 60.9261 77.1096 61.1669C78.0235 61.4057 78.9361 61.6473 79.852 61.8461C81.6768 62.2561 83.5175 62.5769 85.2732 62.6593C85.7092 62.6779 86.1435 62.688 86.558 62.6666L86.8125 62.6561C86.8658 62.6589 86.9531 62.6415 87.0266 62.6351C87.189 62.61 87.3724 62.5704 87.5667 62.5248C88.3525 62.33 89.226 61.9943 90.093 61.6469C91.8293 60.9334 93.6126 60.104 95.3724 59.2988L96.6075 61.1536C95.0654 62.503 93.4611 63.7045 91.6859 64.7864C90.7943 65.3273 89.8756 65.8287 88.7893 66.2569C88.5149 66.3644 88.2245 66.4609 87.9065 66.5462C87.738 66.5862 87.5853 66.6294 87.3934 66.6597L87.1248 66.7037L86.9135 66.7288C86.3463 66.8003 85.7932 66.8302 85.2441 66.848C83.0533 66.8912 80.9739 66.6234 78.9393 66.2416C77.9249 66.0392 76.9197 65.8182 75.9299 65.5447C74.9292 65.2695 73.9762 64.9997 72.9492 64.6292L74.4266 60.3795Z" fill="#FFC3BD"/>
<path d="M58.0024 59.5302C55.2209 60.1677 52.4082 68.301 52.4082 68.301L58.1341 72.4081C58.1341 72.4081 59.7335 68.6198 61.3071 65.3074C62.9562 61.8366 60.8466 58.8781 58.0024 59.5302Z" fill="#407BFF"/>
<path opacity="0.3" d="M58.0024 59.5302C55.2209 60.1677 52.4082 68.301 52.4082 68.301L58.1341 72.4081C58.1341 72.4081 59.7335 68.6198 61.3071 65.3074C62.9562 61.8366 60.8466 58.8781 58.0024 59.5302Z" fill="black"/>
<path d="M74.6309 59.6848C74.6309 59.6848 77.7898 63.253 74.8067 85.3376C70.0237 85.3376 61.2597 85.3376 58.9323 85.3376C58.8228 82.9007 60.354 71.0134 58.0039 59.5317C58.0039 59.5317 60.7248 58.9855 63.3177 58.8607C65.3462 58.7629 68.2829 58.6983 70.0657 58.8611C72.4166 59.0756 74.6309 59.6848 74.6309 59.6848Z" fill="#407BFF"/>
<path opacity="0.3" d="M74.6309 59.6848C74.6309 59.6848 77.7898 63.253 74.8067 85.3376C70.0237 85.3376 61.2597 85.3376 58.9323 85.3376C58.8228 82.9007 60.354 71.0134 58.0039 59.5317C58.0039 59.5317 60.7248 58.9855 63.3177 58.8607C65.3462 58.7629 68.2829 58.6983 70.0657 58.8611C72.4166 59.0756 74.6309 59.6848 74.6309 59.6848Z" fill="black"/>
<path opacity="0.3" d="M74.6311 59.6834C74.6311 59.6834 74.2756 59.5864 73.6979 59.4531C71.9526 59.6349 71.1042 61.6428 71.5729 63.7274C71.9203 65.2788 74.1746 67.3998 76.0896 68.9633C76.0451 61.2832 74.6311 59.6834 74.6311 59.6834Z" fill="black"/>
<path d="M70.7495 64.2389C72.1663 66.6972 79.9199 69.0937 79.9199 69.0937L82.5209 62.1207C82.5209 62.1207 78.087 60.9204 74.6303 59.685C70.3601 58.1591 69.1949 61.5405 70.7495 64.2389Z" fill="#407BFF"/>
<path opacity="0.3" d="M70.7495 64.2389C72.1663 66.6972 79.9199 69.0937 79.9199 69.0937L82.5209 62.1207C82.5209 62.1207 78.087 60.9204 74.6303 59.685C70.3601 58.1591 69.1949 61.5405 70.7495 64.2389Z" fill="black"/>
<path d="M94.8809 59.9789L95.3745 56.8867L98.1137 57.6701C98.1137 57.6701 98.5233 60.4233 96.5199 61.235L94.8809 59.9789Z" fill="#FFC3BD"/>
<path d="M96.5499 54.1621L98.8604 56.1041L98.1122 57.6713L95.373 56.8875L96.5499 54.1621Z" fill="#FFC3BD"/>
<path opacity="0.2" d="M70.3147 153.961L70.1628 157.504H67.1934L67.3453 153.961H70.3147Z" fill="black"/>
<path opacity="0.2" d="M47.8853 150.887L50.8369 151.207L49.6884 154.646L46.7363 154.325L47.8853 150.887Z" fill="black"/>
<path d="M62.7411 49.0564C63.5038 51.9013 63.8052 53.6054 65.561 54.7883C68.2019 56.5679 71.4901 54.5257 71.5931 51.5099C71.6856 48.7954 70.4231 44.5986 67.3701 44.0254C64.3619 43.461 61.9787 46.2114 62.7411 49.0564Z" fill="#FFC3BD"/>
<path d="M69.4345 40.4959C69.4475 40.8449 69.2035 41.1605 68.8609 41.4489C68.7271 39.9565 68.1328 38.5179 66.8065 37.8242C67.0227 38.4589 66.3811 39.4673 65.4883 40.491C65.2657 39.7493 64.8237 39.1198 64.0755 38.7288C63.4695 41.0748 61.5279 41.463 59.9906 42.909C59.2481 43.6075 59.162 44.5916 59.4759 45.4784C59.0776 45.297 58.5908 45.3394 58.2441 46.2468C58.4478 46.1276 58.8324 45.9091 59.3559 45.9006C59.082 46.1604 58.8647 46.608 59.0255 47.6184C59.2974 49.3269 62.8081 54.4052 65.0269 54.1523C67.4703 53.8739 67.8965 51.0653 67.9543 48.5306C67.9858 48.5145 68.0145 48.5031 68.0468 48.4858C69.7262 47.578 71.8012 42.8039 69.4345 40.4959Z" fill="#263238"/>
<path d="M66.8006 49.1031C67.1105 49.8097 67.6971 50.3656 68.2647 50.6609C69.1184 51.1053 69.5983 50.4552 69.4052 49.6012C69.2315 48.8324 68.5774 47.6745 67.6991 47.5796C66.8342 47.4867 66.4463 48.2955 66.8006 49.1031Z" fill="#FFC3BD"/>
<path d="M69.1748 85.3379C69.1748 85.3379 65.8066 108.019 63.9575 116.517C61.9327 125.822 51.2836 154.314 51.2836 154.314L45.9375 153.331C45.9375 153.331 53.8987 126.573 55.0542 117.36C56.3082 107.361 58.9318 85.3379 58.9318 85.3379H69.1748Z" fill="#407BFF"/>
<path opacity="0.2" d="M67.0454 93.419C63.1508 94.1826 63.5629 108.706 64.0315 116.176C65.1547 110.896 66.7989 100.735 67.9221 93.524C67.6635 93.3948 67.3726 93.3544 67.0454 93.419Z" fill="black"/>
<path d="M74.8076 85.3379C74.8076 85.3379 75.2164 107.528 74.8936 116.579C74.5579 125.993 71.2697 156.818 71.2697 156.818H66.242C66.242 156.818 66.0573 126.543 65.8339 117.298C65.5899 107.219 64.373 85.3383 64.373 85.3383H74.8076V85.3379Z" fill="#407BFF"/>
<path opacity="0.2" d="M70.4224 153.176L70.2051 153.153C71.0906 144.624 73.1797 123.988 73.4439 116.59C73.7146 109.01 73.469 92.0761 73.387 87.0669L73.6068 87.041C73.6884 92.0526 73.9344 108.995 73.6637 116.586C73.3987 123.996 71.3088 144.643 70.4224 153.176Z" fill="black"/>
<path d="M52.4994 152.5C52.5225 152.504 51.5698 154.451 51.5698 154.451L45.5547 153.345L46.0019 151.533L52.4994 152.5Z" fill="#407BFF"/>
<path opacity="0.5" d="M52.4994 152.5C52.5225 152.504 51.5698 154.451 51.5698 154.451L45.5547 153.345L46.0019 151.533L52.4994 152.5Z" fill="black"/>
<path d="M72.2349 154.814C72.258 154.814 71.9513 156.902 71.9513 156.902H65.8352L65.6699 155.039L72.2349 154.814Z" fill="#407BFF"/>
<path opacity="0.5" d="M72.2349 154.814C72.258 154.814 71.9513 156.902 71.9513 156.902H65.8352L65.6699 155.039L72.2349 154.814Z" fill="black"/>
</g>
<defs>
<clipPath id="clip0_497_9873">
<rect width="193" height="193" fill="white"/>
</clipPath>
</defs>
</svg>
