<svg width="193" height="193" viewBox="0 0 193 193" fill="none" xmlns="http://www.w3.org/2000/svg">
<g clip-path="url(#clip0_497_9749)">
<path d="M184.956 162.338H170.383V162.448H184.956V162.338Z" fill="#EBEBEB"/>
<path d="M132.737 163.531H128.912V163.641H132.737V163.531Z" fill="#EBEBEB"/>
<path d="M169.943 158.252H161.498V158.362H169.943V158.252Z" fill="#EBEBEB"/>
<path d="M29.087 158.99H10.082V159.1H29.087V158.99Z" fill="#EBEBEB"/>
<path d="M35.7904 158.99H33.0039V159.1H35.7904V158.99Z" fill="#EBEBEB"/>
<path d="M86.0651 160.85H44.8477V160.96H86.0651V160.85Z" fill="#EBEBEB"/>
<path d="M91.897 135.632H6.93339C5.54871 135.632 4.42188 134.505 4.42188 133.12V13.6902C4.42188 12.3056 5.54871 11.1787 6.93339 11.1787H91.897C93.2812 11.1787 94.4081 12.3056 94.4081 13.6902V133.12C94.4081 134.505 93.2812 135.632 91.897 135.632ZM6.93339 11.2892C5.60899 11.2892 4.53188 12.3663 4.53188 13.6907V133.121C4.53188 134.445 5.60899 135.522 6.93339 135.522H91.897C93.2209 135.522 94.2981 134.445 94.2981 133.121V13.6902C94.2981 12.3663 93.2209 11.2887 91.897 11.2887L6.93339 11.2892Z" fill="#EBEBEB"/>
<path d="M187.068 135.632H102.105C100.721 135.632 99.5938 134.505 99.5938 133.12V13.6902C99.5938 12.3056 100.721 11.1787 102.105 11.1787H187.068C188.454 11.1787 189.58 12.3056 189.58 13.6902V133.12C189.58 134.505 188.453 135.632 187.068 135.632ZM102.105 11.2892C100.781 11.2892 99.7038 12.3663 99.7038 13.6907V133.121C99.7038 134.445 100.781 135.522 102.105 135.522H187.068C188.393 135.522 189.47 134.445 189.47 133.121V13.6902C189.47 12.3663 188.393 11.2887 187.068 11.2887L102.105 11.2892Z" fill="#EBEBEB"/>
<path d="M207 155.256H-13V155.366H207V155.256Z" fill="#EBEBEB"/>
<path d="M39.5058 125.489C39.134 121.24 34.7961 119.649 29.6555 120.099C24.5155 120.549 20.5194 122.869 20.8912 127.118L39.5058 125.489Z" fill="#F0F0F0"/>
<path d="M29.485 118.157C31.8707 117.948 32.6323 115.933 32.4233 113.547C32.2148 111.161 31.1148 109.309 28.7291 109.518C26.3434 109.727 25.5818 111.742 25.7908 114.127C25.9994 116.513 27.0993 118.366 29.485 118.157Z" fill="#F0F0F0"/>
<path d="M136.644 34.9469C136.76 36.2625 135.786 37.4224 134.471 37.5372C133.155 37.6525 131.995 36.6792 131.88 35.3636C131.765 34.048 132.738 32.8882 134.054 32.7729C135.37 32.658 136.529 33.6313 136.644 34.9469Z" fill="#F5F5F5"/>
<path d="M149.877 33.7887C149.992 35.1043 149.019 36.2641 147.704 36.379C146.388 36.4943 145.228 35.521 145.113 34.2054C144.998 32.8898 145.971 31.73 147.286 31.6147C148.602 31.4998 149.762 32.4731 149.877 33.7887Z" fill="#F5F5F5"/>
<path d="M163.11 32.6321C163.225 33.9477 162.252 35.1075 160.936 35.2228C159.62 35.3381 158.46 34.3648 158.345 33.0492C158.23 31.7336 159.203 30.5738 160.519 30.4585C161.834 30.3432 162.994 31.3165 163.11 32.6321Z" fill="#F5F5F5"/>
<path d="M137.824 48.4345C137.94 49.7501 136.966 50.9099 135.651 51.0252C134.335 51.1405 133.175 50.1672 133.06 48.8516C132.945 47.536 133.918 46.3761 135.234 46.2613C136.55 46.1456 137.71 47.1184 137.824 48.4345Z" fill="#F5F5F5"/>
<path d="M151.057 47.2766C151.172 48.5922 150.199 49.752 148.883 49.8673C147.568 49.9826 146.408 49.0093 146.292 47.6937C146.177 46.3781 147.15 45.2182 148.466 45.103C149.782 44.9881 150.942 45.9614 151.057 47.2766Z" fill="#F5F5F5"/>
<path d="M164.289 46.1187C164.404 47.4343 163.431 48.5942 162.116 48.709C160.8 48.8243 159.64 47.851 159.525 46.5354C159.41 45.2198 160.383 44.06 161.698 43.9447C163.014 43.8303 164.174 44.8036 164.289 46.1187Z" fill="#F5F5F5"/>
<path d="M139.006 61.9212C139.121 63.2368 138.148 64.3966 136.832 64.5119C135.516 64.6272 134.357 63.6539 134.242 62.3383C134.126 61.0227 135.1 59.8628 136.415 59.7476C137.73 59.6323 138.89 60.6056 139.006 61.9212Z" fill="#F5F5F5"/>
<path d="M152.236 60.7645C152.352 62.0801 151.378 63.24 150.063 63.3553C148.747 63.4705 147.587 62.4973 147.472 61.1817C147.357 59.8661 148.33 58.7062 149.646 58.5914C150.961 58.4756 152.121 59.4489 152.236 60.7645Z" fill="#F5F5F5"/>
<path d="M165.469 59.6067C165.584 60.9223 164.611 62.0821 163.295 62.197C161.98 62.3118 160.82 61.339 160.705 60.0234C160.589 58.7078 161.563 57.5479 162.878 57.4331C164.194 57.3178 165.354 58.2911 165.469 59.6067Z" fill="#F5F5F5"/>
<path d="M162.611 60.3826L135.425 62.7613L159.529 33.4718L134.832 35.6326C134.543 35.6577 134.289 35.4443 134.264 35.1557C134.239 34.867 134.452 34.6127 134.741 34.5876L161.927 32.209L137.822 61.4985L162.52 59.3376C162.808 59.3125 163.063 59.5259 163.088 59.8141C163.113 60.1028 162.899 60.3575 162.611 60.3826Z" fill="#E6E6E6"/>
<path d="M163.026 112.666C162.937 112.407 162.705 112.215 162.431 112.197C161.184 112.113 160.131 111.647 159.297 110.809C158.21 109.718 157.57 108.056 157.467 106.084C157.448 105.716 157.14 105.43 156.772 105.428C156.364 105.425 156.04 105.769 156.062 106.176C156.187 108.489 156.969 110.468 158.299 111.803C159.338 112.847 160.678 113.458 162.204 113.591C162.231 113.593 162.265 113.596 162.305 113.599C162.811 113.639 163.193 113.146 163.026 112.666Z" fill="#F0F0F0"/>
<path d="M161.621 121.113C155.789 120.602 151.584 116.628 150.253 110.425C150.168 110.03 150.42 109.641 150.819 109.571C151.187 109.508 151.547 109.741 151.625 110.106C152.817 115.684 156.561 119.256 161.743 119.71C167.426 120.207 173.531 116.468 174.624 107.041C174.668 106.66 175.001 106.377 175.384 106.411C175.776 106.445 176.07 106.795 176.024 107.186C174.976 116.073 169.133 121.77 161.621 121.113Z" fill="#F0F0F0"/>
<path d="M150.619 104.244C150.227 104.209 149.933 103.86 149.979 103.469C151.027 94.5809 156.872 88.8847 164.383 89.5416C170.965 90.1176 175.403 95.0451 176.094 102.468C176.131 102.86 175.827 103.201 175.434 103.225H175.433C175.049 103.248 174.726 102.958 174.689 102.576C174.055 95.8886 170.105 91.4556 164.26 90.9443C158.577 90.4471 152.472 94.1858 151.379 103.613C151.335 103.995 151.002 104.277 150.619 104.244Z" fill="#F0F0F0"/>
<path d="M161.908 117.342C160.824 117.247 159.807 116.994 158.873 116.587C158.494 116.421 158.337 115.963 158.536 115.6C158.708 115.282 159.094 115.145 159.425 115.291C160.302 115.676 161.272 115.903 162.317 115.96C166.628 116.207 171.177 113.154 171.623 105.777C171.897 101.233 170.341 97.5631 167.435 95.8079C167.124 95.6196 167.008 95.2258 167.169 94.8993C167.351 94.5284 167.814 94.3916 168.168 94.605C171.53 96.6351 173.336 100.777 173.029 105.862C172.599 112.975 168.161 117.706 162.236 117.367C162.126 117.36 162.016 117.352 161.908 117.342Z" fill="#F0F0F0"/>
<path d="M155.637 112.953C155.296 113.186 154.83 113.077 154.624 112.72C153.376 110.562 152.793 107.78 152.974 104.792C153.385 97.9875 157.465 93.3627 163.005 93.2716C163.416 93.265 163.748 93.6086 163.725 94.0191V94.0209C163.704 94.3865 163.406 94.6743 163.04 94.6813C158.931 94.7623 154.804 97.8678 154.38 104.877C154.215 107.598 154.736 110.109 155.852 112.029C156.035 112.345 155.938 112.747 155.637 112.953Z" fill="#F0F0F0"/>
<path d="M165.256 112.377C165.113 112.051 165.238 111.675 165.544 111.491C167.394 110.377 168.531 108.038 168.55 105.22C168.565 102.963 167.91 101.053 166.705 99.8431C165.776 98.9094 164.574 98.4395 163.134 98.4421C160.965 98.4478 159.208 99.6363 158.235 101.728C158.082 102.057 157.701 102.212 157.36 102.087C156.972 101.944 156.788 101.498 156.963 101.124C158.167 98.5547 160.425 97.0407 163.13 97.0332C164.934 97.0306 166.515 97.6567 167.703 98.8491C169.175 100.327 169.976 102.593 169.958 105.23C169.935 108.555 168.534 111.343 166.253 112.708C165.894 112.922 165.425 112.761 165.256 112.377Z" fill="#F0F0F0"/>
<path d="M160.187 107.205C159.787 107.366 159.34 107.133 159.237 106.715C159.191 106.524 159.152 106.328 159.122 106.126C158.723 103.493 160.139 101.2 162.414 100.794C163.588 100.583 164.636 100.859 165.436 101.574C165.761 101.864 165.736 102.382 165.381 102.636L165.337 102.667C165.071 102.858 164.719 102.815 164.471 102.601C163.993 102.191 163.387 102.05 162.662 102.18C160.928 102.49 160.269 104.294 160.514 105.915C160.538 106.073 160.568 106.226 160.604 106.373C160.688 106.719 160.517 107.072 160.187 107.205Z" fill="#F0F0F0"/>
<path d="M162.515 109.914C162.513 109.914 162.511 109.914 162.509 109.914C162.024 109.871 161.756 109.327 162.015 108.914L162.074 108.818C162.204 108.611 162.436 108.498 162.68 108.515C162.888 108.529 163.109 108.516 163.34 108.474C164.854 108.203 165.549 106.793 165.537 105.361C165.534 105.003 165.782 104.694 166.135 104.641C166.548 104.578 166.939 104.886 166.946 105.304C166.988 107.599 165.637 109.495 163.588 109.861C163.218 109.927 162.859 109.945 162.515 109.914Z" fill="#F0F0F0"/>
<path d="M162.827 107.315C162.078 107.249 161.519 106.744 161.316 106.023C161.198 105.605 161.549 105.2 161.981 105.238L162.143 105.252C162.393 105.274 162.6 105.446 162.684 105.683C162.725 105.8 162.803 105.899 162.95 105.912C163.288 105.941 163.347 105.456 163.356 105.358C163.362 105.289 163.377 105.019 163.262 104.86C163.149 104.704 163.071 104.526 163.088 104.334C163.143 103.708 163.934 103.457 164.333 103.942C164.65 104.329 164.813 104.869 164.759 105.481C164.659 106.632 163.846 107.404 162.827 107.315Z" fill="#F0F0F0"/>
<path d="M149.596 91.5671C149.208 91.5332 148.922 91.1918 148.956 90.8042L149.49 84.7031L155.591 85.2369C155.978 85.2707 156.265 85.6122 156.231 85.9998C156.197 86.3874 155.855 86.6739 155.468 86.64L150.77 86.229L150.359 90.9269C150.325 91.3146 149.983 91.601 149.596 91.5671Z" fill="#F0F0F0"/>
<path d="M178.605 94.1058C178.218 94.0719 177.931 93.7305 177.965 93.3428L178.376 88.645L173.678 88.234C173.29 88.2001 173.004 87.8587 173.038 87.471C173.072 87.0834 173.413 86.797 173.801 86.8308L179.902 87.3646L179.368 93.4656C179.334 93.8533 178.993 94.1397 178.605 94.1058Z" fill="#F0F0F0"/>
<path d="M176.441 126.906L170.34 126.372C169.953 126.338 169.666 125.997 169.7 125.609C169.734 125.221 170.075 124.935 170.463 124.969L175.161 125.38L175.572 120.682C175.606 120.294 175.947 120.008 176.335 120.042C176.722 120.076 177.009 120.417 176.975 120.805L176.441 126.906Z" fill="#F0F0F0"/>
<path d="M152.13 124.78L146.029 124.246L146.563 118.145C146.597 117.757 146.938 117.471 147.326 117.505C147.714 117.539 148 117.88 147.966 118.268L147.555 122.966L152.253 123.376C152.641 123.41 152.927 123.752 152.893 124.139C152.859 124.527 152.518 124.814 152.13 124.78Z" fill="#F0F0F0"/>
<path d="M19.8813 111.576C19.6432 111.597 19.4329 111.421 19.4122 111.182L19.084 107.431L22.835 107.103C23.0735 107.083 23.2833 107.259 23.304 107.497C23.3247 107.735 23.1487 107.945 22.9102 107.966L20.0216 108.219L20.2742 111.107C20.2957 111.346 20.1193 111.556 19.8813 111.576Z" fill="#E0E0E0"/>
<path d="M37.7176 110.016C37.4796 110.037 37.2692 109.861 37.2486 109.622L36.996 106.733L34.1074 106.986C33.8694 107.007 33.659 106.831 33.6384 106.592C33.6177 106.354 33.7937 106.144 34.0322 106.123L37.7832 105.795L38.1114 109.546C38.1321 109.785 37.9561 109.995 37.7176 110.016Z" fill="#E0E0E0"/>
<path d="M39.5654 126.168L35.8144 126.496C35.5764 126.517 35.3661 126.341 35.3454 126.102C35.3247 125.864 35.5007 125.654 35.7392 125.633L38.6278 125.381L38.3752 122.492C38.3546 122.254 38.5306 122.044 38.769 122.023C39.0071 122.002 39.2174 122.178 39.2381 122.417L39.5654 126.168Z" fill="#E0E0E0"/>
<path d="M24.618 127.476L20.867 127.804L20.5388 124.053C20.5181 123.815 20.6941 123.604 20.9326 123.584C21.1706 123.563 21.3809 123.739 21.4016 123.977L21.6542 126.866L24.5428 126.614C24.7808 126.593 24.9911 126.769 25.0118 127.007C25.0325 127.245 24.856 127.455 24.618 127.476Z" fill="#E0E0E0"/>
<path d="M37.4166 49.0172L23.059 50.2734L22.765 46.9136C22.4601 43.4279 25.0478 40.3444 28.533 40.0395C32.0187 39.7346 35.1022 42.3222 35.4071 45.8074L35.5778 47.7597L37.6493 47.5784L37.4786 45.6262C37.0738 40.9982 32.9796 37.5632 28.3517 37.968C23.7238 38.3728 20.2887 42.4669 20.6935 47.0949L20.9892 50.4741C19.3185 50.7997 18.1292 52.3406 18.2806 54.0737L19.3062 65.7966C19.4686 67.6503 21.1027 69.0214 22.9564 68.8595L39.0296 67.4532C40.8833 67.2913 42.2544 65.6571 42.0925 63.8034L41.0668 52.0805C40.9045 50.2264 39.2703 48.8549 37.4166 49.0172ZM31.3178 58.0504L31.6711 62.087C31.7292 62.7496 31.239 63.3335 30.5764 63.3916C29.9137 63.4497 29.3298 62.9595 29.2718 62.2969L28.9184 58.2603C28.3913 57.9356 28.0151 57.3799 27.957 56.7155C27.8594 55.6001 28.6848 54.6167 29.8002 54.519C30.9156 54.4213 31.899 55.2468 31.9967 56.3622C32.0543 57.0261 31.7802 57.639 31.3178 58.0504Z" fill="#EBEBEB"/>
<path d="M61.9956 55.8127L60.544 53.4464C59.7577 53.555 59.1144 53.555 58.3282 53.4464L56.8766 55.8127L56.5981 55.7388C55.6626 55.4902 54.7602 55.1153 53.9163 54.6256L53.6668 54.4808L54.2824 51.9121C54.3321 51.704 54.5411 51.5759 54.7492 51.6256C54.9573 51.6754 55.0854 51.8844 55.0352 52.0925L54.5547 54.0962C55.1817 54.4377 55.8408 54.7114 56.5202 54.9129L57.9379 52.6011L58.1944 52.6429C59.0163 52.7771 59.855 52.7771 60.6769 52.6429L60.9334 52.6011L62.3511 54.9129C63.0304 54.7109 63.6896 54.4377 64.3166 54.0962L63.6856 51.4628L63.8968 51.3115C64.4723 50.8979 64.9854 50.409 65.4258 49.856C65.5565 49.6914 65.7892 49.6527 65.9595 49.7754C66.1364 49.9026 66.1778 50.1534 66.0427 50.3241C65.6097 50.8706 65.1125 51.3599 64.559 51.784L65.2054 54.4808L64.9563 54.6256C64.1124 55.1153 63.21 55.4902 62.2745 55.7388L61.9956 55.8127ZM53.0988 50.6466C52.9769 50.5072 52.859 50.3637 52.7459 50.2163L50.0487 50.8622L49.9039 50.6132C49.4142 49.7693 49.0393 48.8668 48.7907 47.9314L48.7168 47.6529L51.0831 46.2013C51.0286 45.8071 51.0022 45.4428 51.0022 45.0934C51.0022 44.7445 51.029 44.3797 51.0831 43.9855L48.7168 42.5344L48.7907 42.2558C49.0393 41.3204 49.4142 40.418 49.9039 39.574L50.0487 39.325L52.7454 39.9709C53.1973 39.3813 53.7231 38.856 54.3127 38.4036L53.8234 36.3629C53.7737 36.1552 53.9018 35.9467 54.109 35.897L54.1103 35.8965C54.318 35.8468 54.5266 35.9748 54.5763 36.1821L55.1852 38.7244L54.9723 38.8775C54.2964 39.3642 53.7038 39.9568 53.2176 40.6327L53.0658 40.8434L50.4324 40.2125C50.0914 40.8395 49.8181 41.4986 49.6162 42.178L51.927 43.5952L51.8852 43.8517C51.8113 44.3054 51.7752 44.7115 51.7752 45.093C51.7752 45.4753 51.8113 45.881 51.8852 46.3342L51.927 46.5903L49.6157 48.0084C49.8172 48.6882 50.0909 49.3469 50.4319 49.9739L53.0653 49.3429L53.2171 49.5537C53.3601 49.7526 53.5137 49.9457 53.6756 50.131C53.8102 50.285 53.8067 50.5151 53.6593 50.6572L53.6452 50.6708C53.4904 50.8218 53.2413 50.8094 53.0988 50.6466ZM68.823 50.8627L67.8286 50.6246C67.6205 50.5749 67.4925 50.3659 67.5422 50.1578C67.5919 49.9501 67.8009 49.8216 68.009 49.8714L68.4385 49.9743C68.7795 49.3473 69.0527 48.6882 69.2547 48.0088L66.9434 46.5907L66.9852 46.3346C67.0591 45.8814 67.0952 45.4753 67.0952 45.0934C67.0952 44.7115 67.0591 44.3058 66.9852 43.8522L66.9434 43.5956L69.2542 42.1784C69.0527 41.4986 68.779 40.8399 68.438 40.2129L65.8046 40.8439L65.6528 40.6331C65.1666 39.9573 64.574 39.3646 63.8981 38.878L63.6852 38.7248L64.3161 36.0914C63.6891 35.7504 63.03 35.4768 62.3506 35.2748L60.933 37.5861L60.6764 37.5448C59.8541 37.4114 59.0154 37.4114 58.1931 37.5448L57.937 37.5861L56.5193 35.2752C56.4313 35.3012 56.3433 35.3289 56.2553 35.3575C56.0591 35.4218 55.8479 35.3162 55.777 35.1226C55.7022 34.9188 55.8083 34.6892 56.0142 34.6218C56.2074 34.5585 56.4023 34.5008 56.5963 34.4494L56.8753 34.375L58.3268 36.7418C59.1166 36.6322 59.7524 36.6322 60.5422 36.7418L61.9938 34.375L62.2728 34.4489C63.2082 34.698 64.1106 35.0728 64.9546 35.5621L65.2036 35.7069L64.5572 38.4041C65.1468 38.8564 65.6726 39.3818 66.1245 39.9714L68.8213 39.3254L68.966 39.5745C69.4558 40.4184 69.8306 41.3208 70.0792 42.2563L70.1532 42.5348L67.7868 43.9859C67.8414 44.3802 67.8678 44.7449 67.8678 45.0938C67.8678 45.4432 67.841 45.8075 67.7868 46.2018L70.1532 47.6533L70.0792 47.9318C69.8306 48.8673 69.4558 49.7697 68.966 50.6136L68.823 50.8627ZM59.3274 48.8638C57.3615 48.8083 55.722 47.1698 55.6657 45.2038C55.609 43.2225 57.0896 41.5677 59.0005 41.3472C59.2315 41.3204 59.4361 41.5012 59.4361 41.734C59.4361 41.9294 59.2904 42.0935 59.0964 42.1155C57.4112 42.3064 56.1453 43.9001 56.4982 45.6971C56.7274 46.864 57.6677 47.8042 58.835 48.0322C60.7504 48.4066 62.4338 46.9432 62.4338 45.0934C62.4338 44.4743 62.2428 43.875 61.8913 43.373C61.7804 43.2146 61.8103 42.9981 61.9555 42.8701C62.1293 42.7165 62.4004 42.7486 62.5328 42.9392C62.9706 43.5684 63.2082 44.3186 63.2082 45.0934C63.2073 47.2094 61.4566 48.9236 59.3274 48.8638Z" fill="#F0F0F0"/>
<path d="M34.6583 88.0202L33.7207 86.4917C33.2129 86.5621 32.7971 86.5621 32.2894 86.4917L31.3517 88.0202L31.1718 87.9723C30.5672 87.8117 29.9842 87.5697 29.439 87.2529L29.278 87.1592L29.6758 85.4995C29.7079 85.3653 29.843 85.2821 29.9772 85.3147C30.1114 85.3468 30.1941 85.4819 30.162 85.6161L29.8518 86.9106C30.257 87.131 30.6825 87.3079 31.1216 87.4381L32.0372 85.9448L32.2031 85.972C32.7342 86.0587 33.2758 86.0587 33.8069 85.972L33.9728 85.9448L34.8889 87.4381C35.328 87.3079 35.7535 87.131 36.1587 86.9106L35.7508 85.2095L35.8872 85.1114C36.259 84.8443 36.5904 84.5284 36.875 84.1711C36.9595 84.0651 37.11 84.04 37.22 84.1192C37.334 84.2015 37.3608 84.3634 37.2737 84.4738C36.9938 84.8267 36.6726 85.1431 36.3149 85.4172L36.7325 87.1592L36.5714 87.2529C36.0263 87.5692 35.4433 87.8112 34.8387 87.9723L34.6583 88.0202ZM28.9106 84.6833C28.8318 84.5931 28.7557 84.5007 28.6827 84.4052L26.9403 84.8228L26.847 84.6617C26.5306 84.1166 26.2886 83.5336 26.128 82.929L26.0801 82.749L27.6086 81.8114C27.5734 81.5566 27.5563 81.3212 27.5563 81.0955C27.5563 80.8702 27.5734 80.6344 27.6086 80.3796L26.0801 79.442L26.128 79.262C26.2886 78.6575 26.5306 78.0749 26.847 77.5293L26.9403 77.3683L28.6827 77.7858C28.9744 77.4048 29.3141 77.0656 29.6951 76.7734L29.3792 75.4552C29.3471 75.321 29.4298 75.1863 29.5636 75.1542L29.5644 75.1538C29.6986 75.1216 29.8333 75.2044 29.8654 75.3386L30.2588 76.9811L30.121 77.0801C29.6846 77.3942 29.3018 77.777 28.9876 78.214L28.8895 78.3504L27.188 77.9429C26.968 78.3482 26.7911 78.7736 26.6609 79.2128L28.1538 80.1284L28.127 80.2943C28.079 80.5873 28.0561 80.8496 28.0561 81.0964C28.0561 81.3432 28.0794 81.6055 28.127 81.8985L28.1542 82.064L26.6613 82.98C26.7916 83.4192 26.9684 83.8446 27.1884 84.2499L28.8899 83.8424L28.988 83.9788C29.0804 84.1073 29.1794 84.2323 29.2842 84.352C29.3713 84.4514 29.3686 84.6001 29.2736 84.6916L29.2644 84.7004C29.1636 84.7959 29.003 84.788 28.9106 84.6833ZM39.0689 84.8223L38.4265 84.6688C38.2923 84.6366 38.2091 84.5016 38.2412 84.3674C38.2734 84.2332 38.4084 84.1504 38.5426 84.1826L38.8203 84.249C39.0403 83.8438 39.2172 83.4183 39.3474 82.9792L37.8545 82.0631L37.8818 81.8976C37.9293 81.605 37.9526 81.3424 37.9526 81.0955C37.9526 80.8487 37.9293 80.5864 37.8818 80.2934L37.8549 80.1275L39.3478 79.2119C39.2176 78.7728 39.0407 78.3473 38.8207 77.942L37.1192 78.3495L37.0211 78.2131C36.707 77.7766 36.3242 77.3934 35.8877 77.0792L35.75 76.9802L36.1578 75.2787C35.7526 75.0583 35.3271 74.8818 34.888 74.7512L33.9724 76.2441L33.8069 76.2172C33.2758 76.131 32.7342 76.131 32.2027 76.2172L32.0372 76.2441L31.1216 74.7512C31.0648 74.7679 31.0076 74.7859 30.9513 74.8044C30.8246 74.8458 30.6882 74.7776 30.6424 74.6526C30.594 74.521 30.6627 74.3728 30.7956 74.3292C30.9205 74.2883 31.0464 74.2509 31.1713 74.2179L31.3517 74.1699L32.2894 75.6989C32.7998 75.6281 33.2103 75.6281 33.7207 75.6989L34.6583 74.1699L34.8383 74.2179C35.4424 74.3789 36.0254 74.6209 36.571 74.9368L36.732 75.0306L36.3145 76.773C36.6955 77.0651 37.0348 77.4044 37.3269 77.7854L39.0693 77.3678L39.1626 77.5289C39.479 78.074 39.721 78.657 39.8816 79.2616L39.9295 79.4416L38.401 80.3792C38.4362 80.634 38.4533 80.8694 38.4533 81.0951C38.4533 81.3208 38.4362 81.5562 38.401 81.811L39.9295 82.7486L39.8816 82.9286C39.721 83.5331 39.479 84.1161 39.1626 84.6613L39.0689 84.8223ZM32.9348 83.5309C31.6646 83.4953 30.6059 82.4366 30.5694 81.1664C30.5324 79.8864 31.489 78.8172 32.7236 78.6746C32.8728 78.6575 33.0048 78.7745 33.0048 78.9246C33.0048 79.0508 32.9106 79.1569 32.7852 79.171C31.6967 79.2942 30.8787 80.3238 31.1066 81.4849C31.2545 82.2386 31.8621 82.8463 32.6163 82.9937C33.8536 83.2357 34.9412 82.2901 34.9412 81.0951C34.9412 80.6951 34.818 80.3079 34.591 79.9836C34.5193 79.8816 34.5386 79.7412 34.6324 79.6585C34.745 79.559 34.9197 79.5802 35.0055 79.7034C35.2884 80.1099 35.442 80.5944 35.442 81.0951C35.4411 82.4622 34.3098 83.5701 32.9348 83.5309Z" fill="#E6E6E6"/>
<path d="M96.9987 174.888C144.115 174.888 182.31 172.657 182.31 169.906C182.31 167.154 144.115 164.924 96.9987 164.924C49.8826 164.924 11.6875 167.154 11.6875 169.906C11.6875 172.657 49.8826 174.888 96.9987 174.888Z" fill="#F5F5F5"/>
<path d="M146.918 51.1641H132.591L122.457 166.994H136.784C140.858 166.994 144.463 163.679 144.819 159.605L153.66 58.553C154.016 54.4786 150.992 51.1641 146.918 51.1641Z" fill="#407BFF"/>
<path d="M143.994 51.1641H95.5063C91.4319 51.1641 87.8274 54.4786 87.471 58.553L78.6301 159.605C78.2737 163.679 81.2983 166.994 85.3727 166.994H133.86C137.935 166.994 141.539 163.679 141.895 159.605L150.736 58.553C151.093 54.4786 148.068 51.1641 143.994 51.1641Z" fill="#407BFF"/>
<path opacity="0.3" d="M143.994 51.1641H95.5063C91.4319 51.1641 87.8274 54.4786 87.471 58.553L78.6301 159.605C78.2737 163.679 81.2983 166.994 85.3727 166.994H133.86C137.935 166.994 141.539 163.679 141.895 159.605L150.736 58.553C151.093 54.4786 148.068 51.1641 143.994 51.1641Z" fill="white"/>
<path opacity="0.4" d="M143.785 53.5312H131.002C130.247 53.5312 129.539 54.0262 129.26 54.7487C128.226 57.4195 125.609 59.2486 122.822 59.2486H115.262C112.474 59.2486 110.176 57.4191 109.61 54.7487C109.457 54.0262 108.836 53.5317 108.082 53.5317H95.2978C92.5245 53.5317 90.0798 55.7796 89.8369 58.553L80.996 159.605C80.7536 162.378 82.8049 164.626 85.5782 164.626H134.066C136.839 164.626 139.284 162.378 139.527 159.605L148.367 58.553C148.61 55.7796 146.559 53.5312 143.785 53.5312Z" fill="white"/>
<path d="M131.707 108.421H97.7729C96.7666 108.421 96.0226 107.605 96.1106 106.599L96.2804 104.658C96.3684 103.651 97.2555 102.836 98.2617 102.836H132.196C133.203 102.836 133.947 103.652 133.859 104.658L133.689 106.599C133.601 107.605 132.714 108.421 131.707 108.421Z" fill="white"/>
<path d="M130.975 116.8H97.0405C96.0342 116.8 95.2902 115.984 95.3782 114.978L95.548 113.036C95.636 112.03 96.523 111.215 97.5293 111.215H131.464C132.47 111.215 133.214 112.031 133.126 113.036L132.956 114.978C132.868 115.984 131.981 116.8 130.975 116.8Z" fill="white"/>
<path opacity="0.1" d="M121.396 55.4243C121.298 56.5402 120.315 57.4444 119.199 57.4444C118.083 57.4444 117.258 56.5402 117.356 55.4243C117.453 54.3085 118.437 53.4043 119.552 53.4043C120.668 53.4043 121.493 54.3085 121.396 55.4243Z" fill="black"/>
<path opacity="0.1" d="M120.479 55.4238C120.426 56.0332 119.889 56.5273 119.279 56.5273C118.67 56.5273 118.219 56.0332 118.272 55.4238C118.325 54.8144 118.862 54.3203 119.472 54.3203C120.082 54.3203 120.533 54.8144 120.479 55.4238Z" fill="black"/>
<g opacity="0.8">
<path d="M137.818 58.7929C137.491 58.7929 137.249 58.528 137.278 58.2011L137.372 57.1191C137.401 56.7922 137.689 56.5273 138.016 56.5273C138.343 56.5273 138.585 56.7922 138.556 57.1191L138.462 58.2011C138.433 58.528 138.145 58.7929 137.818 58.7929Z" fill="white"/>
<path d="M142.552 58.7932C142.225 58.7932 141.983 58.5283 142.012 58.2014L142.234 55.6621C142.263 55.3352 142.551 55.0703 142.878 55.0703C143.205 55.0703 143.447 55.3352 143.418 55.6621L143.196 58.2014C143.167 58.5283 142.879 58.7932 142.552 58.7932Z" fill="white"/>
<path d="M140.185 58.793C139.858 58.793 139.616 58.5282 139.645 58.2012L139.803 56.3906C139.832 56.0637 140.12 55.7988 140.447 55.7988C140.774 55.7988 141.016 56.0637 140.987 56.3906L140.829 58.2012C140.8 58.5282 140.512 58.793 140.185 58.793Z" fill="white"/>
</g>
<g opacity="0.8">
<path d="M97.2793 58.7938H94.3071C94.1219 58.7938 93.985 58.6437 94.0013 58.4585L94.1408 56.8626C94.1571 56.6774 94.3203 56.5273 94.5051 56.5273H97.4773C97.6626 56.5273 97.7994 56.6774 97.7831 56.8626L97.6436 58.4585C97.6274 58.6437 97.4646 58.7938 97.2793 58.7938Z" fill="white"/>
<path d="M98.6587 58.3615C98.4734 58.3615 98.3366 58.2114 98.3529 58.0262L98.4167 57.2962C98.433 57.111 98.5962 56.9609 98.781 56.9609C98.9662 56.9609 99.1031 57.111 99.0868 57.2962L99.023 58.0262C99.0072 58.2114 98.8439 58.3615 98.6587 58.3615Z" fill="white"/>
</g>
<path d="M126.122 95.6594C132.043 89.9918 132.633 80.9994 127.44 75.5743C122.247 70.1491 113.237 70.3457 107.316 76.0133C101.395 81.6809 100.806 90.6733 105.999 96.0984C111.192 101.524 120.201 101.327 126.122 95.6594Z" fill="white"/>
<path d="M116.765 85.2871C113.031 85.2871 109.88 86.7074 109.61 89.794L109.311 93.2194H122.831L123.131 89.794C123.401 86.7074 120.498 85.2871 116.765 85.2871Z" fill="#407BFF"/>
<path d="M116.889 83.876C118.622 83.876 119.421 82.4715 119.572 80.7388C119.724 79.006 119.171 77.6016 117.438 77.6016C115.705 77.6016 114.906 79.006 114.754 80.7388C114.603 82.4715 115.156 83.876 116.889 83.876Z" fill="#407BFF"/>
<path d="M130.159 105.529C129.237 105.529 128.459 105.88 128.392 106.642L128.318 107.489H131.658L131.732 106.642C131.798 105.88 131.082 105.529 130.159 105.529Z" fill="#407BFF"/>
<path d="M130.189 105.181C130.617 105.181 130.814 104.833 130.852 104.406C130.889 103.978 130.753 103.631 130.325 103.631C129.897 103.631 129.7 103.978 129.662 104.406C129.625 104.834 129.762 105.181 130.189 105.181Z" fill="#407BFF"/>
<path d="M119.876 125.177H106.672C105.13 125.177 103.989 123.927 104.124 122.384C104.259 120.842 105.619 119.592 107.161 119.592H120.365C121.907 119.592 123.048 120.842 122.913 122.384C122.778 123.927 121.418 125.177 119.876 125.177Z" fill="#407BFF"/>
<path d="M118.285 156.32H104.153C102.524 156.32 101.318 154.999 101.461 153.369L102.362 143.062C102.505 141.433 103.941 140.111 105.571 140.111H119.703C121.332 140.111 122.538 141.433 122.395 143.062L121.494 153.369C121.351 154.999 119.915 156.32 118.285 156.32Z" fill="#407BFF"/>
<g opacity="0.6">
<path d="M113.926 145.665C114.011 144.684 113.286 143.889 112.305 143.889C111.324 143.889 110.46 144.684 110.374 145.665C110.323 146.248 110.564 146.762 110.971 147.086L110.66 150.635C110.609 151.217 111.04 151.689 111.622 151.689C112.205 151.689 112.718 151.217 112.769 150.635L113.08 147.086C113.544 146.762 113.875 146.249 113.926 145.665Z" fill="white"/>
</g>
<path d="M119.826 142.256H118.005L118.451 137.156C118.719 134.092 116.444 131.599 113.38 131.599C110.315 131.599 107.604 134.092 107.336 137.156L106.89 142.256H105.068L105.515 137.156C105.87 133.087 109.47 129.777 113.539 129.777C117.607 129.777 120.628 133.087 120.272 137.156L119.826 142.256Z" fill="#407BFF"/>
<path d="M130.383 113.339L130.425 112.85C130.469 112.35 130.098 111.943 129.598 111.943C129.097 111.943 128.655 112.35 128.612 112.85L128.569 113.339C128.369 113.339 128.193 113.501 128.176 113.701L128.062 115.002C128.044 115.202 128.192 115.363 128.392 115.363H130.205C130.405 115.363 130.581 115.202 130.598 115.002L130.712 113.701C130.73 113.501 130.582 113.339 130.383 113.339ZM129.578 112.167C129.955 112.167 130.234 112.473 130.202 112.85L130.159 113.339H128.793L128.836 112.85C128.869 112.473 129.202 112.167 129.578 112.167Z" fill="#407BFF"/>
<path d="M103.092 113.861L102.459 113.73C102.384 113.715 102.346 113.636 102.377 113.562L102.64 112.939C102.697 112.805 102.534 112.706 102.432 112.812L101.954 113.305C101.897 113.364 101.806 113.364 101.759 113.305L101.367 112.812C101.283 112.707 101.103 112.805 101.136 112.939L101.291 113.562C101.309 113.636 101.257 113.715 101.179 113.73L100.524 113.861C100.383 113.889 100.366 114.087 100.502 114.115L101.134 114.245C101.209 114.261 101.248 114.34 101.217 114.413L100.953 115.036C100.896 115.17 101.059 115.269 101.162 115.163L101.64 114.67C101.697 114.612 101.788 114.612 101.834 114.67L102.226 115.163C102.31 115.269 102.49 115.17 102.457 115.036L102.302 114.413C102.284 114.34 102.336 114.261 102.414 114.245L103.07 114.115C103.211 114.087 103.228 113.889 103.092 113.861Z" fill="#263238"/>
<path d="M107.254 113.861L106.621 113.73C106.546 113.715 106.508 113.636 106.539 113.562L106.803 112.939C106.859 112.805 106.696 112.706 106.594 112.812L106.116 113.305C106.059 113.364 105.968 113.364 105.922 113.305L105.53 112.812C105.446 112.707 105.266 112.805 105.299 112.939L105.453 113.562C105.472 113.636 105.419 113.715 105.341 113.73L104.686 113.861C104.545 113.889 104.528 114.087 104.663 114.115L105.296 114.245C105.371 114.261 105.409 114.34 105.378 114.413L105.115 115.036C105.058 115.17 105.221 115.269 105.323 115.163L105.802 114.67C105.858 114.612 105.949 114.612 105.996 114.67L106.388 115.163C106.472 115.269 106.652 115.17 106.619 115.036L106.464 114.413C106.446 114.34 106.498 114.261 106.576 114.245L107.232 114.115C107.373 114.087 107.39 113.889 107.254 113.861Z" fill="#263238"/>
<path d="M111.42 113.861L110.787 113.73C110.712 113.715 110.674 113.636 110.705 113.562L110.969 112.939C111.025 112.805 110.862 112.706 110.76 112.812L110.282 113.305C110.225 113.364 110.134 113.364 110.088 113.305L109.696 112.812C109.612 112.707 109.432 112.805 109.465 112.939L109.619 113.562C109.638 113.636 109.585 113.715 109.507 113.73L108.852 113.861C108.711 113.889 108.694 114.087 108.829 114.115L109.462 114.245C109.537 114.261 109.575 114.34 109.544 114.413L109.281 115.036C109.224 115.17 109.387 115.269 109.489 115.163L109.968 114.67C110.024 114.612 110.115 114.612 110.162 114.67L110.554 115.163C110.638 115.269 110.818 115.17 110.785 115.036L110.63 114.413C110.612 114.34 110.664 114.261 110.742 114.245L111.398 114.115C111.539 114.087 111.556 113.889 111.42 113.861Z" fill="#263238"/>
<path d="M115.584 113.861L114.951 113.73C114.876 113.715 114.838 113.636 114.869 113.562L115.133 112.939C115.189 112.805 115.026 112.706 114.924 112.812L114.446 113.305C114.389 113.364 114.298 113.364 114.252 113.305L113.86 112.812C113.776 112.707 113.596 112.805 113.629 112.939L113.783 113.562C113.802 113.636 113.749 113.715 113.671 113.73L113.016 113.861C112.875 113.889 112.858 114.087 112.994 114.115L113.626 114.245C113.701 114.261 113.74 114.34 113.709 114.413L113.445 115.036C113.388 115.17 113.551 115.269 113.654 115.163L114.132 114.67C114.189 114.612 114.28 114.612 114.326 114.67L114.718 115.163C114.802 115.269 114.982 115.17 114.949 115.036L114.795 114.413C114.776 114.34 114.828 114.261 114.906 114.245L115.562 114.115C115.702 114.087 115.72 113.889 115.584 113.861Z" fill="#263238"/>
<path d="M119.746 113.861L119.113 113.73C119.039 113.715 119 113.636 119.031 113.562L119.295 112.939C119.351 112.805 119.189 112.706 119.086 112.812L118.608 113.305C118.551 113.364 118.46 113.364 118.414 113.305L118.022 112.812C117.938 112.707 117.758 112.805 117.791 112.939L117.945 113.562C117.964 113.636 117.911 113.715 117.833 113.73L117.178 113.861C117.037 113.889 117.02 114.087 117.155 114.115L117.788 114.245C117.863 114.261 117.902 114.34 117.87 114.413L117.607 115.036C117.551 115.17 117.713 115.269 117.815 115.163L118.294 114.67C118.35 114.612 118.441 114.612 118.488 114.67L118.88 115.163C118.964 115.269 119.144 115.17 119.111 115.036L118.956 114.413C118.938 114.34 118.991 114.261 119.068 114.245L119.724 114.115C119.865 114.087 119.882 113.889 119.746 113.861Z" fill="#263238"/>
<path d="M123.912 113.861L123.279 113.73C123.205 113.715 123.166 113.636 123.197 113.562L123.461 112.939C123.517 112.805 123.355 112.706 123.252 112.812L122.774 113.305C122.717 113.364 122.626 113.364 122.58 113.305L122.188 112.812C122.104 112.707 121.924 112.805 121.957 112.939L122.111 113.562C122.13 113.636 122.077 113.715 121.999 113.73L121.344 113.861C121.203 113.889 121.186 114.087 121.321 114.115L121.954 114.245C122.029 114.261 122.068 114.34 122.036 114.413L121.773 115.036C121.716 115.17 121.879 115.269 121.981 115.163L122.46 114.67C122.516 114.612 122.608 114.612 122.654 114.67L123.046 115.163C123.13 115.269 123.31 115.17 123.277 115.036L123.122 114.413C123.104 114.34 123.156 114.261 123.234 114.245L123.89 114.115C124.031 114.087 124.048 113.889 123.912 113.861Z" fill="#263238"/>
<path d="M113.874 104.75H106.056C105.57 104.75 105.142 105.144 105.099 105.63C105.056 106.115 105.416 106.509 105.902 106.509H113.72C114.205 106.509 114.633 106.115 114.676 105.63C114.719 105.144 114.359 104.75 113.874 104.75Z" fill="#263238"/>
<path d="M121.811 104.75H117.274C116.789 104.75 116.361 105.144 116.318 105.63C116.275 106.115 116.635 106.509 117.12 106.509H121.657C122.143 106.509 122.571 106.115 122.613 105.63C122.656 105.144 122.297 104.75 121.811 104.75Z" fill="#263238"/>
<path d="M127.799 144.636C124.852 145.813 122.268 147.53 120.499 149.483C119.462 148.6 117.987 147.987 116.22 147.707L116.013 147.674L115.922 148.712L116.038 148.755C117.782 149.414 119.202 150.584 120.144 152.137L120.292 152.381L120.456 152.119C122.268 149.217 124.912 146.785 127.899 145.273L128 145.221L128.06 144.531L127.799 144.636Z" fill="#263238"/>
<path opacity="0.2" d="M88.4829 58.0039C87.9333 58.9706 87.5708 60.049 87.4704 61.1917L80.918 136.089H101.192L105.265 120.472L103.925 104.855L107.998 89.2382L106.658 73.6213L110.731 58.0043H88.4829V58.0039Z" fill="black"/>
<path d="M104.898 69.2209L108.971 53.6035H57.7009L53.6273 69.2209L54.9685 84.8378L50.8949 100.455L52.2356 116.072L48.1621 131.689H99.4327L103.506 116.072L102.166 100.455L106.239 84.8378L104.898 69.2209Z" fill="#407BFF"/>
<path opacity="0.7" d="M104.898 69.2209L108.971 53.6035H57.7009L53.6273 69.2209L54.9685 84.8378L50.8949 100.455L52.2356 116.072L48.1621 131.689H99.4327L103.506 116.072L102.166 100.455L106.239 84.8378L104.898 69.2209Z" fill="white"/>
<path opacity="0.5" d="M104.898 69.2209H53.627L57.7005 53.6035H108.971L104.898 69.2209Z" fill="white"/>
<path opacity="0.5" d="M102.165 100.455H50.8945L54.968 84.8379H106.239L102.165 100.455Z" fill="white"/>
<path opacity="0.5" d="M99.4327 131.689H48.1621L52.2356 116.072H103.506L99.4327 131.689Z" fill="white"/>
<path opacity="0.2" d="M98.0373 75.7479C97.5968 75.8856 97.0327 75.9683 96.4181 75.9683C95.513 75.9683 94.7175 75.7892 94.2652 75.5195C94.1411 75.4452 94.0047 75.4082 93.8683 75.4082C93.7415 75.4082 93.6153 75.4438 93.4982 75.5076C93.4894 75.5125 93.4798 75.5142 93.4714 75.5195C93.4666 75.5226 93.4604 75.5248 93.4556 75.5279C93.2879 75.6256 93.0767 75.7114 92.8303 75.7804C92.4075 75.8988 91.8848 75.9688 91.3189 75.9688C91.1654 75.9688 91.0144 75.9635 90.8684 75.9538C90.4297 75.9239 90.0297 75.8517 89.6997 75.7488C89.6421 75.7307 89.584 75.7202 89.5272 75.7162C89.1281 75.6898 88.7695 75.996 88.7695 76.4193V76.8963H68.8415C67.2993 76.8963 66.0488 78.1463 66.0488 79.689V82.5032C66.0488 84.0454 67.2993 85.2959 68.8415 85.2959H91.5134C91.5636 85.2959 91.6119 85.291 91.6617 85.2884C91.9063 85.4908 92.1611 85.6928 92.4308 85.8974C92.7537 86.142 93.0939 86.3902 93.4503 86.6489C93.6984 86.8288 94.039 86.8288 94.2872 86.6489C97.1379 84.5813 98.9683 83.1553 98.9683 79.2371V76.4198C98.9679 75.9353 98.4993 75.6036 98.0373 75.7479Z" fill="black"/>
<path d="M91.0798 83.7453H68.4079C66.8657 83.7453 65.6152 82.4953 65.6152 80.9526V78.1384C65.6152 76.5962 66.8653 75.3457 68.4079 75.3457H91.0798C92.622 75.3457 93.8725 76.5957 93.8725 78.1384V80.9526C93.8725 82.4948 92.622 83.7453 91.0798 83.7453Z" fill="#407BFF"/>
<path d="M95.9834 74.4174C95.0783 74.4174 94.2832 74.2384 93.8305 73.9686C93.5819 73.8204 93.2853 73.8204 93.0367 73.9686C92.5844 74.2384 91.7893 74.4174 90.8838 74.4174C90.2687 74.4174 89.705 74.3347 89.2646 74.1974C88.803 74.0531 88.334 74.3844 88.334 74.8684V77.6858C88.334 81.604 90.1644 83.03 93.0151 85.0976C93.2633 85.2775 93.6039 85.2775 93.852 85.0976C96.7028 83.03 98.5332 81.604 98.5332 77.6858V74.8684C98.5332 74.3844 98.0646 74.0531 97.6026 74.1974C97.1621 74.3347 96.5985 74.4174 95.9834 74.4174Z" fill="#407BFF"/>
<path opacity="0.3" d="M95.9834 74.4174C95.0783 74.4174 94.2832 74.2384 93.8305 73.9686C93.5819 73.8204 93.2853 73.8204 93.0367 73.9686C92.5844 74.2384 91.7893 74.4174 90.8838 74.4174C90.2687 74.4174 89.705 74.3347 89.2646 74.1974C88.803 74.0531 88.334 74.3844 88.334 74.8684V77.6858C88.334 81.604 90.1644 83.03 93.0151 85.0976C93.2633 85.2775 93.6039 85.2775 93.852 85.0976C96.7028 83.03 98.5332 81.604 98.5332 77.6858V74.8684C98.5332 74.3844 98.0646 74.0531 97.6026 74.1974C97.1621 74.3347 96.5985 74.4174 95.9834 74.4174Z" fill="white"/>
<path opacity="0.2" d="M93.0367 73.9687C92.5844 74.2385 91.7893 74.4175 90.8838 74.4175C90.2687 74.4175 89.705 74.3348 89.2646 74.1975C88.803 74.0532 88.334 74.3845 88.334 74.8681V77.6859C88.334 81.6041 90.1644 83.0301 93.0151 85.0977C93.1392 85.1874 93.2862 85.2327 93.4336 85.2327V73.8574C93.2972 73.8574 93.1608 73.8944 93.0367 73.9687Z" fill="white"/>
<path d="M97.5197 76.9174C95.6774 77.6794 94.1009 78.7913 93.0664 80.0559C92.3448 79.4843 91.3553 79.0875 90.1945 78.9057L90.0586 78.8846V79.5569L90.136 79.5851C91.3034 80.0119 92.2889 80.7696 92.9872 81.775L93.0968 81.9329L93.1879 81.7635C94.1977 79.8838 95.772 78.3091 97.6204 77.3297L97.6834 77.2962V76.8496L97.5197 76.9174Z" fill="#263238"/>
<path d="M108.067 57.9961H106.122C105.043 57.9961 104.245 57.1218 104.34 56.0429L104.51 54.0977C104.604 53.0188 105.555 52.1445 106.634 52.1445H108.579C109.658 52.1445 110.456 53.0192 110.362 54.0977L110.192 56.0429C110.097 57.1218 109.146 57.9961 108.067 57.9961Z" fill="#407BFF"/>
<path d="M108.876 54.0937L108.454 53.6309L107.392 54.6077L106.5 53.6309L105.997 54.0937L106.888 55.0705L105.826 56.0473L106.249 56.5102L107.311 55.5334L108.202 56.5102L108.706 56.0473L107.814 55.0705L108.876 54.0937Z" fill="white"/>
<path d="M64.6036 74.7793C65.7313 76.0056 66.8088 77.2759 67.8728 78.558C68.938 79.8389 69.9768 81.1426 71.0029 82.4577C71.0478 82.5149 71.0298 82.4916 71.0403 82.5088C71.0452 82.5163 71.046 82.5286 71.0522 82.5347C71.0636 82.5475 71.0698 82.5686 71.0834 82.5801C71.1037 82.6126 71.1332 82.6359 71.1626 82.6667C71.2251 82.7226 71.3105 82.7653 71.4055 82.7829C71.4526 82.7899 71.5023 82.797 71.5529 82.7917C71.5802 82.7952 71.6044 82.7869 71.633 82.786C71.648 82.7864 71.659 82.7785 71.6735 82.7767C71.6959 82.7671 71.6818 82.7869 71.7426 82.7508L72.8448 82.1533C74.3232 81.3705 75.8134 80.6053 77.3548 79.9185L78.6431 81.5139C77.4014 82.6566 76.1082 84.0857 74.8032 85.1329L73.8176 85.9078C73.7925 85.9307 73.6865 86.0002 73.62 86.0446C73.5439 86.0935 73.4696 86.1463 73.389 86.1894C73.2293 86.2774 73.0683 86.3654 72.8971 86.4331C72.5592 86.5792 72.1984 86.6721 71.8328 86.7284C71.0993 86.8375 70.3372 86.7636 69.6257 86.5088C69.2711 86.3812 68.9274 86.2109 68.6146 85.9936C68.4544 85.8897 68.3079 85.7679 68.1618 85.6451C68.0884 85.5839 68.0228 85.5157 67.9542 85.4493L67.779 85.272C66.6148 84.0778 65.4633 82.8722 64.3378 81.6437C63.2114 80.4161 62.0982 79.1775 61.0352 77.8945L64.6036 74.7793Z" fill="#B55B52"/>
<path d="M76.7559 80.89L77.7815 77.5957L80.4813 78.9412C80.4813 78.9412 80.088 81.3449 78.1225 81.7616L76.7559 80.89Z" fill="#B55B52"/>
<path d="M78.8641 76.6816L81.299 77.3522L80.4811 78.9406L77.7812 77.5951L78.8641 76.6816Z" fill="#B55B52"/>
<path d="M50.4017 75.6761C50.1078 77.0758 49.7488 78.4596 49.3726 79.8394C48.9981 81.2197 48.5894 82.5916 48.1643 83.9596L48.0059 84.4726L47.9267 84.7291C47.91 84.785 47.899 84.7991 47.8841 84.8365C47.8357 84.9663 47.8066 85.1071 47.8009 85.2549C47.7934 85.548 47.8629 85.874 48.0548 86.1574C48.0706 86.2031 48.2224 86.3624 48.3408 86.4909L48.706 86.8878L49.4263 87.6943C49.9006 88.2386 50.3731 88.7846 50.8219 89.3588L49.2885 91.1338C48.6554 90.7734 48.0464 90.3849 47.4388 89.9946L46.5363 89.3993L46.0902 89.0953C45.9384 88.9897 45.8165 88.9188 45.5736 88.7177C44.7367 88.008 44.1115 87.0004 43.8823 85.8815C43.7652 85.3231 43.7366 84.741 43.8017 84.1646C43.8189 84.0265 43.8449 83.8654 43.866 83.7471L43.9126 83.4826L44.0059 82.9537C44.2527 81.5427 44.5159 80.1355 44.8129 78.7363C45.1085 77.3371 45.4214 75.9419 45.7989 74.5625L50.4017 75.6761Z" fill="#B55B52"/>
<path d="M49.3164 89.2331L51.1318 88.3047L51.9326 91.3904C51.9326 91.3904 50.4758 91.9488 49.3481 91.2316L49.3164 89.2331Z" fill="#B55B52"/>
<path d="M53.6382 87.3184L53.7204 90.1489L51.6934 91.4746L50.9902 88.3651L53.6382 87.3184Z" fill="#B55B52"/>
<path d="M59.5746 61.1268C59.6191 61.345 59.7704 61.4982 59.913 61.4691C60.0555 61.4401 60.1352 61.2399 60.0907 61.0216C60.0463 60.8034 59.8949 60.6503 59.7524 60.6793C59.6102 60.7084 59.5306 60.9086 59.5746 61.1268Z" fill="#263238"/>
<path d="M59.75 61.502C59.75 61.502 60.5015 62.6591 61.1708 63.155C60.8579 63.5937 60.1689 63.5625 60.1689 63.5625L59.75 61.502Z" fill="#A02724"/>
<path d="M58.5292 60.079C58.4975 60.079 58.4654 60.0675 58.4403 60.0442C58.3875 59.9954 58.384 59.9127 58.4333 59.8594C58.9239 59.3283 59.5192 59.4229 59.5452 59.4269C59.6165 59.4392 59.664 59.5065 59.6521 59.5778C59.6398 59.6487 59.5716 59.6962 59.5021 59.6847C59.4823 59.6817 59.0167 59.6135 58.6256 60.0367C58.5996 60.0649 58.5644 60.079 58.5292 60.079Z" fill="#263238"/>
<path d="M53.2293 64.1953C53.7146 66.2136 54.1991 69.9118 52.4668 71.2582C52.4668 71.2582 53.1435 73.3055 57.7446 73.3055C62.8037 73.3055 60.1624 71.9868 60.1624 71.9868C57.4014 71.4496 57.4722 69.0512 57.9532 67.483L53.2293 64.1953Z" fill="#B55B52"/>
<path d="M51.9272 71.6322C51.6258 71.0712 51.2936 70.4296 51.9804 70.2285C52.7359 70.0072 57.5895 69.5972 59.0151 70.0125C58.5769 70.7918 59.3187 71.7496 59.3187 71.7496L51.9272 71.6322Z" fill="#263238"/>
<path d="M55.9453 166.045H59.1199L59.4358 159.656H56.2617L55.9453 166.045Z" fill="#B55B52"/>
<path d="M35.8008 165.166L39.0159 165.336L40.9699 159.041L37.7544 158.871L35.8008 165.166Z" fill="#B55B52"/>
<path d="M38.9183 165.081L35.8889 164.425C35.7789 164.402 35.6667 164.457 35.6197 164.56L34.5681 166.841C34.4589 167.078 34.6033 167.356 34.8589 167.406C35.9202 167.617 36.4477 167.666 37.7796 167.955C38.5993 168.132 40.4491 168.583 41.5812 168.828C42.6883 169.068 43.1032 167.986 42.6618 167.784C40.6827 166.88 39.856 166.084 39.3201 165.342C39.2237 165.209 39.0798 165.117 38.9183 165.081Z" fill="#263238"/>
<path d="M58.953 165.727H55.9403C55.8277 165.727 55.73 165.805 55.7054 165.915L55.1602 168.367C55.1039 168.621 55.2966 168.862 55.5571 168.858C56.6439 168.839 58.2143 168.775 59.5805 168.775C61.1777 168.775 62.5571 168.862 64.4301 168.862C65.5627 168.862 65.8769 167.718 65.403 167.614C63.2448 167.142 61.4826 167.091 59.6174 165.941C59.415 165.816 59.1911 165.727 58.953 165.727Z" fill="#263238"/>
<path d="M46.7189 72.1894C44.3231 73.3285 43.6719 80.2343 43.6719 80.2343L49.5987 82.9729C49.5987 82.9729 51.0696 80.8059 51.1822 77.3985C51.3002 73.8288 49.1684 71.0247 46.7189 72.1894Z" fill="#263238"/>
<path opacity="0.4" d="M49.9323 76.4492C48.8622 78.1102 48.9634 80.6803 49.3339 82.8521L49.5957 82.9749C49.5957 82.9749 51.0684 80.8052 51.1815 77.3987C51.1881 77.1858 51.1872 76.9741 51.1797 76.7682L49.9323 76.4492Z" fill="black"/>
<path d="M63.2571 72.024C63.2571 72.024 66.1937 75.3407 63.4203 95.8698C58.9741 95.8698 50.8275 95.8698 48.6641 95.8698C48.5624 93.6047 49.9858 82.555 47.8008 71.8819C47.8008 71.8819 50.3303 71.3741 52.7407 71.258C54.6261 71.1673 57.3558 71.107 59.0133 71.258C61.1988 71.4577 63.2571 72.024 63.2571 72.024Z" fill="#407BFF"/>
<path opacity="0.6" d="M63.2571 72.024C63.2571 72.024 66.1937 75.3407 63.4203 95.8698C58.9741 95.8698 50.8275 95.8698 48.6641 95.8698C48.5624 93.6047 49.9858 82.555 47.8008 71.8819C47.8008 71.8819 50.3303 71.3741 52.7407 71.258C54.6261 71.1673 57.3558 71.107 59.0133 71.258C61.1988 71.4577 63.2571 72.024 63.2571 72.024Z" fill="#FAFAFA"/>
<path opacity="0.2" d="M64.5482 78.2986L64.4918 78.2498L61.557 76.6816C61.2587 81.2004 63.2787 84.0332 64.4804 85.2722C64.6458 82.377 64.6419 80.0934 64.5482 78.2986Z" fill="black"/>
<path opacity="0.2" d="M59.4359 159.658L59.2736 162.952H56.0977L56.26 159.658H59.4359Z" fill="black"/>
<path opacity="0.2" d="M37.7531 158.873L40.9695 159.043L39.9605 162.287L36.7441 162.118L37.7531 158.873Z" fill="black"/>
<path d="M52.2076 62.1438C52.9164 64.7886 53.1967 66.3726 54.8291 67.4722C57.2839 69.1262 60.3406 67.228 60.436 64.4248C60.5223 61.9018 59.3484 58.0008 56.5104 57.4675C53.7142 56.9426 51.4988 59.499 52.2076 62.1438Z" fill="#B55B52"/>
<path d="M58.1871 95.8691C58.1871 95.8691 55.0561 116.953 53.3374 124.851C51.4551 133.501 41.3624 162.119 41.3624 162.119L36.4238 161.049C36.4238 161.049 42.7528 137.728 44.3324 125.636C44.9488 120.917 45.6929 113.31 46.6345 106.968C47.5462 100.826 48.6655 95.8691 48.6655 95.8691H58.1871Z" fill="#263238"/>
<path d="M42.5432 160.47C42.5643 160.474 41.6227 162.256 41.6227 162.256L36.0664 161.053L36.535 159.383L42.5432 160.47Z" fill="#407BFF"/>
<path opacity="0.6" d="M42.5432 160.47C42.5643 160.474 41.6227 162.256 41.6227 162.256L36.0664 161.053L36.535 159.383L42.5432 160.47Z" fill="white"/>
<path opacity="0.6" d="M56.2069 103.382C52.5866 104.091 52.9698 117.592 53.4054 124.536C54.4496 119.628 55.9777 110.183 57.0218 103.479C56.7816 103.359 56.511 103.322 56.2069 103.382Z" fill="black"/>
<path d="M63.422 95.8691C63.422 95.8691 64.8947 116.496 64.5946 124.91C64.2827 133.66 60.1335 162.314 60.1335 162.314H55.4598C55.4598 162.314 55.2882 134.172 55.0805 125.578C54.8539 116.208 53.7227 95.8691 53.7227 95.8691H63.422Z" fill="#263238"/>
<path d="M61.032 160.451C61.0536 160.451 60.7685 162.392 60.7685 162.392H55.0832L54.9297 160.66L61.032 160.451Z" fill="#407BFF"/>
<path opacity="0.6" d="M61.032 160.451C61.0536 160.451 60.7685 162.392 60.7685 162.392H55.0832L54.9297 160.66L61.032 160.451Z" fill="white"/>
<path d="M61.5352 75.887C61.5352 81.4226 64.481 83.7018 64.481 83.7018L69.269 79.0211C69.269 79.0211 67.641 76.2161 65.4023 73.6412C62.636 70.46 61.5352 72.3274 61.5352 75.887Z" fill="#263238"/>
<path opacity="0.2" d="M60.2675 65.4258C60.1461 65.765 59.8271 66.3401 59.0258 66.5693C57.8572 66.9037 57.8418 67.8942 57.8418 67.8942L57.8563 67.9127C58.9713 67.5444 59.8997 66.623 60.2675 65.4258Z" fill="black"/>
<path d="M59.026 56.8865C60.0124 55.6426 58.4949 55.5832 58.4949 55.5832C58.8891 54.0982 57.1142 54.8977 57.1142 54.8977C56.0485 53.4289 55.4475 55.2162 55.4475 55.2162C54.3422 53.9719 54.1389 56.0056 54.1389 56.0056C53.0305 54.4273 52.466 56.7039 52.466 56.7039C51.4452 55.0649 50.8204 57.2002 50.8204 57.2002C48.7128 56.4456 49.7147 58.6359 49.7147 58.6359C47.9155 58.6865 49.3587 60.0782 49.3587 60.0782C47.2036 60.0835 49.104 61.3177 49.104 61.3177C47.3924 62.4406 49.5409 62.7429 49.5409 62.7429C48.1443 64.9266 50.5423 64.1165 50.5423 64.1165C49.5708 66.2778 51.725 65.3257 51.725 65.3257C51.5851 67.4113 52.7899 66.8437 53.3689 66.4573C53.4807 66.8775 53.6892 67.3224 54.0764 67.373C54.8279 67.4711 54.974 66.0525 54.974 66.0525C54.974 66.0525 55.6714 66.5951 56.2562 66.3011C56.8409 66.0072 56.6205 65.2632 56.6205 65.2632C56.6205 65.2632 57.068 65.5971 57.478 65.2786C57.7288 65.0837 57.7302 63.6831 57.4103 63.1908L58.5556 62.7424C58.5556 62.7424 59.4057 62.6227 59.026 61.5021C58.6467 60.3818 58.9683 59.497 58.9683 59.497C60.261 58.8911 59.2007 58.1625 59.2007 58.1625C60.6953 57.194 59.026 56.8865 59.026 56.8865Z" fill="#263238"/>
<path d="M56.7081 62.2538C56.888 62.9481 57.3443 63.5448 57.8213 63.8999C58.5393 64.434 59.0753 63.9082 59.0242 63.096C58.9785 62.3647 58.5495 61.2057 57.7575 60.9888C56.9778 60.775 56.5026 61.4601 56.7081 62.2538Z" fill="#B55B52"/>
</g>
<defs>
<clipPath id="clip0_497_9749">
<rect width="193" height="193" fill="white"/>
</clipPath>
</defs>
</svg>
