<svg width="30" height="30" viewBox="0 0 30 30" fill="none" xmlns="http://www.w3.org/2000/svg">
<g clip-path="url(#clip0_385_1370)">
<path d="M27.4944 0.921875H2.47301C1.61625 0.92239 0.921703 1.61728 0.921875 2.47438V27.4957C0.92239 28.3525 1.61728 29.0471 2.47438 29.0469H15.9457V18.1704H12.2927V13.9132H15.9457V10.7802C15.9457 7.147 18.1637 5.16947 21.4047 5.16947C22.957 5.16947 24.291 5.28516 24.6798 5.33683V9.13416H22.445C20.6816 9.13416 20.3402 9.97204 20.3402 11.2018V13.9132H24.5562L24.0069 18.1704H20.3402V29.0469H27.4944C28.3517 29.0471 29.0467 28.3523 29.0469 27.4951C29.0469 27.4949 29.0469 27.4947 29.0469 27.4944V2.47301C29.0465 1.61625 28.3515 0.921703 27.4944 0.921875Z" fill="#343434"/>
</g>
<defs>
<clipPath id="clip0_385_1370">
<rect width="30" height="30" fill="white"/>
</clipPath>
</defs>
</svg>
