<svg width="144" height="44" viewBox="0 0 144 44" fill="none" xmlns="http://www.w3.org/2000/svg">
<g clip-path="url(#clip0_534_15167)">
<g clip-path="url(#clip1_534_15167)">
<g clip-path="url(#clip2_534_15167)">
<path d="M137.865 0.96875H5.302C2.37379 0.96875 0 3.34254 0 6.27075V38.0868C0 41.015 2.37379 43.3887 5.302 43.3887H137.865C140.793 43.3887 143.167 41.015 143.167 38.0868V6.27075C143.167 3.34254 140.793 0.96875 137.865 0.96875Z" fill="white"/>
<path d="M72.2584 24.036C69.7644 24.036 67.7314 25.933 67.7314 28.546C67.7314 31.144 69.7644 33.056 72.2584 33.056C74.7534 33.056 76.7864 31.144 76.7864 28.546C76.7864 25.933 74.7524 24.036 72.2584 24.036ZM72.2584 31.281C70.8914 31.281 69.7134 30.154 69.7134 28.548C69.7134 26.924 70.8934 25.814 72.2584 25.814C73.6254 25.814 74.8034 26.924 74.8034 28.548C74.8034 30.153 73.6254 31.281 72.2584 31.281ZM62.3814 24.036C59.8864 24.036 57.8534 25.933 57.8534 28.546C57.8534 31.144 59.8864 33.056 62.3814 33.056C64.8764 33.056 66.9094 31.144 66.9094 28.546C66.9094 25.933 64.8764 24.036 62.3814 24.036ZM62.3814 31.281C61.0144 31.281 59.8354 30.154 59.8354 28.548C59.8354 26.924 61.0154 25.814 62.3814 25.814C63.7484 25.814 64.9264 26.924 64.9264 28.548C64.9264 30.153 63.7484 31.281 62.3814 31.281ZM50.6324 25.421V27.334H55.2124C55.0754 28.411 54.7164 29.197 54.1694 29.743C53.5034 30.409 52.4614 31.143 50.6324 31.143C47.8144 31.143 45.6104 28.871 45.6104 26.053C45.6104 23.233 47.8144 20.961 50.6324 20.961C52.1534 20.961 53.2644 21.559 54.0834 22.328L55.4334 20.978C54.2884 19.884 52.7684 19.048 50.6334 19.048C46.7714 19.048 43.5254 22.191 43.5254 26.052C43.5254 29.913 46.7714 33.057 50.6324 33.057C52.7164 33.057 54.2894 32.373 55.5184 31.092C56.7824 29.828 57.1764 28.05 57.1764 26.615C57.1764 26.172 57.1424 25.762 57.0734 25.42H50.6334L50.6324 25.421ZM98.6824 26.907C98.3064 25.899 97.1614 24.037 94.8204 24.037C92.4974 24.037 90.5654 25.865 90.5654 28.547C90.5654 31.075 92.4804 33.057 95.0424 33.057C97.1094 33.057 98.3054 31.793 98.8024 31.057L97.2634 30.032C96.7514 30.784 96.0504 31.279 95.0424 31.279C94.0344 31.279 93.3164 30.819 92.8554 29.912L98.8864 27.418L98.6824 26.907ZM92.5314 28.411C92.4804 26.667 93.8814 25.78 94.8894 25.78C95.6754 25.78 96.3414 26.173 96.5644 26.736L92.5314 28.411ZM87.6284 32.784H89.6084V19.527H87.6284V32.784ZM84.3814 25.044H84.3134C83.8684 24.514 83.0134 24.036 81.9384 24.036C79.6834 24.036 77.6164 26.018 77.6164 28.564C77.6164 31.093 79.6834 33.058 81.9384 33.058C83.0154 33.058 83.8684 32.58 84.3134 32.033H84.3814V32.683C84.3814 34.408 83.4584 35.331 81.9724 35.331C80.7594 35.331 80.0074 34.46 79.7004 33.725L77.9744 34.443C78.4694 35.638 79.7844 37.108 81.9724 37.108C84.2964 37.108 86.2614 35.741 86.2614 32.408V24.311H84.3814V25.044ZM82.1094 31.282C80.7424 31.282 79.5984 30.136 79.5984 28.564C79.5984 26.974 80.7424 25.814 82.1094 25.814C83.4584 25.814 84.5174 26.974 84.5174 28.564C84.5174 30.136 83.4584 31.282 82.1094 31.282ZM107.965 19.527H103.224V32.784H105.201V27.762H107.964C110.157 27.762 112.314 26.174 112.314 23.645C112.314 21.115 110.158 19.527 107.965 19.527ZM108.016 25.917H105.201V21.372H108.016C109.495 21.372 110.335 22.597 110.335 23.645C110.335 24.671 109.495 25.917 108.016 25.917ZM120.246 24.013C118.813 24.013 117.329 24.643 116.715 26.043L118.471 26.776C118.847 26.043 119.547 25.803 120.28 25.803C121.303 25.803 122.343 26.417 122.36 27.508V27.645C122.002 27.44 121.234 27.134 120.296 27.134C118.404 27.134 116.476 28.174 116.476 30.118C116.476 31.892 118.028 33.035 119.767 33.035C121.097 33.035 121.831 32.438 122.291 31.738H122.359V32.761H124.27V27.678C124.271 25.326 122.513 24.013 120.246 24.013ZM120.006 31.278C119.359 31.278 118.454 30.954 118.454 30.152C118.454 29.129 119.581 28.736 120.553 28.736C121.422 28.736 121.832 28.924 122.36 29.18C122.288 29.7551 122.009 30.2844 121.576 30.6701C121.144 31.0558 120.586 31.2717 120.006 31.278ZM131.229 24.302L128.961 30.05H128.893L126.539 24.302H124.407L127.937 32.336L125.925 36.805H127.988L133.43 24.302H131.229ZM113.406 32.784H115.384V19.527H113.406V32.784ZM50.2874 11.832C50.2874 12.72 50.0244 13.428 49.4974 13.956C48.8994 14.584 48.1184 14.898 47.1604 14.898C46.2414 14.898 45.4604 14.58 44.8184 13.943C44.1754 13.306 43.8544 12.517 43.8544 11.575C43.8544 10.632 44.1754 9.843 44.8184 9.207C45.4604 8.57 46.2414 8.252 47.1604 8.252C47.6164 8.252 48.0524 8.341 48.4654 8.518C48.8804 8.696 49.2124 8.932 49.4604 9.228L48.9004 9.788C48.4804 9.285 47.9004 9.033 47.1584 9.033C46.4884 9.033 45.9094 9.269 45.4204 9.739C44.9314 10.21 44.6884 10.822 44.6884 11.574C44.6884 12.326 44.9314 12.938 45.4204 13.409C45.6485 13.6364 45.9198 13.816 46.2182 13.9373C46.5166 14.0585 46.8363 14.1189 47.1584 14.115C47.8694 14.115 48.4624 13.879 48.9364 13.405C49.2434 13.095 49.4224 12.666 49.4694 12.116H47.1594V11.351H50.2414C50.2734 11.518 50.2874 11.679 50.2874 11.832ZM55.1764 9.174H52.2794V11.191H54.8924V11.956H52.2794V13.973H55.1764V14.756H51.4614V8.393H55.1764V9.174ZM58.6234 14.756H57.8064V9.174H56.0294V8.393H60.4004V9.174H58.6224L58.6234 14.756ZM63.5644 14.756V8.393H64.3824V14.756H63.5644ZM68.0084 14.756H67.1904V9.174H65.4134V8.393H69.7854V9.174H68.0084V14.756ZM78.0624 13.934C77.4374 14.576 76.6594 14.898 75.7294 14.898C74.7994 14.898 74.0224 14.576 73.3974 13.934C72.7714 13.291 72.4604 12.504 72.4604 11.574C72.4604 10.644 72.7724 9.857 73.3974 9.214C74.0224 8.572 74.7994 8.25 75.7294 8.25C76.6544 8.25 77.4304 8.573 78.0594 9.219C78.6864 9.865 78.9994 10.649 78.9994 11.574C78.9994 12.504 78.6874 13.291 78.0624 13.934ZM74.0014 13.4C74.4714 13.878 75.0474 14.115 75.7294 14.115C76.4114 14.115 76.9894 13.876 77.4584 13.4C77.9284 12.923 78.1654 12.314 78.1654 11.574C78.1654 10.834 77.9294 10.225 77.4584 9.748C77.2352 9.51591 76.9663 9.33255 76.6687 9.2095C76.3712 9.08644 76.0513 9.02635 75.7294 9.033C75.0474 9.033 74.4724 9.272 74.0014 9.748C73.5314 10.225 73.2944 10.834 73.2944 11.574C73.2944 12.314 73.5314 12.924 74.0014 13.4ZM80.1474 14.756V8.393H81.1424L84.2354 13.342H84.2694L84.2344 12.116V8.393H85.0524V14.756H84.1984L80.9634 9.566H80.9284L80.9634 10.791V14.756H80.1474Z" fill="black"/>
<path d="M50.2865 11.832C50.2865 12.72 50.0235 13.428 49.4965 13.956C48.8985 14.584 48.1175 14.898 47.1595 14.898C46.2405 14.898 45.4595 14.58 44.8175 13.943C44.1745 13.306 43.8535 12.517 43.8535 11.575C43.8535 10.632 44.1745 9.843 44.8175 9.207C45.4595 8.57 46.2405 8.252 47.1595 8.252C47.6155 8.252 48.0515 8.341 48.4645 8.518C48.8795 8.696 49.2115 8.932 49.4595 9.228L48.8995 9.788C48.4795 9.285 47.8995 9.033 47.1575 9.033C46.4875 9.033 45.9085 9.269 45.4195 9.739C44.9305 10.21 44.6875 10.822 44.6875 11.574C44.6875 12.326 44.9305 12.938 45.4195 13.409C45.6476 13.6364 45.9189 13.816 46.2173 13.9373C46.5158 14.0585 46.8354 14.1189 47.1575 14.115C47.8685 14.115 48.4615 13.879 48.9355 13.405C49.2425 13.095 49.4215 12.666 49.4685 12.116H47.1585V11.351H50.2405C50.2725 11.518 50.2865 11.679 50.2865 11.832ZM55.1755 9.174H52.2785V11.191H54.8915V11.956H52.2785V13.973H55.1755V14.756H51.4605V8.393H55.1755V9.174ZM58.6225 14.756H57.8055V9.174H56.0285V8.393H60.3995V9.174H58.6215L58.6225 14.756ZM63.5635 14.756V8.393H64.3815V14.756H63.5635ZM68.0075 14.756H67.1895V9.174H65.4125V8.393H69.7845V9.174H68.0075V14.756ZM78.0615 13.934C77.4365 14.576 76.6585 14.898 75.7285 14.898C74.7985 14.898 74.0215 14.576 73.3965 13.934C72.7705 13.291 72.4595 12.504 72.4595 11.574C72.4595 10.644 72.7715 9.857 73.3965 9.214C74.0215 8.572 74.7985 8.25 75.7285 8.25C76.6535 8.25 77.4295 8.573 78.0585 9.219C78.6855 9.865 78.9985 10.649 78.9985 11.574C78.9985 12.504 78.6865 13.291 78.0615 13.934ZM74.0005 13.4C74.4705 13.878 75.0465 14.115 75.7285 14.115C76.4105 14.115 76.9885 13.876 77.4575 13.4C77.9275 12.923 78.1645 12.314 78.1645 11.574C78.1645 10.834 77.9285 10.225 77.4575 9.748C77.2343 9.51591 76.9654 9.33255 76.6679 9.2095C76.3703 9.08644 76.0505 9.02635 75.7285 9.033C75.0465 9.033 74.4715 9.272 74.0005 9.748C73.5305 10.225 73.2935 10.834 73.2935 11.574C73.2935 12.314 73.5305 12.924 74.0005 13.4ZM80.1465 14.756V8.393H81.1415L84.2345 13.342H84.2685L84.2335 12.116V8.393H85.0515V14.756H84.1975L80.9625 9.566H80.9275L80.9625 10.791V14.756H80.1465Z" stroke="black" stroke-width="0.212" stroke-miterlimit="10"/>
<path fill-rule="evenodd" clip-rule="evenodd" d="M10.771 9.41706C10.6354 9.74492 10.5693 10.0974 10.577 10.4521V33.9061C10.577 34.3111 10.646 34.6591 10.771 34.9421L23.533 22.1791L10.771 9.41706ZM11.508 35.7051C11.981 35.9081 12.598 35.8441 13.271 35.4621L28.285 26.9311L24.283 22.9291L11.508 35.7051ZM29.242 26.3881L33.952 23.7121C35.434 22.8691 35.434 21.4921 33.952 20.6491L29.24 17.9711L25.033 22.1791L29.242 26.3881ZM28.283 17.4281L13.271 8.89806C12.598 8.51506 11.981 8.45106 11.508 8.65406L24.283 21.4291L28.283 17.4281Z" fill="black"/>
</g>
</g>
<path d="M35.3184 19.5613L30.3056 16.666L25.1737 21.7979L30.3052 26.9294L35.3354 24.0246C36.1198 23.548 36.5878 22.7155 36.5878 21.7979C36.5878 20.8803 36.1194 20.0478 35.3184 19.5613Z" fill="#FFCE00"/>
<path d="M25.1737 21.7976L11.1955 7.71875C10.7093 8.20493 10.4141 8.86464 10.4141 9.59391V33.9584C10.4141 34.6877 10.7093 35.3474 11.1955 35.8339L25.1737 21.7976Z" fill="url(#paint0_linear_534_15167)"/>
<path d="M25.1738 21.798L30.3057 16.6661L30.3138 16.6579L23.4377 12.6989L14.3735 7.37166C13.5573 6.86809 12.5675 6.8507 11.7339 7.31949C11.543 7.44085 11.3691 7.56258 11.1956 7.71872L25.1738 21.798Z" fill="#00F076"/>
<path d="M11.1956 35.8348C11.3691 35.9909 11.543 36.1126 11.7339 36.234C12.1505 36.4597 12.5849 36.5814 13.0189 36.5814C13.4877 36.5814 13.9391 36.4427 14.3561 36.1996L23.4374 30.8979L30.3135 26.9389L30.3053 26.9307L25.1738 21.7988L11.1956 35.8348Z" fill="#F63448"/>
</g>
<defs>
<linearGradient id="paint0_linear_534_15167" x1="4.16698" y1="28.805" x2="18.2244" y2="14.7473" gradientUnits="userSpaceOnUse">
<stop stop-color="#00E2FF"/>
<stop offset="1" stop-color="#00C5FF"/>
</linearGradient>
<clipPath id="clip0_534_15167">
<rect width="144" height="44" fill="white"/>
</clipPath>
<clipPath id="clip1_534_15167">
<rect width="144" height="44" fill="white"/>
</clipPath>
<clipPath id="clip2_534_15167">
<rect width="144" height="44" fill="white"/>
</clipPath>
</defs>
</svg>
