<svg width="145" height="44" viewBox="0 0 145 44" fill="none" xmlns="http://www.w3.org/2000/svg">
<g clip-path="url(#clip0_534_15174)">
<g clip-path="url(#clip1_534_15174)">
<g clip-path="url(#clip2_534_15174)">
<path d="M138.867 0.96875H6.30395C3.37574 0.96875 1.00195 3.34254 1.00195 6.27075V38.0868C1.00195 41.015 3.37574 43.3887 6.30395 43.3887H138.867C141.795 43.3887 144.169 41.015 144.169 38.0868V6.27075C144.169 3.34254 141.795 0.96875 138.867 0.96875Z" fill="white"/>
<path d="M94.2234 21.3318V23.7617H92.7004V25.3547H94.2234V30.7687C94.2234 32.6167 95.0594 33.3567 97.1634 33.3567C97.5334 33.3567 97.8854 33.3127 98.1934 33.2597V31.6838C97.9539 31.7127 97.7128 31.7274 97.4714 31.7278C96.5294 31.7278 96.1154 31.2878 96.1154 30.2838V25.3538H98.1934V23.7617H96.1154V21.3318H94.2234ZM103.552 33.4887C106.352 33.4887 108.068 31.6138 108.068 28.5058C108.068 25.4158 106.343 23.5328 103.552 23.5328C100.753 23.5328 99.0284 25.4158 99.0284 28.5058C99.0284 31.6138 100.744 33.4887 103.552 33.4887ZM103.552 31.8067C101.906 31.8067 100.982 30.6007 100.982 28.5068C100.982 26.4287 101.906 25.2138 103.552 25.2138C105.19 25.2138 106.123 26.4288 106.123 28.5058C106.123 30.5928 105.19 31.8067 103.552 31.8067ZM109.537 33.3038H111.43V27.6437C111.43 26.2967 112.442 25.3897 113.877 25.3897C114.211 25.3897 114.775 25.4517 114.933 25.5037V23.6378C114.731 23.5848 114.37 23.5588 114.088 23.5588C112.838 23.5588 111.773 24.2458 111.5 25.1877H111.359V23.7178H109.537V33.3038ZM119.633 25.1427C121.032 25.1427 121.948 26.1208 121.992 27.6257H117.15C117.256 26.1287 118.233 25.1427 119.633 25.1427ZM121.983 30.7157C121.631 31.4637 120.847 31.8778 119.703 31.8778C118.189 31.8778 117.212 30.8127 117.15 29.1308V29.0257H123.92V28.3657C123.92 25.3547 122.309 23.5328 119.641 23.5328C116.939 23.5328 115.222 25.4778 115.222 28.5408C115.222 31.6047 116.904 33.4887 119.65 33.4887C121.842 33.4887 123.374 32.4317 123.805 30.7157H121.983ZM81.8114 29.7638C81.9574 32.1178 83.9194 33.6238 86.8384 33.6238C89.9584 33.6238 91.9114 32.0438 91.9114 29.5268C91.9114 27.5468 90.7984 26.4517 88.0984 25.8218L86.6474 25.4657C84.9314 25.0648 84.2384 24.5258 84.2384 23.5858C84.2384 22.4008 85.3154 21.6257 86.9304 21.6257C88.4624 21.6257 89.5204 22.3818 89.7124 23.5958H91.7024C91.5824 21.3788 89.6304 19.8188 86.9574 19.8188C84.0834 19.8188 82.1674 21.3788 82.1674 23.7238C82.1674 25.6578 83.2534 26.8078 85.6344 27.3638L87.3314 27.7738C89.0744 28.1847 89.8414 28.7878 89.8414 29.7908C89.8414 30.9587 88.6364 31.8078 86.9944 31.8078C85.2334 31.8078 84.0104 31.0138 83.8374 29.7638H81.8114ZM62.2054 23.5588C60.9034 23.5588 59.7754 24.2098 59.1954 25.3018H59.0544V23.7178H57.2324V36.4898H59.1244V31.8498H59.2744C59.7764 32.8628 60.8584 33.4607 62.2234 33.4607C64.6434 33.4607 66.1844 31.5507 66.1844 28.5047C66.1844 25.4587 64.6444 23.5588 62.2054 23.5588ZM61.6684 31.7628C60.0844 31.7628 59.0894 30.5127 59.0894 28.5147C59.0894 26.5077 60.0844 25.2577 61.6774 25.2577C63.2794 25.2577 64.2394 26.4818 64.2394 28.5058C64.2394 30.5398 63.2784 31.7628 61.6684 31.7628ZM72.8074 23.5588C71.5044 23.5588 70.3774 24.2098 69.7974 25.3018H69.6564V23.7178H67.8334V36.4898H69.7264V31.8498H69.8764C70.3774 32.8628 71.4604 33.4607 72.8244 33.4607C75.2454 33.4607 76.7864 31.5507 76.7864 28.5047C76.7864 25.4587 75.2464 23.5578 72.8064 23.5578L72.8074 23.5588ZM72.2704 31.7628C70.6854 31.7628 69.6904 30.5127 69.6904 28.5147C69.6904 26.5077 70.6854 25.2577 72.2794 25.2577C73.8814 25.2577 74.8404 26.4818 74.8404 28.5058C74.8404 30.5398 73.8804 31.7628 72.2704 31.7628ZM53.8364 33.3038H56.0084L51.2544 20.1378H49.0554L44.3014 33.3038H46.4004L47.6134 29.8088H52.6324L53.8364 33.3038ZM50.0504 22.5278H50.2054L52.1124 28.0938H48.1334L50.0504 22.5278ZM45.5734 10.2067V16.5578H47.8664C49.7594 16.5578 50.8554 15.3918 50.8554 13.3628C50.8554 11.3647 49.7504 10.2067 47.8664 10.2067H45.5734ZM46.5594 11.1047H47.7564C49.0724 11.1047 49.8514 11.9408 49.8514 13.3758C49.8514 14.8328 49.0854 15.6608 47.7564 15.6608H46.5594V11.1047ZM54.2114 16.6497C55.6114 16.6497 56.4694 15.7127 56.4694 14.1597C56.4694 12.6147 55.6074 11.6728 54.2114 11.6728C52.8114 11.6728 51.9494 12.6147 51.9494 14.1597C51.9494 15.7127 52.8074 16.6497 54.2114 16.6497ZM54.2114 15.8098C53.3884 15.8098 52.9264 15.2067 52.9264 14.1597C52.9264 13.1198 53.3884 12.5127 54.2114 12.5127C55.0304 12.5127 55.4964 13.1207 55.4964 14.1597C55.4964 15.2028 55.0304 15.8098 54.2114 15.8098ZM63.7784 11.7648H62.8324L61.9784 15.4228H61.9034L60.9174 11.7648H60.0114L59.0254 15.4228H58.9554L58.0954 11.7648H57.1364L58.4564 16.5578H59.4304L60.4164 13.0278H60.4904L61.4804 16.5578H62.4624L63.7784 11.7648ZM64.8684 16.5578H65.8144V13.7548C65.8144 13.0058 66.2594 12.5398 66.9594 12.5398C67.6594 12.5398 67.9934 12.9227 67.9934 13.6927V16.5578H68.9394V13.4548C68.9394 12.3148 68.3494 11.6728 67.2804 11.6728C66.5584 11.6728 66.0834 11.9938 65.8504 12.5268H65.7804V11.7648H64.8684V16.5578ZM70.4304 16.5578H71.3764V9.89475H70.4304V16.5578ZM74.9354 16.6497C76.3354 16.6497 77.1934 15.7127 77.1934 14.1597C77.1934 12.6147 76.3304 11.6728 74.9354 11.6728C73.5354 11.6728 72.6734 12.6147 72.6734 14.1597C72.6734 15.7127 73.5314 16.6497 74.9354 16.6497ZM74.9354 15.8098C74.1124 15.8098 73.6504 15.2067 73.6504 14.1597C73.6504 13.1198 74.1124 12.5127 74.9354 12.5127C75.7544 12.5127 76.2204 13.1207 76.2204 14.1597C76.2204 15.2028 75.7544 15.8098 74.9354 15.8098ZM80.0134 15.8398C79.4984 15.8398 79.1234 15.5898 79.1234 15.1588C79.1234 14.7358 79.4234 14.5118 80.0834 14.4678L81.2534 14.3927V14.7928C81.2534 15.3878 80.7264 15.8398 80.0134 15.8398ZM79.7714 16.6378C80.4004 16.6378 80.9244 16.3647 81.2104 15.8848H81.2854V16.5578H82.1954V13.2838C82.1954 12.2708 81.5184 11.6728 80.3164 11.6728C79.2294 11.6728 78.4544 12.2008 78.3584 13.0238H79.2734C79.3794 12.6848 79.7444 12.4908 80.2734 12.4908C80.9194 12.4908 81.2534 12.7778 81.2534 13.2838V13.6967L79.9554 13.7718C78.8154 13.8418 78.1734 14.3397 78.1734 15.2017C78.1734 16.0787 78.8464 16.6378 79.7714 16.6378ZM85.4074 16.6378C86.0674 16.6378 86.6274 16.3247 86.9124 15.8007H86.9874V16.5578H87.8944V9.89475H86.9484V12.5268H86.8784C86.6184 11.9978 86.0634 11.6858 85.4084 11.6858C84.1974 11.6858 83.4184 12.6458 83.4184 14.1597C83.4184 15.6777 84.1874 16.6378 85.4074 16.6378ZM85.6764 12.5347C86.4684 12.5347 86.9664 13.1647 86.9664 14.1637C86.9664 15.1677 86.4724 15.7878 85.6764 15.7878C84.8744 15.7878 84.3954 15.1757 84.3954 14.1597C84.3954 13.1518 84.8804 12.5347 85.6764 12.5347ZM94.0304 16.6497C95.4304 16.6497 96.2884 15.7127 96.2884 14.1597C96.2884 12.6147 95.4264 11.6728 94.0314 11.6728C92.6314 11.6728 91.7684 12.6147 91.7684 14.1597C91.7684 15.7127 92.6254 16.6497 94.0304 16.6497ZM94.0304 15.8098C93.2074 15.8098 92.7454 15.2067 92.7454 14.1597C92.7454 13.1198 93.2074 12.5127 94.0304 12.5127C94.8504 12.5127 95.3164 13.1207 95.3164 14.1597C95.3164 15.2028 94.8484 15.8098 94.0304 15.8098ZM97.5414 16.5578H98.4874V13.7548C98.4874 13.0058 98.9324 12.5398 99.6324 12.5398C100.332 12.5398 100.666 12.9227 100.666 13.6927V16.5578H101.613V13.4548C101.613 12.3148 101.023 11.6728 99.9534 11.6728C99.2314 11.6728 98.7564 11.9938 98.5234 12.5268H98.4534V11.7648H97.5414V16.5578ZM105.971 10.5717V11.7867H105.209V12.5837H105.971V15.2908C105.971 16.2148 106.389 16.5847 107.441 16.5847C107.626 16.5847 107.802 16.5627 107.956 16.5357V15.7478C107.824 15.7618 107.74 15.7708 107.595 15.7708C107.124 15.7708 106.917 15.5507 106.917 15.0487V12.5837H107.956V11.7867H106.917V10.5717H105.971ZM109.226 16.5578H110.173V13.7598C110.173 13.0338 110.604 12.5448 111.379 12.5448C112.048 12.5448 112.404 12.9328 112.404 13.6978V16.5588H113.35V13.4648C113.35 12.3248 112.721 11.6778 111.7 11.6778C110.978 11.6778 110.472 11.9988 110.239 12.5358H110.164V9.89575H109.226V16.5578ZM116.764 12.4777C117.464 12.4777 117.922 12.9668 117.944 13.7188H115.523C115.576 12.9707 116.064 12.4788 116.764 12.4788V12.4777ZM117.939 15.2638C117.763 15.6388 117.372 15.8448 116.799 15.8448C116.042 15.8448 115.554 15.3127 115.523 14.4718V14.4187H118.908V14.0887C118.908 12.5837 118.102 11.6728 116.769 11.6728C115.417 11.6728 114.559 12.6458 114.559 14.1768C114.559 15.7087 115.4 16.6507 116.773 16.6507C117.869 16.6507 118.635 16.1228 118.85 15.2638H117.939ZM31.0504 22.3908C31.0814 20.1528 32.3554 18.0338 34.3764 16.8608C33.1014 15.1427 30.9664 14.0538 28.7444 13.9878C26.3744 13.7537 24.0774 15.3258 22.8704 15.3258C21.6394 15.3258 19.7804 14.0118 17.7784 14.0498C15.1684 14.1298 12.7354 15.5298 11.4664 17.6828C8.73644 22.1428 10.7724 28.6957 13.3864 32.3007C14.6954 34.0657 16.2234 36.0367 18.2244 35.9667C20.1814 35.8907 20.9124 34.7888 23.2744 34.7888C25.6154 34.7888 26.3014 35.9668 28.3424 35.9228C30.4424 35.8908 31.7654 34.1497 33.0274 32.3678C33.9616 31.1212 34.6855 29.7301 35.1704 28.2498C32.7024 27.2647 31.0544 24.9198 31.0504 22.3908ZM27.1964 11.6178C28.3414 10.3198 28.9064 8.65275 28.7694 6.96875C27.0194 7.14275 25.4034 7.93175 24.2424 9.17875C23.1084 10.3988 22.5174 12.0368 22.6294 13.6558C24.3794 13.6728 26.0994 12.9058 27.1964 11.6178Z" fill="black"/>
</g>
</g>
</g>
<defs>
<clipPath id="clip0_534_15174">
<rect width="144" height="44" fill="white" transform="translate(0.169922)"/>
</clipPath>
<clipPath id="clip1_534_15174">
<rect width="144" height="44" fill="white" transform="translate(0.169922)"/>
</clipPath>
<clipPath id="clip2_534_15174">
<rect width="144" height="44" fill="white" transform="translate(0.169922)"/>
</clipPath>
</defs>
</svg>
