<svg width="51" height="51" viewBox="0 0 51 51" fill="none" xmlns="http://www.w3.org/2000/svg">
<path fill-rule="evenodd" clip-rule="evenodd" d="M34.9845 21.4083H41.7723C42.309 21.4083 42.8333 21.4626 43.3387 21.565V6.2663C43.3387 4.24667 41.7034 2.61133 39.6837 2.61133H22.9753C20.9557 2.61133 19.3203 4.24667 19.3203 6.2663V6.78844H28.1967C29.997 6.78844 31.7242 7.50272 32.9962 8.77674C34.2702 10.0487 34.9845 11.7759 34.9845 13.5762V21.4083Z" fill="#DF5759"/>
<path fill-rule="evenodd" clip-rule="evenodd" d="M6.78906 14.255C7.29449 14.1526 7.81872 14.0983 8.35548 14.0983H21.8705C24.3998 14.0983 26.7724 15.3201 28.2427 17.3774L30.9662 21.189C31.0643 21.3268 31.2231 21.4083 31.3901 21.4083H32.896V13.5762C32.896 12.3293 32.401 11.1347 31.5196 10.2533C30.6383 9.37194 29.4436 8.87695 28.1967 8.87695H10.444C8.4244 8.87695 6.78906 10.5144 6.78906 12.5319V14.255Z" fill="#DF5759"/>
<path fill-rule="evenodd" clip-rule="evenodd" d="M41.772 47.5158C44.9424 47.5158 47.5155 44.9427 47.5155 41.7723V29.241C47.5155 26.0705 44.9424 23.4974 41.772 23.4974H31.3898C30.5481 23.4974 29.7565 23.0902 29.2657 22.4051L26.5443 18.5935C25.4645 17.0835 23.7248 16.1875 21.8701 16.1875C17.5782 16.1875 8.3551 16.1875 8.3551 16.1875C5.18467 16.1875 2.61157 18.7606 2.61157 21.931V41.7723C2.61157 44.9427 5.18467 47.5158 8.3551 47.5158H41.772ZM12.5322 39.1616H18.7979C19.6625 39.1616 20.3643 38.4598 20.3643 37.5952C20.3643 36.7305 19.6625 36.0288 18.7979 36.0288H12.5322C11.6675 36.0288 10.9658 36.7305 10.9658 37.5952C10.9658 38.4598 11.6675 39.1616 12.5322 39.1616ZM12.5322 33.9402H18.7979C19.6625 33.9402 20.3643 33.2385 20.3643 32.3738C20.3643 31.5091 19.6625 30.8074 18.7979 30.8074H12.5322C11.6675 30.8074 10.9658 31.5091 10.9658 32.3738C10.9658 33.2385 11.6675 33.9402 12.5322 33.9402Z" fill="#DF5759"/>
</svg>
