<svg width="51" height="51" viewBox="0 0 51 51" fill="none" xmlns="http://www.w3.org/2000/svg">
<g clip-path="url(#clip0_385_862)">
<g clip-path="url(#clip1_385_862)">
<path fill-rule="evenodd" clip-rule="evenodd" d="M7.05914 35.0737C7.13746 35.6043 6.77062 36.0969 6.24244 36.1746C5.70937 36.2524 5.22026 35.8851 5.14204 35.3544C5.06381 34.8247 5.43055 34.3312 5.95873 34.2535C6.4918 34.1767 6.98581 34.5435 7.05914 35.0737ZM33.4848 14.3638C36.1861 17.3614 38.2019 19.9644 39.5319 22.2997C42.0541 26.7282 41.4299 31.1924 38.957 34.4602L36.7521 35.7444C36.1588 36.0899 35.5544 36.3089 34.9297 36.416C35.1903 36.0697 35.392 35.6552 35.5217 35.1745C36.0122 33.3566 34.9241 31.5589 33.1774 30.9535L33.0643 30.9144L32.9466 30.8928C32.5429 30.8189 32.1416 30.7354 31.7425 30.6438C32.0991 30.1669 32.3083 29.5796 32.2914 28.8723C32.2884 28.7506 32.2815 28.6435 32.2704 28.552C32.129 27.3872 31.4988 26.629 30.6633 26.1245C29.9293 25.6813 29.0491 25.4606 28.2421 25.3281C27.6601 25.2326 27.047 25.0709 26.598 24.7778C26.2502 24.5506 26.0006 24.2219 25.9773 23.7411C25.9521 23.2208 26.1792 22.8012 26.537 22.5103C26.8173 22.2824 27.175 22.124 27.5626 22.046C27.7186 22.0146 27.8792 21.9965 28.0412 21.9923C28.0583 21.9933 28.0756 21.9938 28.0931 21.9938C28.114 21.9938 28.1349 21.9931 28.1554 21.9916C28.3697 21.9947 28.5856 22.0222 28.7965 22.0757C29.4447 22.24 30.0348 22.6672 30.3457 23.4074C30.5319 23.8513 31.0428 24.0603 31.4867 23.874C31.9306 23.6878 32.1396 23.1769 31.9534 22.7329C31.4061 21.4295 30.3642 20.6765 29.2188 20.3861C29.1348 20.3649 29.0501 20.3462 28.9651 20.33V19.6543C28.9651 19.1727 28.5746 18.7823 28.0931 18.7823C27.6115 18.7823 27.2211 19.1727 27.2211 19.6543V20.343C26.5604 20.4763 25.94 20.7551 25.4402 21.1614C24.6722 21.7858 24.1853 22.6924 24.2402 23.8228C24.2953 24.9586 24.862 25.7204 25.6511 26.2356C26.339 26.6847 27.1838 26.917 27.9628 27.0448C28.5884 27.1475 29.2564 27.31 29.764 27.6164C30.1699 27.8614 30.4749 28.2197 30.5401 28.7563C30.5487 28.8279 30.5534 28.8799 30.5542 28.9131C30.5643 29.3398 30.3602 29.665 30.0536 29.8977C29.9496 29.9766 29.8341 30.0468 29.7104 30.1084C27.4581 29.4459 25.3655 28.5871 23.1413 27.8655C20.8193 27.1121 18.6554 27.9647 16.6493 29.1269L15.283 29.9185C14.8482 27.5348 15.2399 24.9113 16.7273 22.2998C18.0573 19.9645 20.0732 17.3615 22.7744 14.364C23.1133 14.4745 23.4748 14.5344 23.8497 14.5344H32.4095C32.7844 14.5343 33.1457 14.4743 33.4848 14.3638ZM23.8496 12.9679H32.4094C33.4648 12.9679 34.3282 12.1044 34.3282 11.0493C34.3282 9.99392 33.4649 9.13063 32.4094 9.13063H23.8496C22.7943 9.13063 21.931 9.99392 21.931 11.0492C21.9309 12.1045 22.7943 12.9679 23.8496 12.9679ZM23.7798 7.565L22.2039 5.98908C21.4372 5.22232 21.4372 3.96753 22.2039 3.20076C22.8561 2.54855 23.8885 2.43831 24.6647 2.93643C24.9529 3.12147 25.284 3.15093 25.6004 3.02004C25.9167 2.88895 26.1299 2.63411 26.203 2.29939C26.3962 1.41427 27.1887 0.74629 28.1297 0.746094C29.0537 0.746094 29.8595 1.39743 30.0565 2.29939C30.1295 2.63411 30.3427 2.88895 30.6591 3.02004C30.9755 3.15113 31.3065 3.12147 31.5946 2.93643C32.357 2.44712 33.3899 2.53533 34.0553 3.20057V3.20076C34.8221 3.96753 34.8221 5.22232 34.0553 5.98908L32.4794 7.565C32.4562 7.56451 32.4329 7.56411 32.4095 7.56411H23.8497C23.8263 7.56411 23.803 7.5646 23.7798 7.565ZM10.1862 34.6814L15.4114 43.9019L17.3774 42.7673C17.5681 42.6567 17.7932 42.6274 18.0084 42.6846L30.3559 45.404C31.9893 45.8409 33.5251 45.6251 34.9287 44.7624L49.9227 35.4437C50.7395 34.9429 50.9889 33.4726 50.4265 32.5312C49.6097 31.1677 47.4481 31.3286 44.6408 32.9626L37.5405 37.0979C36.0635 37.9607 34.4691 38.2399 32.6741 37.9524C32.3465 37.8995 32.0237 37.8432 31.7058 37.7821C31.6373 37.7772 25.6656 36.2249 24.981 36.0405C24.5359 35.9221 24.2718 35.4673 24.3941 35.0257C24.5115 34.5826 24.9663 34.3205 25.4065 34.4388C26.1059 34.6261 30.3413 35.8268 31.9308 36.1359C32.7427 36.1877 33.6865 35.9618 34.0094 34.7665C34.2736 33.7864 33.6963 32.7911 32.6645 32.4336C29.7642 31.9025 26.9617 30.8906 24.712 30.0759C23.9245 29.7917 23.2447 29.5461 22.6578 29.3554C20.809 28.7559 19.0533 29.5428 17.4344 30.4822L10.1862 34.6814ZM15.2219 46.949L7.23027 32.8278C7.15204 32.6898 7.02487 32.5909 6.86833 32.5475C6.81458 32.5333 6.76083 32.5259 6.70689 32.5259C6.60429 32.5259 6.50639 32.5519 6.41837 32.6018L3.69907 34.1399C3.41056 34.3028 3.31266 34.6681 3.474 34.9543L11.4657 49.0754C11.6271 49.3626 11.9939 49.4633 12.2776 49.3015L14.9969 47.7628C15.1338 47.685 15.2316 47.5565 15.2756 47.4024C15.3197 47.2478 15.3001 47.0869 15.2219 46.949Z" fill="#DF5759"/>
</g>
</g>
<defs>
<clipPath id="clip0_385_862">
<rect width="50.1253" height="50.1253" fill="white"/>
</clipPath>
<clipPath id="clip1_385_862">
<rect width="50.1253" height="50.1253" fill="white" transform="translate(2)"/>
</clipPath>
</defs>
</svg>
