<svg width="51" height="51" viewBox="0 0 51 51" fill="none" xmlns="http://www.w3.org/2000/svg">
<g clip-path="url(#clip0_385_832)">
<path d="M12.3731 15.6641H8.61545C8.18255 15.6641 7.83224 15.3138 7.83224 14.8809C7.83224 14.448 8.18255 14.0977 8.61545 14.0977H10.5456L8.69853 12.5146C8.66985 12.5177 8.6449 12.5313 8.61545 12.5313H5.48262C5.04971 12.5313 4.69941 12.181 4.69941 11.7481C4.69941 11.3152 5.04971 10.9649 5.48262 10.9649H6.89062L5.75644 9.99275C5.42755 9.71128 5.38931 9.21719 5.67154 8.88907C5.95377 8.55941 6.44863 8.5227 6.77522 8.80417L10.9651 12.3954V10.1203C10.9651 9.68738 11.3154 9.33708 11.7483 9.33708C12.1812 9.33708 12.5315 9.68738 12.5315 10.1203V13.7381L14.0979 15.0807V13.3145C14.0979 12.8816 14.4482 12.5313 14.8811 12.5313C15.314 12.5313 15.6643 12.8816 15.6643 13.3145V16.4234L17.1386 17.6871C17.1842 17.5401 17.2307 17.3925 17.2307 17.2305C17.2307 11.1844 12.312 6.26562 6.26583 6.26562H4.69941C3.83436 6.26562 3.133 6.96699 3.133 7.83204C3.133 13.8782 8.05176 18.797 14.0979 18.797H15.6643C15.7687 18.797 15.86 18.757 15.9587 18.7375L12.3731 15.6641Z" fill="#DF5759"/>
<path d="M28.3538 12.5313H32.1114C32.5443 12.5313 32.8946 12.181 32.8946 11.7481C32.8946 11.3152 32.5443 10.9649 32.1114 10.9649H30.1813L32.0283 9.38174C32.057 9.3849 32.0819 9.39848 32.1114 9.39848H35.2442C35.6771 9.39848 36.0274 9.04817 36.0274 8.61527C36.0274 8.18236 35.6771 7.83206 35.2442 7.83206H33.8362L34.9704 6.85993C35.2993 6.57847 35.3375 6.08437 35.0553 5.75625C34.7731 5.4266 34.2782 5.38989 33.9516 5.67135L29.7618 9.26262V6.98747C29.7618 6.55457 29.4115 6.20426 28.9785 6.20426C28.5456 6.20426 28.1953 6.55457 28.1953 6.98747V10.6053L26.6289 11.9479V10.1817C26.6289 9.74878 26.2786 9.39848 25.8457 9.39848C25.4128 9.39848 25.0625 9.74878 25.0625 10.1817V13.2906L23.5883 14.5542C23.5427 14.4073 23.4961 14.2597 23.4961 14.0977C23.4961 8.05157 28.4149 3.13281 34.461 3.13281H36.0274C36.8925 3.13281 37.5938 3.83418 37.5938 4.69923C37.5938 10.7454 32.6751 15.6641 26.6289 15.6641H25.0625C24.9581 15.6641 24.8668 15.6242 24.7681 15.6047L28.3538 12.5313Z" fill="#DF5759"/>
<path d="M45.426 9.39848H42.2932C41.4281 9.39848 40.7267 10.0998 40.7267 10.9649C40.7267 11.6385 41.1568 12.2011 41.7535 12.4223L36.0275 18.1484L34.0022 16.123C33.3903 15.5112 32.399 15.5112 31.7872 16.123L26.3138 21.5964C25.1982 20.2795 23.6827 19.3127 21.9297 18.9553V4.69923C21.9297 3.83418 21.2284 3.13281 20.3633 3.13281C19.4983 3.13281 18.7969 3.83418 18.7969 4.69923V18.9553C15.2266 19.6831 12.5312 22.847 12.5312 26.629C12.5312 30.9474 16.045 34.4611 20.3633 34.4611C24.6817 34.4611 28.1954 30.9474 28.1954 26.629C28.1954 25.8795 28.0559 25.1688 27.8584 24.4818L32.8947 19.4456L34.92 21.4709C35.5319 22.0828 36.5231 22.0828 37.135 21.4709L43.9686 14.6373C44.1898 15.2341 44.7523 15.6641 45.426 15.6641C46.291 15.6641 46.9924 14.9628 46.9924 14.0977V10.9649C46.9924 10.0998 46.291 9.39848 45.426 9.39848ZM20.3633 25.8458C22.0904 25.8458 23.4962 27.2509 23.4962 28.9787C23.4962 30.4344 22.4936 31.65 21.1465 32.0002V32.1115C21.1465 32.5444 20.7962 32.8947 20.3633 32.8947C19.9304 32.8947 19.5801 32.5444 19.5801 32.1115V32.0002C18.233 31.65 17.2305 30.4344 17.2305 28.9787C17.2305 28.5458 17.5808 28.1955 18.0137 28.1955C18.4466 28.1955 18.7969 28.5458 18.7969 28.9787C18.7969 29.8422 19.499 30.5451 20.3633 30.5451C21.2276 30.5451 21.9297 29.8422 21.9297 28.9787C21.9297 28.1152 21.2276 27.4123 20.3633 27.4123C18.6363 27.4123 17.2305 26.0072 17.2305 24.2794C17.2305 22.8237 18.233 21.6081 19.5801 21.2579V21.1466C19.5801 20.7137 19.9304 20.3634 20.3633 20.3634C20.7962 20.3634 21.1465 20.7137 21.1465 21.1466V21.2579C22.4936 21.6081 23.4962 22.8237 23.4962 24.2794C23.4962 24.7123 23.1459 25.0626 22.713 25.0626C22.28 25.0626 21.9297 24.7123 21.9297 24.2794C21.9297 23.4159 21.2276 22.713 20.3633 22.713C19.499 22.713 18.7969 23.4159 18.7969 24.2794C18.7969 25.1429 19.499 25.8458 20.3633 25.8458Z" fill="#DF5759"/>
<path d="M45.4262 20.3633H42.2934C41.4283 20.3633 40.727 21.0646 40.727 21.9297V43.8595H39.1606V29.7618C39.1606 28.8967 38.4593 28.1954 37.5941 28.1954H34.4613C33.5962 28.1954 32.8949 28.8967 32.8949 29.7618V43.8595H31.3285V36.0274C31.3285 35.1623 30.6272 34.461 29.7621 34.461H26.6292C25.7641 34.461 25.0628 35.1623 25.0628 36.0274V43.8595H23.4964V40.7267C23.4964 39.8616 22.7951 39.1603 21.93 39.1603H18.7972C17.932 39.1603 17.2307 39.8616 17.2307 40.7267V43.8595H4.69941C3.83436 43.8595 3.133 44.5608 3.133 45.4259C3.133 46.291 3.83436 46.9924 4.69941 46.9924H45.4262C46.2913 46.9924 46.9926 46.291 46.9926 45.4259V21.9297C46.9926 21.0646 46.2913 20.3633 45.4262 20.3633Z" fill="#DF5759"/>
</g>
<defs>
<clipPath id="clip0_385_832">
<rect width="50.1253" height="50.1253" fill="white"/>
</clipPath>
</defs>
</svg>
