<svg width="30" height="30" viewBox="0 0 30 30" fill="none" xmlns="http://www.w3.org/2000/svg">
<g clip-path="url(#clip0_385_1375)">
<path d="M13.1309 17.8099L18.0102 14.9997L13.1309 12.1895V17.8099Z" fill="#343434"/>
<path d="M27.8364 0H2.16362C0.968628 0 0 0.968628 0 2.16362V27.8364C0 29.0314 0.968628 30 2.16362 30H27.8364C29.0314 30 30 29.0314 30 27.8364V2.16362C30 0.968628 29.0314 0 27.8364 0ZM24.3727 15.0153C24.3727 15.0153 24.3727 18.0574 23.9868 19.5243C23.7705 20.3272 23.1374 20.9603 22.3345 21.1764C20.8676 21.5625 15 21.5625 15 21.5625C15 21.5625 9.14772 21.5625 7.66548 21.161C6.86256 20.945 6.22948 20.3117 6.01318 19.5087C5.62706 18.0574 5.62706 15 5.62706 15C5.62706 15 5.62706 11.9582 6.01318 10.4913C6.22925 9.68834 6.8779 9.03969 7.66548 8.82362C9.13239 8.4375 15 8.4375 15 8.4375C15 8.4375 20.8676 8.4375 22.3345 8.83896C23.1374 9.05502 23.7705 9.68834 23.9868 10.4913C24.3883 11.9582 24.3727 15.0153 24.3727 15.0153Z" fill="#343434"/>
</g>
<defs>
<clipPath id="clip0_385_1375">
<rect width="30" height="30" fill="white"/>
</clipPath>
</defs>
</svg>
